<?xml version="1.0" encoding="utf-8"?>
<!-- Generator: Adobe Illustrator 13.0.0, SVG Export Plug-In . SVG Version: 6.00 Build 14948)  -->
<!DOCTYPE svg PUBLIC "-//W3C//DTD SVG 1.1//EN" "http://www.w3.org/Graphics/SVG/1.1/DTD/svg11.dtd">
<svg version="1.1" id="Layer_1" xmlns="http://www.w3.org/2000/svg" xmlns:xlink="http://www.w3.org/1999/xlink" x="0px" y="0px"
	 width="132.323px" height="132.36px" viewBox="0 0 132.323 132.36" enable-background="new 0 0 132.323 132.36"
	 xml:space="preserve">
<g>
	<path fill-rule="evenodd" clip-rule="evenodd" fill="#83205D" d="M115.139,83.578c4.272-0.887,13.28-2.756,16.142-5.348
		c0.836-0.75-0.422-4.43,1.043-1.24c-4.363,7.889-14.547,3.455-20.837,10.908c0.129,2.09,2.927,3.951-0.048,6.284
		c3.169,3.756,5.611,7.561,10.656,11.143c2.064,5.542-3.592,11.743,4.834,16.765c-1.01,1.674-2.514-2.719-3.412,0.283
		c-3.24-5.426-4.258-11.548-11.556-15.061c-2.036,4.936,3.471,9.246,6.304,13.783c-6.357-7.209-11.857-15.79-23.117-16.398
		c-0.363,2.533,5.676,0.951,5.544,4.69c-2.056,1.369-0.865-2.104-3.068-2.599c5.074,6.889,5.772,16.89,8.989,25.571
		c-5.182-9.858-5.165-20.178-15.066-29.642c-8.668,5.893-16.83,17.693-26.515,11.375c3.147-6.357,9.292-9.771,14.335-13.217
		c-12.374,0.148-23.497,15.455-36.213,11.6c-3.81,0.18-7.285,4.206-11.181,3.217c-3.42-1.804-2.646-3.97-3.363-5.997
		c-2.176-0.854-4.236-0.337-6.396-1.194c-2.613-1.875,0.737-4.252-1.084-6.2C13.922,94.275,5.401,105.11,0,96.047
		c3.543-2.881,6.592-1.229,8.619-6.434c5.019-1.61,10.306,0.14,15.586,1.554c-2.801-4.68,9.874-6.602,5.259-12.458
		c7.428-5.492,14.521-12.015,23.718-10.555c-0.424-2.445-1.397-4.844-2.323-7.252c3.323-14.958,3.271-29.646,3.741-44.376
		C52.578,11.168,50.566,5.805,53.795,0c3.236,0.01,6.666,2.154,10.173,5.455c2.741-1.557,5.416-3.65,8.289-3.557
		c30.014,21.805,34.074,61.671,31.271,86.651c3.665,2.624,5.321-0.532,8.812-4.171c5.597-5.823,14.284-4.56,14.45-12.064
		C128.831,78.95,118.724,80.18,115.139,83.578z M110.911,94.807c-0.858,1.094-1.801,1.184-2.795,0.807
		c-3.952,9.366,11.318,13.498,13.697,20.041C124.46,108.172,116.341,101.611,110.911,94.807z M108.538,107.603
		c-2.6-1.544-5.255-3.727-7.609-2.226C103.479,106.294,106.086,107.811,108.538,107.603z M99.603,103.186
		c4.822,3.25,5.324-3.925,4.594-6.672C102.059,98.79,100.335,101.036,99.603,103.186z"/>
	<path fill-rule="evenodd" clip-rule="evenodd" fill="#FF5E79" d="M101.536,74.955c0,0-5.369-17.865-8.453-33.725
		c-2.319-11.892-11.539-24.579-19.694-29.604c-6.123-3.774-9.324-2.064-11.445,2.611c-1.015,2.226-1.9,5.455-0.217,11.688
		c1.739,6.422,1.196,4.226,6.474,5.811c3.791,1.143,9.306,4.596,14.057,14.547c0,0,10.809,24.885,14.593,27.641
		c3.776,2.754,5.739,5.199,5.739,5.199L101.536,74.955z"/>
	<path fill-rule="evenodd" clip-rule="evenodd" fill="#95AF2E" d="M80.135,52.907c0,0-6.667-17.447-15.146-17.491
		c0,0-9.134,2.354-2.202,16.771c3.591,7.461,5.444,6.619,12.733,10.246c4.996,2.49,10.93,6.131,14.712,10.76
		c0,0,8.009,9.57,0.611-3.642L80.135,52.907z"/>
	<path fill-rule="evenodd" clip-rule="evenodd" fill="#95AF2E" d="M74.903,65.482c0,0-7.508-5.139-7.467-2.459
		c0,0-2.973,9.081,4.002,10.85c0,0,12.855,1.428,15.604,3.1l4.857,2.871c0,0,0.669-1.831-0.844-2.932
		c-1.512-1.1-7.781-5.669-7.781-5.669L74.903,65.482z"/>
	<path fill-rule="evenodd" clip-rule="evenodd" fill="#BED630" d="M73.762,94.414c0,0-19.663,15.707-27.163,15.789
		c0,0-16.684-2.323-16.203-4.158c0.477-1.841,2.424-0.295,11.071-1.893l31.851-13.507C76.063,90.082,76.517,90.881,73.762,94.414z"
		/>
	<path fill-rule="evenodd" clip-rule="evenodd" fill="#BED630" d="M77.384,85.555c0,0-26.465,10.906-34.226,10.99
		c-4.13,1.602-8.249,3.197-12.379,4.793c0,0-2.563-7.425,3.318-9.974c6.421-1.145,12.849-2.288,19.283-3.438
		c4.355-0.603,8.71-1.207,13.076-1.806C70.097,85.928,73.741,85.74,77.384,85.555z"/>
	<path fill-rule="evenodd" clip-rule="evenodd" fill="#BED630" d="M76.448,79.542c-4.49-2.632-19.202-5.074-25.444-4.331
		c-6.241,0.734-13.735,6.313-10.235,8.947c3.497,2.631,13.705,0.479,19.167-0.576c5.469-1.06,11.451-0.625,11.451-0.625
		c2.527,0.1,3.57,1.473,7.594,0.292C83.006,82.068,80.468,77.74,76.448,79.542z"/>
</g>
</svg>
