<?xml version="1.0" encoding="utf-8"?>
<!-- Generator: Adobe Illustrator 13.0.0, SVG Export Plug-In . SVG Version: 6.00 Build 14948)  -->
<!DOCTYPE svg PUBLIC "-//W3C//DTD SVG 1.1//EN" "http://www.w3.org/Graphics/SVG/1.1/DTD/svg11.dtd">
<svg version="1.1" id="Layer_1" xmlns="http://www.w3.org/2000/svg" xmlns:xlink="http://www.w3.org/1999/xlink" x="0px" y="0px"
	 width="59.711px" height="56.571px" viewBox="-58.679 -86.792 59.711 56.571"
	 enable-background="new -58.679 -86.792 59.711 56.571" xml:space="preserve">
<g>
	<path fill="#83205D" d="M-35.678-84.933c-3.093,0.764-1.765,4.245-3.659,7.103c-1.184,1.782-2.338,2.761-0.912,4.036
		c10.087-3.475,26.974-5.484,38.785,4.927c0.305,1.182-0.314,2.484-0.705,3.763c1.692,1.147,2.897,2.369,3.201,3.708
		c-2.105,1.875-4.513,1.538-6.919,1.197c-6.058,1.559-12.146,2.897-18.033,5.659c-1.083-0.161-2.167-0.341-3.218-0.291
		c1.456,3.674-0.589,7.215-2.176,10.801c-2.853-1.37-2.474,4.059-4.672,3.332c1.075,2.056,2.289,4.084,2.087,6.312
		c-1.968,1.321-1.002,2.431-1.867,4.166c-4.253-1.398-0.555-5.93-4.546-8.172c-0.976-0.574-1.65,1.034-2.669,0.125
		c-0.555-0.815-0.531-1.716-1.086-2.538c-0.907-0.11-1.731,0.411-2.796-0.838c-0.77-1.522,0.576-3.333,0.297-4.929
		c-2.774-4.909,2.536-10.934,1.451-16.073c-0.96,2.408-1.806,5.269-4.147,7.161c-3.514-3.426,0.618-7.899,2.256-12.035
		c-4.836-3.225-9.11-2.262-13.672-3.495c3.893,0.528,8.1-0.109,11.423,1.354c-0.409-0.866-1.737-0.051-1.36-1.03
		c1.537-0.401,1.44,2.247,2.456,1.862c-1.295-4.607-5.358-6.09-8.933-8.056c2.142,0.753,4.437,2.635,6.292,1.335
		c-2.131-2.697-4.761-2.552-7.308-3.391c1.16-0.651-0.799-0.867-0.199-1.44c2.861,3.025,4.905,0.108,7.392,0.45
		c1.951,1.758,3.753,2.417,5.602,3.382c0.691-1.448,1.721-0.462,2.599-0.602c2.504-3.296-0.275-7.103,2.588-9.641
		c1.457,0.312-0.184,0.132-0.417,0.547c-0.809,1.425-0.749,5.329-0.721,7.181C-38.189-80.864-38.616-85.164-35.678-84.933z
		 M-53.169-78.858c2.932,0.379,6.057,6.322,9.569,3.817c-0.248-0.376-0.298-0.775,0.076-1.232
		C-46.845-77.892-50.315-80.647-53.169-78.858z M-46.978-71.16c0.404-1.114-0.746-2.012-1.626-2.946
		C-48.463-73.071-47.594-72.131-46.978-71.16z M-43.609-73.334c-1.206-0.048-4.13,0.824-2.338,2.52
		C-45.125-71.317-44.354-72.238-43.609-73.334z"/>
	<path fill="#FF5E79" d="M-36.258-74.279c0,0,1.194,0.587,2.685,1.896c1.491,1.313,12.8,3.485,12.8,3.485
		c4.561,1.046,6.502,3.011,7.327,4.475c1.145,2.039,0.185,2.018,3.005,2.143c2.738,0.12,3.994-0.546,4.821-1.172
		c1.74-1.312,2.152-2.795,0.022-4.982c-2.837-2.913-8.945-5.557-14.086-5.416c-6.854,0.191-14.751-0.378-14.751-0.378
		L-36.258-74.279z"/>
	<path fill="#95AF2E" d="M-31.206-70.3c-6.157-1.841-1.452,0.59-1.452,0.59c2.268,1.137,4.325,3.258,5.819,5.097
		c2.177,2.683,2,3.528,5.423,4.325c6.613,1.536,6.742-2.465,6.742-2.465c-0.804-3.508-8.647-4.653-8.647-4.653L-31.206-70.3z"/>
	<path fill="#95AF2E" d="M-31.206-67.009c0,0-2.472-2.173-3.068-2.698c-0.596-0.524-1.292-0.078-1.292-0.078l1.639,1.745
		c0.947,0.984,2.729,6.176,2.729,6.176c1.379,2.725,4.865,0.652,4.865,0.652c1.113-0.231-1.71-2.865-1.71-2.865L-31.206-67.009z"/>
	<path fill="#BED630" d="M-38.319-61.089l-2.645,14.443c0.139,3.729,0.959,4.393,0.24,4.761c-0.715,0.369-3.222-6.326-3.222-6.326
		c-0.66-3.114,4.024-12.713,4.024-12.713C-38.713-62.391-38.341-62.277-38.319-61.089z"/>
	<path fill="#BED630" d="M-35.81-58.665c0.156,1.864,0.309,3.724,0.463,5.583c0.12,2.771,0.242,5.539,0.361,8.305
		c-0.511,2.672-3.823,2.298-3.823,2.298c0.278-1.858,0.558-3.712,0.838-5.571c-0.684-3.222,1.383-15.194,1.383-15.194
		C-36.327-61.718-36.067-60.191-35.81-58.665z"/>
	<path fill="#BED630" d="M-35.781-64.119c-0.116,1.776,0.549,2.082,0.824,3.118c0,0,0.734,2.438,0.802,4.801
		c0.069,2.36,0.123,6.788,1.537,7.992c1.415,1.206,3.032-2.415,2.757-5.067c-0.27-2.654-2.644-8.521-4.149-10.138
		C-33.637-65.245-35.664-65.895-35.781-64.119z"/>
</g>
</svg>
