<svg xmlns="http://www.w3.org/2000/svg" version="1.1" x="0" y="0" width="59.7" height="56.6" viewBox="-58.7 -86.8 59.7 56.6" enable-background="new -58.679 -86.792 59.711 56.571" xml:space="preserve"><path fill="#83205D" d="M-35.7-84.9c-3.1 0.8-1.8 4.2-3.7 7.1 -1.2 1.8-2.3 2.8-0.9 4 10.1-3.5 27-5.5 38.8 4.9 0.3 1.2-0.3 2.5-0.7 3.8 1.7 1.1 2.9 2.4 3.2 3.7 -2.1 1.9-4.5 1.5-6.9 1.2 -6.1 1.6-12.1 2.9-18 5.7 -1.1-0.2-2.2-0.3-3.2-0.3 1.5 3.7-0.6 7.2-2.2 10.8 -2.9-1.4-2.5 4.1-4.7 3.3 1.1 2.1 2.3 4.1 2.1 6.3 -2 1.3-1 2.4-1.9 4.2 -4.3-1.4-0.6-5.9-4.5-8.2 -1-0.6-1.6 1-2.7 0.1 -0.6-0.8-0.5-1.7-1.1-2.5 -0.9-0.1-1.7 0.4-2.8-0.8 -0.8-1.5 0.6-3.3 0.3-4.9 -2.8-4.9 2.5-10.9 1.5-16.1 -1 2.4-1.8 5.3-4.1 7.2 -3.5-3.4 0.6-7.9 2.3-12 -4.8-3.2-9.1-2.3-13.7-3.5 3.9 0.5 8.1-0.1 11.4 1.4 -0.4-0.9-1.7-0.1-1.4-1 1.5-0.4 1.4 2.2 2.5 1.9 -1.3-4.6-5.4-6.1-8.9-8.1 2.1 0.8 4.4 2.6 6.3 1.3 -2.1-2.7-4.8-2.6-7.3-3.4 1.2-0.7-0.8-0.9-0.2-1.4 2.9 3 4.9 0.1 7.4 0.5 2 1.8 3.8 2.4 5.6 3.4 0.7-1.4 1.7-0.5 2.6-0.6 2.5-3.3-0.3-7.1 2.6-9.6 1.5 0.3-0.2 0.1-0.4 0.5 -0.8 1.4-0.7 5.3-0.7 7.2C-38.2-80.9-38.6-85.2-35.7-84.9zM-53.2-78.9c2.9 0.4 6.1 6.3 9.6 3.8 -0.2-0.4-0.3-0.8 0.1-1.2C-46.8-77.9-50.3-80.6-53.2-78.9zM-47-71.2c0.4-1.1-0.7-2-1.6-2.9C-48.5-73.1-47.6-72.1-47-71.2zM-43.6-73.3c-1.2 0-4.1 0.8-2.3 2.5C-45.1-71.3-44.4-72.2-43.6-73.3z"/><path fill="#FF5E79" d="M-36.3-74.3c0 0 1.2 0.6 2.7 1.9 1.5 1.3 12.8 3.5 12.8 3.5 4.6 1 6.5 3 7.3 4.5 1.1 2 0.2 2 3 2.1 2.7 0.1 4-0.5 4.8-1.2 1.7-1.3 2.2-2.8 0-5 -2.8-2.9-8.9-5.6-14.1-5.4 -6.9 0.2-14.8-0.4-14.8-0.4L-36.3-74.3z"/><path fill="#95AF2E" d="M-31.2-70.3c-6.2-1.8-1.5 0.6-1.5 0.6 2.3 1.1 4.3 3.3 5.8 5.1 2.2 2.7 2 3.5 5.4 4.3 6.6 1.5 6.7-2.5 6.7-2.5 -0.8-3.5-8.6-4.7-8.6-4.7L-31.2-70.3z"/><path fill="#95AF2E" d="M-31.2-67c0 0-2.5-2.2-3.1-2.7 -0.6-0.5-1.3-0.1-1.3-0.1l1.6 1.7c0.9 1 2.7 6.2 2.7 6.2 1.4 2.7 4.9 0.7 4.9 0.7 1.1-0.2-1.7-2.9-1.7-2.9L-31.2-67z"/><path fill="#BED630" d="M-38.3-61.1l-2.6 14.4c0.1 3.7 1 4.4 0.2 4.8 -0.7 0.4-3.2-6.3-3.2-6.3 -0.7-3.1 4-12.7 4-12.7C-38.7-62.4-38.3-62.3-38.3-61.1z"/><path fill="#BED630" d="M-35.8-58.7c0.2 1.9 0.3 3.7 0.5 5.6 0.1 2.8 0.2 5.5 0.4 8.3 -0.5 2.7-3.8 2.3-3.8 2.3 0.3-1.9 0.6-3.7 0.8-5.6 -0.7-3.2 1.4-15.2 1.4-15.2C-36.3-61.7-36.1-60.2-35.8-58.7z"/><path fill="#BED630" d="M-35.8-64.1c-0.1 1.8 0.5 2.1 0.8 3.1 0 0 0.7 2.4 0.8 4.8 0.1 2.4 0.1 6.8 1.5 8 1.4 1.2 3-2.4 2.8-5.1 -0.3-2.7-2.6-8.5-4.1-10.1C-33.6-65.2-35.7-65.9-35.8-64.1z"/></svg>