<svg xmlns="http://www.w3.org/2000/svg" version="1.1" x="0" y="0" width="372.3" height="205.7" viewBox="0 0 372.3 205.7" enable-background="new 0 0 372.328 205.684" xml:space="preserve"><path fill="#95AF2E" d="M171.3 101.6c0 0 1.5-4.1-3-5.9 0 0-3.9-1.6-7.8 0.6 0.9 0.6 2.2 2.1 2.8 3.4C164 101 166.8 105 171.3 101.6z"/><path fill="#95AF2E" d="M171.1 101.3c0 0 3.5 3.4 4.3 5.5"/><path fill="#95AF2E" d="M173.8 92.8c0 0 3.3-4.4-1.6-8 0 0-4.1-3.2-9.5-2 0.9 1 1.8 3.3 2.1 5C165.3 89.6 167.2 95.2 173.8 92.8z"/><path fill="#95AF2E" d="M173.6 92.4c0 0 3.7 7.2 4.3 11"/><path fill="#95AF2E" d="M196.7 89c0 0-0.1-5.5 6-5.6 0 0 5.2-0.2 8.9 3.9 -1.3 0.3-3.4 1.6-4.7 2.9C205.6 91.3 200.7 94.8 196.7 89z"/><path fill="#95AF2E" d="M197.1 88.7c0 0-8 4.7-11.1 8"/><path fill="#95AF2E" d="M245.9 41.4c0 0 3.4-0.8 2.6-4.6 0 0-0.7-3.3-3.9-4.9 0 0.9-0.5 2.4-1 3.4C243 36.2 241.6 39.9 245.9 41.4z"/><path fill="#95AF2E" d="M246 41.1c0 0-0.7 3.8-1.8 5.3"/><path fill="#95AF2E" d="M252.8 39.1c0 0 4.4 0.2 4.7-4.6 0 0 0.3-4.2-2.9-7.2 -0.3 1-1.4 2.7-2.4 3.7C251.2 32 248.3 35.8 252.8 39.1z"/><path fill="#95AF2E" d="M253.1 38.8c0 0-3.2 5.8-5.5 7.9"/><path fill="#95AF2E" d="M185.9 124.4c0 0 4.5-9.3 14.9-4.3 0 0 9 4.1 11.6 14.2 -2.5-0.6-7.1-0.2-10.4 0.8C198.8 136 187.5 137.6 185.9 124.4z"/><path fill="#95AF2E" d="M186.8 124.3c0 0-15.9-0.1-23.1 3.1"/><path fill="#95AF2E" d="M173.8 132.8c0 0 5.8-5.1 11.5 1.3 0 0 5 5.4 3.9 13.1 -1.5-1.1-4.8-2.2-7.3-2.4C179.2 144.5 171.1 142.3 173.8 132.8z"/><path fill="#95AF2E" d="M174.4 133c0 0-7.7-3.6-11.7-3.6"/><path fill="#95AF2E" d="M193.3 60.9c0 0 3.5-3.4-0.3-7.3 0 0-3.2-3.4-8.1-3 0.6 1 1.2 3.1 1.2 4.7C186.2 57 187.2 62.2 193.3 60.9z"/><path fill="#95AF2E" d="M193.2 60.5c0 0 2.6 8 2.8 12.1"/><path fill="#95AF2E" d="M191.8 67.4c0 0 1.9-2.7-1.1-4.8 0 0-2.6-1.9-5.8-1.1 0.6 0.6 1.2 2 1.4 3C186.5 65.6 187.8 69 191.8 67.4z"/><path fill="#95AF2E" d="M191.6 67.2c0 0 2.7 4.4 3.3 6.8"/><path fill="#95AF2E" d="M197.1 63c0 0-1.7-2.6 1.2-4.5 0 0 2.5-1.6 5.4-0.7 -0.5 0.5-1.2 1.8-1.4 2.8C202.1 61.5 200.7 64.6 197.1 63z"/><path fill="#95AF2E" d="M197.2 62.8c0 0-1.9 2.8-2.2 4.4"/><path fill="#95AF2E" d="M220.3 45.1c0 0-1.7-2.6 1.2-4.5 0 0 2.5-1.6 5.4-0.7 -0.5 0.5-1.2 1.8-1.4 2.8C225.2 43.7 223.9 46.8 220.3 45.1z"/><path fill="#95AF2E" d="M220.4 44.9c0 0-1.9 2.8-2.2 4.4"/><path fill="#95AF2E" d="M212.8 52.2c0 0 2.2-1.5 0.5-3.9 0 0-1.4-2.1-4-2.4 0.2 0.6 0.3 1.8 0.2 2.6C209.4 49.4 209.4 52.3 212.8 52.2z"/><path fill="#95AF2E" d="M212.7 52c0 0 0.9 4.2 0.5 6.2"/><path fill="#95AF2E" d="M235.6 43.9c0 0 2.2-1.5 0.5-3.9 0 0-1.4-2.1-4-2.4 0.2 0.6 0.3 1.8 0.2 2.6C232.2 41.1 232.3 44 235.6 43.9z"/><path fill="#95AF2E" d="M235.6 43.7c0 0 0.6 2.8 0.2 4.2"/><circle fill="#95AF2E" cx="237.6" cy="69.4" r="1.4"/><path fill="#95AF2E" d="M264.1 55.3c-0.4 0.7-1.2 1-1.9 0.6 -0.7-0.4-1-1.2-0.6-1.9 0.4-0.7 1.2-1 1.9-0.6C264.2 53.7 264.5 54.6 264.1 55.3z"/><circle fill="#95AF2E" cx="243.2" cy="61.3" r="1.4"/><path fill="#95AF2E" d="M228 70.3c-0.4 0.7-1.2 1-1.9 0.6 -0.7-0.4-1-1.2-0.6-1.9 0.4-0.7 1.2-1 1.9-0.6C228.1 68.8 228.4 69.6 228 70.3z"/><circle fill="#95AF2E" cx="223.7" cy="78.5" r="0.8"/><path fill="#95AF2E" d="M229.3 74.6c-0.2 0.4-0.7 0.5-1 0.3 -0.4-0.2-0.5-0.7-0.3-1 0.2-0.4 0.7-0.5 1-0.3C229.4 73.8 229.5 74.2 229.3 74.6z"/><path fill="#95AF2E" d="M248 66.8c-0.2 0.4-0.7 0.5-1 0.3 -0.4-0.2-0.5-0.7-0.3-1 0.2-0.4 0.7-0.5 1-0.3C248.1 66 248.2 66.5 248 66.8z"/><circle fill="#95AF2E" cx="250.8" cy="53.1" r="0.8"/><circle fill="#95AF2E" cx="249.1" cy="56" r="0.8"/><circle fill="#95AF2E" cx="198" cy="81.9" r="1.4"/><path fill="#95AF2E" d="M226.6 83c-0.4 0.7-1.2 1-1.9 0.6 -0.7-0.4-1-1.2-0.6-1.9 0.4-0.7 1.2-1 1.9-0.6C226.7 81.4 227 82.3 226.6 83z"/><path fill="#95AF2E" d="M224.5 67.8c-0.4 0.7-1.2 1-1.9 0.6 -0.7-0.4-1-1.2-0.6-1.9 0.4-0.7 1.2-1 1.9-0.6C224.6 66.2 224.8 67.1 224.5 67.8z"/><circle fill="#95AF2E" cx="204.2" cy="96.9" r="1.4"/><circle fill="#95AF2E" cx="198" cy="81.9" r="1.4"/><circle fill="#95AF2E" cx="208.3" cy="102.2" r="0.8"/><path fill="#95AF2E" d="M212.4 89.1c-0.2 0.4-0.7 0.5-1 0.3 -0.4-0.2-0.5-0.7-0.3-1 0.2-0.4 0.7-0.5 1-0.3C212.5 88.3 212.6 88.8 212.4 89.1z"/><path fill="#95AF2E" d="M228.4 90.9c-0.2 0.4-0.7 0.5-1 0.3 -0.4-0.2-0.5-0.7-0.3-1 0.2-0.4 0.7-0.5 1-0.3C228.4 90.1 228.6 90.6 228.4 90.9z"/><circle fill="#95AF2E" cx="214.2" cy="79.5" r="1.4"/><circle fill="#95AF2E" cx="293.6" cy="105.9" r="0.8"/><circle fill="#95AF2E" cx="298.5" cy="101.6" r="0.8"/><path fill="#95AF2E" d="M285.4 107.5c-0.4 0.7-1.2 1-1.9 0.6 -0.7-0.4-1-1.2-0.6-1.9 0.4-0.7 1.2-1 1.9-0.6C285.5 105.9 285.7 106.8 285.4 107.5z"/><circle fill="#95AF2E" cx="186.4" cy="24.9" r="0.8"/><circle fill="#95AF2E" cx="191.3" cy="20.6" r="0.8"/><circle fill="#95AF2E" cx="188" cy="28.7" r="1.4"/><circle fill="#95AF2E" cx="176.9" cy="25.9" r="1.4"/><circle fill="#95AF2E" cx="180.2" cy="75.3" r="0.8"/><circle fill="#95AF2E" cx="185.1" cy="71.1" r="0.8"/><path fill="#95AF2E" d="M183.1 79.8c-0.4 0.7-1.2 1-1.9 0.6 -0.7-0.4-1-1.2-0.6-1.9 0.4-0.7 1.2-1 1.9-0.6C183.2 78.2 183.4 79.1 183.1 79.8z"/><circle fill="#95AF2E" cx="170.7" cy="76.3" r="1.4"/><circle fill="#95AF2E" cx="207.9" cy="30.2" r="1.4"/><path fill="#95AF2E" d="M205.5 39.4c-0.2 0.4-0.7 0.5-1 0.3 -0.4-0.2-0.5-0.7-0.3-1 0.2-0.4 0.7-0.5 1-0.3C205.6 38.5 205.7 39 205.5 39.4z"/><circle fill="#95AF2E" cx="209.8" cy="34.7" r="0.8"/><circle fill="#95AF2E" cx="206.5" cy="42.8" r="1.4"/><circle fill="#95AF2E" cx="204.3" cy="27.6" r="1.4"/><path fill="#95AF2E" d="M196.6 40.6c-0.4 0.7-1.2 1-1.9 0.6 -0.7-0.4-1-1.2-0.6-1.9 0.4-0.7 1.2-1 1.9-0.6C196.7 39.1 197 39.9 196.6 40.6z"/><circle fill="#95AF2E" cx="256.6" cy="90.3" r="1.4"/><path fill="#95AF2E" d="M247 91.2c-0.4 0.7-1.2 1-1.9 0.6 -0.7-0.4-1-1.2-0.6-1.9 0.4-0.7 1.2-1 1.9-0.6C247.1 89.6 247.4 90.5 247 91.2z"/><circle fill="#95AF2E" cx="242.7" cy="99.4" r="0.8"/><circle fill="#95AF2E" cx="247.7" cy="95.1" r="0.8"/><circle fill="#95AF2E" cx="242.2" cy="88" r="1.4"/><path fill="#95AF2E" d="M234.5 101c-0.4 0.7-1.2 1-1.9 0.6 -0.7-0.4-1-1.2-0.6-1.9 0.4-0.7 1.2-1 1.9-0.6C234.6 99.4 234.9 100.3 234.5 101z"/><circle fill="#95AF2E" cx="275.7" cy="3.8" r="1.4"/><path fill="#95AF2E" d="M266.2 4.6c-0.4 0.7-1.2 1-1.9 0.6 -0.7-0.4-1-1.2-0.6-1.9 0.4-0.7 1.2-1 1.9-0.6C266.3 3.1 266.6 3.9 266.2 4.6z"/><path fill="#95AF2E" d="M262.6 13.2c-0.2 0.4-0.7 0.5-1 0.3s-0.5-0.7-0.3-1c0.2-0.4 0.7-0.5 1-0.3C262.6 12.3 262.8 12.8 262.6 13.2z"/><circle fill="#95AF2E" cx="266.8" cy="8.5" r="0.8"/><circle fill="#95AF2E" cx="263.5" cy="16.6" r="1.4"/><circle fill="#95AF2E" cx="261.4" cy="1.4" r="1.4"/><path fill="#95AF2E" d="M253.7 14.5c-0.4 0.7-1.2 1-1.9 0.6 -0.7-0.4-1-1.2-0.6-1.9 0.4-0.7 1.2-1 1.9-0.6C253.8 12.9 254 13.7 253.7 14.5z"/><circle fill="#95AF2E" cx="216.6" cy="87.7" r="0.8"/><path fill="#95AF2E" d="M178.1 107.9c-0.4 0.7-1.2 1-1.9 0.6 -0.7-0.4-1-1.2-0.6-1.9 0.4-0.7 1.2-1 1.9-0.6C178.2 106.4 178.5 107.2 178.1 107.9z"/><path fill="#95AF2E" d="M205.5 108.3c-0.4 0.7-1.2 1-1.9 0.6 -0.7-0.4-1-1.2-0.6-1.9 0.4-0.7 1.2-1 1.9-0.6C205.7 106.8 205.9 107.6 205.5 108.3z"/><path fill="#95AF2E" d="M203.4 93.1c-0.4 0.7-1.2 1-1.9 0.6 -0.7-0.4-1-1.2-0.6-1.9 0.4-0.7 1.2-1 1.9-0.6C203.5 91.6 203.8 92.4 203.4 93.1z"/><circle fill="#95AF2E" cx="183.1" cy="122.3" r="1.4"/><path fill="#95AF2E" d="M178.1 107.9c-0.4 0.7-1.2 1-1.9 0.6 -0.7-0.4-1-1.2-0.6-1.9 0.4-0.7 1.2-1 1.9-0.6C178.2 106.4 178.5 107.2 178.1 107.9z"/><circle fill="#95AF2E" cx="187.2" cy="127.5" r="0.8"/><circle fill="#95AF2E" cx="190.7" cy="114.1" r="0.8"/><circle fill="#95AF2E" cx="206.6" cy="115.9" r="0.8"/><path fill="#95AF2E" d="M194.4 105.5c-0.4 0.7-1.2 1-1.9 0.6 -0.7-0.4-1-1.2-0.6-1.9 0.4-0.7 1.2-1 1.9-0.6C194.5 103.9 194.8 104.8 194.4 105.5z"/><circle fill="#95AF2E" cx="195.5" cy="113.1" r="0.8"/><path fill="#95AF2E" d="M308.7 55c-0.2 0.4-0.6 0.5-1 0.3 -0.4-0.2-0.5-0.7-0.3-1 0.2-0.4 0.7-0.5 1-0.3C308.7 54.2 308.9 54.6 308.7 55z"/><circle fill="#95AF2E" cx="296.9" cy="51.8" r="0.8"/><circle fill="#95AF2E" cx="181.2" cy="150.9" r="1.4"/><circle fill="#95AF2E" cx="206.5" cy="136.1" r="1.4"/><circle fill="#95AF2E" cx="181.2" cy="150.9" r="1.4"/><circle fill="#95AF2E" cx="175.8" cy="134.7" r="1.4"/><circle fill="#95AF2E" cx="179.9" cy="145.1" r="0.8"/><circle fill="#95AF2E" cx="168.3" cy="111.9" r="1.4"/><circle fill="#95AF2E" cx="170.7" cy="120.1" r="0.8"/><circle fill="#95AF2E" cx="232.2" cy="53.3" r="1.4"/><circle fill="#95AF2E" cx="246.1" cy="78.3" r="2.4"/><circle fill="#95AF2E" cx="209.5" cy="72.3" r="2.4"/><circle fill="#95AF2E" cx="155.9" cy="77.2" r="2.4"/><circle fill="#95AF2E" cx="263.3" cy="30.5" r="2.4"/><circle fill="#95AF2E" cx="256.6" cy="124.2" r="2.4"/><path fill="#95AF2E" d="M2.6 109.1c0.2 1.2 33.5 39.1 56 45.2 11.6 3.3 37.2 11.4 63.2 0 20.4-10.2 36-15.8 50.4-42.8 14.4-27 25.1-44.4 35.8-51.3s32.1-22.3 84.9-8.7c17.1 4.8 33.3 11.2 33.3 11.2s-33.1-12.4-54.6-14.4c-21.5-2-45.4-0.9-58.9 12.1 -4.8 3.7-13.6 13.4-18.6 22.3 -5 8.9-11.9 22.2-19.6 33.3 -7.7 11.2-31.1 36.6-52 40.2 -6 1.5-31.2 10.4-57.4 1.2C49.8 152.1 29.8 146.1 0 114 1.2 111.8 2.6 109.1 2.6 109.1z"/><path fill="#95AF2E" d="M180.6 105c0.9-0.2 17.7-6.7 33.3-4.8 16.6 2 32.7 9.1 42.6 14.1 9.9 4.9 43 22.1 52 21 -4 0.4-19.7-2.2-46-16.3 -11.4-5.2-19.3-9.9-35.6-14.5 -12.8-2.7-34.9-5.1-51.4 8C176.7 107.8 180.6 105 180.6 105z"/><path fill="none" d="M309 100.6c0 0-22.7 5.7-39.8 1.6 -17.1-4.2-34.4-7.8-38.9-8.3 -4.5-0.5-35.3-4.2-54.1 15"/><path fill="#95AF2E" d="M308.8 100c-10.4 2.6-21.5 3.6-32.2 2.8 -9.2-0.8-18.4-3.9-27.3-5.8 -6-1.3-12.1-2.7-18.2-3.6 -19.3-2.6-41.1 1.1-55.3 15.1 -0.6 0.6 0.3 1.6 1 1 15.3-15.1 38.9-17.6 59.3-13.8 15 2.8 29.9 8.2 45.2 8.8 9.3 0.4 19-0.8 28-3.1C310 101.1 309.6 99.7 308.8 100L308.8 100z"/><path fill="none" d="M205.4 102.2c0 0 11.4 4 15.8 8.3 5.2 5.1 4.1 12.4-3.6 13.8 -4.8 0.7-13.5-2.5-11.1-10.4 1-2.5 2.6-4.4 5.5-2.9 2.6 1.4 3.4 4 2.2 5.7"/><path fill="#95AF2E" d="M205.2 102.8c6 2.1 13.8 5 17.4 10.6 3.6 5.6-1.7 10.5-7.4 10.2 -2-0.1-3.9-0.9-5.5-1.9 -1.4-0.9-2.3-2.3-2.7-3.8 0-0.6-0.1-1.2-0.1-1.8 0.2-4.6 2.5-4.5 6.8 0.2 -0.4 0.8 0.8 1.5 1.2 0.7 1.4-2.8 0-5-2.4-6.6 -3-2-5.3 0.7-6.5 3.1 -3.1 6.8 4.5 11.2 10.1 11.5 7.1 0.4 10.7-6.4 7.7-12.4 -3.1-6.1-12.2-9.1-18.2-11.2C204.8 101.2 204.4 102.5 205.2 102.8L205.2 102.8z"/><path fill="none" d="M255.2 46.1c0 0 4.8-1.4 9.2-5.2 4.5-3.9 11.2-8.9 15.9-7.2 3.3 1.1 5.7 6.7-1.4 8.7 -3.5 1-7.2 0.4-6.3-3.7 0.7-2.7 2.5-2.3 3.9-1.3"/><path fill="#95AF2E" d="M255.4 46.7c4-1.2 7.5-3.6 10.6-6.3 3.4-2.9 7.5-5.9 12.1-6.4 2.3-0.3 4 1.1 4.7 3 -0.2 2.6-1.6 4.2-4 4.6 -2.7 1.2-3.6 0-2.6-3.7 0.8 0.5 1.5-0.7 0.7-1.2 -3.6-2.1-7.4 2.7-4.3 5.4 3.4 2.9 10.4 0.9 11.5-3.5 1.1-4.2-4.3-6.6-7.6-5.8 -8.4 2.1-13.4 10.1-21.6 12.6C254.2 45.7 254.6 47 255.4 46.7L255.4 46.7z"/><path fill="#E48800" d="M300 76.2c-0.4-0.1-0.8-0.3-1.1-0.5 0 0 0 0 0 0 0 0 0 0 0 0v0c0 0 0 0 0 0 -0.1 0.2-0.1 0.4-0.2 0.6 -0.1 0.2-0.2 0.4-0.3 0.6 -0.6 0.8-1.8 1-2.6 0.5 -0.1-0.1-0.2-0.1-0.3-0.2 -0.1-0.1-0.1-0.1-0.2-0.2 -0.1-0.1-0.2-0.2-0.2-0.3 0 0 0 0-0.1-0.1 0 0-0.1-0.1-0.1-0.1 -0.3 0.4-0.5 0.6-0.9 0.9 -0.9 0.5-2 0.3-2.5-0.6 -0.2-0.3-0.4-0.7-0.5-1.1 -0.1 0.1-0.2 0.1-0.2 0.1 -0.1 0.1-0.2 0.1-0.3 0.1 -0.1 0-0.1 0-0.2 0.1 -0.1 0-0.2 0.1-0.4 0.1 -1 0.2-1.9-0.5-2.1-1.5 -0.1-0.4 0-0.8 0-1.2 -0.4 0.1-0.8 0.1-1.2 0 -1-0.2-1.6-1.2-1.4-2.2 0-0.2 0.1-0.3 0.1-0.5 0-0.1 0.1-0.2 0.1-0.3 0-0.1 0.1-0.1 0.1-0.2 0-0.1 0.1-0.1 0.1-0.2 -0.3-0.1-0.5-0.2-0.8-0.3 -0.1-0.1-0.2-0.1-0.3-0.2 -0.8-0.6-1-1.7-0.5-2.6 0.1-0.1 0.2-0.2 0.2-0.3 0.1-0.1 0.1-0.1 0.2-0.2 0.1-0.1 0.2-0.1 0.2-0.2 0.1-0.1 0.2-0.1 0.2-0.2 -0.4-0.3-0.6-0.5-0.8-0.9 -0.5-0.9-0.3-2 0.6-2.5 0.3-0.2 0.7-0.4 1.1-0.4 -0.2-0.4-0.4-0.7-0.5-1.1 -0.2-1 0.5-2 1.5-2.2 0.4-0.1 0.8 0 1.2 0 -0.1-0.4 0-0.8 0-1.2 0.2-1 1.2-1.6 2.2-1.4 0.4 0.1 0.7 0.2 1.1 0.5 0.1-0.3 0.2-0.5 0.3-0.8 0.1-0.1 0.1-0.2 0.2-0.3 0.6-0.8 1.7-1 2.6-0.4 0.3 0.2 0.6 0.5 0.8 0.9 0.3-0.3 0.5-0.6 0.9-0.8 0.9-0.5 2-0.3 2.5 0.6 0.2 0.4 0.4 0.7 0.4 1.1 0.4-0.2 0.8-0.4 1.2-0.4 1-0.2 2 0.5 2.1 1.5 0 0.2 0 0.4 0 0.5 0 0 0 0 0 0.1 0 0.2 0 0.4-0.1 0.6 0.4-0.1 0.8 0 1.2 0 1 0.2 1.6 1.2 1.4 2.2 -0.1 0.4-0.2 0.8-0.5 1.1 0.4 0.1 0.8 0.3 1.1 0.5 0.8 0.6 1 1.8 0.4 2.6 -0.1 0.1-0.2 0.2-0.3 0.3 0 0-0.1 0.1-0.1 0.1 -0.1 0.1-0.2 0.2-0.3 0.3 0 0 0 0 0 0 0 0-0.1 0.1-0.2 0.1 0.4 0.3 0.6 0.5 0.9 0.9 0.5 0.9 0.3 2-0.6 2.5 -0.3 0.2-0.7 0.4-1.1 0.5 0.2 0.4 0.4 0.7 0.4 1.1 0.2 1-0.5 2-1.5 2.1 -0.1 0-0.3 0-0.4 0 -0.3 0-0.5 0-0.8-0.1 0 0.1 0 0.2 0 0.3 0 0 0 0.1 0 0.1 0 0.1 0 0.3 0 0.4 0 0.2 0 0.3-0.1 0.5C301.9 75.7 301 76.4 300 76.2z"/><path fill="#BED630" d="M288.4 71.7c0.3 0.1 0.6 0.1 0.9 0 -0.1 0.3-0.1 0.7 0 1 0.1 0.8 0.9 1.3 1.7 1.2 0.3-0.1 0.6-0.2 0.9-0.4 0.1 0.3 0.2 0.6 0.4 0.9 0.4 0.7 1.3 0.9 2 0.4 0.3-0.2 0.5-0.4 0.7-0.7 0.2 0.3 0.4 0.5 0.7 0.7 0.6 0.4 1.6 0.3 2-0.4 0.2-0.2 0.3-0.6 0.4-0.9 0.3 0.2 0.6 0.3 0.9 0.4 0.8 0.2 1.6-0.3 1.7-1.1 0.1-0.3 0.1-0.6 0-1 0.3 0.1 0.6 0.1 1 0 0.8-0.1 1.3-0.9 1.2-1.7 -0.1-0.3-0.2-0.6-0.3-0.9 0.3-0.1 0.6-0.2 0.9-0.4 0.7-0.4 0.9-1.3 0.4-2 -0.2-0.3-0.4-0.5-0.7-0.7 0.3-0.2 0.5-0.4 0.7-0.7 0.5-0.7 0.3-1.6-0.4-2 -0.3-0.2-0.6-0.3-0.9-0.4 0.2-0.3 0.3-0.6 0.4-0.9 0.2-0.8-0.3-1.6-1.1-1.7 -0.3-0.1-0.6-0.1-1 0 0.1-0.3 0.1-0.6 0-1 -0.1-0.8-0.9-1.3-1.7-1.2 -0.3 0.1-0.6 0.2-0.9 0.3 -0.1-0.3-0.2-0.6-0.3-0.9 -0.4-0.7-1.3-0.9-2-0.4 -0.3 0.2-0.5 0.4-0.7 0.7 -0.2-0.3-0.4-0.5-0.7-0.7 -0.7-0.5-1.6-0.3-2 0.4 -0.2 0.3-0.3 0.6-0.4 0.9 -0.3-0.2-0.6-0.3-0.9-0.4 -0.8-0.2-1.6 0.3-1.7 1.1 -0.1 0.3-0.1 0.6 0 1 -0.3-0.1-0.6-0.1-1 0 -0.8 0.1-1.3 0.9-1.2 1.7 0.1 0.3 0.2 0.6 0.4 0.9 -0.3 0.1-0.6 0.2-0.9 0.3 -0.7 0.4-0.9 1.3-0.4 2 0.2 0.3 0.4 0.5 0.7 0.7 -0.3 0.2-0.5 0.4-0.7 0.7 -0.4 0.7-0.3 1.6 0.4 2 0.3 0.2 0.6 0.3 0.9 0.4 -0.2 0.3-0.3 0.6-0.4 0.9C287.1 70.7 287.6 71.5 288.4 71.7z"/><path fill="#FFFFFF" d="M290.1 70.3c0.2 0 0.5 0 0.7 0 0 0.2-0.1 0.5 0 0.7 0.1 0.6 0.7 1 1.2 0.9 0.2-0.1 0.5-0.1 0.7-0.3 0 0.2 0.1 0.5 0.3 0.7 0.3 0.5 1 0.7 1.5 0.3 0.2-0.1 0.4-0.3 0.5-0.5 0.1 0.2 0.3 0.4 0.5 0.5 0.5 0.3 1.2 0.2 1.5-0.3 0.1-0.2 0.2-0.4 0.3-0.7 0.2 0.1 0.4 0.2 0.7 0.3 0.6 0.1 1.2-0.3 1.3-0.8 0.1-0.2 0.1-0.5 0-0.7 0.2 0 0.5 0 0.7 0 0.6-0.1 1-0.7 0.9-1.2 0-0.2-0.1-0.5-0.3-0.7 0.3 0 0.5-0.1 0.7-0.3 0.5-0.3 0.6-1 0.3-1.5 -0.1-0.2-0.3-0.4-0.5-0.5 0.2-0.1 0.4-0.3 0.5-0.5 0.3-0.5 0.2-1.2-0.3-1.5 -0.2-0.1-0.4-0.2-0.7-0.3 0.1-0.2 0.2-0.4 0.3-0.7 0.1-0.6-0.2-1.2-0.8-1.3 -0.2-0.1-0.5-0.1-0.7 0 0.1-0.2 0.1-0.5 0-0.7 -0.1-0.6-0.7-1-1.3-0.9 -0.2 0-0.5 0.1-0.7 0.3 0-0.2-0.1-0.5-0.3-0.7 -0.3-0.5-1-0.6-1.5-0.3 -0.2 0.1-0.4 0.3-0.5 0.5 -0.1-0.2-0.3-0.4-0.5-0.5 -0.5-0.3-1.2-0.2-1.5 0.3 -0.1 0.2-0.2 0.4-0.3 0.7 -0.2-0.1-0.4-0.2-0.6-0.3 -0.6-0.1-1.2 0.2-1.3 0.8 0 0.2-0.1 0.5 0 0.7 -0.2-0.1-0.5-0.1-0.7 0 -0.6 0.1-1 0.7-0.9 1.3 0.1 0.2 0.1 0.4 0.3 0.7 -0.2 0-0.5 0.1-0.7 0.3 -0.5 0.3-0.6 1-0.3 1.5 0.1 0.2 0.3 0.4 0.5 0.5 -0.2 0.1-0.4 0.3-0.5 0.5 -0.3 0.5-0.2 1.2 0.3 1.5 0.2 0.1 0.4 0.2 0.6 0.3 -0.1 0.2-0.2 0.4-0.3 0.7C289.2 69.6 289.6 70.2 290.1 70.3z"/><path fill="#FF5E79" d="M295.3 65.6c0 0 0.2-0.6 0.3-1.3 0.1-0.4 0.1-0.9 0-1.3 -0.1-0.7-0.3-1.3-0.8-1.3 0 0-0.2 0-0.4 0.2 -0.1 0.1-0.2 0.2-0.2 0.5 -0.1 0.4 0 1 0.5 2.1C294.8 64.8 295.1 65.1 295.3 65.6z"/><path fill="#FF5E79" d="M295.9 66.3c0 0 0.6 0.1 1.3 0.4 0.4 0.1 0.8 0.3 1.2 0.5 0.6 0.4 1 0.8 0.8 1.3 0 0-0.1 0.2-0.3 0.3 -0.1 0-0.3 0.1-0.6 0 -0.4-0.1-0.9-0.4-1.7-1.4C296.4 67.1 296.2 66.7 295.9 66.3z"/><path fill="#FF5E79" d="M295.9 66c0 0 0.6 0.2 1.4 0.2 0.4 0 0.9 0.1 1.3 0 0.7-0.1 1.3-0.3 1.3-0.9 0 0 0-0.2-0.2-0.4 -0.1-0.1-0.2-0.2-0.5-0.2 -0.4 0-1 0-2.1 0.5C296.7 65.4 296.4 65.7 295.9 66z"/><path fill="#FF5E79" d="M295.7 65.6c0 0 0.6-0.3 1.2-0.7 0.3-0.2 0.7-0.5 1-0.8 0.4-0.5 0.7-1.1 0.4-1.5 0 0-0.2-0.2-0.4-0.2 -0.1 0-0.3 0-0.6 0.2 -0.4 0.3-0.8 0.7-1.2 1.8C296 64.7 295.9 65.1 295.7 65.6z"/><path fill="#FF5E79" d="M295 65.7c0 0-0.6-0.1-1.3-0.3 -0.4-0.1-0.8-0.3-1.2-0.5 -0.6-0.3-1-0.8-0.9-1.3 0 0 0.1-0.2 0.3-0.3 0.1 0 0.3-0.1 0.6 0 0.4 0.1 1 0.4 1.7 1.3C294.5 64.9 294.7 65.3 295 65.7z"/><path fill="#FF5E79" d="M295.6 66.5c0 0-0.1 0.6-0.2 1.4 0 0.4-0.1 0.9 0 1.3 0.1 0.7 0.3 1.3 0.9 1.3 0 0 0.2 0 0.4-0.2 0.1-0.1 0.2-0.2 0.2-0.5 0-0.4 0-1-0.6-2.1C296.1 67.2 295.9 66.9 295.6 66.5z"/><path fill="#FF5E79" d="M295.2 66.4c0 0-0.1 0.6-0.3 1.3 -0.1 0.4-0.3 0.8-0.5 1.2 -0.3 0.6-0.8 1-1.3 0.9 0 0-0.2-0.1-0.3-0.3 0-0.1-0.1-0.3 0-0.6 0.1-0.4 0.4-0.9 1.3-1.7C294.4 66.9 294.8 66.7 295.2 66.4z"/><path fill="#FF5E79" d="M295 66.1c0 0-0.5 0.4-1.1 0.8 -0.4 0.2-0.7 0.5-1.1 0.6 -0.6 0.2-1.3 0.3-1.5-0.2 0 0-0.1-0.2 0-0.4 0-0.1 0.1-0.3 0.4-0.4 0.4-0.2 0.9-0.5 2.1-0.4C294 65.9 294.4 66 295 66.1z"/><path fill="#E48800" d="M167.8 72.2c-0.6-0.1-1.2-0.4-1.8-0.8 0 0 0 0 0 0 0 0 0 0 0 0 0 0 0 0 0 0 0 0 0 0 0 0 -0.1 0.3-0.2 0.6-0.3 0.9 -0.1 0.3-0.3 0.6-0.5 0.9 -0.9 1.3-2.8 1.6-4.1 0.7 -0.1-0.1-0.3-0.2-0.4-0.4 -0.1-0.1-0.2-0.2-0.3-0.3 -0.1-0.1-0.3-0.3-0.4-0.4 0 0-0.1-0.1-0.1-0.1 -0.1-0.1-0.1-0.1-0.2-0.2 -0.4 0.6-0.9 1-1.4 1.3 -1.4 0.9-3.1 0.5-4-0.9 -0.4-0.5-0.6-1.1-0.7-1.8 -0.1 0.1-0.3 0.2-0.4 0.2 -0.2 0.1-0.3 0.2-0.5 0.2 -0.1 0-0.2 0.1-0.3 0.1 -0.2 0.1-0.4 0.1-0.6 0.2 -1.6 0.3-3.1-0.8-3.4-2.4 -0.1-0.6-0.1-1.2 0-1.9 -0.6 0.1-1.3 0.1-1.9 0 -1.6-0.3-2.5-1.9-2.2-3.5 0.1-0.2 0.1-0.5 0.2-0.7 0.1-0.2 0.1-0.3 0.2-0.4 0-0.1 0.1-0.2 0.2-0.3 0.1-0.1 0.1-0.2 0.2-0.3 -0.4-0.1-0.8-0.3-1.2-0.5 -0.2-0.1-0.4-0.2-0.5-0.3 -1.3-0.9-1.6-2.7-0.7-4.1 0.1-0.2 0.2-0.3 0.4-0.4 0.1-0.1 0.2-0.2 0.3-0.3 0.1-0.1 0.3-0.2 0.4-0.3 0.1-0.1 0.3-0.2 0.4-0.3 -0.5-0.4-1-0.9-1.3-1.4 -0.9-1.4-0.5-3.1 0.9-4 0.5-0.3 1.1-0.6 1.8-0.7 -0.3-0.6-0.6-1.2-0.7-1.8 -0.2-1.6 0.8-3.1 2.4-3.4 0.6-0.1 1.3-0.1 1.9 0 -0.1-0.7-0.1-1.3 0.1-1.9 0.3-1.6 1.9-2.5 3.5-2.2 0.6 0.1 1.2 0.4 1.7 0.7 0.1-0.4 0.3-0.9 0.5-1.2 0.1-0.2 0.2-0.3 0.3-0.5 0.9-1.3 2.7-1.6 4-0.7 0.5 0.4 1 0.8 1.3 1.4 0.4-0.5 0.9-1 1.4-1.3 1.4-0.9 3.1-0.5 4 0.9 0.3 0.6 0.6 1.1 0.7 1.8 0.6-0.3 1.2-0.6 1.8-0.7 1.5-0.3 3.1 0.8 3.4 2.3 0 0.3 0.1 0.6 0.1 0.8 0 0 0 0.1 0 0.1 0 0.3 0 0.6-0.1 1 0.7-0.1 1.3-0.1 1.9 0.1 1.6 0.3 2.5 1.9 2.2 3.5 -0.1 0.6-0.4 1.2-0.7 1.8 0.6 0.2 1.2 0.4 1.7 0.8 1.3 0.9 1.6 2.8 0.7 4.1 -0.1 0.2-0.3 0.3-0.4 0.5 0 0-0.1 0.1-0.1 0.1 -0.2 0.2-0.3 0.3-0.5 0.5 0 0 0 0 0 0 -0.1 0.1-0.2 0.1-0.2 0.2 0.6 0.4 1 0.9 1.3 1.4 0.9 1.4 0.5 3.1-0.9 4 -0.5 0.4-1.1 0.6-1.8 0.7 0.4 0.6 0.6 1.2 0.7 1.8 0.3 1.6-0.8 3.1-2.3 3.4 -0.2 0-0.4 0.1-0.6 0.1 -0.4 0-0.9 0-1.3-0.1 0 0.1 0 0.3 0 0.4 0 0 0 0.1 0 0.1 0 0.2 0 0.4 0 0.6 0 0.3 0 0.5-0.1 0.7C170.9 71.5 169.3 72.5 167.8 72.2z"/><path fill="#BED630" d="M149.6 65.2c0.4 0.1 1 0.1 1.5 0 -0.1 0.5-0.1 1.1 0 1.5 0.2 1.2 1.4 2.1 2.6 1.9 0.5-0.1 1-0.3 1.4-0.6 0.1 0.5 0.3 1 0.6 1.4 0.7 1.1 2.1 1.4 3.2 0.7 0.4-0.3 0.8-0.6 1.1-1.1 0.3 0.4 0.7 0.8 1.1 1.1 1 0.7 2.5 0.4 3.2-0.6 0.3-0.4 0.5-0.9 0.6-1.4 0.5 0.3 0.9 0.5 1.4 0.6 1.2 0.3 2.5-0.5 2.7-1.8 0.1-0.5 0.1-1 0-1.5 0.5 0.1 1 0.1 1.5 0 1.3-0.2 2.1-1.4 1.9-2.7 -0.1-0.5-0.3-1-0.5-1.4 0.5-0.1 1-0.3 1.4-0.6 1.1-0.7 1.4-2.1 0.7-3.2 -0.3-0.4-0.6-0.8-1.1-1.1 0.4-0.3 0.8-0.7 1.1-1.1 0.7-1 0.5-2.5-0.5-3.2 -0.4-0.3-0.9-0.5-1.4-0.6 0.3-0.5 0.5-0.9 0.6-1.4 0.3-1.2-0.5-2.4-1.7-2.7 -0.5-0.1-1-0.1-1.5-0.1 0.1-0.5 0.1-1 0.1-1.5 -0.2-1.2-1.4-2.1-2.6-1.9 -0.5 0.1-1 0.3-1.4 0.5 -0.1-0.5-0.3-1-0.5-1.4 -0.7-1.1-2.1-1.4-3.2-0.7 -0.4 0.3-0.8 0.6-1.1 1 -0.3-0.4-0.6-0.8-1.1-1.1 -1-0.7-2.5-0.5-3.2 0.6 -0.3 0.4-0.5 0.9-0.6 1.4 -0.4-0.3-0.9-0.5-1.4-0.6 -1.2-0.3-2.4 0.5-2.7 1.7 -0.1 0.5-0.1 1-0.1 1.5 -0.5-0.1-1-0.1-1.5-0.1 -1.3 0.2-2.1 1.4-1.9 2.7 0.1 0.5 0.3 1 0.6 1.4 -0.5 0.1-1 0.3-1.4 0.5 -1.1 0.7-1.4 2.1-0.7 3.2 0.2 0.4 0.6 0.8 1 1.1 -0.4 0.3-0.8 0.6-1.1 1 -0.7 1-0.4 2.5 0.6 3.2 0.4 0.3 0.9 0.5 1.4 0.6 -0.3 0.4-0.5 0.9-0.6 1.4C147.6 63.7 148.3 64.9 149.6 65.2z"/><path fill="#FFFFFF" d="M152.3 62.9c0.3 0.1 0.7 0.1 1.1 0 -0.1 0.4-0.1 0.8 0 1.1 0.2 0.9 1 1.5 2 1.4 0.4-0.1 0.7-0.2 1.1-0.4 0.1 0.4 0.2 0.8 0.4 1.1 0.5 0.8 1.6 1 2.3 0.5 0.3-0.2 0.6-0.5 0.8-0.8 0.2 0.3 0.5 0.6 0.8 0.8 0.8 0.5 1.8 0.3 2.4-0.4 0.2-0.3 0.4-0.6 0.4-1 0.4 0.2 0.7 0.4 1 0.5 0.9 0.2 1.8-0.4 2-1.3 0.1-0.4 0.1-0.7 0-1.1 0.4 0.1 0.8 0.1 1.1 0 0.9-0.2 1.5-1 1.4-2 -0.1-0.4-0.2-0.7-0.4-1 0.4-0.1 0.8-0.2 1.1-0.4 0.8-0.5 1-1.6 0.5-2.3 -0.2-0.3-0.5-0.6-0.8-0.8 0.3-0.2 0.6-0.5 0.8-0.8 0.5-0.8 0.4-1.8-0.4-2.4 -0.3-0.2-0.7-0.4-1-0.4 0.2-0.4 0.4-0.7 0.4-1.1 0.2-0.9-0.4-1.8-1.3-2 -0.4-0.1-0.7-0.1-1.1 0 0.1-0.4 0.1-0.8 0-1.1 -0.2-0.9-1.1-1.5-2-1.4 -0.4 0.1-0.7 0.2-1.1 0.4 -0.1-0.4-0.2-0.7-0.4-1.1 -0.5-0.8-1.6-1-2.3-0.5 -0.3 0.2-0.6 0.5-0.8 0.8 -0.2-0.3-0.5-0.6-0.8-0.8 -0.8-0.5-1.8-0.4-2.4 0.4 -0.2 0.3-0.4 0.6-0.5 1 -0.3-0.2-0.7-0.4-1-0.4 -0.9-0.2-1.8 0.4-2 1.3 -0.1 0.4-0.1 0.7 0 1.1 -0.4-0.1-0.8-0.1-1.1 0 -0.9 0.2-1.6 1.1-1.4 2 0.1 0.4 0.2 0.7 0.4 1.1 -0.4 0.1-0.7 0.2-1.1 0.4 -0.8 0.5-1 1.6-0.5 2.3 0.2 0.3 0.5 0.6 0.8 0.8 -0.3 0.2-0.6 0.5-0.8 0.8 -0.5 0.8-0.3 1.8 0.4 2.4 0.3 0.2 0.7 0.4 1 0.5 -0.2 0.3-0.4 0.7-0.4 1C150.8 61.8 151.4 62.7 152.3 62.9z"/><path fill="#FF5E79" d="M160.5 55.5c0 0 0.3-1 0.4-2.1 0.1-0.6 0.1-1.4 0.1-2 -0.1-1-0.4-2-1.3-2.1 0 0-0.4 0-0.6 0.3 -0.1 0.1-0.3 0.3-0.4 0.8 -0.1 0.7 0 1.6 0.8 3.3C159.7 54.3 160.1 54.9 160.5 55.5z"/><path fill="#FF5E79" d="M161.4 56.6c0 0 1 0.2 2.1 0.6 0.6 0.2 1.3 0.5 1.8 0.8 0.9 0.6 1.6 1.3 1.3 2.1 0 0-0.2 0.3-0.5 0.4 -0.2 0.1-0.5 0.1-0.9 0 -0.7-0.2-1.5-0.7-2.6-2.2C162.2 57.9 161.8 57.3 161.4 56.6z"/><path fill="#FF5E79" d="M161.5 56.1c0 0 1 0.2 2.1 0.4 0.7 0.1 1.4 0.1 2 0 1-0.1 2-0.5 2.1-1.3 0 0 0-0.4-0.3-0.6 -0.1-0.1-0.3-0.3-0.8-0.4 -0.7-0.1-1.6 0-3.3 0.9C162.7 55.3 162.1 55.7 161.5 56.1z"/><path fill="#FF5E79" d="M161.1 55.6c0 0 0.9-0.5 1.8-1.2 0.5-0.4 1.1-0.8 1.5-1.3 0.7-0.8 1.1-1.7 0.6-2.4 0 0-0.2-0.3-0.6-0.3 -0.2 0-0.5 0-0.9 0.3 -0.6 0.4-1.2 1.1-1.9 2.8C161.5 54.2 161.3 54.8 161.1 55.6z"/><path fill="#FF5E79" d="M160 55.7c0 0-1-0.1-2.1-0.5 -0.6-0.2-1.3-0.4-1.9-0.7 -0.9-0.5-1.7-1.2-1.4-2 0 0 0.1-0.3 0.5-0.5 0.2-0.1 0.4-0.2 0.9 0 0.7 0.2 1.5 0.6 2.7 2C159.1 54.5 159.5 55.1 160 55.7z"/><path fill="#FF5E79" d="M160.9 56.9c0 0-0.2 1-0.3 2.1 -0.1 0.6-0.1 1.4 0 2 0.2 1 0.5 2 1.4 2 0 0 0.4 0 0.6-0.3 0.1-0.1 0.3-0.4 0.4-0.8 0.1-0.7 0-1.6-0.9-3.3C161.7 58.2 161.4 57.6 160.9 56.9z"/><path fill="#FF5E79" d="M160.3 56.8c0 0-0.1 1-0.5 2.1 -0.2 0.6-0.4 1.3-0.7 1.9 -0.5 0.9-1.2 1.6-2 1.4 0 0-0.3-0.1-0.5-0.5 -0.1-0.2-0.2-0.4 0-0.9 0.2-0.7 0.6-1.5 2.1-2.7C159 57.6 159.6 57.3 160.3 56.8z"/><path fill="#FF5E79" d="M159.9 56.3c0 0-0.8 0.6-1.7 1.3 -0.6 0.3-1.2 0.7-1.8 0.9 -1 0.3-2 0.4-2.4-0.3 0 0-0.2-0.3 0-0.7 0.1-0.2 0.2-0.4 0.6-0.7 0.6-0.4 1.5-0.7 3.3-0.7C158.4 56.1 159.1 56.2 159.9 56.3z"/><path fill="#3EBDD4" d="M247 91.2c-0.6-0.1-1.2-0.4-1.8-0.8 0 0 0 0 0 0 0 0 0 0 0 0v0c0 0 0 0 0 0 -0.1 0.3-0.2 0.6-0.3 0.9 -0.1 0.3-0.3 0.6-0.5 0.9 -0.9 1.3-2.8 1.6-4.1 0.7 -0.1-0.1-0.3-0.2-0.4-0.4 -0.1-0.1-0.2-0.2-0.3-0.3 -0.1-0.1-0.3-0.3-0.4-0.4 0 0-0.1-0.1-0.1-0.1 -0.1-0.1-0.1-0.1-0.2-0.2 -0.4 0.6-0.9 1-1.4 1.3 -1.4 0.9-3.1 0.5-4-0.9 -0.4-0.5-0.6-1.1-0.7-1.8 -0.1 0.1-0.3 0.2-0.4 0.2 -0.2 0.1-0.3 0.2-0.5 0.2 -0.1 0-0.2 0.1-0.3 0.1 -0.2 0.1-0.4 0.1-0.6 0.2 -1.6 0.3-3.1-0.8-3.4-2.4 -0.1-0.6-0.1-1.2 0-1.9 -0.6 0.1-1.3 0.1-1.9 0 -1.6-0.3-2.5-1.9-2.2-3.5 0.1-0.2 0.1-0.5 0.2-0.7 0.1-0.2 0.1-0.3 0.2-0.4 0-0.1 0.1-0.2 0.1-0.3 0.1-0.1 0.1-0.2 0.2-0.3 -0.4-0.1-0.8-0.3-1.2-0.5 -0.2-0.1-0.4-0.2-0.5-0.3 -1.3-0.9-1.6-2.7-0.7-4.1 0.1-0.2 0.2-0.3 0.4-0.4 0.1-0.1 0.2-0.2 0.3-0.3 0.1-0.1 0.3-0.2 0.4-0.3 0.1-0.1 0.3-0.2 0.4-0.3 -0.5-0.4-1-0.9-1.3-1.4 -0.9-1.4-0.5-3.1 0.9-4 0.5-0.3 1.1-0.6 1.8-0.7 -0.3-0.6-0.6-1.2-0.7-1.8 -0.3-1.6 0.8-3.1 2.4-3.4 0.6-0.1 1.3-0.1 1.9 0 -0.1-0.7-0.1-1.3 0.1-1.9 0.3-1.6 1.9-2.5 3.4-2.2 0.6 0.1 1.2 0.4 1.7 0.7 0.1-0.4 0.3-0.9 0.5-1.2 0.1-0.2 0.2-0.3 0.3-0.5 0.9-1.3 2.7-1.6 4-0.7 0.5 0.4 1 0.8 1.3 1.4 0.4-0.5 0.9-1 1.4-1.3 1.4-0.9 3.1-0.5 4 0.9 0.3 0.6 0.6 1.1 0.7 1.8 0.6-0.3 1.2-0.6 1.8-0.7 1.5-0.3 3.1 0.8 3.4 2.3 0 0.3 0.1 0.6 0.1 0.8 0 0 0 0.1 0 0.1 0 0.3 0 0.6-0.1 1 0.7-0.1 1.3-0.1 1.9 0.1 1.6 0.3 2.5 1.9 2.2 3.5 -0.1 0.6-0.4 1.2-0.7 1.8 0.6 0.2 1.2 0.4 1.7 0.8 1.3 0.9 1.6 2.8 0.7 4.1 -0.1 0.2-0.3 0.3-0.4 0.5 0 0-0.1 0.1-0.1 0.1 -0.2 0.2-0.3 0.3-0.5 0.5 0 0 0 0 0 0 -0.1 0.1-0.2 0.1-0.2 0.2 0.6 0.4 1 0.9 1.3 1.4 0.9 1.4 0.5 3.1-0.9 4 -0.5 0.4-1.1 0.6-1.8 0.7 0.4 0.6 0.6 1.2 0.7 1.8 0.3 1.6-0.8 3.1-2.3 3.4 -0.2 0-0.4 0.1-0.6 0.1 -0.4 0-0.9 0-1.3-0.1 0 0.1 0 0.3 0 0.4 0 0 0 0.1 0 0.1 0 0.2 0 0.4 0 0.6 0 0.3 0 0.5-0.1 0.7C250.1 90.5 248.6 91.6 247 91.2z"/><path fill="#BED630" d="M228.8 84.2c0.4 0.1 1 0.1 1.5 0 -0.1 0.5-0.1 1.1 0 1.5 0.2 1.2 1.4 2.1 2.6 1.9 0.5-0.1 1-0.3 1.4-0.6 0.1 0.5 0.3 1 0.6 1.4 0.7 1.1 2.1 1.4 3.2 0.7 0.4-0.3 0.8-0.6 1.1-1.1 0.3 0.4 0.7 0.8 1.1 1.1 1 0.7 2.5 0.4 3.2-0.6 0.3-0.4 0.5-0.9 0.6-1.4 0.5 0.3 0.9 0.5 1.4 0.6 1.2 0.3 2.5-0.5 2.7-1.8 0.1-0.5 0.1-1 0.1-1.5 0.5 0.1 1 0.1 1.5 0 1.3-0.2 2.1-1.4 1.9-2.7 -0.1-0.5-0.3-1-0.5-1.4 0.5-0.1 1-0.3 1.4-0.6 1.1-0.7 1.4-2.1 0.7-3.2 -0.3-0.4-0.6-0.8-1.1-1.1 0.4-0.3 0.8-0.7 1.1-1.1 0.7-1 0.5-2.5-0.6-3.2 -0.4-0.3-0.9-0.5-1.4-0.6 0.3-0.5 0.5-0.9 0.6-1.4 0.3-1.2-0.5-2.4-1.7-2.7 -0.5-0.1-1-0.1-1.5-0.1 0.1-0.5 0.1-1 0.1-1.5 -0.2-1.2-1.4-2.1-2.6-1.8 -0.5 0.1-1 0.3-1.4 0.5 -0.1-0.5-0.3-1-0.5-1.4 -0.7-1.1-2.1-1.4-3.2-0.7 -0.4 0.3-0.8 0.6-1.1 1 -0.3-0.4-0.6-0.8-1.1-1.1 -1-0.7-2.5-0.5-3.2 0.6 -0.3 0.4-0.5 0.9-0.6 1.4 -0.4-0.3-0.9-0.5-1.4-0.6 -1.2-0.3-2.4 0.5-2.7 1.7 -0.1 0.5-0.1 1-0.1 1.5 -0.5-0.1-1-0.1-1.5-0.1 -1.2 0.2-2.1 1.4-1.9 2.7 0.1 0.5 0.3 1 0.6 1.4 -0.5 0.1-1 0.3-1.4 0.5 -1.1 0.7-1.4 2.1-0.7 3.2 0.3 0.4 0.6 0.8 1 1.1 -0.4 0.3-0.8 0.6-1.1 1 -0.7 1-0.4 2.5 0.6 3.2 0.4 0.3 0.9 0.5 1.4 0.6 -0.3 0.4-0.5 0.9-0.6 1.4C226.8 82.7 227.6 83.9 228.8 84.2z"/><path fill="#FFFFFF" d="M231.5 82c0.3 0.1 0.7 0.1 1.1 0 -0.1 0.4-0.1 0.8 0 1.1 0.2 0.9 1 1.5 2 1.4 0.4-0.1 0.7-0.2 1.1-0.4 0.1 0.4 0.2 0.8 0.4 1.1 0.5 0.8 1.6 1 2.3 0.5 0.3-0.2 0.6-0.5 0.8-0.8 0.2 0.3 0.5 0.6 0.8 0.8 0.8 0.5 1.8 0.3 2.4-0.4 0.2-0.3 0.4-0.6 0.4-1 0.4 0.2 0.7 0.4 1 0.5 0.9 0.2 1.8-0.4 2-1.3 0.1-0.4 0.1-0.7 0-1.1 0.4 0.1 0.8 0.1 1.1 0 0.9-0.2 1.5-1 1.4-2 -0.1-0.4-0.2-0.7-0.4-1 0.4-0.1 0.8-0.2 1.1-0.4 0.8-0.5 1-1.6 0.5-2.3 -0.2-0.3-0.5-0.6-0.8-0.8 0.3-0.2 0.6-0.5 0.8-0.8 0.5-0.8 0.4-1.8-0.4-2.4 -0.3-0.2-0.6-0.4-1-0.4 0.2-0.4 0.4-0.7 0.4-1 0.2-0.9-0.4-1.8-1.3-2 -0.4-0.1-0.7-0.1-1.1 0 0.1-0.4 0.1-0.8 0-1.1 -0.2-0.9-1.1-1.5-2-1.4 -0.4 0.1-0.7 0.2-1.1 0.4 -0.1-0.4-0.2-0.7-0.4-1 -0.5-0.8-1.6-1-2.3-0.5 -0.3 0.2-0.6 0.5-0.8 0.8 -0.2-0.3-0.5-0.6-0.8-0.8 -0.8-0.5-1.8-0.4-2.4 0.4 -0.2 0.3-0.4 0.6-0.5 1 -0.3-0.2-0.7-0.4-1-0.4 -0.9-0.2-1.8 0.4-2 1.3 -0.1 0.4-0.1 0.7 0 1.1 -0.4-0.1-0.8-0.1-1.1 0 -0.9 0.2-1.5 1.1-1.4 2 0.1 0.4 0.2 0.7 0.4 1.1 -0.4 0.1-0.7 0.2-1 0.4 -0.8 0.5-1 1.6-0.5 2.3 0.2 0.3 0.5 0.6 0.8 0.8 -0.3 0.2-0.6 0.5-0.8 0.8 -0.5 0.8-0.3 1.8 0.4 2.4 0.3 0.2 0.7 0.4 1 0.5 -0.2 0.3-0.4 0.7-0.4 1C230.1 80.8 230.6 81.8 231.5 82z"/><path fill="#FF5E79" d="M239.7 74.5c0 0 0.3-1 0.4-2.1 0.1-0.6 0.1-1.4 0.1-2 -0.1-1-0.4-2-1.3-2.1 0 0-0.4 0-0.6 0.3 -0.1 0.1-0.3 0.3-0.4 0.8 -0.1 0.7 0 1.6 0.8 3.3C238.9 73.3 239.3 73.9 239.7 74.5z"/><path fill="#FF5E79" d="M240.7 75.7c0 0 1 0.2 2.1 0.6 0.6 0.2 1.3 0.5 1.8 0.8 0.9 0.6 1.6 1.3 1.3 2.1 0 0-0.2 0.3-0.5 0.4 -0.2 0-0.4 0.1-0.9 0 -0.7-0.2-1.5-0.7-2.6-2.2C241.4 76.9 241.1 76.4 240.7 75.7z"/><path fill="#FF5E79" d="M240.7 75.1c0 0 1 0.2 2.1 0.4 0.7 0.1 1.4 0.1 2 0 1-0.1 2-0.5 2.1-1.3 0 0 0-0.4-0.3-0.6 -0.1-0.1-0.3-0.3-0.8-0.4 -0.7-0.1-1.6 0-3.3 0.9C241.9 74.3 241.3 74.7 240.7 75.1z"/><path fill="#FF5E79" d="M240.3 74.6c0 0 0.9-0.5 1.8-1.2 0.5-0.4 1.1-0.8 1.5-1.3 0.7-0.8 1.1-1.7 0.6-2.4 0 0-0.2-0.3-0.6-0.3 -0.2 0-0.5 0-0.9 0.3 -0.6 0.4-1.2 1.1-1.9 2.8C240.7 73.2 240.5 73.9 240.3 74.6z"/><path fill="#FF5E79" d="M239.2 74.7c0 0-1-0.1-2.1-0.5 -0.6-0.2-1.3-0.4-1.9-0.7 -0.9-0.5-1.7-1.2-1.4-2 0 0 0.1-0.3 0.5-0.5 0.2-0.1 0.4-0.2 0.9 0 0.7 0.2 1.5 0.6 2.7 2C238.4 73.5 238.8 74.1 239.2 74.7z"/><path fill="#FF5E79" d="M240.1 75.9c0 0-0.2 1-0.3 2.1 -0.1 0.6-0.1 1.4 0 2 0.2 1 0.5 2 1.4 2.1 0 0 0.4 0 0.6-0.3 0.1-0.1 0.3-0.4 0.4-0.8 0.1-0.7 0-1.6-0.9-3.3C241 77.2 240.6 76.6 240.1 75.9z"/><path fill="#FF5E79" d="M239.5 75.8c0 0-0.1 1-0.5 2.1 -0.2 0.6-0.4 1.3-0.7 1.9 -0.5 0.9-1.2 1.6-2 1.4 0 0-0.3-0.1-0.5-0.5 -0.1-0.2-0.2-0.4 0-0.9 0.2-0.7 0.6-1.5 2.1-2.7C238.3 76.7 238.8 76.3 239.5 75.8z"/><path fill="#FF5E79" d="M239.1 75.3c0 0-0.8 0.6-1.7 1.3 -0.6 0.3-1.2 0.7-1.8 0.9 -1 0.3-2 0.4-2.4-0.3 0 0-0.2-0.3 0-0.7 0.1-0.2 0.2-0.4 0.6-0.7 0.6-0.4 1.5-0.7 3.3-0.7C237.6 75.1 238.3 75.2 239.1 75.3z"/><path fill="#95AF2E" d="M290.4 126.5c0 0-3.4-4.1 2.3-11.1 5.7-7 15.5-2 18.5-2.3 3-0.2 4.1-1 4.1-1s-4.3 0.8-6.9 4.7c-2.6 4-5 10-9.3 11.6 -4.3 1.6-7.2-1.9-7.2-1.9s3.9 0.4 6.5-3.5 6.7-6 6.7-6 -7.8 2.3-10.9 5.6C291 125.8 290.4 126.5 290.4 126.5z"/><path fill="#95AF2E" d="M294.7 133.9c0 0 0.4-4.9 8.7-5.9 8.3-1 11.5 8.7 13.6 10.4 2.1 1.8 3.4 1.9 3.4 1.9s-3.3-2.3-7.6-1.3c-4.3 0.9-9.8 3.4-13.6 1.6 -3.9-1.8-3.6-5.9-3.6-5.9s2.3 2.8 6.6 1.9c4.3-0.9 8.3 0.4 8.3 0.4s-6.7-3.5-10.8-3.4C295.5 133.8 294.7 133.9 294.7 133.9z"/><path fill="#95AF2E" d="M290.8 135.9c0 0-4.9 0-6.6 8.1 -1.7 8.2 7.6 12.3 9.2 14.5 1.6 2.3 1.6 3.5 1.6 3.5s-2-3.5-0.6-7.7c1.3-4.2 4.3-9.5 2.9-13.5 -1.4-4-5.6-4.1-5.6-4.1s2.5 2.6 1.3 6.7c-1.3 4.2-0.3 8.3-0.3 8.3s-2.9-7-2.4-11.1C290.7 136.6 290.8 135.9 290.8 135.9z"/><path fill="#95AF2E" d="M292.7 130.2c0.6 1.7-0.2 3.7-2 4.3 -1.7 0.6-3.7-0.2-4.3-2 -0.6-1.7 0.2-3.7 2-4.3C290.2 127.6 292.1 128.5 292.7 130.2z"/><path fill="#95AF2E" d="M180 160.9c0 0 0.3-7.8 13.4-10.1 13.1-2.2 19.1 12.9 22.6 15.6 3.5 2.6 5.5 2.8 5.5 2.8s-5.5-3.4-12.3-1.5c-6.7 1.9-15.4 6.2-21.7 3.7 -6.3-2.5-6.2-9.2-6.2-9.2s3.9 4.2 10.7 2.5c6.8-1.7 13.3 0 13.3 0s-10.9-5.1-17.6-4.6C181.2 160.7 180 160.9 180 160.9z"/><path fill="#95AF2E" d="M177.4 173.3c0 0 5.2-5 15.4 2 10.1 7 4.3 20.9 4.9 24.9 0.6 4 1.8 5.4 1.8 5.4s-1.5-5.8-7.1-8.9c-5.6-3.1-14.2-5.9-16.7-11.6 -2.5-5.7 1.9-10 1.9-10s-0.2 5.3 5.4 8.6c5.6 3.2 8.8 8.6 8.8 8.6s-3.9-10.4-8.6-14.4C178.4 174 177.4 173.3 177.4 173.3z"/><path fill="#95AF2E" d="M171.2 171.7c0 0-5.4-4.8-15.3 2.5 -9.9 7.3-3.6 21-4.1 25.1 -0.5 4-1.6 5.5-1.6 5.5s1.3-5.9 6.8-9.2c5.6-3.3 14-6.3 16.3-12.1 2.4-5.8-2.2-10-2.2-10s0.3 5.3-5.2 8.7c-5.5 3.4-8.5 8.9-8.5 8.9s3.6-10.6 8.2-14.6C170.3 172.4 171.2 171.7 171.2 171.7z"/><path fill="#95AF2E" d="M178.9 167.3c-1 2.6-3.8 3.8-6.4 2.8 -2.6-1-3.8-3.9-2.8-6.4 1-2.6 3.9-3.8 6.4-2.8C178.6 161.9 179.9 164.8 178.9 167.3z"/><path fill="#95AF2E" d="M314.7 59c-0.2 0.2 0 13.5 3.3 24.8 3.3 11.3 13.9 19.4 22.4 21.2 8.5 1.8 18.9 0.4 22.2-9.3 4.1-12.3-7.7-18.9-10.5-19.7 -3.8-1-12.4-2.2-14.8 6.2 0 0.1 0 0.2-0.1 0.3 0 0-0.9 5.8 2.1 9.6 3 3.8 7.6 4.4 9.5 2.9 1.8-1.6 1.5-4 0.3-4.8 -1.2-0.8-3.3-1.2-4 1.1 -0.7 2.3 2.1 2.5 2.1 2.5s-1.9-0.5-1.2-2.3c0.7-1.8 3.1-1.9 3.2 0.6 0.1 2.5-3.5 3.4-6.7 1.2 -3.2-2.2-3.8-8-1.9-11.7 1.3-2.5 6.1-7.5 13.1-4 7 3.5 8.5 11 5.8 17.1 -2.7 6.1-9.3 10.7-18.8 8.2 -9.5-2.5-14.2-8.6-16.8-12.6 -2.6-4-5.9-12.6-7-18.1C315.8 66.8 314.7 59 314.7 59z"/></svg>