<?xml version="1.0" encoding="utf-8"?>
<!-- Generator: Adobe Illustrator 13.0.0, SVG Export Plug-In . SVG Version: 6.00 Build 14948)  -->
<!DOCTYPE svg PUBLIC "-//W3C//DTD SVG 1.1//EN" "http://www.w3.org/Graphics/SVG/1.1/DTD/svg11.dtd">
<svg version="1.1" id="Layer_1" xmlns="http://www.w3.org/2000/svg" xmlns:xlink="http://www.w3.org/1999/xlink" x="0px" y="0px"
	 width="372.327px" height="205.683px" viewBox="0 0 372.327 205.683" enable-background="new 0 0 372.327 205.683"
	 xml:space="preserve">
<g>
	<g>
		<g>
			<path fill="#3EBDD4" d="M336.28,143.516c0.389-0.514,0.896-0.933,1.472-1.303c0.004,0.004,0.004,0.004,0.004,0.004
				c0.008-0.004,0.011-0.006,0.016-0.01l-0.001-0.002c-0.005,0.004-0.012,0.006-0.019,0.008c-0.243-0.2-0.471-0.414-0.677-0.639
				c-0.238-0.256-0.445-0.523-0.604-0.803c-0.814-1.422-0.328-3.245,1.036-4.056c0.168-0.086,0.342-0.166,0.519-0.239
				c0.125-0.056,0.248-0.105,0.377-0.149c0.19-0.067,0.384-0.125,0.582-0.173c0.046-0.012,0.09-0.019,0.134-0.03
				c0.094-0.021,0.188-0.042,0.283-0.061c-0.338-0.606-0.566-1.227-0.65-1.839c-0.218-1.611,0.911-3.098,2.523-3.318
				c0.634-0.115,1.294-0.064,1.964,0.1c-0.014-0.154-0.028-0.308-0.033-0.461c-0.008-0.191-0.007-0.381,0.007-0.571
				c0.006-0.113,0.019-0.224,0.032-0.333c0.025-0.202,0.056-0.406,0.102-0.604c0.436-1.559,2.039-2.486,3.622-2.081
				c0.582,0.146,1.181,0.454,1.737,0.825c0.196-0.635,0.457-1.218,0.834-1.712c0.986-1.296,2.854-1.522,4.149-0.538
				c0.206,0.158,0.394,0.336,0.571,0.526c0.116,0.12,0.223,0.249,0.327,0.38c0.066,0.084,0.131,0.168,0.192,0.256
				c0.067,0.093,0.145,0.176,0.211,0.275c0.291-0.342,0.605-0.645,0.942-0.908c0.169-0.135,0.34-0.259,0.523-0.367
				c1.421-0.82,3.213-0.354,4.053,1.032c0.093,0.178,0.175,0.356,0.25,0.54c0.049,0.112,0.094,0.226,0.134,0.343
				c0.057,0.166,0.106,0.335,0.149,0.509c0.038,0.154,0.069,0.314,0.095,0.476c0.603-0.335,1.223-0.562,1.863-0.622
				c1.614-0.22,3.1,0.908,3.319,2.524c0.084,0.607,0.032,1.267-0.127,1.938c0.677-0.066,1.338-0.055,1.966,0.105
				c1.563,0.438,2.519,2.064,2.11,3.65c-0.162,0.613-0.466,1.189-0.852,1.74c0.673,0.219,1.247,0.504,1.748,0.885
				c1.296,0.984,1.545,2.82,0.561,4.116c-0.36,0.474-0.838,0.907-1.413,1.271c0.358,0.302,0.672,0.63,0.942,0.985
				c0.121,0.154,0.236,0.314,0.334,0.484c0.819,1.416,0.355,3.205-1.063,4.023c-0.55,0.33-1.173,0.558-1.839,0.648
				c0.311,0.637,0.531,1.204,0.625,1.871c0.219,1.613-0.911,3.096-2.525,3.316c-0.643,0.061-1.27,0.033-1.944-0.129
				c0.065,0.697,0.015,1.355-0.154,1.974c-0.385,1.554-2.009,2.517-3.595,2.105c-0.272-0.072-0.537-0.177-0.798-0.298
				c-0.033-0.02-0.066-0.033-0.104-0.049c-0.285-0.143-0.565-0.314-0.836-0.503c-0.219,0.673-0.507,1.242-0.888,1.745
				c-0.984,1.299-2.823,1.55-4.118,0.562c-0.502-0.38-0.929-0.856-1.32-1.446c-0.43,0.521-0.903,0.966-1.449,1.287
				c-1.418,0.814-3.239,0.326-4.056-1.091c-0.111-0.19-0.204-0.397-0.293-0.614c-0.025-0.061-0.051-0.117-0.073-0.18
				c-0.079-0.221-0.15-0.458-0.207-0.699c-0.004-0.014-0.006-0.03-0.009-0.047c-0.023-0.097-0.049-0.194-0.068-0.299
				c-0.604,0.34-1.227,0.566-1.836,0.648c-1.615,0.221-3.1-0.908-3.316-2.523c-0.117-0.637-0.066-1.293,0.099-1.969
				c-0.672,0.092-1.329,0.042-1.946-0.131c-1.586-0.408-2.512-2.01-2.104-3.596c0.053-0.2,0.128-0.4,0.211-0.6
				c0.164-0.396,0.373-0.781,0.624-1.155c-0.143-0.045-0.267-0.108-0.405-0.159c-0.039-0.018-0.075-0.032-0.113-0.047
				c-0.194-0.08-0.389-0.164-0.569-0.262c-0.224-0.119-0.442-0.249-0.645-0.402C335.576,146.673,335.293,144.813,336.28,143.516z"/>
			<path fill-rule="evenodd" clip-rule="evenodd" fill="#BED630" d="M350.483,129.701c-0.282,0.369-0.486,0.847-0.641,1.361
				c-0.439-0.301-0.923-0.546-1.385-0.662c-1.248-0.32-2.513,0.407-2.858,1.642c-0.109,0.505-0.151,1.026-0.078,1.551
				c-0.531-0.13-1.05-0.169-1.552-0.079c-1.273,0.176-2.165,1.344-1.99,2.619c0.066,0.48,0.244,0.968,0.512,1.447
				c-0.547,0.098-1.036,0.275-1.494,0.517c-1.079,0.64-1.46,2.075-0.816,3.195c0.237,0.415,0.604,0.812,1.027,1.133
				c-0.474,0.309-0.875,0.634-1.179,1.03c-0.777,1.023-0.557,2.489,0.468,3.266c0.399,0.303,0.854,0.529,1.367,0.686
				c-0.296,0.441-0.525,0.898-0.66,1.387c-0.323,1.249,0.409,2.51,1.658,2.833c0.489,0.13,1.01,0.174,1.534,0.103
				c-0.128,0.532-0.17,1.051-0.079,1.555c0.175,1.268,1.346,2.16,2.617,1.987c0.482-0.067,0.972-0.245,1.45-0.509
				c0.096,0.544,0.274,1.031,0.51,1.447c0.645,1.118,2.078,1.502,3.199,0.858c0.433-0.258,0.813-0.604,1.133-1.026
				c0.31,0.475,0.652,0.852,1.051,1.153c1.022,0.777,2.472,0.578,3.249-0.442c0.301-0.397,0.529-0.854,0.701-1.394
				c0.426,0.323,0.88,0.554,1.368,0.687c1.25,0.322,2.531-0.434,2.833-1.658c0.137-0.489,0.177-1.01,0.124-1.561
				c0.53,0.131,1.024,0.151,1.531,0.105c1.271-0.173,2.165-1.344,1.987-2.617c-0.069-0.527-0.242-0.973-0.49-1.473
				c0.526-0.074,1.015-0.252,1.45-0.51c1.119-0.648,1.485-2.06,0.842-3.178c-0.263-0.433-0.603-0.813-1.009-1.158
				c0.452-0.282,0.831-0.627,1.114-1.002c0.777-1.02,0.579-2.467-0.44-3.244c-0.401-0.305-0.854-0.531-1.393-0.706
				c0.32-0.419,0.549-0.879,0.685-1.362c0.322-1.253-0.434-2.535-1.665-2.878c-0.481-0.093-1.001-0.136-1.554-0.08
				c0.131-0.535,0.172-1.05,0.104-1.532c-0.172-1.274-1.346-2.164-2.617-1.99c-0.506,0.047-0.998,0.223-1.475,0.49
				c-0.071-0.525-0.25-1.014-0.491-1.475c-0.662-1.092-2.075-1.457-3.192-0.816c-0.435,0.262-0.813,0.607-1.159,1.01
				c-0.282-0.451-0.627-0.83-1.024-1.135C352.736,128.498,351.259,128.678,350.483,129.701z"/>
			<path fill-rule="evenodd" clip-rule="evenodd" fill="#FFFFFF" d="M351.39,133.178c-0.211,0.277-0.361,0.627-0.476,1.011
				c-0.33-0.22-0.688-0.404-1.03-0.489c-0.926-0.236-1.868,0.303-2.124,1.219c-0.081,0.376-0.109,0.761-0.059,1.153
				c-0.394-0.095-0.78-0.129-1.152-0.057c-0.942,0.128-1.606,0.995-1.477,1.94c0.048,0.359,0.179,0.723,0.377,1.078
				c-0.404,0.071-0.766,0.203-1.109,0.384c-0.798,0.473-1.085,1.542-0.605,2.373c0.177,0.307,0.446,0.604,0.764,0.842
				c-0.351,0.231-0.648,0.472-0.876,0.767c-0.576,0.761-0.412,1.852,0.348,2.425c0.296,0.228,0.637,0.396,1.014,0.51
				c-0.217,0.328-0.39,0.668-0.489,1.03c-0.239,0.928,0.304,1.865,1.234,2.107c0.362,0.096,0.748,0.13,1.141,0.073
				c-0.097,0.396-0.128,0.782-0.061,1.154c0.13,0.944,0.998,1.607,1.943,1.478c0.358-0.049,0.722-0.182,1.078-0.38
				c0.072,0.405,0.205,0.769,0.378,1.076c0.479,0.833,1.547,1.118,2.379,0.642c0.321-0.193,0.603-0.45,0.842-0.764
				c0.231,0.35,0.483,0.631,0.778,0.855c0.763,0.576,1.835,0.432,2.415-0.33c0.223-0.293,0.395-0.634,0.522-1.031
				c0.314,0.238,0.651,0.409,1.015,0.507c0.929,0.241,1.881-0.324,2.105-1.231c0.098-0.363,0.13-0.749,0.091-1.158
				c0.396,0.095,0.761,0.109,1.14,0.077c0.944-0.129,1.608-1,1.477-1.943c-0.054-0.392-0.181-0.722-0.365-1.097
				c0.392-0.051,0.756-0.187,1.076-0.379c0.834-0.479,1.104-1.528,0.625-2.359c-0.192-0.323-0.447-0.604-0.747-0.862
				c0.337-0.208,0.616-0.464,0.828-0.743c0.578-0.759,0.429-1.832-0.33-2.41c-0.295-0.225-0.632-0.396-1.034-0.522
				c0.241-0.315,0.41-0.656,0.51-1.015c0.241-0.932-0.322-1.883-1.236-2.139c-0.36-0.067-0.745-0.099-1.153-0.059
				c0.097-0.397,0.124-0.781,0.075-1.141c-0.129-0.945-0.998-1.604-1.943-1.476c-0.376,0.033-0.741,0.163-1.097,0.364
				c-0.053-0.392-0.186-0.753-0.363-1.097c-0.492-0.811-1.544-1.083-2.373-0.604c-0.321,0.194-0.604,0.45-0.859,0.748
				c-0.211-0.336-0.469-0.617-0.762-0.842C353.062,132.285,351.967,132.418,351.39,133.178z"/>
		</g>
		<g>
			<g>
				<path fill="#FF5E79" d="M354.765,143.883c0,0,0.768,0.647,1.778,1.273c0.564,0.351,1.196,0.717,1.827,0.921
					c1.018,0.328,2.023,0.437,2.476-0.306c0,0,0.165-0.333,0.018-0.695c-0.064-0.157-0.176-0.448-0.603-0.713
					c-0.6-0.375-1.488-0.713-3.392-0.69C356.264,143.682,355.567,143.758,354.765,143.883z"/>
				<path fill="#FF5E79" d="M353.32,144.276c0,0-0.59,0.813-1.418,1.667c-0.461,0.477-0.987,0.984-1.55,1.334
					c-0.908,0.565-1.858,0.911-2.476,0.303c0,0-0.242-0.284-0.186-0.67c0.024-0.169,0.063-0.476,0.413-0.838
					c0.49-0.509,1.271-1.052,3.125-1.489C351.818,144.443,352.512,144.35,353.32,144.276z"/>
				<path fill="#FF5E79" d="M353.786,144.507c0,0-0.628,0.785-1.232,1.81c-0.338,0.572-0.687,1.213-0.874,1.848
					c-0.306,1.025-0.388,2.033,0.364,2.469c0,0,0.337,0.156,0.697,0c0.154-0.068,0.44-0.186,0.697-0.621
					c0.359-0.605,0.677-1.502,0.606-3.404C354.022,146.001,353.928,145.307,353.786,144.507z"/>
				<path fill="#FF5E79" d="M354.406,144.412c0,0,0.056,1.004,0.291,2.17c0.131,0.652,0.299,1.361,0.582,1.961
					c0.458,0.965,1.067,1.771,1.917,1.593c0,0,0.356-0.106,0.521-0.464c0.069-0.154,0.205-0.434,0.105-0.929
					c-0.137-0.69-0.5-1.569-1.822-2.941C355.58,145.365,355.047,144.912,354.406,144.412z"/>
				<path fill="#FF5E79" d="M354.779,143.315c0,0,0.538-0.847,1.314-1.748c0.433-0.503,0.928-1.042,1.468-1.425
					c0.873-0.617,1.8-1.023,2.453-0.451c0,0,0.258,0.268,0.224,0.66c-0.013,0.168-0.033,0.477-0.361,0.859
					c-0.458,0.535-1.203,1.126-3.029,1.674C356.268,143.059,355.581,143.194,354.779,143.315z"/>
				<path fill="#FF5E79" d="M353.295,143.654c0,0-0.788-0.622-1.816-1.221c-0.575-0.333-1.216-0.68-1.852-0.863
					c-1.029-0.297-2.036-0.376-2.466,0.378c0,0-0.157,0.339,0.003,0.696c0.067,0.158,0.188,0.441,0.622,0.695
					c0.611,0.355,1.51,0.668,3.413,0.586C351.805,143.9,352.497,143.803,353.295,143.654z"/>
				<path fill="#FF5E79" d="M353.662,143.119c0,0-0.841-0.549-1.734-1.336c-0.497-0.438-1.029-0.939-1.405-1.483
					c-0.607-0.882-1.001-1.813-0.422-2.459c0,0,0.271-0.254,0.661-0.218c0.17,0.017,0.479,0.039,0.857,0.373
					c0.53,0.465,1.11,1.217,1.637,3.049C353.423,141.628,353.55,142.315,353.662,143.119z"/>
				<path fill="#FF5E79" d="M354.319,142.994c0,0-0.271-0.967-0.428-2.146c-0.085-0.657-0.157-1.386-0.082-2.042
					c0.121-1.063,0.438-2.022,1.3-2.13c0,0,0.373-0.013,0.641,0.271c0.116,0.125,0.335,0.346,0.4,0.844
					c0.094,0.699,0.034,1.648-0.773,3.373C355.119,141.712,354.765,142.315,354.319,142.994z"/>
			</g>
		</g>
	</g>
	<g>
		<path fill="#95AF2E" d="M171.338,101.597c0,0,1.544-4.127-3.021-5.852c0,0-3.912-1.563-7.769,0.574
			c0.91,0.582,2.15,2.127,2.793,3.418C164.014,101.024,166.81,104.956,171.338,101.597z"/>
		<path fill="#95AF2E" d="M171.11,101.306c0,0,3.457,3.367,4.306,5.539"/>
	</g>
	<path fill="#95AF2E" d="M173.821,92.803c0,0,3.276-4.384-1.563-8.032c0,0-4.121-3.227-9.467-2.024
		c0.883,1.013,1.823,3.288,2.142,5.048C165.283,89.569,167.248,95.231,173.821,92.803z"/>
	<path fill="#95AF2E" d="M173.647,92.379c0,0,3.683,7.193,4.284,11.009"/>
	<path fill="#95AF2E" d="M196.742,88.973c0,0-0.108-5.473,5.952-5.618c0,0,5.229-0.223,8.87,3.871
		c-1.303,0.309-3.396,1.609-4.679,2.855C205.566,91.317,200.668,94.775,196.742,88.973z"/>
	<path fill="#95AF2E" d="M197.132,88.729c0,0-7.991,4.697-11.145,7.972"/>
	<path fill="#95AF2E" d="M245.881,41.373c0,0,3.441-0.818,2.549-4.63c0,0-0.712-3.307-3.862-4.916
		c0.02,0.865-0.454,2.383-1.023,3.389C242.983,36.242,241.619,39.864,245.881,41.373z"/>
	<path fill="#95AF2E" d="M245.972,41.093c0,0-0.695,3.809-1.764,5.346"/>
	<path fill="#95AF2E" d="M252.849,39.095c0,0,4.389,0.221,4.651-4.636c0,0,0.306-4.19-2.886-7.212
		c-0.281,1.042-1.376,2.688-2.405,3.686C251.184,31.961,248.288,35.802,252.849,39.095z"/>
	<path fill="#95AF2E" d="M253.055,38.79c0,0-3.212,5.765-5.519,7.916"/>
	<path fill="#95AF2E" d="M185.91,124.42c0,0,4.548-9.338,14.904-4.339c0,0,9.024,4.148,11.637,14.203
		c-2.473-0.604-7.129-0.215-10.374,0.779C198.781,136.01,187.524,137.613,185.91,124.42z"/>
	<path fill="#95AF2E" d="M186.779,124.345c0,0-15.862-0.064-23.066,3.063"/>
	<g>
		<path fill="#95AF2E" d="M173.76,132.843c0,0,5.796-5.087,11.451,1.311c0,0,4.986,5.435,3.885,13.068
			c-1.519-1.126-4.818-2.198-7.325-2.449C179.242,144.476,171.074,142.337,173.76,132.843z"/>
		<path fill="#95AF2E" d="M174.376,133.039c0,0-7.655-3.567-11.733-3.606"/>
	</g>
	<path fill="#95AF2E" d="M193.303,60.915c0,0,3.45-3.438-0.348-7.271c0,0-3.213-3.368-8.072-2.994
		c0.646,1.003,1.185,3.128,1.236,4.717C186.2,56.973,187.207,62.212,193.303,60.915z"/>
	<path fill="#95AF2E" d="M193.204,60.522c0,0,2.585,8.043,2.751,12.063"/>
	<path fill="#95AF2E" d="M191.755,67.445c0,0,1.908-2.726-1.101-4.848c0,0-2.565-1.88-5.788-1.05c0.555,0.6,1.172,1.963,1.396,3.024
		C186.51,65.645,187.812,69.045,191.755,67.445z"/>
	<path fill="#95AF2E" d="M191.643,67.19c0,0,2.693,4.43,3.253,6.751"/>
	<g>
		<path fill="#95AF2E" d="M197.112,62.989c0,0-1.67-2.618,1.225-4.474c0,0,2.469-1.647,5.438-0.743
			c-0.541,0.538-1.17,1.781-1.425,2.764C202.074,61.524,200.723,64.642,197.112,62.989z"/>
		<path fill="#95AF2E" d="M197.228,62.757c0,0-1.892,2.825-2.155,4.447"/>
	</g>
	<g>
		<path fill="#95AF2E" d="M220.278,45.118c0,0-1.669-2.617,1.225-4.474c0,0,2.468-1.649,5.438-0.742
			c-0.542,0.536-1.171,1.782-1.426,2.763C225.24,43.653,223.888,46.771,220.278,45.118z"/>
		<path fill="#95AF2E" d="M220.393,44.887c0,0-1.892,2.825-2.155,4.443"/>
	</g>
	<path fill="#95AF2E" d="M212.759,52.183c0,0,2.154-1.493,0.507-3.887c0,0-1.385-2.091-3.991-2.355
		c0.246,0.592,0.329,1.77,0.205,2.617C209.372,49.416,209.403,52.289,212.759,52.183z"/>
	<path fill="#95AF2E" d="M212.744,51.964c0,0,0.923,4.239,0.479,6.248"/>
	<g>
		<path fill="#95AF2E" d="M235.605,43.871c0,0,2.153-1.493,0.508-3.888c0,0-1.385-2.09-3.994-2.354
			c0.247,0.593,0.331,1.77,0.208,2.618C232.216,41.104,232.249,43.976,235.605,43.871z"/>
		<path fill="#95AF2E" d="M235.589,43.651c0,0,0.551,2.819,0.227,4.168"/>
	</g>
	<circle fill="#95AF2E" cx="237.575" cy="69.449" r="1.436"/>
	<path fill="#95AF2E" d="M264.083,55.308c-0.369,0.699-1.237,0.969-1.937,0.598c-0.698-0.369-0.97-1.238-0.601-1.938
		c0.37-0.701,1.24-0.97,1.941-0.601C264.188,53.735,264.455,54.604,264.083,55.308z"/>
	<circle fill="#95AF2E" cx="243.245" cy="61.253" r="1.436"/>
	<path fill="#95AF2E" d="M228.029,70.328c-0.368,0.7-1.235,0.968-1.938,0.598c-0.7-0.369-0.968-1.237-0.597-1.938
		c0.369-0.703,1.239-0.97,1.938-0.6C228.132,68.757,228.402,69.626,228.029,70.328z"/>
	<circle fill="#95AF2E" cx="223.716" cy="78.503" r="0.76"/>
	<path fill="#95AF2E" d="M229.329,74.582c-0.195,0.37-0.655,0.512-1.023,0.315c-0.372-0.195-0.514-0.654-0.319-1.023
		c0.197-0.371,0.655-0.514,1.026-0.317C229.383,73.752,229.522,74.211,229.329,74.582z"/>
	<path fill="#95AF2E" d="M248.015,66.839c-0.194,0.369-0.653,0.512-1.024,0.316c-0.367-0.196-0.512-0.656-0.316-1.025
		c0.196-0.37,0.655-0.512,1.024-0.316C248.07,66.01,248.211,66.468,248.015,66.839z"/>
	<circle fill="#95AF2E" cx="250.791" cy="53.112" r="0.758"/>
	<circle fill="#95AF2E" cx="249.052" cy="55.976" r="0.759"/>
	<circle fill="#95AF2E" cx="197.956" cy="81.933" r="1.436"/>
	<path fill="#95AF2E" d="M226.63,82.981c-0.369,0.699-1.237,0.967-1.937,0.598c-0.701-0.371-0.973-1.24-0.603-1.939
		c0.371-0.702,1.241-0.97,1.941-0.6C226.733,81.411,227.002,82.28,226.63,82.981z"/>
	<path fill="#95AF2E" d="M224.466,67.792c-0.369,0.701-1.237,0.967-1.94,0.598c-0.699-0.369-0.967-1.236-0.597-1.938
		c0.368-0.703,1.238-0.97,1.938-0.602C224.567,66.222,224.838,67.09,224.466,67.792z"/>
	<circle fill="#95AF2E" cx="204.213" cy="96.924" r="1.436"/>
	<circle fill="#95AF2E" cx="197.956" cy="81.933" r="1.436"/>
	<circle fill="#95AF2E" cx="208.314" cy="102.153" r="0.757"/>
	<path fill="#95AF2E" d="M212.431,89.136c-0.196,0.369-0.655,0.512-1.025,0.316s-0.513-0.656-0.317-1.023
		c0.195-0.373,0.655-0.513,1.024-0.318C212.483,88.306,212.625,88.765,212.431,89.136z"/>
	<path fill="#95AF2E" d="M228.389,90.921c-0.194,0.369-0.655,0.512-1.026,0.316c-0.37-0.195-0.51-0.656-0.316-1.023
		c0.197-0.373,0.656-0.516,1.027-0.319C228.442,90.091,228.585,90.55,228.389,90.921z"/>
	<circle fill="#95AF2E" cx="214.234" cy="79.465" r="1.436"/>
	<circle fill="#95AF2E" cx="293.581" cy="105.878" r="0.758"/>
	<circle fill="#95AF2E" cx="298.523" cy="101.602" r="0.759"/>
	<path fill="#95AF2E" d="M285.366,107.513c-0.368,0.699-1.235,0.967-1.938,0.595c-0.7-0.368-0.971-1.238-0.599-1.937
		c0.37-0.704,1.239-0.97,1.937-0.6C285.47,105.941,285.74,106.81,285.366,107.513z"/>
	<circle fill="#95AF2E" cx="186.389" cy="24.92" r="0.76"/>
	<circle fill="#95AF2E" cx="191.333" cy="20.645" r="0.758"/>
	<circle fill="#95AF2E" cx="188.035" cy="28.727" r="1.437"/>
	<circle fill="#95AF2E" cx="176.906" cy="25.883" r="1.437"/>
	<circle fill="#95AF2E" cx="180.162" cy="75.333" r="0.759"/>
	<circle fill="#95AF2E" cx="185.105" cy="71.059" r="0.758"/>
	<path fill="#95AF2E" d="M183.078,79.813c-0.37,0.698-1.238,0.966-1.938,0.596c-0.702-0.371-0.972-1.24-0.602-1.938
		c0.37-0.703,1.239-0.971,1.94-0.6C183.18,78.243,183.448,79.11,183.078,79.813z"/>
	<circle fill="#95AF2E" cx="170.681" cy="76.296" r="1.436"/>
	<circle fill="#95AF2E" cx="207.885" cy="30.165" r="1.436"/>
	<path fill="#95AF2E" d="M205.51,39.363c-0.196,0.371-0.656,0.511-1.026,0.316c-0.37-0.196-0.513-0.654-0.317-1.024
		c0.194-0.371,0.655-0.512,1.024-0.316C205.559,38.534,205.705,38.993,205.51,39.363z"/>
	<circle fill="#95AF2E" cx="209.781" cy="34.734" r="0.759"/>
	<circle fill="#95AF2E" cx="206.485" cy="42.818" r="1.436"/>
	<circle fill="#95AF2E" cx="204.321" cy="27.628" r="1.436"/>
	<path fill="#95AF2E" d="M196.628,40.642c-0.372,0.7-1.241,0.969-1.942,0.599c-0.698-0.37-0.968-1.239-0.599-1.938
		c0.371-0.704,1.239-0.969,1.939-0.599C196.728,39.073,196.998,39.94,196.628,40.642z"/>
	<circle fill="#95AF2E" cx="256.57" cy="90.308" r="1.436"/>
	<path fill="#95AF2E" d="M247.026,91.187c-0.37,0.701-1.239,0.969-1.94,0.599c-0.698-0.37-0.968-1.238-0.6-1.939
		c0.37-0.701,1.24-0.97,1.942-0.601C247.127,89.616,247.397,90.485,247.026,91.187z"/>
	<circle fill="#95AF2E" cx="242.709" cy="99.361" r="0.76"/>
	<circle fill="#95AF2E" cx="247.653" cy="95.086" r="0.759"/>
	<circle fill="#95AF2E" cx="242.193" cy="87.981" r="1.435"/>
	<path fill="#95AF2E" d="M234.497,100.995c-0.368,0.699-1.238,0.969-1.94,0.598c-0.699-0.371-0.968-1.239-0.6-1.939
		c0.373-0.703,1.24-0.969,1.94-0.6C234.601,99.425,234.87,100.292,234.497,100.995z"/>
	<circle fill="#95AF2E" cx="275.744" cy="3.763" r="1.437"/>
	<path fill="#95AF2E" d="M266.199,4.642c-0.371,0.701-1.239,0.971-1.94,0.6c-0.7-0.371-0.97-1.238-0.599-1.941
		c0.369-0.698,1.239-0.968,1.939-0.6C266.3,3.071,266.569,3.941,266.199,4.642z"/>
	<path fill="#95AF2E" d="M262.554,13.173c-0.196,0.369-0.656,0.51-1.026,0.314s-0.512-0.654-0.316-1.023
		c0.195-0.373,0.654-0.512,1.024-0.317C262.606,12.341,262.749,12.801,262.554,13.173z"/>
	<circle fill="#95AF2E" cx="266.826" cy="8.542" r="0.758"/>
	<circle fill="#95AF2E" cx="263.528" cy="16.625" r="1.437"/>
	<circle fill="#95AF2E" cx="261.365" cy="1.437" r="1.435"/>
	<path fill="#95AF2E" d="M253.67,14.45c-0.371,0.7-1.238,0.968-1.94,0.598c-0.698-0.371-0.97-1.239-0.601-1.938
		c0.372-0.703,1.241-0.971,1.941-0.601C253.771,12.882,254.04,13.749,253.67,14.45z"/>
	<circle fill="#95AF2E" cx="216.589" cy="87.72" r="0.758"/>
	<path fill="#95AF2E" d="M178.144,107.945c-0.372,0.703-1.24,0.97-1.94,0.599c-0.702-0.369-0.971-1.236-0.601-1.938
		c0.371-0.703,1.24-0.969,1.939-0.6C178.245,106.377,178.512,107.245,178.144,107.945z"/>
	<path fill="#95AF2E" d="M205.548,108.323c-0.37,0.7-1.238,0.969-1.939,0.599c-0.7-0.37-0.969-1.239-0.601-1.938
		c0.372-0.704,1.24-0.971,1.941-0.602C205.65,106.753,205.919,107.621,205.548,108.323z"/>
	<path fill="#95AF2E" d="M203.384,93.136c-0.37,0.7-1.238,0.967-1.939,0.598c-0.7-0.369-0.97-1.238-0.6-1.938
		c0.371-0.703,1.239-0.971,1.94-0.602C203.484,91.564,203.754,92.435,203.384,93.136z"/>
	<circle fill="#95AF2E" cx="183.129" cy="122.267" r="1.436"/>
	<path fill="#95AF2E" d="M178.144,107.945c-0.372,0.703-1.24,0.97-1.94,0.599c-0.702-0.369-0.971-1.236-0.601-1.938
		c0.371-0.703,1.24-0.969,1.939-0.6C178.245,106.377,178.512,107.245,178.144,107.945z"/>
	<circle fill="#95AF2E" cx="187.23" cy="127.495" r="0.757"/>
	<circle fill="#95AF2E" cx="190.675" cy="114.125" r="0.759"/>
	<circle fill="#95AF2E" cx="206.634" cy="115.909" r="0.759"/>
	<path fill="#95AF2E" d="M194.42,105.479c-0.37,0.697-1.238,0.967-1.94,0.597c-0.699-0.369-0.967-1.239-0.599-1.938
		c0.371-0.701,1.239-0.969,1.938-0.6C194.521,103.908,194.79,104.776,194.42,105.479z"/>
	<circle fill="#95AF2E" cx="195.507" cy="113.065" r="0.759"/>
	<path fill="#95AF2E" d="M308.678,55.009c-0.194,0.369-0.652,0.512-1.021,0.316c-0.373-0.195-0.515-0.656-0.319-1.025
		c0.197-0.37,0.655-0.512,1.026-0.316C308.733,54.179,308.873,54.638,308.678,55.009z"/>
	<circle fill="#95AF2E" cx="296.88" cy="51.808" r="0.759"/>
	<circle fill="#95AF2E" cx="181.218" cy="150.911" r="1.435"/>
	<circle fill="#95AF2E" cx="206.461" cy="136.098" r="1.435"/>
	<circle fill="#95AF2E" cx="181.218" cy="150.911" r="1.435"/>
	<circle fill="#95AF2E" cx="175.806" cy="134.745" r="1.435"/>
	<circle fill="#95AF2E" cx="179.861" cy="145.101" r="0.759"/>
	<circle fill="#95AF2E" cx="168.304" cy="111.89" r="1.435"/>
	<circle fill="#95AF2E" cx="170.661" cy="120.146" r="0.759"/>
	<circle fill="#95AF2E" cx="232.162" cy="53.283" r="1.436"/>
	<circle fill="#95AF2E" cx="246.104" cy="78.265" r="2.384"/>
	<circle fill="#95AF2E" cx="209.508" cy="72.313" r="2.384"/>
	<circle fill="#95AF2E" cx="155.929" cy="77.162" r="2.384"/>
	<circle fill="#95AF2E" cx="263.257" cy="30.483" r="2.383"/>
	<circle fill="#95AF2E" cx="256.583" cy="124.243" r="2.384"/>
	<path fill="#95AF2E" d="M2.612,109.075c0.16,1.167,33.459,39.121,56.016,45.167c11.583,3.349,37.173,11.409,63.169-0.035
		c20.446-10.167,35.97-15.838,50.374-42.815c14.403-26.977,25.063-44.376,35.759-51.348c10.697-6.973,32.057-22.262,84.921-8.738
		c17.146,4.848,33.298,11.162,33.298,11.162s-33.126-12.414-54.593-14.445c-21.467-2.029-45.356-0.904-58.869,12.104
		c-4.81,3.656-13.551,13.38-18.552,22.277c-4.999,8.898-11.867,22.167-19.602,33.329c-7.735,11.159-31.14,36.607-51.977,40.244
		c-6.012,1.505-31.244,10.433-57.413,1.21C49.838,152.146,29.792,146.08,0,114.023C1.159,111.825,2.612,109.075,2.612,109.075z"/>
	<path fill="#95AF2E" d="M180.6,105.026c0.927-0.219,17.734-6.75,33.333-4.834c16.599,2.035,32.697,9.148,42.63,14.1
		c9.934,4.948,42.95,22.096,51.969,20.951c-4.036,0.376-19.652-2.202-45.998-16.324c-11.447-5.158-19.301-9.896-35.589-14.512
		c-12.813-2.672-34.908-5.086-51.38,8.031C176.714,107.845,180.6,105.026,180.6,105.026z"/>
	<g>
		<g>
			<path fill="none" d="M308.95,100.625c0,0-22.667,5.743-39.796,1.567c-17.135-4.178-34.397-7.822-38.884-8.277
				c-4.483-0.453-35.289-4.174-54.108,14.967"/>
			<path fill="#95AF2E" d="M308.766,99.957c-10.428,2.605-21.523,3.642-32.229,2.75c-9.176-0.764-18.352-3.869-27.331-5.844
				c-6.022-1.325-12.085-2.718-18.2-3.553c-19.274-2.632-41.074,1.052-55.333,15.082c-0.638,0.628,0.343,1.607,0.98,0.98
				c15.338-15.092,38.93-17.616,59.274-13.838c14.958,2.778,29.917,8.231,45.158,8.838c9.293,0.369,19.019-0.822,28.05-3.079
				C310.001,101.077,309.634,99.74,308.766,99.957L308.766,99.957z"/>
		</g>
	</g>
	<g>
		<g>
			<path fill="none" d="M205.413,102.154c0,0,11.353,3.997,15.788,8.338c5.173,5.071,4.074,12.397-3.612,13.769
				c-4.801,0.689-13.533-2.479-11.051-10.384c0.969-2.464,2.629-4.441,5.504-2.899c2.634,1.415,3.354,4.021,2.194,5.692"/>
			<path fill="#95AF2E" d="M205.229,102.822c6.012,2.141,13.785,4.956,17.354,10.559c3.567,5.601-1.738,10.527-7.369,10.233
				c-1.974-0.103-3.878-0.895-5.532-1.921c-1.42-0.882-2.26-2.263-2.74-3.819c-0.045-0.589-0.089-1.178-0.134-1.767
				c0.229-4.576,2.507-4.505,6.83,0.213c-0.396,0.797,0.799,1.5,1.197,0.699c1.394-2.799-0.041-5.042-2.443-6.641
				c-2.956-1.967-5.327,0.656-6.452,3.148c-3.051,6.761,4.469,11.223,10.106,11.517c7.132,0.372,10.748-6.42,7.733-12.363
				c-3.076-6.065-12.193-9.063-18.182-11.195C204.753,101.186,204.393,102.525,205.229,102.822L205.229,102.822z"/>
		</g>
	</g>
	<g>
		<g>
			<path fill="none" d="M255.227,46.076c0,0,4.754-1.373,9.249-5.229c4.493-3.854,11.219-8.873,15.912-7.223
				c3.349,1.073,5.682,6.693-1.367,8.678c-3.548,0.973-7.164,0.37-6.299-3.688c0.653-2.707,2.543-2.325,3.912-1.32"/>
			<path fill="#95AF2E" d="M255.411,46.745c4.012-1.233,7.455-3.637,10.629-6.314c3.423-2.887,7.483-5.896,12.053-6.43
				c2.253-0.263,3.979,1.073,4.714,3.049c-0.242,2.644-1.565,4.172-3.971,4.584c-2.712,1.202-3.563-0.046-2.552-3.742
				c0.773,0.452,1.471-0.747,0.699-1.197c-3.574-2.089-7.401,2.712-4.292,5.385c3.419,2.938,10.362,0.858,11.549-3.504
				c1.131-4.157-4.321-6.602-7.559-5.793c-8.418,2.105-13.434,10.103-21.64,12.625C254.19,45.67,254.554,47.008,255.411,46.745
				L255.411,46.745z"/>
		</g>
	</g>
	<g>
		<path fill="#E48800" d="M299.966,76.161c-0.395-0.086-0.767-0.265-1.125-0.494c0-0.004,0-0.004,0-0.004
			c-0.003-0.004-0.006-0.004-0.011-0.006v0.001c0.003,0.003,0.007,0.005,0.011,0.009c-0.052,0.189-0.113,0.375-0.186,0.55
			c-0.085,0.203-0.183,0.39-0.3,0.554c-0.594,0.834-1.754,1.036-2.572,0.473c-0.093-0.073-0.185-0.15-0.271-0.23
			c-0.063-0.058-0.125-0.115-0.185-0.177c-0.086-0.09-0.17-0.185-0.248-0.286c-0.021-0.021-0.035-0.045-0.053-0.066
			c-0.036-0.048-0.072-0.096-0.108-0.145c-0.256,0.35-0.547,0.642-0.874,0.85c-0.855,0.545-1.997,0.292-2.544-0.564
			c-0.23-0.33-0.376-0.718-0.457-1.142c-0.086,0.05-0.168,0.097-0.251,0.14c-0.107,0.055-0.216,0.102-0.329,0.146
			c-0.064,0.025-0.132,0.047-0.195,0.068c-0.124,0.038-0.246,0.074-0.371,0.1c-0.999,0.161-1.944-0.507-2.129-1.51
			c-0.067-0.369-0.05-0.792,0.016-1.204c-0.411,0.054-0.811,0.06-1.191-0.025c-0.991-0.221-1.608-1.223-1.39-2.215
			c0.036-0.157,0.089-0.312,0.149-0.462c0.038-0.098,0.085-0.191,0.131-0.285c0.029-0.06,0.06-0.117,0.095-0.176
			c0.035-0.063,0.063-0.13,0.101-0.191c-0.271-0.075-0.524-0.174-0.762-0.298c-0.121-0.062-0.236-0.125-0.345-0.202
			c-0.839-0.592-1.042-1.729-0.474-2.57c0.074-0.098,0.154-0.191,0.24-0.283c0.051-0.056,0.104-0.111,0.159-0.164
			c0.079-0.076,0.162-0.149,0.249-0.218c0.079-0.063,0.161-0.122,0.247-0.18c-0.35-0.254-0.638-0.547-0.842-0.896
			c-0.545-0.858-0.293-1.996,0.566-2.543c0.32-0.207,0.711-0.351,1.133-0.434c-0.214-0.37-0.383-0.747-0.456-1.145
			c-0.159-1.001,0.515-1.971,1.522-2.153c0.391-0.068,0.794-0.046,1.209,0.028c-0.052-0.439-0.039-0.84,0.046-1.224
			c0.222-0.993,1.197-1.614,2.19-1.394c0.363,0.078,0.735,0.236,1.09,0.469c0.08-0.282,0.185-0.547,0.313-0.792
			c0.057-0.11,0.119-0.217,0.188-0.317c0.592-0.835,1.729-1.039,2.564-0.449c0.331,0.226,0.622,0.52,0.849,0.875
			c0.277-0.343,0.543-0.616,0.898-0.844c0.856-0.545,1.994-0.293,2.543,0.565c0.201,0.351,0.353,0.713,0.435,1.139
			c0.377-0.22,0.767-0.364,1.162-0.43c0.981-0.188,1.951,0.483,2.132,1.49c0.031,0.175,0.042,0.352,0.04,0.53
			c-0.001,0.023,0.002,0.048,0,0.072c-0.006,0.199-0.03,0.402-0.065,0.605c0.439-0.053,0.837-0.037,1.224,0.047
			c0.992,0.221,1.617,1.199,1.396,2.191c-0.084,0.385-0.243,0.752-0.478,1.129c0.408,0.107,0.785,0.26,1.109,0.486
			c0.834,0.591,1.033,1.754,0.442,2.588c-0.079,0.111-0.172,0.221-0.272,0.326c-0.028,0.03-0.054,0.06-0.082,0.089
			c-0.106,0.103-0.219,0.204-0.343,0.3c-0.008,0.006-0.016,0.012-0.025,0.018c-0.048,0.039-0.098,0.078-0.152,0.117
			c0.353,0.254,0.644,0.548,0.85,0.873c0.548,0.857,0.293,1.996-0.566,2.541c-0.331,0.234-0.716,0.377-1.143,0.46
			c0.229,0.356,0.37,0.743,0.435,1.138c0.185,1.008-0.483,1.952-1.49,2.137c-0.129,0.021-0.26,0.032-0.394,0.037
			c-0.271,0.01-0.543-0.008-0.821-0.054c0.013,0.093,0.008,0.183,0.016,0.272c0,0.027,0.003,0.051,0.003,0.077
			c0.005,0.13,0.008,0.263,0,0.391c-0.008,0.159-0.024,0.317-0.06,0.471C301.94,75.735,300.959,76.382,299.966,76.161z"/>
		<path fill-rule="evenodd" clip-rule="evenodd" fill="#BED630" d="M288.407,71.712c0.285,0.063,0.606,0.054,0.939,0.007
			c-0.054,0.329-0.068,0.668-0.013,0.96c0.145,0.792,0.89,1.32,1.679,1.193c0.317-0.07,0.624-0.184,0.901-0.361
			c0.067,0.336,0.18,0.641,0.362,0.902c0.431,0.677,1.328,0.875,2.006,0.443c0.258-0.164,0.486-0.393,0.688-0.668
			c0.198,0.284,0.429,0.515,0.685,0.712c0.645,0.445,1.56,0.286,2.028-0.372c0.172-0.242,0.3-0.554,0.374-0.879
			c0.299,0.188,0.587,0.33,0.892,0.4c0.785,0.173,1.561-0.337,1.732-1.12c0.068-0.306,0.077-0.626,0.031-0.956
			c0.329,0.053,0.648,0.063,0.96,0.012c0.795-0.144,1.317-0.889,1.174-1.682c-0.052-0.312-0.162-0.619-0.343-0.898
			c0.338-0.066,0.644-0.178,0.903-0.361c0.675-0.43,0.874-1.328,0.443-2.004c-0.162-0.257-0.393-0.488-0.667-0.691
			c0.283-0.195,0.513-0.426,0.688-0.668c0.466-0.658,0.31-1.572-0.351-2.039c-0.257-0.18-0.553-0.305-0.877-0.375
			c0.188-0.3,0.313-0.594,0.379-0.898c0.176-0.785-0.317-1.555-1.1-1.729c-0.307-0.067-0.625-0.076-0.974-0.034
			c0.071-0.326,0.083-0.645,0.031-0.955c-0.145-0.794-0.908-1.325-1.684-1.176c-0.313,0.052-0.62,0.165-0.916,0.339
			c-0.065-0.336-0.186-0.622-0.343-0.898c-0.431-0.676-1.327-0.876-2.005-0.445c-0.281,0.18-0.488,0.395-0.707,0.666
			c-0.181-0.279-0.41-0.512-0.67-0.689c-0.66-0.467-1.555-0.305-2.022,0.354c-0.178,0.262-0.304,0.554-0.396,0.875
			c-0.276-0.185-0.572-0.309-0.859-0.371c-0.781-0.174-1.552,0.316-1.726,1.098c-0.067,0.307-0.077,0.625-0.036,0.976
			c-0.323-0.071-0.644-0.081-0.954-0.032c-0.794,0.145-1.324,0.908-1.198,1.699c0.075,0.296,0.186,0.604,0.36,0.902
			c-0.337,0.066-0.641,0.178-0.897,0.342c-0.678,0.431-0.876,1.328-0.441,2.006c0.158,0.273,0.387,0.507,0.66,0.709
			c-0.278,0.177-0.51,0.406-0.706,0.662c-0.447,0.664-0.285,1.561,0.37,2.027c0.264,0.178,0.557,0.303,0.876,0.396
			c-0.182,0.276-0.307,0.571-0.376,0.877C287.135,70.747,287.624,71.538,288.407,71.712z"/>
		<path fill-rule="evenodd" clip-rule="evenodd" fill="#FFFFFF" d="M290.144,70.288c0.214,0.047,0.45,0.04,0.7,0.006
			c-0.04,0.244-0.052,0.494-0.011,0.713c0.108,0.588,0.659,0.98,1.247,0.887c0.235-0.054,0.462-0.138,0.671-0.27
			c0.049,0.249,0.133,0.479,0.269,0.67c0.319,0.502,0.987,0.652,1.489,0.33c0.191-0.121,0.363-0.29,0.513-0.496
			c0.147,0.211,0.316,0.383,0.507,0.53c0.479,0.33,1.16,0.212,1.508-0.277c0.129-0.182,0.225-0.411,0.277-0.653
			c0.224,0.139,0.438,0.244,0.664,0.297c0.582,0.129,1.159-0.251,1.285-0.832c0.054-0.229,0.058-0.464,0.025-0.71
			c0.242,0.038,0.479,0.048,0.711,0.009c0.592-0.106,0.98-0.66,0.872-1.25c-0.038-0.23-0.121-0.459-0.255-0.667
			c0.25-0.049,0.478-0.133,0.672-0.268c0.502-0.321,0.65-0.987,0.331-1.49c-0.122-0.191-0.292-0.363-0.498-0.512
			c0.211-0.147,0.384-0.317,0.512-0.497c0.348-0.489,0.229-1.172-0.257-1.518c-0.195-0.132-0.414-0.225-0.654-0.277
			c0.138-0.223,0.232-0.441,0.281-0.668c0.128-0.582-0.234-1.154-0.817-1.283c-0.226-0.051-0.464-0.058-0.724-0.026
			c0.053-0.241,0.061-0.477,0.023-0.709c-0.106-0.59-0.676-0.983-1.251-0.872c-0.231,0.037-0.458,0.121-0.681,0.25
			c-0.049-0.248-0.138-0.461-0.254-0.667c-0.322-0.503-0.988-0.651-1.49-0.331c-0.208,0.135-0.361,0.293-0.526,0.496
			c-0.131-0.209-0.304-0.381-0.496-0.513c-0.49-0.347-1.156-0.228-1.503,0.261c-0.135,0.195-0.227,0.412-0.295,0.651
			c-0.206-0.137-0.424-0.229-0.638-0.276c-0.581-0.129-1.154,0.236-1.284,0.818c-0.049,0.227-0.057,0.461-0.022,0.723
			c-0.242-0.054-0.479-0.061-0.711-0.023c-0.592,0.107-0.984,0.676-0.891,1.262c0.054,0.223,0.14,0.449,0.27,0.67
			c-0.251,0.049-0.478,0.133-0.668,0.254c-0.504,0.322-0.65,0.987-0.327,1.49c0.114,0.205,0.283,0.378,0.491,0.527
			c-0.208,0.133-0.379,0.303-0.527,0.492c-0.331,0.493-0.211,1.16,0.276,1.508c0.194,0.129,0.413,0.223,0.65,0.292
			c-0.136,0.208-0.227,0.425-0.278,0.651C289.201,69.571,289.562,70.158,290.144,70.288z"/>
		<g>
			<g>
				<path fill="#FF5E79" d="M295.338,65.571c0,0,0.167-0.604,0.257-1.342c0.052-0.412,0.096-0.867,0.047-1.277
					c-0.081-0.663-0.281-1.264-0.821-1.326c0,0-0.231-0.006-0.399,0.172c-0.074,0.079-0.208,0.217-0.247,0.529
					c-0.055,0.438-0.017,1.031,0.494,2.106C294.832,64.774,295.059,65.149,295.338,65.571z"/>
				<path fill="#FF5E79" d="M295.939,66.289c0,0,0.615,0.122,1.318,0.368c0.39,0.138,0.815,0.305,1.161,0.532
					c0.558,0.366,1.003,0.815,0.82,1.325c0,0-0.098,0.211-0.333,0.281c-0.103,0.03-0.287,0.088-0.583-0.015
					c-0.417-0.146-0.931-0.447-1.663-1.386C296.427,67.099,296.194,66.728,295.939,66.289z"/>
				<path fill="#FF5E79" d="M295.947,65.964c0,0,0.61,0.152,1.352,0.227c0.412,0.041,0.869,0.073,1.276,0.013
					c0.663-0.095,1.258-0.312,1.307-0.851c0,0,0.001-0.234-0.182-0.396c-0.08-0.07-0.222-0.202-0.534-0.234
					c-0.438-0.045-1.03,0.01-2.094,0.547C296.736,65.439,296.366,65.673,295.947,65.964z"/>
				<path fill="#FF5E79" d="M295.731,65.638c0,0,0.556-0.295,1.158-0.734c0.335-0.243,0.693-0.523,0.96-0.842
					c0.428-0.512,0.726-1.07,0.401-1.505c0,0-0.154-0.175-0.398-0.175c-0.105,0.002-0.299-0.002-0.555,0.184
					c-0.354,0.259-0.761,0.693-1.193,1.804C295.968,64.722,295.85,65.143,295.731,65.638z"/>
				<path fill="#FF5E79" d="M295.014,65.712c0,0-0.622-0.085-1.339-0.289c-0.397-0.113-0.831-0.254-1.19-0.461
					c-0.578-0.333-1.05-0.754-0.896-1.273c0,0,0.085-0.219,0.313-0.3c0.098-0.038,0.279-0.106,0.582-0.021
					c0.425,0.121,0.956,0.389,1.743,1.282C294.478,64.935,294.735,65.288,295.014,65.712z"/>
				<path fill="#FF5E79" d="M295.595,66.466c0,0-0.149,0.61-0.22,1.352c-0.04,0.412-0.068,0.867-0.007,1.277
					c0.101,0.66,0.319,1.254,0.86,1.301c0,0,0.232,0,0.396-0.186c0.071-0.08,0.2-0.223,0.229-0.535
					c0.044-0.439-0.016-1.031-0.559-2.09C296.123,67.248,295.886,66.88,295.595,66.466z"/>
				<path fill="#FF5E79" d="M295.192,66.399c0,0-0.092,0.619-0.306,1.331c-0.118,0.398-0.262,0.831-0.473,1.187
					c-0.34,0.576-0.768,1.041-1.285,0.883c0,0-0.216-0.088-0.296-0.32c-0.036-0.1-0.104-0.28-0.016-0.582
					c0.129-0.424,0.402-0.949,1.306-1.728C294.408,66.925,294.767,66.672,295.192,66.399z"/>
				<path fill="#FF5E79" d="M294.95,66.058c0,0-0.479,0.407-1.106,0.804c-0.352,0.221-0.745,0.452-1.138,0.58
					c-0.635,0.21-1.263,0.282-1.549-0.18c0,0-0.104-0.208-0.013-0.435c0.039-0.1,0.108-0.281,0.372-0.447
					c0.375-0.238,0.928-0.453,2.118-0.445C294.014,65.938,294.448,65.983,294.95,66.058z"/>
			</g>
		</g>
	</g>
	<g>
		<path fill="#E48800" d="M167.779,72.199c-0.62-0.136-1.204-0.417-1.77-0.78c0-0.004,0-0.004,0-0.004
			c-0.005-0.006-0.011-0.008-0.017-0.012c0,0,0,0.002-0.001,0.004c0.006,0.003,0.01,0.006,0.018,0.012
			c-0.081,0.301-0.178,0.592-0.294,0.868c-0.131,0.319-0.286,0.614-0.47,0.872c-0.935,1.313-2.766,1.63-4.053,0.744
			c-0.147-0.115-0.291-0.236-0.429-0.365c-0.1-0.088-0.195-0.178-0.289-0.277c-0.137-0.14-0.268-0.291-0.393-0.448
			c-0.031-0.034-0.055-0.073-0.083-0.106c-0.057-0.074-0.114-0.15-0.171-0.228c-0.402,0.552-0.863,1.011-1.376,1.338
			c-1.351,0.858-3.146,0.461-4.008-0.889c-0.363-0.519-0.589-1.132-0.721-1.797c-0.132,0.075-0.263,0.152-0.396,0.22
			c-0.17,0.086-0.339,0.161-0.515,0.229c-0.104,0.043-0.207,0.074-0.313,0.109c-0.189,0.059-0.384,0.115-0.579,0.157
			c-1.575,0.252-3.064-0.8-3.354-2.382c-0.108-0.58-0.08-1.244,0.021-1.894c-0.646,0.085-1.276,0.092-1.874-0.04
			c-1.564-0.348-2.535-1.926-2.19-3.489c0.057-0.249,0.14-0.491,0.235-0.728c0.06-0.153,0.132-0.302,0.205-0.45
			c0.049-0.093,0.098-0.185,0.15-0.276c0.055-0.099,0.098-0.203,0.16-0.303c-0.428-0.119-0.827-0.274-1.202-0.468
			c-0.189-0.095-0.373-0.197-0.545-0.317c-1.318-0.933-1.639-2.727-0.745-4.051c0.119-0.154,0.246-0.302,0.38-0.445
			c0.08-0.088,0.163-0.176,0.251-0.26c0.125-0.12,0.255-0.234,0.393-0.342c0.123-0.099,0.254-0.193,0.388-0.283
			c-0.549-0.4-1.006-0.861-1.323-1.41c-0.861-1.352-0.465-3.145,0.889-4.007c0.509-0.326,1.119-0.552,1.787-0.685
			c-0.339-0.58-0.602-1.176-0.718-1.802c-0.25-1.577,0.81-3.104,2.397-3.391c0.613-0.108,1.252-0.074,1.905,0.044
			c-0.083-0.691-0.063-1.322,0.071-1.928c0.348-1.564,1.885-2.543,3.45-2.197c0.572,0.127,1.156,0.375,1.718,0.74
			c0.124-0.444,0.288-0.861,0.494-1.248c0.088-0.173,0.184-0.341,0.295-0.5c0.931-1.314,2.722-1.637,4.037-0.705
			c0.521,0.354,0.981,0.816,1.338,1.377c0.439-0.541,0.856-0.971,1.414-1.329c1.353-0.86,3.146-0.462,4.008,0.891
			c0.317,0.551,0.552,1.122,0.685,1.792c0.596-0.348,1.207-0.572,1.83-0.676c1.546-0.295,3.074,0.761,3.362,2.348
			c0.048,0.274,0.063,0.554,0.061,0.836c-0.002,0.038,0,0.074,0.001,0.113c-0.01,0.313-0.05,0.635-0.105,0.955
			c0.691-0.082,1.318-0.059,1.928,0.074c1.565,0.346,2.548,1.887,2.196,3.451c-0.131,0.605-0.382,1.184-0.748,1.777
			c0.642,0.17,1.236,0.408,1.747,0.765c1.313,0.933,1.627,2.763,0.697,4.077c-0.126,0.177-0.273,0.348-0.431,0.514
			c-0.043,0.049-0.084,0.096-0.129,0.14c-0.166,0.165-0.349,0.323-0.541,0.474c-0.012,0.009-0.024,0.02-0.038,0.027
			c-0.077,0.063-0.154,0.125-0.239,0.184c0.553,0.402,1.011,0.864,1.338,1.376c0.861,1.353,0.462,3.146-0.892,4.005
			c-0.521,0.368-1.128,0.592-1.801,0.723c0.357,0.562,0.584,1.172,0.685,1.793c0.288,1.588-0.762,3.076-2.349,3.365
			c-0.202,0.035-0.41,0.051-0.621,0.059c-0.425,0.016-0.854-0.012-1.294-0.084c0.021,0.147,0.015,0.285,0.024,0.43
			c0.002,0.041,0.005,0.08,0.007,0.12c0.009,0.207,0.013,0.415-0.001,0.616c-0.013,0.251-0.04,0.5-0.092,0.741
			C170.893,71.528,169.346,72.547,167.779,72.199z"/>
		<path fill-rule="evenodd" clip-rule="evenodd" fill="#BED630" d="M149.573,65.188c0.448,0.102,0.957,0.086,1.481,0.012
			c-0.086,0.519-0.108,1.052-0.021,1.511c0.228,1.249,1.399,2.081,2.645,1.882c0.498-0.111,0.98-0.287,1.42-0.569
			c0.103,0.528,0.282,1.009,0.568,1.421c0.682,1.065,2.093,1.38,3.162,0.699c0.402-0.258,0.765-0.617,1.083-1.053
			c0.312,0.447,0.675,0.811,1.078,1.123c1.015,0.699,2.457,0.449,3.193-0.587c0.273-0.382,0.476-0.873,0.59-1.385
			c0.47,0.296,0.927,0.521,1.406,0.63c1.236,0.273,2.456-0.529,2.728-1.764c0.107-0.482,0.121-0.984,0.049-1.506
			c0.518,0.082,1.021,0.1,1.512,0.02c1.252-0.227,2.078-1.401,1.852-2.652c-0.084-0.488-0.26-0.973-0.541-1.412
			c0.529-0.104,1.011-0.281,1.424-0.569c1.063-0.679,1.377-2.095,0.699-3.16c-0.259-0.403-0.62-0.768-1.054-1.087
			c0.447-0.309,0.811-0.671,1.085-1.053c0.734-1.037,0.486-2.478-0.55-3.214c-0.409-0.281-0.874-0.477-1.384-0.59
			c0.295-0.472,0.491-0.935,0.598-1.415c0.273-1.234-0.5-2.447-1.733-2.722c-0.481-0.107-0.982-0.122-1.535-0.054
			c0.113-0.514,0.132-1.016,0.05-1.506c-0.228-1.25-1.431-2.086-2.65-1.852c-0.493,0.08-0.975,0.259-1.445,0.533
			c-0.103-0.529-0.289-0.979-0.539-1.414c-0.678-1.065-2.093-1.381-3.157-0.7c-0.443,0.28-0.77,0.618-1.116,1.048
			c-0.282-0.44-0.644-0.806-1.053-1.086c-1.04-0.736-2.452-0.48-3.188,0.556c-0.279,0.412-0.479,0.872-0.621,1.379
			c-0.438-0.289-0.902-0.484-1.354-0.585c-1.233-0.273-2.444,0.5-2.72,1.73c-0.106,0.484-0.124,0.983-0.058,1.537
			c-0.508-0.115-1.013-0.129-1.502-0.052c-1.251,0.228-2.086,1.433-1.885,2.675c0.113,0.469,0.291,0.952,0.566,1.422
			c-0.531,0.104-1.01,0.281-1.413,0.538c-1.068,0.68-1.38,2.095-0.699,3.16c0.249,0.434,0.608,0.8,1.045,1.117
			c-0.44,0.28-0.804,0.641-1.117,1.047c-0.704,1.041-0.448,2.456,0.587,3.19c0.412,0.282,0.875,0.479,1.379,0.622
			c-0.286,0.438-0.484,0.902-0.592,1.383C147.57,63.671,148.339,64.916,149.573,65.188z"/>
		<path fill-rule="evenodd" clip-rule="evenodd" fill="#FFFFFF" d="M152.31,62.946c0.335,0.074,0.71,0.064,1.1,0.01
			c-0.061,0.385-0.078,0.781-0.013,1.121c0.17,0.928,1.04,1.547,1.964,1.398c0.37-0.084,0.728-0.215,1.057-0.424
			c0.075,0.393,0.207,0.752,0.424,1.057c0.502,0.789,1.552,1.025,2.344,0.52c0.302-0.191,0.571-0.459,0.808-0.782
			c0.231,0.331,0.499,0.601,0.801,0.834c0.753,0.521,1.825,0.335,2.373-0.437c0.2-0.284,0.354-0.648,0.438-1.029
			c0.351,0.219,0.688,0.387,1.046,0.467c0.918,0.205,1.825-0.393,2.026-1.309c0.081-0.359,0.09-0.732,0.037-1.119
			c0.383,0.062,0.757,0.075,1.123,0.016c0.929-0.168,1.543-1.041,1.375-1.972c-0.063-0.362-0.192-0.722-0.404-1.05
			c0.395-0.077,0.753-0.21,1.059-0.422c0.79-0.506,1.024-1.557,0.52-2.348c-0.191-0.3-0.46-0.57-0.782-0.807
			c0.332-0.232,0.603-0.5,0.806-0.783c0.548-0.77,0.362-1.844-0.407-2.391c-0.306-0.207-0.651-0.352-1.029-0.437
			c0.219-0.351,0.365-0.692,0.444-1.05c0.201-0.919-0.37-1.818-1.289-2.022c-0.355-0.08-0.73-0.091-1.139-0.042
			c0.083-0.38,0.097-0.752,0.036-1.118c-0.168-0.928-1.064-1.548-1.969-1.375c-0.367,0.062-0.724,0.193-1.074,0.396
			c-0.077-0.392-0.215-0.728-0.399-1.05c-0.506-0.793-1.558-1.027-2.348-0.521c-0.327,0.209-0.571,0.461-0.829,0.778
			c-0.208-0.327-0.478-0.599-0.782-0.808c-0.772-0.545-1.82-0.355-2.367,0.414c-0.209,0.307-0.356,0.648-0.464,1.025
			c-0.326-0.216-0.667-0.361-1.005-0.436c-0.916-0.205-1.816,0.371-2.02,1.289c-0.08,0.355-0.094,0.727-0.042,1.138
			c-0.38-0.084-0.754-0.095-1.117-0.038c-0.932,0.17-1.551,1.066-1.402,1.988c0.087,0.35,0.22,0.707,0.423,1.057
			c-0.395,0.076-0.749,0.209-1.051,0.4c-0.793,0.506-1.023,1.555-0.519,2.348c0.185,0.322,0.451,0.594,0.776,0.83
			c-0.329,0.208-0.597,0.476-0.831,0.777c-0.522,0.774-0.333,1.825,0.438,2.371c0.306,0.207,0.651,0.354,1.022,0.461
			c-0.213,0.326-0.358,0.672-0.439,1.027C150.822,61.819,151.392,62.743,152.31,62.946z"/>
		<g>
			<g>
				<path fill="#FF5E79" d="M160.491,55.518c0,0,0.262-0.954,0.408-2.114c0.08-0.649,0.146-1.365,0.069-2.014
					c-0.126-1.045-0.442-1.988-1.292-2.088c0,0-0.366-0.012-0.63,0.271c-0.114,0.123-0.328,0.341-0.389,0.833
					c-0.089,0.688-0.025,1.623,0.78,3.316C159.695,54.26,160.05,54.852,160.491,55.518z"/>
				<path fill="#FF5E79" d="M161.438,56.647c0,0,0.971,0.191,2.075,0.58c0.616,0.217,1.286,0.479,1.832,0.837
					c0.879,0.58,1.58,1.286,1.29,2.089c0,0-0.154,0.334-0.523,0.441c-0.161,0.049-0.451,0.141-0.919-0.022
					c-0.656-0.229-1.463-0.704-2.618-2.182C162.207,57.922,161.839,57.339,161.438,56.647z"/>
				<path fill="#FF5E79" d="M161.454,56.136c0,0,0.96,0.238,2.126,0.356c0.65,0.065,1.367,0.114,2.013,0.021
					c1.041-0.15,1.978-0.49,2.056-1.342c0,0,0.002-0.367-0.286-0.623c-0.125-0.111-0.348-0.318-0.842-0.369
					c-0.69-0.071-1.624,0.015-3.297,0.861C162.693,55.31,162.11,55.678,161.454,56.136z"/>
				<path fill="#FF5E79" d="M161.113,55.618c0,0,0.874-0.461,1.821-1.152c0.527-0.385,1.094-0.826,1.513-1.328
					c0.676-0.808,1.144-1.684,0.634-2.371c0,0-0.241-0.275-0.628-0.273c-0.167,0-0.472-0.005-0.873,0.288
					c-0.562,0.407-1.199,1.094-1.881,2.841C161.483,54.179,161.296,54.841,161.113,55.618z"/>
				<path fill="#FF5E79" d="M159.979,55.737c0,0-0.979-0.133-2.105-0.453c-0.628-0.18-1.313-0.4-1.877-0.727
					c-0.913-0.525-1.656-1.188-1.414-2.008c0,0,0.133-0.341,0.496-0.473c0.158-0.059,0.44-0.166,0.918-0.031
					c0.668,0.19,1.504,0.614,2.746,2.02C159.137,54.513,159.541,55.071,159.979,55.737z"/>
				<path fill="#FF5E79" d="M160.895,56.927c0,0-0.233,0.959-0.344,2.127c-0.062,0.65-0.106,1.367-0.01,2.013
					c0.158,1.041,0.503,1.974,1.354,2.049c0,0,0.367-0.001,0.622-0.29c0.111-0.127,0.317-0.352,0.364-0.845
					c0.066-0.691-0.024-1.623-0.882-3.291C161.728,58.159,161.355,57.578,160.895,56.927z"/>
				<path fill="#FF5E79" d="M160.264,56.819c0,0-0.146,0.977-0.481,2.1c-0.186,0.625-0.415,1.309-0.747,1.868
					c-0.537,0.907-1.208,1.642-2.024,1.392c0,0-0.34-0.14-0.467-0.504c-0.055-0.158-0.162-0.443-0.021-0.919
					c0.199-0.665,0.632-1.495,2.053-2.72C159.027,57.647,159.591,57.25,160.264,56.819z"/>
				<path fill="#FF5E79" d="M159.881,56.282c0,0-0.752,0.642-1.743,1.268c-0.552,0.347-1.174,0.711-1.792,0.914
					c-1,0.33-1.989,0.442-2.439-0.285c0,0-0.166-0.327-0.021-0.686c0.063-0.154,0.17-0.439,0.589-0.705
					c0.587-0.371,1.46-0.71,3.335-0.697C158.404,56.094,159.091,56.165,159.881,56.282z"/>
			</g>
		</g>
	</g>
	<g>
		<g>
			<path fill="#3EBDD4" d="M247.01,91.208c-0.619-0.136-1.203-0.416-1.77-0.78c0-0.003,0-0.005,0-0.005
				c-0.005-0.004-0.01-0.006-0.016-0.01v0.003c0.006,0.003,0.008,0.007,0.016,0.012c-0.079,0.302-0.178,0.593-0.293,0.869
				c-0.132,0.318-0.286,0.614-0.47,0.872c-0.936,1.313-2.766,1.63-4.053,0.744c-0.146-0.115-0.291-0.238-0.429-0.365
				c-0.101-0.089-0.195-0.179-0.288-0.276c-0.138-0.142-0.269-0.292-0.394-0.448c-0.03-0.035-0.056-0.072-0.084-0.107
				c-0.056-0.076-0.113-0.149-0.17-0.228c-0.404,0.552-0.864,1.011-1.377,1.338c-1.352,0.858-3.146,0.462-4.006-0.889
				c-0.364-0.519-0.591-1.132-0.721-1.798c-0.133,0.076-0.264,0.152-0.397,0.221c-0.169,0.086-0.339,0.162-0.516,0.229
				c-0.103,0.043-0.208,0.074-0.311,0.107c-0.191,0.061-0.385,0.118-0.582,0.159c-1.572,0.251-3.063-0.801-3.353-2.382
				c-0.108-0.581-0.08-1.244,0.021-1.895c-0.648,0.086-1.276,0.093-1.875-0.04c-1.563-0.347-2.536-1.925-2.188-3.489
				c0.057-0.248,0.138-0.49,0.234-0.729c0.059-0.152,0.131-0.301,0.205-0.447c0.048-0.094,0.097-0.186,0.149-0.278
				c0.055-0.098,0.098-0.201,0.16-0.302c-0.428-0.119-0.826-0.274-1.202-0.468c-0.188-0.096-0.371-0.198-0.543-0.317
				c-1.318-0.934-1.64-2.727-0.747-4.051c0.121-0.155,0.247-0.303,0.382-0.445c0.079-0.089,0.162-0.176,0.25-0.262
				c0.124-0.117,0.254-0.231,0.393-0.342c0.121-0.098,0.254-0.191,0.387-0.281c-0.549-0.4-1.004-0.862-1.323-1.41
				c-0.861-1.354-0.465-3.145,0.888-4.008c0.51-0.326,1.12-0.551,1.789-0.684c-0.34-0.58-0.603-1.176-0.718-1.803
				c-0.251-1.576,0.811-3.104,2.396-3.391c0.614-0.107,1.254-0.073,1.907,0.044c-0.083-0.692-0.063-1.323,0.071-1.927
				c0.345-1.565,1.885-2.544,3.449-2.197c0.571,0.126,1.155,0.375,1.718,0.74c0.122-0.444,0.287-0.861,0.493-1.249
				c0.089-0.171,0.183-0.341,0.296-0.499c0.93-1.314,2.721-1.637,4.036-0.705c0.522,0.355,0.981,0.817,1.338,1.377
				c0.44-0.541,0.857-0.971,1.416-1.33c1.353-0.859,3.143-0.46,4.006,0.891c0.318,0.552,0.552,1.123,0.685,1.793
				c0.596-0.347,1.207-0.572,1.829-0.676c1.547-0.295,3.078,0.76,3.364,2.348c0.047,0.274,0.063,0.554,0.061,0.837
				c-0.004,0.036,0.001,0.073,0.001,0.112c-0.011,0.313-0.049,0.635-0.105,0.955c0.692-0.082,1.32-0.061,1.927,0.074
				c1.565,0.346,2.548,1.887,2.197,3.451c-0.132,0.605-0.382,1.183-0.747,1.777c0.641,0.169,1.235,0.408,1.745,0.766
				c1.313,0.933,1.628,2.762,0.697,4.076c-0.126,0.178-0.271,0.346-0.43,0.514c-0.043,0.048-0.084,0.095-0.132,0.141
				c-0.163,0.162-0.346,0.322-0.538,0.473c-0.011,0.009-0.025,0.02-0.038,0.027c-0.077,0.061-0.154,0.125-0.239,0.185
				c0.551,0.4,1.012,0.862,1.337,1.374c0.862,1.354,0.463,3.146-0.892,4.006c-0.521,0.367-1.128,0.592-1.802,0.723
				c0.359,0.563,0.585,1.172,0.685,1.793c0.291,1.588-0.761,3.075-2.346,3.365c-0.202,0.035-0.412,0.05-0.622,0.058
				c-0.425,0.017-0.854-0.012-1.293-0.083c0.019,0.146,0.014,0.285,0.024,0.428c0,0.043,0.002,0.081,0.005,0.121
				c0.009,0.207,0.013,0.416,0,0.617c-0.013,0.251-0.04,0.499-0.093,0.742C250.123,90.536,248.576,91.556,247.01,91.208z"/>
			<path fill-rule="evenodd" clip-rule="evenodd" fill="#BED630" d="M228.804,84.198c0.448,0.102,0.958,0.086,1.482,0.012
				c-0.087,0.518-0.107,1.051-0.021,1.512c0.227,1.248,1.399,2.079,2.644,1.879c0.499-0.109,0.98-0.286,1.421-0.568
				c0.102,0.529,0.28,1.01,0.568,1.422c0.683,1.064,2.093,1.381,3.161,0.699c0.404-0.258,0.766-0.617,1.083-1.053
				c0.312,0.447,0.675,0.811,1.079,1.122c1.017,0.7,2.456,0.45,3.194-0.587c0.272-0.382,0.476-0.873,0.589-1.385
				c0.47,0.297,0.927,0.521,1.406,0.629c1.234,0.275,2.455-0.527,2.728-1.762c0.108-0.483,0.121-0.984,0.05-1.506
				c0.517,0.082,1.019,0.099,1.511,0.02c1.251-0.228,2.076-1.4,1.853-2.652c-0.085-0.489-0.262-0.973-0.541-1.414
				c0.528-0.102,1.009-0.28,1.424-0.568c1.062-0.678,1.377-2.093,0.697-3.16c-0.259-0.402-0.619-0.767-1.053-1.086
				c0.448-0.309,0.811-0.671,1.086-1.053c0.733-1.037,0.484-2.477-0.552-3.213c-0.408-0.282-0.874-0.479-1.384-0.592
				c0.296-0.473,0.492-0.934,0.599-1.414c0.274-1.234-0.501-2.447-1.734-2.723c-0.48-0.105-0.982-0.121-1.536-0.054
				c0.113-0.514,0.133-1.015,0.052-1.507c-0.229-1.249-1.431-2.084-2.65-1.85c-0.495,0.08-0.976,0.258-1.447,0.533
				c-0.1-0.529-0.287-0.979-0.538-1.414c-0.677-1.064-2.092-1.381-3.157-0.699c-0.443,0.28-0.77,0.617-1.115,1.046
				c-0.283-0.44-0.644-0.804-1.053-1.087c-1.041-0.734-2.452-0.479-3.188,0.557c-0.278,0.413-0.479,0.873-0.62,1.379
				c-0.439-0.288-0.902-0.483-1.354-0.584c-1.232-0.274-2.444,0.498-2.72,1.73c-0.107,0.483-0.124,0.982-0.057,1.536
				c-0.509-0.114-1.015-0.128-1.504-0.052c-1.251,0.229-2.086,1.434-1.884,2.676c0.113,0.469,0.291,0.951,0.566,1.422
				c-0.533,0.104-1.009,0.28-1.413,0.538c-1.068,0.679-1.38,2.095-0.7,3.16c0.25,0.433,0.608,0.801,1.045,1.116
				c-0.44,0.28-0.803,0.643-1.117,1.047c-0.702,1.042-0.447,2.457,0.587,3.191c0.412,0.281,0.875,0.477,1.38,0.621
				c-0.287,0.438-0.484,0.903-0.592,1.384C226.802,82.681,227.571,83.927,228.804,84.198z"/>
			<path fill-rule="evenodd" clip-rule="evenodd" fill="#FFFFFF" d="M231.541,81.956c0.333,0.074,0.709,0.064,1.101,0.01
				c-0.062,0.384-0.08,0.779-0.016,1.121c0.171,0.928,1.041,1.546,1.967,1.398c0.369-0.084,0.726-0.216,1.055-0.424
				c0.077,0.393,0.207,0.752,0.425,1.055c0.502,0.791,1.551,1.026,2.343,0.521c0.302-0.19,0.573-0.459,0.809-0.782
				c0.23,0.333,0.498,0.602,0.8,0.834c0.753,0.521,1.826,0.336,2.373-0.436c0.2-0.285,0.355-0.648,0.438-1.029
				c0.353,0.22,0.689,0.386,1.048,0.467c0.916,0.203,1.824-0.394,2.025-1.309c0.08-0.359,0.09-0.732,0.037-1.118
				c0.382,0.061,0.758,0.074,1.122,0.014c0.93-0.168,1.543-1.04,1.376-1.972c-0.064-0.361-0.191-0.723-0.404-1.049
				c0.394-0.076,0.752-0.21,1.058-0.422c0.79-0.506,1.027-1.557,0.521-2.347c-0.192-0.301-0.458-0.571-0.783-0.808
				c0.332-0.232,0.603-0.5,0.806-0.783c0.548-0.771,0.362-1.844-0.406-2.391c-0.307-0.209-0.651-0.354-1.029-0.437
				c0.218-0.352,0.365-0.693,0.443-1.05c0.201-0.919-0.369-1.818-1.288-2.023c-0.354-0.079-0.73-0.091-1.139-0.041
				c0.082-0.381,0.097-0.753,0.035-1.118c-0.168-0.929-1.066-1.548-1.968-1.374c-0.367,0.061-0.725,0.192-1.075,0.395
				c-0.077-0.391-0.213-0.726-0.4-1.049c-0.504-0.793-1.556-1.027-2.346-0.521c-0.327,0.209-0.571,0.46-0.83,0.778
				c-0.207-0.329-0.478-0.599-0.781-0.808c-0.771-0.545-1.822-0.356-2.367,0.414c-0.209,0.307-0.355,0.648-0.464,1.024
				c-0.325-0.216-0.668-0.36-1.005-0.436c-0.916-0.204-1.816,0.372-2.02,1.288c-0.081,0.357-0.094,0.729-0.041,1.141
				c-0.381-0.086-0.757-0.096-1.119-0.037c-0.932,0.168-1.55,1.063-1.4,1.986c0.087,0.35,0.218,0.707,0.422,1.055
				c-0.396,0.078-0.749,0.211-1.05,0.403c-0.793,0.505-1.024,1.553-0.521,2.346c0.186,0.323,0.451,0.596,0.776,0.831
				c-0.327,0.208-0.596,0.475-0.83,0.775c-0.522,0.775-0.333,1.828,0.438,2.373c0.305,0.207,0.651,0.354,1.021,0.46
				c-0.213,0.327-0.357,0.673-0.438,1.028C230.055,80.829,230.622,81.753,231.541,81.956z"/>
		</g>
		<g>
			<g>
				<path fill="#FF5E79" d="M239.722,74.528c0,0,0.263-0.955,0.408-2.115c0.081-0.649,0.148-1.366,0.071-2.013
					c-0.128-1.046-0.444-1.989-1.294-2.089c0,0-0.366-0.011-0.629,0.271c-0.116,0.123-0.328,0.342-0.39,0.832
					c-0.088,0.689-0.024,1.624,0.78,3.317C238.927,73.271,239.28,73.86,239.722,74.528z"/>
				<path fill="#FF5E79" d="M240.669,75.657c0,0,0.972,0.191,2.075,0.58c0.617,0.217,1.286,0.479,1.832,0.837
					c0.879,0.579,1.58,1.286,1.29,2.089c0,0-0.154,0.334-0.522,0.442c-0.161,0.048-0.451,0.14-0.919-0.023
					c-0.656-0.229-1.464-0.704-2.619-2.182C241.438,76.932,241.069,76.35,240.669,75.657z"/>
				<path fill="#FF5E79" d="M240.685,75.146c0,0,0.96,0.238,2.126,0.357c0.651,0.064,1.368,0.113,2.013,0.02
					c1.043-0.15,1.979-0.49,2.058-1.342c0,0,0.002-0.367-0.286-0.624c-0.127-0.11-0.348-0.317-0.842-0.37
					c-0.692-0.069-1.624,0.016-3.298,0.862C241.924,74.319,241.341,74.688,240.685,75.146z"/>
				<path fill="#FF5E79" d="M240.344,74.629c0,0,0.874-0.462,1.821-1.153c0.528-0.385,1.094-0.827,1.513-1.328
					c0.675-0.807,1.146-1.684,0.634-2.371c0,0-0.239-0.274-0.628-0.272c-0.166,0-0.472-0.007-0.873,0.287
					c-0.561,0.407-1.199,1.095-1.881,2.841C240.713,73.188,240.527,73.851,240.344,74.629z"/>
				<path fill="#FF5E79" d="M239.21,74.748c0,0-0.979-0.134-2.105-0.455c-0.628-0.18-1.313-0.399-1.878-0.726
					c-0.912-0.525-1.656-1.188-1.414-2.008c0,0,0.134-0.34,0.497-0.473c0.157-0.057,0.439-0.166,0.919-0.031
					c0.666,0.189,1.503,0.613,2.743,2.02C238.368,73.522,238.771,74.081,239.21,74.748z"/>
				<path fill="#FF5E79" d="M240.126,75.937c0,0-0.234,0.96-0.345,2.127c-0.062,0.65-0.106,1.367-0.009,2.012
					c0.158,1.042,0.503,1.975,1.354,2.05c0,0,0.367-0.001,0.622-0.29c0.113-0.126,0.316-0.352,0.364-0.844
					c0.066-0.692-0.024-1.625-0.881-3.293C240.959,77.168,240.587,76.589,240.126,75.937z"/>
				<path fill="#FF5E79" d="M239.496,75.829c0,0-0.147,0.977-0.481,2.1c-0.187,0.625-0.415,1.309-0.747,1.869
					c-0.538,0.906-1.209,1.641-2.026,1.391c0,0-0.339-0.139-0.466-0.504c-0.056-0.158-0.164-0.443-0.021-0.919
					c0.199-0.665,0.632-1.495,2.053-2.72C238.26,76.657,238.821,76.26,239.496,75.829z"/>
				<path fill="#FF5E79" d="M239.112,75.291c0,0-0.753,0.643-1.742,1.267c-0.554,0.349-1.176,0.713-1.793,0.916
					c-1,0.33-1.991,0.442-2.44-0.285c0,0-0.166-0.327-0.021-0.686c0.064-0.154,0.17-0.44,0.589-0.705
					c0.589-0.372,1.46-0.71,3.336-0.697C237.635,75.104,238.322,75.175,239.112,75.291z"/>
			</g>
		</g>
	</g>
	<g>
		<g>
			<path fill="#95AF2E" d="M290.423,126.458c0,0-3.391-4.093,2.271-11.115c5.654-7.028,15.492-2.04,18.452-2.275
				c2.956-0.234,4.069-1.047,4.069-1.047s-4.324,0.762-6.901,4.729c-2.576,3.965-5.014,10.039-9.322,11.602
				c-4.303,1.561-7.234-1.885-7.234-1.885s3.876,0.393,6.53-3.521c2.655-3.914,6.733-5.964,6.733-5.964s-7.836,2.301-10.945,5.573
				C290.962,125.821,290.423,126.458,290.423,126.458z"/>
			<path fill="#95AF2E" d="M294.691,133.886c0,0,0.409-4.888,8.69-5.858c8.284-0.976,11.54,8.678,13.646,10.439
				c2.103,1.759,3.36,1.942,3.36,1.942s-3.348-2.295-7.612-1.348c-4.263,0.944-9.801,3.377-13.649,1.622
				c-3.853-1.758-3.557-5.927-3.557-5.927s2.305,2.771,6.586,1.906c4.283-0.865,8.304,0.419,8.304,0.419s-6.661-3.547-10.827-3.405
				C295.465,133.817,294.691,133.886,294.691,133.886z"/>
			<path fill="#95AF2E" d="M290.819,135.851c0,0-4.907-0.036-6.633,8.121c-1.721,8.16,7.594,12.285,9.159,14.541
				c1.559,2.252,1.626,3.521,1.626,3.521s-1.984-3.54-0.649-7.698c1.332-4.164,4.256-9.457,2.86-13.454
				c-1.402-3.994-5.58-4.08-5.58-4.08s2.547,2.551,1.295,6.736c-1.251,4.184-0.333,8.302-0.333,8.302s-2.929-6.952-2.405-11.089
				C290.679,136.616,290.819,135.851,290.819,135.851z"/>
			<path fill="#95AF2E" d="M292.744,130.188c0.644,1.734-0.236,3.664-1.97,4.311c-1.737,0.646-3.668-0.238-4.312-1.973
				c-0.648-1.736,0.237-3.666,1.972-4.311C290.172,127.57,292.099,128.453,292.744,130.188z"/>
		</g>
	</g>
	<g>
		<g>
			<path fill="#95AF2E" d="M179.994,160.909c0,0,0.258-7.846,13.396-10.074c13.142-2.234,19.137,12.914,22.642,15.553
				c3.5,2.635,5.526,2.826,5.526,2.826s-5.53-3.393-12.266-1.527c-6.729,1.863-15.372,6.199-21.67,3.707
				c-6.291-2.488-6.16-9.17-6.16-9.17s3.906,4.23,10.676,2.5c6.769-1.731,13.286-0.004,13.286-0.004s-10.922-5.129-17.564-4.554
				C181.217,160.733,179.994,160.909,179.994,160.909z"/>
			<path fill="#95AF2E" d="M177.445,173.306c0,0,5.239-5.005,15.352,2.028c10.117,7.031,4.269,20.9,4.871,24.909
				c0.604,4.005,1.82,5.439,1.82,5.439s-1.458-5.816-7.104-8.942c-5.645-3.132-14.151-5.862-16.69-11.571
				c-2.539-5.719,1.869-10.041,1.869-10.041s-0.164,5.323,5.421,8.559c5.583,3.235,8.772,8.594,8.772,8.594
				s-3.895-10.445-8.641-14.367C178.368,173.987,177.445,173.306,177.445,173.306z"/>
			<path fill="#95AF2E" d="M171.236,171.687c0,0-5.394-4.844-15.288,2.492c-9.896,7.342-3.627,21.026-4.105,25.053
				c-0.482,4.018-1.649,5.488-1.649,5.488s1.271-5.857,6.821-9.152c5.55-3.302,13.967-6.294,16.335-12.083
				c2.359-5.791-2.176-9.976-2.176-9.976s0.319,5.314-5.164,8.719c-5.48,3.404-8.498,8.857-8.498,8.857s3.568-10.558,8.196-14.622
				C170.331,172.397,171.236,171.687,171.236,171.687z"/>
			<path fill="#95AF2E" d="M178.911,167.31c-0.985,2.55-3.85,3.822-6.399,2.84c-2.556-0.987-3.823-3.854-2.84-6.403
				c0.983-2.557,3.854-3.823,6.405-2.839C178.628,161.894,179.895,164.756,178.911,167.31z"/>
		</g>
	</g>
	<path fill="#95AF2E" d="M314.699,59.04c-0.204,0.181-0.034,13.537,3.296,24.83c3.326,11.295,13.889,19.426,22.374,21.246
		c8.487,1.819,18.921,0.365,22.153-9.271c4.123-12.307-7.662-18.9-10.527-19.674c-3.812-1.027-12.367-2.201-14.817,6.207
		c-0.018,0.064-0.041,0.17-0.069,0.269c0,0-0.888,5.756,2.103,9.556c2.991,3.801,7.624,4.424,9.462,2.87
		c1.838-1.551,1.478-4.01,0.276-4.808c-1.203-0.797-3.298-1.205-4.006,1.123c-0.708,2.33,2.144,2.549,2.144,2.549
		s-1.905-0.514-1.188-2.291c0.713-1.773,3.114-1.914,3.216,0.632c0.098,2.549-3.512,3.384-6.698,1.183
		c-3.187-2.197-3.801-8.048-1.927-11.742c1.285-2.537,6.122-7.504,13.141-4.035c7.015,3.473,8.517,10.951,5.838,17.077
		c-2.68,6.13-9.275,10.726-18.764,8.241c-9.49-2.483-14.225-8.567-16.84-12.582c-2.617-4.016-5.885-12.615-6.999-18.113
		C315.752,66.806,314.699,59.04,314.699,59.04z"/>
</g>
</svg>
