<?xml version="1.0" encoding="utf-8"?>
<!-- Generator: Adobe Illustrator 13.0.0, SVG Export Plug-In . SVG Version: 6.00 Build 14948)  -->
<!DOCTYPE svg PUBLIC "-//W3C//DTD SVG 1.1//EN" "http://www.w3.org/Graphics/SVG/1.1/DTD/svg11.dtd">
<svg version="1.1" id="Layer_1" xmlns="http://www.w3.org/2000/svg" xmlns:xlink="http://www.w3.org/1999/xlink" x="0px" y="0px"
	 width="372.328px" height="205.684px" viewBox="0 0 372.328 205.684" enable-background="new 0 0 372.328 205.684"
	 xml:space="preserve">
<g>
	<path fill="#95AF2E" d="M171.338,101.597c0,0,1.544-4.128-3.021-5.853c0,0-3.912-1.563-7.769,0.574
		c0.91,0.582,2.15,2.127,2.793,3.418C164.014,101.024,166.81,104.956,171.338,101.597z"/>
	<path fill="#95AF2E" d="M171.11,101.306c0,0,3.457,3.366,4.306,5.538"/>
</g>
<path fill="#95AF2E" d="M173.821,92.802c0,0,3.276-4.384-1.563-8.031c0,0-4.121-3.228-9.467-2.024
	c0.883,1.013,1.823,3.288,2.142,5.048C165.283,89.569,167.248,95.231,173.821,92.802z"/>
<path fill="#95AF2E" d="M173.647,92.379c0,0,3.683,7.193,4.284,11.01"/>
<path fill="#95AF2E" d="M196.742,88.973c0,0-0.107-5.474,5.952-5.618c0,0,5.229-0.224,8.87,3.871
	c-1.303,0.309-3.396,1.608-4.68,2.854C205.566,91.317,200.667,94.775,196.742,88.973z"/>
<path fill="#95AF2E" d="M197.132,88.729c0,0-7.991,4.696-11.146,7.972"/>
<path fill="#95AF2E" d="M245.88,41.373c0,0,3.441-0.817,2.55-4.63c0,0-0.712-3.307-3.862-4.916c0.02,0.865-0.453,2.383-1.023,3.389
	C242.983,36.242,241.619,39.864,245.88,41.373z"/>
<path fill="#95AF2E" d="M245.972,41.093c0,0-0.695,3.81-1.764,5.347"/>
<path fill="#95AF2E" d="M252.849,39.094c0,0,4.389,0.222,4.65-4.636c0,0,0.307-4.189-2.885-7.212
	c-0.281,1.042-1.377,2.688-2.406,3.687C251.184,31.961,248.289,35.802,252.849,39.094z"/>
<path fill="#95AF2E" d="M253.055,38.79c0,0-3.212,5.766-5.519,7.916"/>
<path fill="#95AF2E" d="M185.91,124.42c0,0,4.548-9.338,14.904-4.339c0,0,9.023,4.148,11.637,14.203
	c-2.473-0.604-7.129-0.215-10.373,0.779C198.781,136.01,187.524,137.613,185.91,124.42z"/>
<path fill="#95AF2E" d="M186.779,124.344c0,0-15.862-0.063-23.066,3.063"/>
<g>
	<path fill="#95AF2E" d="M173.76,132.843c0,0,5.796-5.087,11.451,1.312c0,0,4.986,5.435,3.885,13.068
		c-1.519-1.126-4.818-2.198-7.325-2.449C179.242,144.476,171.074,142.337,173.76,132.843z"/>
	<path fill="#95AF2E" d="M174.376,133.039c0,0-7.655-3.566-11.733-3.605"/>
</g>
<path fill="#95AF2E" d="M193.302,60.915c0,0,3.451-3.438-0.348-7.271c0,0-3.213-3.368-8.072-2.994
	c0.646,1.003,1.185,3.128,1.236,4.717C186.2,56.973,187.207,62.212,193.302,60.915z"/>
<path fill="#95AF2E" d="M193.205,60.522c0,0,2.584,8.043,2.75,12.063"/>
<path fill="#95AF2E" d="M191.755,67.445c0,0,1.908-2.727-1.102-4.848c0,0-2.564-1.881-5.788-1.051
	c0.555,0.601,1.172,1.963,1.396,3.024C186.51,65.645,187.812,69.045,191.755,67.445z"/>
<path fill="#95AF2E" d="M191.643,67.19c0,0,2.692,4.43,3.253,6.751"/>
<g>
	<path fill="#95AF2E" d="M197.112,62.989c0,0-1.67-2.618,1.226-4.474c0,0,2.469-1.647,5.438-0.743
		c-0.541,0.538-1.17,1.78-1.425,2.764C202.074,61.524,200.723,64.642,197.112,62.989z"/>
	<path fill="#95AF2E" d="M197.228,62.757c0,0-1.893,2.825-2.154,4.447"/>
</g>
<g>
	<path fill="#95AF2E" d="M220.278,45.118c0,0-1.669-2.617,1.226-4.474c0,0,2.468-1.649,5.438-0.742
		c-0.542,0.536-1.171,1.782-1.426,2.763C225.24,43.653,223.888,46.771,220.278,45.118z"/>
	<path fill="#95AF2E" d="M220.393,44.887c0,0-1.892,2.824-2.155,4.442"/>
</g>
<path fill="#95AF2E" d="M212.759,52.183c0,0,2.154-1.493,0.507-3.888c0,0-1.386-2.091-3.991-2.354
	c0.246,0.592,0.329,1.77,0.205,2.617C209.373,49.416,209.403,52.289,212.759,52.183z"/>
<path fill="#95AF2E" d="M212.744,51.964c0,0,0.924,4.239,0.479,6.248"/>
<g>
	<path fill="#95AF2E" d="M235.605,43.871c0,0,2.152-1.493,0.508-3.888c0,0-1.385-2.09-3.994-2.354
		c0.248,0.594,0.332,1.771,0.209,2.618C232.216,41.104,232.25,43.976,235.605,43.871z"/>
	<path fill="#95AF2E" d="M235.589,43.651c0,0,0.551,2.818,0.227,4.168"/>
</g>
<circle fill="#95AF2E" cx="237.576" cy="69.449" r="1.436"/>
<path fill="#95AF2E" d="M264.083,55.308c-0.369,0.698-1.237,0.969-1.938,0.598c-0.697-0.369-0.971-1.238-0.602-1.938
	c0.371-0.7,1.24-0.97,1.941-0.601C264.188,53.735,264.455,54.604,264.083,55.308z"/>
<circle fill="#95AF2E" cx="243.246" cy="61.253" r="1.436"/>
<path fill="#95AF2E" d="M228.029,70.328c-0.367,0.7-1.234,0.968-1.938,0.598c-0.7-0.368-0.969-1.236-0.598-1.938
	c0.369-0.703,1.239-0.97,1.938-0.6C228.132,68.757,228.402,69.626,228.029,70.328z"/>
<circle fill="#95AF2E" cx="223.716" cy="78.503" r="0.76"/>
<path fill="#95AF2E" d="M229.33,74.582c-0.195,0.37-0.656,0.512-1.023,0.315c-0.372-0.195-0.514-0.654-0.319-1.023
	c0.197-0.371,0.655-0.514,1.026-0.316C229.382,73.752,229.522,74.211,229.33,74.582z"/>
<path fill="#95AF2E" d="M248.015,66.839c-0.194,0.369-0.653,0.513-1.023,0.316c-0.367-0.196-0.513-0.656-0.316-1.025
	c0.195-0.37,0.654-0.512,1.023-0.315C248.07,66.01,248.21,66.468,248.015,66.839z"/>
<circle fill="#95AF2E" cx="250.791" cy="53.112" r="0.758"/>
<circle fill="#95AF2E" cx="249.052" cy="55.976" r="0.759"/>
<circle fill="#95AF2E" cx="197.957" cy="81.933" r="1.436"/>
<path fill="#95AF2E" d="M226.63,82.981c-0.369,0.699-1.237,0.967-1.938,0.598c-0.701-0.371-0.973-1.24-0.604-1.938
	c0.371-0.702,1.242-0.971,1.941-0.601C226.733,81.411,227.001,82.28,226.63,82.981z"/>
<path fill="#95AF2E" d="M224.466,67.792c-0.369,0.701-1.237,0.967-1.94,0.599c-0.698-0.369-0.967-1.236-0.597-1.938
	c0.367-0.703,1.238-0.97,1.938-0.602C224.567,66.222,224.837,67.09,224.466,67.792z"/>
<circle fill="#95AF2E" cx="204.212" cy="96.924" r="1.436"/>
<circle fill="#95AF2E" cx="197.957" cy="81.933" r="1.436"/>
<circle fill="#95AF2E" cx="208.314" cy="102.153" r="0.757"/>
<path fill="#95AF2E" d="M212.431,89.135c-0.196,0.369-0.655,0.513-1.025,0.316c-0.369-0.196-0.513-0.656-0.316-1.022
	c0.195-0.373,0.654-0.514,1.023-0.318C212.483,88.306,212.625,88.765,212.431,89.135z"/>
<path fill="#95AF2E" d="M228.389,90.921c-0.194,0.369-0.655,0.513-1.026,0.316c-0.369-0.195-0.51-0.656-0.316-1.023
	c0.197-0.373,0.656-0.516,1.027-0.318C228.442,90.091,228.585,90.55,228.389,90.921z"/>
<circle fill="#95AF2E" cx="214.234" cy="79.465" r="1.436"/>
<circle fill="#95AF2E" cx="293.582" cy="105.878" r="0.758"/>
<circle fill="#95AF2E" cx="298.523" cy="101.602" r="0.759"/>
<path fill="#95AF2E" d="M285.367,107.513c-0.369,0.698-1.236,0.967-1.938,0.595c-0.7-0.368-0.972-1.238-0.599-1.938
	c0.369-0.704,1.238-0.97,1.937-0.6C285.47,105.941,285.74,106.81,285.367,107.513z"/>
<circle fill="#95AF2E" cx="186.389" cy="24.92" r="0.76"/>
<circle fill="#95AF2E" cx="191.333" cy="20.645" r="0.758"/>
<circle fill="#95AF2E" cx="188.035" cy="28.727" r="1.437"/>
<circle fill="#95AF2E" cx="176.906" cy="25.883" r="1.437"/>
<circle fill="#95AF2E" cx="180.162" cy="75.333" r="0.759"/>
<circle fill="#95AF2E" cx="185.105" cy="71.059" r="0.758"/>
<path fill="#95AF2E" d="M183.078,79.813c-0.37,0.697-1.238,0.966-1.938,0.596c-0.702-0.371-0.972-1.24-0.602-1.938
	c0.37-0.703,1.239-0.972,1.94-0.601C183.18,78.243,183.448,79.11,183.078,79.813z"/>
<circle fill="#95AF2E" cx="170.681" cy="76.296" r="1.436"/>
<circle fill="#95AF2E" cx="207.884" cy="30.165" r="1.436"/>
<path fill="#95AF2E" d="M205.509,39.363c-0.195,0.371-0.655,0.511-1.025,0.316c-0.369-0.196-0.513-0.654-0.316-1.024
	c0.193-0.371,0.654-0.512,1.023-0.316C205.559,38.534,205.705,38.993,205.509,39.363z"/>
<circle fill="#95AF2E" cx="209.781" cy="34.734" r="0.759"/>
<circle fill="#95AF2E" cx="206.485" cy="42.818" r="1.436"/>
<circle fill="#95AF2E" cx="204.321" cy="27.628" r="1.436"/>
<path fill="#95AF2E" d="M196.628,40.642c-0.373,0.699-1.241,0.969-1.942,0.599c-0.698-0.37-0.968-1.239-0.599-1.938
	c0.371-0.703,1.238-0.969,1.938-0.599C196.728,39.073,196.998,39.94,196.628,40.642z"/>
<circle fill="#95AF2E" cx="256.57" cy="90.308" r="1.436"/>
<path fill="#95AF2E" d="M247.026,91.187c-0.37,0.701-1.239,0.969-1.94,0.599c-0.697-0.37-0.967-1.238-0.6-1.938
	c0.37-0.701,1.24-0.971,1.941-0.602C247.126,89.616,247.397,90.485,247.026,91.187z"/>
<circle fill="#95AF2E" cx="242.708" cy="99.361" r="0.76"/>
<circle fill="#95AF2E" cx="247.653" cy="95.086" r="0.759"/>
<circle fill="#95AF2E" cx="242.193" cy="87.981" r="1.435"/>
<path fill="#95AF2E" d="M234.498,100.995c-0.369,0.699-1.238,0.969-1.94,0.598c-0.699-0.37-0.968-1.238-0.601-1.938
	c0.373-0.703,1.24-0.969,1.94-0.6C234.601,99.425,234.871,100.292,234.498,100.995z"/>
<circle fill="#95AF2E" cx="275.744" cy="3.763" r="1.437"/>
<path fill="#95AF2E" d="M266.199,4.642c-0.371,0.7-1.238,0.971-1.939,0.6c-0.7-0.371-0.971-1.238-0.6-1.941
	c0.369-0.697,1.239-0.968,1.939-0.6C266.3,3.071,266.569,3.941,266.199,4.642z"/>
<path fill="#95AF2E" d="M262.554,13.173c-0.196,0.369-0.656,0.511-1.026,0.314s-0.512-0.654-0.315-1.023
	c0.195-0.373,0.654-0.512,1.023-0.316C262.606,12.341,262.75,12.801,262.554,13.173z"/>
<circle fill="#95AF2E" cx="266.826" cy="8.542" r="0.758"/>
<circle fill="#95AF2E" cx="263.528" cy="16.625" r="1.437"/>
<circle fill="#95AF2E" cx="261.365" cy="1.437" r="1.435"/>
<path fill="#95AF2E" d="M253.669,14.45c-0.371,0.7-1.237,0.968-1.939,0.598c-0.697-0.371-0.971-1.238-0.602-1.938
	c0.373-0.703,1.242-0.971,1.941-0.602C253.771,12.882,254.041,13.749,253.669,14.45z"/>
<circle fill="#95AF2E" cx="216.589" cy="87.72" r="0.758"/>
<path fill="#95AF2E" d="M178.144,107.945c-0.372,0.703-1.24,0.97-1.94,0.599c-0.702-0.369-0.971-1.235-0.601-1.938
	c0.371-0.703,1.24-0.97,1.939-0.601C178.245,106.377,178.512,107.245,178.144,107.945z"/>
<path fill="#95AF2E" d="M205.548,108.323c-0.37,0.7-1.238,0.969-1.939,0.599c-0.699-0.37-0.969-1.238-0.602-1.938
	c0.373-0.704,1.24-0.971,1.941-0.603C205.65,106.753,205.919,107.621,205.548,108.323z"/>
<path fill="#95AF2E" d="M203.384,93.135c-0.37,0.7-1.238,0.968-1.939,0.599c-0.699-0.369-0.97-1.238-0.6-1.938
	c0.371-0.703,1.238-0.971,1.939-0.602C203.484,91.564,203.753,92.435,203.384,93.135z"/>
<circle fill="#95AF2E" cx="183.129" cy="122.267" r="1.436"/>
<path fill="#95AF2E" d="M178.144,107.945c-0.372,0.703-1.24,0.97-1.94,0.599c-0.702-0.369-0.971-1.235-0.601-1.938
	c0.371-0.703,1.24-0.97,1.939-0.601C178.245,106.377,178.512,107.245,178.144,107.945z"/>
<circle fill="#95AF2E" cx="187.23" cy="127.495" r="0.757"/>
<circle fill="#95AF2E" cx="190.675" cy="114.125" r="0.759"/>
<circle fill="#95AF2E" cx="206.634" cy="115.909" r="0.759"/>
<path fill="#95AF2E" d="M194.419,105.479c-0.369,0.696-1.237,0.967-1.939,0.597c-0.699-0.369-0.967-1.239-0.6-1.938
	c0.371-0.701,1.24-0.97,1.938-0.601C194.521,103.908,194.791,104.776,194.419,105.479z"/>
<circle fill="#95AF2E" cx="195.507" cy="113.065" r="0.759"/>
<path fill="#95AF2E" d="M308.677,55.009c-0.193,0.369-0.65,0.513-1.02,0.316c-0.373-0.195-0.516-0.656-0.32-1.025
	c0.197-0.369,0.656-0.512,1.027-0.315C308.734,54.179,308.873,54.638,308.677,55.009z"/>
<circle fill="#95AF2E" cx="296.88" cy="51.808" r="0.759"/>
<circle fill="#95AF2E" cx="181.218" cy="150.911" r="1.435"/>
<circle fill="#95AF2E" cx="206.46" cy="136.098" r="1.435"/>
<circle fill="#95AF2E" cx="181.218" cy="150.911" r="1.435"/>
<circle fill="#95AF2E" cx="175.806" cy="134.745" r="1.435"/>
<circle fill="#95AF2E" cx="179.861" cy="145.101" r="0.759"/>
<circle fill="#95AF2E" cx="168.304" cy="111.89" r="1.435"/>
<circle fill="#95AF2E" cx="170.661" cy="120.146" r="0.759"/>
<circle fill="#95AF2E" cx="232.162" cy="53.283" r="1.436"/>
<circle fill="#95AF2E" cx="246.104" cy="78.265" r="2.384"/>
<circle fill="#95AF2E" cx="209.507" cy="72.313" r="2.384"/>
<circle fill="#95AF2E" cx="155.929" cy="77.162" r="2.384"/>
<circle fill="#95AF2E" cx="263.257" cy="30.483" r="2.383"/>
<circle fill="#95AF2E" cx="256.583" cy="124.243" r="2.384"/>
<path fill="#95AF2E" d="M2.612,109.075c0.16,1.167,33.459,39.121,56.016,45.167c11.583,3.349,37.173,11.409,63.169-0.035
	c20.446-10.167,35.97-15.838,50.374-42.814c14.403-26.978,25.063-44.376,35.759-51.349s32.057-22.262,84.921-8.737
	c17.146,4.848,33.299,11.161,33.299,11.161s-33.127-12.413-54.594-14.444c-21.467-2.029-45.355-0.904-58.869,12.104
	c-4.811,3.656-13.551,13.38-18.553,22.277c-4.998,8.897-11.866,22.167-19.601,33.329c-7.735,11.159-31.14,36.606-51.977,40.244
	c-6.012,1.505-31.244,10.433-57.413,1.21C49.838,152.146,29.792,146.08,0,114.023C1.159,111.825,2.612,109.075,2.612,109.075z"/>
<path fill="#95AF2E" d="M180.6,105.026c0.927-0.219,17.733-6.75,33.333-4.834c16.6,2.035,32.697,9.147,42.63,14.1
	c9.935,4.948,42.95,22.097,51.97,20.951c-4.037,0.376-19.652-2.202-45.998-16.324c-11.447-5.158-19.302-9.896-35.59-14.512
	c-12.813-2.672-34.908-5.086-51.38,8.031C176.714,107.844,180.6,105.026,180.6,105.026z"/>
<g>
	<g>
		<path fill="none" d="M308.951,100.625c0,0-22.668,5.743-39.797,1.567c-17.135-4.178-34.396-7.822-38.884-8.277
			c-4.483-0.453-35.289-4.174-54.108,14.967"/>
		<path fill="#95AF2E" d="M308.765,99.957c-10.428,2.605-21.521,3.643-32.229,2.75c-9.176-0.764-18.352-3.869-27.33-5.844
			c-6.022-1.325-12.086-2.718-18.201-3.553c-19.273-2.633-41.073,1.052-55.333,15.082c-0.638,0.628,0.343,1.606,0.98,0.979
			c15.339-15.092,38.931-17.616,59.274-13.838c14.957,2.778,29.916,8.231,45.158,8.838c9.293,0.369,19.019-0.822,28.049-3.079
			C310.001,101.077,309.634,99.74,308.765,99.957L308.765,99.957z"/>
	</g>
</g>
<g>
	<g>
		<path fill="none" d="M205.414,102.154c0,0,11.353,3.997,15.787,8.338c5.174,5.071,4.074,12.397-3.611,13.769
			c-4.801,0.689-13.533-2.479-11.051-10.384c0.969-2.464,2.629-4.44,5.504-2.898c2.633,1.415,3.354,4.021,2.193,5.691"/>
		<path fill="#95AF2E" d="M205.229,102.822c6.013,2.141,13.785,4.956,17.354,10.559c3.566,5.602-1.738,10.527-7.369,10.233
			c-1.975-0.104-3.879-0.896-5.532-1.921c-1.42-0.882-2.261-2.263-2.74-3.819c-0.045-0.589-0.089-1.178-0.134-1.767
			c0.229-4.576,2.507-4.505,6.83,0.213c-0.396,0.797,0.799,1.5,1.197,0.699c1.394-2.8-0.041-5.042-2.443-6.642
			c-2.956-1.967-5.327,0.656-6.452,3.148c-3.051,6.761,4.47,11.223,10.106,11.517c7.132,0.372,10.748-6.42,7.732-12.362
			c-3.076-6.065-12.193-9.063-18.182-11.195C204.753,101.186,204.393,102.525,205.229,102.822L205.229,102.822z"/>
	</g>
</g>
<g>
	<g>
		<path fill="none" d="M255.227,46.076c0,0,4.754-1.373,9.249-5.229c4.493-3.854,11.219-8.873,15.912-7.224
			c3.349,1.073,5.682,6.693-1.367,8.678c-3.548,0.974-7.164,0.37-6.299-3.688c0.652-2.707,2.543-2.325,3.912-1.32"/>
		<path fill="#95AF2E" d="M255.412,46.745c4.012-1.232,7.455-3.637,10.629-6.313c3.422-2.888,7.482-5.896,12.053-6.431
			c2.253-0.263,3.979,1.073,4.714,3.049c-0.242,2.645-1.565,4.173-3.972,4.584c-2.711,1.202-3.563-0.046-2.551-3.741
			c0.772,0.451,1.471-0.747,0.698-1.197c-3.573-2.089-7.401,2.712-4.292,5.385c3.419,2.938,10.362,0.858,11.549-3.504
			c1.131-4.157-4.32-6.602-7.559-5.793c-8.418,2.105-13.434,10.103-21.641,12.625C254.19,45.67,254.554,47.008,255.412,46.745
			L255.412,46.745z"/>
	</g>
</g>
<g>
	<path fill="#E48800" d="M299.966,76.161c-0.396-0.086-0.768-0.265-1.125-0.494c0-0.004,0-0.004,0-0.004
		c-0.004-0.004-0.006-0.004-0.012-0.006v0.001c0.004,0.003,0.008,0.005,0.012,0.009c-0.053,0.189-0.113,0.375-0.187,0.55
		c-0.085,0.203-0.183,0.391-0.3,0.555c-0.594,0.834-1.754,1.036-2.572,0.473c-0.093-0.073-0.185-0.15-0.271-0.229
		c-0.063-0.059-0.125-0.115-0.185-0.178c-0.086-0.09-0.17-0.185-0.248-0.286c-0.021-0.021-0.035-0.045-0.054-0.065
		c-0.036-0.048-0.071-0.096-0.108-0.146c-0.256,0.351-0.547,0.643-0.873,0.851c-0.855,0.545-1.998,0.292-2.545-0.564
		c-0.229-0.33-0.375-0.718-0.457-1.142c-0.086,0.05-0.168,0.097-0.25,0.14c-0.107,0.056-0.217,0.103-0.33,0.146
		c-0.063,0.024-0.131,0.047-0.194,0.067c-0.124,0.038-0.246,0.074-0.371,0.101c-0.999,0.161-1.944-0.507-2.129-1.511
		c-0.067-0.368-0.05-0.792,0.017-1.203c-0.412,0.054-0.812,0.06-1.191-0.025c-0.991-0.221-1.608-1.223-1.391-2.215
		c0.036-0.157,0.09-0.313,0.149-0.462c0.038-0.099,0.085-0.191,0.131-0.285c0.028-0.061,0.06-0.117,0.095-0.176
		c0.035-0.063,0.063-0.13,0.102-0.191c-0.271-0.075-0.524-0.174-0.762-0.298c-0.121-0.063-0.236-0.125-0.346-0.202
		c-0.839-0.592-1.042-1.729-0.474-2.57c0.073-0.098,0.153-0.19,0.239-0.282c0.052-0.057,0.104-0.111,0.16-0.164
		c0.078-0.076,0.162-0.149,0.248-0.219c0.08-0.063,0.162-0.121,0.248-0.18c-0.351-0.254-0.639-0.547-0.843-0.896
		c-0.545-0.858-0.293-1.996,0.565-2.543c0.32-0.207,0.711-0.352,1.134-0.435c-0.214-0.37-0.384-0.747-0.456-1.145
		c-0.159-1.001,0.516-1.972,1.521-2.153c0.392-0.068,0.795-0.046,1.209,0.028c-0.051-0.439-0.039-0.84,0.047-1.225
		c0.222-0.993,1.197-1.613,2.189-1.394c0.363,0.078,0.735,0.236,1.09,0.469c0.08-0.282,0.186-0.547,0.313-0.792
		c0.057-0.11,0.118-0.217,0.188-0.316c0.592-0.836,1.729-1.039,2.563-0.449c0.331,0.226,0.622,0.52,0.849,0.875
		c0.277-0.344,0.543-0.616,0.898-0.845c0.855-0.545,1.994-0.293,2.543,0.565c0.201,0.351,0.354,0.713,0.436,1.139
		c0.377-0.22,0.766-0.363,1.161-0.43c0.981-0.188,1.951,0.483,2.132,1.49c0.031,0.175,0.043,0.352,0.041,0.53
		c-0.002,0.022,0.002,0.048,0,0.071c-0.007,0.199-0.031,0.402-0.066,0.605c0.439-0.054,0.838-0.037,1.225,0.047
		c0.992,0.221,1.617,1.199,1.396,2.19c-0.084,0.386-0.244,0.753-0.479,1.13c0.408,0.106,0.785,0.26,1.109,0.485
		c0.834,0.591,1.033,1.754,0.441,2.588c-0.078,0.111-0.172,0.222-0.271,0.326c-0.028,0.03-0.055,0.061-0.082,0.089
		c-0.105,0.104-0.219,0.204-0.344,0.301c-0.008,0.006-0.016,0.012-0.024,0.018c-0.048,0.039-0.099,0.078-0.151,0.117
		c0.353,0.254,0.644,0.548,0.85,0.873c0.548,0.856,0.293,1.996-0.566,2.541c-0.331,0.233-0.716,0.377-1.143,0.46
		c0.229,0.355,0.369,0.743,0.435,1.138c0.185,1.008-0.483,1.952-1.489,2.137c-0.129,0.021-0.261,0.032-0.395,0.037
		c-0.271,0.01-0.543-0.008-0.821-0.054c0.013,0.093,0.009,0.183,0.017,0.271c0,0.027,0.002,0.052,0.002,0.077
		c0.006,0.13,0.009,0.264,0,0.392c-0.008,0.158-0.023,0.316-0.06,0.471C301.94,75.735,300.958,76.382,299.966,76.161z"/>
	<path fill="#BED630" d="M288.408,71.712c0.284,0.063,0.605,0.055,0.938,0.007c-0.054,0.329-0.068,0.669-0.013,0.961
		c0.145,0.792,0.89,1.319,1.679,1.192c0.317-0.07,0.624-0.184,0.901-0.361c0.066,0.337,0.18,0.642,0.361,0.902
		c0.432,0.677,1.328,0.875,2.006,0.443c0.258-0.164,0.486-0.394,0.688-0.668c0.199,0.284,0.43,0.515,0.686,0.712
		c0.645,0.444,1.561,0.286,2.028-0.372c0.172-0.242,0.3-0.554,0.374-0.879c0.299,0.188,0.587,0.33,0.893,0.399
		c0.784,0.174,1.561-0.337,1.731-1.119c0.067-0.307,0.077-0.627,0.03-0.956c0.33,0.053,0.648,0.063,0.961,0.012
		c0.795-0.145,1.316-0.889,1.174-1.683c-0.053-0.312-0.162-0.618-0.344-0.897c0.338-0.066,0.645-0.178,0.904-0.361
		c0.674-0.43,0.873-1.328,0.442-2.004c-0.162-0.257-0.394-0.488-0.667-0.69c0.283-0.195,0.513-0.427,0.688-0.668
		c0.467-0.658,0.311-1.572-0.351-2.039c-0.257-0.181-0.554-0.306-0.877-0.375c0.188-0.301,0.313-0.595,0.379-0.898
		c0.176-0.785-0.317-1.555-1.101-1.729c-0.307-0.067-0.625-0.076-0.974-0.034c0.071-0.326,0.083-0.646,0.031-0.955
		c-0.146-0.794-0.908-1.325-1.685-1.176c-0.313,0.052-0.619,0.165-0.916,0.339c-0.064-0.336-0.186-0.622-0.342-0.898
		c-0.432-0.676-1.328-0.876-2.006-0.444c-0.281,0.18-0.488,0.395-0.707,0.666c-0.181-0.279-0.41-0.513-0.67-0.689
		c-0.66-0.467-1.555-0.305-2.021,0.354c-0.178,0.263-0.305,0.555-0.396,0.875c-0.275-0.185-0.572-0.309-0.859-0.37
		c-0.781-0.175-1.551,0.315-1.726,1.098c-0.067,0.307-0.077,0.625-0.036,0.976c-0.322-0.07-0.645-0.081-0.953-0.031
		c-0.795,0.145-1.324,0.907-1.199,1.698c0.076,0.296,0.187,0.604,0.36,0.902c-0.337,0.066-0.641,0.178-0.897,0.342
		c-0.678,0.432-0.875,1.328-0.44,2.006c0.158,0.273,0.388,0.508,0.66,0.709c-0.278,0.178-0.511,0.406-0.706,0.662
		c-0.447,0.664-0.285,1.562,0.37,2.027c0.264,0.178,0.557,0.303,0.876,0.396c-0.182,0.276-0.307,0.571-0.376,0.877
		C287.134,70.747,287.625,71.538,288.408,71.712z"/>
	<path fill="#FFFFFF" d="M290.144,70.288c0.214,0.047,0.45,0.04,0.7,0.006c-0.04,0.244-0.052,0.494-0.011,0.713
		c0.107,0.588,0.658,0.98,1.246,0.888c0.235-0.055,0.463-0.139,0.672-0.271c0.049,0.249,0.133,0.479,0.269,0.67
		c0.319,0.502,0.987,0.652,1.489,0.33c0.191-0.121,0.363-0.29,0.513-0.496c0.147,0.211,0.315,0.383,0.507,0.53
		c0.479,0.33,1.16,0.212,1.508-0.277c0.129-0.182,0.226-0.411,0.277-0.652c0.225,0.139,0.438,0.244,0.664,0.297
		c0.582,0.129,1.159-0.251,1.285-0.832c0.054-0.229,0.059-0.464,0.025-0.71c0.242,0.038,0.479,0.048,0.711,0.009
		c0.592-0.106,0.979-0.66,0.871-1.25c-0.037-0.23-0.121-0.459-0.254-0.667c0.25-0.049,0.478-0.133,0.672-0.268
		c0.502-0.321,0.649-0.987,0.33-1.49c-0.121-0.191-0.291-0.363-0.498-0.512c0.211-0.147,0.385-0.317,0.512-0.497
		c0.349-0.489,0.23-1.173-0.256-1.519c-0.195-0.132-0.414-0.225-0.654-0.276c0.138-0.224,0.232-0.441,0.281-0.669
		c0.127-0.581-0.234-1.153-0.817-1.282c-0.226-0.052-0.464-0.059-0.724-0.026c0.053-0.241,0.061-0.477,0.023-0.709
		c-0.107-0.59-0.677-0.983-1.252-0.872c-0.23,0.037-0.458,0.121-0.681,0.25c-0.05-0.248-0.138-0.461-0.254-0.667
		c-0.322-0.503-0.988-0.65-1.49-0.331c-0.208,0.135-0.36,0.293-0.526,0.496c-0.131-0.209-0.304-0.381-0.496-0.513
		c-0.49-0.348-1.156-0.229-1.502,0.261c-0.136,0.195-0.228,0.412-0.295,0.651c-0.207-0.138-0.425-0.229-0.639-0.276
		c-0.581-0.129-1.154,0.236-1.284,0.818c-0.049,0.227-0.057,0.461-0.022,0.723c-0.241-0.054-0.479-0.061-0.711-0.023
		c-0.592,0.107-0.983,0.677-0.891,1.263c0.055,0.223,0.141,0.449,0.27,0.67c-0.25,0.049-0.477,0.133-0.668,0.254
		c-0.504,0.322-0.649,0.987-0.326,1.49c0.113,0.205,0.283,0.378,0.49,0.526c-0.207,0.134-0.379,0.304-0.526,0.492
		c-0.331,0.493-0.211,1.16,0.276,1.508c0.193,0.129,0.412,0.224,0.649,0.292c-0.136,0.208-0.228,0.426-0.278,0.651
		C289.201,69.571,289.562,70.158,290.144,70.288z"/>
	<g>
		<g>
			<path fill="#FF5E79" d="M295.337,65.571c0,0,0.168-0.604,0.258-1.342c0.052-0.412,0.096-0.867,0.047-1.277
				c-0.081-0.663-0.281-1.264-0.821-1.326c0,0-0.231-0.006-0.399,0.172c-0.073,0.079-0.207,0.218-0.246,0.529
				c-0.055,0.438-0.018,1.031,0.494,2.106C294.832,64.774,295.059,65.149,295.337,65.571z"/>
			<path fill="#FF5E79" d="M295.939,66.289c0,0,0.615,0.122,1.318,0.368c0.39,0.138,0.814,0.305,1.16,0.532
				c0.559,0.366,1.004,0.814,0.82,1.325c0,0-0.098,0.211-0.333,0.28c-0.103,0.03-0.286,0.088-0.583-0.015
				c-0.417-0.146-0.931-0.447-1.662-1.386C296.427,67.099,296.194,66.728,295.939,66.289z"/>
			<path fill="#FF5E79" d="M295.947,65.964c0,0,0.61,0.152,1.352,0.228c0.412,0.041,0.869,0.073,1.277,0.013
				c0.662-0.095,1.258-0.312,1.307-0.851c0,0,0-0.234-0.182-0.396c-0.08-0.07-0.223-0.202-0.535-0.233
				c-0.438-0.046-1.029,0.01-2.094,0.547C296.736,65.439,296.367,65.673,295.947,65.964z"/>
			<path fill="#FF5E79" d="M295.731,65.638c0,0,0.556-0.296,1.158-0.734c0.335-0.243,0.692-0.523,0.96-0.842
				c0.428-0.513,0.727-1.07,0.4-1.505c0,0-0.153-0.176-0.397-0.176c-0.104,0.002-0.3-0.002-0.556,0.185
				c-0.354,0.259-0.76,0.692-1.192,1.804C295.968,64.722,295.85,65.143,295.731,65.638z"/>
			<path fill="#FF5E79" d="M295.014,65.712c0,0-0.622-0.085-1.339-0.289c-0.397-0.112-0.831-0.254-1.19-0.461
				c-0.577-0.333-1.05-0.754-0.896-1.272c0,0,0.084-0.22,0.313-0.3c0.098-0.038,0.279-0.106,0.582-0.021
				c0.426,0.121,0.956,0.389,1.743,1.282C294.478,64.935,294.735,65.288,295.014,65.712z"/>
			<path fill="#FF5E79" d="M295.595,66.466c0,0-0.149,0.61-0.221,1.353c-0.039,0.412-0.067,0.867-0.006,1.276
				c0.101,0.66,0.318,1.255,0.859,1.302c0,0,0.232,0,0.396-0.187c0.07-0.08,0.199-0.223,0.229-0.535
				c0.044-0.438-0.016-1.03-0.559-2.09C296.123,67.248,295.886,66.88,295.595,66.466z"/>
			<path fill="#FF5E79" d="M295.192,66.399c0,0-0.092,0.619-0.306,1.331c-0.118,0.397-0.262,0.831-0.473,1.187
				c-0.34,0.576-0.769,1.041-1.285,0.883c0,0-0.217-0.088-0.297-0.319c-0.035-0.101-0.104-0.28-0.016-0.582
				c0.129-0.424,0.402-0.949,1.307-1.729C294.408,66.925,294.767,66.672,295.192,66.399z"/>
			<path fill="#FF5E79" d="M294.951,66.058c0,0-0.479,0.406-1.106,0.804c-0.353,0.221-0.745,0.452-1.138,0.58
				c-0.636,0.21-1.264,0.282-1.549-0.18c0,0-0.104-0.208-0.014-0.436c0.039-0.1,0.107-0.281,0.372-0.447
				c0.375-0.237,0.928-0.453,2.118-0.444C294.014,65.938,294.449,65.983,294.951,66.058z"/>
		</g>
	</g>
</g>
<g>
	<path fill="#E48800" d="M167.779,72.199c-0.62-0.136-1.204-0.417-1.77-0.78c0-0.004,0-0.004,0-0.004
		c-0.005-0.006-0.011-0.008-0.017-0.012c0,0,0,0.002-0.001,0.004c0.006,0.003,0.01,0.006,0.018,0.012
		c-0.081,0.301-0.178,0.592-0.294,0.868c-0.131,0.319-0.286,0.614-0.47,0.872c-0.935,1.313-2.766,1.63-4.053,0.744
		c-0.147-0.115-0.291-0.236-0.429-0.365c-0.1-0.088-0.195-0.178-0.289-0.277c-0.137-0.14-0.268-0.291-0.393-0.447
		c-0.031-0.034-0.055-0.073-0.083-0.106c-0.057-0.074-0.114-0.149-0.171-0.228c-0.402,0.552-0.863,1.011-1.376,1.338
		c-1.351,0.857-3.146,0.461-4.008-0.89c-0.363-0.519-0.589-1.132-0.721-1.797c-0.132,0.075-0.263,0.152-0.396,0.221
		c-0.17,0.086-0.339,0.161-0.515,0.229c-0.104,0.043-0.207,0.074-0.313,0.109c-0.189,0.059-0.384,0.115-0.579,0.157
		c-1.575,0.252-3.064-0.801-3.354-2.383c-0.108-0.58-0.08-1.244,0.021-1.894c-0.646,0.085-1.276,0.092-1.874-0.04
		c-1.564-0.348-2.535-1.926-2.19-3.489c0.057-0.249,0.14-0.491,0.235-0.728c0.06-0.153,0.132-0.303,0.205-0.45
		c0.049-0.093,0.098-0.186,0.15-0.276c0.055-0.099,0.098-0.203,0.16-0.303c-0.428-0.119-0.827-0.274-1.202-0.468
		c-0.189-0.095-0.373-0.197-0.545-0.317c-1.318-0.933-1.639-2.727-0.745-4.051c0.119-0.154,0.246-0.302,0.38-0.445
		c0.08-0.088,0.163-0.176,0.251-0.26c0.125-0.12,0.255-0.234,0.393-0.342c0.123-0.1,0.254-0.193,0.388-0.283
		c-0.549-0.4-1.006-0.861-1.323-1.41c-0.861-1.352-0.465-3.145,0.889-4.007c0.509-0.326,1.119-0.552,1.787-0.685
		c-0.339-0.58-0.602-1.177-0.718-1.803c-0.25-1.576,0.81-3.104,2.397-3.391c0.613-0.108,1.252-0.074,1.905,0.044
		c-0.083-0.691-0.063-1.322,0.071-1.928c0.348-1.564,1.885-2.543,3.45-2.197c0.572,0.127,1.156,0.375,1.718,0.74
		c0.124-0.444,0.288-0.861,0.494-1.248c0.088-0.173,0.184-0.341,0.295-0.5c0.931-1.314,2.722-1.637,4.037-0.705
		c0.521,0.354,0.981,0.815,1.338,1.377c0.439-0.541,0.856-0.971,1.414-1.329c1.353-0.86,3.146-0.462,4.008,0.891
		c0.317,0.552,0.552,1.122,0.685,1.792c0.596-0.348,1.207-0.571,1.83-0.676c1.546-0.295,3.074,0.762,3.362,2.349
		c0.048,0.273,0.063,0.554,0.061,0.836c-0.002,0.038,0,0.073,0.001,0.112c-0.01,0.313-0.05,0.636-0.105,0.955
		c0.691-0.082,1.318-0.059,1.928,0.074c1.565,0.346,2.548,1.887,2.196,3.451c-0.131,0.604-0.382,1.184-0.748,1.777
		c0.642,0.17,1.236,0.407,1.747,0.765c1.313,0.933,1.627,2.763,0.697,4.077c-0.126,0.177-0.273,0.348-0.431,0.514
		c-0.043,0.049-0.084,0.096-0.129,0.14c-0.166,0.165-0.349,0.323-0.541,0.475c-0.012,0.009-0.024,0.02-0.038,0.026
		c-0.077,0.063-0.154,0.125-0.239,0.185c0.553,0.402,1.011,0.864,1.338,1.376c0.861,1.353,0.462,3.146-0.892,4.005
		c-0.521,0.368-1.128,0.592-1.801,0.723c0.357,0.563,0.584,1.172,0.685,1.793c0.288,1.589-0.762,3.076-2.349,3.365
		c-0.202,0.035-0.41,0.051-0.621,0.06c-0.425,0.016-0.854-0.013-1.294-0.084c0.021,0.146,0.015,0.284,0.024,0.43
		c0.002,0.041,0.005,0.08,0.007,0.12c0.009,0.207,0.013,0.415-0.001,0.616c-0.013,0.251-0.04,0.5-0.092,0.74
		C170.893,71.528,169.346,72.547,167.779,72.199z"/>
	<path fill="#BED630" d="M149.573,65.188c0.448,0.102,0.957,0.086,1.481,0.012c-0.086,0.519-0.108,1.052-0.021,1.511
		c0.228,1.249,1.399,2.081,2.645,1.882c0.498-0.11,0.98-0.286,1.42-0.568c0.103,0.527,0.282,1.009,0.568,1.421
		c0.682,1.064,2.093,1.38,3.162,0.699c0.402-0.259,0.765-0.617,1.083-1.054c0.312,0.447,0.675,0.812,1.078,1.123
		c1.015,0.699,2.457,0.449,3.193-0.587c0.273-0.382,0.476-0.873,0.59-1.385c0.47,0.296,0.927,0.521,1.406,0.63
		c1.236,0.273,2.456-0.529,2.729-1.764c0.107-0.482,0.121-0.984,0.049-1.506c0.518,0.082,1.021,0.1,1.512,0.02
		c1.252-0.227,2.078-1.4,1.852-2.652c-0.084-0.487-0.26-0.973-0.541-1.411c0.529-0.104,1.011-0.281,1.424-0.569
		c1.063-0.679,1.377-2.095,0.699-3.16c-0.259-0.403-0.62-0.768-1.054-1.087c0.447-0.309,0.811-0.671,1.085-1.053
		c0.734-1.037,0.486-2.479-0.55-3.214c-0.409-0.281-0.874-0.478-1.384-0.591c0.295-0.472,0.491-0.935,0.598-1.415
		c0.273-1.233-0.5-2.446-1.733-2.722c-0.481-0.106-0.982-0.122-1.535-0.054c0.113-0.514,0.132-1.017,0.05-1.506
		c-0.228-1.25-1.431-2.086-2.65-1.853c-0.493,0.08-0.975,0.259-1.445,0.533c-0.103-0.529-0.289-0.979-0.539-1.414
		c-0.678-1.064-2.093-1.381-3.157-0.7c-0.443,0.28-0.77,0.618-1.116,1.048c-0.282-0.439-0.644-0.806-1.053-1.086
		c-1.04-0.735-2.452-0.479-3.188,0.557c-0.279,0.412-0.479,0.872-0.621,1.379c-0.438-0.289-0.902-0.484-1.354-0.585
		c-1.233-0.273-2.444,0.5-2.72,1.729c-0.106,0.484-0.124,0.983-0.058,1.537c-0.508-0.115-1.013-0.129-1.502-0.052
		c-1.251,0.228-2.086,1.433-1.885,2.675c0.113,0.469,0.291,0.952,0.566,1.422c-0.531,0.104-1.01,0.281-1.413,0.538
		c-1.068,0.681-1.38,2.095-0.699,3.16c0.249,0.434,0.608,0.8,1.045,1.117c-0.44,0.28-0.804,0.641-1.117,1.047
		c-0.704,1.041-0.448,2.456,0.587,3.19c0.412,0.281,0.875,0.479,1.379,0.621c-0.286,0.438-0.484,0.902-0.592,1.384
		C147.57,63.671,148.339,64.916,149.573,65.188z"/>
	<path fill="#FFFFFF" d="M152.31,62.946c0.335,0.074,0.71,0.063,1.1,0.01c-0.061,0.385-0.078,0.781-0.013,1.121
		c0.17,0.928,1.04,1.547,1.964,1.398c0.37-0.084,0.728-0.216,1.057-0.425c0.075,0.394,0.207,0.752,0.424,1.058
		c0.502,0.789,1.552,1.024,2.344,0.52c0.302-0.19,0.571-0.459,0.808-0.781c0.231,0.33,0.499,0.601,0.801,0.834
		c0.753,0.521,1.825,0.335,2.373-0.438c0.2-0.284,0.354-0.648,0.438-1.029c0.351,0.22,0.688,0.388,1.046,0.468
		c0.918,0.204,1.825-0.394,2.026-1.31c0.081-0.358,0.09-0.731,0.037-1.119c0.383,0.063,0.757,0.075,1.123,0.017
		c0.929-0.168,1.543-1.041,1.375-1.973c-0.063-0.361-0.192-0.722-0.404-1.05c0.395-0.077,0.753-0.21,1.059-0.422
		c0.79-0.506,1.024-1.557,0.52-2.348c-0.191-0.301-0.46-0.57-0.782-0.808c0.332-0.231,0.603-0.5,0.806-0.782
		c0.548-0.771,0.362-1.845-0.407-2.392c-0.306-0.207-0.651-0.352-1.029-0.437c0.219-0.352,0.365-0.692,0.444-1.051
		c0.201-0.919-0.37-1.817-1.289-2.021c-0.355-0.08-0.73-0.091-1.139-0.042c0.083-0.38,0.097-0.752,0.036-1.118
		c-0.168-0.928-1.064-1.548-1.969-1.375c-0.367,0.063-0.724,0.193-1.074,0.396c-0.077-0.393-0.215-0.729-0.399-1.051
		c-0.506-0.793-1.558-1.026-2.348-0.521c-0.327,0.209-0.571,0.461-0.829,0.778c-0.208-0.327-0.478-0.6-0.782-0.809
		c-0.772-0.545-1.82-0.354-2.367,0.414c-0.209,0.307-0.356,0.648-0.464,1.025c-0.326-0.216-0.667-0.361-1.005-0.437
		c-0.916-0.205-1.816,0.371-2.02,1.289c-0.08,0.355-0.094,0.728-0.042,1.138c-0.38-0.084-0.754-0.095-1.117-0.037
		c-0.932,0.17-1.551,1.065-1.402,1.987c0.087,0.351,0.22,0.707,0.423,1.058c-0.395,0.075-0.749,0.209-1.051,0.399
		c-0.793,0.506-1.023,1.556-0.519,2.349c0.185,0.321,0.451,0.594,0.776,0.83c-0.329,0.208-0.597,0.476-0.831,0.776
		c-0.522,0.774-0.333,1.825,0.438,2.371c0.306,0.207,0.651,0.354,1.022,0.461c-0.213,0.326-0.358,0.672-0.439,1.027
		C150.822,61.819,151.392,62.743,152.31,62.946z"/>
	<g>
		<g>
			<path fill="#FF5E79" d="M160.491,55.518c0,0,0.262-0.954,0.408-2.114c0.08-0.649,0.146-1.365,0.069-2.014
				c-0.126-1.045-0.442-1.988-1.292-2.089c0,0-0.366-0.012-0.63,0.271c-0.114,0.123-0.328,0.341-0.389,0.833
				c-0.089,0.688-0.025,1.623,0.78,3.316C159.695,54.26,160.05,54.852,160.491,55.518z"/>
			<path fill="#FF5E79" d="M161.438,56.647c0,0,0.971,0.19,2.075,0.58c0.616,0.217,1.286,0.479,1.832,0.837
				c0.879,0.58,1.58,1.286,1.29,2.089c0,0-0.154,0.334-0.523,0.44c-0.161,0.05-0.451,0.142-0.919-0.021
				c-0.656-0.229-1.463-0.704-2.618-2.182C162.207,57.922,161.839,57.339,161.438,56.647z"/>
			<path fill="#FF5E79" d="M161.454,56.135c0,0,0.96,0.238,2.126,0.356c0.65,0.065,1.367,0.114,2.013,0.021
				c1.041-0.15,1.978-0.49,2.056-1.343c0,0,0.002-0.366-0.286-0.623c-0.125-0.11-0.348-0.317-0.842-0.368
				c-0.69-0.071-1.624,0.015-3.297,0.86C162.693,55.31,162.11,55.677,161.454,56.135z"/>
			<path fill="#FF5E79" d="M161.113,55.618c0,0,0.874-0.461,1.821-1.152c0.527-0.385,1.094-0.825,1.513-1.327
				c0.676-0.809,1.144-1.685,0.634-2.371c0,0-0.241-0.275-0.628-0.273c-0.167,0-0.472-0.005-0.873,0.288
				c-0.562,0.407-1.199,1.094-1.881,2.841C161.483,54.179,161.296,54.841,161.113,55.618z"/>
			<path fill="#FF5E79" d="M159.979,55.737c0,0-0.979-0.133-2.105-0.453c-0.628-0.18-1.313-0.4-1.877-0.727
				c-0.913-0.525-1.656-1.188-1.414-2.009c0,0,0.133-0.341,0.496-0.473c0.158-0.059,0.44-0.166,0.918-0.031
				c0.668,0.19,1.504,0.614,2.746,2.021C159.137,54.513,159.541,55.071,159.979,55.737z"/>
			<path fill="#FF5E79" d="M160.895,56.927c0,0-0.233,0.959-0.344,2.128c-0.062,0.649-0.106,1.366-0.01,2.013
				c0.158,1.041,0.503,1.974,1.354,2.049c0,0,0.367-0.001,0.622-0.29c0.111-0.127,0.317-0.352,0.364-0.845
				c0.066-0.691-0.024-1.623-0.882-3.291C161.728,58.159,161.355,57.578,160.895,56.927z"/>
			<path fill="#FF5E79" d="M160.264,56.819c0,0-0.146,0.977-0.481,2.1c-0.186,0.625-0.415,1.31-0.747,1.868
				c-0.537,0.907-1.208,1.643-2.024,1.393c0,0-0.34-0.141-0.467-0.505c-0.055-0.157-0.162-0.442-0.021-0.919
				c0.199-0.665,0.632-1.495,2.053-2.72C159.027,57.647,159.591,57.25,160.264,56.819z"/>
			<path fill="#FF5E79" d="M159.881,56.282c0,0-0.752,0.642-1.743,1.268c-0.552,0.348-1.174,0.711-1.792,0.914
				c-1,0.33-1.989,0.442-2.439-0.284c0,0-0.166-0.327-0.021-0.687c0.063-0.154,0.17-0.438,0.589-0.705
				c0.587-0.371,1.46-0.71,3.335-0.697C158.404,56.094,159.091,56.165,159.881,56.282z"/>
		</g>
	</g>
</g>
<g>
	<g>
		<path fill="#3EBDD4" d="M247.009,91.208c-0.618-0.136-1.202-0.416-1.77-0.78c0-0.003,0-0.005,0-0.005
			c-0.005-0.004-0.01-0.006-0.016-0.01v0.003c0.006,0.003,0.008,0.007,0.016,0.012c-0.078,0.303-0.178,0.594-0.293,0.869
			c-0.132,0.318-0.285,0.614-0.47,0.872c-0.937,1.313-2.767,1.63-4.054,0.744c-0.146-0.115-0.291-0.238-0.428-0.365
			c-0.102-0.089-0.195-0.179-0.289-0.275c-0.138-0.143-0.269-0.292-0.394-0.448c-0.03-0.035-0.056-0.072-0.084-0.107
			c-0.056-0.075-0.112-0.148-0.17-0.228c-0.404,0.552-0.864,1.011-1.377,1.338c-1.353,0.858-3.146,0.462-4.007-0.889
			c-0.363-0.52-0.59-1.132-0.721-1.798c-0.133,0.075-0.264,0.151-0.396,0.221c-0.169,0.086-0.34,0.162-0.516,0.229
			c-0.104,0.043-0.209,0.074-0.312,0.107c-0.19,0.061-0.385,0.118-0.582,0.159c-1.571,0.251-3.063-0.801-3.353-2.382
			c-0.108-0.581-0.08-1.244,0.021-1.896c-0.647,0.086-1.276,0.093-1.875-0.04c-1.563-0.347-2.536-1.925-2.188-3.489
			c0.058-0.248,0.139-0.489,0.234-0.729c0.059-0.152,0.131-0.301,0.205-0.447c0.049-0.094,0.098-0.186,0.148-0.277
			c0.056-0.099,0.099-0.201,0.16-0.303c-0.428-0.119-0.826-0.273-1.201-0.468c-0.188-0.096-0.371-0.198-0.543-0.317
			c-1.318-0.934-1.641-2.727-0.748-4.051c0.121-0.154,0.248-0.303,0.383-0.444c0.079-0.09,0.162-0.177,0.25-0.263
			c0.124-0.117,0.254-0.23,0.393-0.342c0.121-0.098,0.254-0.191,0.387-0.281c-0.549-0.399-1.004-0.861-1.322-1.41
			c-0.861-1.354-0.465-3.145,0.888-4.008c0.511-0.326,1.12-0.551,1.789-0.684c-0.34-0.58-0.603-1.176-0.718-1.803
			c-0.251-1.576,0.811-3.104,2.396-3.392c0.613-0.106,1.254-0.073,1.906,0.044c-0.083-0.691-0.063-1.323,0.071-1.927
			c0.345-1.565,1.885-2.544,3.448-2.197c0.572,0.126,1.156,0.375,1.719,0.74c0.122-0.444,0.287-0.861,0.492-1.249
			c0.09-0.171,0.184-0.341,0.297-0.499c0.93-1.313,2.721-1.637,4.035-0.705c0.522,0.355,0.982,0.817,1.339,1.377
			c0.44-0.541,0.856-0.971,1.416-1.33c1.353-0.858,3.143-0.46,4.006,0.892c0.317,0.552,0.552,1.123,0.685,1.793
			c0.596-0.348,1.207-0.572,1.83-0.677c1.547-0.295,3.077,0.761,3.363,2.349c0.047,0.273,0.063,0.554,0.061,0.837
			c-0.004,0.036,0.002,0.073,0.002,0.112c-0.012,0.313-0.049,0.635-0.105,0.955c0.691-0.082,1.32-0.062,1.927,0.073
			c1.565,0.347,2.548,1.888,2.197,3.451c-0.132,0.605-0.382,1.184-0.747,1.777c0.641,0.169,1.234,0.408,1.745,0.766
			c1.313,0.934,1.628,2.762,0.696,4.076c-0.125,0.178-0.271,0.346-0.43,0.514c-0.043,0.048-0.084,0.096-0.132,0.142
			c-0.163,0.162-0.346,0.321-0.538,0.473c-0.011,0.009-0.025,0.021-0.037,0.027c-0.078,0.061-0.154,0.125-0.24,0.185
			c0.552,0.4,1.013,0.862,1.338,1.374c0.861,1.354,0.463,3.146-0.893,4.006c-0.521,0.367-1.128,0.592-1.802,0.724
			c0.358,0.563,0.585,1.172,0.685,1.793c0.291,1.588-0.761,3.074-2.346,3.364c-0.201,0.035-0.412,0.051-0.621,0.059
			c-0.426,0.017-0.855-0.013-1.294-0.083c0.019,0.146,0.015,0.285,0.024,0.428c0,0.043,0.002,0.081,0.005,0.121
			c0.009,0.207,0.013,0.416,0,0.617c-0.013,0.251-0.04,0.499-0.093,0.742C250.123,90.536,248.576,91.556,247.009,91.208z"/>
		<path fill="#BED630" d="M228.804,84.198c0.447,0.102,0.958,0.086,1.482,0.012c-0.088,0.519-0.107,1.051-0.021,1.513
			c0.227,1.247,1.398,2.078,2.645,1.879c0.498-0.109,0.979-0.286,1.42-0.568c0.103,0.529,0.28,1.01,0.568,1.422
			c0.684,1.064,2.094,1.381,3.161,0.699c0.403-0.258,0.767-0.617,1.083-1.053c0.313,0.446,0.675,0.811,1.079,1.122
			c1.017,0.699,2.456,0.449,3.194-0.588c0.271-0.382,0.476-0.872,0.588-1.385c0.471,0.297,0.928,0.521,1.406,0.629
			c1.234,0.275,2.455-0.526,2.729-1.762c0.107-0.483,0.121-0.984,0.05-1.506c0.517,0.082,1.019,0.099,1.511,0.02
			c1.252-0.228,2.076-1.399,1.854-2.651c-0.086-0.489-0.262-0.974-0.541-1.414c0.527-0.103,1.009-0.28,1.424-0.568
			c1.063-0.678,1.377-2.093,0.697-3.16c-0.26-0.401-0.619-0.767-1.053-1.086c0.447-0.309,0.811-0.671,1.086-1.053
			c0.732-1.037,0.483-2.477-0.553-3.213c-0.408-0.282-0.873-0.479-1.384-0.592c0.296-0.474,0.492-0.935,0.599-1.414
			c0.274-1.234-0.5-2.447-1.734-2.724c-0.479-0.104-0.981-0.121-1.535-0.054c0.113-0.514,0.133-1.015,0.052-1.507
			c-0.229-1.249-1.431-2.084-2.649-1.85c-0.496,0.079-0.977,0.258-1.447,0.532c-0.1-0.528-0.287-0.979-0.538-1.414
			c-0.677-1.063-2.093-1.381-3.157-0.698c-0.443,0.279-0.77,0.616-1.115,1.046c-0.283-0.44-0.644-0.805-1.053-1.087
			c-1.041-0.734-2.451-0.479-3.188,0.557c-0.278,0.413-0.479,0.873-0.621,1.379c-0.438-0.288-0.901-0.483-1.354-0.584
			c-1.232-0.274-2.443,0.498-2.72,1.73c-0.106,0.482-0.124,0.981-0.058,1.535c-0.508-0.113-1.015-0.128-1.504-0.052
			c-1.25,0.229-2.086,1.435-1.883,2.676c0.112,0.47,0.291,0.951,0.565,1.423c-0.533,0.104-1.009,0.279-1.413,0.537
			c-1.068,0.68-1.38,2.096-0.7,3.16c0.25,0.434,0.608,0.802,1.045,1.116c-0.44,0.28-0.803,0.644-1.116,1.047
			c-0.703,1.042-0.447,2.457,0.586,3.191c0.412,0.281,0.875,0.477,1.381,0.621c-0.287,0.438-0.484,0.902-0.592,1.384
			C226.802,82.681,227.571,83.927,228.804,84.198z"/>
		<path fill="#FFFFFF" d="M231.541,81.956c0.334,0.074,0.709,0.064,1.102,0.01c-0.063,0.385-0.08,0.779-0.016,1.121
			c0.17,0.929,1.041,1.546,1.967,1.398c0.369-0.084,0.726-0.216,1.055-0.424c0.077,0.393,0.207,0.752,0.426,1.055
			c0.502,0.791,1.551,1.026,2.342,0.521c0.303-0.19,0.573-0.46,0.81-0.782c0.229,0.333,0.498,0.602,0.8,0.834
			c0.753,0.521,1.826,0.336,2.373-0.437c0.2-0.285,0.355-0.647,0.438-1.028c0.354,0.22,0.689,0.386,1.049,0.467
			c0.916,0.203,1.824-0.395,2.025-1.31c0.08-0.358,0.09-0.731,0.036-1.117c0.382,0.061,0.759,0.073,1.122,0.014
			c0.93-0.168,1.543-1.04,1.376-1.972c-0.063-0.361-0.19-0.724-0.403-1.05c0.394-0.075,0.752-0.21,1.058-0.422
			c0.79-0.506,1.026-1.557,0.521-2.347c-0.191-0.301-0.457-0.571-0.783-0.808c0.332-0.232,0.604-0.5,0.807-0.783
			c0.548-0.771,0.361-1.844-0.406-2.392c-0.307-0.209-0.65-0.354-1.029-0.437c0.219-0.353,0.365-0.693,0.443-1.05
			c0.201-0.919-0.369-1.818-1.288-2.023c-0.354-0.079-0.729-0.091-1.139-0.041c0.082-0.381,0.097-0.753,0.034-1.118
			c-0.168-0.929-1.065-1.548-1.967-1.374c-0.367,0.062-0.726,0.192-1.076,0.396c-0.076-0.392-0.213-0.727-0.399-1.049
			c-0.504-0.793-1.556-1.027-2.347-0.521c-0.326,0.209-0.57,0.46-0.829,0.778c-0.207-0.329-0.478-0.6-0.781-0.809
			c-0.771-0.545-1.821-0.355-2.366,0.414c-0.209,0.308-0.355,0.648-0.465,1.024c-0.324-0.216-0.668-0.36-1.005-0.437
			c-0.916-0.203-1.815,0.372-2.021,1.288c-0.08,0.357-0.094,0.729-0.041,1.142c-0.381-0.086-0.756-0.097-1.119-0.037
			c-0.932,0.168-1.549,1.063-1.399,1.986c0.087,0.35,0.218,0.707,0.422,1.055c-0.396,0.078-0.749,0.211-1.05,0.403
			c-0.793,0.505-1.023,1.553-0.521,2.346c0.187,0.323,0.451,0.596,0.776,0.831c-0.327,0.208-0.596,0.475-0.83,0.774
			c-0.522,0.775-0.333,1.828,0.438,2.373c0.305,0.207,0.65,0.354,1.021,0.46c-0.213,0.327-0.356,0.674-0.438,1.028
			C230.055,80.829,230.623,81.753,231.541,81.956z"/>
	</g>
	<g>
		<g>
			<path fill="#FF5E79" d="M239.722,74.528c0,0,0.263-0.955,0.408-2.115c0.08-0.648,0.147-1.366,0.07-2.013
				c-0.127-1.046-0.443-1.989-1.293-2.089c0,0-0.367-0.012-0.63,0.271c-0.116,0.123-0.327,0.342-0.39,0.832
				c-0.088,0.689-0.023,1.624,0.779,3.317C238.927,73.271,239.28,73.86,239.722,74.528z"/>
			<path fill="#FF5E79" d="M240.669,75.657c0,0,0.972,0.191,2.074,0.58c0.617,0.217,1.286,0.479,1.832,0.837
				c0.879,0.579,1.58,1.286,1.291,2.089c0,0-0.154,0.334-0.523,0.442c-0.16,0.048-0.45,0.14-0.918-0.023
				c-0.656-0.229-1.465-0.704-2.619-2.182C241.438,76.932,241.069,76.35,240.669,75.657z"/>
			<path fill="#FF5E79" d="M240.685,75.146c0,0,0.96,0.237,2.126,0.356c0.651,0.064,1.368,0.113,2.013,0.021
				c1.043-0.15,1.979-0.49,2.059-1.342c0,0,0.002-0.367-0.286-0.624c-0.128-0.11-0.349-0.317-0.843-0.37
				c-0.691-0.069-1.623,0.016-3.297,0.861C241.923,74.319,241.341,74.688,240.685,75.146z"/>
			<path fill="#FF5E79" d="M240.343,74.629c0,0,0.875-0.462,1.822-1.152c0.527-0.386,1.094-0.827,1.512-1.328
				c0.676-0.808,1.146-1.685,0.635-2.371c0,0-0.238-0.274-0.628-0.272c-0.166,0-0.472-0.007-0.873,0.287
				c-0.562,0.407-1.199,1.095-1.881,2.841C240.712,73.188,240.527,73.851,240.343,74.629z"/>
			<path fill="#FF5E79" d="M239.21,74.748c0,0-0.979-0.134-2.105-0.455c-0.628-0.18-1.313-0.398-1.878-0.726
				c-0.912-0.525-1.656-1.188-1.414-2.008c0,0,0.134-0.341,0.497-0.474c0.156-0.057,0.439-0.166,0.919-0.03
				c0.666,0.188,1.503,0.612,2.743,2.02C238.369,73.522,238.771,74.081,239.21,74.748z"/>
			<path fill="#FF5E79" d="M240.126,75.937c0,0-0.234,0.96-0.346,2.127c-0.063,0.649-0.105,1.367-0.009,2.012
				c0.158,1.042,0.503,1.975,1.354,2.05c0,0,0.367-0.001,0.621-0.29c0.113-0.126,0.316-0.352,0.364-0.844
				c0.065-0.692-0.024-1.625-0.881-3.293C240.958,77.168,240.587,76.589,240.126,75.937z"/>
			<path fill="#FF5E79" d="M239.496,75.829c0,0-0.146,0.978-0.48,2.101c-0.188,0.625-0.415,1.309-0.747,1.868
				c-0.538,0.906-1.209,1.642-2.026,1.392c0,0-0.339-0.14-0.466-0.504c-0.056-0.158-0.164-0.443-0.021-0.919
				c0.199-0.665,0.632-1.495,2.053-2.721C238.259,76.657,238.821,76.26,239.496,75.829z"/>
			<path fill="#FF5E79" d="M239.112,75.291c0,0-0.753,0.644-1.741,1.268c-0.555,0.349-1.177,0.713-1.793,0.916
				c-1,0.33-1.992,0.441-2.44-0.285c0,0-0.166-0.327-0.021-0.687c0.063-0.153,0.17-0.439,0.588-0.705
				c0.59-0.372,1.461-0.71,3.336-0.696C237.634,75.104,238.322,75.175,239.112,75.291z"/>
		</g>
	</g>
</g>
<g>
	<g>
		<path fill="#95AF2E" d="M290.423,126.458c0,0-3.391-4.093,2.271-11.115c5.654-7.027,15.491-2.04,18.452-2.274
			c2.955-0.234,4.068-1.047,4.068-1.047s-4.324,0.762-6.9,4.729c-2.576,3.965-5.014,10.039-9.322,11.603
			c-4.303,1.561-7.234-1.886-7.234-1.886s3.877,0.394,6.531-3.521s6.732-5.964,6.732-5.964s-7.836,2.301-10.945,5.573
			C290.962,125.821,290.423,126.458,290.423,126.458z"/>
		<path fill="#95AF2E" d="M294.691,133.885c0,0,0.409-4.888,8.689-5.857c8.285-0.977,11.541,8.678,13.646,10.438
			c2.104,1.76,3.359,1.942,3.359,1.942s-3.348-2.295-7.611-1.348c-4.264,0.943-9.801,3.377-13.648,1.622
			c-3.854-1.759-3.558-5.928-3.558-5.928s2.306,2.771,6.586,1.906c4.283-0.865,8.304,0.419,8.304,0.419s-6.66-3.547-10.826-3.405
			C295.464,133.817,294.691,133.885,294.691,133.885z"/>
		<path fill="#95AF2E" d="M290.819,135.851c0,0-4.907-0.036-6.633,8.121c-1.722,8.159,7.594,12.284,9.159,14.541
			c1.559,2.252,1.626,3.521,1.626,3.521s-1.984-3.54-0.649-7.698c1.332-4.164,4.256-9.457,2.86-13.454
			c-1.402-3.993-5.58-4.08-5.58-4.08s2.547,2.552,1.295,6.736c-1.251,4.185-0.333,8.302-0.333,8.302s-2.929-6.951-2.404-11.089
			C290.679,136.616,290.819,135.851,290.819,135.851z"/>
		<path fill="#95AF2E" d="M292.744,130.188c0.645,1.733-0.236,3.664-1.97,4.311c-1.737,0.646-3.668-0.238-4.312-1.973
			c-0.648-1.736,0.236-3.666,1.972-4.312C290.171,127.57,292.099,128.453,292.744,130.188z"/>
	</g>
</g>
<g>
	<g>
		<path fill="#95AF2E" d="M179.994,160.909c0,0,0.258-7.846,13.396-10.074c13.143-2.233,19.137,12.914,22.643,15.554
			c3.5,2.635,5.525,2.825,5.525,2.825s-5.53-3.393-12.266-1.526c-6.729,1.862-15.373,6.198-21.67,3.707
			c-6.292-2.488-6.161-9.17-6.161-9.17s3.906,4.229,10.676,2.5c6.77-1.731,13.285-0.005,13.285-0.005s-10.922-5.129-17.563-4.554
			C181.217,160.733,179.994,160.909,179.994,160.909z"/>
		<path fill="#95AF2E" d="M177.445,173.306c0,0,5.239-5.006,15.352,2.027c10.117,7.031,4.27,20.9,4.871,24.909
			c0.604,4.005,1.82,5.439,1.82,5.439s-1.457-5.816-7.104-8.942c-5.645-3.132-14.151-5.862-16.69-11.571
			c-2.539-5.719,1.869-10.041,1.869-10.041s-0.164,5.323,5.421,8.56c5.583,3.234,8.771,8.594,8.771,8.594s-3.895-10.445-8.64-14.367
			C178.368,173.987,177.445,173.306,177.445,173.306z"/>
		<path fill="#95AF2E" d="M171.236,171.687c0,0-5.394-4.845-15.288,2.492c-9.896,7.342-3.627,21.025-4.105,25.053
			c-0.482,4.018-1.649,5.488-1.649,5.488s1.271-5.857,6.821-9.152c5.55-3.302,13.967-6.294,16.335-12.083
			c2.359-5.791-2.176-9.977-2.176-9.977s0.319,5.314-5.164,8.72c-5.48,3.403-8.498,8.856-8.498,8.856s3.568-10.558,8.196-14.622
			C170.331,172.397,171.236,171.687,171.236,171.687z"/>
		<path fill="#95AF2E" d="M178.911,167.31c-0.985,2.55-3.85,3.821-6.399,2.84c-2.556-0.987-3.823-3.854-2.84-6.403
			c0.983-2.557,3.854-3.823,6.405-2.839C178.628,161.894,179.895,164.756,178.911,167.31z"/>
	</g>
</g>
<path fill="#95AF2E" d="M314.699,59.04c-0.203,0.182-0.033,13.537,3.297,24.83c3.326,11.295,13.889,19.426,22.373,21.246
	c8.488,1.819,18.922,0.365,22.152-9.271c4.123-12.307-7.66-18.899-10.525-19.674c-3.813-1.026-12.367-2.2-14.818,6.207
	c-0.018,0.064-0.041,0.17-0.068,0.27c0,0-0.889,5.756,2.104,9.556c2.99,3.801,7.623,4.424,9.461,2.87
	c1.838-1.551,1.479-4.01,0.277-4.808c-1.203-0.798-3.299-1.205-4.006,1.123c-0.709,2.329,2.143,2.549,2.143,2.549
	s-1.904-0.515-1.188-2.291c0.713-1.773,3.113-1.914,3.217,0.632c0.098,2.549-3.514,3.384-6.699,1.183
	c-3.186-2.196-3.801-8.048-1.926-11.742c1.285-2.536,6.121-7.504,13.141-4.034c7.016,3.473,8.518,10.95,5.838,17.076
	c-2.68,6.131-9.275,10.727-18.764,8.241c-9.49-2.482-14.225-8.566-16.84-12.582c-2.617-4.016-5.885-12.614-7-18.112
	C315.751,66.806,314.699,59.04,314.699,59.04z"/>
</svg>
