<?xml version="1.0" encoding="utf-8"?>
<!-- Generator: Adobe Illustrator 13.0.0, SVG Export Plug-In . SVG Version: 6.00 Build 14948)  -->
<!DOCTYPE svg PUBLIC "-//W3C//DTD SVG 1.1//EN" "http://www.w3.org/Graphics/SVG/1.1/DTD/svg11.dtd">
<svg version="1.1" id="Layer_1" xmlns="http://www.w3.org/2000/svg" xmlns:xlink="http://www.w3.org/1999/xlink" x="0px" y="0px"
	 width="205.257px" height="191.474px" viewBox="0 0 205.257 191.474" enable-background="new 0 0 205.257 191.474"
	 xml:space="preserve">
<g>
	<path fill-rule="evenodd" clip-rule="evenodd" fill="#83205D" d="M76.736,136.635c-0.961,3.985-4.688,10.46-8.426,12.482
		l-1.651,3.664c-0.063,0.012-0.125,0.013-0.184,0.009c-0.986-0.439,0.01-2.033-0.126-2.963c-0.797,0.511-1.338,2.313-2.312,1.868
		c-0.048-0.046-0.086-0.093-0.123-0.153l1.655-3.658c-0.951-4.145,1.438-11.224,3.786-14.584c3.257-4.609,5.191-11.5,5.191-11.5
		s-10.514,8.637-18.991,14.638c-8.478,6.013-19.852,6.734-28.823-1.425c-0.405-4.961-9.948-10.055-15.701-2.979
		c-1.3,1.6-6.042,5.513-7.354,6.082c-3.948,1.701-3.045-0.663-3.642-1.832c-0.991-1.933,18.667-13.053,18.488-15.061
		c-0.249-2.747,0.142-5.693,0.774-9.2c1.468-8.209,4.74-13.583,8.729-17.323c6.646-6.226,15.277-7.916,20.875-10.593
		c0,0-21.405-15.668-22.112-23.254c-3.264-0.311-11.006-50.451-1.527-60.057c2.167-2.27,8.149,0.711,15.731,3.888
		c19.591,8.215,41.203,27.81,44.3,51.093c1.838,6.488,5.069,13.771,8.156,18.228c7.635,11.036,5.635-19.227,5.303-21.805
		c-0.75-5.831-3.213-10.976-6.367-15.458c-2.442-3.465,1.126-5.266,2.718-1.264c1.935,4.859,3.428,9.07,4.156,14.582
		c0.571,4.312,0.804,9.225,1.023,13.933c0.278,5.972,1.005,4.47,0.6,9.266c3.355-3.509,2.447-1.754,6.968-5.383
		c3.788-3.041,7.769-6.246,11.495-8.75c4.615-3.104,8.759-4.771,13.68-6.543c4.052-1.452,5.073,2.409,0.856,2.878
		c-5.45,0.603-10.938,2.16-15.807,5.455c-2.149,1.459-26.16,19.988-12.837,18.411c5.388-0.638,12.984-3.031,19.066-5.955
		c19.5-13.091,48.496-9.853,67.621-0.604c7.404,3.58,13.588,6.091,13.324,9.212c-0.927,13.466-43.641,40.852-46.03,38.61
		c-6.151,4.487-32.07-1.185-32.07-1.185c1.699,5.964,6.153,13.556,5.882,22.659c-0.162,5.456-2.031,11.47-7.212,18.005
		c-2.201,2.794-4.167,5.033-6.382,6.673c-1.624,1.195,3.05,23.289,0.943,23.823c-1.271,0.323-2.449,2.571-3.783-1.513
		c-0.442-1.363-0.644-7.508-0.306-9.539c1.495-8.993-8.641-12.777-12.624-9.793c-12.054-1.334-19.049-10.345-20.15-20.67
		c-1.107-10.328-1.596-23.922-1.596-23.922S78.04,131.133,76.736,136.635z"/>
	<path fill-rule="evenodd" clip-rule="evenodd" fill="#FF5E79" d="M78.864,122.069c-0.55,0.063-0.925-0.314-1.036-1.313
		c-0.555-5.272,4.091-15.852,7.705-25.324c1.409-3.697,3.718-6.139,4.775-8.326c1.283-2.647,6.048-9.069,7.9-7.929
		c2.083,0.636,0.426,8.456-0.711,11.17c-0.939,2.242-1.245,5.595-3.082,9.09c-4.709,8.984-9.561,19.465-13.883,22.538
		C79.714,122.555,79.184,122.521,78.864,122.069z"/>
	<path fill-rule="evenodd" clip-rule="evenodd" fill="#FF5E79" d="M78.165,123.624c0.782-0.068,1.322,0.68,0.469,3.176
		c0,0-0.127,2.11-2.57,4.559c1.026,0.466-2.046,7.277-3.51,8.011c0.331,1.541-1.092,5.847-4.622,7.968
		c-0.036-0.042-0.098-0.321-0.113-0.777c-0.353,0.288-0.604,0.425-0.657,0.43c-0.747-4.054,1.537-7.97,2.915-8.735
		c-0.422-1.589,2.649-8.395,3.679-7.936c0.22-3.457,1.715-4.945,1.715-4.945C76.777,123.079,77.696,122.993,78.165,123.624z"/>
	<path fill-rule="evenodd" clip-rule="evenodd" fill="#BED630" d="M72.965,117.867c0,0-18.128,15.368-25.207,15.647
		c0,0-15.815-1.731-15.413-3.48c0.404-1.743,2.285-0.338,10.402-2.085l29.696-13.623C75.015,113.713,75.468,114.457,72.965,117.867z
		"/>
	<path fill-rule="evenodd" clip-rule="evenodd" fill="#BED630" d="M85.917,123.71c0,0,0.479,23.762,4.951,29.254
		c0,0,11.764,10.709,12.806,9.249c1.047-1.459-1.248-1.938-5.314-9.181l-9.438-31.275C87.675,119.425,86.817,119.578,85.917,123.71z
		"/>
	<path fill-rule="evenodd" clip-rule="evenodd" fill="#BED630" d="M76.139,109.4c0,0-24.68,11.034-32.008,11.324
		c-3.854,1.623-7.696,3.245-11.548,4.861c0,0-2.623-6.938,2.852-9.505c6.037-1.252,12.072-2.518,18.107-3.773
		c4.103-0.688,8.199-1.381,12.295-2.07C69.273,109.957,72.702,109.684,76.139,109.4z"/>
	<path fill-rule="evenodd" clip-rule="evenodd" fill="#BED630" d="M90.162,115.731c0,0,8.068,25.795,12.697,31.481
		c1.332,3.961,2.663,7.916,4.001,11.877c0,0,6.938-2.624,5.232-8.432c-3.049-5.354-6.102-10.711-9.154-16.074
		c-2.194-3.521-4.384-7.049-6.585-10.583C94.292,121.244,92.225,118.487,90.162,115.731z"/>
	<path fill-rule="evenodd" clip-rule="evenodd" fill="#FFFFFF" d="M40.625,100.616c-1.272,1.999-4.44,4.312-11.106,2.712
		c0,0,5.793-7.078,10.997-9.05c3.607-0.02,6.505,0.563,9.017,2.972C47.164,99.301,42.996,98.563,40.625,100.616z"/>
	<path fill-rule="evenodd" clip-rule="evenodd" fill="#FFFFFF" d="M120.251,136.533c-0.659,2.281-0.292,6.186,5.32,10.126
		c0,0,1.475-9.031-0.494-14.232c-2.373-2.721-4.726-4.511-8.195-4.801C116.912,130.759,120.223,133.403,120.251,136.533z"/>
	<path fill-rule="evenodd" clip-rule="evenodd" fill="#FFFFFF" d="M56.328,95.903c0.334-0.719,6.46-1.771,13.45-2.939
		c6.171-1.033,12.286-1.297,13.669,0.878c2.949,4.628-4.995,5.938-4.995,5.938l-7.723-0.35L56.328,95.903z"/>
	<path fill-rule="evenodd" clip-rule="evenodd" fill="#FFFFFF" d="M113.395,121.644c0.322-0.728-2.947-6.012-6.698-12.026
		c-3.313-5.315-7.162-10.066-9.705-9.666c-5.423,0.852-1.15,7.675-1.15,7.675l5.381,5.557L113.395,121.644z"/>
	<path fill-rule="evenodd" clip-rule="evenodd" fill="#FFFFFF" d="M47.579,91.391c2.17,0.503,3.63,1.121,5.807,1.622
		c3.668-1.229,6.947-1.095,10.612-2.313c0.106-2.956-1.527-4.653-4.898-5.086C53.027,86.461,50.67,88.033,47.579,91.391z"/>
	<path fill-rule="evenodd" clip-rule="evenodd" fill="#FFFFFF" d="M122.569,125.22c-1.813-1.296-3.245-1.989-5.059-3.283
		c-1.514-3.557-3.778-5.93-5.29-9.483c2.144-2.039,4.499-1.933,7.055,0.306C122.661,117.863,123.042,120.677,122.569,125.22z"/>
	<path fill-rule="evenodd" clip-rule="evenodd" fill="#FFFFFF" d="M64.258,83.745c1.284,2.598,2.941,4.853,7.233,4.701
		c4.144,0.912,4.795-0.626,8.941,0.281c-1.053-1.916,3.552-0.838,2.497-2.755C75.654,83.358,68.996,83.401,64.258,83.745z"/>
	<path fill-rule="evenodd" clip-rule="evenodd" fill="#FFFFFF" d="M117.257,107.653c-2.791,0.758-5.585,1.005-8.307-2.313
		c-3.429-2.501-2.702-4.013-6.132-6.518c2.137-0.474-1.722-3.216,0.41-3.693C110.009,98.854,114.379,103.872,117.257,107.653z"/>
	<path fill-rule="evenodd" clip-rule="evenodd" fill="#FF5E79" d="M87.611,74.93c0,0-9.808-18.06-16.703-34.468
		C65.73,28.154,52.93,16.543,43.01,12.961c-7.456-2.694-10.521-0.125-11.761,5.391c-0.596,2.631-0.826,6.311,2.398,12.651
		c3.313,6.537,2.239,4.302,8.278,4.813C46.285,36.193,53,38.673,60.369,48.344c0,0,17.255,24.412,21.95,26.529
		c4.696,2.115,7.364,4.316,7.364,4.316L87.611,74.93z"/>
	<path fill-rule="evenodd" clip-rule="evenodd" fill="#FF5E79" d="M108.414,84.314c0,0,20.025-4.598,36.894-10.294
		c12.648-4.265,29.823-2.354,39.079,2.713c6.952,3.803,7.059,7.804,3.742,12.38c-1.578,2.186-4.19,4.796-11.07,6.582
		c-7.099,1.84-4.702,1.159-9.095-3.027c-3.161-3.011-9.47-6.404-21.593-5.528c0,0-29.714,3.219-34.417,1.102
		c-4.695-2.117-8.104-2.661-8.104-2.661L108.414,84.314z"/>
	<path fill-rule="evenodd" clip-rule="evenodd" fill="#95AF2E" d="M59.566,55.967c0,0-11.117-17.324-20.271-15.464
		c0,0-9.321,4.596,1.402,18.587c5.55,7.243,7.361,5.912,16.033,8.188c5.946,1.563,13.174,4.157,18.291,8.296
		c0,0,10.784,8.52-0.162-4.069L59.566,55.967z"/>
	<path fill-rule="evenodd" clip-rule="evenodd" fill="#95AF2E" d="M141.19,92.785c0,0,20.338-3.132,25.004,4.961
		c0,0,2.725,10.029-14.855,11.248c-9.104,0.632-9.308-1.599-16.753-6.6c-5.109-3.424-11.832-7.124-18.323-8.216
		c0,0-13.527-2.447,3.157-2.572L141.19,92.785z"/>
	<path fill-rule="evenodd" clip-rule="evenodd" fill="#95AF2E" d="M56.752,70.707c0,0-9.249-3.857-8.608-0.976
		c0,0-1.16,10.459,6.761,10.804c0,0,14.186-1.356,17.529-0.17l5.881,2.008c0,0,0.313-2.122-1.564-2.969
		c-1.886-0.851-9.67-4.363-9.67-4.363L56.752,70.707z"/>
	<path fill-rule="evenodd" clip-rule="evenodd" fill="#95AF2E" d="M132.002,104.646c0,0,9.014,4.388,6.428,5.809
		c0,0-7.074,7.795-12.572,2.084c0,0-8.375-11.53-11.476-13.247l-5.395-3.086c0,0,1.385-1.64,3.266-0.792
		c1.876,0.85,9.668,4.361,9.668,4.361L132.002,104.646z"/>
	<path fill-rule="evenodd" clip-rule="evenodd" fill="#FFFFFF" d="M32.88,36.441c-1.01-2.049-1.366-3.628-2.947-5.268
		c-0.292-0.409-3.692,0.857-2.836,3.459c-0.032,1.389-0.936,6.991,2.751,13.454c2.063,3.049,3.963-1.586,3.094-4.976
		c-0.199-2.675,2.25-3.261,1.488-4.285C33.748,38.116,33.562,37.152,32.88,36.441z"/>
	<path fill-rule="evenodd" clip-rule="evenodd" fill="#FFFFFF" d="M173.489,99.866c2.2-0.609,3.616-1.377,5.894-1.276
		c0.498-0.051,1.808,3.333-0.71,4.415c-1.024,0.937-4.624,5.325-11.909,6.847c-3.649,0.462-1.441-4.025,1.682-5.615
		c2.138-1.621,0.959-3.846,2.235-3.953C171.66,100.317,172.5,99.822,173.489,99.866z"/>
	<path fill-rule="evenodd" clip-rule="evenodd" fill="#FFFFFF" d="M35.876,58.794c0.148-0.332,4.901,4.75,7.229,8.167
		c1.158,0.52,3.853,8.744,2.309,8.044c-0.641-0.285-4.003-0.81-6.657-7.267c-1.263-0.98-2.455-2.695-3.051-5.155
		C35.763,61.325,35.818,60.061,35.876,58.794z"/>
	<path fill-rule="evenodd" clip-rule="evenodd" fill="#FFFFFF" d="M154.749,112.417c0.153-0.336-6.804-0.532-10.9-0.017
		c-1.163-0.52-9.114,2.897-7.571,3.596c0.644,0.287,3.266,2.467,9.862,0.181c1.572,0.29,3.642,0.057,5.879-1.129
		C152.931,114.171,153.84,113.291,154.749,112.417z"/>
	<path fill-rule="evenodd" clip-rule="evenodd" fill="#FFFFFF" d="M32.511,51.749c0,0-3.804-1.868-1.691,2.023
		c2.113,3.893,4.259,3.931,4.197,2.357C34.957,54.555,32.436,51.559,32.511,51.749z"/>
	<path fill-rule="evenodd" clip-rule="evenodd" fill="#FFFFFF" d="M162.256,110.279c0,0,3.916,1.607-0.401,2.596
		c-4.312,0.995-5.761-0.58-4.538-1.58C158.54,110.301,162.447,110.206,162.256,110.279z"/>
	<path fill-rule="evenodd" clip-rule="evenodd" fill="#FFFFFF" d="M25.432,27.191c-0.442-2.179-0.705-4.262,0.309-5.773
		c2.662-0.885,3.783,0.276,3.352,3.484c0.174,1.825-0.484,3.277-1.975,4.359C26.29,29.446,25.727,28.753,25.432,27.191z"/>
	<path fill-rule="evenodd" clip-rule="evenodd" fill="#FFFFFF" d="M185.351,99.325c1.919-1.103,3.66-2.289,4.129-4.049
		c-1.105-2.584-2.713-2.654-4.829-0.212c-1.49,1.084-2.146,2.538-1.971,4.368C183.094,100.175,183.982,100.139,185.351,99.325z"/>
	<path fill-rule="evenodd" clip-rule="evenodd" fill="#FFFFFF" d="M31.21,5.535c-1.7-0.209-3.226,1.864-3.275,2.899
		c-0.232,0.991,0.743,5.146,0.743,5.146c1.254-1.192,2.597-2.147,3.282-4.859C32.434,7.749,32.393,6.712,31.21,5.535z"/>
	<path fill-rule="evenodd" clip-rule="evenodd" fill="#FFFFFF" d="M197.76,80.664c1.285,1.132,0.738,3.65-0.006,4.377
		c-0.589,0.827-4.349,2.849-4.349,2.849c0.066-1.73-0.107-3.373,1.466-5.682C195.288,81.208,196.1,80.559,197.76,80.664z"/>
	<path fill-rule="evenodd" clip-rule="evenodd" fill="#BED630" d="M75.092,103.759c-4.314-2.358-18.266-4.262-24.137-3.393
		c-5.867,0.866-12.788,6.34-9.416,8.732c3.372,2.383,12.949,0.065,18.073-1.075c5.133-1.148,10.793-0.9,10.793-0.9
		c2.386,0.018,3.413,1.285,7.177,0.063C81.349,105.962,78.833,101.945,75.092,103.759z"/>
	<path fill-rule="evenodd" clip-rule="evenodd" fill="#BED630" d="M95.091,112.776c4.62,1.669,15.279,10.873,18.513,15.849
		c3.235,4.978,3.714,13.784-0.31,12.837c-4.025-0.944-8.628-9.656-11.162-14.262c-2.536-4.607-6.465-8.687-6.465-8.687
		c-1.6-1.775-3.226-1.701-4.8-5.335C89.292,109.544,93.968,108.772,95.091,112.776z"/>
	<path fill-rule="evenodd" clip-rule="evenodd" fill="#FFFFFF" d="M88.079,82.315c-0.963-1.767-1.118-1.959-3.807-2.08
		c-2.685-0.114-4.477,1.446-0.386,3.296c4.091,1.842,4.036,2.366,4.417,0.714C88.678,82.594,88.079,82.315,88.079,82.315z"/>
	<path fill-rule="evenodd" clip-rule="evenodd" fill="#FFFFFF" d="M102.562,88.854c1.971-0.453,2.218-0.46,4.078,1.477
		c1.863,1.931,1.884,4.309-2.209,2.466c-4.091-1.846-4.447-1.461-3.461-2.837C101.959,88.58,102.562,88.854,102.562,88.854z"/>
	<path fill-rule="evenodd" clip-rule="evenodd" fill="#FFFFFF" d="M38.234,108.88c-0.732-0.895-7.212-2.873-8.41,0.187
		c-1.185,3.05-2.763,3.48-1.141,4.213c0.606,0.273,1.577,1.387,2.48,1.375c1.511-0.027,3.066-1.407,4.051-2.026
		c1.584-0.985-0.471-1.944-0.158-2.152C35.371,110.273,37.605,109.298,38.234,108.88z"/>
	<path fill-rule="evenodd" clip-rule="evenodd" fill="#FFFFFF" d="M115.642,143.799c1.156-0.043,6.93,3.508,5.423,6.421
		c-1.504,2.917-0.772,4.382-2.394,3.646c-0.615-0.275-2.088-0.259-2.677-0.944c-0.984-1.151-0.976-3.231-1.166-4.38
		c-0.309-1.84,1.772-0.933,1.722-1.301C116.494,146.868,115.747,144.543,115.642,143.799z"/>
	<path fill-rule="evenodd" clip-rule="evenodd" fill="#FFFFFF" d="M29.433,120.423c0.093-1.468-1.393-4.034-1.908-3.316
		c-0.511,0.715-2.446,2.486-0.743,4.582c1.704,2.093,0.426,4.921,1.994,3.545C31.049,124.177,29.985,120.672,29.433,120.423z"/>
	<path fill-rule="evenodd" clip-rule="evenodd" fill="#FFFFFF" d="M112.814,158.04c1.042-1.048,3.946-1.628,3.75-0.771
		c-0.193,0.858-0.241,3.488-2.944,3.591c-2.693,0.105-3.974,2.936-3.978,0.853C108.931,159.307,112.266,157.788,112.814,158.04z"/>
</g>
</svg>
