<?xml version="1.0" encoding="utf-8"?>
<!-- Generator: Adobe Illustrator 13.0.0, SVG Export Plug-In . SVG Version: 6.00 Build 14948)  -->
<!DOCTYPE svg PUBLIC "-//W3C//DTD SVG 1.1//EN" "http://www.w3.org/Graphics/SVG/1.1/DTD/svg11.dtd">
<svg version="1.1" id="Layer_1" xmlns="http://www.w3.org/2000/svg" xmlns:xlink="http://www.w3.org/1999/xlink" x="0px" y="0px"
	 width="326.149px" height="229.638px" viewBox="0 0 326.149 229.638" enable-background="new 0 0 326.149 229.638"
	 xml:space="preserve">
<g>
	<g>
		<path fill="#95AF2E" d="M171.337,125.552c0,0,1.545-4.127-3.021-5.852c0,0-3.912-1.563-7.768,0.574
			c0.908,0.582,2.15,2.127,2.793,3.418C164.014,124.979,166.81,128.911,171.337,125.552z"/>
		<path fill="#95AF2E" d="M171.11,125.261c0,0,3.458,3.367,4.307,5.539"/>
	</g>
	<path fill="#95AF2E" d="M173.822,116.758c0,0,3.276-4.384-1.563-8.032c0,0-4.122-3.227-9.467-2.023
		c0.882,1.012,1.823,3.287,2.14,5.047C165.285,113.524,167.248,119.187,173.822,116.758z"/>
	<path fill="#95AF2E" d="M173.648,116.334c0,0,3.682,7.193,4.284,11.009"/>
	<path fill="#95AF2E" d="M196.742,112.928c0,0-0.108-5.473,5.953-5.618c0,0,5.229-0.223,8.869,3.871
		c-1.302,0.309-3.395,1.609-4.679,2.855C205.566,115.272,200.668,118.73,196.742,112.928z"/>
	<path fill="#95AF2E" d="M197.131,112.684c0,0-7.99,4.697-11.145,7.972"/>
	<path fill="#95AF2E" d="M245.881,65.328c0,0,3.441-0.818,2.548-4.63c0,0-0.711-3.307-3.861-4.916
		c0.019,0.865-0.455,2.383-1.023,3.389C242.983,60.197,241.619,63.819,245.881,65.328z"/>
	<path fill="#95AF2E" d="M245.971,65.048c0,0-0.694,3.809-1.763,5.346"/>
	<path fill="#95AF2E" d="M252.849,63.05c0,0,4.388,0.221,4.65-4.636c0,0,0.307-4.19-2.885-7.212
		c-0.282,1.042-1.376,2.688-2.405,3.686C251.183,55.916,248.288,59.757,252.849,63.05z"/>
	<path fill="#95AF2E" d="M253.054,62.745c0,0-3.212,5.765-5.518,7.916"/>
	<path fill="#95AF2E" d="M185.911,148.375c0,0,4.547-9.338,14.904-4.339c0,0,9.023,4.148,11.636,14.203
		c-2.472-0.604-7.128-0.215-10.373,0.779C198.782,159.965,187.525,161.568,185.911,148.375z"/>
	<path fill="#95AF2E" d="M186.778,148.3c0,0-15.86-0.064-23.065,3.063"/>
	<g>
		<path fill="#95AF2E" d="M173.76,156.798c0,0,5.796-5.087,11.45,1.311c0,0,4.986,5.434,3.886,13.068
			c-1.519-1.126-4.819-2.198-7.325-2.449C179.242,168.431,171.076,166.292,173.76,156.798z"/>
		<path fill="#95AF2E" d="M174.376,156.994c0,0-7.656-3.567-11.733-3.606"/>
	</g>
	<path fill="#95AF2E" d="M193.303,84.87c0,0,3.448-3.438-0.348-7.271c0,0-3.214-3.368-8.073-2.994
		c0.646,1.003,1.186,3.128,1.237,4.717C186.199,80.928,187.207,86.167,193.303,84.87z"/>
	<path fill="#95AF2E" d="M193.206,84.478c0,0,2.584,8.043,2.748,12.063"/>
	<path fill="#95AF2E" d="M191.754,91.4c0,0,1.909-2.726-1.1-4.848c0,0-2.566-1.88-5.789-1.05c0.555,0.6,1.173,1.963,1.396,3.024
		C186.509,89.6,187.812,93,191.754,91.4z"/>
	<path fill="#95AF2E" d="M191.643,91.146c0,0,2.692,4.43,3.253,6.751"/>
	<g>
		<path fill="#95AF2E" d="M197.112,86.944c0,0-1.67-2.618,1.226-4.474c0,0,2.469-1.647,5.436-0.743
			c-0.54,0.538-1.168,1.781-1.423,2.764C202.075,85.479,200.723,88.597,197.112,86.944z"/>
		<path fill="#95AF2E" d="M197.228,86.712c0,0-1.892,2.825-2.155,4.447"/>
	</g>
	<g>
		<path fill="#95AF2E" d="M220.278,69.073c0,0-1.669-2.617,1.226-4.474c0,0,2.467-1.649,5.438-0.742
			c-0.542,0.536-1.172,1.782-1.427,2.763C225.241,67.608,223.888,70.726,220.278,69.073z"/>
		<path fill="#95AF2E" d="M220.393,68.842c0,0-1.893,2.825-2.156,4.443"/>
	</g>
	<path fill="#95AF2E" d="M212.758,76.138c0,0,2.154-1.493,0.508-3.887c0,0-1.385-2.091-3.991-2.355
		c0.246,0.592,0.328,1.77,0.205,2.617C209.372,73.371,209.404,76.244,212.758,76.138z"/>
	<path fill="#95AF2E" d="M212.744,75.919c0,0,0.924,4.239,0.479,6.248"/>
	<g>
		<path fill="#95AF2E" d="M235.605,67.826c0,0,2.153-1.493,0.509-3.888c0,0-1.385-2.09-3.995-2.354
			c0.247,0.593,0.331,1.77,0.209,2.618C232.215,65.06,232.249,67.931,235.605,67.826z"/>
		<path fill="#95AF2E" d="M235.588,67.606c0,0,0.551,2.819,0.227,4.168"/>
	</g>
	<path fill="#95AF2E" d="M238.844,94.075c-0.368,0.699-1.239,0.967-1.938,0.598c-0.702-0.37-0.971-1.238-0.602-1.939
		c0.372-0.703,1.241-0.969,1.942-0.6C238.948,92.503,239.215,93.374,238.844,94.075z"/>
	<path fill="#95AF2E" d="M264.083,79.263c-0.369,0.699-1.238,0.969-1.937,0.598c-0.699-0.369-0.971-1.238-0.602-1.938
		c0.371-0.701,1.241-0.97,1.942-0.601C264.188,77.69,264.456,78.56,264.083,79.263z"/>
	<circle fill="#95AF2E" cx="243.244" cy="85.208" r="1.436"/>
	<path fill="#95AF2E" d="M228.029,94.283c-0.367,0.7-1.235,0.968-1.938,0.598c-0.7-0.369-0.968-1.237-0.598-1.938
		c0.37-0.703,1.239-0.97,1.938-0.6C228.132,92.712,228.403,93.581,228.029,94.283z"/>
	<circle fill="#95AF2E" cx="223.715" cy="102.458" r="0.76"/>
	<path fill="#95AF2E" d="M229.329,98.537c-0.195,0.37-0.654,0.512-1.022,0.315c-0.372-0.195-0.514-0.654-0.319-1.023
		c0.197-0.371,0.655-0.514,1.025-0.317C229.383,97.707,229.522,98.166,229.329,98.537z"/>
	<circle fill="#95AF2E" cx="247.345" cy="90.439" r="0.758"/>
	<circle fill="#95AF2E" cx="250.791" cy="77.067" r="0.758"/>
	<circle fill="#95AF2E" cx="249.052" cy="79.931" r="0.76"/>
	<circle fill="#95AF2E" cx="197.957" cy="105.888" r="1.435"/>
	<circle fill="#95AF2E" cx="225.361" cy="106.266" r="1.436"/>
	<path fill="#95AF2E" d="M224.465,91.747c-0.369,0.701-1.236,0.967-1.94,0.598c-0.698-0.369-0.967-1.236-0.596-1.938
		c0.368-0.703,1.238-0.97,1.938-0.602C224.568,90.177,224.837,91.045,224.465,91.747z"/>
	<circle fill="#95AF2E" cx="204.212" cy="120.879" r="1.436"/>
	<circle fill="#95AF2E" cx="197.957" cy="105.888" r="1.435"/>
	<circle fill="#95AF2E" cx="208.314" cy="126.108" r="0.757"/>
	<path fill="#95AF2E" d="M212.43,113.091c-0.195,0.369-0.654,0.512-1.025,0.316s-0.513-0.656-0.316-1.023
		c0.195-0.373,0.655-0.513,1.024-0.318C212.483,112.261,212.625,112.72,212.43,113.091z"/>
	<path fill="#95AF2E" d="M228.388,114.876c-0.194,0.369-0.655,0.512-1.025,0.316c-0.371-0.195-0.51-0.656-0.316-1.023
		c0.196-0.373,0.656-0.516,1.026-0.319C228.442,114.046,228.585,114.505,228.388,114.876z"/>
	<circle fill="#95AF2E" cx="214.235" cy="103.42" r="1.437"/>
	<circle fill="#95AF2E" cx="293.581" cy="129.833" r="0.758"/>
	<path fill="#95AF2E" d="M299.193,125.912c-0.195,0.371-0.652,0.511-1.022,0.314c-0.37-0.194-0.514-0.653-0.318-1.024
		c0.197-0.371,0.656-0.512,1.027-0.316C299.249,125.083,299.391,125.542,299.193,125.912z"/>
	<path fill="#95AF2E" d="M285.367,131.468c-0.368,0.699-1.235,0.967-1.938,0.595c-0.7-0.368-0.97-1.238-0.599-1.937
		c0.371-0.704,1.24-0.97,1.938-0.6C285.469,129.896,285.74,130.765,285.367,131.468z"/>
	<circle fill="#95AF2E" cx="186.39" cy="48.875" r="0.759"/>
	<circle fill="#95AF2E" cx="191.333" cy="44.6" r="0.758"/>
	<circle fill="#95AF2E" cx="188.036" cy="52.682" r="1.437"/>
	<circle fill="#95AF2E" cx="176.906" cy="49.838" r="1.436"/>
	<circle fill="#95AF2E" cx="180.162" cy="99.289" r="0.759"/>
	<path fill="#95AF2E" d="M185.775,95.368c-0.194,0.369-0.651,0.512-1.022,0.316c-0.372-0.197-0.515-0.655-0.319-1.025
		c0.197-0.371,0.657-0.513,1.026-0.316C185.832,94.538,185.97,94.997,185.775,95.368z"/>
	<path fill="#95AF2E" d="M183.077,103.769c-0.367,0.698-1.237,0.966-1.935,0.596c-0.703-0.371-0.974-1.24-0.603-1.938
		c0.37-0.703,1.239-0.971,1.94-0.6C183.18,102.198,183.448,103.065,183.077,103.769z"/>
	<path fill="#95AF2E" d="M171.951,100.923c-0.368,0.699-1.238,0.965-1.941,0.597c-0.699-0.37-0.969-1.239-0.598-1.939
		c0.37-0.701,1.239-0.968,1.939-0.599C172.051,99.353,172.321,100.22,171.951,100.923z"/>
	<path fill="#95AF2E" d="M209.154,54.79c-0.369,0.699-1.236,0.967-1.937,0.598c-0.703-0.369-0.971-1.238-0.603-1.938
		c0.371-0.701,1.24-0.97,1.94-0.602C209.257,53.219,209.525,54.089,209.154,54.79z"/>
	<path fill="#95AF2E" d="M205.509,63.318c-0.197,0.371-0.656,0.511-1.025,0.316c-0.371-0.196-0.513-0.654-0.318-1.024
		c0.194-0.371,0.655-0.512,1.026-0.316C205.56,62.489,205.705,62.948,205.509,63.318z"/>
	<circle fill="#95AF2E" cx="209.781" cy="58.689" r="0.759"/>
	<circle fill="#95AF2E" cx="206.485" cy="66.773" r="1.437"/>
	<circle fill="#95AF2E" cx="204.321" cy="51.583" r="1.435"/>
	<path fill="#95AF2E" d="M196.628,64.597c-0.373,0.7-1.242,0.969-1.943,0.599c-0.697-0.37-0.968-1.239-0.599-1.938
		c0.372-0.704,1.239-0.969,1.939-0.599C196.727,63.028,196.998,63.896,196.628,64.597z"/>
	<circle fill="#95AF2E" cx="256.57" cy="114.263" r="1.436"/>
	<circle fill="#95AF2E" cx="245.756" cy="114.471" r="1.437"/>
	<circle fill="#95AF2E" cx="242.71" cy="123.316" r="0.76"/>
	<circle fill="#95AF2E" cx="247.653" cy="119.042" r="0.759"/>
	<circle fill="#95AF2E" cx="242.193" cy="111.937" r="1.435"/>
	<path fill="#95AF2E" d="M234.498,124.95c-0.368,0.699-1.238,0.969-1.941,0.598c-0.698-0.371-0.968-1.239-0.6-1.939
		c0.373-0.703,1.241-0.969,1.941-0.6C234.6,123.38,234.871,124.247,234.498,124.95z"/>
	<circle fill="#95AF2E" cx="275.744" cy="27.718" r="1.437"/>
	<path fill="#95AF2E" d="M266.199,28.597c-0.37,0.701-1.239,0.971-1.94,0.6c-0.7-0.371-0.969-1.238-0.599-1.941
		c0.37-0.698,1.24-0.968,1.939-0.6C266.299,27.026,266.57,27.896,266.199,28.597z"/>
	<path fill="#95AF2E" d="M262.553,37.128c-0.195,0.369-0.656,0.51-1.025,0.314c-0.371-0.195-0.513-0.654-0.316-1.023
		c0.195-0.373,0.653-0.512,1.024-0.317C262.606,36.296,262.749,36.756,262.553,37.128z"/>
	<circle fill="#95AF2E" cx="266.826" cy="32.497" r="0.758"/>
	<circle fill="#95AF2E" cx="263.528" cy="40.58" r="1.437"/>
	<circle fill="#95AF2E" cx="261.365" cy="25.392" r="1.435"/>
	<path fill="#95AF2E" d="M253.669,38.405c-0.37,0.7-1.237,0.968-1.94,0.598c-0.697-0.371-0.969-1.239-0.6-1.938
		c0.372-0.703,1.24-0.971,1.94-0.601C253.771,36.837,254.041,37.704,253.669,38.405z"/>
	<circle fill="#95AF2E" cx="216.588" cy="111.675" r="0.757"/>
	<path fill="#95AF2E" d="M178.143,131.9c-0.372,0.702-1.239,0.97-1.94,0.599c-0.701-0.369-0.971-1.236-0.6-1.938
		c0.37-0.703,1.24-0.969,1.939-0.6C178.246,130.332,178.511,131.2,178.143,131.9z"/>
	<path fill="#95AF2E" d="M205.546,132.278c-0.368,0.7-1.237,0.969-1.938,0.599s-0.97-1.239-0.6-1.938
		c0.37-0.704,1.239-0.971,1.94-0.603C205.65,130.708,205.919,131.576,205.546,132.278z"/>
	<path fill="#95AF2E" d="M203.384,117.091c-0.37,0.7-1.239,0.967-1.94,0.598c-0.7-0.369-0.97-1.238-0.6-1.938
		c0.371-0.703,1.24-0.971,1.94-0.602C203.485,115.52,203.754,116.39,203.384,117.091z"/>
	<circle fill="#95AF2E" cx="183.129" cy="146.222" r="1.436"/>
	<path fill="#95AF2E" d="M178.143,131.9c-0.372,0.702-1.239,0.97-1.94,0.599c-0.701-0.369-0.971-1.236-0.6-1.938
		c0.37-0.703,1.24-0.969,1.939-0.6C178.246,130.332,178.511,131.2,178.143,131.9z"/>
	<circle fill="#95AF2E" cx="187.23" cy="151.45" r="0.758"/>
	<path fill="#95AF2E" d="M191.345,138.434c-0.194,0.368-0.652,0.512-1.022,0.314c-0.37-0.194-0.513-0.653-0.319-1.022
		c0.198-0.371,0.656-0.512,1.027-0.318C191.401,137.604,191.542,138.063,191.345,138.434z"/>
	<circle fill="#95AF2E" cx="206.635" cy="139.863" r="0.759"/>
	<path fill="#95AF2E" d="M194.42,129.435c-0.371,0.697-1.238,0.967-1.941,0.597c-0.7-0.369-0.966-1.239-0.598-1.938
		c0.37-0.701,1.239-0.969,1.938-0.6C194.52,127.863,194.791,128.731,194.42,129.435z"/>
	<circle fill="#95AF2E" cx="195.507" cy="137.02" r="0.759"/>
	<path fill="#95AF2E" d="M308.678,78.964c-0.194,0.369-0.653,0.512-1.021,0.316c-0.374-0.195-0.516-0.656-0.319-1.025
		c0.196-0.37,0.655-0.512,1.025-0.316C308.733,78.134,308.874,78.593,308.678,78.964z"/>
	<path fill="#95AF2E" d="M297.551,76.117c-0.194,0.37-0.654,0.513-1.022,0.316c-0.37-0.195-0.515-0.655-0.32-1.025
		c0.197-0.37,0.655-0.511,1.026-0.315C297.605,75.288,297.748,75.747,297.551,76.117z"/>
	<path fill="#95AF2E" d="M182.488,175.536c-0.371,0.701-1.236,0.971-1.94,0.598c-0.698-0.369-0.968-1.237-0.598-1.938
		c0.369-0.699,1.238-0.969,1.938-0.6C182.59,173.969,182.858,174.836,182.488,175.536z"/>
	<circle fill="#95AF2E" cx="206.461" cy="160.053" r="1.434"/>
	<path fill="#95AF2E" d="M182.488,175.536c-0.371,0.701-1.236,0.971-1.94,0.598c-0.698-0.369-0.968-1.237-0.598-1.938
		c0.369-0.699,1.238-0.969,1.938-0.6C182.59,173.969,182.858,174.836,182.488,175.536z"/>
	<path fill="#95AF2E" d="M177.075,159.37c-0.368,0.701-1.237,0.969-1.94,0.6c-0.699-0.371-0.968-1.238-0.597-1.94
		s1.237-0.97,1.938-0.6C177.178,157.802,177.448,158.669,177.075,159.37z"/>
	<circle fill="#95AF2E" cx="179.861" cy="169.056" r="0.758"/>
	<circle fill="#95AF2E" cx="168.304" cy="135.845" r="1.435"/>
	<circle fill="#95AF2E" cx="170.662" cy="144.101" r="0.759"/>
	<circle fill="#95AF2E" cx="232.162" cy="77.238" r="1.436"/>
	<path fill="#95AF2E" d="M248.212,103.333c-0.614,1.163-2.056,1.607-3.219,0.995c-1.166-0.614-1.611-2.058-0.998-3.222
		c0.617-1.164,2.059-1.606,3.222-0.992C248.38,100.728,248.827,102.169,248.212,103.333z"/>
	<circle fill="#95AF2E" cx="209.508" cy="96.269" r="2.384"/>
	<circle fill="#95AF2E" cx="155.928" cy="101.117" r="2.384"/>
	<circle fill="#95AF2E" cx="263.256" cy="54.438" r="2.383"/>
	<circle fill="#95AF2E" cx="256.583" cy="148.198" r="2.384"/>
	<path fill="#95AF2E" d="M2.612,133.03c0.16,1.167,33.459,39.121,56.017,45.167c11.583,3.349,37.174,11.409,63.171-0.035
		c20.444-10.167,35.97-15.838,50.372-42.815c14.403-26.977,25.063-44.376,35.759-51.348c10.697-6.973,32.057-22.262,84.921-8.738
		c17.147,4.848,33.298,11.162,33.298,11.162s-33.125-12.414-54.593-14.445c-21.467-2.029-45.355-0.904-58.868,12.104
		c-4.81,3.656-13.552,13.38-18.551,22.277c-5.001,8.898-11.868,22.167-19.603,33.329c-7.735,11.159-31.14,36.607-51.978,40.244
		c-6.011,1.505-31.244,10.433-57.412,1.21C49.838,176.101,29.792,170.035,0,137.979C1.159,135.78,2.612,133.03,2.612,133.03z"/>
	<path fill="#95AF2E" d="M180.6,128.981c0.927-0.219,17.734-6.75,33.332-4.834c16.599,2.035,32.698,9.148,42.631,14.1
		c9.934,4.948,42.949,22.096,51.968,20.951c-4.035,0.377-19.652-2.202-45.998-16.324c-11.447-5.158-19.3-9.896-35.588-14.512
		c-12.813-2.672-34.908-5.086-51.381,8.031C176.714,131.8,180.6,128.981,180.6,128.981z"/>
	<g>
		<g>
			<path fill="none" d="M308.951,124.58c0,0-22.668,5.743-39.797,1.567c-17.134-4.178-34.396-7.822-38.883-8.277
				c-4.483-0.453-35.29-4.174-54.108,14.967"/>
			<path fill="#95AF2E" d="M308.766,123.912c-10.429,2.605-21.523,3.642-32.23,2.75c-9.176-0.764-18.352-3.869-27.33-5.844
				c-6.022-1.325-12.085-2.718-18.2-3.553c-19.274-2.633-41.075,1.051-55.333,15.081c-0.638,0.628,0.343,1.607,0.98,0.98
				c15.338-15.093,38.93-17.616,59.274-13.838c14.958,2.778,29.917,8.232,45.157,8.838c9.294,0.369,19.02-0.822,28.051-3.079
				C310.001,125.032,309.634,123.695,308.766,123.912L308.766,123.912z"/>
		</g>
	</g>
	<g>
		<g>
			<path fill="none" d="M205.413,126.109c0,0,11.354,3.997,15.788,8.338c5.174,5.071,4.074,12.397-3.611,13.769
				c-4.801,0.689-13.534-2.479-11.052-10.384c0.971-2.464,2.629-4.441,5.504-2.899c2.635,1.415,3.355,4.021,2.194,5.692"/>
			<path fill="#95AF2E" d="M205.228,126.777c6.013,2.141,13.785,4.956,17.354,10.559c3.568,5.6-1.737,10.527-7.368,10.233
				c-1.975-0.103-3.879-0.895-5.532-1.921c-1.421-0.882-2.261-2.263-2.741-3.819c-0.044-0.589-0.089-1.178-0.134-1.767
				c0.23-4.576,2.507-4.505,6.83,0.213c-0.397,0.797,0.798,1.5,1.197,0.699c1.395-2.799-0.04-5.042-2.443-6.641
				c-2.956-1.967-5.326,0.656-6.452,3.148c-3.055,6.761,4.473,11.224,10.107,11.517c7.132,0.372,10.748-6.421,7.733-12.363
				c-3.077-6.065-12.193-9.063-18.183-11.194C204.752,125.141,204.392,126.48,205.228,126.777L205.228,126.777z"/>
		</g>
	</g>
	<g>
		<g>
			<path fill="none" d="M255.227,70.031c0,0,4.754-1.373,9.249-5.229c4.492-3.854,11.218-8.873,15.911-7.223
				c3.349,1.073,5.682,6.693-1.366,8.678c-3.548,0.973-7.164,0.37-6.3-3.688c0.654-2.707,2.543-2.325,3.912-1.32"/>
			<path fill="#95AF2E" d="M255.412,70.7c4.012-1.233,7.455-3.637,10.629-6.314c3.423-2.887,7.482-5.896,12.052-6.43
				c2.253-0.263,3.979,1.073,4.714,3.049c-0.241,2.644-1.564,4.171-3.97,4.584c-2.712,1.202-3.563-0.046-2.553-3.742
				c0.773,0.452,1.471-0.747,0.699-1.197c-3.574-2.089-7.401,2.712-4.291,5.385c3.419,2.938,10.362,0.859,11.549-3.504
				c1.13-4.157-4.322-6.602-7.56-5.793c-8.418,2.105-13.433,10.103-21.639,12.625C254.191,69.625,254.554,70.963,255.412,70.7
				L255.412,70.7z"/>
		</g>
	</g>
	<g>
		<path fill="#E48800" d="M299.965,100.116c-0.394-0.086-0.766-0.265-1.125-0.494c0-0.004,0-0.004,0-0.004
			c-0.002-0.004-0.005-0.004-0.01-0.006v0.001c0.002,0.003,0.006,0.005,0.01,0.009c-0.051,0.189-0.113,0.375-0.185,0.55
			c-0.085,0.203-0.184,0.39-0.301,0.554c-0.593,0.834-1.754,1.036-2.572,0.473c-0.093-0.073-0.184-0.15-0.271-0.23
			c-0.063-0.058-0.125-0.115-0.184-0.177c-0.087-0.09-0.17-0.185-0.249-0.286c-0.021-0.021-0.034-0.045-0.053-0.066
			c-0.036-0.048-0.071-0.096-0.107-0.145c-0.257,0.35-0.547,0.642-0.874,0.85c-0.855,0.545-1.997,0.292-2.544-0.564
			c-0.23-0.33-0.376-0.718-0.457-1.142c-0.087,0.05-0.169,0.097-0.251,0.14c-0.108,0.055-0.217,0.102-0.33,0.146
			c-0.064,0.025-0.131,0.047-0.195,0.068c-0.123,0.038-0.246,0.074-0.37,0.1c-0.999,0.161-1.945-0.507-2.129-1.51
			c-0.068-0.369-0.05-0.792,0.016-1.204c-0.412,0.054-0.812,0.06-1.192-0.025c-0.99-0.221-1.608-1.223-1.39-2.215
			c0.036-0.157,0.089-0.312,0.149-0.462c0.039-0.098,0.085-0.191,0.131-0.285c0.03-0.06,0.06-0.117,0.096-0.176
			c0.035-0.063,0.062-0.13,0.101-0.191c-0.271-0.075-0.525-0.174-0.762-0.298c-0.121-0.062-0.237-0.125-0.345-0.202
			c-0.84-0.592-1.043-1.729-0.475-2.57c0.075-0.098,0.155-0.191,0.241-0.283c0.05-0.056,0.104-0.111,0.158-0.164
			c0.08-0.076,0.162-0.149,0.25-0.218c0.078-0.063,0.16-0.122,0.247-0.18c-0.351-0.254-0.639-0.547-0.842-0.896
			c-0.546-0.858-0.294-1.996,0.566-2.543c0.32-0.207,0.71-0.351,1.132-0.434c-0.213-0.37-0.382-0.747-0.455-1.145
			c-0.16-1.001,0.515-1.971,1.522-2.153c0.39-0.068,0.794-0.046,1.208,0.028c-0.051-0.439-0.038-0.84,0.047-1.224
			c0.221-0.993,1.196-1.614,2.19-1.394c0.362,0.078,0.734,0.236,1.09,0.469c0.08-0.282,0.184-0.547,0.313-0.792
			c0.057-0.11,0.118-0.217,0.188-0.317c0.593-0.835,1.729-1.039,2.565-0.449c0.33,0.226,0.621,0.52,0.848,0.875
			c0.278-0.343,0.543-0.616,0.898-0.844c0.857-0.545,1.995-0.293,2.543,0.565c0.202,0.351,0.353,0.713,0.435,1.139
			c0.378-0.22,0.768-0.364,1.162-0.43c0.982-0.188,1.951,0.483,2.133,1.49c0.031,0.175,0.041,0.352,0.04,0.53
			c-0.001,0.023,0.001,0.048,0,0.072c-0.007,0.199-0.031,0.402-0.065,0.605c0.438-0.053,0.836-0.037,1.224,0.047
			c0.992,0.221,1.616,1.199,1.395,2.191c-0.083,0.385-0.243,0.752-0.478,1.129c0.408,0.107,0.785,0.26,1.109,0.486
			c0.834,0.591,1.034,1.754,0.443,2.588c-0.08,0.111-0.173,0.221-0.273,0.326c-0.028,0.03-0.054,0.06-0.082,0.089
			c-0.105,0.103-0.219,0.204-0.342,0.3c-0.008,0.006-0.016,0.012-0.026,0.018c-0.048,0.039-0.098,0.078-0.151,0.117
			c0.353,0.254,0.644,0.548,0.849,0.873c0.549,0.857,0.294,1.996-0.565,2.541c-0.331,0.234-0.716,0.377-1.144,0.46
			c0.229,0.356,0.371,0.743,0.436,1.138c0.184,1.008-0.484,1.952-1.49,2.137c-0.129,0.021-0.26,0.032-0.394,0.037
			c-0.271,0.01-0.544-0.008-0.821-0.054c0.013,0.093,0.008,0.183,0.016,0.272c0,0.027,0.002,0.051,0.002,0.077
			c0.005,0.13,0.008,0.263,0,0.391c-0.008,0.159-0.024,0.317-0.059,0.471C301.941,99.69,300.958,100.337,299.965,100.116z"/>
		<path fill-rule="evenodd" clip-rule="evenodd" fill="#BED630" d="M288.408,95.667c0.284,0.063,0.606,0.054,0.939,0.007
			c-0.055,0.329-0.068,0.668-0.013,0.96c0.144,0.792,0.889,1.32,1.678,1.193c0.318-0.07,0.624-0.184,0.902-0.361
			c0.066,0.336,0.179,0.641,0.361,0.902c0.432,0.677,1.328,0.875,2.007,0.443c0.257-0.164,0.486-0.393,0.687-0.668
			c0.198,0.284,0.429,0.515,0.685,0.712c0.646,0.445,1.561,0.286,2.028-0.372c0.173-0.242,0.3-0.554,0.375-0.879
			c0.298,0.188,0.587,0.33,0.892,0.4c0.785,0.173,1.56-0.337,1.732-1.12c0.068-0.306,0.077-0.626,0.03-0.956
			c0.33,0.053,0.649,0.063,0.96,0.012c0.796-0.144,1.318-0.889,1.174-1.682c-0.051-0.312-0.162-0.619-0.342-0.898
			c0.337-0.066,0.644-0.178,0.903-0.361c0.674-0.43,0.874-1.328,0.442-2.004c-0.162-0.257-0.393-0.488-0.666-0.691
			c0.283-0.195,0.512-0.426,0.687-0.668c0.466-0.658,0.311-1.572-0.35-2.039c-0.258-0.18-0.554-0.305-0.878-0.375
			c0.188-0.3,0.313-0.594,0.38-0.898c0.175-0.785-0.318-1.555-1.101-1.729c-0.307-0.067-0.624-0.076-0.973-0.034
			c0.07-0.326,0.082-0.645,0.031-0.955c-0.145-0.794-0.909-1.325-1.684-1.176c-0.314,0.052-0.62,0.165-0.916,0.339
			c-0.066-0.336-0.186-0.622-0.343-0.898c-0.431-0.676-1.328-0.876-2.005-0.445c-0.282,0.18-0.489,0.395-0.708,0.666
			c-0.18-0.279-0.409-0.512-0.669-0.689c-0.66-0.467-1.555-0.305-2.023,0.354c-0.178,0.262-0.304,0.554-0.395,0.875
			c-0.277-0.185-0.573-0.309-0.86-0.371c-0.781-0.174-1.552,0.316-1.726,1.098c-0.066,0.307-0.077,0.625-0.036,0.976
			c-0.323-0.071-0.644-0.081-0.953-0.032c-0.794,0.145-1.324,0.908-1.198,1.699c0.074,0.296,0.186,0.604,0.36,0.902
			c-0.337,0.066-0.641,0.178-0.898,0.342c-0.677,0.431-0.875,1.328-0.441,2.006c0.158,0.273,0.388,0.507,0.66,0.709
			c-0.278,0.177-0.51,0.406-0.705,0.662c-0.448,0.664-0.286,1.561,0.369,2.027c0.264,0.178,0.558,0.303,0.877,0.396
			c-0.182,0.276-0.307,0.571-0.376,0.877C287.135,94.702,287.624,95.493,288.408,95.667z"/>
		<path fill-rule="evenodd" clip-rule="evenodd" fill="#FFFFFF" d="M290.144,94.243c0.213,0.047,0.45,0.04,0.699,0.006
			c-0.039,0.244-0.051,0.494-0.01,0.713c0.108,0.588,0.659,0.98,1.247,0.887c0.235-0.054,0.462-0.138,0.67-0.27
			c0.05,0.249,0.133,0.479,0.27,0.67c0.319,0.502,0.987,0.652,1.489,0.33c0.191-0.121,0.362-0.29,0.512-0.496
			c0.148,0.211,0.316,0.383,0.507,0.53c0.479,0.33,1.161,0.212,1.509-0.277c0.129-0.182,0.224-0.411,0.276-0.653
			c0.224,0.139,0.438,0.244,0.664,0.297c0.583,0.129,1.159-0.251,1.286-0.832c0.054-0.229,0.058-0.464,0.025-0.71
			c0.242,0.038,0.479,0.048,0.71,0.009c0.593-0.106,0.981-0.66,0.873-1.25c-0.039-0.23-0.121-0.459-0.255-0.667
			c0.25-0.049,0.478-0.133,0.672-0.268c0.502-0.321,0.649-0.987,0.33-1.49c-0.122-0.191-0.292-0.363-0.498-0.512
			c0.212-0.147,0.384-0.317,0.513-0.497c0.348-0.489,0.229-1.172-0.258-1.518c-0.195-0.132-0.414-0.225-0.653-0.277
			c0.138-0.223,0.231-0.441,0.28-0.668c0.129-0.582-0.234-1.154-0.817-1.283c-0.225-0.051-0.463-0.058-0.723-0.026
			c0.053-0.241,0.061-0.477,0.023-0.709c-0.107-0.59-0.676-0.983-1.251-0.872c-0.232,0.037-0.458,0.121-0.681,0.25
			c-0.05-0.248-0.139-0.461-0.254-0.667c-0.323-0.503-0.988-0.651-1.49-0.331c-0.209,0.135-0.361,0.293-0.526,0.496
			c-0.132-0.209-0.304-0.381-0.497-0.513c-0.49-0.347-1.155-0.228-1.503,0.261c-0.134,0.195-0.227,0.412-0.295,0.651
			c-0.206-0.137-0.423-0.229-0.637-0.276c-0.582-0.129-1.154,0.236-1.284,0.818c-0.049,0.227-0.057,0.461-0.023,0.723
			c-0.242-0.054-0.479-0.061-0.71-0.023c-0.593,0.107-0.985,0.676-0.891,1.262c0.054,0.223,0.139,0.449,0.269,0.67
			c-0.251,0.049-0.478,0.133-0.668,0.254c-0.503,0.322-0.649,0.987-0.327,1.49c0.115,0.205,0.283,0.378,0.492,0.527
			c-0.209,0.133-0.38,0.303-0.527,0.492c-0.331,0.493-0.212,1.16,0.276,1.508c0.194,0.129,0.413,0.223,0.649,0.292
			c-0.135,0.208-0.227,0.425-0.277,0.651C289.202,93.526,289.562,94.113,290.144,94.243z"/>
		<g>
			<g>
				<path fill="#FF5E79" d="M295.337,89.526c0,0,0.168-0.604,0.258-1.342c0.051-0.412,0.095-0.867,0.046-1.277
					c-0.081-0.663-0.28-1.264-0.821-1.326c0,0-0.231-0.006-0.398,0.172c-0.074,0.079-0.209,0.217-0.247,0.529
					c-0.056,0.438-0.017,1.031,0.494,2.106C294.832,88.729,295.058,89.104,295.337,89.526z"/>
				<path fill="#FF5E79" d="M295.94,90.244c0,0,0.615,0.122,1.317,0.368c0.391,0.138,0.816,0.305,1.161,0.532
					c0.559,0.366,1.004,0.815,0.821,1.325c0,0-0.098,0.211-0.334,0.281c-0.103,0.03-0.286,0.088-0.582-0.015
					c-0.417-0.146-0.931-0.447-1.663-1.386C296.426,91.054,296.195,90.683,295.94,90.244z"/>
				<path fill="#FF5E79" d="M295.948,89.919c0,0,0.61,0.152,1.352,0.227c0.411,0.041,0.868,0.073,1.276,0.013
					c0.662-0.095,1.257-0.312,1.306-0.851c0,0,0.002-0.234-0.181-0.396c-0.08-0.07-0.222-0.202-0.534-0.234
					c-0.439-0.045-1.031,0.01-2.094,0.547C296.737,89.395,296.366,89.628,295.948,89.919z"/>
				<path fill="#FF5E79" d="M295.732,89.593c0,0,0.556-0.295,1.158-0.734c0.334-0.243,0.693-0.523,0.96-0.842
					c0.427-0.512,0.726-1.07,0.401-1.505c0,0-0.154-0.175-0.399-0.175c-0.105,0.002-0.298-0.002-0.555,0.184
					c-0.354,0.259-0.761,0.693-1.192,1.804C295.968,88.677,295.85,89.098,295.732,89.593z"/>
				<path fill="#FF5E79" d="M295.013,89.667c0,0-0.621-0.085-1.338-0.289c-0.398-0.113-0.832-0.254-1.19-0.461
					c-0.578-0.333-1.051-0.754-0.897-1.273c0,0,0.085-0.219,0.314-0.3c0.098-0.038,0.279-0.106,0.581-0.021
					c0.425,0.121,0.956,0.389,1.744,1.282C294.478,88.89,294.736,89.243,295.013,89.667z"/>
				<path fill="#FF5E79" d="M295.595,90.421c0,0-0.149,0.61-0.221,1.352c-0.039,0.412-0.067,0.867-0.006,1.277
					c0.101,0.66,0.319,1.254,0.859,1.301c0,0,0.233,0,0.396-0.186c0.072-0.08,0.201-0.223,0.229-0.535
					c0.043-0.439-0.016-1.031-0.559-2.09C296.123,91.203,295.886,90.835,295.595,90.421z"/>
				<path fill="#FF5E79" d="M295.192,90.354c0,0-0.091,0.619-0.305,1.331c-0.118,0.398-0.263,0.831-0.474,1.187
					c-0.34,0.576-0.767,1.041-1.284,0.883c0,0-0.216-0.088-0.296-0.32c-0.036-0.1-0.104-0.28-0.016-0.582
					c0.129-0.424,0.401-0.949,1.305-1.728C294.409,90.88,294.766,90.627,295.192,90.354z"/>
				<path fill="#FF5E79" d="M294.951,90.013c0,0-0.479,0.407-1.107,0.804c-0.352,0.221-0.745,0.452-1.138,0.58
					c-0.634,0.21-1.262,0.282-1.548-0.18c0,0-0.104-0.208-0.013-0.435c0.038-0.1,0.108-0.281,0.372-0.447
					c0.374-0.238,0.928-0.453,2.118-0.445C294.013,89.894,294.449,89.938,294.951,90.013z"/>
			</g>
		</g>
	</g>
	<g>
		<path fill="#E48800" d="M167.778,96.154c-0.618-0.136-1.203-0.417-1.768-0.78c0-0.004,0-0.004,0-0.004
			c-0.006-0.006-0.011-0.008-0.017-0.012c0,0,0,0.002-0.002,0.004c0.007,0.003,0.011,0.006,0.019,0.012
			c-0.083,0.301-0.178,0.592-0.294,0.868c-0.131,0.319-0.287,0.614-0.471,0.872c-0.935,1.313-2.765,1.63-4.051,0.744
			c-0.148-0.115-0.293-0.236-0.431-0.365c-0.099-0.088-0.195-0.178-0.288-0.277c-0.137-0.14-0.268-0.291-0.394-0.448
			c-0.031-0.034-0.054-0.073-0.082-0.106c-0.057-0.074-0.113-0.15-0.172-0.228c-0.402,0.552-0.863,1.011-1.375,1.338
			c-1.352,0.858-3.146,0.461-4.008-0.889c-0.363-0.519-0.59-1.132-0.721-1.797c-0.133,0.075-0.263,0.152-0.396,0.22
			c-0.17,0.086-0.34,0.161-0.515,0.229c-0.104,0.043-0.209,0.074-0.313,0.109c-0.189,0.059-0.385,0.115-0.581,0.157
			c-1.573,0.252-3.063-0.8-3.354-2.382c-0.107-0.58-0.079-1.244,0.022-1.894c-0.647,0.085-1.277,0.092-1.875-0.04
			c-1.564-0.348-2.535-1.926-2.189-3.489c0.057-0.249,0.139-0.491,0.235-0.728c0.06-0.153,0.132-0.302,0.205-0.45
			c0.047-0.093,0.098-0.185,0.15-0.276c0.054-0.099,0.098-0.203,0.159-0.303c-0.427-0.119-0.826-0.274-1.202-0.468
			c-0.19-0.095-0.373-0.197-0.544-0.317c-1.319-0.933-1.64-2.727-0.745-4.051c0.118-0.154,0.246-0.302,0.38-0.445
			c0.079-0.088,0.163-0.176,0.251-0.26c0.125-0.12,0.255-0.234,0.393-0.342c0.122-0.099,0.253-0.193,0.387-0.283
			c-0.548-0.4-1.006-0.861-1.322-1.41c-0.862-1.352-0.465-3.145,0.888-4.007c0.51-0.326,1.119-0.552,1.789-0.685
			c-0.34-0.58-0.603-1.176-0.719-1.802c-0.251-1.577,0.809-3.104,2.396-3.391c0.614-0.108,1.254-0.074,1.906,0.044
			c-0.084-0.691-0.063-1.322,0.07-1.928c0.348-1.564,1.886-2.543,3.452-2.197c0.571,0.127,1.155,0.375,1.717,0.74
			c0.123-0.444,0.288-0.861,0.494-1.248c0.087-0.173,0.183-0.341,0.296-0.5c0.929-1.314,2.721-1.637,4.035-0.705
			c0.522,0.354,0.98,0.816,1.339,1.377c0.44-0.541,0.855-0.971,1.413-1.329c1.354-0.86,3.145-0.462,4.009,0.891
			c0.317,0.551,0.552,1.122,0.685,1.792c0.596-0.348,1.207-0.572,1.828-0.676c1.547-0.295,3.076,0.761,3.364,2.348
			c0.048,0.274,0.063,0.554,0.06,0.836c-0.002,0.038,0,0.074,0.001,0.113c-0.009,0.313-0.049,0.635-0.104,0.955
			c0.691-0.082,1.318-0.059,1.927,0.074c1.566,0.346,2.548,1.887,2.197,3.451c-0.132,0.605-0.382,1.184-0.748,1.777
			c0.641,0.17,1.236,0.408,1.746,0.765c1.313,0.933,1.627,2.763,0.697,4.077c-0.126,0.177-0.272,0.348-0.43,0.514
			c-0.044,0.049-0.085,0.096-0.13,0.14c-0.166,0.165-0.349,0.323-0.54,0.474c-0.012,0.009-0.024,0.02-0.038,0.027
			c-0.078,0.063-0.154,0.125-0.239,0.184c0.551,0.402,1.011,0.864,1.338,1.376c0.86,1.353,0.462,3.146-0.893,4.005
			c-0.52,0.368-1.127,0.592-1.802,0.723c0.358,0.562,0.585,1.172,0.687,1.793c0.287,1.588-0.762,3.076-2.349,3.365
			c-0.202,0.035-0.411,0.051-0.622,0.059c-0.425,0.016-0.853-0.012-1.293-0.084c0.021,0.147,0.014,0.285,0.024,0.43
			c0.001,0.041,0.004,0.08,0.007,0.12c0.007,0.207,0.013,0.415,0,0.616c-0.015,0.251-0.042,0.5-0.093,0.741
			C170.892,95.483,169.345,96.502,167.778,96.154z"/>
		<path fill-rule="evenodd" clip-rule="evenodd" fill="#BED630" d="M149.574,89.144c0.447,0.102,0.957,0.086,1.481,0.012
			c-0.087,0.519-0.108,1.052-0.021,1.511c0.229,1.249,1.399,2.081,2.646,1.882c0.498-0.111,0.98-0.287,1.419-0.569
			c0.103,0.528,0.282,1.009,0.569,1.421c0.681,1.065,2.094,1.38,3.161,0.699c0.402-0.258,0.765-0.617,1.084-1.053
			c0.312,0.447,0.675,0.811,1.078,1.123c1.015,0.699,2.457,0.449,3.191-0.587c0.275-0.382,0.477-0.873,0.593-1.385
			c0.468,0.296,0.926,0.521,1.405,0.63c1.235,0.273,2.455-0.529,2.728-1.764c0.107-0.482,0.121-0.984,0.05-1.506
			c0.517,0.082,1.019,0.1,1.511,0.02c1.251-0.227,2.077-1.401,1.852-2.652c-0.084-0.488-0.26-0.973-0.542-1.412
			c0.53-0.104,1.012-0.281,1.424-0.569c1.063-0.679,1.378-2.095,0.7-3.16c-0.259-0.403-0.621-0.768-1.053-1.087
			c0.445-0.309,0.809-0.671,1.083-1.053c0.735-1.037,0.486-2.478-0.55-3.214c-0.409-0.281-0.873-0.477-1.383-0.59
			c0.295-0.472,0.491-0.935,0.597-1.415c0.274-1.234-0.499-2.447-1.733-2.722c-0.479-0.107-0.981-0.122-1.535-0.054
			c0.113-0.514,0.133-1.016,0.05-1.506c-0.228-1.25-1.43-2.086-2.649-1.852c-0.494,0.08-0.976,0.259-1.446,0.533
			c-0.102-0.529-0.288-0.979-0.538-1.414c-0.678-1.065-2.093-1.381-3.158-0.7c-0.442,0.28-0.77,0.618-1.115,1.048
			c-0.282-0.44-0.644-0.806-1.053-1.086c-1.04-0.736-2.452-0.48-3.188,0.556c-0.279,0.412-0.479,0.872-0.62,1.379
			c-0.439-0.289-0.903-0.484-1.354-0.585c-1.234-0.273-2.444,0.5-2.72,1.73c-0.106,0.484-0.123,0.983-0.06,1.537
			c-0.507-0.115-1.011-0.129-1.5-0.052c-1.251,0.228-2.086,1.433-1.886,2.675c0.113,0.469,0.292,0.952,0.567,1.422
			c-0.532,0.104-1.01,0.281-1.414,0.538c-1.068,0.68-1.38,2.095-0.698,3.16c0.249,0.434,0.607,0.8,1.045,1.117
			c-0.44,0.28-0.805,0.641-1.117,1.047c-0.705,1.041-0.448,2.456,0.587,3.19c0.411,0.282,0.875,0.479,1.378,0.622
			c-0.285,0.438-0.483,0.902-0.591,1.383C147.571,87.626,148.339,88.871,149.574,89.144z"/>
		<path fill-rule="evenodd" clip-rule="evenodd" fill="#FFFFFF" d="M152.309,86.901c0.335,0.074,0.711,0.064,1.1,0.01
			c-0.06,0.385-0.077,0.781-0.013,1.121c0.17,0.928,1.041,1.547,1.965,1.398c0.369-0.084,0.727-0.215,1.057-0.424
			c0.074,0.393,0.207,0.752,0.423,1.057c0.504,0.789,1.553,1.025,2.344,0.52c0.303-0.191,0.571-0.459,0.809-0.782
			c0.231,0.331,0.499,0.601,0.8,0.834c0.753,0.521,1.825,0.335,2.373-0.437c0.201-0.284,0.354-0.648,0.438-1.029
			c0.351,0.219,0.688,0.387,1.047,0.467c0.917,0.205,1.824-0.393,2.026-1.309c0.08-0.359,0.089-0.732,0.036-1.119
			c0.384,0.062,0.757,0.075,1.122,0.016c0.93-0.168,1.545-1.041,1.376-1.972c-0.063-0.362-0.191-0.722-0.402-1.05
			c0.394-0.077,0.751-0.21,1.058-0.422c0.79-0.506,1.024-1.557,0.52-2.348c-0.191-0.3-0.46-0.57-0.782-0.807
			c0.332-0.232,0.603-0.5,0.806-0.783c0.547-0.77,0.361-1.844-0.406-2.391c-0.307-0.207-0.653-0.352-1.03-0.437
			c0.218-0.351,0.364-0.692,0.443-1.05c0.202-0.919-0.37-1.818-1.288-2.022c-0.356-0.08-0.73-0.091-1.14-0.042
			c0.083-0.38,0.097-0.752,0.036-1.118c-0.167-0.928-1.064-1.548-1.969-1.375c-0.365,0.062-0.724,0.193-1.073,0.396
			c-0.077-0.392-0.215-0.728-0.399-1.05c-0.507-0.793-1.558-1.027-2.349-0.521c-0.326,0.209-0.569,0.461-0.828,0.778
			c-0.207-0.327-0.478-0.599-0.783-0.808c-0.771-0.545-1.82-0.355-2.366,0.414c-0.21,0.307-0.356,0.648-0.463,1.025
			c-0.327-0.216-0.668-0.361-1.007-0.436c-0.916-0.205-1.815,0.371-2.02,1.289c-0.081,0.355-0.094,0.727-0.042,1.138
			c-0.38-0.084-0.754-0.095-1.117-0.038c-0.932,0.17-1.551,1.066-1.402,1.988c0.087,0.35,0.22,0.707,0.425,1.057
			c-0.396,0.076-0.751,0.209-1.052,0.4c-0.794,0.506-1.023,1.555-0.519,2.348c0.184,0.322,0.45,0.594,0.775,0.83
			c-0.328,0.208-0.596,0.476-0.831,0.777c-0.521,0.774-0.333,1.825,0.438,2.371c0.306,0.207,0.651,0.354,1.023,0.461
			c-0.214,0.326-0.357,0.672-0.44,1.027C150.822,85.774,151.392,86.698,152.309,86.901z"/>
		<g>
			<g>
				<path fill="#FF5E79" d="M160.492,79.473c0,0,0.262-0.954,0.406-2.114c0.081-0.649,0.148-1.365,0.071-2.014
					c-0.126-1.045-0.442-1.988-1.292-2.088c0,0-0.367-0.012-0.63,0.271c-0.115,0.123-0.329,0.341-0.39,0.833
					c-0.089,0.688-0.024,1.623,0.781,3.316C159.697,78.215,160.05,78.807,160.492,79.473z"/>
				<path fill="#FF5E79" d="M161.439,80.603c0,0,0.971,0.191,2.074,0.58c0.616,0.217,1.287,0.479,1.833,0.837
					c0.879,0.58,1.58,1.286,1.289,2.089c0,0-0.154,0.334-0.522,0.441c-0.162,0.049-0.451,0.141-0.919-0.022
					c-0.656-0.229-1.464-0.704-2.618-2.182C162.208,81.877,161.837,81.294,161.439,80.603z"/>
				<path fill="#FF5E79" d="M161.455,80.091c0,0,0.96,0.238,2.126,0.356c0.649,0.065,1.366,0.114,2.013,0.021
					c1.041-0.15,1.977-0.49,2.057-1.342c0,0,0.001-0.367-0.289-0.623c-0.123-0.111-0.347-0.318-0.841-0.369
					c-0.69-0.071-1.623,0.015-3.296,0.861C162.692,79.265,162.111,79.633,161.455,80.091z"/>
				<path fill="#FF5E79" d="M161.113,79.573c0,0,0.874-0.461,1.821-1.152c0.528-0.385,1.094-0.826,1.514-1.328
					c0.674-0.808,1.143-1.684,0.633-2.371c0,0-0.24-0.275-0.628-0.273c-0.167,0-0.471-0.005-0.872,0.288
					c-0.562,0.407-1.199,1.094-1.882,2.841C161.483,78.134,161.296,78.796,161.113,79.573z"/>
				<path fill="#FF5E79" d="M159.98,79.692c0,0-0.979-0.133-2.107-0.453c-0.627-0.18-1.312-0.4-1.877-0.727
					c-0.913-0.525-1.655-1.188-1.413-2.008c0,0,0.132-0.341,0.496-0.473c0.157-0.059,0.44-0.166,0.918-0.031
					c0.668,0.19,1.504,0.614,2.745,2.02C159.136,78.468,159.541,79.026,159.98,79.692z"/>
				<path fill="#FF5E79" d="M160.894,80.882c0,0-0.232,0.959-0.343,2.127c-0.063,0.65-0.107,1.367-0.011,2.013
					c0.158,1.041,0.505,1.974,1.355,2.049c0,0,0.366-0.001,0.621-0.29c0.112-0.127,0.316-0.352,0.364-0.845
					c0.065-0.691-0.024-1.623-0.882-3.291C161.727,82.114,161.357,81.533,160.894,80.882z"/>
				<path fill="#FF5E79" d="M160.264,80.774c0,0-0.146,0.977-0.481,2.1c-0.187,0.625-0.416,1.309-0.748,1.868
					c-0.536,0.907-1.207,1.642-2.024,1.392c0,0-0.34-0.14-0.467-0.504c-0.054-0.158-0.162-0.443-0.021-0.919
					c0.199-0.665,0.633-1.495,2.054-2.72C159.027,81.603,159.591,81.205,160.264,80.774z"/>
				<path fill="#FF5E79" d="M159.881,80.237c0,0-0.753,0.642-1.745,1.268c-0.551,0.347-1.172,0.711-1.791,0.914
					c-1,0.33-1.989,0.442-2.438-0.285c0,0-0.166-0.327-0.022-0.686c0.063-0.154,0.17-0.439,0.59-0.705
					c0.587-0.371,1.459-0.71,3.334-0.697C158.405,80.049,159.091,80.12,159.881,80.237z"/>
			</g>
		</g>
	</g>
	<g>
		<g>
			<path fill="#3EBDD4" d="M247.01,115.163c-0.619-0.136-1.203-0.416-1.77-0.78c0-0.003,0-0.005,0-0.005
				c-0.006-0.004-0.011-0.006-0.016-0.01v0.002c0.005,0.004,0.008,0.008,0.016,0.013c-0.08,0.302-0.178,0.593-0.294,0.869
				c-0.131,0.318-0.285,0.614-0.47,0.872c-0.936,1.313-2.766,1.63-4.052,0.744c-0.147-0.115-0.291-0.238-0.429-0.365
				c-0.101-0.089-0.196-0.179-0.289-0.276c-0.138-0.142-0.269-0.292-0.394-0.448c-0.029-0.035-0.055-0.072-0.083-0.107
				c-0.056-0.076-0.113-0.149-0.17-0.228c-0.404,0.552-0.865,1.011-1.377,1.338c-1.352,0.858-3.146,0.462-4.007-0.889
				c-0.364-0.519-0.591-1.132-0.721-1.798c-0.132,0.076-0.264,0.152-0.397,0.221c-0.169,0.086-0.339,0.162-0.515,0.229
				c-0.103,0.043-0.209,0.074-0.312,0.107c-0.19,0.061-0.385,0.118-0.582,0.159c-1.572,0.251-3.063-0.801-3.353-2.382
				c-0.107-0.581-0.079-1.244,0.022-1.895c-0.648,0.086-1.276,0.093-1.875-0.04c-1.563-0.347-2.537-1.925-2.189-3.489
				c0.057-0.248,0.138-0.49,0.234-0.729c0.06-0.152,0.132-0.301,0.206-0.447c0.048-0.094,0.097-0.186,0.149-0.278
				c0.054-0.098,0.098-0.201,0.159-0.302c-0.427-0.119-0.826-0.274-1.202-0.468c-0.188-0.096-0.37-0.198-0.543-0.317
				c-1.317-0.934-1.64-2.727-0.746-4.051c0.121-0.155,0.247-0.303,0.381-0.445c0.08-0.089,0.162-0.176,0.251-0.262
				c0.124-0.117,0.254-0.231,0.393-0.342c0.121-0.098,0.254-0.191,0.386-0.281c-0.548-0.4-1.004-0.862-1.322-1.41
				c-0.861-1.354-0.465-3.145,0.888-4.008c0.51-0.326,1.119-0.551,1.789-0.684c-0.34-0.58-0.603-1.176-0.719-1.803
				c-0.251-1.576,0.811-3.104,2.396-3.391c0.615-0.107,1.255-0.073,1.907,0.044c-0.082-0.692-0.063-1.323,0.072-1.927
				c0.345-1.565,1.884-2.544,3.449-2.197c0.571,0.126,1.155,0.375,1.718,0.74c0.122-0.444,0.287-0.861,0.493-1.249
				c0.088-0.171,0.183-0.341,0.296-0.499c0.929-1.314,2.72-1.637,4.035-0.705c0.522,0.355,0.982,0.817,1.339,1.377
				c0.439-0.541,0.856-0.971,1.415-1.33c1.353-0.859,3.143-0.46,4.007,0.891c0.317,0.552,0.552,1.123,0.685,1.793
				c0.596-0.347,1.207-0.572,1.828-0.676c1.547-0.295,3.079,0.76,3.364,2.348c0.048,0.274,0.063,0.554,0.061,0.837
				c-0.004,0.036,0.001,0.073,0.001,0.112c-0.01,0.313-0.049,0.635-0.105,0.955c0.692-0.082,1.32-0.061,1.927,0.074
				c1.566,0.346,2.548,1.887,2.198,3.451c-0.133,0.605-0.383,1.183-0.748,1.777c0.641,0.169,1.235,0.408,1.745,0.766
				c1.314,0.933,1.628,2.762,0.697,4.076c-0.126,0.178-0.271,0.346-0.43,0.514c-0.042,0.048-0.083,0.095-0.131,0.141
				c-0.163,0.162-0.347,0.322-0.538,0.473c-0.012,0.009-0.025,0.02-0.039,0.027c-0.077,0.061-0.154,0.125-0.239,0.185
				c0.551,0.4,1.012,0.862,1.338,1.374c0.862,1.354,0.463,3.146-0.893,4.006c-0.52,0.367-1.127,0.592-1.802,0.723
				c0.359,0.563,0.586,1.172,0.686,1.793c0.29,1.588-0.761,3.075-2.347,3.365c-0.202,0.035-0.412,0.05-0.621,0.058
				c-0.425,0.017-0.854-0.012-1.294-0.083c0.02,0.146,0.015,0.285,0.024,0.428c0,0.043,0.003,0.081,0.005,0.121
				c0.01,0.207,0.014,0.416,0,0.617c-0.013,0.25-0.039,0.499-0.092,0.742C250.123,114.491,248.576,115.511,247.01,115.163z"/>
			<path fill-rule="evenodd" clip-rule="evenodd" fill="#BED630" d="M228.804,108.153c0.447,0.102,0.957,0.086,1.482,0.012
				c-0.088,0.518-0.108,1.051-0.021,1.512c0.227,1.248,1.398,2.079,2.644,1.879c0.499-0.109,0.98-0.286,1.42-0.568
				c0.102,0.529,0.281,1.01,0.569,1.422c0.682,1.064,2.093,1.381,3.16,0.699c0.404-0.258,0.766-0.617,1.084-1.053
				c0.312,0.447,0.675,0.811,1.078,1.122c1.017,0.7,2.457,0.45,3.194-0.587c0.272-0.382,0.477-0.873,0.59-1.385
				c0.47,0.297,0.926,0.521,1.406,0.629c1.234,0.275,2.454-0.527,2.727-1.762c0.108-0.483,0.121-0.984,0.051-1.506
				c0.516,0.082,1.018,0.099,1.511,0.02c1.251-0.228,2.076-1.4,1.852-2.652c-0.085-0.489-0.261-0.973-0.54-1.414
				c0.527-0.102,1.009-0.28,1.423-0.568c1.062-0.678,1.377-2.093,0.698-3.16c-0.259-0.402-0.619-0.767-1.053-1.086
				c0.447-0.309,0.811-0.671,1.086-1.053c0.733-1.037,0.483-2.477-0.553-3.213c-0.407-0.282-0.873-0.479-1.383-0.592
				c0.296-0.473,0.491-0.934,0.599-1.414c0.273-1.234-0.501-2.447-1.735-2.723c-0.479-0.105-0.981-0.121-1.535-0.054
				c0.113-0.514,0.133-1.015,0.052-1.507c-0.229-1.249-1.432-2.084-2.651-1.85c-0.494,0.08-0.976,0.258-1.446,0.533
				c-0.101-0.529-0.287-0.979-0.538-1.414c-0.677-1.064-2.093-1.381-3.158-0.699c-0.442,0.28-0.77,0.617-1.114,1.046
				c-0.283-0.44-0.644-0.804-1.053-1.087c-1.041-0.734-2.453-0.479-3.189,0.557c-0.277,0.413-0.479,0.873-0.62,1.379
				c-0.438-0.288-0.902-0.483-1.354-0.584c-1.233-0.274-2.445,0.498-2.721,1.73c-0.106,0.483-0.123,0.982-0.057,1.536
				c-0.508-0.114-1.014-0.127-1.503-0.052c-1.251,0.229-2.086,1.434-1.884,2.676c0.113,0.469,0.29,0.951,0.565,1.422
				c-0.532,0.104-1.009,0.28-1.413,0.538c-1.067,0.679-1.379,2.095-0.699,3.16c0.249,0.433,0.608,0.801,1.045,1.116
				c-0.44,0.28-0.804,0.643-1.117,1.047c-0.703,1.042-0.448,2.457,0.587,3.191c0.411,0.281,0.875,0.477,1.379,0.621
				c-0.286,0.438-0.483,0.903-0.592,1.384C226.801,106.636,227.571,107.882,228.804,108.153z"/>
			<path fill-rule="evenodd" clip-rule="evenodd" fill="#FFFFFF" d="M231.542,105.911c0.333,0.074,0.709,0.064,1.1,0.01
				c-0.062,0.383-0.079,0.779-0.015,1.121c0.171,0.928,1.041,1.546,1.966,1.398c0.369-0.084,0.726-0.216,1.056-0.424
				c0.077,0.393,0.207,0.752,0.425,1.055c0.502,0.791,1.551,1.026,2.342,0.521c0.303-0.19,0.574-0.459,0.81-0.782
				c0.23,0.333,0.498,0.602,0.799,0.834c0.753,0.521,1.826,0.336,2.373-0.436c0.201-0.285,0.355-0.648,0.438-1.029
				c0.354,0.22,0.69,0.386,1.048,0.467c0.916,0.203,1.825-0.394,2.025-1.309c0.08-0.359,0.091-0.732,0.038-1.118
				c0.382,0.061,0.758,0.074,1.122,0.014c0.929-0.168,1.543-1.04,1.375-1.972c-0.063-0.361-0.191-0.723-0.403-1.049
				c0.394-0.076,0.751-0.21,1.058-0.422c0.79-0.506,1.026-1.557,0.52-2.347c-0.191-0.301-0.458-0.571-0.782-0.808
				c0.332-0.232,0.603-0.5,0.806-0.783c0.547-0.771,0.361-1.844-0.406-2.391c-0.307-0.209-0.651-0.354-1.03-0.437
				c0.218-0.352,0.366-0.693,0.444-1.05c0.2-0.919-0.369-1.818-1.288-2.023c-0.355-0.079-0.731-0.091-1.139-0.041
				c0.082-0.381,0.096-0.753,0.034-1.118c-0.167-0.929-1.065-1.548-1.968-1.374c-0.366,0.061-0.725,0.192-1.074,0.395
				c-0.077-0.391-0.214-0.726-0.4-1.049c-0.505-0.793-1.556-1.027-2.346-0.521c-0.327,0.209-0.571,0.46-0.83,0.778
				c-0.207-0.329-0.478-0.599-0.781-0.808c-0.772-0.545-1.822-0.356-2.368,0.414c-0.208,0.307-0.355,0.648-0.463,1.024
				c-0.326-0.216-0.668-0.36-1.006-0.436c-0.916-0.204-1.815,0.372-2.019,1.288c-0.081,0.357-0.094,0.729-0.041,1.141
				c-0.381-0.086-0.757-0.096-1.12-0.037c-0.932,0.168-1.55,1.063-1.4,1.986c0.088,0.35,0.218,0.707,0.423,1.055
				c-0.396,0.078-0.749,0.211-1.051,0.403c-0.793,0.505-1.024,1.553-0.52,2.346c0.186,0.323,0.45,0.596,0.775,0.831
				c-0.326,0.208-0.596,0.475-0.83,0.775c-0.522,0.775-0.333,1.828,0.438,2.373c0.305,0.207,0.65,0.354,1.021,0.46
				c-0.214,0.327-0.357,0.673-0.438,1.028C230.055,104.784,230.623,105.708,231.542,105.911z"/>
		</g>
		<g>
			<g>
				<path fill="#FF5E79" d="M239.722,98.483c0,0,0.263-0.955,0.408-2.115c0.081-0.649,0.147-1.366,0.07-2.013
					c-0.127-1.046-0.443-1.989-1.293-2.089c0,0-0.367-0.011-0.63,0.271c-0.115,0.123-0.328,0.342-0.39,0.832
					c-0.088,0.689-0.024,1.624,0.781,3.317C238.927,97.226,239.281,97.815,239.722,98.483z"/>
				<path fill="#FF5E79" d="M240.669,99.612c0,0,0.972,0.191,2.074,0.58c0.618,0.217,1.287,0.479,1.833,0.837
					c0.879,0.579,1.58,1.286,1.289,2.089c0,0-0.154,0.334-0.522,0.442c-0.161,0.048-0.45,0.14-0.919-0.023
					c-0.656-0.229-1.463-0.704-2.618-2.182C241.439,100.887,241.07,100.305,240.669,99.612z"/>
				<path fill="#FF5E79" d="M240.685,99.101c0,0,0.96,0.238,2.126,0.357c0.651,0.064,1.368,0.113,2.013,0.02
					c1.042-0.15,1.978-0.49,2.058-1.342c0,0,0.001-0.367-0.287-0.624c-0.126-0.11-0.348-0.317-0.842-0.37
					c-0.692-0.069-1.624,0.016-3.297,0.862C241.924,98.274,241.341,98.644,240.685,99.101z"/>
				<path fill="#FF5E79" d="M240.343,98.584c0,0,0.874-0.462,1.821-1.153c0.529-0.385,1.094-0.827,1.514-1.328
					c0.674-0.807,1.146-1.684,0.633-2.371c0,0-0.239-0.274-0.628-0.272c-0.166,0-0.471-0.007-0.872,0.287
					c-0.562,0.407-1.2,1.095-1.882,2.841C240.713,97.143,240.528,97.806,240.343,98.584z"/>
				<path fill="#FF5E79" d="M239.21,98.703c0,0-0.979-0.134-2.105-0.455c-0.629-0.18-1.313-0.399-1.878-0.726
					c-0.912-0.525-1.656-1.188-1.414-2.008c0,0,0.134-0.34,0.496-0.473c0.157-0.057,0.44-0.166,0.919-0.031
					c0.667,0.189,1.503,0.613,2.744,2.02C238.369,97.478,238.771,98.036,239.21,98.703z"/>
				<path fill="#FF5E79" d="M240.126,99.892c0,0-0.234,0.96-0.345,2.127c-0.063,0.65-0.107,1.367-0.01,2.012
					c0.158,1.042,0.504,1.975,1.354,2.05c0,0,0.366-0.001,0.621-0.29c0.113-0.126,0.316-0.352,0.364-0.844
					c0.067-0.692-0.024-1.625-0.88-3.293C240.958,101.123,240.587,100.544,240.126,99.892z"/>
				<path fill="#FF5E79" d="M239.496,99.784c0,0-0.146,0.977-0.481,2.1c-0.187,0.625-0.414,1.309-0.746,1.869
					c-0.538,0.906-1.21,1.641-2.027,1.391c0,0-0.338-0.139-0.466-0.504c-0.055-0.158-0.163-0.443-0.021-0.919
					c0.199-0.665,0.632-1.495,2.053-2.72C238.26,100.612,238.822,100.215,239.496,99.784z"/>
				<path fill="#FF5E79" d="M239.112,99.246c0,0-0.753,0.643-1.742,1.267c-0.554,0.349-1.175,0.713-1.793,0.916
					c-1,0.33-1.99,0.442-2.439-0.285c0,0-0.166-0.327-0.022-0.686c0.064-0.154,0.17-0.44,0.59-0.705
					c0.588-0.372,1.459-0.71,3.336-0.697C237.634,99.06,238.322,99.13,239.112,99.246z"/>
			</g>
		</g>
	</g>
	<g>
		<g>
			<path fill="#95AF2E" d="M188.146,67.035c0,0-3.657,3.854-11.308-0.925c-7.655-4.777-3.875-15.141-4.463-18.05
				c-0.587-2.907-1.526-3.915-1.526-3.915s1.272,4.205,5.52,6.287c4.243,2.085,10.564,3.777,12.632,7.867
				c2.063,4.088-1.006,7.41-1.006,7.41s-0.073-3.897-4.276-6.064c-4.203-2.168-6.729-5.973-6.729-5.973s3.224,7.506,6.843,10.201
				C187.449,66.574,188.146,67.035,188.146,67.035z"/>
			<path fill="#95AF2E" d="M195.009,61.909c0,0-4.903,0.178-6.854-7.929c-1.959-8.106,7.236-12.495,8.733-14.795
				c1.494-2.296,1.525-3.568,1.525-3.568s-1.876,3.598-0.426,7.717c1.447,4.123,4.522,9.329,3.241,13.36
				c-1.286,4.035-5.459,4.239-5.459,4.239s2.475-2.62,1.104-6.767c-1.371-4.148-0.575-8.292-0.575-8.292s-2.725,7.035-2.088,11.153
				C194.85,61.149,195.009,61.909,195.009,61.909z"/>
			<path fill="#95AF2E" d="M197.423,65.521c0,0,0.551,4.876,8.857,5.612c8.308,0.734,11.287-9.008,13.34-10.83
				c2.05-1.816,3.302-2.036,3.302-2.036s-3.276,2.392-7.566,1.564c-4.292-0.824-9.896-3.096-13.697-1.231
				c-3.799,1.869-3.385,6.025-3.385,6.025s2.229-2.832,6.531-2.089c4.307,0.741,8.285-0.661,8.285-0.661s-6.553,3.738-10.723,3.715
				C198.2,65.568,197.423,65.521,197.423,65.521z"/>
			<path fill="#95AF2E" d="M191.574,64.284c1.645-0.848,3.665-0.203,4.514,1.44c0.848,1.648,0.201,3.67-1.442,4.517
				c-1.647,0.851-3.669,0.203-4.516-1.443C189.28,67.151,189.927,65.134,191.574,64.284z"/>
		</g>
	</g>
	<g>
		<g>
			<path fill="#95AF2E" d="M290.423,150.413c0,0-3.392-4.093,2.271-11.115c5.655-7.028,15.492-2.04,18.452-2.275
				c2.956-0.234,4.069-1.047,4.069-1.047s-4.324,0.762-6.9,4.729c-2.576,3.965-5.014,10.039-9.322,11.602
				c-4.304,1.561-7.235-1.885-7.235-1.885s3.876,0.393,6.531-3.521s6.733-5.964,6.733-5.964s-7.836,2.301-10.945,5.573
				C290.962,149.776,290.423,150.413,290.423,150.413z"/>
			<path fill="#95AF2E" d="M294.692,157.841c0,0,0.409-4.888,8.69-5.858c8.284-0.976,11.54,8.678,13.645,10.439
				c2.104,1.759,3.36,1.942,3.36,1.942s-3.347-2.295-7.612-1.348c-4.262,0.944-9.801,3.377-13.648,1.622
				c-3.854-1.759-3.558-5.927-3.558-5.927s2.306,2.771,6.587,1.906c4.283-0.865,8.303,0.419,8.303,0.419s-6.66-3.547-10.826-3.405
				C295.465,157.772,294.692,157.841,294.692,157.841z"/>
			<path fill="#95AF2E" d="M290.819,159.806c0,0-4.906-0.036-6.633,8.121c-1.72,8.16,7.595,12.285,9.159,14.541
				c1.559,2.252,1.627,3.521,1.627,3.521s-1.984-3.54-0.65-7.698c1.332-4.164,4.256-9.457,2.861-13.454
				c-1.402-3.994-5.58-4.08-5.58-4.08s2.547,2.551,1.295,6.736c-1.251,4.184-0.334,8.302-0.334,8.302s-2.929-6.952-2.405-11.089
				C290.679,160.571,290.819,159.806,290.819,159.806z"/>
			<path fill="#95AF2E" d="M292.745,154.144c0.644,1.734-0.237,3.664-1.971,4.311c-1.737,0.646-3.667-0.238-4.311-1.973
				c-0.649-1.736,0.236-3.666,1.972-4.311C290.172,151.525,292.098,152.408,292.745,154.144z"/>
		</g>
	</g>
	<g>
		<g>
			<path fill="#95AF2E" d="M179.994,184.864c0,0,0.258-7.846,13.396-10.074c13.143-2.234,19.137,12.914,22.643,15.553
				c3.5,2.635,5.525,2.826,5.525,2.826s-5.529-3.393-12.266-1.527c-6.729,1.863-15.372,6.199-21.67,3.707
				c-6.29-2.488-6.159-9.17-6.159-9.17s3.905,4.23,10.675,2.5c6.768-1.731,13.287-0.004,13.287-0.004s-10.923-5.129-17.564-4.554
				C181.216,184.688,179.994,184.864,179.994,184.864z"/>
			<path fill="#95AF2E" d="M177.446,197.262c0,0,5.239-5.006,15.351,2.027c10.117,7.031,4.27,20.9,4.872,24.909
				c0.604,4.005,1.819,5.439,1.819,5.439s-1.457-5.816-7.104-8.942c-5.645-3.132-14.151-5.862-16.688-11.572
				c-2.541-5.718,1.868-10.039,1.868-10.039s-0.165,5.322,5.421,8.559c5.582,3.234,8.771,8.593,8.771,8.593
				s-3.895-10.445-8.641-14.367C178.369,197.942,177.446,197.262,177.446,197.262z"/>
			<path fill="#95AF2E" d="M171.236,195.642c0,0-5.394-4.844-15.287,2.492c-9.896,7.342-3.628,21.026-4.106,25.053
				c-0.482,4.018-1.648,5.488-1.648,5.488s1.271-5.857,6.82-9.152c5.55-3.302,13.967-6.294,16.335-12.083
				c2.359-5.791-2.176-9.977-2.176-9.977s0.32,5.315-5.163,8.72c-5.481,3.404-8.499,8.858-8.499,8.858s3.57-10.559,8.197-14.623
				C170.332,196.353,171.236,195.642,171.236,195.642z"/>
			<path fill="#95AF2E" d="M178.91,191.265c-0.982,2.55-3.848,3.821-6.398,2.84c-2.556-0.987-3.823-3.854-2.839-6.403
				c0.983-2.557,3.854-3.823,6.405-2.839C178.626,185.849,179.895,188.711,178.91,191.265z"/>
		</g>
	</g>
	<path fill="#95AF2E" d="M267.378,61.69c-0.162-0.223,2.988-13.203,8.753-23.469c5.765-10.268,17.876-15.834,26.552-15.715
		c8.68,0.12,18.525,3.867,19.525,13.979c1.274,12.919-11.688,16.714-14.652,16.828c-3.943,0.153-12.545-0.612-13.058-9.355
		c-0.005-0.067-0.003-0.175-0.008-0.276c0,0,0.422-5.81,4.183-8.846c3.763-3.039,8.422-2.61,9.865-0.688
		c1.444,1.922,0.543,4.238-0.806,4.749c-1.349,0.507-3.482,0.438-3.652-1.989c-0.172-2.43,2.659-2.004,2.659-2.004
		s-1.976,0.074-1.67,1.965c0.298,1.891,2.606,2.562,3.273,0.104c0.664-2.464-2.669-4.084-6.268-2.648
		c-3.593,1.432-5.499,6.996-4.496,11.016c0.688,2.762,4.29,8.683,11.906,6.865c7.613-1.817,10.748-8.773,9.506-15.342
		c-1.246-6.572-6.65-12.525-16.454-12.221c-9.801,0.303-15.776,5.176-19.223,8.504c-3.447,3.33-8.553,10.984-10.865,16.096
		C270.137,54.355,267.378,61.69,267.378,61.69z"/>
	<g>
		<path fill="#83205D" d="M257.342,49.268c-0.905-0.2-1.76-0.61-2.588-1.142c0.002-0.006,0.002-0.006,0.002-0.006
			c-0.008-0.008-0.016-0.01-0.024-0.017c0,0,0.001,0.003-0.002,0.005c0.008,0.005,0.015,0.012,0.024,0.018
			c-0.117,0.439-0.259,0.866-0.429,1.27c-0.192,0.467-0.419,0.898-0.687,1.275c-1.367,1.92-4.044,2.383-5.923,1.088
			c-0.215-0.169-0.427-0.348-0.628-0.533c-0.146-0.131-0.285-0.261-0.423-0.405c-0.2-0.206-0.392-0.425-0.573-0.657
			c-0.045-0.05-0.08-0.105-0.121-0.154c-0.085-0.109-0.168-0.219-0.249-0.332c-0.59,0.806-1.262,1.475-2.012,1.954
			c-1.976,1.256-4.599,0.674-5.859-1.299c-0.53-0.76-0.862-1.653-1.053-2.628c-0.194,0.111-0.386,0.225-0.579,0.32
			c-0.251,0.128-0.495,0.236-0.754,0.338c-0.152,0.061-0.303,0.107-0.456,0.156c-0.276,0.088-0.563,0.172-0.85,0.231
			c-2.301,0.37-4.477-1.171-4.901-3.481c-0.158-0.848-0.117-1.818,0.033-2.77c-0.948,0.127-1.867,0.137-2.742-0.059
			c-2.287-0.506-3.705-2.814-3.2-5.1c0.083-0.363,0.201-0.717,0.343-1.064c0.085-0.222,0.193-0.439,0.302-0.656
			c0.069-0.136,0.142-0.271,0.219-0.405c0.08-0.144,0.142-0.296,0.234-0.44c-0.626-0.176-1.209-0.402-1.757-0.685
			c-0.278-0.14-0.546-0.289-0.797-0.466c-1.928-1.361-2.397-3.983-1.091-5.918c0.175-0.227,0.362-0.443,0.556-0.652
			c0.118-0.13,0.239-0.258,0.368-0.381c0.18-0.176,0.373-0.342,0.574-0.5c0.18-0.145,0.37-0.28,0.565-0.412
			c-0.803-0.588-1.47-1.26-1.936-2.063c-1.258-1.977-0.678-4.598,1.3-5.856c0.744-0.477,1.638-0.808,2.613-1.001
			c-0.495-0.849-0.881-1.719-1.049-2.633c-0.367-2.307,1.183-4.538,3.504-4.959c0.896-0.157,1.832-0.107,2.785,0.065
			c-0.121-1.013-0.093-1.934,0.105-2.819c0.507-2.285,2.754-3.717,5.044-3.211c0.834,0.186,1.688,0.547,2.509,1.082
			c0.183-0.648,0.423-1.26,0.722-1.824c0.129-0.253,0.271-0.498,0.433-0.73c1.359-1.922,3.979-2.395,5.901-1.031
			c0.764,0.519,1.434,1.194,1.954,2.014c0.644-0.792,1.253-1.42,2.069-1.944c1.977-1.256,4.597-0.673,5.858,1.302
			c0.463,0.807,0.805,1.643,1.001,2.621c0.871-0.508,1.766-0.836,2.674-0.988c2.26-0.431,4.497,1.111,4.916,3.432
			c0.069,0.402,0.092,0.809,0.089,1.223c-0.004,0.055-0.001,0.108,0,0.165c-0.013,0.458-0.07,0.927-0.153,1.396
			c1.011-0.121,1.928-0.086,2.818,0.107c2.288,0.505,3.725,2.758,3.21,5.046c-0.19,0.885-0.559,1.73-1.092,2.598
			c0.938,0.248,1.805,0.598,2.551,1.118c1.92,1.364,2.381,4.038,1.02,5.96c-0.184,0.258-0.399,0.506-0.628,0.752
			c-0.064,0.07-0.122,0.138-0.19,0.203c-0.242,0.241-0.507,0.473-0.788,0.693c-0.018,0.012-0.036,0.027-0.057,0.039
			c-0.113,0.091-0.227,0.182-0.35,0.268c0.807,0.588,1.478,1.264,1.953,2.012c1.262,1.978,0.679,4.598-1.302,5.855
			c-0.762,0.537-1.648,0.864-2.633,1.057c0.524,0.82,0.854,1.712,1.002,2.621c0.421,2.319-1.113,4.496-3.434,4.919
			c-0.295,0.05-0.599,0.073-0.907,0.083c-0.62,0.026-1.249-0.016-1.892-0.119c0.032,0.213,0.021,0.416,0.036,0.625
			c0.003,0.061,0.008,0.116,0.008,0.178c0.016,0.301,0.021,0.605,0,0.9c-0.02,0.366-0.06,0.73-0.136,1.084
			C261.893,48.286,259.63,49.774,257.342,49.268z"/>
		<path fill-rule="evenodd" clip-rule="evenodd" fill="#BED630" d="M230.728,39.02c0.656,0.148,1.398,0.126,2.166,0.019
			c-0.126,0.756-0.157,1.534-0.03,2.206c0.334,1.827,2.048,3.042,3.867,2.749c0.728-0.16,1.432-0.418,2.073-0.83
			c0.151,0.773,0.413,1.475,0.833,2.077c0.995,1.558,3.061,2.017,4.623,1.021c0.588-0.376,1.118-0.901,1.582-1.539
			c0.456,0.654,0.986,1.187,1.575,1.642c1.483,1.023,3.594,0.657,4.668-0.857c0.4-0.559,0.696-1.276,0.863-2.024
			c0.688,0.433,1.354,0.761,2.057,0.921c1.805,0.4,3.591-0.774,3.987-2.577c0.157-0.706,0.175-1.438,0.072-2.2
			c0.754,0.119,1.487,0.145,2.208,0.027c1.83-0.334,3.037-2.049,2.706-3.877c-0.122-0.716-0.38-1.423-0.791-2.066
			c0.774-0.151,1.478-0.41,2.082-0.832c1.552-0.99,2.013-3.061,1.021-4.619c-0.378-0.588-0.905-1.121-1.539-1.588
			c0.651-0.453,1.185-0.98,1.586-1.539c1.073-1.516,0.71-3.623-0.806-4.697c-0.598-0.412-1.276-0.699-2.021-0.863
			c0.43-0.689,0.717-1.365,0.872-2.067c0.402-1.806-0.731-3.578-2.535-3.979c-0.702-0.157-1.435-0.179-2.244-0.079
			c0.167-0.751,0.195-1.484,0.076-2.202c-0.334-1.826-2.093-3.048-3.876-2.705c-0.723,0.117-1.425,0.377-2.112,0.778
			c-0.15-0.771-0.422-1.432-0.787-2.066c-0.991-1.558-3.06-2.019-4.615-1.023c-0.65,0.411-1.127,0.903-1.632,1.532
			c-0.414-0.645-0.939-1.18-1.542-1.589c-1.519-1.075-3.583-0.702-4.658,0.813c-0.409,0.604-0.7,1.275-0.909,2.016
			c-0.641-0.424-1.317-0.709-1.979-0.856c-1.802-0.401-3.573,0.731-3.976,2.53c-0.154,0.709-0.182,1.438-0.084,2.247
			c-0.741-0.167-1.479-0.188-2.195-0.075c-1.83,0.334-3.05,2.094-2.757,3.91c0.166,0.686,0.425,1.391,0.829,2.08
			c-0.777,0.151-1.475,0.408-2.066,0.787c-1.562,0.99-2.019,3.061-1.021,4.618c0.365,0.632,0.889,1.169,1.524,1.632
			c-0.644,0.41-1.174,0.938-1.632,1.53c-1.026,1.522-0.653,3.591,0.86,4.665c0.602,0.412,1.278,0.698,2.015,0.908
			c-0.419,0.64-0.709,1.319-0.864,2.021C227.8,36.802,228.925,38.621,230.728,39.02z"/>
		<path fill-rule="evenodd" clip-rule="evenodd" fill="#FFFFFF" d="M234.729,35.741c0.491,0.108,1.038,0.094,1.608,0.014
			c-0.089,0.562-0.114,1.141-0.021,1.641c0.25,1.354,1.521,2.26,2.872,2.043c0.541-0.123,1.063-0.314,1.545-0.62
			c0.11,0.573,0.301,1.101,0.617,1.544c0.736,1.154,2.271,1.5,3.429,0.76c0.44-0.28,0.837-0.67,1.18-1.143
			c0.339,0.484,0.73,0.879,1.17,1.219c1.1,0.761,2.668,0.489,3.469-0.637c0.294-0.417,0.519-0.948,0.64-1.506
			c0.512,0.32,1.006,0.566,1.528,0.684c1.343,0.298,2.669-0.574,2.963-1.914c0.119-0.525,0.134-1.071,0.054-1.635
			c0.562,0.09,1.107,0.109,1.643,0.021c1.358-0.244,2.254-1.521,2.009-2.88c-0.092-0.53-0.279-1.057-0.588-1.536
			c0.573-0.112,1.099-0.306,1.544-0.616c1.158-0.738,1.5-2.275,0.763-3.432c-0.281-0.438-0.674-0.834-1.145-1.18
			c0.484-0.34,0.879-0.73,1.177-1.143c0.801-1.127,0.529-2.697-0.594-3.496c-0.448-0.304-0.953-0.516-1.505-0.639
			c0.317-0.513,0.533-1.013,0.647-1.535c0.296-1.344-0.541-2.658-1.882-2.957c-0.521-0.115-1.068-0.133-1.666-0.061
			c0.122-0.556,0.142-1.099,0.054-1.634c-0.246-1.356-1.556-2.265-2.879-2.011c-0.535,0.09-1.058,0.283-1.57,0.58
			c-0.113-0.572-0.313-1.063-0.584-1.535c-0.738-1.158-2.276-1.502-3.431-0.762c-0.479,0.305-0.834,0.674-1.213,1.138
			c-0.304-0.479-0.699-0.875-1.143-1.181c-1.13-0.797-2.661-0.521-3.462,0.605c-0.304,0.447-0.52,0.947-0.677,1.498
			c-0.476-0.315-0.976-0.526-1.471-0.636c-1.337-0.299-2.655,0.544-2.951,1.883c-0.118,0.522-0.135,1.064-0.062,1.665
			c-0.554-0.124-1.102-0.141-1.633-0.055c-1.36,0.247-2.268,1.557-2.051,2.905c0.129,0.513,0.322,1.032,0.621,1.543
			c-0.579,0.112-1.099,0.307-1.537,0.587c-1.161,0.739-1.497,2.271-0.759,3.43c0.269,0.473,0.658,0.87,1.135,1.215
			c-0.481,0.305-0.873,0.696-1.215,1.135c-0.765,1.133-0.486,2.67,0.64,3.466c0.446,0.305,0.951,0.519,1.495,0.676
			c-0.312,0.478-0.523,0.981-0.642,1.501C232.555,34.095,233.388,35.444,234.729,35.741z"/>
		<g>
			<g>
				<path fill="#FF5E79" d="M246.69,24.882c0,0,0.383-1.393,0.596-3.093c0.117-0.948,0.216-1.995,0.102-2.94
					c-0.185-1.529-0.648-2.907-1.89-3.053c0,0-0.535-0.018-0.92,0.396c-0.169,0.179-0.48,0.498-0.57,1.217
					c-0.127,1.008-0.036,2.373,1.143,4.848C245.524,23.044,246.042,23.909,246.69,24.882z"/>
				<path fill="#FF5E79" d="M248.074,26.533c0,0,1.419,0.28,3.035,0.849c0.898,0.316,1.879,0.698,2.676,1.224
					c1.284,0.847,2.311,1.878,1.887,3.054c0,0-0.225,0.485-0.769,0.646c-0.231,0.07-0.656,0.205-1.339-0.035
					c-0.96-0.335-2.143-1.027-3.831-3.188C249.198,28.396,248.659,27.545,248.074,26.533z"/>
				<path fill="#FF5E79" d="M248.097,25.786c0,0,1.403,0.348,3.104,0.521c0.952,0.096,2.001,0.166,2.941,0.03
					c1.526-0.223,2.894-0.719,3.009-1.964c0,0,0.003-0.537-0.419-0.911c-0.183-0.161-0.51-0.465-1.23-0.54
					c-1.012-0.102-2.374,0.023-4.819,1.26C249.907,24.577,249.052,25.118,248.097,25.786z"/>
				<path fill="#FF5E79" d="M247.599,25.029c0,0,1.275-0.674,2.66-1.685c0.772-0.563,1.6-1.209,2.211-1.941
					c0.987-1.18,1.675-2.463,0.93-3.467c0,0-0.355-0.4-0.919-0.399c-0.246,0.002-0.691-0.006-1.277,0.421
					c-0.822,0.596-1.754,1.6-2.748,4.152C248.14,22.923,247.866,23.893,247.599,25.029z"/>
				<path fill="#FF5E79" d="M245.941,25.204c0,0-1.432-0.194-3.08-0.664c-0.916-0.264-1.916-0.586-2.745-1.061
					c-1.333-0.769-2.419-1.736-2.065-2.936c0,0,0.194-0.498,0.726-0.691c0.229-0.084,0.646-0.243,1.343-0.046
					c0.978,0.277,2.195,0.898,4.011,2.954C244.708,23.413,245.299,24.229,245.941,25.204z"/>
				<path fill="#FF5E79" d="M247.277,26.941c0,0-0.342,1.405-0.502,3.109c-0.089,0.95-0.153,1.999-0.014,2.942
					c0.23,1.522,0.736,2.887,1.982,2.994c0,0,0.532,0,0.908-0.424c0.162-0.186,0.461-0.512,0.53-1.234
					c0.098-1.011-0.036-2.373-1.287-4.812C248.495,28.742,247.951,27.894,247.277,26.941z"/>
				<path fill="#FF5E79" d="M246.355,26.784c0,0-0.21,1.428-0.7,3.068c-0.275,0.917-0.61,1.914-1.094,2.732
					c-0.784,1.324-1.766,2.398-2.96,2.032c0,0-0.497-0.202-0.682-0.735c-0.08-0.23-0.238-0.646-0.031-1.342
					c0.291-0.974,0.924-2.187,3-3.975C244.549,27.995,245.372,27.413,246.355,26.784z"/>
				<path fill="#FF5E79" d="M245.797,25.999c0,0-1.1,0.938-2.549,1.852c-0.81,0.51-1.713,1.04-2.62,1.338
					c-1.462,0.482-2.909,0.647-3.565-0.416c0,0-0.241-0.479-0.03-1.002c0.09-0.228,0.244-0.643,0.859-1.031
					c0.857-0.543,2.134-1.039,4.875-1.021C243.639,25.724,244.641,25.827,245.797,25.999z"/>
			</g>
		</g>
	</g>
</g>
</svg>
