<svg xmlns="http://www.w3.org/2000/svg" version="1.1" x="0" y="0" width="326.1" height="229.6" viewBox="0 0 326.1 229.6" enable-background="new 0 0 326.149 229.638" xml:space="preserve"><path fill="#95AF2E" d="M171.3 125.6c0 0 1.5-4.1-3-5.9 0 0-3.9-1.6-7.8 0.6 0.9 0.6 2.2 2.1 2.8 3.4C164 125 166.8 128.9 171.3 125.6z"/><path fill="#95AF2E" d="M171.1 125.3c0 0 3.5 3.4 4.3 5.5"/><path fill="#95AF2E" d="M173.8 116.8c0 0 3.3-4.4-1.6-8 0 0-4.1-3.2-9.5-2 0.9 1 1.8 3.3 2.1 5C165.3 113.5 167.2 119.2 173.8 116.8z"/><path fill="#95AF2E" d="M173.6 116.3c0 0 3.7 7.2 4.3 11"/><path fill="#95AF2E" d="M196.7 112.9c0 0-0.1-5.5 6-5.6 0 0 5.2-0.2 8.9 3.9 -1.3 0.3-3.4 1.6-4.7 2.9C205.6 115.3 200.7 118.7 196.7 112.9z"/><path fill="#95AF2E" d="M197.1 112.7c0 0-8 4.7-11.1 8"/><path fill="#95AF2E" d="M245.9 65.3c0 0 3.4-0.8 2.5-4.6 0 0-0.7-3.3-3.9-4.9 0 0.9-0.5 2.4-1 3.4C243 60.2 241.6 63.8 245.9 65.3z"/><path fill="#95AF2E" d="M246 65c0 0-0.7 3.8-1.8 5.3"/><path fill="#95AF2E" d="M252.8 63.1c0 0 4.4 0.2 4.7-4.6 0 0 0.3-4.2-2.9-7.2 -0.3 1-1.4 2.7-2.4 3.7C251.2 55.9 248.3 59.8 252.8 63.1z"/><path fill="#95AF2E" d="M253.1 62.7c0 0-3.2 5.8-5.5 7.9"/><path fill="#95AF2E" d="M185.9 148.4c0 0 4.5-9.3 14.9-4.3 0 0 9 4.1 11.6 14.2 -2.5-0.6-7.1-0.2-10.4 0.8C198.8 160 187.5 161.6 185.9 148.4z"/><path fill="#95AF2E" d="M186.8 148.3c0 0-15.9-0.1-23.1 3.1"/><path fill="#95AF2E" d="M173.8 156.8c0 0 5.8-5.1 11.5 1.3 0 0 5 5.4 3.9 13.1 -1.5-1.1-4.8-2.2-7.3-2.4C179.2 168.4 171.1 166.3 173.8 156.8z"/><path fill="#95AF2E" d="M174.4 157c0 0-7.7-3.6-11.7-3.6"/><path fill="#95AF2E" d="M193.3 84.9c0 0 3.4-3.4-0.3-7.3 0 0-3.2-3.4-8.1-3 0.6 1 1.2 3.1 1.2 4.7C186.2 80.9 187.2 86.2 193.3 84.9z"/><path fill="#95AF2E" d="M193.2 84.5c0 0 2.6 8 2.7 12.1"/><path fill="#95AF2E" d="M191.8 91.4c0 0 1.9-2.7-1.1-4.8 0 0-2.6-1.9-5.8-1 0.6 0.6 1.2 2 1.4 3C186.5 89.6 187.8 93 191.8 91.4z"/><path fill="#95AF2E" d="M191.6 91.1c0 0 2.7 4.4 3.3 6.8"/><path fill="#95AF2E" d="M197.1 86.9c0 0-1.7-2.6 1.2-4.5 0 0 2.5-1.6 5.4-0.7 -0.5 0.5-1.2 1.8-1.4 2.8C202.1 85.5 200.7 88.6 197.1 86.9z"/><path fill="#95AF2E" d="M197.2 86.7c0 0-1.9 2.8-2.2 4.4"/><path fill="#95AF2E" d="M220.3 69.1c0 0-1.7-2.6 1.2-4.5 0 0 2.5-1.6 5.4-0.7 -0.5 0.5-1.2 1.8-1.4 2.8C225.2 67.6 223.9 70.7 220.3 69.1z"/><path fill="#95AF2E" d="M220.4 68.8c0 0-1.9 2.8-2.2 4.4"/><path fill="#95AF2E" d="M212.8 76.1c0 0 2.2-1.5 0.5-3.9 0 0-1.4-2.1-4-2.4 0.2 0.6 0.3 1.8 0.2 2.6C209.4 73.4 209.4 76.2 212.8 76.1z"/><path fill="#95AF2E" d="M212.7 75.9c0 0 0.9 4.2 0.5 6.2"/><path fill="#95AF2E" d="M235.6 67.8c0 0 2.2-1.5 0.5-3.9 0 0-1.4-2.1-4-2.4 0.2 0.6 0.3 1.8 0.2 2.6C232.2 65.1 232.2 67.9 235.6 67.8z"/><path fill="#95AF2E" d="M235.6 67.6c0 0 0.6 2.8 0.2 4.2"/><path fill="#95AF2E" d="M238.8 94.1c-0.4 0.7-1.2 1-1.9 0.6 -0.7-0.4-1-1.2-0.6-1.9 0.4-0.7 1.2-1 1.9-0.6C238.9 92.5 239.2 93.4 238.8 94.1z"/><path fill="#95AF2E" d="M264.1 79.3c-0.4 0.7-1.2 1-1.9 0.6 -0.7-0.4-1-1.2-0.6-1.9 0.4-0.7 1.2-1 1.9-0.6C264.2 77.7 264.5 78.6 264.1 79.3z"/><circle fill="#95AF2E" cx="243.2" cy="85.2" r="1.4"/><path fill="#95AF2E" d="M228 94.3c-0.4 0.7-1.2 1-1.9 0.6 -0.7-0.4-1-1.2-0.6-1.9 0.4-0.7 1.2-1 1.9-0.6C228.1 92.7 228.4 93.6 228 94.3z"/><circle fill="#95AF2E" cx="223.7" cy="102.5" r="0.8"/><path fill="#95AF2E" d="M229.3 98.5c-0.2 0.4-0.7 0.5-1 0.3 -0.4-0.2-0.5-0.7-0.3-1 0.2-0.4 0.7-0.5 1-0.3C229.4 97.7 229.5 98.2 229.3 98.5z"/><circle fill="#95AF2E" cx="247.3" cy="90.4" r="0.8"/><circle fill="#95AF2E" cx="250.8" cy="77.1" r="0.8"/><circle fill="#95AF2E" cx="249.1" cy="79.9" r="0.8"/><circle fill="#95AF2E" cx="198" cy="105.9" r="1.4"/><circle fill="#95AF2E" cx="225.4" cy="106.3" r="1.4"/><path fill="#95AF2E" d="M224.5 91.7c-0.4 0.7-1.2 1-1.9 0.6 -0.7-0.4-1-1.2-0.6-1.9 0.4-0.7 1.2-1 1.9-0.6C224.6 90.2 224.8 91 224.5 91.7z"/><circle fill="#95AF2E" cx="204.2" cy="120.9" r="1.4"/><circle fill="#95AF2E" cx="198" cy="105.9" r="1.4"/><circle fill="#95AF2E" cx="208.3" cy="126.1" r="0.8"/><path fill="#95AF2E" d="M212.4 113.1c-0.2 0.4-0.7 0.5-1 0.3s-0.5-0.7-0.3-1c0.2-0.4 0.7-0.5 1-0.3C212.5 112.3 212.6 112.7 212.4 113.1z"/><path fill="#95AF2E" d="M228.4 114.9c-0.2 0.4-0.7 0.5-1 0.3 -0.4-0.2-0.5-0.7-0.3-1 0.2-0.4 0.7-0.5 1-0.3C228.4 114 228.6 114.5 228.4 114.9z"/><circle fill="#95AF2E" cx="214.2" cy="103.4" r="1.4"/><circle fill="#95AF2E" cx="293.6" cy="129.8" r="0.8"/><path fill="#95AF2E" d="M299.2 125.9c-0.2 0.4-0.7 0.5-1 0.3 -0.4-0.2-0.5-0.7-0.3-1 0.2-0.4 0.7-0.5 1-0.3C299.2 125.1 299.4 125.5 299.2 125.9z"/><path fill="#95AF2E" d="M285.4 131.5c-0.4 0.7-1.2 1-1.9 0.6 -0.7-0.4-1-1.2-0.6-1.9 0.4-0.7 1.2-1 1.9-0.6C285.5 129.9 285.7 130.8 285.4 131.5z"/><circle fill="#95AF2E" cx="186.4" cy="48.9" r="0.8"/><circle fill="#95AF2E" cx="191.3" cy="44.6" r="0.8"/><circle fill="#95AF2E" cx="188" cy="52.7" r="1.4"/><circle fill="#95AF2E" cx="176.9" cy="49.8" r="1.4"/><circle fill="#95AF2E" cx="180.2" cy="99.3" r="0.8"/><path fill="#95AF2E" d="M185.8 95.4c-0.2 0.4-0.7 0.5-1 0.3 -0.4-0.2-0.5-0.7-0.3-1 0.2-0.4 0.7-0.5 1-0.3C185.8 94.5 186 95 185.8 95.4z"/><path fill="#95AF2E" d="M183.1 103.8c-0.4 0.7-1.2 1-1.9 0.6 -0.7-0.4-1-1.2-0.6-1.9 0.4-0.7 1.2-1 1.9-0.6C183.2 102.2 183.4 103.1 183.1 103.8z"/><path fill="#95AF2E" d="M172 100.9c-0.4 0.7-1.2 1-1.9 0.6 -0.7-0.4-1-1.2-0.6-1.9 0.4-0.7 1.2-1 1.9-0.6C172.1 99.4 172.3 100.2 172 100.9z"/><path fill="#95AF2E" d="M209.2 54.8c-0.4 0.7-1.2 1-1.9 0.6 -0.7-0.4-1-1.2-0.6-1.9 0.4-0.7 1.2-1 1.9-0.6C209.3 53.2 209.5 54.1 209.2 54.8z"/><path fill="#95AF2E" d="M205.5 63.3c-0.2 0.4-0.7 0.5-1 0.3 -0.4-0.2-0.5-0.7-0.3-1 0.2-0.4 0.7-0.5 1-0.3C205.6 62.5 205.7 62.9 205.5 63.3z"/><circle fill="#95AF2E" cx="209.8" cy="58.7" r="0.8"/><circle fill="#95AF2E" cx="206.5" cy="66.8" r="1.4"/><circle fill="#95AF2E" cx="204.3" cy="51.6" r="1.4"/><path fill="#95AF2E" d="M196.6 64.6c-0.4 0.7-1.2 1-1.9 0.6 -0.7-0.4-1-1.2-0.6-1.9 0.4-0.7 1.2-1 1.9-0.6C196.7 63 197 63.9 196.6 64.6z"/><circle fill="#95AF2E" cx="256.6" cy="114.3" r="1.4"/><circle fill="#95AF2E" cx="245.8" cy="114.5" r="1.4"/><circle fill="#95AF2E" cx="242.7" cy="123.3" r="0.8"/><circle fill="#95AF2E" cx="247.7" cy="119" r="0.8"/><circle fill="#95AF2E" cx="242.2" cy="111.9" r="1.4"/><path fill="#95AF2E" d="M234.5 125c-0.4 0.7-1.2 1-1.9 0.6 -0.7-0.4-1-1.2-0.6-1.9 0.4-0.7 1.2-1 1.9-0.6C234.6 123.4 234.9 124.2 234.5 125z"/><circle fill="#95AF2E" cx="275.7" cy="27.7" r="1.4"/><path fill="#95AF2E" d="M266.2 28.6c-0.4 0.7-1.2 1-1.9 0.6 -0.7-0.4-1-1.2-0.6-1.9 0.4-0.7 1.2-1 1.9-0.6C266.3 27 266.6 27.9 266.2 28.6z"/><path fill="#95AF2E" d="M262.6 37.1c-0.2 0.4-0.7 0.5-1 0.3 -0.4-0.2-0.5-0.7-0.3-1 0.2-0.4 0.7-0.5 1-0.3C262.6 36.3 262.7 36.8 262.6 37.1z"/><circle fill="#95AF2E" cx="266.8" cy="32.5" r="0.8"/><circle fill="#95AF2E" cx="263.5" cy="40.6" r="1.4"/><circle fill="#95AF2E" cx="261.4" cy="25.4" r="1.4"/><path fill="#95AF2E" d="M253.7 38.4c-0.4 0.7-1.2 1-1.9 0.6 -0.7-0.4-1-1.2-0.6-1.9 0.4-0.7 1.2-1 1.9-0.6C253.8 36.8 254 37.7 253.7 38.4z"/><circle fill="#95AF2E" cx="216.6" cy="111.7" r="0.8"/><path fill="#95AF2E" d="M178.1 131.9c-0.4 0.7-1.2 1-1.9 0.6 -0.7-0.4-1-1.2-0.6-1.9 0.4-0.7 1.2-1 1.9-0.6C178.2 130.3 178.5 131.2 178.1 131.9z"/><path fill="#95AF2E" d="M205.5 132.3c-0.4 0.7-1.2 1-1.9 0.6s-1-1.2-0.6-1.9c0.4-0.7 1.2-1 1.9-0.6C205.7 130.7 205.9 131.6 205.5 132.3z"/><path fill="#95AF2E" d="M203.4 117.1c-0.4 0.7-1.2 1-1.9 0.6 -0.7-0.4-1-1.2-0.6-1.9 0.4-0.7 1.2-1 1.9-0.6C203.5 115.5 203.8 116.4 203.4 117.1z"/><circle fill="#95AF2E" cx="183.1" cy="146.2" r="1.4"/><path fill="#95AF2E" d="M178.1 131.9c-0.4 0.7-1.2 1-1.9 0.6 -0.7-0.4-1-1.2-0.6-1.9 0.4-0.7 1.2-1 1.9-0.6C178.2 130.3 178.5 131.2 178.1 131.9z"/><circle fill="#95AF2E" cx="187.2" cy="151.5" r="0.8"/><path fill="#95AF2E" d="M191.3 138.4c-0.2 0.4-0.7 0.5-1 0.3 -0.4-0.2-0.5-0.7-0.3-1 0.2-0.4 0.7-0.5 1-0.3C191.4 137.6 191.5 138.1 191.3 138.4z"/><circle fill="#95AF2E" cx="206.6" cy="139.9" r="0.8"/><path fill="#95AF2E" d="M194.4 129.4c-0.4 0.7-1.2 1-1.9 0.6 -0.7-0.4-1-1.2-0.6-1.9 0.4-0.7 1.2-1 1.9-0.6C194.5 127.9 194.8 128.7 194.4 129.4z"/><circle fill="#95AF2E" cx="195.5" cy="137" r="0.8"/><path fill="#95AF2E" d="M308.7 79c-0.2 0.4-0.7 0.5-1 0.3 -0.4-0.2-0.5-0.7-0.3-1 0.2-0.4 0.7-0.5 1-0.3C308.7 78.1 308.9 78.6 308.7 79z"/><path fill="#95AF2E" d="M297.6 76.1c-0.2 0.4-0.7 0.5-1 0.3 -0.4-0.2-0.5-0.7-0.3-1 0.2-0.4 0.7-0.5 1-0.3C297.6 75.3 297.7 75.7 297.6 76.1z"/><path fill="#95AF2E" d="M182.5 175.5c-0.4 0.7-1.2 1-1.9 0.6 -0.7-0.4-1-1.2-0.6-1.9 0.4-0.7 1.2-1 1.9-0.6C182.6 174 182.9 174.8 182.5 175.5z"/><circle fill="#95AF2E" cx="206.5" cy="160.1" r="1.4"/><path fill="#95AF2E" d="M182.5 175.5c-0.4 0.7-1.2 1-1.9 0.6 -0.7-0.4-1-1.2-0.6-1.9 0.4-0.7 1.2-1 1.9-0.6C182.6 174 182.9 174.8 182.5 175.5z"/><path fill="#95AF2E" d="M177.1 159.4c-0.4 0.7-1.2 1-1.9 0.6 -0.7-0.4-1-1.2-0.6-1.9s1.2-1 1.9-0.6C177.2 157.8 177.4 158.7 177.1 159.4z"/><circle fill="#95AF2E" cx="179.9" cy="169.1" r="0.8"/><circle fill="#95AF2E" cx="168.3" cy="135.8" r="1.4"/><circle fill="#95AF2E" cx="170.7" cy="144.1" r="0.8"/><circle fill="#95AF2E" cx="232.2" cy="77.2" r="1.4"/><path fill="#95AF2E" d="M248.2 103.3c-0.6 1.2-2.1 1.6-3.2 1 -1.2-0.6-1.6-2.1-1-3.2 0.6-1.2 2.1-1.6 3.2-1C248.4 100.7 248.8 102.2 248.2 103.3z"/><circle fill="#95AF2E" cx="209.5" cy="96.3" r="2.4"/><circle fill="#95AF2E" cx="155.9" cy="101.1" r="2.4"/><circle fill="#95AF2E" cx="263.3" cy="54.4" r="2.4"/><circle fill="#95AF2E" cx="256.6" cy="148.2" r="2.4"/><path fill="#95AF2E" d="M2.6 133c0.2 1.2 33.5 39.1 56 45.2 11.6 3.3 37.2 11.4 63.2 0 20.4-10.2 36-15.8 50.4-42.8 14.4-27 25.1-44.4 35.8-51.3 10.7-7 32.1-22.3 84.9-8.7 17.1 4.8 33.3 11.2 33.3 11.2s-33.1-12.4-54.6-14.4c-21.5-2-45.4-0.9-58.9 12.1 -4.8 3.7-13.6 13.4-18.6 22.3 -5 8.9-11.9 22.2-19.6 33.3 -7.7 11.2-31.1 36.6-52 40.2 -6 1.5-31.2 10.4-57.4 1.2C49.8 176.1 29.8 170 0 138 1.2 135.8 2.6 133 2.6 133z"/><path fill="#95AF2E" d="M180.6 129c0.9-0.2 17.7-6.7 33.3-4.8 16.6 2 32.7 9.1 42.6 14.1 9.9 4.9 42.9 22.1 52 21 -4 0.4-19.7-2.2-46-16.3 -11.4-5.2-19.3-9.9-35.6-14.5 -12.8-2.7-34.9-5.1-51.4 8C176.7 131.8 180.6 129 180.6 129z"/><path fill="none" d="M309 124.6c0 0-22.7 5.7-39.8 1.6 -17.1-4.2-34.4-7.8-38.9-8.3 -4.5-0.5-35.3-4.2-54.1 15"/><path fill="#95AF2E" d="M308.8 123.9c-10.4 2.6-21.5 3.6-32.2 2.8 -9.2-0.8-18.4-3.9-27.3-5.8 -6-1.3-12.1-2.7-18.2-3.6 -19.3-2.6-41.1 1.1-55.3 15.1 -0.6 0.6 0.3 1.6 1 1 15.3-15.1 38.9-17.6 59.3-13.8 15 2.8 29.9 8.2 45.2 8.8 9.3 0.4 19-0.8 28.1-3.1C310 125 309.6 123.7 308.8 123.9L308.8 123.9z"/><path fill="none" d="M205.4 126.1c0 0 11.4 4 15.8 8.3 5.2 5.1 4.1 12.4-3.6 13.8 -4.8 0.7-13.5-2.5-11.1-10.4 1-2.5 2.6-4.4 5.5-2.9 2.6 1.4 3.4 4 2.2 5.7"/><path fill="#95AF2E" d="M205.2 126.8c6 2.1 13.8 5 17.4 10.6 3.6 5.6-1.7 10.5-7.4 10.2 -2-0.1-3.9-0.9-5.5-1.9 -1.4-0.9-2.3-2.3-2.7-3.8 0-0.6-0.1-1.2-0.1-1.8 0.2-4.6 2.5-4.5 6.8 0.2 -0.4 0.8 0.8 1.5 1.2 0.7 1.4-2.8 0-5-2.4-6.6 -3-2-5.3 0.7-6.5 3.1 -3.1 6.8 4.5 11.2 10.1 11.5 7.1 0.4 10.7-6.4 7.7-12.4 -3.1-6.1-12.2-9.1-18.2-11.2C204.8 125.1 204.4 126.5 205.2 126.8L205.2 126.8z"/><path fill="none" d="M255.2 70c0 0 4.8-1.4 9.2-5.2 4.5-3.9 11.2-8.9 15.9-7.2 3.3 1.1 5.7 6.7-1.4 8.7 -3.5 1-7.2 0.4-6.3-3.7 0.7-2.7 2.5-2.3 3.9-1.3"/><path fill="#95AF2E" d="M255.4 70.7c4-1.2 7.5-3.6 10.6-6.3 3.4-2.9 7.5-5.9 12.1-6.4 2.3-0.3 4 1.1 4.7 3 -0.2 2.6-1.6 4.2-4 4.6 -2.7 1.2-3.6 0-2.6-3.7 0.8 0.5 1.5-0.7 0.7-1.2 -3.6-2.1-7.4 2.7-4.3 5.4 3.4 2.9 10.4 0.9 11.5-3.5 1.1-4.2-4.3-6.6-7.6-5.8 -8.4 2.1-13.4 10.1-21.6 12.6C254.2 69.6 254.6 71 255.4 70.7L255.4 70.7z"/><path fill="#E48800" d="M300 100.1c-0.4-0.1-0.8-0.3-1.1-0.5 0 0 0 0 0 0 0 0 0 0 0 0v0c0 0 0 0 0 0 -0.1 0.2-0.1 0.4-0.2 0.6 -0.1 0.2-0.2 0.4-0.3 0.6 -0.6 0.8-1.8 1-2.6 0.5 -0.1-0.1-0.2-0.1-0.3-0.2 -0.1-0.1-0.1-0.1-0.2-0.2 -0.1-0.1-0.2-0.2-0.2-0.3 0 0 0 0-0.1-0.1 0 0-0.1-0.1-0.1-0.1 -0.3 0.4-0.5 0.6-0.9 0.9 -0.9 0.5-2 0.3-2.5-0.6 -0.2-0.3-0.4-0.7-0.5-1.1 -0.1 0.1-0.2 0.1-0.3 0.1 -0.1 0.1-0.2 0.1-0.3 0.1 -0.1 0-0.1 0-0.2 0.1 -0.1 0-0.2 0.1-0.4 0.1 -1 0.2-1.9-0.5-2.1-1.5 -0.1-0.4 0-0.8 0-1.2 -0.4 0.1-0.8 0.1-1.2 0 -1-0.2-1.6-1.2-1.4-2.2 0-0.2 0.1-0.3 0.1-0.5 0-0.1 0.1-0.2 0.1-0.3 0-0.1 0.1-0.1 0.1-0.2 0-0.1 0.1-0.1 0.1-0.2 -0.3-0.1-0.5-0.2-0.8-0.3 -0.1-0.1-0.2-0.1-0.3-0.2 -0.8-0.6-1-1.7-0.5-2.6 0.1-0.1 0.2-0.2 0.2-0.3 0.1-0.1 0.1-0.1 0.2-0.2 0.1-0.1 0.2-0.1 0.3-0.2 0.1-0.1 0.2-0.1 0.2-0.2 -0.4-0.3-0.6-0.5-0.8-0.9 -0.5-0.9-0.3-2 0.6-2.5 0.3-0.2 0.7-0.4 1.1-0.4 -0.2-0.4-0.4-0.7-0.5-1.1 -0.2-1 0.5-2 1.5-2.2 0.4-0.1 0.8 0 1.2 0 -0.1-0.4 0-0.8 0-1.2 0.2-1 1.2-1.6 2.2-1.4 0.4 0.1 0.7 0.2 1.1 0.5 0.1-0.3 0.2-0.5 0.3-0.8 0.1-0.1 0.1-0.2 0.2-0.3 0.6-0.8 1.7-1 2.6-0.4 0.3 0.2 0.6 0.5 0.8 0.9 0.3-0.3 0.5-0.6 0.9-0.8 0.9-0.5 2-0.3 2.5 0.6 0.2 0.4 0.4 0.7 0.4 1.1 0.4-0.2 0.8-0.4 1.2-0.4 1-0.2 2 0.5 2.1 1.5 0 0.2 0 0.4 0 0.5 0 0 0 0 0 0.1 0 0.2 0 0.4-0.1 0.6 0.4-0.1 0.8 0 1.2 0 1 0.2 1.6 1.2 1.4 2.2 -0.1 0.4-0.2 0.8-0.5 1.1 0.4 0.1 0.8 0.3 1.1 0.5 0.8 0.6 1 1.8 0.4 2.6 -0.1 0.1-0.2 0.2-0.3 0.3 0 0-0.1 0.1-0.1 0.1 -0.1 0.1-0.2 0.2-0.3 0.3 0 0 0 0 0 0 0 0-0.1 0.1-0.2 0.1 0.4 0.3 0.6 0.5 0.8 0.9 0.5 0.9 0.3 2-0.6 2.5 -0.3 0.2-0.7 0.4-1.1 0.5 0.2 0.4 0.4 0.7 0.4 1.1 0.2 1-0.5 2-1.5 2.1 -0.1 0-0.3 0-0.4 0 -0.3 0-0.5 0-0.8-0.1 0 0.1 0 0.2 0 0.3 0 0 0 0.1 0 0.1 0 0.1 0 0.3 0 0.4 0 0.2 0 0.3-0.1 0.5C301.9 99.7 301 100.3 300 100.1z"/><path fill-rule="evenodd" clip-rule="evenodd" fill="#BED630" d="M288.4 95.7c0.3 0.1 0.6 0.1 0.9 0 -0.1 0.3-0.1 0.7 0 1 0.1 0.8 0.9 1.3 1.7 1.2 0.3-0.1 0.6-0.2 0.9-0.4 0.1 0.3 0.2 0.6 0.4 0.9 0.4 0.7 1.3 0.9 2 0.4 0.3-0.2 0.5-0.4 0.7-0.7 0.2 0.3 0.4 0.5 0.7 0.7 0.6 0.4 1.6 0.3 2-0.4 0.2-0.2 0.3-0.6 0.4-0.9 0.3 0.2 0.6 0.3 0.9 0.4 0.8 0.2 1.6-0.3 1.7-1.1 0.1-0.3 0.1-0.6 0-1 0.3 0.1 0.6 0.1 1 0 0.8-0.1 1.3-0.9 1.2-1.7 -0.1-0.3-0.2-0.6-0.3-0.9 0.3-0.1 0.6-0.2 0.9-0.4 0.7-0.4 0.9-1.3 0.4-2 -0.2-0.3-0.4-0.5-0.7-0.7 0.3-0.2 0.5-0.4 0.7-0.7 0.5-0.7 0.3-1.6-0.3-2 -0.3-0.2-0.6-0.3-0.9-0.4 0.2-0.3 0.3-0.6 0.4-0.9 0.2-0.8-0.3-1.6-1.1-1.7 -0.3-0.1-0.6-0.1-1 0 0.1-0.3 0.1-0.6 0-1 -0.1-0.8-0.9-1.3-1.7-1.2 -0.3 0.1-0.6 0.2-0.9 0.3 -0.1-0.3-0.2-0.6-0.3-0.9 -0.4-0.7-1.3-0.9-2-0.4 -0.3 0.2-0.5 0.4-0.7 0.7 -0.2-0.3-0.4-0.5-0.7-0.7 -0.7-0.5-1.6-0.3-2 0.4 -0.2 0.3-0.3 0.6-0.4 0.9 -0.3-0.2-0.6-0.3-0.9-0.4 -0.8-0.2-1.6 0.3-1.7 1.1 -0.1 0.3-0.1 0.6 0 1 -0.3-0.1-0.6-0.1-1 0 -0.8 0.1-1.3 0.9-1.2 1.7 0.1 0.3 0.2 0.6 0.4 0.9 -0.3 0.1-0.6 0.2-0.9 0.3 -0.7 0.4-0.9 1.3-0.4 2 0.2 0.3 0.4 0.5 0.7 0.7 -0.3 0.2-0.5 0.4-0.7 0.7 -0.4 0.7-0.3 1.6 0.4 2 0.3 0.2 0.6 0.3 0.9 0.4 -0.2 0.3-0.3 0.6-0.4 0.9C287.1 94.7 287.6 95.5 288.4 95.7z"/><path fill-rule="evenodd" clip-rule="evenodd" fill="#FFFFFF" d="M290.1 94.2c0.2 0 0.5 0 0.7 0 0 0.2-0.1 0.5 0 0.7 0.1 0.6 0.7 1 1.2 0.9 0.2-0.1 0.5-0.1 0.7-0.3 0.1 0.2 0.1 0.5 0.3 0.7 0.3 0.5 1 0.7 1.5 0.3 0.2-0.1 0.4-0.3 0.5-0.5 0.1 0.2 0.3 0.4 0.5 0.5 0.5 0.3 1.2 0.2 1.5-0.3 0.1-0.2 0.2-0.4 0.3-0.7 0.2 0.1 0.4 0.2 0.7 0.3 0.6 0.1 1.2-0.3 1.3-0.8 0.1-0.2 0.1-0.5 0-0.7 0.2 0 0.5 0 0.7 0 0.6-0.1 1-0.7 0.9-1.2 0-0.2-0.1-0.5-0.3-0.7 0.3 0 0.5-0.1 0.7-0.3 0.5-0.3 0.6-1 0.3-1.5 -0.1-0.2-0.3-0.4-0.5-0.5 0.2-0.1 0.4-0.3 0.5-0.5 0.3-0.5 0.2-1.2-0.3-1.5 -0.2-0.1-0.4-0.2-0.7-0.3 0.1-0.2 0.2-0.4 0.3-0.7 0.1-0.6-0.2-1.2-0.8-1.3 -0.2-0.1-0.5-0.1-0.7 0 0.1-0.2 0.1-0.5 0-0.7 -0.1-0.6-0.7-1-1.3-0.9 -0.2 0-0.5 0.1-0.7 0.3 0-0.2-0.1-0.5-0.3-0.7 -0.3-0.5-1-0.7-1.5-0.3 -0.2 0.1-0.4 0.3-0.5 0.5 -0.1-0.2-0.3-0.4-0.5-0.5 -0.5-0.3-1.2-0.2-1.5 0.3 -0.1 0.2-0.2 0.4-0.3 0.7 -0.2-0.1-0.4-0.2-0.6-0.3 -0.6-0.1-1.2 0.2-1.3 0.8 0 0.2-0.1 0.5 0 0.7 -0.2-0.1-0.5-0.1-0.7 0 -0.6 0.1-1 0.7-0.9 1.3 0.1 0.2 0.1 0.4 0.3 0.7 -0.3 0-0.5 0.1-0.7 0.3 -0.5 0.3-0.6 1-0.3 1.5 0.1 0.2 0.3 0.4 0.5 0.5 -0.2 0.1-0.4 0.3-0.5 0.5 -0.3 0.5-0.2 1.2 0.3 1.5 0.2 0.1 0.4 0.2 0.6 0.3 -0.1 0.2-0.2 0.4-0.3 0.7C289.2 93.5 289.6 94.1 290.1 94.2z"/><path fill="#FF5E79" d="M295.3 89.5c0 0 0.2-0.6 0.3-1.3 0.1-0.4 0.1-0.9 0-1.3 -0.1-0.7-0.3-1.3-0.8-1.3 0 0-0.2 0-0.4 0.2 -0.1 0.1-0.2 0.2-0.2 0.5 -0.1 0.4 0 1 0.5 2.1C294.8 88.7 295.1 89.1 295.3 89.5z"/><path fill="#FF5E79" d="M295.9 90.2c0 0 0.6 0.1 1.3 0.4 0.4 0.1 0.8 0.3 1.2 0.5 0.6 0.4 1 0.8 0.8 1.3 0 0-0.1 0.2-0.3 0.3 -0.1 0-0.3 0.1-0.6 0 -0.4-0.1-0.9-0.4-1.7-1.4C296.4 91.1 296.2 90.7 295.9 90.2z"/><path fill="#FF5E79" d="M295.9 89.9c0 0 0.6 0.2 1.4 0.2 0.4 0 0.9 0.1 1.3 0 0.7-0.1 1.3-0.3 1.3-0.9 0 0 0-0.2-0.2-0.4 -0.1-0.1-0.2-0.2-0.5-0.2 -0.4 0-1 0-2.1 0.5C296.7 89.4 296.4 89.6 295.9 89.9z"/><path fill="#FF5E79" d="M295.7 89.6c0 0 0.6-0.3 1.2-0.7 0.3-0.2 0.7-0.5 1-0.8 0.4-0.5 0.7-1.1 0.4-1.5 0 0-0.2-0.2-0.4-0.2 -0.1 0-0.3 0-0.6 0.2 -0.4 0.3-0.8 0.7-1.2 1.8C296 88.7 295.9 89.1 295.7 89.6z"/><path fill="#FF5E79" d="M295 89.7c0 0-0.6-0.1-1.3-0.3 -0.4-0.1-0.8-0.3-1.2-0.5 -0.6-0.3-1.1-0.8-0.9-1.3 0 0 0.1-0.2 0.3-0.3 0.1 0 0.3-0.1 0.6 0 0.4 0.1 1 0.4 1.7 1.3C294.5 88.9 294.7 89.2 295 89.7z"/><path fill="#FF5E79" d="M295.6 90.4c0 0-0.1 0.6-0.2 1.4 0 0.4-0.1 0.9 0 1.3 0.1 0.7 0.3 1.3 0.9 1.3 0 0 0.2 0 0.4-0.2 0.1-0.1 0.2-0.2 0.2-0.5 0-0.4 0-1-0.6-2.1C296.1 91.2 295.9 90.8 295.6 90.4z"/><path fill="#FF5E79" d="M295.2 90.4c0 0-0.1 0.6-0.3 1.3 -0.1 0.4-0.3 0.8-0.5 1.2 -0.3 0.6-0.8 1-1.3 0.9 0 0-0.2-0.1-0.3-0.3 0-0.1-0.1-0.3 0-0.6 0.1-0.4 0.4-0.9 1.3-1.7C294.4 90.9 294.8 90.6 295.2 90.4z"/><path fill="#FF5E79" d="M295 90c0 0-0.5 0.4-1.1 0.8 -0.4 0.2-0.7 0.5-1.1 0.6 -0.6 0.2-1.3 0.3-1.5-0.2 0 0-0.1-0.2 0-0.4 0-0.1 0.1-0.3 0.4-0.4 0.4-0.2 0.9-0.5 2.1-0.4C294 89.9 294.4 89.9 295 90z"/><path fill="#E48800" d="M167.8 96.2c-0.6-0.1-1.2-0.4-1.8-0.8 0 0 0 0 0 0 0 0 0 0 0 0 0 0 0 0 0 0 0 0 0 0 0 0 -0.1 0.3-0.2 0.6-0.3 0.9 -0.1 0.3-0.3 0.6-0.5 0.9 -0.9 1.3-2.8 1.6-4.1 0.7 -0.1-0.1-0.3-0.2-0.4-0.4 -0.1-0.1-0.2-0.2-0.3-0.3 -0.1-0.1-0.3-0.3-0.4-0.4 0 0-0.1-0.1-0.1-0.1 -0.1-0.1-0.1-0.1-0.2-0.2 -0.4 0.6-0.9 1-1.4 1.3 -1.4 0.9-3.1 0.5-4-0.9 -0.4-0.5-0.6-1.1-0.7-1.8 -0.1 0.1-0.3 0.2-0.4 0.2 -0.2 0.1-0.3 0.2-0.5 0.2 -0.1 0-0.2 0.1-0.3 0.1 -0.2 0.1-0.4 0.1-0.6 0.2 -1.6 0.3-3.1-0.8-3.4-2.4 -0.1-0.6-0.1-1.2 0-1.9 -0.6 0.1-1.3 0.1-1.9 0 -1.6-0.3-2.5-1.9-2.2-3.5 0.1-0.2 0.1-0.5 0.2-0.7 0.1-0.2 0.1-0.3 0.2-0.4 0-0.1 0.1-0.2 0.2-0.3 0.1-0.1 0.1-0.2 0.2-0.3 -0.4-0.1-0.8-0.3-1.2-0.5 -0.2-0.1-0.4-0.2-0.5-0.3 -1.3-0.9-1.6-2.7-0.7-4.1 0.1-0.2 0.2-0.3 0.4-0.4 0.1-0.1 0.2-0.2 0.3-0.3 0.1-0.1 0.3-0.2 0.4-0.3 0.1-0.1 0.3-0.2 0.4-0.3 -0.5-0.4-1-0.9-1.3-1.4 -0.9-1.4-0.5-3.1 0.9-4 0.5-0.3 1.1-0.6 1.8-0.7 -0.3-0.6-0.6-1.2-0.7-1.8 -0.3-1.6 0.8-3.1 2.4-3.4 0.6-0.1 1.3-0.1 1.9 0 -0.1-0.7-0.1-1.3 0.1-1.9 0.3-1.6 1.9-2.5 3.5-2.2 0.6 0.1 1.2 0.4 1.7 0.7 0.1-0.4 0.3-0.9 0.5-1.2 0.1-0.2 0.2-0.3 0.3-0.5 0.9-1.3 2.7-1.6 4-0.7 0.5 0.4 1 0.8 1.3 1.4 0.4-0.5 0.9-1 1.4-1.3 1.4-0.9 3.1-0.5 4 0.9 0.3 0.6 0.6 1.1 0.7 1.8 0.6-0.3 1.2-0.6 1.8-0.7 1.5-0.3 3.1 0.8 3.4 2.3 0 0.3 0.1 0.6 0.1 0.8 0 0 0 0.1 0 0.1 0 0.3 0 0.6-0.1 1 0.7-0.1 1.3-0.1 1.9 0.1 1.6 0.3 2.5 1.9 2.2 3.5 -0.1 0.6-0.4 1.2-0.7 1.8 0.6 0.2 1.2 0.4 1.7 0.8 1.3 0.9 1.6 2.8 0.7 4.1 -0.1 0.2-0.3 0.3-0.4 0.5 0 0-0.1 0.1-0.1 0.1 -0.2 0.2-0.3 0.3-0.5 0.5 0 0 0 0 0 0 -0.1 0.1-0.2 0.1-0.2 0.2 0.6 0.4 1 0.9 1.3 1.4 0.9 1.4 0.5 3.1-0.9 4 -0.5 0.4-1.1 0.6-1.8 0.7 0.4 0.6 0.6 1.2 0.7 1.8 0.3 1.6-0.8 3.1-2.3 3.4 -0.2 0-0.4 0.1-0.6 0.1 -0.4 0-0.9 0-1.3-0.1 0 0.1 0 0.3 0 0.4 0 0 0 0.1 0 0.1 0 0.2 0 0.4 0 0.6 0 0.3 0 0.5-0.1 0.7C170.9 95.5 169.3 96.5 167.8 96.2z"/><path fill-rule="evenodd" clip-rule="evenodd" fill="#BED630" d="M149.6 89.1c0.4 0.1 1 0.1 1.5 0 -0.1 0.5-0.1 1.1 0 1.5 0.2 1.2 1.4 2.1 2.6 1.9 0.5-0.1 1-0.3 1.4-0.6 0.1 0.5 0.3 1 0.6 1.4 0.7 1.1 2.1 1.4 3.2 0.7 0.4-0.3 0.8-0.6 1.1-1.1 0.3 0.4 0.7 0.8 1.1 1.1 1 0.7 2.5 0.4 3.2-0.6 0.3-0.4 0.5-0.9 0.6-1.4 0.5 0.3 0.9 0.5 1.4 0.6 1.2 0.3 2.5-0.5 2.7-1.8 0.1-0.5 0.1-1 0.1-1.5 0.5 0.1 1 0.1 1.5 0 1.3-0.2 2.1-1.4 1.9-2.7 -0.1-0.5-0.3-1-0.5-1.4 0.5-0.1 1-0.3 1.4-0.6 1.1-0.7 1.4-2.1 0.7-3.2 -0.3-0.4-0.6-0.8-1.1-1.1 0.4-0.3 0.8-0.7 1.1-1.1 0.7-1 0.5-2.5-0.5-3.2 -0.4-0.3-0.9-0.5-1.4-0.6 0.3-0.5 0.5-0.9 0.6-1.4 0.3-1.2-0.5-2.4-1.7-2.7 -0.5-0.1-1-0.1-1.5-0.1 0.1-0.5 0.1-1 0.1-1.5 -0.2-1.2-1.4-2.1-2.6-1.9 -0.5 0.1-1 0.3-1.4 0.5 -0.1-0.5-0.3-1-0.5-1.4 -0.7-1.1-2.1-1.4-3.2-0.7 -0.4 0.3-0.8 0.6-1.1 1 -0.3-0.4-0.6-0.8-1.1-1.1 -1-0.7-2.5-0.5-3.2 0.6 -0.3 0.4-0.5 0.9-0.6 1.4 -0.4-0.3-0.9-0.5-1.4-0.6 -1.2-0.3-2.4 0.5-2.7 1.7 -0.1 0.5-0.1 1-0.1 1.5 -0.5-0.1-1-0.1-1.5-0.1 -1.3 0.2-2.1 1.4-1.9 2.7 0.1 0.5 0.3 1 0.6 1.4 -0.5 0.1-1 0.3-1.4 0.5 -1.1 0.7-1.4 2.1-0.7 3.2 0.2 0.4 0.6 0.8 1 1.1 -0.4 0.3-0.8 0.6-1.1 1 -0.7 1-0.4 2.5 0.6 3.2 0.4 0.3 0.9 0.5 1.4 0.6 -0.3 0.4-0.5 0.9-0.6 1.4C147.6 87.6 148.3 88.9 149.6 89.1z"/><path fill-rule="evenodd" clip-rule="evenodd" fill="#FFFFFF" d="M152.3 86.9c0.3 0.1 0.7 0.1 1.1 0 -0.1 0.4-0.1 0.8 0 1.1 0.2 0.9 1 1.5 2 1.4 0.4-0.1 0.7-0.2 1.1-0.4 0.1 0.4 0.2 0.8 0.4 1.1 0.5 0.8 1.6 1 2.3 0.5 0.3-0.2 0.6-0.5 0.8-0.8 0.2 0.3 0.5 0.6 0.8 0.8 0.8 0.5 1.8 0.3 2.4-0.4 0.2-0.3 0.4-0.6 0.4-1 0.4 0.2 0.7 0.4 1 0.5 0.9 0.2 1.8-0.4 2-1.3 0.1-0.4 0.1-0.7 0-1.1 0.4 0.1 0.8 0.1 1.1 0 0.9-0.2 1.5-1 1.4-2 -0.1-0.4-0.2-0.7-0.4-1 0.4-0.1 0.8-0.2 1.1-0.4 0.8-0.5 1-1.6 0.5-2.3 -0.2-0.3-0.5-0.6-0.8-0.8 0.3-0.2 0.6-0.5 0.8-0.8 0.5-0.8 0.4-1.8-0.4-2.4 -0.3-0.2-0.7-0.4-1-0.4 0.2-0.4 0.4-0.7 0.4-1 0.2-0.9-0.4-1.8-1.3-2 -0.4-0.1-0.7-0.1-1.1 0 0.1-0.4 0.1-0.8 0-1.1 -0.2-0.9-1.1-1.5-2-1.4 -0.4 0.1-0.7 0.2-1.1 0.4 -0.1-0.4-0.2-0.7-0.4-1 -0.5-0.8-1.6-1-2.3-0.5 -0.3 0.2-0.6 0.5-0.8 0.8 -0.2-0.3-0.5-0.6-0.8-0.8 -0.8-0.5-1.8-0.4-2.4 0.4 -0.2 0.3-0.4 0.6-0.5 1 -0.3-0.2-0.7-0.4-1-0.4 -0.9-0.2-1.8 0.4-2 1.3 -0.1 0.4-0.1 0.7 0 1.1 -0.4-0.1-0.8-0.1-1.1 0 -0.9 0.2-1.6 1.1-1.4 2 0.1 0.4 0.2 0.7 0.4 1.1 -0.4 0.1-0.8 0.2-1.1 0.4 -0.8 0.5-1 1.6-0.5 2.3 0.2 0.3 0.5 0.6 0.8 0.8 -0.3 0.2-0.6 0.5-0.8 0.8 -0.5 0.8-0.3 1.8 0.4 2.4 0.3 0.2 0.7 0.4 1 0.5 -0.2 0.3-0.4 0.7-0.4 1C150.8 85.8 151.4 86.7 152.3 86.9z"/><path fill="#FF5E79" d="M160.5 79.5c0 0 0.3-1 0.4-2.1 0.1-0.6 0.1-1.4 0.1-2 -0.1-1-0.4-2-1.3-2.1 0 0-0.4 0-0.6 0.3 -0.1 0.1-0.3 0.3-0.4 0.8 -0.1 0.7 0 1.6 0.8 3.3C159.7 78.2 160.1 78.8 160.5 79.5z"/><path fill="#FF5E79" d="M161.4 80.6c0 0 1 0.2 2.1 0.6 0.6 0.2 1.3 0.5 1.8 0.8 0.9 0.6 1.6 1.3 1.3 2.1 0 0-0.2 0.3-0.5 0.4 -0.2 0-0.5 0.1-0.9 0 -0.7-0.2-1.5-0.7-2.6-2.2C162.2 81.9 161.8 81.3 161.4 80.6z"/><path fill="#FF5E79" d="M161.5 80.1c0 0 1 0.2 2.1 0.4 0.6 0.1 1.4 0.1 2 0 1-0.1 2-0.5 2.1-1.3 0 0 0-0.4-0.3-0.6 -0.1-0.1-0.3-0.3-0.8-0.4 -0.7-0.1-1.6 0-3.3 0.9C162.7 79.3 162.1 79.6 161.5 80.1z"/><path fill="#FF5E79" d="M161.1 79.6c0 0 0.9-0.5 1.8-1.2 0.5-0.4 1.1-0.8 1.5-1.3 0.7-0.8 1.1-1.7 0.6-2.4 0 0-0.2-0.3-0.6-0.3 -0.2 0-0.5 0-0.9 0.3 -0.6 0.4-1.2 1.1-1.9 2.8C161.5 78.1 161.3 78.8 161.1 79.6z"/><path fill="#FF5E79" d="M160 79.7c0 0-1-0.1-2.1-0.5 -0.6-0.2-1.3-0.4-1.9-0.7 -0.9-0.5-1.7-1.2-1.4-2 0 0 0.1-0.3 0.5-0.5 0.2-0.1 0.4-0.2 0.9 0 0.7 0.2 1.5 0.6 2.7 2C159.1 78.5 159.5 79 160 79.7z"/><path fill="#FF5E79" d="M160.9 80.9c0 0-0.2 1-0.3 2.1 -0.1 0.7-0.1 1.4 0 2 0.2 1 0.5 2 1.4 2 0 0 0.4 0 0.6-0.3 0.1-0.1 0.3-0.4 0.4-0.8 0.1-0.7 0-1.6-0.9-3.3C161.7 82.1 161.4 81.5 160.9 80.9z"/><path fill="#FF5E79" d="M160.3 80.8c0 0-0.1 1-0.5 2.1 -0.2 0.6-0.4 1.3-0.7 1.9 -0.5 0.9-1.2 1.6-2 1.4 0 0-0.3-0.1-0.5-0.5 -0.1-0.2-0.2-0.4 0-0.9 0.2-0.7 0.6-1.5 2.1-2.7C159 81.6 159.6 81.2 160.3 80.8z"/><path fill="#FF5E79" d="M159.9 80.2c0 0-0.8 0.6-1.7 1.3 -0.6 0.3-1.2 0.7-1.8 0.9 -1 0.3-2 0.4-2.4-0.3 0 0-0.2-0.3 0-0.7 0.1-0.2 0.2-0.4 0.6-0.7 0.6-0.4 1.5-0.7 3.3-0.7C158.4 80 159.1 80.1 159.9 80.2z"/><path fill="#3EBDD4" d="M247 115.2c-0.6-0.1-1.2-0.4-1.8-0.8 0 0 0 0 0 0 0 0 0 0 0 0v0c0 0 0 0 0 0 -0.1 0.3-0.2 0.6-0.3 0.9 -0.1 0.3-0.3 0.6-0.5 0.9 -0.9 1.3-2.8 1.6-4.1 0.7 -0.1-0.1-0.3-0.2-0.4-0.4 -0.1-0.1-0.2-0.2-0.3-0.3 -0.1-0.1-0.3-0.3-0.4-0.4 0 0-0.1-0.1-0.1-0.1 -0.1-0.1-0.1-0.1-0.2-0.2 -0.4 0.6-0.9 1-1.4 1.3 -1.4 0.9-3.1 0.5-4-0.9 -0.4-0.5-0.6-1.1-0.7-1.8 -0.1 0.1-0.3 0.2-0.4 0.2 -0.2 0.1-0.3 0.2-0.5 0.2 -0.1 0-0.2 0.1-0.3 0.1 -0.2 0.1-0.4 0.1-0.6 0.2 -1.6 0.3-3.1-0.8-3.4-2.4 -0.1-0.6-0.1-1.2 0-1.9 -0.6 0.1-1.3 0.1-1.9 0 -1.6-0.3-2.5-1.9-2.2-3.5 0.1-0.2 0.1-0.5 0.2-0.7 0.1-0.2 0.1-0.3 0.2-0.4 0-0.1 0.1-0.2 0.1-0.3 0.1-0.1 0.1-0.2 0.2-0.3 -0.4-0.1-0.8-0.3-1.2-0.5 -0.2-0.1-0.4-0.2-0.5-0.3 -1.3-0.9-1.6-2.7-0.7-4.1 0.1-0.2 0.2-0.3 0.4-0.4 0.1-0.1 0.2-0.2 0.3-0.3 0.1-0.1 0.3-0.2 0.4-0.3 0.1-0.1 0.3-0.2 0.4-0.3 -0.5-0.4-1-0.9-1.3-1.4 -0.9-1.4-0.5-3.1 0.9-4 0.5-0.3 1.1-0.6 1.8-0.7 -0.3-0.6-0.6-1.2-0.7-1.8 -0.3-1.6 0.8-3.1 2.4-3.4 0.6-0.1 1.3-0.1 1.9 0 -0.1-0.7-0.1-1.3 0.1-1.9 0.3-1.6 1.9-2.5 3.4-2.2 0.6 0.1 1.2 0.4 1.7 0.7 0.1-0.4 0.3-0.9 0.5-1.2 0.1-0.2 0.2-0.3 0.3-0.5 0.9-1.3 2.7-1.6 4-0.7 0.5 0.4 1 0.8 1.3 1.4 0.4-0.5 0.9-1 1.4-1.3 1.4-0.9 3.1-0.5 4 0.9 0.3 0.6 0.6 1.1 0.7 1.8 0.6-0.3 1.2-0.6 1.8-0.7 1.5-0.3 3.1 0.8 3.4 2.3 0 0.3 0.1 0.6 0.1 0.8 0 0 0 0.1 0 0.1 0 0.3 0 0.6-0.1 1 0.7-0.1 1.3-0.1 1.9 0.1 1.6 0.3 2.5 1.9 2.2 3.5 -0.1 0.6-0.4 1.2-0.7 1.8 0.6 0.2 1.2 0.4 1.7 0.8 1.3 0.9 1.6 2.8 0.7 4.1 -0.1 0.2-0.3 0.3-0.4 0.5 0 0-0.1 0.1-0.1 0.1 -0.2 0.2-0.3 0.3-0.5 0.5 0 0 0 0 0 0 -0.1 0.1-0.2 0.1-0.2 0.2 0.6 0.4 1 0.9 1.3 1.4 0.9 1.4 0.5 3.1-0.9 4 -0.5 0.4-1.1 0.6-1.8 0.7 0.4 0.6 0.6 1.2 0.7 1.8 0.3 1.6-0.8 3.1-2.3 3.4 -0.2 0-0.4 0.1-0.6 0.1 -0.4 0-0.9 0-1.3-0.1 0 0.1 0 0.3 0 0.4 0 0 0 0.1 0 0.1 0 0.2 0 0.4 0 0.6 0 0.3 0 0.5-0.1 0.7C250.1 114.5 248.6 115.5 247 115.2z"/><path fill-rule="evenodd" clip-rule="evenodd" fill="#BED630" d="M228.8 108.2c0.4 0.1 1 0.1 1.5 0 -0.1 0.5-0.1 1.1 0 1.5 0.2 1.2 1.4 2.1 2.6 1.9 0.5-0.1 1-0.3 1.4-0.6 0.1 0.5 0.3 1 0.6 1.4 0.7 1.1 2.1 1.4 3.2 0.7 0.4-0.3 0.8-0.6 1.1-1.1 0.3 0.4 0.7 0.8 1.1 1.1 1 0.7 2.5 0.5 3.2-0.6 0.3-0.4 0.5-0.9 0.6-1.4 0.5 0.3 0.9 0.5 1.4 0.6 1.2 0.3 2.5-0.5 2.7-1.8 0.1-0.5 0.1-1 0.1-1.5 0.5 0.1 1 0.1 1.5 0 1.3-0.2 2.1-1.4 1.9-2.7 -0.1-0.5-0.3-1-0.5-1.4 0.5-0.1 1-0.3 1.4-0.6 1.1-0.7 1.4-2.1 0.7-3.2 -0.3-0.4-0.6-0.8-1.1-1.1 0.4-0.3 0.8-0.7 1.1-1.1 0.7-1 0.5-2.5-0.6-3.2 -0.4-0.3-0.9-0.5-1.4-0.6 0.3-0.5 0.5-0.9 0.6-1.4 0.3-1.2-0.5-2.4-1.7-2.7 -0.5-0.1-1-0.1-1.5-0.1 0.1-0.5 0.1-1 0.1-1.5 -0.2-1.2-1.4-2.1-2.7-1.8 -0.5 0.1-1 0.3-1.4 0.5 -0.1-0.5-0.3-1-0.5-1.4 -0.7-1.1-2.1-1.4-3.2-0.7 -0.4 0.3-0.8 0.6-1.1 1 -0.3-0.4-0.6-0.8-1.1-1.1 -1-0.7-2.5-0.5-3.2 0.6 -0.3 0.4-0.5 0.9-0.6 1.4 -0.4-0.3-0.9-0.5-1.4-0.6 -1.2-0.3-2.4 0.5-2.7 1.7 -0.1 0.5-0.1 1-0.1 1.5 -0.5-0.1-1-0.1-1.5-0.1 -1.3 0.2-2.1 1.4-1.9 2.7 0.1 0.5 0.3 1 0.6 1.4 -0.5 0.1-1 0.3-1.4 0.5 -1.1 0.7-1.4 2.1-0.7 3.2 0.2 0.4 0.6 0.8 1 1.1 -0.4 0.3-0.8 0.6-1.1 1 -0.7 1-0.4 2.5 0.6 3.2 0.4 0.3 0.9 0.5 1.4 0.6 -0.3 0.4-0.5 0.9-0.6 1.4C226.8 106.6 227.6 107.9 228.8 108.2z"/><path fill-rule="evenodd" clip-rule="evenodd" fill="#FFFFFF" d="M231.5 105.9c0.3 0.1 0.7 0.1 1.1 0 -0.1 0.4-0.1 0.8 0 1.1 0.2 0.9 1 1.5 2 1.4 0.4-0.1 0.7-0.2 1.1-0.4 0.1 0.4 0.2 0.8 0.4 1.1 0.5 0.8 1.6 1 2.3 0.5 0.3-0.2 0.6-0.5 0.8-0.8 0.2 0.3 0.5 0.6 0.8 0.8 0.8 0.5 1.8 0.3 2.4-0.4 0.2-0.3 0.4-0.6 0.4-1 0.4 0.2 0.7 0.4 1 0.5 0.9 0.2 1.8-0.4 2-1.3 0.1-0.4 0.1-0.7 0-1.1 0.4 0.1 0.8 0.1 1.1 0 0.9-0.2 1.5-1 1.4-2 -0.1-0.4-0.2-0.7-0.4-1 0.4-0.1 0.8-0.2 1.1-0.4 0.8-0.5 1-1.6 0.5-2.3 -0.2-0.3-0.5-0.6-0.8-0.8 0.3-0.2 0.6-0.5 0.8-0.8 0.5-0.8 0.4-1.8-0.4-2.4 -0.3-0.2-0.7-0.4-1-0.4 0.2-0.4 0.4-0.7 0.4-1 0.2-0.9-0.4-1.8-1.3-2 -0.4-0.1-0.7-0.1-1.1 0 0.1-0.4 0.1-0.8 0-1.1 -0.2-0.9-1.1-1.5-2-1.4 -0.4 0.1-0.7 0.2-1.1 0.4 -0.1-0.4-0.2-0.7-0.4-1 -0.5-0.8-1.6-1-2.3-0.5 -0.3 0.2-0.6 0.5-0.8 0.8 -0.2-0.3-0.5-0.6-0.8-0.8 -0.8-0.5-1.8-0.4-2.4 0.4 -0.2 0.3-0.4 0.6-0.5 1 -0.3-0.2-0.7-0.4-1-0.4 -0.9-0.2-1.8 0.4-2 1.3 -0.1 0.4-0.1 0.7 0 1.1 -0.4-0.1-0.8-0.1-1.1 0 -0.9 0.2-1.5 1.1-1.4 2 0.1 0.4 0.2 0.7 0.4 1.1 -0.4 0.1-0.7 0.2-1.1 0.4 -0.8 0.5-1 1.6-0.5 2.3 0.2 0.3 0.5 0.6 0.8 0.8 -0.3 0.2-0.6 0.5-0.8 0.8 -0.5 0.8-0.3 1.8 0.4 2.4 0.3 0.2 0.7 0.4 1 0.5 -0.2 0.3-0.4 0.7-0.4 1C230.1 104.8 230.6 105.7 231.5 105.9z"/><path fill="#FF5E79" d="M239.7 98.5c0 0 0.3-1 0.4-2.1 0.1-0.6 0.1-1.4 0.1-2 -0.1-1-0.4-2-1.3-2.1 0 0-0.4 0-0.6 0.3 -0.1 0.1-0.3 0.3-0.4 0.8 -0.1 0.7 0 1.6 0.8 3.3C238.9 97.2 239.3 97.8 239.7 98.5z"/><path fill="#FF5E79" d="M240.7 99.6c0 0 1 0.2 2.1 0.6 0.6 0.2 1.3 0.5 1.8 0.8 0.9 0.6 1.6 1.3 1.3 2.1 0 0-0.2 0.3-0.5 0.4 -0.2 0-0.4 0.1-0.9 0 -0.7-0.2-1.5-0.7-2.6-2.2C241.4 100.9 241.1 100.3 240.7 99.6z"/><path fill="#FF5E79" d="M240.7 99.1c0 0 1 0.2 2.1 0.4 0.7 0.1 1.4 0.1 2 0 1-0.1 2-0.5 2.1-1.3 0 0 0-0.4-0.3-0.6 -0.1-0.1-0.3-0.3-0.8-0.4 -0.7-0.1-1.6 0-3.3 0.9C241.9 98.3 241.3 98.6 240.7 99.1z"/><path fill="#FF5E79" d="M240.3 98.6c0 0 0.9-0.5 1.8-1.2 0.5-0.4 1.1-0.8 1.5-1.3 0.7-0.8 1.1-1.7 0.6-2.4 0 0-0.2-0.3-0.6-0.3 -0.2 0-0.5 0-0.9 0.3 -0.6 0.4-1.2 1.1-1.9 2.8C240.7 97.1 240.5 97.8 240.3 98.6z"/><path fill="#FF5E79" d="M239.2 98.7c0 0-1-0.1-2.1-0.5 -0.6-0.2-1.3-0.4-1.9-0.7 -0.9-0.5-1.7-1.2-1.4-2 0 0 0.1-0.3 0.5-0.5 0.2-0.1 0.4-0.2 0.9 0 0.7 0.2 1.5 0.6 2.7 2C238.4 97.5 238.8 98 239.2 98.7z"/><path fill="#FF5E79" d="M240.1 99.9c0 0-0.2 1-0.3 2.1 -0.1 0.7-0.1 1.4 0 2 0.2 1 0.5 2 1.4 2.1 0 0 0.4 0 0.6-0.3 0.1-0.1 0.3-0.4 0.4-0.8 0.1-0.7 0-1.6-0.9-3.3C241 101.1 240.6 100.5 240.1 99.9z"/><path fill="#FF5E79" d="M239.5 99.8c0 0-0.1 1-0.5 2.1 -0.2 0.6-0.4 1.3-0.7 1.9 -0.5 0.9-1.2 1.6-2 1.4 0 0-0.3-0.1-0.5-0.5 -0.1-0.2-0.2-0.4 0-0.9 0.2-0.7 0.6-1.5 2.1-2.7C238.3 100.6 238.8 100.2 239.5 99.8z"/><path fill="#FF5E79" d="M239.1 99.2c0 0-0.8 0.6-1.7 1.3 -0.6 0.3-1.2 0.7-1.8 0.9 -1 0.3-2 0.4-2.4-0.3 0 0-0.2-0.3 0-0.7 0.1-0.2 0.2-0.4 0.6-0.7 0.6-0.4 1.5-0.7 3.3-0.7C237.6 99.1 238.3 99.1 239.1 99.2z"/><path fill="#95AF2E" d="M188.1 67c0 0-3.7 3.9-11.3-0.9 -7.7-4.8-3.9-15.1-4.5-18 -0.6-2.9-1.5-3.9-1.5-3.9s1.3 4.2 5.5 6.3c4.2 2.1 10.6 3.8 12.6 7.9 2.1 4.1-1 7.4-1 7.4s-0.1-3.9-4.3-6.1c-4.2-2.2-6.7-6-6.7-6s3.2 7.5 6.8 10.2C187.4 66.6 188.1 67 188.1 67z"/><path fill="#95AF2E" d="M195 61.9c0 0-4.9 0.2-6.9-7.9 -2-8.1 7.2-12.5 8.7-14.8 1.5-2.3 1.5-3.6 1.5-3.6s-1.9 3.6-0.4 7.7c1.4 4.1 4.5 9.3 3.2 13.4 -1.3 4-5.5 4.2-5.5 4.2s2.5-2.6 1.1-6.8c-1.4-4.1-0.6-8.3-0.6-8.3s-2.7 7-2.1 11.2C194.9 61.1 195 61.9 195 61.9z"/><path fill="#95AF2E" d="M197.4 65.5c0 0 0.6 4.9 8.9 5.6 8.3 0.7 11.3-9 13.3-10.8 2.1-1.8 3.3-2 3.3-2s-3.3 2.4-7.6 1.6c-4.3-0.8-9.9-3.1-13.7-1.2 -3.8 1.9-3.4 6-3.4 6s2.2-2.8 6.5-2.1c4.3 0.7 8.3-0.7 8.3-0.7s-6.6 3.7-10.7 3.7C198.2 65.6 197.4 65.5 197.4 65.5z"/><path fill="#95AF2E" d="M191.6 64.3c1.6-0.8 3.7-0.2 4.5 1.4 0.8 1.6 0.2 3.7-1.4 4.5 -1.6 0.9-3.7 0.2-4.5-1.4C189.3 67.2 189.9 65.1 191.6 64.3z"/><path fill="#95AF2E" d="M290.4 150.4c0 0-3.4-4.1 2.3-11.1 5.7-7 15.5-2 18.5-2.3 3-0.2 4.1-1 4.1-1s-4.3 0.8-6.9 4.7c-2.6 4-5 10-9.3 11.6 -4.3 1.6-7.2-1.9-7.2-1.9s3.9 0.4 6.5-3.5 6.7-6 6.7-6 -7.8 2.3-10.9 5.6C291 149.8 290.4 150.4 290.4 150.4z"/><path fill="#95AF2E" d="M294.7 157.8c0 0 0.4-4.9 8.7-5.9 8.3-1 11.5 8.7 13.6 10.4 2.1 1.8 3.4 1.9 3.4 1.9s-3.3-2.3-7.6-1.3c-4.3 0.9-9.8 3.4-13.6 1.6 -3.9-1.8-3.6-5.9-3.6-5.9s2.3 2.8 6.6 1.9c4.3-0.9 8.3 0.4 8.3 0.4s-6.7-3.5-10.8-3.4C295.5 157.8 294.7 157.8 294.7 157.8z"/><path fill="#95AF2E" d="M290.8 159.8c0 0-4.9 0-6.6 8.1 -1.7 8.2 7.6 12.3 9.2 14.5 1.6 2.3 1.6 3.5 1.6 3.5s-2-3.5-0.6-7.7c1.3-4.2 4.3-9.5 2.9-13.5 -1.4-4-5.6-4.1-5.6-4.1s2.5 2.6 1.3 6.7c-1.3 4.2-0.3 8.3-0.3 8.3s-2.9-7-2.4-11.1C290.7 160.6 290.8 159.8 290.8 159.8z"/><path fill="#95AF2E" d="M292.7 154.1c0.6 1.7-0.2 3.7-2 4.3 -1.7 0.6-3.7-0.2-4.3-2 -0.6-1.7 0.2-3.7 2-4.3C290.2 151.5 292.1 152.4 292.7 154.1z"/><path fill="#95AF2E" d="M180 184.9c0 0 0.3-7.8 13.4-10.1 13.1-2.2 19.1 12.9 22.6 15.6 3.5 2.6 5.5 2.8 5.5 2.8s-5.5-3.4-12.3-1.5c-6.7 1.9-15.4 6.2-21.7 3.7 -6.3-2.5-6.2-9.2-6.2-9.2s3.9 4.2 10.7 2.5c6.8-1.7 13.3 0 13.3 0s-10.9-5.1-17.6-4.6C181.2 184.7 180 184.9 180 184.9z"/><path fill="#95AF2E" d="M177.4 197.3c0 0 5.2-5 15.4 2 10.1 7 4.3 20.9 4.9 24.9 0.6 4 1.8 5.4 1.8 5.4s-1.5-5.8-7.1-8.9c-5.6-3.1-14.2-5.9-16.7-11.6 -2.5-5.7 1.9-10 1.9-10s-0.2 5.3 5.4 8.6c5.6 3.2 8.8 8.6 8.8 8.6s-3.9-10.4-8.6-14.4C178.4 197.9 177.4 197.3 177.4 197.3z"/><path fill="#95AF2E" d="M171.2 195.6c0 0-5.4-4.8-15.3 2.5 -9.9 7.3-3.6 21-4.1 25.1 -0.5 4-1.6 5.5-1.6 5.5s1.3-5.9 6.8-9.2c5.6-3.3 14-6.3 16.3-12.1 2.4-5.8-2.2-10-2.2-10s0.3 5.3-5.2 8.7c-5.5 3.4-8.5 8.9-8.5 8.9s3.6-10.6 8.2-14.6C170.3 196.4 171.2 195.6 171.2 195.6z"/><path fill="#95AF2E" d="M178.9 191.3c-1 2.6-3.8 3.8-6.4 2.8 -2.6-1-3.8-3.9-2.8-6.4 1-2.6 3.9-3.8 6.4-2.8C178.6 185.8 179.9 188.7 178.9 191.3z"/><path fill="#95AF2E" d="M267.4 61.7c-0.2-0.2 3-13.2 8.8-23.5 5.8-10.3 17.9-15.8 26.6-15.7 8.7 0.1 18.5 3.9 19.5 14 1.3 12.9-11.7 16.7-14.7 16.8 -3.9 0.2-12.5-0.6-13.1-9.4 0-0.1 0-0.2 0-0.3 0 0 0.4-5.8 4.2-8.8 3.8-3 8.4-2.6 9.9-0.7 1.4 1.9 0.5 4.2-0.8 4.7 -1.3 0.5-3.5 0.4-3.7-2 -0.2-2.4 2.7-2 2.7-2s-2 0.1-1.7 2c0.3 1.9 2.6 2.6 3.3 0.1 0.7-2.5-2.7-4.1-6.3-2.6 -3.6 1.4-5.5 7-4.5 11 0.7 2.8 4.3 8.7 11.9 6.9 7.6-1.8 10.7-8.8 9.5-15.3 -1.2-6.6-6.6-12.5-16.5-12.2 -9.8 0.3-15.8 5.2-19.2 8.5 -3.4 3.3-8.6 11-10.9 16.1C270.1 54.4 267.4 61.7 267.4 61.7z"/><path fill="#83205D" d="M257.3 49.3c-0.9-0.2-1.8-0.6-2.6-1.1 0 0 0 0 0 0 0 0 0 0 0 0 0 0 0 0 0 0 0 0 0 0 0 0 -0.1 0.4-0.3 0.9-0.4 1.3 -0.2 0.5-0.4 0.9-0.7 1.3 -1.4 1.9-4 2.4-5.9 1.1 -0.2-0.2-0.4-0.3-0.6-0.5 -0.1-0.1-0.3-0.3-0.4-0.4 -0.2-0.2-0.4-0.4-0.6-0.7 0 0-0.1-0.1-0.1-0.2 -0.1-0.1-0.2-0.2-0.2-0.3 -0.6 0.8-1.3 1.5-2 2 -2 1.3-4.6 0.7-5.9-1.3 -0.5-0.8-0.9-1.7-1.1-2.6 -0.2 0.1-0.4 0.2-0.6 0.3 -0.3 0.1-0.5 0.2-0.8 0.3 -0.2 0.1-0.3 0.1-0.5 0.2 -0.3 0.1-0.6 0.2-0.8 0.2 -2.3 0.4-4.5-1.2-4.9-3.5 -0.2-0.8-0.1-1.8 0-2.8 -0.9 0.1-1.9 0.1-2.7-0.1 -2.3-0.5-3.7-2.8-3.2-5.1 0.1-0.4 0.2-0.7 0.3-1.1 0.1-0.2 0.2-0.4 0.3-0.7 0.1-0.1 0.1-0.3 0.2-0.4 0.1-0.1 0.1-0.3 0.2-0.4 -0.6-0.2-1.2-0.4-1.8-0.7 -0.3-0.1-0.5-0.3-0.8-0.5 -1.9-1.4-2.4-4-1.1-5.9 0.2-0.2 0.4-0.4 0.6-0.7 0.1-0.1 0.2-0.3 0.4-0.4 0.2-0.2 0.4-0.3 0.6-0.5 0.2-0.1 0.4-0.3 0.6-0.4 -0.8-0.6-1.5-1.3-1.9-2.1 -1.3-2-0.7-4.6 1.3-5.9 0.7-0.5 1.6-0.8 2.6-1 -0.5-0.8-0.9-1.7-1-2.6 -0.4-2.3 1.2-4.5 3.5-5 0.9-0.2 1.8-0.1 2.8 0.1 -0.1-1-0.1-1.9 0.1-2.8 0.5-2.3 2.8-3.7 5-3.2 0.8 0.2 1.7 0.5 2.5 1.1 0.2-0.6 0.4-1.3 0.7-1.8 0.1-0.3 0.3-0.5 0.4-0.7 1.4-1.9 4-2.4 5.9-1 0.8 0.5 1.4 1.2 2 2 0.6-0.8 1.3-1.4 2.1-1.9 2-1.3 4.6-0.7 5.9 1.3 0.5 0.8 0.8 1.6 1 2.6 0.9-0.5 1.8-0.8 2.7-1 2.3-0.4 4.5 1.1 4.9 3.4 0.1 0.4 0.1 0.8 0.1 1.2 0 0.1 0 0.1 0 0.2 0 0.5-0.1 0.9-0.2 1.4 1-0.1 1.9-0.1 2.8 0.1 2.3 0.5 3.7 2.8 3.2 5 -0.2 0.9-0.6 1.7-1.1 2.6 0.9 0.2 1.8 0.6 2.6 1.1 1.9 1.4 2.4 4 1 6 -0.2 0.3-0.4 0.5-0.6 0.8 -0.1 0.1-0.1 0.1-0.2 0.2 -0.2 0.2-0.5 0.5-0.8 0.7 0 0 0 0-0.1 0 -0.1 0.1-0.2 0.2-0.3 0.3 0.8 0.6 1.5 1.3 2 2 1.3 2 0.7 4.6-1.3 5.9 -0.8 0.5-1.6 0.9-2.6 1.1 0.5 0.8 0.9 1.7 1 2.6 0.4 2.3-1.1 4.5-3.4 4.9 -0.3 0.1-0.6 0.1-0.9 0.1 -0.6 0-1.2 0-1.9-0.1 0 0.2 0 0.4 0 0.6 0 0.1 0 0.1 0 0.2 0 0.3 0 0.6 0 0.9 0 0.4-0.1 0.7-0.1 1.1C261.9 48.3 259.6 49.8 257.3 49.3z"/><path fill-rule="evenodd" clip-rule="evenodd" fill="#BED630" d="M230.7 39c0.7 0.1 1.4 0.1 2.2 0 -0.1 0.8-0.2 1.5 0 2.2 0.3 1.8 2 3 3.9 2.7 0.7-0.2 1.4-0.4 2.1-0.8 0.2 0.8 0.4 1.5 0.8 2.1 1 1.6 3.1 2 4.6 1 0.6-0.4 1.1-0.9 1.6-1.5 0.5 0.7 1 1.2 1.6 1.6 1.5 1 3.6 0.7 4.7-0.9 0.4-0.6 0.7-1.3 0.9-2 0.7 0.4 1.4 0.8 2.1 0.9 1.8 0.4 3.6-0.8 4-2.6 0.2-0.7 0.2-1.4 0.1-2.2 0.8 0.1 1.5 0.1 2.2 0 1.8-0.3 3-2 2.7-3.9 -0.1-0.7-0.4-1.4-0.8-2.1 0.8-0.2 1.5-0.4 2.1-0.8 1.6-1 2-3.1 1-4.6 -0.4-0.6-0.9-1.1-1.5-1.6 0.7-0.5 1.2-1 1.6-1.5 1.1-1.5 0.7-3.6-0.8-4.7 -0.6-0.4-1.3-0.7-2-0.9 0.4-0.7 0.7-1.4 0.9-2.1 0.4-1.8-0.7-3.6-2.5-4 -0.7-0.2-1.4-0.2-2.2-0.1 0.2-0.8 0.2-1.5 0.1-2.2 -0.3-1.8-2.1-3-3.9-2.7 -0.7 0.1-1.4 0.4-2.1 0.8 -0.1-0.8-0.4-1.4-0.8-2.1 -1-1.6-3.1-2-4.6-1 -0.6 0.4-1.1 0.9-1.6 1.5 -0.4-0.6-0.9-1.2-1.5-1.6 -1.5-1.1-3.6-0.7-4.7 0.8 -0.4 0.6-0.7 1.3-0.9 2 -0.6-0.4-1.3-0.7-2-0.9 -1.8-0.4-3.6 0.7-4 2.5 -0.2 0.7-0.2 1.4-0.1 2.2 -0.7-0.2-1.5-0.2-2.2-0.1 -1.8 0.3-3 2.1-2.8 3.9 0.2 0.7 0.4 1.4 0.8 2.1 -0.8 0.2-1.5 0.4-2.1 0.8 -1.6 1-2 3.1-1 4.6 0.4 0.6 0.9 1.2 1.5 1.6 -0.6 0.4-1.2 0.9-1.6 1.5 -1 1.5-0.7 3.6 0.9 4.7 0.6 0.4 1.3 0.7 2 0.9 -0.4 0.6-0.7 1.3-0.9 2C227.8 36.8 228.9 38.6 230.7 39z"/><path fill-rule="evenodd" clip-rule="evenodd" fill="#FFFFFF" d="M234.7 35.7c0.5 0.1 1 0.1 1.6 0 -0.1 0.6-0.1 1.1 0 1.6 0.3 1.4 1.5 2.3 2.9 2 0.5-0.1 1.1-0.3 1.5-0.6 0.1 0.6 0.3 1.1 0.6 1.5 0.7 1.2 2.3 1.5 3.4 0.8 0.4-0.3 0.8-0.7 1.2-1.1 0.3 0.5 0.7 0.9 1.2 1.2 1.1 0.8 2.7 0.5 3.5-0.6 0.3-0.4 0.5-0.9 0.6-1.5 0.5 0.3 1 0.6 1.5 0.7 1.3 0.3 2.7-0.6 3-1.9 0.1-0.5 0.1-1.1 0.1-1.6 0.6 0.1 1.1 0.1 1.6 0 1.4-0.2 2.3-1.5 2-2.9 -0.1-0.5-0.3-1.1-0.6-1.5 0.6-0.1 1.1-0.3 1.5-0.6 1.2-0.7 1.5-2.3 0.8-3.4 -0.3-0.4-0.7-0.8-1.1-1.2 0.5-0.3 0.9-0.7 1.2-1.1 0.8-1.1 0.5-2.7-0.6-3.5 -0.4-0.3-1-0.5-1.5-0.6 0.3-0.5 0.5-1 0.6-1.5 0.3-1.3-0.5-2.7-1.9-3 -0.5-0.1-1.1-0.1-1.7-0.1 0.1-0.6 0.1-1.1 0.1-1.6 -0.2-1.4-1.6-2.3-2.9-2 -0.5 0.1-1.1 0.3-1.6 0.6 -0.1-0.6-0.3-1.1-0.6-1.5 -0.7-1.2-2.3-1.5-3.4-0.8 -0.5 0.3-0.8 0.7-1.2 1.1 -0.3-0.5-0.7-0.9-1.1-1.2 -1.1-0.8-2.7-0.5-3.5 0.6 -0.3 0.4-0.5 0.9-0.7 1.5 -0.5-0.3-1-0.5-1.5-0.6 -1.3-0.3-2.7 0.5-3 1.9 -0.1 0.5-0.1 1.1-0.1 1.7 -0.6-0.1-1.1-0.1-1.6-0.1 -1.4 0.2-2.3 1.6-2.1 2.9 0.1 0.5 0.3 1 0.6 1.5 -0.6 0.1-1.1 0.3-1.5 0.6 -1.2 0.7-1.5 2.3-0.8 3.4 0.3 0.5 0.7 0.9 1.1 1.2 -0.5 0.3-0.9 0.7-1.2 1.1 -0.8 1.1-0.5 2.7 0.6 3.5 0.4 0.3 1 0.5 1.5 0.7 -0.3 0.5-0.5 1-0.6 1.5C232.6 34.1 233.4 35.4 234.7 35.7z"/><path fill="#FF5E79" d="M246.7 24.9c0 0 0.4-1.4 0.6-3.1 0.1-0.9 0.2-2 0.1-2.9 -0.2-1.5-0.6-2.9-1.9-3.1 0 0-0.5 0-0.9 0.4 -0.2 0.2-0.5 0.5-0.6 1.2 -0.1 1 0 2.4 1.1 4.8C245.5 23 246 23.9 246.7 24.9z"/><path fill="#FF5E79" d="M248.1 26.5c0 0 1.4 0.3 3 0.8 0.9 0.3 1.9 0.7 2.7 1.2 1.3 0.8 2.3 1.9 1.9 3.1 0 0-0.2 0.5-0.8 0.6 -0.2 0.1-0.7 0.2-1.3 0 -1-0.3-2.1-1-3.8-3.2C249.2 28.4 248.7 27.5 248.1 26.5z"/><path fill="#FF5E79" d="M248.1 25.8c0 0 1.4 0.3 3.1 0.5 1 0.1 2 0.2 2.9 0 1.5-0.2 2.9-0.7 3-2 0 0 0-0.5-0.4-0.9 -0.2-0.2-0.5-0.5-1.2-0.5 -1-0.1-2.4 0-4.8 1.3C249.9 24.6 249.1 25.1 248.1 25.8z"/><path fill="#FF5E79" d="M247.6 25c0 0 1.3-0.7 2.7-1.7 0.8-0.6 1.6-1.2 2.2-1.9 1-1.2 1.7-2.5 0.9-3.5 0 0-0.4-0.4-0.9-0.4 -0.2 0-0.7 0-1.3 0.4 -0.8 0.6-1.8 1.6-2.7 4.2C248.1 22.9 247.9 23.9 247.6 25z"/><path fill="#FF5E79" d="M245.9 25.2c0 0-1.4-0.2-3.1-0.7 -0.9-0.3-1.9-0.6-2.7-1.1 -1.3-0.8-2.4-1.7-2.1-2.9 0 0 0.2-0.5 0.7-0.7 0.2-0.1 0.6-0.2 1.3 0 1 0.3 2.2 0.9 4 3C244.7 23.4 245.3 24.2 245.9 25.2z"/><path fill="#FF5E79" d="M247.3 26.9c0 0-0.3 1.4-0.5 3.1 -0.1 1-0.2 2 0 2.9 0.2 1.5 0.7 2.9 2 3 0 0 0.5 0 0.9-0.4 0.2-0.2 0.5-0.5 0.5-1.2 0.1-1 0-2.4-1.3-4.8C248.5 28.7 248 27.9 247.3 26.9z"/><path fill="#FF5E79" d="M246.4 26.8c0 0-0.2 1.4-0.7 3.1 -0.3 0.9-0.6 1.9-1.1 2.7 -0.8 1.3-1.8 2.4-3 2 0 0-0.5-0.2-0.7-0.7 -0.1-0.2-0.2-0.6 0-1.3 0.3-1 0.9-2.2 3-4C244.5 28 245.4 27.4 246.4 26.8z"/><path fill="#FF5E79" d="M245.8 26c0 0-1.1 0.9-2.5 1.9 -0.8 0.5-1.7 1-2.6 1.3 -1.5 0.5-2.9 0.6-3.6-0.4 0 0-0.2-0.5 0-1 0.1-0.2 0.2-0.6 0.9-1 0.9-0.5 2.1-1 4.9-1C243.6 25.7 244.6 25.8 245.8 26z"/></svg>