<?xml version="1.0" encoding="utf-8"?>
<!-- Generator: Adobe Illustrator 13.0.0, SVG Export Plug-In . SVG Version: 6.00 Build 14948)  -->
<!DOCTYPE svg PUBLIC "-//W3C//DTD SVG 1.1//EN" "http://www.w3.org/Graphics/SVG/1.1/DTD/svg11.dtd">
<svg version="1.1" id="Layer_1" xmlns="http://www.w3.org/2000/svg" xmlns:xlink="http://www.w3.org/1999/xlink" x="0px" y="0px"
	 width="84.087px" height="76.591px" viewBox="0 0 84.087 76.591" enable-background="new 0 0 84.087 76.591" xml:space="preserve">
<path opacity="0.65" fill-rule="evenodd" clip-rule="evenodd" fill="#F06283" d="M59.293,10.858
	c0.458-2.533,1.432-7.874,0.647-10.012C59.716,0.224,57.425,0.096,59.494,0c3.349,4.134-1.333,8.722,1.353,13.812
	c1.17,0.393,2.809-0.725,3.425,1.418c2.757-0.902,5.378-1.395,8.455-3.361c3.489,0.097,5.629,4.563,10.239,1.064
	c0.693,0.923-2.044,0.774-0.602,1.932c-3.685,0.57-7.258-0.229-10.795,2.985c2.25,2.207,5.826,0.146,8.936-0.396
	c-5.352,1.882-11.26,2.989-14.086,9.013c1.305,0.762,1.777-2.894,3.791-1.993c0.295,1.427-1.344,0.007-2.1,1.103
	c4.893-1.248,10.515,0.582,15.977,0.746c-6.541,0.648-12.18-1.645-19.549,1.677c1.305,6.046,5.953,13.122,0.352,17.02
	c-2.779-3.127-3.285-7.245-4.055-10.766c-2.657,6.801,3.251,16.272-1.672,22.375c-0.746,2.122,0.688,4.914-0.715,6.826
	c-1.743,1.471-2.757,0.568-4.024,0.514c-0.949,0.998-1.122,2.241-2.069,3.231c-1.605,1.017-2.162-1.343-3.633-0.777
	c-5.984,2.163-1.943,9.223-8.096,10.17c-0.791-2.573,0.786-3.876-1.611-6.137c0.232-3.104,2.358-5.606,4.301-8.18
	c-3.182,0.494-1.426-6.86-5.651-5.636c-1.361-5.277-3.358-10.601-0.521-15.31c-1.434-0.306-2.96-0.306-4.483-0.333
	c-7.446-5.128-15.491-8.352-23.442-11.869C5.84,29.046,2.461,28.96,0,25.908c0.721-1.767,2.654-3.168,5.236-4.356
	c-0.245-1.843-0.797-3.771-0.111-5.319c18.571-11.592,41.275-4.987,54.317,2.077c2.247-1.425,0.888-3.028-0.331-5.742
	c-1.946-4.352,0.666-8.822-3.4-10.576C59.792,2.345,58.228,8.144,59.293,10.858z M64.497,15.654c0.408,0.713,0.25,1.247-0.175,1.708
	c4.246,4.233,9.886-3.203,13.991-3.056C74.807,11.205,69.421,14.193,64.497,15.654z M70.972,19.784
	c-1.421,1.081-3.203,2.051-2.902,3.669C69.136,22.262,70.543,21.173,70.972,19.784z M66.579,23.695
	c2.844-1.918-0.971-3.78-2.635-3.991C64.718,21.379,65.564,22.818,66.579,23.695z"/>
</svg>
