<svg xmlns="http://www.w3.org/2000/svg" version="1.1" x="0" y="0" width="84.1" height="76.6" viewBox="0 0 84.1 76.6" enable-background="new 0 0 84.087 76.591" xml:space="preserve"><path opacity="0.7" fill-rule="evenodd" clip-rule="evenodd" fill="#F06283" d="M59.3 10.9c0.5-2.5 1.4-7.9 0.6-10C59.7 0.2 57.4 0.1 59.5 0c3.3 4.1-1.3 8.7 1.4 13.8 1.2 0.4 2.8-0.7 3.4 1.4 2.8-0.9 5.4-1.4 8.5-3.4 3.5 0.1 5.6 4.6 10.2 1.1 0.7 0.9-2 0.8-0.6 1.9 -3.7 0.6-7.3-0.2-10.8 3 2.3 2.2 5.8 0.1 8.9-0.4 -5.4 1.9-11.3 3-14.1 9 1.3 0.8 1.8-2.9 3.8-2 0.3 1.4-1.3 0-2.1 1.1 4.9-1.2 10.5 0.6 16 0.7 -6.5 0.6-12.2-1.6-19.5 1.7 1.3 6 6 13.1 0.4 17 -2.8-3.1-3.3-7.2-4.1-10.8 -2.7 6.8 3.3 16.3-1.7 22.4 -0.7 2.1 0.7 4.9-0.7 6.8 -1.7 1.5-2.8 0.6-4 0.5 -0.9 1-1.1 2.2-2.1 3.2 -1.6 1-2.2-1.3-3.6-0.8 -6 2.2-1.9 9.2-8.1 10.2 -0.8-2.6 0.8-3.9-1.6-6.1 0.2-3.1 2.4-5.6 4.3-8.2 -3.2 0.5-1.4-6.9-5.7-5.6 -1.4-5.3-3.4-10.6-0.5-15.3 -1.4-0.3-3-0.3-4.5-0.3 -7.4-5.1-15.5-8.4-23.4-11.9C5.8 29 2.5 29 0 25.9c0.7-1.8 2.7-3.2 5.2-4.4 -0.2-1.8-0.8-3.8-0.1-5.3 18.6-11.6 41.3-5 54.3 2.1 2.2-1.4 0.9-3-0.3-5.7 -1.9-4.4 0.7-8.8-3.4-10.6C59.8 2.3 58.2 8.1 59.3 10.9zM64.5 15.7c0.4 0.7 0.3 1.2-0.2 1.7 4.2 4.2 9.9-3.2 14-3.1C74.8 11.2 69.4 14.2 64.5 15.7zM71 19.8c-1.4 1.1-3.2 2.1-2.9 3.7C69.1 22.3 70.5 21.2 71 19.8zM66.6 23.7c2.8-1.9-1-3.8-2.6-4C64.7 21.4 65.6 22.8 66.6 23.7z"/></svg>