<svg xmlns="http://www.w3.org/2000/svg" version="1.1" x="0" y="0" width="299.8" height="305.6" viewBox="0 0 299.8 305.6" enable-background="new 0 0 299.812 305.645" xml:space="preserve"><g opacity="0.3"><path fill="#95AF2E" d="M36.3 268.6c0 0-1.3 4.3-6.6 1.4 0.4-1.8 2.5-5.6 5.9-3.5"/><path fill="#95AF2E" d="M35.8 263.8c0 0-4.1 1.7-5.3-4.2 1.7-0.9 5.9-1.7 6.4 2.4"/><path fill="#95AF2E" d="M39.9 272.1c0 0 1.8 4.1-4 5.4 -0.9-1.6-1.8-5.8 2.2-6.5"/><path fill="#95AF2E" d="M45.1 271.8c0 0 4.1 1.7 0.8 6.7 -1.8-0.6-5.3-3-2.9-6.2"/><path fill="#95AF2E" d="M46.3 261.1c0 0 4.3-1.1 1.8-6.5 -1.9 0.3-5.7 2.1-3.8 5.7"/><path fill="#95AF2E" d="M41.5 259.6c0 0 2.4-3.8-3.2-6 -1.2 1.5-2.7 5.5 1.2 6.8"/><path fill="#95AF2E" d="M48.2 264.9c0 0 3.2 3.1 6.5-2 -1.2-1.4-4.9-3.6-6.9-0.1"/><path fill="#95AF2E" d="M47 270c0 0 0.6 4.4 6.3 2.6 -0.1-1.9-1.5-5.9-5.2-4.4"/><path fill="#FCE580" d="M51.2 270.7c0.2-0.7-0.2-1.5-0.9-1.7 -0.7-0.2-1.4 0.3-1.6 1 -0.2 0.7 0.2 1.5 0.9 1.7C50.3 271.9 51 271.4 51.2 270.7z"/><ellipse transform="matrix(0.9668 0.2555 -0.2555 0.9668 69.7033 0.4309)" fill="#FCE580" cx="33.2" cy="268.5" rx="1.3" ry="1.4"/><path fill="#FCE580" d="M39 274.2c0.2-0.7-0.2-1.5-0.9-1.7 -0.7-0.2-1.4 0.3-1.6 1 -0.2 0.7 0.2 1.5 0.9 1.7C38 275.4 38.8 275 39 274.2z"/><path fill="#FCE580" d="M46 275.3c0.2-0.7-0.2-1.5-0.9-1.7 -0.7-0.2-1.4 0.3-1.6 1 -0.2 0.7 0.2 1.5 0.9 1.7C45.1 276.5 45.8 276.1 46 275.3z"/><path fill="#FCE580" d="M52.3 263.8c0.2-0.7-0.2-1.5-0.9-1.7 -0.7-0.2-1.4 0.3-1.6 1 -0.2 0.7 0.2 1.5 0.9 1.7C51.4 264.9 52.1 264.5 52.3 263.8z"/><path fill="#FCE580" d="M47.8 258c0.2-0.7-0.2-1.5-0.9-1.7 -0.7-0.2-1.4 0.3-1.6 1 -0.2 0.7 0.2 1.5 0.9 1.7C46.8 259.2 47.6 258.7 47.8 258z"/><path fill="#FCE580" d="M40.6 257.4c0.2-0.7-0.2-1.5-0.9-1.7 -0.7-0.2-1.4 0.3-1.6 1 -0.2 0.7 0.2 1.5 0.9 1.7C39.7 258.6 40.4 258.2 40.6 257.4z"/><ellipse transform="matrix(0.967 0.2546 -0.2546 0.967 67.6706 0.0339)" fill="#FCE580" cx="33.7" cy="261.4" rx="1.3" ry="1.4"/><path fill="#FFC709" d="M48.5 267.5c0.9-3.6-1.2-7.2-4.8-8.2 -3.6-0.9-7.2 1.2-8.2 4.7 -0.9 3.6 1.2 7.2 4.8 8.2C44 273.2 47.6 271.1 48.5 267.5z"/><path fill="#95AF2E" d="M44.7 266.5c0.4-1.5-0.5-3-1.9-3.3 -1.5-0.4-3 0.5-3.3 1.9 -0.4 1.5 0.5 3 1.9 3.3C42.9 268.9 44.3 268 44.7 266.5z"/><circle fill="#FCE580" cx="42.1" cy="265.8" r="1.7"/><path fill="#95AF2E" d="M42.7 266c0.1-0.3-0.1-0.7-0.4-0.7 -0.3-0.1-0.7 0.1-0.7 0.4 -0.1 0.3 0.1 0.7 0.4 0.7C42.3 266.5 42.6 266.3 42.7 266z"/><path fill="#95AF2E" d="M50.5 270.5c0.1-0.3-0.1-0.7-0.4-0.7 -0.3-0.1-0.7 0.1-0.7 0.4 -0.1 0.3 0.1 0.7 0.4 0.7C50.1 271 50.4 270.8 50.5 270.5z"/><path fill="#95AF2E" d="M38.3 267.5c0.2-0.7-0.2-1.5-0.9-1.7 -0.7-0.2-1.4 0.3-1.6 1 -0.2 0.7 0.2 1.5 0.9 1.7C37.4 268.7 38.1 268.2 38.3 267.5z"/><ellipse transform="matrix(0.9668 0.2555 -0.2555 0.9668 69.0969 -3.2703)" fill="#95AF2E" cx="47.1" cy="264.3" rx="1.3" ry="1.4"/><path fill="#F39308" d="M42 261.4c0.2-0.7-0.2-1.5-0.9-1.7 -0.7-0.2-1.4 0.3-1.6 1 -0.2 0.7 0.2 1.5 0.9 1.7C41.1 262.6 41.8 262.1 42 261.4z"/><path fill="#95AF2E" d="M39 263.6c0.2-0.7-0.2-1.5-0.9-1.7 -0.7-0.2-1.4 0.3-1.6 1 -0.2 0.7 0.2 1.5 0.9 1.7C38.1 264.8 38.8 264.3 39 263.6z"/><path fill="#95AF2E" d="M46 261.6c0.2-0.7-0.2-1.5-0.9-1.7 -0.7-0.2-1.4 0.3-1.6 1 -0.2 0.7 0.2 1.5 0.9 1.7C45 262.7 45.8 262.3 46 261.6z"/><path fill="#95AF2E" d="M47.7 268.6c0.2-0.7-0.2-1.5-0.9-1.7 -0.7-0.2-1.4 0.3-1.6 1 -0.2 0.7 0.2 1.5 0.9 1.7C46.8 269.7 47.5 269.3 47.7 268.6z"/><path fill="#95AF2E" d="M33.8 268.7c0.1-0.3-0.1-0.7-0.4-0.7 -0.3-0.1-0.7 0.1-0.7 0.4 -0.1 0.3 0.1 0.7 0.4 0.7C33.4 269.2 33.7 269 33.8 268.7z"/><path fill="#95AF2E" d="M38.3 274c0.1-0.3-0.1-0.7-0.4-0.7 -0.3-0.1-0.7 0.1-0.7 0.4 -0.1 0.3 0.1 0.7 0.4 0.7C37.9 274.6 38.2 274.4 38.3 274z"/><path fill="#F39308" d="M45.3 275.1c0.1-0.3-0.1-0.7-0.4-0.7 -0.3-0.1-0.7 0.1-0.7 0.4 -0.1 0.3 0.1 0.7 0.4 0.7C44.9 275.7 45.3 275.5 45.3 275.1z"/><path fill="#95AF2E" d="M51.6 263.6c0.1-0.3-0.1-0.7-0.4-0.7 -0.3-0.1-0.7 0.1-0.7 0.4 -0.1 0.3 0.1 0.7 0.4 0.7C51.2 264.1 51.5 263.9 51.6 263.6z"/><path fill="#95AF2E" d="M47.1 257.8c0.1-0.3-0.1-0.7-0.4-0.7 -0.3-0.1-0.7 0.1-0.7 0.4 -0.1 0.3 0.1 0.7 0.4 0.7C46.7 258.3 47 258.1 47.1 257.8z"/><circle fill="#95AF2E" cx="39.3" cy="257.1" r="0.6"/><path fill="#95AF2E" d="M34.3 261.6c0.1-0.3-0.1-0.7-0.4-0.7 -0.3-0.1-0.7 0.1-0.7 0.4 -0.1 0.3 0.1 0.7 0.4 0.7C33.9 262.1 34.2 261.9 34.3 261.6z"/><path fill="#95AF2E" d="M44.7 271c0.2-0.7-0.2-1.5-0.9-1.7 -0.7-0.2-1.4 0.3-1.6 1 -0.2 0.7 0.2 1.5 0.9 1.7C43.8 272.2 44.5 271.7 44.7 271z"/><path fill="#F39308" d="M40.8 270.5c0.2-0.7-0.2-1.5-0.9-1.7 -0.7-0.2-1.4 0.3-1.6 1 -0.2 0.7 0.2 1.5 0.9 1.7C39.8 271.7 40.6 271.3 40.8 270.5z"/><circle fill="#95AF2E" cx="40.3" cy="271.4" r="1.1"/><path fill="#95AF2E" d="M160.5 126c0 0 1.4 4.5 6.4 3 0 0 4.4-1.2 6.3-5.6 -1.2 0.1-3.2-0.4-4.6-1.1C167.1 121.7 162.2 120.2 160.5 126z"/><path fill="#95AF2E" d="M160.9 126.1c0 0-5.2-0.6-7.3-1.9"/><path fill="#95AF2E" d="M164.1 135.2c0 0 0.1 5.9 6.6 5.8 0 0 5.6 0.1 9.4-4.5 -1.4-0.3-3.7-1.6-5.1-2.9C173.5 132.4 168.2 128.8 164.1 135.2z"/><path fill="#95AF2E" d="M164.6 135.4c0 0-7.9-3.7-10.9-6.6"/><path fill="#95AF2E" d="M147 153.4c0 0 3.7 4.6-1.4 8.7 0 0-4.3 3.6-10.1 2.5 0.9-1.1 1.9-3.6 2.1-5.5C138 157.2 139.9 151.1 147 153.4z"/><path fill="#95AF2E" d="M146.9 153.9c0 0 3.8-9.2 4.3-14.1"/><path fill="#95AF2E" d="M136.2 226.3c0 0-2.4 3 0.9 5.6 0 0 2.8 2.4 6.5 1.7 -0.6-0.7-1.2-2.3-1.3-3.6C142 228.8 140.8 224.8 136.2 226.3z"/><path fill="#95AF2E" d="M136.3 226.6c0 0-1.9-3.7-2-5.7"/><path fill="#95AF2E" d="M131.7 232.8c0 0-3.9 2.7-0.9 7 0 0 2.5 3.8 7.2 4.3 -0.4-1.1-0.6-3.2-0.4-4.7C137.8 237.8 137.8 232.6 131.7 232.8z"/><path fill="#95AF2E" d="M131.7 233.2c0 0-1-7-0.5-10.4"/><path fill="#95AF2E" d="M133.1 116.1c0 0 2.2 11-9.9 13.5 0 0-10.4 2.4-19.2-4.5 2.5-1.1 6.2-4.5 8.4-7.5C114.5 114.6 123.1 105.8 133.1 116.1z"/><path fill="#95AF2E" d="M132.4 116.7c0 0 13.6-10.3 17.7-17.7"/><path fill="#95AF2E" d="M138 100.9c0 0-1.6 8.1-10.6 6.4 0 0-7.8-1.4-11.9-8.6 2 0 5.6-1.3 7.9-2.7C125.7 94.6 134.1 91 138 100.9z"/><path fill="#95AF2E" d="M137.3 101.2c0 0 8.9-2 12.4-4.6"/><path fill="#95AF2E" d="M168.3 175.2c0 0-0.7 5.2 5.1 6 0 0 5 0.8 8.9-2.7 -1.2-0.4-3.1-1.9-4.1-3.2C177 173.9 172.7 170.1 168.3 175.2z"/><path fill="#95AF2E" d="M168.7 175.4c0 0-7.5-5.2-10.2-8.5"/><path fill="#95AF2E" d="M165.4 168.6c0 0 0.2 3.6 4.1 3.4 0 0 3.4-0.1 5.6-2.9 -0.9-0.1-2.3-0.9-3.2-1.7C171.1 166.7 167.7 164.6 165.4 168.6z"/><path fill="#95AF2E" d="M165.7 168.7c0 0-5.2-2-7.2-3.6"/><path fill="#95AF2E" d="M163.7 175.9c0 0 3.1 1.1 1.9 4.6 0 0-1 3-4.2 4.2 0.1-0.8-0.2-2.3-0.6-3.3C160.4 180.4 159.6 176.8 163.7 175.9z"/><path fill="#95AF2E" d="M163.8 176.2c0 0-0.2-3.7-1.1-5.2"/><path fill="#95AF2E" d="M155.6 206.3c0 0 3.1 1.1 1.9 4.6 0 0-1 3-4.2 4.2 0.1-0.8-0.2-2.3-0.6-3.3C152.3 210.8 151.5 207.3 155.6 206.3z"/><path fill="#95AF2E" d="M155.7 206.6c0 0-0.2-3.7-1.1-5.2"/><path fill="#95AF2E" d="M157.4 195.4c0 0-0.9 2.7 2.1 3.7 0 0 2.6 0.9 5-0.6 -0.6-0.3-1.4-1.3-1.9-2.1C162.1 195.5 160.2 193.1 157.4 195.4z"/><path fill="#95AF2E" d="M157.6 195.5c0 0-3.6-3-4.5-5"/><path fill="#95AF2E" d="M143.3 217.4c0 0-0.9 2.7 2.1 3.7 0 0 2.6 0.9 5-0.6 -0.6-0.3-1.4-1.3-1.9-2.1C148 217.6 146.1 215.1 143.3 217.4z"/><path fill="#95AF2E" d="M143.5 217.6c0 0-2.3-2.1-2.9-3.4"/><circle fill="#95AF2E" cx="124.9" cy="196.8" r="1.5"/><path fill="#95AF2E" d="M111.5 226.3c-0.1-0.8 0.4-1.6 1.3-1.8 0.8-0.1 1.6 0.4 1.8 1.3 0.1 0.8-0.4 1.6-1.3 1.8C112.5 227.7 111.7 227.1 111.5 226.3z"/><circle fill="#95AF2E" cx="125.4" cy="207.6" r="1.5"/><path fill="#95AF2E" d="M132.5 189.9c-0.1-0.8 0.4-1.6 1.3-1.8 0.8-0.1 1.6 0.4 1.8 1.3 0.1 0.8-0.4 1.6-1.3 1.8C133.4 191.3 132.6 190.7 132.5 189.9z"/><circle fill="#95AF2E" cx="130.8" cy="180" r="0.8"/><circle fill="#95AF2E" cx="129.4" cy="186.9" r="0.8"/><circle fill="#95AF2E" cx="118.5" cy="205.8" r="0.8"/><circle fill="#95AF2E" cx="124.3" cy="219.5" r="0.8"/><path fill="#95AF2E" d="M123.1 216c-0.1-0.4 0.2-0.9 0.7-0.9 0.4-0.1 0.9 0.2 0.9 0.7 0.1 0.4-0.2 0.9-0.7 0.9C123.6 216.8 123.2 216.5 123.1 216z"/><circle fill="#95AF2E" cx="49.9" cy="265" r="1.5"/><circle fill="#95AF2E" cx="49.9" cy="265" r="1.5"/><path fill="#95AF2E" d="M54 269.2c-0.1-0.4 0.2-0.9 0.7-0.9 0.4-0.1 0.9 0.2 0.9 0.7 0.1 0.4-0.2 0.9-0.7 0.9C54.5 270 54.1 269.7 54 269.2z"/><circle fill="#95AF2E" cx="150.6" cy="160.3" r="1.5"/><path fill="#95AF2E" d="M125.4 178.1c-0.1-0.8 0.4-1.6 1.3-1.8 0.8-0.1 1.6 0.4 1.8 1.3 0.1 0.8-0.4 1.6-1.3 1.8C126.4 179.5 125.6 179 125.4 178.1z"/><path fill="#95AF2E" d="M137.2 189.7c-0.1-0.8 0.4-1.6 1.3-1.8 0.8-0.1 1.6 0.4 1.8 1.3 0.1 0.8-0.4 1.6-1.3 1.8C138.1 191.1 137.3 190.5 137.2 189.7z"/><circle fill="#95AF2E" cx="135.5" cy="151.5" r="1.5"/><circle fill="#95AF2E" cx="150.6" cy="160.3" r="1.5"/><circle fill="#95AF2E" cx="128.5" cy="149.8" r="0.8"/><circle fill="#95AF2E" cx="134.3" cy="163.4" r="0.8"/><circle fill="#95AF2E" cx="119.5" cy="172.3" r="0.8"/><circle fill="#95AF2E" cx="138.3" cy="173" r="1.5"/><circle fill="#95AF2E" cx="53.2" cy="202.4" r="0.8"/><circle fill="#95AF2E" cx="51.8" cy="209.2" r="0.8"/><path fill="#95AF2E" d="M59.2 195.6c-0.1-0.8 0.4-1.6 1.3-1.8 0.8-0.1 1.6 0.4 1.8 1.3 0.1 0.8-0.4 1.6-1.3 1.8C60.1 197 59.3 196.4 59.2 195.6z"/><circle fill="#95AF2E" cx="170.1" cy="154.3" r="0.8"/><circle fill="#95AF2E" cx="168.7" cy="161.1" r="0.8"/><circle fill="#95AF2E" cx="166.2" cy="152.1" r="1.5"/><path fill="#95AF2E" d="M176.1 147.5c-0.1-0.8 0.4-1.6 1.3-1.8 0.8-0.1 1.6 0.4 1.8 1.3 0.1 0.8-0.4 1.6-1.3 1.8C177 148.9 176.2 148.3 176.1 147.5z"/><circle fill="#95AF2E" cx="95" cy="191.4" r="1.5"/><circle fill="#95AF2E" cx="104.1" cy="184.2" r="1.5"/><circle fill="#95AF2E" cx="101" cy="174.6" r="0.8"/><path fill="#95AF2E" d="M98.7 181.7c-0.1-0.4 0.2-0.9 0.7-0.9 0.4-0.1 0.9 0.2 0.9 0.7 0.1 0.4-0.2 0.9-0.7 0.9C99.2 182.4 98.8 182.1 98.7 181.7z"/><circle fill="#95AF2E" cx="108.8" cy="184" r="1.5"/><path fill="#95AF2E" d="M106.9 167.9c-0.1-0.8 0.4-1.6 1.3-1.8 0.8-0.1 1.6 0.4 1.8 1.3 0.1 0.8-0.4 1.6-1.3 1.8C107.9 169.3 107.1 168.7 106.9 167.9z"/><circle fill="#95AF2E" cx="130.9" cy="167.5" r="0.8"/><path fill="#95AF2E" d="M150.5 125.1c-0.1-0.8 0.4-1.6 1.3-1.8 0.8-0.1 1.6 0.4 1.8 1.3 0.1 0.8-0.4 1.6-1.3 1.8C151.5 126.5 150.7 125.9 150.5 125.1z"/><path fill="#95AF2E" d="M126.9 142.7c-0.1-0.8 0.4-1.6 1.3-1.8 0.8-0.1 1.6 0.4 1.8 1.3 0.1 0.8-0.4 1.6-1.3 1.8C127.8 144.1 127 143.5 126.9 142.7z"/><path fill="#95AF2E" d="M138.6 154.2c-0.1-0.8 0.4-1.6 1.3-1.8 0.8-0.1 1.6 0.4 1.8 1.3 0.1 0.8-0.4 1.6-1.3 1.8C139.6 155.6 138.8 155.1 138.6 154.2z"/><circle fill="#95AF2E" cx="136.9" cy="116.1" r="1.5"/><path fill="#95AF2E" d="M150.5 125.1c-0.1-0.8 0.4-1.6 1.3-1.8 0.8-0.1 1.6 0.4 1.8 1.3 0.1 0.8-0.4 1.6-1.3 1.8C151.5 126.5 150.7 125.9 150.5 125.1z"/><circle fill="#95AF2E" cx="130" cy="114.3" r="0.8"/><path fill="#95AF2E" d="M135 128.1c-0.1-0.4 0.2-0.9 0.7-0.9 0.4-0.1 0.9 0.2 0.9 0.7 0.1 0.4-0.2 0.9-0.7 0.9C135.5 128.9 135 128.6 135 128.1z"/><circle fill="#95AF2E" cx="121" cy="136.9" r="0.8"/><circle fill="#95AF2E" cx="139.8" cy="137.6" r="1.5"/><circle fill="#95AF2E" cx="132.3" cy="132" r="0.8"/><path fill="#95AF2E" d="M73.6 255.7c-0.1-0.4 0.2-0.9 0.7-0.9 0.4-0.1 0.9 0.2 0.9 0.7 0.1 0.4-0.2 0.9-0.7 0.9C74.1 256.5 73.7 256.1 73.6 255.7z"/><path fill="#95AF2E" d="M85 250.9c-0.1-0.4 0.2-0.9 0.7-0.9s0.9 0.2 0.9 0.7c0.1 0.4-0.2 0.9-0.7 0.9C85.5 251.6 85 251.3 85 250.9z"/><path fill="#95AF2E" d="M118.3 90.6c-0.1-0.8 0.4-1.6 1.3-1.8 0.8-0.1 1.6 0.4 1.8 1.3 0.1 0.8-0.4 1.6-1.3 1.8C119.2 92 118.4 91.5 118.3 90.6z"/><circle fill="#95AF2E" cx="107.9" cy="119.5" r="1.5"/><path fill="#95AF2E" d="M118.3 90.6c-0.1-0.8 0.4-1.6 1.3-1.8 0.8-0.1 1.6 0.4 1.8 1.3 0.1 0.8-0.4 1.6-1.3 1.8C119.2 92 118.4 91.5 118.3 90.6z"/><circle fill="#95AF2E" cx="135" cy="100.6" r="1.5"/><circle fill="#95AF2E" cx="124.8" cy="94.4" r="0.8"/><circle fill="#95AF2E" cx="156.4" cy="115.3" r="1.5"/><path fill="#95AF2E" d="M148.1 109.9c-0.1-0.4 0.2-0.9 0.7-0.9 0.4-0.1 0.9 0.2 0.9 0.7 0.1 0.4-0.2 0.9-0.7 0.9C148.6 110.6 148.2 110.3 148.1 109.9z"/><circle fill="#95AF2E" cx="140.1" cy="207.1" r="1.5"/><circle fill="#95AF2E" cx="111.9" cy="194.9" r="2.6"/><circle fill="#95AF2E" cx="147" cy="176" r="2.6"/><circle fill="#95AF2E" cx="189.7" cy="136.8" r="2.6"/><circle fill="#95AF2E" cx="128.5" cy="247" r="2.6"/><circle fill="#95AF2E" cx="72.8" cy="162.5" r="2.6"/><path fill="#95AF2E" d="M299.8 9.3c-0.9-0.9-54.2-11.5-77.4-2 -12.1 4.7-39.2 14.6-54 41.4 -10.8 22.1-20.4 37.1-15 69.5 5.3 32.5 7.6 54.3 3 67.3 -4.6 13-12.8 40-66.9 63 -17.8 7.1-35.8 12.2-35.8 12.2s36.4-11.1 56.1-23.4c19.7-12.3 39.4-28.9 42.4-48.9 1.7-6.3 2.8-20.3 1.3-31.2 -1.5-10.9-4.4-26.7-5-41.3 -0.7-14.6 2.7-51.7 18.1-68.4 4.2-5.2 19.9-29.4 48.3-38.6 16.4-5.7 37.5-13.6 83.9-5.7C299.3 6 299.8 9.3 299.8 9.3z"/><path fill="#95AF2E" d="M150.3 129.2c-0.6 0.8-10.7 17.4-25.3 25.9 -15.5 9.1-33.9 13.6-45.7 15.8 -11.7 2.3-51.2 9.2-58.1 16.1 3.2-3 18.2-11 50-16.1 13.2-3.1 23-4.2 39.9-10.9 12.7-6.1 33.2-18.5 38.7-40.5C151.8 124.2 150.3 129.2 150.3 129.2z"/><path fill="none" d="M43.5 216.9c0 0 15.6-19.7 33-27.4 17.4-7.6 34.5-15.8 38.6-18.4 4.1-2.5 32.9-19.5 36.5-48.2"/><path fill="#95AF2E" d="M44 217.4c7.1-8.9 15.7-16.9 25.2-23.1 7.7-5 16.7-8.1 25-12 6.8-3.1 13.7-6.3 20.2-9.9 18.3-10.1 34.9-27.9 37.8-49.2 0.1-0.9-1.3-1.3-1.4-0.4 -3.1 22.3-20.9 40-40.2 50 -15 7.8-32 12.9-45.8 22.7 -8.1 5.8-15.6 13.1-21.8 20.9C42.4 217.1 43.4 218.2 44 217.4L44 217.4z"/><path fill="none" d="M131 147.9c0 0-12.3 4-18.9 3.2 -7.7-0.9-11.6-7.9-5.9-14.1 3.7-3.7 13.2-6.7 16.2 1.6 0.8 2.7 0.7 5.5-2.8 6.1 -3.2 0.5-5.5-1.2-5.6-3.4"/><path fill="#95AF2E" d="M130.8 147.1c-6.5 2.1-14.5 4.5-21.3 2.6 -8.4-2.4-5.3-11.6 0.6-14.6 2.1-1.1 4.6-1.4 7-0.9 1.2 0.3 2.1 0.9 3 1.8 0.4 0.6 0.8 1.1 1.1 1.7 2.2 4.4 0 5.5-6.5 3.2 -0.2-0.9-1.6-0.5-1.4 0.4 1.4 6.2 11.7 4.9 10.1-1.9 -1.8-7.8-9.6-8.4-15.6-4.9 -6.1 3.6-7 13 0.2 16 7.2 3 16.2 0.2 23.3-2.1C132.1 148.3 131.7 146.8 130.8 147.1L130.8 147.1z"/><path fill="none" d="M125.1 228.4c0 0-3.2 4.3-4.5 10.5 -1.3 6.2-3.8 14.9-8.9 16.6 -3.6 1.3-9.2-2-4.5-8.3 2.4-3.2 5.9-5 7.8-1 1.2 2.7-0.7 3.7-2.5 3.7"/><path fill="#95AF2E" d="M124.5 228c-2.8 3.9-4 8.5-5.1 13.1 -0.8 3.4-1.9 6.6-3.6 9.6 -1.2 2.2-3.1 4.1-5.8 4.2 -3.1-0.2-4.1-2.2-3-6.1 1.3-3.4 3.1-3.3 5.6 0.2 -0.9 0.1-1 1.6 0 1.5 1.8-0.2 3.6-0.8 3.6-3 0-1.7-1.8-4.6-3.8-4.5 -4.1 0.3-10.4 7.1-6.8 11.2 3.9 4.4 9 1.1 11.5-2.8 4.5-7 3.8-15.9 8.7-22.8C126.3 228 125 227.2 124.5 228L124.5 228z"/><path fill="#E48800" d="M67.2 231.9c0.4-0.2 0.8-0.3 1.3-0.3 0 0 0 0 0 0 0 0 0 0 0 0l0 0c0 0 0 0 0 0 -0.1-0.2-0.1-0.4-0.2-0.6 -0.1-0.2-0.1-0.5-0.1-0.7 0-1.1 0.8-2 1.9-2.1 0.1 0 0.3 0 0.4 0 0.1 0 0.2 0 0.3 0 0.1 0 0.3 0 0.4 0.1 0 0 0.1 0 0.1 0 0.1 0 0.1 0 0.2 0.1 0-0.5 0-0.9 0.2-1.3 0.4-1 1.5-1.6 2.5-1.2 0.4 0.1 0.8 0.4 1.1 0.7 0-0.1 0.1-0.2 0.1-0.3 0.1-0.1 0.1-0.2 0.2-0.3 0-0.1 0.1-0.1 0.1-0.2 0.1-0.1 0.2-0.2 0.3-0.3 0.7-0.8 2-0.8 2.8-0.1 0.3 0.3 0.6 0.6 0.8 1 0.3-0.3 0.7-0.6 1-0.8 1-0.5 2.2 0 2.6 1 0.1 0.2 0.1 0.3 0.2 0.5 0 0.1 0.1 0.2 0.1 0.3 0 0.1 0 0.1 0 0.2 0 0.1 0 0.2 0 0.2 0.3-0.1 0.6-0.2 0.8-0.2 0.1 0 0.3 0 0.4-0.1 1.1 0 2 0.8 2.1 1.9 0 0.1 0 0.3 0 0.4 0 0.1 0 0.2 0 0.2 0 0.1 0 0.2-0.1 0.3 0 0.1-0.1 0.2-0.1 0.3 0.5 0 0.9 0 1.3 0.2 1 0.4 1.6 1.5 1.2 2.5 -0.1 0.4-0.4 0.8-0.7 1.1 0.4 0.2 0.8 0.4 1.1 0.7 0.8 0.8 0.9 2 0.1 2.8 -0.3 0.3-0.6 0.6-1.1 0.8 0.3 0.3 0.6 0.7 0.8 1.1 0.5 1 0 2.2-1 2.6 -0.4 0.2-0.8 0.3-1.2 0.3 0.1 0.3 0.2 0.6 0.3 0.9 0 0.1 0 0.3 0 0.4 0 1.1-0.8 2-1.9 2.1 -0.4 0-0.9 0-1.3-0.2 0 0.5-0.1 0.9-0.2 1.3 -0.4 1-1.5 1.6-2.5 1.2 -0.4-0.2-0.8-0.4-1.1-0.7 -0.2 0.4-0.4 0.8-0.7 1.1 -0.7 0.8-2 0.9-2.8 0.1 -0.1-0.1-0.3-0.3-0.4-0.4 0 0 0 0 0-0.1 -0.1-0.2-0.2-0.4-0.3-0.6 -0.3 0.3-0.7 0.6-1.1 0.8 -1 0.5-2.2 0-2.6-1 -0.2-0.4-0.3-0.8-0.3-1.3 -0.4 0.2-0.8 0.3-1.3 0.3 -1.1 0-2-0.8-2.1-1.9 0-0.1 0-0.3 0-0.5 0 0 0-0.1 0-0.1 0-0.2 0.1-0.3 0.1-0.5 0 0 0 0 0 0 0-0.1 0-0.1 0.1-0.2 -0.5 0-0.9 0-1.3-0.2 -1-0.4-1.6-1.5-1.2-2.5 0.1-0.4 0.4-0.8 0.7-1.1 -0.4-0.2-0.8-0.4-1.1-0.7 -0.8-0.7-0.9-2-0.1-2.8 0.1-0.1 0.2-0.2 0.3-0.3 0.2-0.2 0.5-0.3 0.7-0.5 -0.1-0.1-0.1-0.1-0.2-0.2 0 0 0 0-0.1-0.1 -0.1-0.1-0.2-0.2-0.3-0.3 -0.1-0.1-0.2-0.3-0.3-0.4C65.8 233.6 66.2 232.4 67.2 231.9z"/><path fill-rule="evenodd" clip-rule="evenodd" fill="#BED630" d="M80 228.2c-0.3 0.1-0.6 0.4-0.8 0.6 -0.2-0.3-0.4-0.6-0.6-0.8 -0.6-0.6-1.6-0.5-2.2 0.1 -0.2 0.3-0.4 0.6-0.5 0.9 -0.3-0.2-0.6-0.4-0.9-0.5 -0.8-0.3-1.7 0.1-2 0.9 -0.1 0.3-0.2 0.7-0.1 1 -0.4-0.1-0.7-0.2-1.1-0.2 -0.8 0-1.5 0.8-1.5 1.6 0 0.3 0.1 0.7 0.3 1 -0.4 0-0.7 0.1-1 0.2 -0.8 0.4-1.1 1.3-0.7 2.1 0.1 0.3 0.3 0.6 0.6 0.8 -0.3 0.2-0.6 0.4-0.8 0.6 -0.6 0.6-0.5 1.6 0.1 2.2 0.2 0.2 0.5 0.4 0.9 0.5 -0.2 0.3-0.4 0.6-0.5 0.9 -0.3 0.8 0.1 1.7 0.9 2 0.3 0.1 0.7 0.2 1 0.2 -0.1 0.4-0.2 0.7-0.2 1 0 0.9 0.8 1.5 1.6 1.5 0.3 0 0.7-0.1 1-0.3 0 0.4 0.1 0.7 0.3 1 0.4 0.8 1.3 1.1 2.1 0.8 0.3-0.1 0.6-0.3 0.9-0.6 0.2 0.3 0.4 0.6 0.6 0.8 0.6 0.6 1.6 0.5 2.2-0.1 0.2-0.2 0.4-0.5 0.6-0.9 0.3 0.2 0.6 0.4 0.9 0.5 0.8 0.3 1.7-0.1 2-0.9 0.1-0.3 0.2-0.7 0.2-1 0.3 0.1 0.7 0.2 1 0.2 0.9 0 1.5-0.8 1.5-1.6 0-0.3-0.1-0.7-0.2-1 0.4 0 0.7-0.1 1-0.2 0.8-0.4 1.1-1.3 0.8-2.1 -0.1-0.3-0.3-0.6-0.6-0.9 0.3-0.1 0.6-0.4 0.8-0.6 0.6-0.6 0.5-1.6-0.1-2.2 -0.3-0.2-0.6-0.4-0.9-0.5 0.2-0.3 0.4-0.6 0.5-0.9 0.3-0.8-0.1-1.7-0.9-2 -0.3-0.1-0.7-0.2-1-0.2 0.1-0.3 0.2-0.7 0.2-1 0-0.9-0.8-1.5-1.6-1.5 -0.3 0-0.7 0.1-1 0.2 0-0.4-0.1-0.7-0.3-1C81.7 228.2 80.8 227.8 80 228.2z"/><path fill-rule="evenodd" clip-rule="evenodd" fill="#FFFFFF" d="M79.4 230.5c-0.2 0.1-0.4 0.3-0.6 0.5 -0.1-0.2-0.3-0.5-0.5-0.6 -0.5-0.4-1.2-0.4-1.6 0.1 -0.2 0.2-0.3 0.4-0.4 0.7 -0.2-0.2-0.4-0.3-0.7-0.4 -0.6-0.2-1.3 0.1-1.5 0.7 -0.1 0.2-0.1 0.5-0.1 0.8 -0.3-0.1-0.5-0.1-0.8-0.1 -0.6 0-1.1 0.6-1.1 1.2 0 0.2 0.1 0.5 0.2 0.7 -0.3 0-0.5 0.1-0.8 0.2 -0.6 0.3-0.8 1-0.6 1.6 0.1 0.2 0.3 0.4 0.4 0.6 -0.2 0.1-0.4 0.3-0.6 0.5 -0.4 0.5-0.4 1.2 0.1 1.6 0.2 0.2 0.4 0.3 0.7 0.4 -0.2 0.2-0.3 0.4-0.4 0.7 -0.2 0.6 0.1 1.3 0.7 1.5 0.2 0.1 0.5 0.1 0.8 0.1 -0.1 0.3-0.1 0.5-0.1 0.8 0 0.6 0.6 1.2 1.2 1.1 0.3 0 0.5-0.1 0.7-0.2 0 0.3 0.1 0.5 0.2 0.8 0.3 0.6 1 0.8 1.5 0.6 0.2-0.1 0.4-0.3 0.6-0.5 0.1 0.2 0.3 0.4 0.4 0.6 0.5 0.4 1.2 0.4 1.6-0.1 0.2-0.2 0.3-0.4 0.4-0.7 0.2 0.2 0.4 0.3 0.7 0.4 0.6 0.2 1.3-0.1 1.5-0.7 0.1-0.3 0.1-0.5 0.1-0.8 0.3 0.1 0.5 0.1 0.8 0.1 0.6 0 1.1-0.6 1.1-1.2 0-0.3-0.1-0.5-0.2-0.7 0.3 0 0.5-0.1 0.7-0.2 0.6-0.3 0.8-1 0.6-1.5 -0.1-0.2-0.3-0.4-0.5-0.6 0.2-0.1 0.5-0.3 0.6-0.4 0.4-0.5 0.4-1.2-0.1-1.7 -0.2-0.2-0.4-0.3-0.7-0.4 0.2-0.2 0.3-0.4 0.4-0.7 0.2-0.6-0.1-1.3-0.7-1.5 -0.2-0.1-0.5-0.1-0.8-0.1 0.1-0.3 0.1-0.5 0.1-0.8 0-0.6-0.6-1.1-1.2-1.1 -0.3 0-0.5 0.1-0.7 0.2 0-0.3-0.1-0.5-0.2-0.7C80.7 230.5 80 230.3 79.4 230.5z"/><path fill="#FF5E79" d="M78.1 237.9c0 0 0.3 0.6 0.7 1.3 0.2 0.4 0.5 0.8 0.8 1.1 0.5 0.5 1.1 0.9 1.6 0.6 0 0 0.2-0.1 0.2-0.4 0-0.1 0-0.3-0.1-0.6 -0.2-0.4-0.7-0.9-1.8-1.5C79 238.3 78.6 238.1 78.1 237.9z"/><path fill="#FF5E79" d="M77.1 237.7c0 0-0.6 0.3-1.4 0.5 -0.4 0.1-0.9 0.3-1.3 0.3 -0.7 0.1-1.4 0-1.6-0.6 0 0-0.1-0.2 0.1-0.5 0.1-0.1 0.2-0.3 0.5-0.4 0.5-0.1 1.1-0.2 2.3 0.1C76.2 237.4 76.6 237.5 77.1 237.7z"/><path fill="#FF5E79" d="M77.3 238c0 0-0.6 0.3-1.3 0.7 -0.4 0.2-0.8 0.5-1.1 0.8 -0.5 0.5-0.9 1.1-0.6 1.6 0 0 0.2 0.2 0.4 0.2 0.1 0 0.3 0 0.6-0.1 0.4-0.3 0.9-0.7 1.4-1.8C77 239 77.1 238.5 77.3 238z"/><path fill="#FF5E79" d="M77.7 238.2c0 0-0.3 0.6-0.5 1.4 -0.1 0.4-0.2 0.9-0.3 1.3 0 0.7 0.1 1.4 0.6 1.6 0 0 0.2 0 0.5-0.1 0.1-0.1 0.3-0.2 0.4-0.5 0.1-0.5 0.2-1.1-0.2-2.3C78.1 239.1 77.9 238.6 77.7 238.2z"/><path fill="#FF5E79" d="M78.3 237.6c0 0 0.6-0.3 1.3-0.6 0.4-0.2 0.9-0.3 1.3-0.4 0.7-0.1 1.4 0 1.6 0.5 0 0 0.1 0.2-0.1 0.5 -0.1 0.1-0.2 0.3-0.5 0.4 -0.4 0.2-1.1 0.3-2.3 0C79.2 237.9 78.8 237.8 78.3 237.6z"/><path fill="#FF5E79" d="M77.3 237.4c0 0-0.3-0.6-0.7-1.3 -0.2-0.4-0.5-0.8-0.8-1.1 -0.5-0.5-1.1-0.9-1.6-0.5 0 0-0.2 0.2-0.2 0.4 0 0.1 0 0.3 0.2 0.6 0.3 0.4 0.7 0.9 1.8 1.4C76.3 237 76.8 237.2 77.3 237.4z"/><path fill="#FF5E79" d="M77.7 237.1c0 0-0.3-0.6-0.6-1.3 -0.2-0.4-0.3-0.9-0.4-1.3 -0.1-0.7 0-1.4 0.5-1.6 0 0 0.2-0.1 0.5 0.1 0.1 0.1 0.3 0.2 0.4 0.5 0.2 0.4 0.3 1.1 0 2.3C78 236.2 77.9 236.6 77.7 237.1z"/><path fill="#FF5E79" d="M78.1 237.3c0 0 0.1-0.7 0.4-1.4 0.2-0.4 0.3-0.9 0.6-1.2 0.4-0.6 0.9-1.1 1.4-0.9 0 0 0.2 0.1 0.3 0.4 0 0.1 0.1 0.3 0 0.6 -0.2 0.4-0.5 1-1.5 1.8C79 236.8 78.6 237 78.1 237.3z"/><path fill="#E48800" d="M182.8 148.8c0.6-0.3 1.3-0.4 2-0.5 0 0 0 0 0 0 0 0 0 0 0 0 0 0 0 0 0 0 0 0 0 0 0 0 -0.1-0.3-0.2-0.6-0.3-0.9 -0.1-0.4-0.2-0.7-0.2-1.1 -0.1-1.7 1.3-3.2 3-3.3 0.2 0 0.4 0 0.6 0 0.1 0 0.3 0 0.4 0 0.2 0 0.4 0.1 0.6 0.1 0.1 0 0.1 0 0.1 0 0.1 0 0.2 0.1 0.3 0.1 0-0.7 0.1-1.4 0.3-2 0.6-1.6 2.4-2.5 4-1.9 0.7 0.2 1.2 0.6 1.8 1.1 0.1-0.1 0.1-0.3 0.2-0.4 0.1-0.2 0.2-0.4 0.3-0.5 0.1-0.1 0.1-0.2 0.2-0.3 0.1-0.2 0.3-0.4 0.4-0.5 1.2-1.2 3.1-1.3 4.4-0.2 0.5 0.4 0.9 1 1.2 1.6 0.5-0.5 1-0.9 1.6-1.2 1.6-0.7 3.4 0 4.2 1.5 0.1 0.3 0.2 0.5 0.3 0.8 0 0.2 0.1 0.3 0.1 0.5 0 0.1 0 0.2 0.1 0.3 0 0.1 0.1 0.2 0.1 0.4 0.4-0.2 0.9-0.3 1.3-0.4 0.2 0 0.4-0.1 0.7-0.1 1.7-0.1 3.2 1.3 3.3 3 0 0.2 0 0.4 0 0.6 0 0.1 0 0.3 0 0.4 0 0.2-0.1 0.4-0.1 0.6 0 0.2-0.1 0.3-0.1 0.5 0.7 0 1.4 0.1 2.1 0.3 1.6 0.6 2.5 2.4 1.9 4 -0.2 0.6-0.6 1.2-1.1 1.8 0.7 0.3 1.3 0.6 1.8 1.1 1.2 1.2 1.3 3.2 0.2 4.5 -0.5 0.5-1 0.9-1.7 1.2 0.5 0.5 0.9 1.1 1.2 1.7 0.7 1.6 0.1 3.4-1.5 4.1 -0.6 0.3-1.2 0.4-1.9 0.5 0.2 0.5 0.3 0.9 0.4 1.4 0 0.2 0.1 0.4 0.1 0.6 0.1 1.7-1.3 3.2-3 3.2 -0.7 0-1.4-0.1-2-0.3 0 0.8-0.1 1.4-0.3 2.1 -0.6 1.6-2.4 2.5-4 1.9 -0.6-0.3-1.2-0.6-1.8-1.1 -0.3 0.7-0.7 1.3-1.1 1.8 -1.1 1.3-3.1 1.4-4.4 0.2 -0.2-0.2-0.4-0.4-0.6-0.7 0 0-0.1-0.1-0.1-0.1 -0.2-0.3-0.4-0.6-0.5-0.9 -0.5 0.5-1.1 0.9-1.7 1.2 -1.6 0.7-3.4 0.1-4.1-1.5 -0.3-0.6-0.4-1.3-0.5-2 -0.7 0.3-1.3 0.5-2 0.5 -1.7 0.1-3.2-1.3-3.3-3 0-0.2 0-0.5 0-0.7 0-0.1 0-0.1 0-0.2 0-0.2 0.1-0.5 0.2-0.8 0 0 0 0 0 0 0-0.1 0.1-0.2 0.1-0.3 -0.7 0-1.4-0.1-2-0.3 -1.6-0.6-2.5-2.4-1.9-4 0.2-0.7 0.6-1.2 1.1-1.8 -0.7-0.2-1.3-0.6-1.8-1.1 -1.3-1.2-1.4-3.1-0.2-4.4 0.2-0.2 0.3-0.3 0.5-0.5 0.4-0.3 0.7-0.5 1.2-0.8 -0.1-0.1-0.2-0.2-0.3-0.3 0 0-0.1-0.1-0.1-0.1 -0.1-0.2-0.3-0.3-0.4-0.5 -0.2-0.2-0.3-0.5-0.4-0.7C180.6 151.4 181.2 149.6 182.8 148.8z"/><path fill-rule="evenodd" clip-rule="evenodd" fill="#BED630" d="M202.9 142.9c-0.4 0.2-0.9 0.6-1.3 1 -0.3-0.5-0.6-1-1-1.3 -1-0.9-2.6-0.9-3.5 0.1 -0.4 0.4-0.6 0.9-0.8 1.4 -0.4-0.4-0.9-0.7-1.4-0.8 -1.3-0.5-2.7 0.2-3.2 1.5 -0.2 0.5-0.2 1-0.2 1.6 -0.6-0.2-1.1-0.3-1.7-0.3 -1.3 0.1-2.4 1.2-2.3 2.6 0 0.5 0.2 1.1 0.4 1.6 -0.6 0.1-1.1 0.2-1.6 0.4 -1.2 0.6-1.8 2.1-1.2 3.3 0.2 0.5 0.5 0.9 0.9 1.3 -0.5 0.3-0.9 0.6-1.3 1 -0.9 1-0.9 2.6 0.2 3.5 0.4 0.4 0.9 0.7 1.4 0.9 -0.4 0.4-0.7 0.9-0.8 1.4 -0.5 1.3 0.2 2.7 1.5 3.2 0.5 0.2 1 0.3 1.6 0.2 -0.2 0.6-0.3 1.1-0.2 1.6 0.1 1.4 1.2 2.4 2.6 2.4 0.5 0 1.1-0.2 1.6-0.4 0.1 0.6 0.2 1.1 0.4 1.6 0.6 1.2 2 1.8 3.3 1.2 0.5-0.2 0.9-0.5 1.3-1 0.2 0.5 0.6 1 0.9 1.3 1 0.9 2.6 0.8 3.5-0.2 0.4-0.4 0.7-0.9 0.9-1.4 0.4 0.4 0.9 0.6 1.4 0.9 1.3 0.5 2.7-0.2 3.2-1.5 0.2-0.5 0.3-1 0.3-1.6 0.5 0.2 1.1 0.3 1.6 0.2 1.4-0.1 2.4-1.2 2.4-2.6 0-0.5-0.2-1.1-0.4-1.6 0.6 0 1.1-0.2 1.5-0.4 1.2-0.6 1.8-2 1.2-3.3 -0.2-0.5-0.5-0.9-1-1.4 0.5-0.2 0.9-0.6 1.3-0.9 0.9-1 0.8-2.6-0.1-3.5 -0.4-0.3-0.9-0.6-1.4-0.8 0.4-0.4 0.7-0.9 0.9-1.4 0.5-1.3-0.2-2.7-1.5-3.2 -0.5-0.2-1-0.3-1.6-0.3 0.2-0.5 0.3-1.1 0.3-1.6 -0.1-1.4-1.2-2.4-2.6-2.3 -0.5 0-1.1 0.2-1.6 0.4 0-0.6-0.2-1.1-0.4-1.6C205.6 142.9 204.2 142.3 202.9 142.9z"/><path fill-rule="evenodd" clip-rule="evenodd" fill="#FFFFFF" d="M202 146.6c-0.3 0.2-0.6 0.4-0.9 0.7 -0.2-0.4-0.4-0.7-0.7-1 -0.8-0.7-1.9-0.6-2.6 0.1 -0.3 0.3-0.5 0.7-0.6 1.1 -0.3-0.3-0.7-0.5-1.1-0.6 -0.9-0.3-2 0.1-2.3 1.1 -0.1 0.4-0.2 0.8-0.2 1.2 -0.4-0.1-0.8-0.2-1.2-0.2 -1 0-1.8 0.9-1.7 1.9 0 0.4 0.1 0.8 0.3 1.2 -0.4 0-0.8 0.1-1.2 0.3 -0.9 0.4-1.3 1.5-0.9 2.4 0.2 0.4 0.4 0.7 0.7 1 -0.4 0.2-0.7 0.4-1 0.7 -0.7 0.8-0.6 1.9 0.1 2.6 0.3 0.3 0.6 0.5 1 0.6 -0.3 0.3-0.5 0.7-0.6 1.1 -0.3 0.9 0.1 2 1.1 2.3 0.4 0.1 0.8 0.2 1.2 0.2 -0.1 0.4-0.2 0.8-0.2 1.2 0 1 0.9 1.8 1.9 1.8 0.4 0 0.8-0.1 1.2-0.3 0 0.4 0.1 0.8 0.3 1.2 0.4 0.9 1.5 1.3 2.4 0.9 0.4-0.2 0.7-0.4 1-0.7 0.2 0.4 0.4 0.7 0.7 1 0.8 0.7 1.9 0.6 2.6-0.1 0.3-0.3 0.5-0.6 0.7-1 0.3 0.3 0.7 0.5 1 0.6 1 0.3 2-0.1 2.3-1.1 0.1-0.4 0.2-0.8 0.2-1.2 0.4 0.1 0.8 0.2 1.2 0.2 1 0 1.8-0.9 1.8-1.9 0-0.4-0.1-0.8-0.3-1.2 0.4 0 0.8-0.1 1.1-0.3 0.9-0.4 1.3-1.5 0.9-2.4 -0.2-0.4-0.4-0.7-0.7-1 0.4-0.2 0.7-0.4 1-0.7 0.7-0.8 0.6-1.9-0.1-2.6 -0.3-0.2-0.6-0.5-1.1-0.6 0.3-0.3 0.5-0.7 0.6-1 0.3-1-0.1-2-1.1-2.3 -0.4-0.2-0.8-0.2-1.2-0.2 0.1-0.4 0.2-0.8 0.2-1.2 -0.1-1-0.9-1.8-1.9-1.7 -0.4 0-0.8 0.1-1.2 0.3 0-0.4-0.1-0.8-0.3-1.2C204.1 146.6 203 146.2 202 146.6z"/><path fill="#FF5E79" d="M199.9 158.3c0 0 0.4 1 1 2.1 0.4 0.6 0.8 1.3 1.3 1.8 0.8 0.8 1.7 1.4 2.5 0.9 0 0 0.3-0.2 0.4-0.6 0-0.2 0.1-0.5-0.2-1 -0.4-0.6-1-1.4-2.8-2.3C201.4 158.9 200.7 158.6 199.9 158.3z"/><path fill="#FF5E79" d="M198.4 158c0 0-1 0.5-2.2 0.9 -0.7 0.2-1.4 0.4-2.1 0.5 -1.1 0.1-2.2-0.1-2.5-0.9 0 0-0.1-0.4 0.2-0.7 0.1-0.1 0.3-0.4 0.8-0.6 0.7-0.2 1.7-0.4 3.7 0.2C196.9 157.4 197.6 157.7 198.4 158z"/><path fill="#FF5E79" d="M198.7 158.4c0 0-1 0.4-2.1 1.1 -0.6 0.4-1.2 0.8-1.7 1.3 -0.8 0.8-1.4 1.7-0.9 2.5 0 0 0.2 0.3 0.7 0.3 0.2 0 0.5 0 1-0.2 0.6-0.4 1.4-1.1 2.3-2.9C198.2 159.9 198.4 159.2 198.7 158.4z"/><path fill="#FF5E79" d="M199.3 158.6c0 0-0.4 1-0.8 2.2 -0.2 0.7-0.4 1.4-0.4 2.1 0 1.1 0.1 2.2 1 2.4 0 0 0.4 0.1 0.7-0.2 0.1-0.1 0.4-0.3 0.6-0.8 0.2-0.7 0.3-1.7-0.3-3.7C199.9 160.1 199.7 159.4 199.3 158.6z"/><path fill="#FF5E79" d="M200.2 157.8c0 0 0.9-0.5 2.1-1 0.7-0.3 1.4-0.5 2.1-0.6 1.1-0.1 2.2-0.1 2.5 0.8 0 0 0.1 0.4-0.1 0.7 -0.1 0.2-0.3 0.4-0.8 0.6 -0.7 0.3-1.7 0.5-3.7 0.1C201.7 158.3 201 158.1 200.2 157.8z"/><path fill="#FF5E79" d="M198.6 157.4c0 0-0.4-1-1.1-2 -0.4-0.6-0.8-1.2-1.3-1.7 -0.8-0.8-1.7-1.4-2.5-0.9 0 0-0.3 0.2-0.3 0.7 0 0.2 0 0.5 0.2 1 0.4 0.6 1.1 1.4 2.9 2.2C197.1 156.9 197.8 157.1 198.6 157.4z"/><path fill="#FF5E79" d="M199.3 157.1c0 0-0.5-0.9-1-2.1 -0.2-0.7-0.5-1.4-0.6-2.1 -0.1-1.1 0-2.2 0.8-2.5 0 0 0.4-0.1 0.7 0.1 0.2 0.1 0.4 0.3 0.6 0.8 0.3 0.7 0.4 1.7 0 3.7C199.8 155.5 199.6 156.3 199.3 157.1z"/><path fill="#FF5E79" d="M199.9 157.3c0 0 0.2-1 0.7-2.2 0.2-0.7 0.5-1.4 0.9-2 0.6-0.9 1.4-1.7 2.3-1.4 0 0 0.4 0.2 0.5 0.6 0 0.2 0.1 0.5 0 1 -0.3 0.7-0.8 1.6-2.4 2.8C201.3 156.5 200.7 156.9 199.9 157.3z"/><path fill="#3EBDD4" d="M102.6 184.4c0.6-0.3 1.3-0.4 2-0.5 0 0 0 0 0 0 0 0 0 0 0 0l0 0c0 0 0 0 0 0 -0.1-0.3-0.2-0.6-0.3-0.9 -0.1-0.4-0.2-0.7-0.2-1.1 -0.1-1.7 1.3-3.2 3-3.3 0.2 0 0.4 0 0.6 0 0.1 0 0.3 0 0.4 0 0.2 0 0.4 0.1 0.6 0.1 0 0 0.1 0 0.1 0 0.1 0 0.2 0.1 0.3 0.1 0-0.7 0.1-1.4 0.3-2 0.6-1.6 2.4-2.5 4-1.9 0.7 0.2 1.2 0.6 1.8 1.1 0.1-0.2 0.1-0.3 0.2-0.4 0.1-0.2 0.2-0.4 0.3-0.5 0.1-0.1 0.1-0.2 0.2-0.3 0.1-0.2 0.3-0.4 0.4-0.5 1.2-1.2 3.1-1.3 4.4-0.2 0.5 0.4 0.9 1 1.2 1.6 0.5-0.5 1-0.9 1.6-1.2 1.6-0.7 3.4 0 4.2 1.5 0.1 0.3 0.2 0.5 0.3 0.8 0 0.2 0.1 0.3 0.1 0.5 0 0.1 0 0.2 0.1 0.3 0 0.1 0 0.2 0.1 0.4 0.4-0.2 0.9-0.3 1.3-0.4 0.2 0 0.4-0.1 0.7-0.1 1.7-0.1 3.2 1.3 3.3 3 0 0.2 0 0.4 0 0.6 0 0.1 0 0.3 0 0.4 0 0.2-0.1 0.4-0.1 0.6 0 0.2-0.1 0.3-0.1 0.5 0.7 0 1.4 0.1 2.1 0.3 1.6 0.6 2.5 2.4 1.9 4 -0.2 0.6-0.6 1.2-1.1 1.8 0.7 0.3 1.3 0.6 1.8 1.1 1.2 1.2 1.3 3.2 0.2 4.5 -0.5 0.5-1 0.9-1.7 1.2 0.5 0.5 0.9 1.1 1.2 1.7 0.7 1.6 0.1 3.4-1.5 4.1 -0.6 0.3-1.2 0.4-2 0.5 0.2 0.5 0.3 0.9 0.4 1.4 0 0.2 0.1 0.4 0.1 0.6 0.1 1.7-1.3 3.2-3 3.2 -0.7 0-1.4-0.1-2-0.3 0 0.8-0.1 1.4-0.3 2.1 -0.6 1.6-2.4 2.5-4 1.9 -0.6-0.3-1.2-0.6-1.8-1.1 -0.3 0.7-0.7 1.3-1.1 1.8 -1.1 1.3-3.1 1.4-4.4 0.2 -0.2-0.2-0.4-0.4-0.6-0.7 0 0 0-0.1-0.1-0.1 -0.2-0.3-0.4-0.6-0.5-0.9 -0.5 0.5-1.1 0.9-1.7 1.2 -1.6 0.7-3.4 0.1-4.1-1.5 -0.3-0.6-0.4-1.3-0.5-2 -0.7 0.3-1.3 0.5-2 0.5 -1.7 0.1-3.2-1.3-3.3-3 0-0.2 0-0.5 0-0.7 0-0.1 0-0.1 0-0.2 0-0.2 0.1-0.5 0.2-0.8 0 0 0 0 0 0 0-0.1 0-0.2 0.1-0.3 -0.7 0-1.4-0.1-2-0.3 -1.6-0.6-2.5-2.4-1.9-4 0.2-0.7 0.6-1.2 1.1-1.8 -0.7-0.2-1.3-0.6-1.8-1.1 -1.3-1.2-1.4-3.1-0.2-4.4 0.2-0.2 0.3-0.3 0.5-0.5 0.4-0.3 0.7-0.5 1.2-0.8 -0.1-0.1-0.2-0.2-0.3-0.3 0 0-0.1-0.1-0.1-0.1 -0.1-0.2-0.3-0.3-0.4-0.5 -0.2-0.2-0.3-0.5-0.4-0.7C100.4 187 101.1 185.2 102.6 184.4z"/><path fill-rule="evenodd" clip-rule="evenodd" fill="#BED630" d="M122.8 178.5c-0.4 0.2-0.9 0.6-1.3 1 -0.3-0.5-0.6-1-1-1.3 -1-0.9-2.6-0.9-3.5 0.1 -0.4 0.4-0.6 0.9-0.8 1.4 -0.4-0.4-0.9-0.7-1.4-0.8 -1.3-0.5-2.7 0.2-3.2 1.5 -0.2 0.5-0.3 1-0.2 1.6 -0.6-0.2-1.1-0.3-1.7-0.3 -1.3 0.1-2.4 1.2-2.3 2.6 0 0.5 0.2 1.1 0.4 1.6 -0.6 0.1-1.1 0.2-1.6 0.4 -1.2 0.6-1.8 2.1-1.2 3.3 0.2 0.5 0.5 0.9 0.9 1.3 -0.5 0.3-0.9 0.6-1.3 1 -0.9 1-0.9 2.6 0.2 3.5 0.4 0.4 0.9 0.7 1.4 0.9 -0.4 0.4-0.7 0.9-0.8 1.4 -0.5 1.3 0.2 2.7 1.5 3.2 0.5 0.2 1 0.3 1.6 0.2 -0.2 0.6-0.3 1.1-0.2 1.6 0.1 1.4 1.2 2.4 2.6 2.4 0.5 0 1.1-0.2 1.6-0.4 0.1 0.6 0.2 1.1 0.4 1.6 0.6 1.2 2 1.8 3.3 1.2 0.5-0.2 0.9-0.5 1.3-1 0.2 0.5 0.6 1 0.9 1.3 1 0.9 2.6 0.8 3.5-0.2 0.4-0.4 0.7-0.9 0.9-1.4 0.4 0.4 0.9 0.6 1.4 0.9 1.3 0.5 2.7-0.2 3.2-1.5 0.2-0.5 0.3-1 0.3-1.6 0.5 0.2 1.1 0.3 1.6 0.2 1.4-0.1 2.4-1.2 2.4-2.6 0-0.5-0.2-1.1-0.4-1.6 0.6 0 1.1-0.2 1.5-0.4 1.2-0.6 1.8-2 1.2-3.3 -0.2-0.5-0.5-0.9-1-1.4 0.5-0.2 0.9-0.6 1.3-0.9 0.9-1 0.8-2.6-0.1-3.5 -0.4-0.3-0.9-0.6-1.4-0.8 0.4-0.4 0.7-0.9 0.9-1.4 0.5-1.3-0.2-2.7-1.5-3.2 -0.5-0.2-1-0.3-1.6-0.3 0.2-0.5 0.3-1.1 0.3-1.6 -0.1-1.4-1.2-2.4-2.6-2.3 -0.5 0-1.1 0.2-1.6 0.4 0-0.6-0.2-1.1-0.4-1.6C125.5 178.5 124 177.9 122.8 178.5z"/><path fill-rule="evenodd" clip-rule="evenodd" fill="#FFFFFF" d="M121.9 182.2c-0.3 0.2-0.6 0.4-0.9 0.7 -0.2-0.4-0.4-0.7-0.7-1 -0.8-0.7-1.9-0.6-2.6 0.1 -0.3 0.3-0.5 0.7-0.6 1.1 -0.3-0.3-0.7-0.5-1.1-0.6 -0.9-0.3-2 0.1-2.3 1.1 -0.1 0.4-0.2 0.8-0.2 1.2 -0.4-0.1-0.8-0.2-1.2-0.2 -1 0-1.8 0.9-1.7 1.9 0 0.4 0.1 0.8 0.3 1.2 -0.4 0-0.8 0.1-1.2 0.3 -0.9 0.4-1.3 1.5-0.9 2.4 0.2 0.4 0.4 0.7 0.7 1 -0.4 0.2-0.7 0.4-1 0.7 -0.7 0.8-0.6 1.9 0.1 2.6 0.3 0.3 0.6 0.5 1 0.6 -0.3 0.3-0.5 0.7-0.6 1.1 -0.3 0.9 0.1 2 1.1 2.3 0.4 0.1 0.8 0.2 1.2 0.2 -0.1 0.4-0.2 0.8-0.2 1.2 0 1 0.9 1.8 1.9 1.8 0.4 0 0.8-0.1 1.2-0.3 0 0.4 0.1 0.8 0.3 1.2 0.4 0.9 1.5 1.3 2.4 0.9 0.4-0.2 0.7-0.4 1-0.7 0.2 0.4 0.4 0.7 0.7 1 0.8 0.7 1.9 0.6 2.6-0.1 0.3-0.3 0.5-0.6 0.7-1 0.3 0.3 0.7 0.5 1 0.6 1 0.3 2-0.1 2.3-1.1 0.1-0.4 0.2-0.8 0.2-1.2 0.4 0.1 0.8 0.2 1.2 0.2 1 0 1.8-0.9 1.8-1.9 0-0.4-0.1-0.8-0.3-1.2 0.4 0 0.8-0.1 1.1-0.3 0.9-0.4 1.3-1.5 0.9-2.4 -0.2-0.4-0.4-0.7-0.7-1 0.4-0.2 0.7-0.4 1-0.7 0.7-0.8 0.6-1.9-0.1-2.6 -0.3-0.2-0.6-0.5-1.1-0.6 0.3-0.3 0.5-0.7 0.6-1 0.3-1-0.1-2-1.1-2.3 -0.4-0.2-0.8-0.2-1.2-0.2 0.1-0.4 0.2-0.8 0.2-1.2 -0.1-1-0.9-1.8-1.9-1.7 -0.4 0-0.8 0.1-1.2 0.3 0-0.4-0.1-0.8-0.3-1.2C123.9 182.2 122.8 181.8 121.9 182.2z"/><path fill="#FF5E79" d="M119.8 193.9c0 0 0.4 1 1 2.1 0.4 0.6 0.8 1.3 1.3 1.8 0.8 0.8 1.7 1.4 2.5 0.9 0 0 0.3-0.2 0.4-0.6 0-0.2 0.1-0.5-0.2-1 -0.4-0.6-1-1.4-2.8-2.3C121.3 194.5 120.6 194.2 119.8 193.9z"/><path fill="#FF5E79" d="M118.2 193.6c0 0-1 0.5-2.2 0.9 -0.7 0.2-1.4 0.4-2.1 0.5 -1.1 0.1-2.2-0.1-2.5-0.9 0 0-0.1-0.4 0.2-0.7 0.1-0.1 0.3-0.4 0.8-0.6 0.7-0.2 1.7-0.4 3.7 0.2C116.7 193 117.4 193.2 118.2 193.6z"/><path fill="#FF5E79" d="M118.5 194c0 0-1 0.4-2 1.1 -0.6 0.4-1.2 0.8-1.7 1.3 -0.8 0.8-1.4 1.7-0.9 2.5 0 0 0.2 0.3 0.7 0.3 0.2 0 0.5 0 1-0.2 0.6-0.4 1.4-1.1 2.3-2.9C118 195.5 118.3 194.8 118.5 194z"/><path fill="#FF5E79" d="M119.2 194.2c0 0-0.4 1-0.8 2.2 -0.2 0.7-0.4 1.4-0.4 2.1 0 1.1 0.1 2.2 1 2.4 0 0 0.4 0.1 0.7-0.2 0.1-0.1 0.4-0.3 0.6-0.8 0.2-0.7 0.3-1.7-0.3-3.7C119.8 195.7 119.5 195 119.2 194.2z"/><path fill="#FF5E79" d="M120.1 193.4c0 0 0.9-0.5 2.1-1 0.7-0.3 1.4-0.5 2.1-0.6 1.1-0.1 2.2-0.1 2.5 0.8 0 0 0.1 0.4-0.1 0.7 -0.1 0.2-0.3 0.4-0.8 0.6 -0.7 0.3-1.7 0.5-3.7 0.1C121.6 193.9 120.9 193.7 120.1 193.4z"/><path fill="#FF5E79" d="M118.5 193c0 0-0.4-1-1.1-2 -0.4-0.6-0.8-1.2-1.3-1.7 -0.8-0.8-1.7-1.4-2.5-0.9 0 0-0.3 0.2-0.3 0.7 0 0.2 0 0.5 0.2 1 0.4 0.6 1.1 1.4 2.9 2.2C117 192.5 117.7 192.7 118.5 193z"/><path fill="#FF5E79" d="M119.1 192.7c0 0-0.5-0.9-1-2.1 -0.2-0.7-0.5-1.4-0.6-2.1 -0.1-1.1 0-2.2 0.8-2.5 0 0 0.4-0.1 0.7 0.1 0.2 0.1 0.4 0.3 0.6 0.8 0.3 0.7 0.4 1.7 0 3.7C119.6 191.1 119.4 191.8 119.1 192.7z"/><path fill="#FF5E79" d="M119.8 192.9c0 0 0.2-1 0.7-2.2 0.2-0.7 0.5-1.4 0.9-2 0.6-0.9 1.4-1.7 2.3-1.4 0 0 0.4 0.2 0.5 0.6 0 0.2 0.1 0.5 0 1 -0.3 0.7-0.8 1.6-2.4 2.8C121.2 192.1 120.5 192.4 119.8 192.9z"/><path fill="#95AF2E" d="M184.4 187c0 0 0.6-5.7 10.3-6.6 9.7-0.9 13.2 10.4 15.6 12.5 2.4 2.1 3.9 2.3 3.9 2.3s-3.8-2.8-8.8-1.8c-5 1-11.5 3.7-15.9 1.5 -4.4-2.1-4-7-4-7s2.6 3.3 7.6 2.4c5-0.9 9.7 0.7 9.7 0.7s-7.7-4.3-12.5-4.2C185.3 187 184.4 187 184.4 187z"/><path fill="#95AF2E" d="M181.9 195.9c0 0 4.1-3.4 11 2.3 7 5.6 2 15.4 2.2 18.4 0.2 2.9 1 4 1 4s-0.7-4.3-4.7-6.9c-3.9-2.6-10-5-11.5-9.3 -1.5-4.3 1.9-7.2 1.9-7.2s-0.4 3.9 3.5 6.5c3.9 2.6 5.9 6.7 5.9 6.7s-2.3-7.8-5.5-10.9C182.5 196.5 181.9 195.9 181.9 195.9z"/><path fill="#95AF2E" d="M177.5 194.4c0 0-3.7-3.8-11.2 1 -7.6 4.8-3.8 15.1-4.3 18 -0.6 2.9-1.5 3.9-1.5 3.9s1.2-4.2 5.4-6.3c4.2-2.1 10.5-3.8 12.5-7.9 2-4.1-1-7.4-1-7.4s0 3.9-4.2 6.1c-4.2 2.2-6.6 6-6.6 6s3.2-7.5 6.7-10.2C176.8 194.9 177.5 194.4 177.5 194.4z"/><path fill="#95AF2E" d="M183.3 191.6c-0.9 1.8-3 2.6-4.8 1.7 -1.8-0.9-2.6-3-1.7-4.8 0.9-1.8 3-2.6 4.8-1.7S184.1 189.8 183.3 191.6z"/><path fill="#95AF2E" d="M42.5 182.7c0 0 5.6 1.3 5.3 11 -0.2 9.7-11.9 11.9-14.3 14 -2.4 2.1-2.8 3.6-2.8 3.6s3.2-3.5 2.8-8.6c-0.4-5.1-2.3-11.9 0.4-16 2.7-4.1 7.4-3.1 7.4-3.1s-3.6 2.2-3.3 7.3 -1.9 9.5-1.9 9.5 5.2-7.1 5.7-11.9C42.4 183.6 42.5 182.7 42.5 182.7z"/><path fill="#95AF2E" d="M33.9 179.1c0 0 2.8 4.4-3.6 10.7 -6.4 6.3-15.5 0.1-18.5 0 -2.9-0.1-4.1 0.5-4.1 0.5s4.4-0.2 7.4-3.8c3-3.6 6.2-9.3 10.6-10.3 4.4-1 6.9 2.7 6.9 2.7s-3.8-0.9-6.9 2.7c-3.1 3.5-7.4 5.1-7.4 5.1s8-1.3 11.5-4.2C33.3 179.7 33.9 179.1 33.9 179.1z"/><path fill="#95AF2E" d="M36 174.9c0 0 4.2-3.2 0.4-11.3 -3.9-8.1-14.5-5.5-17.3-6.4 -2.8-0.9-3.7-1.9-3.7-1.9s4 1.7 5.6 6.2c1.6 4.4 2.5 10.9 6.4 13.4 3.8 2.5 7.4-0.2 7.4-0.2s-3.8-0.5-5.5-4.9c-1.7-4.4-5.1-7.3-5.1-7.3s7.1 4 9.3 7.9C35.6 174.2 36 174.9 36 174.9z"/><path fill="#95AF2E" d="M38 181c-1.7-1.1-2.2-3.3-1.1-5 1.1-1.7 3.3-2.2 5-1.1 1.7 1.1 2.2 3.3 1.1 5C41.9 181.6 39.7 182.1 38 181z"/><path fill="#95AF2E" d="M114.3 81c0 0 4.9 6.9-4.9 17.4 -9.8 10.5-24.8 1.5-29.5 1.5 -4.7 0-6.6 1.2-6.6 1.2s6.9-0.7 11.5-6.7c4.5-6 9.1-15.4 16.1-17.3 7-2 11.3 3.8 11.3 3.8s-6.1-1.1-10.8 4.8c-4.7 5.9-11.4 8.7-11.4 8.7s12.7-2.8 18-7.6C113.4 82 114.3 81 114.3 81z"/><path fill="#95AF2E" d="M108.4 68.7c0 0-1.2 7.7-14.4 8.3 -13.2 0.6-17.3-15.1-20.5-18.1 -3.1-3-5.1-3.5-5.1-3.5s5.1 4 11.9 3c6.9-1 15.9-4.2 21.8-1 5.9 3.2 5 9.8 5 9.8s-3.3-4.7-10.2-3.8c-6.9 0.9-13.1-1.6-13.1-1.6s10.2 6.4 16.8 6.6C107.1 68.8 108.4 68.7 108.4 68.7z"/><path fill="#95AF2E" d="M114.7 66.1c0 0 7.8 0.6 11.4-12.1 3.7-12.7-10.7-20.3-12.9-24.1 -2.2-3.7-2.2-5.8-2.2-5.8s2.7 5.8 0.2 12.3c-2.6 6.5-7.8 14.5-6.1 21 1.8 6.5 8.4 7.1 8.4 7.1s-3.7-4.3-1.3-10.8c2.5-6.5 1.5-13.1 1.5-13.1s3.9 11.4 2.6 17.9C115 64.9 114.7 66.1 114.7 66.1z"/><path fill="#95AF2E" d="M111 74.8c-0.8-2.8 0.8-5.8 3.6-6.6 2.8-0.8 5.8 0.8 6.6 3.6 0.8 2.8-0.8 5.8-3.6 6.6C114.8 79.3 111.9 77.7 111 74.8z"/><path fill="#95AF2E" d="M120.2 243.5c0.3 0.1 6.1 13.2 7.9 25.8s-4.9 25.2-12.4 30.8c-7.5 5.6-18.4 8.8-25.8 0.8 -9.5-10.2-0.9-21.9 1.5-24 3.3-2.7 11.1-7.7 17.3-0.5 0 0.1 0.1 0.1 0.2 0.2 0 0 3.4 5.2 2.2 10.3s-5.5 7.7-8 7c-2.5-0.7-3.2-3.3-2.4-4.6 0.8-1.3 2.7-2.7 4.4-0.7 1.7 2-1 3.5-1 3.5s1.6-1.4 0.1-2.8c-1.5-1.4-3.9-0.5-2.9 2.1 1 2.5 5 1.7 7.1-1.8 2.1-3.6 0.1-9.6-3.4-12.4 -2.4-1.9-9.3-4.6-14.7 1.9 -5.3 6.5-3.4 14.5 1.9 19.3 5.4 4.8 13.9 6.4 22.1-0.3 8.2-6.7 10.1-14.7 10.9-19.8 0.8-5.1 0.1-15-1.2-20.9C122.6 251.5 120.2 243.5 120.2 243.5z"/><path fill="#95AF2E" d="M65.8 256.2c0.1-0.3-8.8-11.6-19.1-19.1 -10.2-7.5-24.6-7.5-33-3.5 -8.4 4-16.4 12.1-12.9 22.4 4.5 13.2 18.9 11.1 21.9 9.9 3.9-1.6 12-6.2 8.6-15 0-0.1-0.1-0.2-0.1-0.3 0 0-3-5.5-8-6.8 -5-1.3-9.4 1.2-10 3.7 -0.6 2.5 1.4 4.4 2.9 4.3 1.6-0.1 3.6-1.1 2.7-3.6 -0.9-2.5-3.5-0.8-3.5-0.8s2-0.8 2.5 1.2c0.6 2-1.4 3.7-3.2 1.6 -1.8-2.1 0.8-5.2 5-5.4 4.2-0.2 8.5 4.4 9.3 8.8 0.6 3-0.3 10.4-8.6 12 -8.3 1.6-14.4-3.8-16.2-10.8 -1.7-7 0.9-15.2 10.6-19.3 9.7-4.1 17.8-2 22.6-0.3 4.9 1.7 13.3 6.9 17.8 10.9C59.8 250.3 65.8 256.2 65.8 256.2z"/></g></svg>