<?xml version="1.0" encoding="utf-8"?>
<!-- Generator: Adobe Illustrator 13.0.0, SVG Export Plug-In . SVG Version: 6.00 Build 14948)  -->
<!DOCTYPE svg PUBLIC "-//W3C//DTD SVG 1.1//EN" "http://www.w3.org/Graphics/SVG/1.1/DTD/svg11.dtd">
<svg version="1.1" id="Layer_1" xmlns="http://www.w3.org/2000/svg" xmlns:xlink="http://www.w3.org/1999/xlink" x="0px" y="0px"
	 width="299.812px" height="305.645px" viewBox="0 0 299.812 305.645" enable-background="new 0 0 299.812 305.645"
	 xml:space="preserve">
<g opacity="0.3">
	<g>
		<path fill="#95AF2E" d="M36.284,268.643c0,0-1.329,4.252-6.615,1.424c0.381-1.843,2.496-5.58,5.924-3.451"/>
		<path fill="#95AF2E" d="M35.782,263.808c0,0-4.117,1.696-5.328-4.179c1.663-0.885,5.89-1.652,6.442,2.35"/>
		<path fill="#95AF2E" d="M39.937,272.132c0,0,1.808,4.07-4.03,5.438c-0.931-1.636-1.81-5.838,2.173-6.502"/>
		<path fill="#95AF2E" d="M45.073,271.805c0,0,4.103,1.731,0.779,6.729c-1.796-0.561-5.313-3.026-2.863-6.229"/>
		<path fill="#95AF2E" d="M46.305,261.095c0,0,4.326-1.057,1.835-6.512c-1.859,0.269-5.726,2.142-3.814,5.696"/>
		<path fill="#95AF2E" d="M41.457,259.595c0,0,2.405-3.755-3.159-5.986c-1.167,1.479-2.674,5.503,1.163,6.757"/>
		<path fill="#95AF2E" d="M48.228,264.877c0,0,3.248,3.051,6.462-2.013c-1.24-1.415-4.918-3.635-6.854-0.091"/>
		<path fill="#95AF2E" d="M47.016,269.969c0,0,0.555,4.422,6.261,2.569c-0.055-1.883-1.473-5.936-5.222-4.439"/>
		<path fill="#FCE580" d="M51.176,270.678c0.193-0.735-0.222-1.478-0.932-1.665c-0.705-0.188-1.435,0.256-1.63,0.986
			c-0.194,0.736,0.225,1.48,0.928,1.671C50.25,271.854,50.979,271.413,51.176,270.678z"/>
		
			<ellipse transform="matrix(0.9668 0.2555 -0.2555 0.9668 69.7033 0.4309)" fill="#FCE580" cx="33.193" cy="268.519" rx="1.324" ry="1.375"/>
		<path fill="#FCE580" d="M38.964,274.215c0.189-0.73-0.225-1.477-0.931-1.662c-0.708-0.187-1.439,0.252-1.634,0.988
			c-0.193,0.736,0.226,1.479,0.933,1.668C38.039,275.395,38.768,274.952,38.964,274.215z"/>
		<path fill="#FCE580" d="M46.031,275.317c0.192-0.733-0.221-1.477-0.93-1.667c-0.707-0.184-1.437,0.256-1.632,0.993
			c-0.195,0.733,0.225,1.478,0.93,1.665C45.107,276.494,45.836,276.052,46.031,275.317z"/>
		<path fill="#FCE580" d="M52.288,263.753c0.193-0.736-0.223-1.479-0.929-1.667c-0.709-0.188-1.436,0.257-1.633,0.989
			c-0.19,0.734,0.224,1.479,0.929,1.666C51.364,264.93,52.094,264.486,52.288,263.753z"/>
		<path fill="#FCE580" d="M47.766,257.983c0.194-0.732-0.223-1.479-0.93-1.666c-0.706-0.186-1.438,0.259-1.631,0.99
			c-0.195,0.732,0.225,1.479,0.929,1.667C46.846,259.161,47.571,258.715,47.766,257.983z"/>
		<path fill="#FCE580" d="M40.613,257.445c0.195-0.733-0.225-1.48-0.932-1.665c-0.706-0.188-1.436,0.255-1.63,0.988
			c-0.195,0.735,0.225,1.479,0.929,1.664C39.689,258.623,40.417,258.179,40.613,257.445z"/>
		
			<ellipse transform="matrix(0.967 0.2546 -0.2546 0.967 67.6706 0.0339)" fill="#FCE580" cx="33.704" cy="261.398" rx="1.323" ry="1.373"/>
		<path fill="#FFC709" d="M48.545,267.547c0.945-3.567-1.183-7.217-4.752-8.161c-3.565-0.942-7.219,1.181-8.161,4.747
			c-0.94,3.57,1.187,7.223,4.753,8.165C43.952,273.241,47.602,271.116,48.545,267.547z"/>
		<path fill="#95AF2E" d="M44.732,266.542c0.386-1.462-0.485-2.955-1.945-3.344c-1.459-0.382-2.954,0.487-3.341,1.946
			c-0.385,1.457,0.485,2.955,1.945,3.34C42.85,268.87,44.347,268,44.732,266.542z"/>
		<circle fill="#FCE580" cx="42.089" cy="265.842" r="1.743"/>
		<path fill="#95AF2E" d="M42.676,265.997c0.087-0.323-0.108-0.654-0.431-0.743c-0.324-0.084-0.656,0.11-0.741,0.435
			c-0.085,0.321,0.107,0.656,0.431,0.741C42.257,266.515,42.589,266.322,42.676,265.997z"/>
		<path fill="#95AF2E" d="M50.48,270.494c0.086-0.321-0.107-0.653-0.43-0.739c-0.327-0.084-0.657,0.107-0.742,0.431
			c-0.085,0.324,0.109,0.656,0.43,0.741C50.063,271.011,50.395,270.818,50.48,270.494z"/>
		<path fill="#95AF2E" d="M38.297,267.5c0.193-0.732-0.22-1.48-0.928-1.665c-0.709-0.188-1.438,0.259-1.631,0.989
			c-0.197,0.735,0.222,1.479,0.928,1.664C37.374,268.675,38.102,268.233,38.297,267.5z"/>
		
			<ellipse transform="matrix(0.9668 0.2555 -0.2555 0.9668 69.0969 -3.2703)" fill="#95AF2E" cx="47.136" cy="264.334" rx="1.324" ry="1.372"/>
		<path fill="#F39308" d="M42.034,261.388c0.194-0.732-0.218-1.474-0.925-1.662c-0.709-0.188-1.438,0.253-1.634,0.988
			c-0.191,0.734,0.224,1.479,0.933,1.666C41.113,262.571,41.841,262.125,42.034,261.388z"/>
		<path fill="#95AF2E" d="M38.986,263.599c0.193-0.732-0.222-1.478-0.932-1.664c-0.706-0.188-1.435,0.256-1.63,0.991
			c-0.19,0.733,0.223,1.478,0.931,1.662C38.063,264.777,38.792,264.338,38.986,263.599z"/>
		<path fill="#95AF2E" d="M45.961,261.559c0.192-0.731-0.222-1.476-0.933-1.666c-0.703-0.185-1.437,0.257-1.631,0.993
			c-0.191,0.731,0.226,1.476,0.933,1.664C45.037,262.74,45.767,262.297,45.961,261.559z"/>
		<path fill="#95AF2E" d="M47.672,268.558c0.196-0.733-0.218-1.479-0.927-1.665c-0.708-0.188-1.436,0.255-1.631,0.991
			c-0.192,0.73,0.223,1.476,0.93,1.661C46.751,269.735,47.483,269.291,47.672,268.558z"/>
		<path fill="#95AF2E" d="M33.781,268.671c0.085-0.321-0.109-0.656-0.433-0.738c-0.324-0.085-0.656,0.105-0.74,0.43
			c-0.088,0.328,0.109,0.661,0.43,0.744C33.362,269.192,33.692,268.999,33.781,268.671z"/>
		<path fill="#95AF2E" d="M38.268,274.037c0.085-0.325-0.105-0.656-0.432-0.742c-0.324-0.085-0.656,0.105-0.741,0.435
			c-0.086,0.323,0.107,0.651,0.432,0.737C37.85,274.551,38.182,274.359,38.268,274.037z"/>
		<path fill="#F39308" d="M45.335,275.134c0.087-0.321-0.104-0.653-0.431-0.738c-0.321-0.085-0.656,0.104-0.741,0.427
			c-0.086,0.327,0.108,0.658,0.435,0.743C44.919,275.652,45.253,275.458,45.335,275.134z"/>
		<path fill="#95AF2E" d="M51.594,263.569c0.085-0.325-0.107-0.655-0.429-0.741c-0.326-0.089-0.657,0.109-0.741,0.43
			c-0.088,0.329,0.104,0.658,0.429,0.745C51.177,264.085,51.509,263.893,51.594,263.569z"/>
		<path fill="#95AF2E" d="M47.073,257.799c0.084-0.321-0.11-0.654-0.434-0.74c-0.322-0.086-0.657,0.106-0.739,0.432
			c-0.086,0.326,0.104,0.651,0.434,0.74C46.654,258.317,46.984,258.125,47.073,257.799z"/>
		<circle fill="#95AF2E" cx="39.331" cy="257.106" r="0.607"/>
		<path fill="#95AF2E" d="M34.291,261.552c0.087-0.321-0.105-0.653-0.431-0.738c-0.326-0.088-0.656,0.107-0.74,0.431
			c-0.09,0.323,0.107,0.652,0.427,0.741C33.877,262.072,34.206,261.878,34.291,261.552z"/>
		<path fill="#95AF2E" d="M44.676,270.974c0.194-0.735-0.222-1.479-0.927-1.667c-0.706-0.183-1.438,0.257-1.63,0.994
			c-0.194,0.729,0.223,1.478,0.928,1.662C43.755,272.152,44.486,271.708,44.676,270.974z"/>
		<path fill="#F39308" d="M40.768,270.514c0.191-0.728-0.222-1.472-0.93-1.66c-0.707-0.185-1.438,0.253-1.633,0.991
			c-0.194,0.729,0.225,1.479,0.931,1.663C39.84,271.697,40.572,271.25,40.768,270.514z"/>
	</g>
	<circle fill="#95AF2E" cx="40.26" cy="271.401" r="1.107"/>
	<g>
		<path fill="#95AF2E" d="M160.499,126.039c0,0,1.381,4.537,6.41,3.024c0,0,4.367-1.223,6.264-5.572
			c-1.157,0.097-3.23-0.411-4.623-1.095C167.134,121.736,162.172,120.206,160.499,126.039z"/>
		<path fill="#95AF2E" d="M160.884,126.137c0,0-5.157-0.615-7.303-1.915"/>
	</g>
	<path fill="#95AF2E" d="M164.13,135.179c0,0,0.066,5.891,6.59,5.842c0,0,5.635,0.063,9.415-4.463
		c-1.416-0.288-3.708-1.615-5.132-2.913C173.542,132.357,168.158,128.802,164.13,135.179z"/>
	<path fill="#95AF2E" d="M164.555,135.429c0,0-7.853-3.74-10.862-6.607"/>
	<path fill="#95AF2E" d="M147.045,153.449c0,0,3.675,4.605-1.411,8.694c0,0-4.324,3.612-10.114,2.494
		c0.913-1.116,1.85-3.596,2.131-5.501C137.97,157.216,139.894,151.057,147.045,153.449z"/>
	<path fill="#95AF2E" d="M146.872,153.911c0,0,3.757-9.241,4.311-14.104"/>
	<path fill="#95AF2E" d="M136.187,226.276c0,0-2.404,2.95,0.852,5.625c0,0,2.772,2.36,6.517,1.675
		c-0.582-0.728-1.169-2.333-1.341-3.566C142.021,228.765,140.817,224.778,136.187,226.276z"/>
	<path fill="#95AF2E" d="M136.294,226.574c0,0-1.899-3.709-1.991-5.722"/>
	<path fill="#95AF2E" d="M131.722,232.78c0,0-3.895,2.684-0.94,7.007c0,0,2.477,3.781,7.182,4.275
		c-0.441-1.074-0.582-3.196-0.354-4.725C137.813,237.789,137.774,232.612,131.722,232.78z"/>
	<path fill="#95AF2E" d="M131.748,233.176c0,0-1.028-7.027-0.464-10.375"/>
	<path fill="#95AF2E" d="M133.114,116.065c0,0,2.222,10.956-9.901,13.458c0,0-10.426,2.361-19.236-4.524
		c2.508-1.103,6.234-4.481,8.356-7.453C114.531,114.58,123.103,105.845,133.114,116.065z"/>
	<path fill="#95AF2E" d="M132.42,116.698c0,0,13.599-10.321,17.709-17.707"/>
	<g>
		<path fill="#95AF2E" d="M137.988,100.919c0,0-1.626,8.139-10.644,6.371c0,0-7.817-1.384-11.871-8.629
			c2.035-0.031,5.556-1.273,7.864-2.698C125.693,94.562,134.072,91.047,137.988,100.919z"/>
		<path fill="#95AF2E" d="M137.333,101.154c0,0,8.877-1.961,12.387-4.594"/>
	</g>
	<path fill="#95AF2E" d="M168.341,175.177c0,0-0.7,5.194,5.053,5.987c0,0,4.951,0.776,8.859-2.722
		c-1.207-0.436-3.059-1.898-4.143-3.223C176.989,173.9,172.702,170.08,168.341,175.177z"/>
	<path fill="#95AF2E" d="M168.681,175.449c0,0-7.47-5.184-10.242-8.512"/>
	<path fill="#95AF2E" d="M165.392,168.583c0,0,0.151,3.578,4.111,3.424c0,0,3.424-0.072,5.633-2.891
		c-0.865-0.15-2.285-0.909-3.171-1.671C171.052,166.691,167.714,164.636,165.392,168.583z"/>
	<path fill="#95AF2E" d="M165.653,168.728c0,0-5.199-2.023-7.195-3.642"/>
	<g>
		<path fill="#95AF2E" d="M163.728,175.896c0,0,3.139,1.146,1.879,4.626c0,0-1.031,3.023-4.16,4.191
			c0.111-0.813-0.166-2.287-0.591-3.293C160.444,180.395,159.562,176.847,163.728,175.896z"/>
		<path fill="#95AF2E" d="M163.781,176.17c0,0-0.231-3.651-1.067-5.21"/>
	</g>
	<g>
		<path fill="#95AF2E" d="M155.62,206.326c0,0,3.139,1.145,1.879,4.625c0,0-1.029,3.023-4.161,4.191
			c0.112-0.813-0.165-2.289-0.589-3.294C152.337,210.825,151.454,207.276,155.62,206.326z"/>
		<path fill="#95AF2E" d="M155.672,206.599c0,0-0.23-3.652-1.063-5.208"/>
	</g>
	<path fill="#95AF2E" d="M157.423,195.369c0,0-0.863,2.686,2.111,3.654c0,0,2.551,0.88,4.951-0.597
		c-0.596-0.347-1.438-1.298-1.887-2.104C162.13,195.518,160.222,193.083,157.423,195.369z"/>
	<path fill="#95AF2E" d="M157.581,195.545c0,0-3.563-3.019-4.497-5.025"/>
	<g>
		<path fill="#95AF2E" d="M143.336,217.418c0,0-0.865,2.685,2.109,3.655c0,0,2.551,0.882,4.955-0.601
			c-0.6-0.345-1.441-1.297-1.891-2.101C148.042,217.566,146.136,215.133,143.336,217.418z"/>
		<path fill="#95AF2E" d="M143.493,217.596c0,0-2.314-2.051-2.918-3.415"/>
	</g>
	<circle fill="#95AF2E" cx="124.919" cy="196.847" r="1.546"/>
	<path fill="#95AF2E" d="M111.515,226.276c-0.142-0.841,0.424-1.638,1.263-1.779c0.841-0.143,1.64,0.425,1.782,1.264
		c0.142,0.842-0.425,1.642-1.267,1.783C112.454,227.687,111.657,227.119,111.515,226.276z"/>
	<circle fill="#95AF2E" cx="125.436" cy="207.56" r="1.545"/>
	<path fill="#95AF2E" d="M132.501,189.851c-0.143-0.84,0.425-1.637,1.267-1.78c0.838-0.142,1.637,0.425,1.78,1.267
		c0.142,0.843-0.427,1.641-1.266,1.781C133.442,191.261,132.643,190.695,132.501,189.851z"/>
	<circle fill="#95AF2E" cx="130.842" cy="180.042" r="0.817"/>
	<circle fill="#95AF2E" cx="129.414" cy="186.929" r="0.816"/>
	<circle fill="#95AF2E" cx="118.508" cy="205.772" r="0.816"/>
	<circle fill="#95AF2E" cx="124.311" cy="219.455" r="0.816"/>
	<path fill="#95AF2E" d="M123.119,216.006c-0.075-0.444,0.223-0.866,0.668-0.94c0.444-0.075,0.868,0.223,0.943,0.666
		c0.075,0.447-0.228,0.867-0.671,0.943C123.616,216.75,123.193,216.45,123.119,216.006z"/>
	<circle fill="#95AF2E" cx="49.891" cy="265.032" r="1.545"/>
	<circle fill="#95AF2E" cx="49.891" cy="265.032" r="1.545"/>
	<path fill="#95AF2E" d="M54.047,269.246c-0.074-0.442,0.226-0.867,0.67-0.942c0.443-0.077,0.866,0.226,0.941,0.67
		c0.074,0.442-0.226,0.864-0.668,0.941C54.544,269.99,54.123,269.69,54.047,269.246z"/>
	<circle fill="#95AF2E" cx="150.613" cy="160.258" r="1.544"/>
	<path fill="#95AF2E" d="M125.421,178.121c-0.143-0.84,0.425-1.637,1.264-1.777c0.842-0.142,1.642,0.424,1.783,1.262
		c0.142,0.844-0.425,1.642-1.268,1.783C126.36,179.53,125.562,178.964,125.421,178.121z"/>
	<path fill="#95AF2E" d="M137.208,189.686c-0.144-0.84,0.425-1.636,1.267-1.78c0.839-0.142,1.637,0.425,1.778,1.266
		c0.144,0.843-0.424,1.64-1.264,1.782C138.147,191.096,137.349,190.531,137.208,189.686z"/>
	<circle fill="#95AF2E" cx="135.459" cy="151.54" r="1.546"/>
	<circle fill="#95AF2E" cx="150.613" cy="160.258" r="1.544"/>
	<circle fill="#95AF2E" cx="128.533" cy="149.754" r="0.815"/>
	<circle fill="#95AF2E" cx="134.335" cy="163.435" r="0.816"/>
	<circle fill="#95AF2E" cx="119.528" cy="172.349" r="0.816"/>
	<circle fill="#95AF2E" cx="138.315" cy="173.017" r="1.545"/>
	<circle fill="#95AF2E" cx="53.221" cy="202.351" r="0.818"/>
	<circle fill="#95AF2E" cx="51.795" cy="209.238" r="0.817"/>
	<path fill="#95AF2E" d="M59.171,195.582c-0.142-0.84,0.425-1.637,1.268-1.778c0.84-0.143,1.64,0.424,1.779,1.265
		c0.145,0.844-0.425,1.638-1.265,1.779C60.112,196.99,59.314,196.425,59.171,195.582z"/>
	<circle fill="#95AF2E" cx="170.138" cy="154.258" r="0.818"/>
	<circle fill="#95AF2E" cx="168.711" cy="161.145" r="0.815"/>
	<circle fill="#95AF2E" cx="166.24" cy="152.081" r="1.546"/>
	<path fill="#95AF2E" d="M176.089,147.489c-0.143-0.839,0.426-1.636,1.268-1.778c0.84-0.143,1.639,0.424,1.78,1.265
		c0.143,0.843-0.426,1.639-1.266,1.78C177.028,148.897,176.231,148.333,176.089,147.489z"/>
	<circle fill="#95AF2E" cx="95.039" cy="191.446" r="1.545"/>
	<circle fill="#95AF2E" cx="104.145" cy="184.193" r="1.545"/>
	<circle fill="#95AF2E" cx="100.962" cy="174.64" r="0.818"/>
	<path fill="#95AF2E" d="M98.728,181.664c-0.073-0.444,0.226-0.864,0.671-0.939c0.444-0.075,0.865,0.224,0.94,0.667
		c0.075,0.447-0.223,0.867-0.668,0.943C99.226,182.41,98.806,182.109,98.728,181.664z"/>
	<circle fill="#95AF2E" cx="108.849" cy="184.029" r="1.544"/>
	<path fill="#95AF2E" d="M106.912,167.872c-0.142-0.839,0.425-1.638,1.268-1.779c0.841-0.141,1.639,0.426,1.781,1.265
		c0.142,0.844-0.425,1.639-1.266,1.781C107.853,169.281,107.055,168.716,106.912,167.872z"/>
	<circle fill="#95AF2E" cx="130.903" cy="167.502" r="0.816"/>
	<path fill="#95AF2E" d="M150.529,125.064c-0.142-0.844,0.425-1.639,1.267-1.779c0.842-0.145,1.639,0.421,1.781,1.264
		c0.143,0.842-0.426,1.639-1.265,1.779C151.469,126.472,150.673,125.904,150.529,125.064z"/>
	<path fill="#95AF2E" d="M126.861,142.669c-0.142-0.84,0.425-1.637,1.266-1.779c0.84-0.143,1.638,0.424,1.78,1.263
		c0.144,0.845-0.424,1.641-1.264,1.784C127.8,144.08,127.002,143.513,126.861,142.669z"/>
	<path fill="#95AF2E" d="M138.645,154.234c-0.142-0.84,0.426-1.637,1.269-1.779c0.839-0.143,1.638,0.424,1.779,1.264
		c0.143,0.844-0.425,1.641-1.265,1.784C139.587,155.644,138.788,155.076,138.645,154.234z"/>
	<circle fill="#95AF2E" cx="136.899" cy="116.085" r="1.546"/>
	<path fill="#95AF2E" d="M150.529,125.064c-0.142-0.844,0.425-1.639,1.267-1.779c0.842-0.145,1.639,0.421,1.781,1.264
		c0.143,0.842-0.426,1.639-1.265,1.779C151.469,126.472,150.673,125.904,150.529,125.064z"/>
	<circle fill="#95AF2E" cx="129.973" cy="114.301" r="0.816"/>
	<path fill="#95AF2E" d="M134.972,128.119c-0.075-0.443,0.223-0.865,0.669-0.939c0.442-0.074,0.865,0.225,0.94,0.666
		c0.075,0.446-0.226,0.867-0.668,0.943C135.467,128.863,135.046,128.564,134.972,128.119z"/>
	<circle fill="#95AF2E" cx="120.97" cy="136.898" r="0.818"/>
	<circle fill="#95AF2E" cx="139.755" cy="137.564" r="1.545"/>
	<circle fill="#95AF2E" cx="132.34" cy="132.048" r="0.818"/>
	<path fill="#95AF2E" d="M73.597,255.703c-0.075-0.441,0.223-0.863,0.666-0.938c0.446-0.076,0.869,0.224,0.943,0.667
		c0.076,0.445-0.226,0.867-0.67,0.942C74.091,256.45,73.671,256.149,73.597,255.703z"/>
	<path fill="#95AF2E" d="M84.969,250.857c-0.076-0.444,0.222-0.864,0.667-0.939s0.869,0.224,0.944,0.667
		c0.073,0.445-0.227,0.867-0.67,0.942C85.464,251.602,85.043,251.303,84.969,250.857z"/>
	<path fill="#95AF2E" d="M118.27,90.613c-0.142-0.842,0.423-1.639,1.268-1.779c0.838-0.143,1.636,0.423,1.78,1.264
		c0.141,0.84-0.427,1.639-1.266,1.781C119.208,92.02,118.411,91.455,118.27,90.613z"/>
	<circle fill="#95AF2E" cx="107.91" cy="119.529" r="1.544"/>
	<path fill="#95AF2E" d="M118.27,90.613c-0.142-0.842,0.423-1.639,1.268-1.779c0.838-0.143,1.636,0.423,1.78,1.264
		c0.141,0.84-0.427,1.639-1.266,1.781C119.208,92.02,118.411,91.455,118.27,90.613z"/>
	<circle fill="#95AF2E" cx="134.995" cy="100.632" r="1.545"/>
	<circle fill="#95AF2E" cx="124.754" cy="94.433" r="0.817"/>
	<circle fill="#95AF2E" cx="156.358" cy="115.257" r="1.545"/>
	<path fill="#95AF2E" d="M148.138,109.879c-0.075-0.447,0.227-0.866,0.669-0.942c0.444-0.072,0.866,0.223,0.941,0.67
		c0.076,0.443-0.226,0.865-0.669,0.939C148.637,110.623,148.213,110.323,148.138,109.879z"/>
	<circle fill="#95AF2E" cx="140.121" cy="207.122" r="1.545"/>
	<circle fill="#95AF2E" cx="111.863" cy="194.891" r="2.566"/>
	<circle fill="#95AF2E" cx="147.032" cy="176.037" r="2.565"/>
	<circle fill="#95AF2E" cx="189.654" cy="136.841" r="2.566"/>
	<circle fill="#95AF2E" cx="128.461" cy="246.95" r="2.566"/>
	<circle fill="#95AF2E" cx="72.828" cy="162.451" r="2.566"/>
	<path fill="#95AF2E" d="M299.812,9.268c-0.898-0.894-54.189-11.548-77.424-1.958c-12.09,4.716-39.234,14.568-53.967,41.355
		c-10.822,22.064-20.38,37.067-15.041,69.547c5.336,32.479,7.609,54.322,3.029,67.28c-4.582,12.956-12.835,39.998-66.863,63.022
		c-17.826,7.074-35.76,12.242-35.76,12.242s36.432-11.06,56.108-23.368c19.674-12.308,39.355-28.897,42.395-48.855
		c1.72-6.271,2.829-20.3,1.282-31.177c-1.549-10.877-4.357-26.709-5.05-41.309c-0.69-14.598,2.664-51.658,18.095-68.398
		c4.153-5.219,19.878-29.355,48.278-38.593c16.379-5.706,37.48-13.636,83.914-5.729C299.255,5.966,299.812,9.268,299.812,9.268z"/>
	<path fill="#95AF2E" d="M150.339,129.167c-0.647,0.793-10.741,17.371-25.326,25.938c-15.517,9.117-33.93,13.57-45.658,15.839
		c-11.727,2.269-51.161,9.211-58.122,16.09c3.204-2.962,18.238-10.976,49.993-16.14c13.158-3.08,22.969-4.17,39.91-10.88
		c12.698-6.099,33.162-18.491,38.659-40.477C151.817,124.216,150.339,129.167,150.339,129.167z"/>
	<g>
		<g>
			<path fill="none" d="M43.521,216.896c0,0,15.617-19.737,32.989-27.376c17.376-7.639,34.515-15.816,38.646-18.361
				c4.129-2.547,32.892-19.521,36.455-48.19"/>
			<path fill="#95AF2E" d="M44.048,217.423c7.065-8.875,15.699-16.919,25.186-23.112c7.692-5.021,16.708-8.145,25.02-11.988
				c6.808-3.148,13.673-6.284,20.242-9.915c18.344-10.14,34.864-27.941,37.834-49.241c0.131-0.94-1.307-1.346-1.439-0.396
				c-3.111,22.308-20.904,39.976-40.233,49.993c-15.015,7.781-32.001,12.944-45.826,22.743c-8.142,5.771-15.62,13.051-21.838,20.862
				C42.4,217.113,43.449,218.176,44.048,217.423L44.048,217.423z"/>
		</g>
	</g>
	<g>
		<g>
			<path fill="none" d="M131.011,147.855c0,0-12.318,4.01-18.947,3.201c-7.741-0.949-11.593-7.93-5.92-14.129
				c3.65-3.731,13.188-6.738,16.238,1.645c0.782,2.738,0.658,5.515-2.808,6.078c-3.177,0.514-5.497-1.242-5.599-3.429"/>
			<path fill="#95AF2E" d="M130.813,147.136c-6.543,2.103-14.482,4.541-21.26,2.576c-8.378-2.429-5.316-11.641,0.616-14.636
				c2.149-1.085,4.625-1.365,6.958-0.857c1.162,0.329,2.148,0.943,2.958,1.842c0.382,0.571,0.765,1.143,1.147,1.715
				c2.204,4.414,0.024,5.497-6.539,3.248c-0.206-0.94-1.644-0.541-1.438,0.396c1.353,6.181,11.709,4.946,10.119-1.876
				c-1.81-7.761-9.614-8.396-15.609-4.854c-6.138,3.627-6.99,12.963,0.194,15.961c7.179,2.997,16.195,0.191,23.25-2.076
				C132.122,148.281,131.731,146.84,130.813,147.136L130.813,147.136z"/>
		</g>
	</g>
	<g>
		<g>
			<path fill="none" d="M125.124,228.37c0,0-3.166,4.285-4.483,10.52c-1.32,6.235-3.784,14.924-8.875,16.584
				c-3.565,1.274-9.236-2.003-4.509-8.31c2.395-3.153,5.881-5.004,7.797-0.971c1.211,2.742-0.652,3.652-2.48,3.688"/>
			<path fill="#95AF2E" d="M124.479,227.993c-2.805,3.923-4.027,8.51-5.11,13.133c-0.786,3.354-1.883,6.615-3.551,9.639
				c-1.23,2.229-3.138,4.065-5.802,4.233c-3.118-0.165-4.127-2.185-3.027-6.057c1.258-3.355,3.12-3.291,5.585,0.194
				c-0.941,0.117-0.953,1.611,0,1.492c1.821-0.228,3.608-0.817,3.608-3.001c0-1.713-1.753-4.648-3.806-4.477
				c-4.134,0.346-10.364,7.097-6.777,11.188c3.887,4.434,8.952,1.145,11.507-2.82c4.485-6.958,3.77-15.931,8.661-22.771
				C126.329,227.961,125.034,227.218,124.479,227.993L124.479,227.993z"/>
		</g>
	</g>
	<g>
		<path fill="#E48800" d="M67.206,231.925c0.392-0.185,0.827-0.275,1.285-0.313c0.001,0.003,0.001,0.003,0.001,0.003
			c0.005,0.001,0.008,0,0.014-0.001l-0.002-0.001c-0.004,0-0.009,0-0.014-0.001c-0.081-0.195-0.15-0.396-0.202-0.591
			c-0.061-0.228-0.1-0.452-0.106-0.67c-0.039-1.101,0.823-2.032,1.889-2.087c0.128,0.002,0.256,0.008,0.384,0.021
			c0.092,0.007,0.18,0.017,0.272,0.03c0.133,0.019,0.266,0.047,0.399,0.081c0.031,0.005,0.06,0.016,0.09,0.022
			c0.062,0.018,0.123,0.034,0.187,0.052c-0.011-0.466,0.047-0.905,0.19-1.296c0.376-1.027,1.516-1.557,2.544-1.184
			c0.412,0.132,0.79,0.369,1.137,0.677c0.041-0.096,0.08-0.192,0.124-0.283c0.056-0.117,0.116-0.228,0.185-0.339
			c0.038-0.066,0.082-0.126,0.124-0.188c0.079-0.112,0.161-0.223,0.25-0.327c0.749-0.791,1.995-0.838,2.808-0.102
			c0.3,0.271,0.56,0.643,0.775,1.037c0.314-0.314,0.653-0.579,1.034-0.756c0.991-0.461,2.174-0.009,2.636,0.982
			c0.072,0.159,0.128,0.325,0.175,0.493c0.031,0.107,0.053,0.218,0.075,0.329c0.013,0.07,0.024,0.14,0.033,0.213
			c0.011,0.077,0.031,0.15,0.039,0.229c0.281-0.113,0.562-0.192,0.846-0.245c0.143-0.025,0.285-0.047,0.427-0.054
			c1.104-0.042,2.022,0.798,2.086,1.889c-0.001,0.133-0.007,0.266-0.021,0.399c-0.006,0.08-0.016,0.163-0.028,0.244
			c-0.019,0.118-0.041,0.234-0.071,0.349c-0.026,0.105-0.058,0.21-0.094,0.316c0.465-0.012,0.904,0.049,1.305,0.213
			c1.029,0.377,1.558,1.515,1.181,2.545c-0.139,0.387-0.378,0.764-0.685,1.112c0.425,0.175,0.815,0.389,1.138,0.68
			c0.791,0.751,0.85,2.021,0.107,2.836c-0.289,0.313-0.649,0.56-1.052,0.767c0.332,0.342,0.583,0.692,0.762,1.076
			c0.46,0.993,0.033,2.161-0.96,2.624c-0.362,0.17-0.783,0.279-1.24,0.313c0.117,0.293,0.202,0.587,0.251,0.882
			c0.024,0.132,0.042,0.261,0.046,0.394c0.042,1.101-0.797,2.021-1.897,2.061c-0.43,0.023-0.871-0.037-1.298-0.192
			c-0.013,0.476-0.061,0.883-0.215,1.309c-0.377,1.027-1.515,1.556-2.544,1.182c-0.402-0.168-0.767-0.38-1.116-0.688
			c-0.18,0.436-0.418,0.813-0.712,1.127c-0.716,0.803-1.985,0.863-2.798,0.122c-0.141-0.13-0.265-0.273-0.381-0.428
			c-0.014-0.021-0.031-0.041-0.046-0.062c-0.126-0.175-0.237-0.364-0.341-0.563c-0.34,0.333-0.69,0.581-1.076,0.761
			c-0.993,0.463-2.166,0.034-2.625-0.96c-0.181-0.383-0.285-0.801-0.332-1.275c-0.418,0.175-0.84,0.292-1.266,0.31
			c-1.099,0.041-2.03-0.821-2.071-1.922c-0.005-0.148,0.004-0.301,0.02-0.457c0.004-0.044,0.007-0.087,0.013-0.13
			c0.022-0.157,0.054-0.318,0.097-0.48c0.002-0.01,0.005-0.021,0.009-0.03c0.016-0.067,0.033-0.133,0.054-0.2
			c-0.466,0.013-0.908-0.049-1.298-0.191c-1.028-0.375-1.557-1.514-1.179-2.543c0.13-0.416,0.367-0.79,0.677-1.141
			c-0.428-0.154-0.804-0.393-1.117-0.688c-0.815-0.74-0.863-1.984-0.124-2.801c0.097-0.103,0.203-0.198,0.313-0.289
			c0.223-0.186,0.469-0.349,0.736-0.492c-0.071-0.072-0.125-0.149-0.191-0.222c-0.018-0.023-0.035-0.043-0.054-0.063
			c-0.089-0.109-0.178-0.219-0.254-0.334c-0.098-0.142-0.187-0.288-0.258-0.443C65.795,233.582,66.211,232.386,67.206,231.925z"/>
		<path fill-rule="evenodd" clip-rule="evenodd" fill="#BED630" d="M79.995,228.167c-0.285,0.13-0.555,0.351-0.808,0.608
			c-0.17-0.316-0.378-0.616-0.616-0.829c-0.643-0.583-1.624-0.547-2.216,0.078c-0.225,0.268-0.413,0.564-0.535,0.899
			c-0.276-0.244-0.571-0.432-0.898-0.536c-0.813-0.294-1.709,0.122-2.006,0.934c-0.112,0.308-0.159,0.655-0.15,1.022
			c-0.355-0.113-0.703-0.161-1.051-0.163c-0.842,0.044-1.521,0.777-1.49,1.646c0.012,0.32,0.105,0.67,0.256,0.996
			c-0.378,0.035-0.718,0.102-1.024,0.243c-0.784,0.364-1.113,1.306-0.748,2.09c0.142,0.305,0.344,0.583,0.598,0.836
			c-0.314,0.17-0.593,0.37-0.827,0.618c-0.584,0.642-0.546,1.622,0.097,2.206c0.248,0.229,0.545,0.422,0.88,0.541
			c-0.244,0.277-0.433,0.574-0.536,0.901c-0.295,0.809,0.122,1.708,0.933,2.004c0.308,0.111,0.654,0.159,1.022,0.153
			c-0.113,0.353-0.161,0.699-0.151,1.021c0.033,0.868,0.766,1.547,1.634,1.515c0.338-0.017,0.672-0.104,0.996-0.253
			c0.035,0.379,0.121,0.711,0.263,1.015c0.364,0.785,1.288,1.121,2.071,0.758c0.306-0.143,0.584-0.343,0.855-0.607
			c0.152,0.324,0.351,0.604,0.598,0.836c0.643,0.585,1.643,0.538,2.207-0.096c0.235-0.249,0.422-0.546,0.563-0.889
			c0.275,0.243,0.564,0.411,0.879,0.543c0.811,0.296,1.709-0.12,2.004-0.932c0.125-0.337,0.161-0.656,0.17-1.031
			c0.336,0.12,0.684,0.17,1.024,0.151c0.869-0.033,1.529-0.758,1.497-1.625c-0.02-0.341-0.103-0.672-0.235-1.006
			c0.359-0.026,0.691-0.111,0.978-0.246c0.782-0.362,1.119-1.285,0.757-2.066c-0.144-0.308-0.342-0.585-0.607-0.859
			c0.322-0.148,0.602-0.351,0.836-0.596c0.583-0.644,0.537-1.643-0.088-2.235c-0.256-0.205-0.553-0.394-0.898-0.535
			c0.245-0.277,0.432-0.571,0.543-0.879c0.298-0.812-0.121-1.71-0.934-2.004c-0.314-0.132-0.662-0.181-1.029-0.173
			c0.122-0.334,0.169-0.683,0.17-1.03c-0.05-0.86-0.777-1.52-1.643-1.49c-0.341,0.021-0.673,0.105-1.005,0.236
			c-0.027-0.355-0.113-0.69-0.254-0.995C81.712,228.159,80.777,227.803,79.995,228.167z"/>
		<path fill-rule="evenodd" clip-rule="evenodd" fill="#FFFFFF" d="M79.441,230.52c-0.212,0.1-0.412,0.26-0.601,0.452
			c-0.127-0.233-0.281-0.456-0.459-0.614c-0.476-0.433-1.205-0.407-1.646,0.057c-0.166,0.2-0.304,0.419-0.396,0.669
			c-0.205-0.181-0.426-0.322-0.668-0.397c-0.601-0.22-1.269,0.089-1.489,0.693c-0.083,0.229-0.119,0.484-0.113,0.758
			c-0.264-0.083-0.52-0.119-0.78-0.12c-0.625,0.031-1.129,0.577-1.107,1.223c0.009,0.239,0.077,0.498,0.19,0.74
			c-0.281,0.027-0.534,0.077-0.762,0.181c-0.582,0.27-0.827,0.972-0.555,1.552c0.105,0.229,0.254,0.436,0.443,0.623
			c-0.232,0.127-0.44,0.272-0.615,0.458c-0.435,0.479-0.405,1.205,0.072,1.64c0.184,0.172,0.404,0.313,0.655,0.402
			c-0.182,0.205-0.322,0.426-0.398,0.669c-0.22,0.603,0.089,1.269,0.691,1.489c0.23,0.084,0.488,0.119,0.761,0.113
			c-0.084,0.264-0.12,0.521-0.113,0.759c0.023,0.645,0.57,1.151,1.214,1.129c0.253-0.016,0.499-0.079,0.74-0.192
			c0.028,0.28,0.09,0.528,0.195,0.756c0.272,0.581,0.957,0.833,1.539,0.563c0.227-0.104,0.434-0.254,0.636-0.452
			c0.112,0.241,0.26,0.448,0.444,0.622c0.478,0.435,1.221,0.398,1.64-0.072c0.174-0.186,0.313-0.404,0.418-0.66
			c0.205,0.181,0.419,0.305,0.653,0.403c0.604,0.221,1.271-0.088,1.49-0.691c0.091-0.251,0.118-0.486,0.126-0.768
			c0.25,0.092,0.508,0.127,0.76,0.113c0.645-0.024,1.136-0.563,1.112-1.207c-0.013-0.253-0.077-0.5-0.173-0.749
			c0.264-0.018,0.51-0.081,0.725-0.182c0.582-0.269,0.832-0.955,0.562-1.537c-0.105-0.228-0.252-0.433-0.452-0.634
			c0.241-0.113,0.45-0.262,0.623-0.445c0.435-0.479,0.399-1.222-0.065-1.66c-0.191-0.154-0.412-0.292-0.668-0.396
			c0.184-0.208,0.32-0.427,0.403-0.655c0.221-0.604-0.088-1.27-0.693-1.488c-0.233-0.1-0.49-0.137-0.766-0.128
			c0.092-0.251,0.126-0.507,0.129-0.767c-0.04-0.639-0.579-1.13-1.222-1.107c-0.252,0.017-0.5,0.079-0.747,0.175
			c-0.021-0.265-0.085-0.512-0.189-0.738C80.716,230.514,80.024,230.25,79.441,230.52z"/>
		<g>
			<g>
				<path fill="#FF5E79" d="M78.087,237.949c0,0,0.253,0.626,0.658,1.316c0.226,0.385,0.487,0.802,0.796,1.121
					c0.504,0.515,1.067,0.896,1.569,0.596c0,0,0.203-0.146,0.229-0.408c0.012-0.115,0.038-0.321-0.134-0.614
					c-0.239-0.409-0.661-0.891-1.801-1.476C79.042,238.299,78.603,238.126,78.087,237.949z"/>
				<path fill="#FF5E79" d="M77.104,237.728c0,0-0.606,0.3-1.367,0.549c-0.423,0.136-0.896,0.273-1.34,0.305
					c-0.718,0.052-1.392-0.04-1.568-0.597c0,0-0.056-0.244,0.1-0.457c0.069-0.094,0.188-0.264,0.508-0.369
					c0.451-0.148,1.086-0.226,2.328,0.095C76.158,237.357,76.6,237.52,77.104,237.728z"/>
				<path fill="#FF5E79" d="M77.31,238.013c0,0-0.622,0.27-1.303,0.689c-0.379,0.234-0.79,0.506-1.1,0.825
					c-0.503,0.515-0.869,1.087-0.559,1.581c0,0,0.152,0.201,0.415,0.219c0.114,0.009,0.321,0.028,0.61-0.147
					c0.403-0.251,0.875-0.683,1.431-1.837C76.979,238.977,77.143,238.534,77.31,238.013z"/>
				<path fill="#FF5E79" d="M77.708,238.151c0,0-0.283,0.614-0.51,1.383c-0.126,0.428-0.25,0.903-0.27,1.349
					c-0.032,0.719,0.079,1.389,0.642,1.55c0,0,0.245,0.049,0.454-0.111c0.089-0.071,0.256-0.193,0.354-0.521
					c0.134-0.454,0.196-1.091-0.16-2.323C78.105,239.087,77.932,238.649,77.708,238.151z"/>
				<path fill="#FF5E79" d="M78.274,237.617c0,0,0.586-0.334,1.332-0.628c0.415-0.162,0.878-0.328,1.319-0.387
					c0.712-0.093,1.392-0.043,1.6,0.503c0,0,0.07,0.241-0.072,0.463c-0.061,0.095-0.17,0.272-0.485,0.398
					c-0.442,0.173-1.071,0.291-2.329,0.043C79.24,237.932,78.789,237.796,78.274,237.617z"/>
				<path fill="#FF5E79" d="M77.284,237.351c0,0-0.272-0.618-0.697-1.297c-0.237-0.378-0.51-0.786-0.831-1.096
					c-0.518-0.5-1.093-0.862-1.586-0.549c0,0-0.199,0.151-0.217,0.417c-0.007,0.114-0.026,0.32,0.154,0.607
					c0.251,0.403,0.688,0.872,1.845,1.421C76.32,237.03,76.764,237.189,77.284,237.351z"/>
				<path fill="#FF5E79" d="M77.67,237.147c0,0-0.326-0.591-0.611-1.337c-0.159-0.418-0.318-0.883-0.37-1.325
					c-0.085-0.716-0.026-1.392,0.521-1.595c0,0,0.241-0.065,0.461,0.079c0.096,0.062,0.272,0.173,0.394,0.489
					c0.168,0.444,0.277,1.073,0.016,2.328C77.997,236.186,77.856,236.634,77.67,237.147z"/>
				<path fill="#FF5E79" d="M78.102,237.28c0,0,0.142-0.66,0.419-1.41c0.156-0.419,0.34-0.875,0.592-1.24
					c0.406-0.595,0.896-1.068,1.443-0.861c0,0,0.224,0.11,0.294,0.364c0.033,0.11,0.091,0.312-0.025,0.627
					c-0.164,0.446-0.496,0.992-1.52,1.766C78.981,236.768,78.578,237.015,78.102,237.28z"/>
			</g>
		</g>
	</g>
	<g>
		<path fill="#E48800" d="M182.772,148.835c0.619-0.289,1.303-0.431,2.023-0.49c0.002,0.003,0.002,0.004,0.002,0.004
			c0.008,0.001,0.014-0.002,0.021-0.002c0,0,0-0.001-0.002-0.002c-0.006,0-0.012,0-0.021,0c-0.127-0.311-0.236-0.623-0.316-0.934
			c-0.098-0.359-0.158-0.713-0.17-1.054c-0.061-1.733,1.297-3.202,2.977-3.287c0.201,0.002,0.404,0.013,0.605,0.031
			c0.143,0.011,0.283,0.024,0.428,0.048c0.209,0.031,0.42,0.074,0.629,0.127c0.051,0.01,0.096,0.025,0.141,0.037
			c0.098,0.025,0.195,0.053,0.295,0.082c-0.016-0.734,0.078-1.429,0.301-2.043c0.594-1.618,2.389-2.452,4.008-1.862
			c0.65,0.205,1.244,0.581,1.791,1.063c0.064-0.15,0.125-0.302,0.195-0.445c0.09-0.186,0.184-0.361,0.289-0.535
			c0.063-0.104,0.131-0.197,0.197-0.295c0.123-0.176,0.252-0.352,0.393-0.516c1.18-1.245,3.143-1.32,4.424-0.158
			c0.471,0.426,0.883,1.012,1.221,1.633c0.496-0.496,1.031-0.914,1.629-1.191c1.563-0.727,3.426-0.014,4.152,1.549
			c0.115,0.25,0.203,0.511,0.277,0.776c0.049,0.169,0.084,0.343,0.117,0.519c0.02,0.111,0.039,0.222,0.053,0.334
			c0.018,0.121,0.051,0.236,0.061,0.363c0.443-0.178,0.887-0.305,1.334-0.386c0.225-0.044,0.447-0.075,0.674-0.085
			c1.736-0.065,3.184,1.258,3.287,2.974c-0.002,0.211-0.014,0.419-0.033,0.628c-0.012,0.129-0.025,0.259-0.045,0.388
			c-0.027,0.185-0.064,0.367-0.111,0.55c-0.041,0.164-0.092,0.33-0.148,0.494c0.732-0.016,1.424,0.079,2.055,0.341
			c1.621,0.593,2.455,2.382,1.861,4.006c-0.221,0.61-0.594,1.204-1.08,1.753c0.67,0.275,1.285,0.613,1.793,1.071
			c1.246,1.184,1.34,3.183,0.172,4.466c-0.455,0.494-1.025,0.883-1.658,1.209c0.521,0.537,0.918,1.09,1.199,1.695
			c0.727,1.563,0.053,3.406-1.514,4.135c-0.568,0.266-1.232,0.436-1.949,0.49c0.184,0.461,0.316,0.925,0.393,1.39
			c0.039,0.206,0.066,0.413,0.076,0.621c0.064,1.731-1.256,3.18-2.99,3.243c-0.678,0.038-1.373-0.057-2.045-0.302
			c-0.02,0.75-0.096,1.39-0.338,2.062c-0.594,1.619-2.387,2.451-4.008,1.861c-0.631-0.264-1.207-0.6-1.758-1.084
			c-0.283,0.686-0.658,1.277-1.121,1.773c-1.129,1.264-3.127,1.363-4.41,0.194c-0.221-0.203-0.416-0.433-0.598-0.676
			c-0.023-0.032-0.051-0.063-0.076-0.097c-0.195-0.273-0.373-0.574-0.535-0.885c-0.535,0.523-1.088,0.913-1.695,1.197
			c-1.564,0.729-3.412,0.056-4.135-1.512c-0.283-0.604-0.449-1.262-0.523-2.009c-0.66,0.275-1.324,0.46-1.994,0.489
			c-1.73,0.063-3.197-1.297-3.262-3.029c-0.008-0.232,0.006-0.475,0.031-0.72c0.006-0.069,0.01-0.136,0.02-0.204
			c0.035-0.249,0.086-0.504,0.152-0.758c0.004-0.016,0.008-0.033,0.014-0.049c0.025-0.104,0.051-0.207,0.086-0.313
			c-0.736,0.019-1.43-0.077-2.045-0.301c-1.621-0.593-2.453-2.386-1.857-4.006c0.205-0.655,0.576-1.243,1.066-1.796
			c-0.674-0.246-1.266-0.619-1.758-1.084c-1.285-1.169-1.362-3.127-0.195-4.412c0.15-0.162,0.318-0.313,0.494-0.457
			c0.352-0.293,0.736-0.549,1.158-0.775c-0.113-0.111-0.197-0.234-0.301-0.35c-0.029-0.033-0.057-0.066-0.084-0.101
			c-0.143-0.17-0.283-0.345-0.402-0.526c-0.152-0.223-0.293-0.453-0.406-0.693C180.552,151.447,181.206,149.564,182.772,148.835z"/>
		<path fill-rule="evenodd" clip-rule="evenodd" fill="#BED630" d="M202.919,142.916c-0.449,0.209-0.875,0.555-1.275,0.961
			c-0.264-0.499-0.594-0.969-0.969-1.305c-1.012-0.918-2.559-0.863-3.49,0.122c-0.355,0.421-0.65,0.887-0.842,1.415
			c-0.434-0.385-0.9-0.677-1.416-0.842c-1.279-0.465-2.691,0.189-3.16,1.471c-0.176,0.482-0.25,1.029-0.236,1.609
			c-0.559-0.181-1.107-0.252-1.656-0.256c-1.324,0.066-2.395,1.223-2.346,2.59c0.018,0.506,0.164,1.059,0.402,1.571
			c-0.596,0.054-1.135,0.161-1.615,0.381c-1.234,0.575-1.752,2.06-1.178,3.292c0.225,0.482,0.541,0.919,0.943,1.318
			c-0.496,0.269-0.936,0.582-1.305,0.973c-0.92,1.013-0.857,2.557,0.154,3.479c0.391,0.362,0.857,0.66,1.387,0.854
			c-0.385,0.434-0.682,0.901-0.846,1.416c-0.465,1.275,0.193,2.691,1.471,3.158c0.484,0.176,1.031,0.252,1.611,0.24
			c-0.18,0.559-0.254,1.104-0.238,1.609c0.051,1.367,1.203,2.436,2.57,2.387c0.535-0.026,1.061-0.162,1.57-0.399
			c0.057,0.595,0.191,1.118,0.414,1.6c0.574,1.235,2.029,1.765,3.264,1.191c0.48-0.222,0.918-0.538,1.346-0.958
			c0.24,0.513,0.553,0.955,0.943,1.32c1.012,0.92,2.586,0.847,3.477-0.152c0.369-0.393,0.664-0.858,0.887-1.4
			c0.432,0.385,0.887,0.647,1.385,0.855c1.277,0.468,2.691-0.188,3.156-1.467c0.195-0.531,0.254-1.033,0.268-1.627
			c0.529,0.193,1.078,0.268,1.611,0.241c1.371-0.052,2.41-1.194,2.361-2.562c-0.031-0.535-0.162-1.059-0.373-1.584
			c0.566-0.04,1.09-0.176,1.543-0.387c1.232-0.572,1.762-2.025,1.191-3.258c-0.227-0.483-0.537-0.922-0.957-1.352
			c0.508-0.234,0.949-0.552,1.316-0.939c0.922-1.013,0.848-2.588-0.139-3.519c-0.402-0.326-0.869-0.622-1.414-0.845
			c0.387-0.436,0.68-0.899,0.855-1.385c0.471-1.279-0.189-2.692-1.469-3.158c-0.496-0.207-1.043-0.285-1.623-0.27
			c0.193-0.527,0.266-1.074,0.27-1.626c-0.08-1.352-1.225-2.393-2.59-2.344c-0.535,0.03-1.061,0.164-1.584,0.37
			c-0.041-0.561-0.178-1.088-0.398-1.568C205.624,142.904,204.151,142.343,202.919,142.916z"/>
		<path fill-rule="evenodd" clip-rule="evenodd" fill="#FFFFFF" d="M202.048,146.625c-0.336,0.155-0.648,0.41-0.947,0.711
			c-0.199-0.368-0.443-0.719-0.723-0.968c-0.752-0.682-1.9-0.641-2.594,0.091c-0.262,0.313-0.479,0.659-0.625,1.052
			c-0.322-0.284-0.668-0.507-1.053-0.624c-0.945-0.346-1.998,0.139-2.344,1.09c-0.133,0.36-0.189,0.765-0.18,1.196
			c-0.414-0.132-0.818-0.188-1.229-0.19c-0.984,0.049-1.777,0.909-1.742,1.926c0.014,0.375,0.121,0.786,0.299,1.166
			c-0.443,0.043-0.84,0.12-1.201,0.285c-0.916,0.426-1.301,1.531-0.873,2.445c0.166,0.359,0.402,0.684,0.699,0.979
			c-0.367,0.199-0.695,0.432-0.969,0.723c-0.684,0.752-0.639,1.898,0.113,2.584c0.291,0.27,0.637,0.492,1.031,0.635
			c-0.285,0.323-0.504,0.671-0.627,1.053c-0.346,0.948,0.143,2,1.09,2.346c0.361,0.131,0.768,0.187,1.197,0.177
			c-0.131,0.417-0.188,0.821-0.176,1.196c0.037,1.018,0.896,1.813,1.912,1.777c0.396-0.022,0.787-0.123,1.164-0.299
			c0.045,0.441,0.143,0.83,0.309,1.187c0.428,0.918,1.506,1.313,2.424,0.886c0.357-0.164,0.686-0.4,1.002-0.709
			c0.178,0.379,0.41,0.705,0.699,0.979c0.752,0.685,1.924,0.627,2.584-0.112c0.271-0.292,0.49-0.639,0.658-1.042
			c0.32,0.285,0.658,0.48,1.027,0.637c0.951,0.346,2.004-0.142,2.348-1.09c0.143-0.393,0.186-0.768,0.199-1.209
			c0.391,0.146,0.801,0.2,1.197,0.18c1.016-0.039,1.789-0.887,1.752-1.904c-0.021-0.396-0.119-0.785-0.273-1.178
			c0.42-0.029,0.805-0.129,1.143-0.286c0.918-0.425,1.309-1.506,0.885-2.422c-0.164-0.357-0.398-0.684-0.709-1.001
			c0.379-0.176,0.707-0.412,0.979-0.698c0.686-0.755,0.629-1.927-0.102-2.616c-0.305-0.242-0.65-0.461-1.053-0.625
			c0.287-0.326,0.504-0.67,0.637-1.031c0.346-0.951-0.143-1.998-1.094-2.346c-0.367-0.154-0.773-0.213-1.205-0.201
			c0.145-0.394,0.197-0.797,0.201-1.208c-0.061-1.003-0.91-1.777-1.926-1.739c-0.396,0.022-0.787,0.121-1.176,0.273
			c-0.031-0.418-0.133-0.807-0.295-1.164C204.056,146.615,202.964,146.197,202.048,146.625z"/>
		<g>
			<g>
				<path fill="#FF5E79" d="M199.915,158.325c0,0,0.398,0.986,1.035,2.075c0.354,0.607,0.766,1.264,1.256,1.766
					c0.793,0.811,1.68,1.41,2.471,0.939c0,0,0.32-0.23,0.361-0.645c0.018-0.178,0.057-0.506-0.211-0.965
					c-0.377-0.646-1.043-1.404-2.84-2.325C201.417,158.88,200.728,158.606,199.915,158.325z"/>
				<path fill="#FF5E79" d="M198.366,157.98c0,0-0.955,0.471-2.154,0.861c-0.668,0.217-1.412,0.434-2.113,0.483
					c-1.131,0.08-2.189-0.065-2.469-0.942c0,0-0.086-0.385,0.158-0.72c0.105-0.146,0.293-0.414,0.801-0.581
					c0.711-0.233,1.711-0.355,3.664,0.15C196.876,157.393,197.571,157.65,198.366,157.98z"/>
				<path fill="#FF5E79" d="M198.687,158.426c0,0-0.975,0.425-2.051,1.087c-0.598,0.369-1.242,0.797-1.732,1.299
					c-0.791,0.811-1.369,1.713-0.879,2.492c0,0,0.238,0.315,0.652,0.346c0.18,0.012,0.504,0.044,0.961-0.235
					c0.637-0.392,1.377-1.075,2.254-2.894C198.169,159.945,198.427,159.248,198.687,158.426z"/>
				<path fill="#FF5E79" d="M199.315,158.645c0,0-0.443,0.968-0.801,2.177c-0.199,0.675-0.395,1.423-0.426,2.125
					c-0.047,1.133,0.125,2.188,1.01,2.441c0,0,0.387,0.077,0.717-0.178c0.143-0.109,0.406-0.303,0.559-0.816
					c0.213-0.716,0.309-1.719-0.252-3.658C199.942,160.119,199.669,159.43,199.315,158.645z"/>
				<path fill="#FF5E79" d="M200.208,157.802c0,0,0.924-0.527,2.098-0.99c0.654-0.256,1.383-0.516,2.078-0.607
					c1.125-0.148,2.191-0.068,2.521,0.791c0,0,0.109,0.379-0.113,0.729c-0.098,0.152-0.27,0.431-0.766,0.629
					c-0.695,0.274-1.686,0.457-3.668,0.068C201.729,158.298,201.019,158.085,200.208,157.802z"/>
				<path fill="#FF5E79" d="M198.649,157.385c0,0-0.43-0.974-1.1-2.043c-0.373-0.597-0.803-1.239-1.309-1.726
					c-0.816-0.787-1.721-1.359-2.498-0.865c0,0-0.313,0.24-0.34,0.654c-0.014,0.18-0.043,0.507,0.24,0.959
					c0.396,0.635,1.084,1.372,2.906,2.237C197.13,156.876,197.827,157.13,198.649,157.385z"/>
				<path fill="#FF5E79" d="M199.259,157.064c0,0-0.518-0.93-0.965-2.108c-0.25-0.657-0.5-1.391-0.582-2.087
					c-0.135-1.126-0.043-2.192,0.82-2.514c0,0,0.381-0.103,0.729,0.125c0.15,0.1,0.428,0.273,0.617,0.772
					c0.266,0.698,0.438,1.69,0.025,3.667C199.771,155.546,199.552,156.256,199.259,157.064z"/>
				<path fill="#FF5E79" d="M199.935,157.273c0,0,0.225-1.041,0.662-2.223c0.244-0.659,0.537-1.377,0.934-1.955
					c0.639-0.937,1.41-1.68,2.271-1.353c0,0,0.355,0.171,0.467,0.571c0.049,0.175,0.141,0.488-0.043,0.988
					c-0.26,0.701-0.781,1.563-2.393,2.779C201.321,156.468,200.688,156.857,199.935,157.273z"/>
			</g>
		</g>
	</g>
	<g>
		<g>
			<path fill="#3EBDD4" d="M102.621,184.421c0.618-0.289,1.302-0.431,2.023-0.49c0.002,0.003,0.002,0.005,0.002,0.005
				c0.009,0,0.014-0.002,0.021-0.002l0-0.003c-0.006,0-0.014,0-0.022,0c-0.128-0.31-0.236-0.621-0.317-0.935
				c-0.096-0.358-0.158-0.712-0.17-1.052c-0.06-1.734,1.298-3.203,2.978-3.289c0.201,0.004,0.404,0.015,0.605,0.033
				c0.144,0.01,0.284,0.024,0.428,0.047c0.21,0.029,0.42,0.074,0.629,0.127c0.049,0.01,0.095,0.025,0.141,0.037
				c0.097,0.026,0.196,0.053,0.294,0.082c-0.016-0.735,0.078-1.428,0.302-2.044c0.593-1.618,2.386-2.452,4.006-1.861
				c0.651,0.206,1.244,0.579,1.793,1.065c0.062-0.152,0.125-0.304,0.195-0.448c0.088-0.185,0.184-0.36,0.29-0.532
				c0.061-0.105,0.13-0.201,0.196-0.297c0.124-0.177,0.252-0.354,0.393-0.516c1.18-1.244,3.142-1.319,4.424-0.157
				c0.472,0.425,0.881,1.01,1.221,1.634c0.498-0.498,1.03-0.916,1.629-1.193c1.563-0.727,3.425-0.015,4.153,1.549
				c0.114,0.25,0.203,0.51,0.275,0.777c0.049,0.169,0.085,0.343,0.118,0.516c0.021,0.113,0.039,0.223,0.054,0.336
				c0.019,0.12,0.048,0.237,0.061,0.363c0.443-0.178,0.887-0.307,1.333-0.387c0.225-0.041,0.449-0.072,0.673-0.084
				c1.737-0.064,3.185,1.258,3.288,2.972c-0.002,0.213-0.014,0.423-0.034,0.631c-0.011,0.129-0.024,0.258-0.044,0.388
				c-0.028,0.183-0.066,0.365-0.112,0.55c-0.04,0.163-0.09,0.33-0.146,0.494c0.731-0.017,1.424,0.079,2.055,0.339
				c1.621,0.593,2.455,2.384,1.861,4.005c-0.221,0.613-0.596,1.204-1.079,1.755c0.668,0.274,1.282,0.611,1.791,1.071
				c1.247,1.184,1.338,3.183,0.17,4.467c-0.455,0.493-1.024,0.883-1.658,1.21c0.522,0.536,0.919,1.088,1.2,1.693
				c0.727,1.564,0.053,3.407-1.511,4.135c-0.571,0.265-1.234,0.435-1.954,0.49c0.186,0.461,0.319,0.924,0.396,1.392
				c0.037,0.203,0.066,0.41,0.074,0.619c0.066,1.732-1.254,3.18-2.988,3.244c-0.679,0.037-1.374-0.058-2.044-0.302
				c-0.023,0.75-0.098,1.39-0.34,2.062c-0.593,1.62-2.385,2.45-4.007,1.86c-0.631-0.264-1.205-0.6-1.758-1.084
				c-0.283,0.685-0.657,1.278-1.121,1.773c-1.129,1.265-3.128,1.362-4.411,0.193c-0.22-0.202-0.416-0.431-0.598-0.674
				c-0.022-0.034-0.048-0.063-0.075-0.096c-0.196-0.275-0.373-0.576-0.535-0.886c-0.538,0.523-1.089,0.913-1.696,1.196
				c-1.564,0.729-3.412,0.055-4.135-1.511c-0.283-0.604-0.448-1.262-0.523-2.01c-0.659,0.276-1.324,0.459-1.994,0.489
				c-1.732,0.061-3.197-1.297-3.262-3.029c-0.009-0.232,0.006-0.474,0.03-0.72c0.005-0.069,0.01-0.135,0.02-0.204
				c0.035-0.248,0.086-0.504,0.151-0.757c0.004-0.016,0.009-0.033,0.015-0.05c0.026-0.103,0.049-0.206,0.085-0.313
				c-0.736,0.018-1.43-0.076-2.043-0.301c-1.622-0.593-2.454-2.385-1.858-4.006c0.204-0.654,0.577-1.244,1.066-1.797
				c-0.673-0.245-1.266-0.618-1.758-1.084c-1.286-1.168-1.361-3.126-0.195-4.411c0.15-0.163,0.32-0.313,0.494-0.457
				c0.352-0.292,0.738-0.549,1.157-0.775c-0.112-0.111-0.197-0.233-0.3-0.35c-0.028-0.035-0.055-0.066-0.084-0.1
				c-0.142-0.171-0.283-0.346-0.402-0.526c-0.153-0.223-0.293-0.453-0.407-0.695C100.398,187.032,101.054,185.15,102.621,184.421z"
				/>
			<path fill-rule="evenodd" clip-rule="evenodd" fill="#BED630" d="M122.767,178.503c-0.45,0.206-0.875,0.553-1.276,0.958
				c-0.263-0.499-0.594-0.968-0.969-1.305c-1.011-0.919-2.556-0.861-3.49,0.124c-0.353,0.42-0.65,0.887-0.841,1.414
				c-0.434-0.385-0.9-0.678-1.417-0.842c-1.278-0.465-2.691,0.189-3.159,1.471c-0.176,0.482-0.251,1.027-0.236,1.608
				c-0.561-0.179-1.108-0.253-1.656-0.254c-1.327,0.065-2.394,1.222-2.345,2.59c0.017,0.505,0.165,1.059,0.402,1.569
				c-0.596,0.055-1.134,0.162-1.615,0.383c-1.234,0.574-1.751,2.059-1.177,3.291c0.224,0.482,0.541,0.92,0.942,1.318
				c-0.496,0.269-0.936,0.583-1.304,0.973c-0.922,1.012-0.859,2.557,0.152,3.477c0.393,0.363,0.858,0.662,1.387,0.855
				c-0.385,0.434-0.68,0.899-0.846,1.418c-0.463,1.274,0.194,2.688,1.471,3.156c0.485,0.176,1.031,0.251,1.61,0.241
				c-0.18,0.557-0.253,1.103-0.239,1.607c0.052,1.368,1.206,2.437,2.573,2.388c0.533-0.026,1.059-0.163,1.569-0.399
				c0.057,0.597,0.191,1.12,0.414,1.6c0.574,1.235,2.03,1.764,3.264,1.192c0.48-0.224,0.919-0.539,1.347-0.959
				c0.239,0.514,0.551,0.954,0.941,1.321c1.013,0.919,2.588,0.845,3.477-0.152c0.369-0.393,0.664-0.86,0.886-1.402
				c0.432,0.385,0.887,0.648,1.385,0.856c1.276,0.468,2.692-0.188,3.156-1.468c0.196-0.529,0.255-1.032,0.269-1.624
				c0.529,0.191,1.076,0.267,1.61,0.239c1.371-0.052,2.411-1.194,2.361-2.561c-0.031-0.535-0.161-1.059-0.372-1.585
				c0.564-0.04,1.088-0.177,1.54-0.386c1.233-0.573,1.765-2.026,1.194-3.259c-0.226-0.484-0.538-0.921-0.957-1.351
				c0.508-0.235,0.949-0.554,1.317-0.939c0.92-1.014,0.847-2.589-0.138-3.52c-0.404-0.325-0.872-0.623-1.417-0.845
				c0.387-0.437,0.68-0.899,0.856-1.384c0.469-1.279-0.19-2.692-1.469-3.159c-0.496-0.207-1.044-0.286-1.624-0.271
				c0.193-0.526,0.266-1.073,0.27-1.624c-0.08-1.352-1.225-2.393-2.589-2.345c-0.536,0.029-1.061,0.165-1.585,0.371
				c-0.041-0.562-0.176-1.089-0.399-1.569C125.471,178.49,123.999,177.927,122.767,178.503z"/>
			<path fill-rule="evenodd" clip-rule="evenodd" fill="#FFFFFF" d="M121.894,182.209c-0.334,0.155-0.648,0.409-0.946,0.712
				c-0.199-0.369-0.443-0.718-0.722-0.968c-0.752-0.681-1.9-0.642-2.594,0.091c-0.261,0.312-0.479,0.659-0.625,1.052
				c-0.322-0.284-0.668-0.506-1.053-0.624c-0.946-0.346-1.997,0.139-2.343,1.089c-0.133,0.361-0.189,0.767-0.18,1.198
				c-0.416-0.134-0.819-0.189-1.229-0.19c-0.983,0.048-1.779,0.908-1.743,1.925c0.015,0.374,0.121,0.786,0.3,1.166
				c-0.444,0.042-0.841,0.121-1.201,0.285c-0.917,0.427-1.302,1.531-0.875,2.444c0.167,0.359,0.403,0.685,0.7,0.979
				c-0.367,0.2-0.696,0.433-0.968,0.724c-0.685,0.75-0.637,1.897,0.113,2.584c0.292,0.269,0.637,0.492,1.033,0.633
				c-0.287,0.323-0.506,0.672-0.627,1.053c-0.346,0.949,0.14,2.001,1.089,2.347c0.361,0.131,0.766,0.188,1.198,0.178
				c-0.132,0.415-0.188,0.821-0.177,1.196c0.037,1.016,0.896,1.813,1.911,1.776c0.398-0.022,0.788-0.124,1.167-0.3
				c0.044,0.442,0.142,0.83,0.307,1.188c0.43,0.916,1.506,1.312,2.425,0.885c0.355-0.164,0.684-0.399,1.001-0.709
				c0.177,0.38,0.41,0.707,0.701,0.979c0.75,0.685,1.922,0.627,2.582-0.112c0.272-0.292,0.492-0.639,0.659-1.041
				c0.322,0.284,0.659,0.479,1.029,0.636c0.95,0.348,2.002-0.141,2.346-1.09c0.144-0.393,0.187-0.768,0.201-1.208
				c0.391,0.145,0.8,0.198,1.195,0.179c1.018-0.039,1.791-0.888,1.755-1.903c-0.022-0.399-0.121-0.787-0.275-1.178
				c0.42-0.029,0.807-0.13,1.144-0.286c0.917-0.425,1.309-1.506,0.883-2.423c-0.165-0.357-0.396-0.684-0.71-1.001
				c0.381-0.176,0.708-0.412,0.98-0.7c0.685-0.753,0.628-1.923-0.103-2.614c-0.303-0.242-0.648-0.461-1.051-0.626
				c0.288-0.324,0.503-0.669,0.634-1.03c0.348-0.951-0.141-1.997-1.09-2.345c-0.369-0.155-0.775-0.214-1.207-0.203
				c0.143-0.392,0.198-0.795,0.203-1.207c-0.062-1.002-0.911-1.778-1.926-1.741c-0.397,0.023-0.788,0.124-1.176,0.276
				c-0.031-0.419-0.132-0.81-0.296-1.166C123.903,182.201,122.813,181.784,121.894,182.209z"/>
		</g>
		<g>
			<g>
				<path fill="#FF5E79" d="M119.762,193.911c0,0,0.399,0.987,1.035,2.074c0.356,0.607,0.768,1.264,1.257,1.766
					c0.792,0.812,1.679,1.41,2.47,0.939c0,0,0.321-0.229,0.362-0.644c0.017-0.18,0.057-0.506-0.212-0.967
					c-0.376-0.646-1.042-1.404-2.837-2.323C121.264,194.465,120.575,194.191,119.762,193.911z"/>
				<path fill="#FF5E79" d="M118.212,193.566c0,0-0.955,0.471-2.152,0.859c-0.669,0.219-1.413,0.435-2.113,0.484
					c-1.13,0.08-2.193-0.065-2.471-0.941c0,0-0.085-0.386,0.16-0.721c0.105-0.146,0.293-0.413,0.801-0.581
					c0.71-0.233,1.71-0.355,3.664,0.151C116.723,192.98,117.418,193.235,118.212,193.566z"/>
				<path fill="#FF5E79" d="M118.534,194.012c0,0-0.976,0.424-2.049,1.087c-0.599,0.369-1.244,0.797-1.733,1.299
					c-0.792,0.81-1.369,1.713-0.88,2.492c0,0,0.239,0.315,0.654,0.345c0.178,0.014,0.505,0.045,0.961-0.235
					c0.637-0.391,1.377-1.073,2.253-2.892C118.017,195.53,118.273,194.833,118.534,194.012z"/>
				<path fill="#FF5E79" d="M119.164,194.231c0,0-0.445,0.967-0.803,2.177c-0.199,0.675-0.393,1.423-0.424,2.125
					c-0.048,1.132,0.124,2.188,1.01,2.442c0,0,0.386,0.076,0.715-0.179c0.142-0.108,0.406-0.304,0.559-0.816
					c0.213-0.716,0.308-1.72-0.251-3.659C119.791,195.704,119.516,195.016,119.164,194.231z"/>
				<path fill="#FF5E79" d="M120.055,193.387c0,0,0.924-0.526,2.097-0.988c0.655-0.257,1.384-0.517,2.08-0.609
					c1.124-0.147,2.192-0.068,2.522,0.792c0,0,0.108,0.378-0.115,0.729c-0.097,0.152-0.268,0.431-0.766,0.628
					c-0.693,0.274-1.685,0.458-3.666,0.069C121.577,193.883,120.866,193.67,120.055,193.387z"/>
				<path fill="#FF5E79" d="M118.496,192.97c0,0-0.429-0.973-1.098-2.043c-0.374-0.596-0.804-1.238-1.309-1.725
					c-0.817-0.787-1.722-1.36-2.498-0.866c0,0-0.314,0.24-0.34,0.654c-0.015,0.183-0.042,0.508,0.24,0.96
					c0.396,0.636,1.083,1.371,2.906,2.237C116.978,192.463,117.675,192.714,118.496,192.97z"/>
				<path fill="#FF5E79" d="M119.105,192.651c0,0-0.517-0.932-0.963-2.109c-0.25-0.658-0.502-1.391-0.584-2.087
					c-0.133-1.127-0.041-2.193,0.823-2.513c0,0,0.379-0.104,0.727,0.124c0.15,0.099,0.429,0.272,0.618,0.772
					c0.266,0.699,0.438,1.689,0.025,3.667C119.619,191.134,119.399,191.84,119.105,192.651z"/>
				<path fill="#FF5E79" d="M119.783,192.859c0,0,0.225-1.041,0.662-2.222c0.245-0.66,0.538-1.377,0.933-1.956
					c0.64-0.937,1.411-1.681,2.272-1.354c0,0,0.355,0.172,0.466,0.572c0.048,0.174,0.144,0.488-0.041,0.988
					c-0.259,0.703-0.783,1.563-2.394,2.778C121.167,192.053,120.536,192.441,119.783,192.859z"/>
			</g>
		</g>
	</g>
	<g>
		<g>
			<path fill="#95AF2E" d="M184.415,187.047c0,0,0.605-5.688,10.27-6.607c9.668-0.924,13.217,10.404,15.623,12.507
				c2.404,2.1,3.865,2.347,3.865,2.347s-3.838-2.759-8.83-1.763c-4.99,0.994-11.5,3.685-15.943,1.541
				c-4.436-2.146-3.988-6.992-3.988-6.992s2.613,3.283,7.623,2.387c5.01-0.898,9.656,0.702,9.656,0.702s-7.666-4.306-12.521-4.242
				C185.313,186.985,184.415,187.047,184.415,187.047z"/>
			<path fill="#95AF2E" d="M181.901,195.917c0,0,4.076-3.358,11.047,2.293c6.975,5.647,1.988,15.413,2.213,18.358
				c0.227,2.94,1.033,4.048,1.033,4.048s-0.75-4.303-4.686-6.875c-3.936-2.574-9.969-5.015-11.512-9.298
				c-1.539-4.29,1.893-7.194,1.893-7.194s-0.4,3.859,3.484,6.506c3.885,2.648,5.916,6.71,5.916,6.71s-2.273-7.796-5.512-10.897
				C182.536,196.463,181.901,195.917,181.901,195.917z"/>
			<path fill="#95AF2E" d="M177.477,194.41c0,0-3.659-3.807-11.241,0.998c-7.581,4.807-3.754,15.083-4.316,17.981
				c-0.564,2.896-1.49,3.902-1.49,3.902s1.234-4.188,5.443-6.287c4.208-2.104,10.482-3.828,12.513-7.908
				c2.022-4.083-1.05-7.364-1.05-7.364s-0.05,3.877-4.216,6.058c-4.165,2.185-6.647,5.985-6.647,5.985s3.154-7.481,6.734-10.19
				C176.782,194.877,177.477,194.41,177.477,194.41z"/>
			<path fill="#95AF2E" d="M183.286,191.639c-0.852,1.801-3,2.573-4.802,1.724c-1.802-0.856-2.571-3.006-1.722-4.805
				c0.852-1.805,3.004-2.573,4.805-1.721S184.138,189.837,183.286,191.639z"/>
		</g>
	</g>
	<g>
		<g>
			<path fill="#95AF2E" d="M42.458,182.695c0,0,5.574,1.28,5.331,10.986c-0.237,9.708-11.908,11.879-14.284,14.016
				c-2.373,2.135-2.792,3.557-2.792,3.557s3.198-3.479,2.805-8.557c-0.392-5.072-2.285-11.857,0.377-16.012
				c2.659-4.15,7.417-3.123,7.417-3.123s-3.571,2.2-3.279,7.282s-1.854,9.502-1.854,9.502s5.193-7.093,5.71-11.923
				C42.412,183.594,42.458,182.695,42.458,182.695z"/>
			<path fill="#95AF2E" d="M33.949,179.14c0,0,2.847,4.445-3.595,10.692c-6.44,6.252-15.54,0.133-18.491,0.005
				c-2.947-0.129-4.143,0.539-4.143,0.539s4.361-0.229,7.387-3.829c3.027-3.598,6.167-9.299,10.605-10.316
				c4.443-1.019,6.918,2.737,6.918,2.737s-3.784-0.858-6.877,2.682c-3.094,3.54-7.37,5.071-7.37,5.071s8.013-1.324,11.48-4.171
				C33.333,179.705,33.949,179.14,33.949,179.14z"/>
			<path fill="#95AF2E" d="M35.974,174.927c0,0,4.218-3.18,0.356-11.28c-3.867-8.101-14.527-5.53-17.339-6.436
				c-2.807-0.905-3.695-1.946-3.695-1.946s4.011,1.728,5.591,6.155c1.585,4.432,2.549,10.866,6.357,13.37
				c3.812,2.495,7.437-0.162,7.437-0.162s-3.844-0.516-5.512-4.911c-1.67-4.394-5.147-7.313-5.147-7.313s7.052,4.025,9.31,7.902
				C35.593,174.18,35.974,174.927,35.974,174.927z"/>
			<path fill="#95AF2E" d="M38.032,181.027c-1.686-1.062-2.195-3.287-1.137-4.975c1.063-1.688,3.29-2.195,4.976-1.134
				c1.691,1.06,2.196,3.288,1.134,4.976C41.944,181.581,39.719,182.086,38.032,181.027z"/>
		</g>
	</g>
	<g>
		<g>
			<path fill="#95AF2E" d="M114.299,81.009c0,0,4.913,6.874-4.859,17.373c-9.769,10.508-24.804,1.482-29.525,1.52
				c-4.715,0.039-6.573,1.201-6.573,1.201s6.946-0.719,11.482-6.719c4.532-5.996,9.083-15.355,16.095-17.346
				c7.004-1.988,11.264,3.809,11.264,3.809s-6.106-1.062-10.759,4.847c-4.652,5.907-11.354,8.695-11.354,8.695
				s12.691-2.763,17.991-7.599C113.369,81.96,114.299,81.009,114.299,81.009z"/>
			<path fill="#95AF2E" d="M108.367,68.746c0,0-1.203,7.706-14.448,8.311c-13.245,0.608-17.32-15.07-20.459-18.103
				c-3.135-3.028-5.112-3.459-5.112-3.459s5.05,4.019,11.92,2.997c6.872-1.016,15.93-4.249,21.835-1.029
				c5.911,3.225,4.97,9.803,4.97,9.803s-3.341-4.654-10.232-3.768c-6.887,0.889-13.118-1.605-13.118-1.605
				s10.162,6.379,16.783,6.626C107.133,68.767,108.367,68.746,108.367,68.746z"/>
			<path fill="#95AF2E" d="M114.734,66.068c0,0,7.777,0.611,11.435-12.131c3.655-12.749-10.655-20.344-12.88-24.098
				c-2.217-3.75-2.181-5.771-2.181-5.771s2.745,5.839,0.158,12.286c-2.583,6.452-7.821,14.517-6.056,21.014
				c1.771,6.492,8.385,7.102,8.385,7.102s-3.75-4.333-1.29-10.829c2.458-6.497,1.468-13.13,1.468-13.13s3.857,11.357,2.562,17.858
				C115.042,64.869,114.734,66.068,114.734,66.068z"/>
			<path fill="#95AF2E" d="M111.038,74.83c-0.826-2.822,0.79-5.784,3.612-6.613c2.829-0.828,5.789,0.793,6.615,3.615
				c0.832,2.83-0.791,5.788-3.616,6.617C114.823,79.274,111.868,77.656,111.038,74.83z"/>
		</g>
	</g>
	<path fill="#95AF2E" d="M120.193,243.45c0.285,0.083,6.084,13.237,7.874,25.783s-4.919,25.226-12.414,30.804
		c-7.497,5.573-18.363,8.813-25.833,0.823c-9.539-10.209-0.944-21.932,1.514-23.968c3.271-2.71,11.123-7.685,17.279-0.548
		c0.049,0.057,0.118,0.149,0.188,0.231c0,0,3.441,5.24,2.213,10.298s-5.49,7.738-7.981,7.04c-2.492-0.697-3.238-3.267-2.418-4.586
		c0.82-1.316,2.688-2.652,4.422-0.688c1.735,1.964-0.961,3.454-0.961,3.454s1.639-1.356,0.143-2.775
		c-1.494-1.42-3.905-0.482-2.866,2.054c1.043,2.542,4.951,1.745,7.088-1.836c2.136-3.574,0.123-9.575-3.363-12.357
		c-2.394-1.91-9.348-4.611-14.668,1.923c-5.318,6.535-3.447,14.529,1.915,19.331c5.361,4.801,13.875,6.355,22.055-0.318
		c8.18-6.671,10.098-14.745,10.866-19.846c0.768-5.1,0.124-14.982-1.243-20.864C122.635,251.522,120.193,243.45,120.193,243.45z"/>
	<path fill="#95AF2E" d="M65.812,256.198c0.059-0.29-8.825-11.593-19.059-19.067c-10.233-7.477-24.578-7.516-33.022-3.52
		c-8.445,3.997-16.411,12.066-12.868,22.415c4.527,13.217,18.913,11.14,21.867,9.929c3.93-1.614,12.01-6.208,8.604-14.997
		c-0.026-0.069-0.077-0.172-0.117-0.274c0,0-3.007-5.5-8.047-6.794c-5.043-1.291-9.411,1.209-9.965,3.737
		c-0.555,2.527,1.36,4.395,2.909,4.291c1.55-0.106,3.607-1.128,2.689-3.58c-0.919-2.455-3.501-0.776-3.501-0.776
		s1.966-0.808,2.517,1.18c0.551,1.983-1.41,3.673-3.162,1.564c-1.751-2.115,0.789-5.19,4.952-5.394
		c4.162-0.207,8.513,4.391,9.327,8.775c0.562,3.01-0.322,10.419-8.591,12.044c-8.268,1.623-14.441-3.786-16.16-10.776
		c-1.721-6.988,0.91-15.232,10.644-19.317c9.735-4.084,17.763-1.983,22.624-0.263c4.864,1.72,13.284,6.932,17.833,10.902
		C59.833,250.25,65.812,256.198,65.812,256.198z"/>
</g>
</svg>
