<svg xmlns="http://www.w3.org/2000/svg" version="1.1" x="0" y="0" width="198.5" height="138.8" viewBox="-7.4 37.9 198.5 138.8" enable-background="new -7.38 37.902 198.516 138.797" xml:space="preserve"><path fill="#83205D" d="M95.8 143.7c0.8 4 0 11.5-2.6 14.8l0 4c-0.1 0-0.1 0.1-0.2 0.1 -1.1 0-0.8-1.9-1.3-2.7 -0.5 0.8-0.3 2.7-1.3 2.7 -0.1 0-0.1 0-0.2-0.1l0-4c-2.6-3.4-3.3-10.8-2.5-14.9 1.1-5.5 0-12.6 0-12.6s-6.1 12.2-11.3 21.1c-5.3 9-15.4 14.3-26.9 10.5 -2.4-4.4-13.2-5.1-15.5 3.7 -0.5 2-3.3 7.5-4.2 8.6 -2.9 3.2-3 0.6-4.1-0.2 -1.7-1.4 11.7-19.6 10.7-21.3 -1.4-2.4-2.2-5.3-3.1-8.7 -2-8.1-1.2-14.3 0.9-19.4 3.5-8.4 10.7-13.5 14.7-18.2 0 0-25.9-5.5-29.7-12.2C16.1 96-11.6 53.5-6.8 40.8c1-3 7.7-2.7 15.9-2.9 21.2-0.5 49 8.5 61.3 28.5C74.8 71.6 80.7 76.9 85.4 79.7c11.5 6.9-2.7-19.8-4.1-22.1 -3.1-5-7.4-8.7-12.1-11.5 -3.6-2.2-1.1-5.3 2-2.3 3.8 3.6 6.8 6.9 9.8 11.6 2.3 3.7 4.5 8.1 6.6 12.3 2.7 5.3 2.7 3.7 4.3 8.2 1.6-4.6 1.5-2.6 4.2-7.8 2.2-4.3 4.5-8.9 6.9-12.7 2.9-4.7 6-7.9 9.8-11.6 3.1-3 5.6 0.1 2 2.3 -4.7 2.8-9.1 6.5-12.2 11.5 -1.4 2.2-15.7 29-4.2 22.1 4.7-2.8 10.6-8.1 15-13.2 12.4-19.9 40.2-28.9 61.4-28.3 8.2 0.2 14.9 0 15.9 2.9 4.7 12.7-23.1 55.1-26.2 54.1 -3.8 6.6-29.7 12.1-29.7 12.1 4 4.7 11.2 9.8 14.6 18.3 2.1 5 2.8 11.3 0.8 19.4 -0.9 3.5-1.7 6.3-3.1 8.7 -1 1.8 12.3 20 10.6 21.3 -1 0.8-1.2 3.3-4.1 0.2 -1-1.1-3.7-6.6-4.2-8.6 -2.3-8.8-13.1-8.1-15.5-3.8 -11.5 3.7-21.6-1.6-26.8-10.6 -5.2-9-11.3-21.2-11.3-21.2S94.7 138.1 95.8 143.7z"/><path fill="#FF5E79" d="M91.7 129.5c-0.5 0.3-1 0.1-1.5-0.8 -2.7-4.6-2.8-16.1-3.3-26.3 -0.2-4 0.9-7.1 0.9-9.6 0.1-2.9 1.8-10.8 4-10.5 2.2-0.3 3.9 7.5 3.9 10.5 0.1 2.4 1.2 5.6 0.9 9.6 -0.6 10.1-0.7 21.7-3.4 26.2C92.7 129.6 92.2 129.8 91.7 129.5z"/><path fill="#FF5E79" d="M91.7 131.2c0.7-0.4 1.5 0.1 1.7 2.7 0 0 0.7 2-0.5 5.2 1.1 0 1.1 7.5 0.1 8.7 0.9 1.3 1.4 5.8-1 9.2 0 0-0.2-0.3-0.4-0.7 -0.2 0.4-0.4 0.6-0.4 0.7 -2.3-3.4-1.9-7.9-0.9-9.2 -1-1.3-1-8.7 0.1-8.7 -1.2-3.2-0.5-5.2-0.5-5.2C90.2 131.3 91.1 130.8 91.7 131.2z"/><path fill="#BED630" d="M84.6 128.1c0 0-10.2 21.4-16.6 24.6 0 0-15.1 4.9-15.5 3.1 -0.3-1.8 1.9-1.2 8.6-6.2l21.5-24.6C84.8 123.4 85.5 123.9 84.6 128.1z"/><path fill="#BED630" d="M98.8 128.1c0 0 10.2 21.5 16.5 24.7 0 0 15.1 5 15.5 3.2 0.4-1.8-1.9-1.3-8.6-6.2l-21.4-24.7C98.7 123.5 98 124 98.8 128.1z"/><path fill="#BED630" d="M84.1 119.1c0 0-18 20.2-24.6 23.4 -2.9 3.1-5.7 6.1-8.5 9.2 0 0-5.2-5.3-1.3-9.8 5-3.6 10-7.2 15-10.9 3.5-2.3 6.9-4.6 10.4-6.9C78 122.4 81 120.7 84.1 119.1z"/><path fill="#BED630" d="M99.4 119.1c0 0 17.9 20.2 24.5 23.5 2.8 3.1 5.7 6.1 8.5 9.2 0 0 5.3-5.2 1.3-9.8 -5-3.6-10-7.3-14.9-10.9 -3.4-2.3-6.9-4.6-10.3-7C105.5 122.4 102.5 120.8 99.4 119.1z"/><path fill="#FFFFFF" d="M48.1 125.6c-0.3 2.3-2.3 5.8-9 7 0 0 2.4-8.8 6.3-12.8 3.3-1.5 6.2-2.2 9.4-1C53.5 121.7 49.4 122.7 48.1 125.6z"/><path fill="#FFFFFF" d="M135.4 125.7c0.3 2.4 2.3 5.8 9 7.1 0 0-2.4-8.8-6.3-12.8 -3.3-1.5-6.2-2.2-9.4-1C130 121.8 134.1 122.9 135.4 125.7z"/><path fill="#FFFFFF" d="M60.5 114.9c0-0.8 5.2-4.3 11.1-8.2 5.2-3.5 10.7-6.2 12.8-4.8 4.6 3-2.1 7.5-2.1 7.5l-7.2 2.8L60.5 114.9z"/><path fill="#FFFFFF" d="M123.1 115c0-0.8-5.2-4.3-11-8.2 -5.2-3.5-10.7-6.2-12.8-4.8 -4.6 3 2.1 7.5 2.1 7.5l7.2 2.9L123.1 115z"/><path fill="#FFFFFF" d="M50.6 114.3c2.2-0.4 3.8-0.5 6-0.9 2.8-2.6 5.9-3.8 8.7-6.5 -1.1-2.7-3.3-3.6-6.6-2.6C53.6 107.6 52.1 110 50.6 114.3z"/><path fill="#FFFFFF" d="M132.9 114.5c-2.2-0.4-3.8-0.5-6-0.9 -2.8-2.6-5.9-3.9-8.7-6.5 1.1-2.7 3.3-3.6 6.6-2.6C130 107.7 131.5 110.1 132.9 114.5z"/><path fill="#FFFFFF" d="M62.7 100.5c2.2 1.8 4.7 3.2 8.5 1.3 4.2-0.9 4.1-2.5 8.3-3.4 -1.7-1.3 2.9-2.2 1.1-3.5C73 95.5 66.9 98.3 62.7 100.5z"/><path fill="#FFFFFF" d="M120.9 100.6c-2.2 1.8-4.7 3.2-8.5 1.3 -4.2-0.9-4.1-2.6-8.3-3.4 1.8-1.3-2.9-2.2-1.1-3.5C110.6 95.6 116.7 98.3 120.9 100.6z"/><path fill="#FF5E79" d="M80.4 82.9c0 0-16.3-12.5-29.4-24.6C41.3 49.2 24.9 43.9 14.3 44.6c-7.9 0.6-9.6 4.2-8.5 9.7 0.5 2.6 1.8 6.1 7.4 10.6 5.7 4.6 3.8 3 9.5 1 4.1-1.4 11.3-1.9 22 3.9 0 0 25.7 15.2 30.9 15.2 5.2 0 8.5 0.9 8.5 0.9L80.4 82.9z"/><path fill="#FF5E79" d="M103.2 82.9c0 0 16.4-12.4 29.4-24.5 9.8-9.1 26.2-14.4 36.8-13.5 7.9 0.6 9.6 4.2 8.5 9.8 -0.5 2.6-1.9 6.1-7.4 10.5 -5.7 4.6-3.8 3-9.5 1 -4.1-1.5-11.3-2-22 3.8 0 0-25.8 15.1-30.9 15.1 -5.2 0-8.5 0.9-8.5 0.9L103.2 82.9z"/><path fill="#95AF2E" d="M47.1 77.1c0 0-17.2-11.2-24.8-5.8 0 0-6.6 8 8.9 16.4 8 4.3 9.1 2.4 18 0.9 6.1-1 13.7-1.6 20.1 0.1 0 0 13.3 3.4-1.8-3.6L47.1 77.1z"/><path fill="#95AF2E" d="M136.6 77.2c0 0 17.3-11.2 24.8-5.7 0 0 6.6 8-8.9 16.3 -8 4.3-9.1 2.4-18 0.8 -6.1-1-13.7-1.7-20.1 0 0 0-13.3 3.3 1.8-3.6L136.6 77.2z"/><path fill="#95AF2E" d="M50.5 91.7c0 0-10 0.3-8.3 2.6 0 0 3.2 10 10.6 7.1 0 0 12.4-7 15.9-7.3l6.2-0.6c0 0-0.6-2.1-2.6-2.1 -2.1 0-10.6 0-10.6 0L50.5 91.7z"/><path fill="#95AF2E" d="M133.1 91.8c0 0 10 0.3 8.2 2.7 0 0-3.3 10-10.6 7.1 0 0-12.4-7.1-15.9-7.4l-6.2-0.6c0 0 0.6-2.1 2.7-2.1 2.1 0 10.6 0 10.6 0L133.1 91.8z"/><path fill="#FFFFFF" d="M14.7 70.2c-1.8-1.5-2.7-2.7-4.8-3.6 -0.4-0.3-3 2.3-1.2 4.3 0.5 1.3 2 6.8 8 11.1 3.1 1.9 3-3.1 0.8-5.8 -1.3-2.4 0.7-3.9-0.4-4.5C16.2 71.4 15.6 70.6 14.7 70.2z"/><path fill="#FFFFFF" d="M169 70.5c1.8-1.5 2.7-2.7 4.9-3.6 0.4-0.2 3 2.3 1.2 4.3 -0.5 1.3-2 6.8-8.1 11.1 -3.1 1.9-3-3.1-0.8-5.8 1.3-2.4-0.7-3.9 0.4-4.5C167.5 71.6 168 70.8 169 70.5z"/><path fill="#FFFFFF" d="M26.6 89.4c0-0.4 6.4 2.3 9.9 4.5 1.3 0 7.1 6.4 5.4 6.4 -0.7 0-4 0.9-9-3.9 -1.6-0.4-3.3-1.5-4.9-3.5C27.5 91.7 27.1 90.6 26.6 89.4z"/><path fill="#FFFFFF" d="M157 89.6c0-0.4-6.4 2.3-9.9 4.5 -1.3 0-7.1 6.4-5.4 6.4 0.7 0 4 0.9 9.1-3.9 1.6-0.4 3.3-1.4 4.9-3.4C156.1 91.9 156.5 90.8 157 89.6z"/><path fill="#FFFFFF" d="M20.6 84.3c0 0-4.2-0.1-0.7 2.5 3.5 2.7 5.5 1.8 4.8 0.4C24 85.9 20.5 84.2 20.6 84.3z"/><path fill="#FFFFFF" d="M163 84.6c0 0 4.2-0.1 0.7 2.5 -3.5 2.7-5.5 1.8-4.8 0.4C159.6 86.1 163.1 84.4 163 84.6z"/><path fill="#FFFFFF" d="M4.1 64.8c-1.3-1.8-2.4-3.6-2.1-5.4 2.1-1.9 3.6-1.3 4.5 1.8 0.9 1.6 0.9 3.2 0 4.8C5.8 66.5 5 66.1 4.1 64.8z"/><path fill="#FFFFFF" d="M179.6 65.1c1.3-1.8 2.4-3.6 2.1-5.4 -2.1-1.9-3.6-1.3-4.5 1.8 -0.9 1.6-0.9 3.2 0 4.8C177.9 66.8 178.6 66.4 179.6 65.1z"/><path fill="#FFFFFF" d="M0.5 42.7c-1.6 0.5-2.2 3-1.8 4 0.2 1 2.8 4.4 2.8 4.4 0.7-1.6 1.5-3 1-5.8C2.6 44.2 2.1 43.3 0.5 42.7z"/><path fill="#FFFFFF" d="M183.2 43c1.6 0.5 2.2 3 1.8 4 -0.2 1-2.8 4.4-2.8 4.4 -0.6-1.6-1.5-3-1-5.8C181.2 44.5 181.7 43.6 183.2 43z"/><path fill="#BED630" d="M80.8 114.3c-4.9-0.4-18.4 3.6-23.4 6.8 -5 3.2-9.1 11-5 11.8 4.1 0.8 11.8-5.2 16-8.4 4.2-3.1 9.5-5.2 9.5-5.2 2.2-1 3.6-0.2 6.6-2.9C87.4 113.8 83.5 111.1 80.8 114.3z"/><path fill="#BED630" d="M102.7 114.4c4.9-0.4 18.4 3.7 23.4 6.9 5 3.2 9 11.1 5 11.8 -4.1 0.8-11.8-5.3-16-8.4 -4.2-3.2-9.5-5.3-9.5-5.3 -2.2-1-3.6-0.2-6.6-2.9C96.1 113.8 100.1 111.2 102.7 114.4z"/><path fill="#FFFFFF" d="M83.9 89.5c-1.6-1.2-1.8-1.3-4.3-0.3 -2.5 1-3.5 3.2 1 3.2 4.5 0 4.7 0.5 4.3-1.2C84.5 89.5 83.9 89.5 83.9 89.5z"/><path fill="#FFFFFF" d="M99.7 89.5c1.6-1.2 1.8-1.3 4.3-0.3 2.5 1 3.5 3.2-1 3.2 -4.5 0-4.7 0.5-4.3-1.2C99.1 89.5 99.7 89.5 99.7 89.5z"/><path fill="#FFFFFF" d="M49.3 134.1c-1-0.5-7.8 0.3-7.6 3.6 0.2 3.3-1.1 4.3 0.7 4.3 0.7 0 2 0.6 2.8 0.2 1.4-0.6 2.2-2.5 2.9-3.5 1-1.5-1.2-1.6-1-1.9C47.2 136.6 48.9 134.7 49.3 134.1z"/><path fill="#FFFFFF" d="M134.2 134.2c1-0.5 7.8 0.4 7.6 3.6 -0.2 3.3 1.1 4.3-0.7 4.3 -0.7 0-2 0.6-2.8 0.2 -1.4-0.6-2.2-2.5-2.9-3.5 -1-1.6 1.2-1.6 1-1.9C136.2 136.7 134.6 134.9 134.2 134.2z"/><path fill="#FFFFFF" d="M46 148.2c-0.5-1.4-2.9-3.1-3.1-2.2 -0.2 0.9-1.2 3.3 1.2 4.5 2.4 1.2 2.4 4.3 3.3 2.4C49 151 46.6 148.2 46 148.2z"/><path fill="#FFFFFF" d="M137.4 148.4c0.5-1.4 2.9-3.1 3.1-2.2 0.2 0.9 1.2 3.3-1.2 4.5 -2.4 1.2-2.4 4.3-3.3 2.4C134.4 151.1 136.8 148.4 137.4 148.4z"/></svg>