<?xml version="1.0" encoding="utf-8"?>
<!-- Generator: Adobe Illustrator 13.0.0, SVG Export Plug-In . SVG Version: 6.00 Build 14948)  -->
<!DOCTYPE svg PUBLIC "-//W3C//DTD SVG 1.1//EN" "http://www.w3.org/Graphics/SVG/1.1/DTD/svg11.dtd">
<svg version="1.1" id="Layer_1" xmlns="http://www.w3.org/2000/svg" xmlns:xlink="http://www.w3.org/1999/xlink" x="0px" y="0px"
	 width="198.516px" height="138.797px" viewBox="-7.38 37.902 198.516 138.797"
	 enable-background="new -7.38 37.902 198.516 138.797" xml:space="preserve">
<g>
	<path fill="#83205D" d="M95.763,143.652c0.756,4.028,0.008,11.463-2.572,14.838l-0.006,4.019c-0.051,0.037-0.108,0.063-0.164,0.084
		c-1.08,0.005-0.824-1.859-1.329-2.651c-0.519,0.794-0.273,2.659-1.344,2.651c-0.062-0.021-0.116-0.05-0.174-0.089l0.011-4.016
		c-2.565-3.392-3.287-10.828-2.521-14.855c1.083-5.538,0.024-12.616,0.024-12.616s-6.052,12.187-11.327,21.133
		c-5.271,8.959-15.352,14.275-26.878,10.509c-2.402-4.361-13.193-5.098-15.543,3.715c-0.53,1.991-3.253,7.503-4.217,8.56
		c-2.904,3.169-3.05,0.644-4.073-0.18c-1.695-1.356,11.682-19.553,10.696-21.312c-1.353-2.404-2.203-5.253-3.063-8.71
		c-2.023-8.09-1.24-14.333,0.866-19.379c3.513-8.402,10.694-13.479,14.704-18.215c0,0-25.945-5.524-29.698-12.155
		C16.05,96.035-11.553,53.468-6.841,40.821c1.047-2.958,7.725-2.69,15.943-2.897c21.237-0.532,48.979,8.49,61.343,28.461
		C74.78,71.551,80.71,76.87,85.352,79.672c11.487,6.939-2.736-19.848-4.095-22.064c-3.073-5.012-7.427-8.696-12.141-11.493
		c-3.646-2.16-1.129-5.265,1.962-2.267c3.755,3.639,6.843,6.869,9.765,11.6c2.288,3.699,4.512,8.085,6.641,12.291
		c2.7,5.333,2.748,3.666,4.343,8.207c1.623-4.576,1.514-2.603,4.151-7.765c2.209-4.326,4.528-8.88,6.902-12.691
		c2.938-4.722,6.036-7.939,9.799-11.573c3.101-2.985,5.614,0.12,1.958,2.275c-4.724,2.783-9.093,6.452-12.184,11.452
		c-1.362,2.211-15.675,28.951-4.168,22.054c4.654-2.789,10.604-8.083,14.954-13.243c12.425-19.931,40.202-28.854,61.438-28.252
		c8.221,0.233,14.891-0.01,15.928,2.945c4.673,12.663-23.074,55.145-26.173,54.078c-3.773,6.612-29.741,12.058-29.741,12.058
		c3.994,4.744,11.166,9.845,14.649,18.26c2.089,5.044,2.847,11.296,0.796,19.38c-0.862,3.45-1.739,6.299-3.087,8.702
		c-0.992,1.756,12.322,19.995,10.618,21.346c-1.026,0.816-1.181,3.348-4.07,0.169c-0.962-1.062-3.662-6.585-4.186-8.575
		c-2.322-8.816-13.118-8.116-15.529-3.763c-11.542,3.72-21.614-1.634-26.85-10.601c-5.24-8.968-11.256-21.171-11.256-21.171
		S94.699,138.099,95.763,143.652z"/>
	<path fill="#FF5E79" d="M91.737,129.493c-0.475,0.283-0.972,0.092-1.483-0.773c-2.665-4.582-2.761-16.137-3.345-26.257
		c-0.229-3.951,0.876-7.125,0.945-9.552c0.086-2.941,1.801-10.751,3.958-10.47c2.16-0.272,3.852,7.54,3.927,10.481
		c0.061,2.429,1.156,5.614,0.912,9.555c-0.615,10.125-0.748,21.674-3.431,26.248C92.712,129.588,92.214,129.774,91.737,129.493z"/>
	<path fill="#FF5E79" d="M91.737,131.198c0.686-0.382,1.485,0.079,1.728,2.705c0,0,0.749,1.977-0.476,5.213
		c1.126,0.003,1.114,7.475,0.08,8.744c0.933,1.271,1.399,5.782-0.953,9.162c-0.05-0.023-0.221-0.252-0.421-0.662
		c-0.204,0.407-0.377,0.636-0.423,0.661c-2.342-3.392-1.863-7.899-0.919-9.164c-1.036-1.275-1.022-8.741,0.105-8.745
		c-1.215-3.242-0.461-5.214-0.461-5.214C90.247,131.268,91.05,130.814,91.737,131.198z"/>
	<path fill="#BED630" d="M84.634,128.076c0,0-10.241,21.446-16.584,24.601c0,0-15.137,4.899-15.486,3.139
		c-0.346-1.755,1.945-1.243,8.635-6.162l21.508-24.593C84.803,123.447,85.521,123.94,84.634,128.076z"/>
	<path fill="#BED630" d="M98.843,128.1c0,0,10.172,21.48,16.501,24.658c0,0,15.119,4.95,15.47,3.192
		c0.358-1.761-1.932-1.257-8.607-6.199l-21.421-24.664C98.692,123.471,97.972,123.963,98.843,128.1z"/>
	<path fill="#BED630" d="M84.062,119.052c0,0-17.994,20.178-24.56,23.443c-2.851,3.06-5.691,6.112-8.543,9.165
		c0,0-5.235-5.254-1.292-9.839c4.995-3.616,9.982-7.243,14.973-10.86c3.461-2.308,6.913-4.619,10.368-6.925
		C78.026,122.372,81.042,120.719,84.062,119.052z"/>
	<path fill="#BED630" d="M99.448,119.083c0,0,17.927,20.227,24.478,23.518c2.84,3.066,5.674,6.13,8.517,9.194
		c0,0,5.254-5.236,1.317-9.834c-4.974-3.636-9.953-7.272-14.934-10.914c-3.445-2.314-6.887-4.634-10.342-6.957
		C105.473,122.421,102.458,120.751,99.448,119.083z"/>
	<path fill="#FFFFFF" d="M48.065,125.587c-0.341,2.346-2.283,5.754-9.02,7.024c0,0,2.385-8.83,6.324-12.762
		c3.282-1.496,6.164-2.151,9.443-0.981C53.492,121.71,49.388,122.743,48.065,125.587z"/>
	<path fill="#FFFFFF" d="M135.418,125.732c0.331,2.352,2.266,5.764,9,7.059c0,0-2.353-8.844-6.279-12.781
		c-3.28-1.511-6.16-2.179-9.443-1.021C130.006,121.833,134.109,122.889,135.418,125.732z"/>
	<path fill="#FFFFFF" d="M60.46,114.856c0.01-0.793,5.167-4.263,11.065-8.192c5.207-3.47,10.676-6.215,12.829-4.798
		c4.586,3.013-2.124,7.463-2.124,7.463l-7.189,2.845L60.46,114.856z"/>
	<path fill="#FFFFFF" d="M123.064,114.959c-0.006-0.796-5.151-4.277-11.038-8.227c-5.198-3.491-10.656-6.248-12.812-4.841
		c-4.598,2.999,2.094,7.472,2.094,7.472l7.186,2.865L123.064,114.959z"/>
	<path fill="#FFFFFF" d="M50.631,114.323c2.185-0.429,3.771-0.464,5.962-0.898c2.842-2.624,5.888-3.845,8.732-6.458
		c-1.114-2.74-3.298-3.618-6.551-2.633C53.58,107.594,52.074,109.994,50.631,114.323z"/>
	<path fill="#FFFFFF" d="M132.898,114.463c-2.187-0.438-3.775-0.484-5.961-0.921c-2.837-2.626-5.875-3.864-8.71-6.484
		c1.12-2.739,3.313-3.607,6.562-2.611C129.967,107.713,131.469,110.125,132.898,114.463z"/>
	<path fill="#FFFFFF" d="M62.713,100.515c2.236,1.844,4.672,3.223,8.525,1.326c4.154-0.865,4.117-2.536,8.271-3.406
		c-1.746-1.316,2.896-2.219,1.149-3.537C72.951,95.494,66.895,98.26,62.713,100.515z"/>
	<path fill="#FFFFFF" d="M120.856,100.614c-2.236,1.834-4.684,3.204-8.527,1.293c-4.152-0.877-4.107-2.553-8.263-3.434
		c1.754-1.309-2.889-2.228-1.14-3.537C110.639,95.556,116.68,98.344,120.856,100.614z"/>
	<path fill="#FF5E79" d="M80.406,82.907c0,0-16.346-12.457-29.357-24.601C41.283,49.2,24.85,43.851,14.332,44.648
		c-7.904,0.597-9.648,4.196-8.52,9.736c0.534,2.645,1.832,6.096,7.37,10.559c5.7,4.606,3.805,3.008,9.523,1
		c4.132-1.442,11.273-1.931,21.958,3.872c0,0,25.741,15.2,30.892,15.209c5.15,0.005,8.486,0.921,8.486,0.921L80.406,82.907z"/>
	<path fill="#FF5E79" d="M103.226,82.946c0,0,16.385-12.398,29.44-24.505c9.79-9.073,26.239-14.364,36.762-13.535
		c7.9,0.622,9.636,4.228,8.484,9.761c-0.545,2.641-1.858,6.091-7.402,10.54c-5.722,4.586-3.814,2.984-9.536,0.963
		c-4.119-1.451-11.264-1.961-21.964,3.804c0,0-25.786,15.109-30.943,15.104c-5.151-0.007-8.483,0.893-8.483,0.893L103.226,82.946z"
		/>
	<path fill="#95AF2E" d="M47.053,77.097c0,0-17.238-11.249-24.827-5.803c0,0-6.62,8.012,8.894,16.382
		c8.03,4.334,9.137,2.377,17.98,0.901c6.063-1.01,13.72-1.604,20.084,0.075c0,0,13.328,3.354-1.815-3.646L47.053,77.097z"/>
	<path fill="#95AF2E" d="M136.597,77.246c0,0,17.271-11.189,24.842-5.718c0,0,6.595,8.033-8.943,16.347
		c-8.047,4.306-9.146,2.355-17.986,0.843c-6.063-1.031-13.713-1.652-20.081,0.01c0,0-13.342,3.31,1.826-3.639L136.597,77.246z"/>
	<path fill="#95AF2E" d="M50.525,91.697c0,0-10.017,0.271-8.252,2.637c0,0,3.227,10.015,10.594,7.085c0,0,12.386-7.048,15.921-7.336
		l6.188-0.578c0,0-0.584-2.064-2.643-2.067c-2.07-0.004-10.609-0.019-10.609-0.019L50.525,91.697z"/>
	<path fill="#95AF2E" d="M133.075,91.831c0,0,10.02,0.309,8.243,2.665c0,0-3.26,10.009-10.615,7.052c0,0-12.363-7.087-15.895-7.383
		l-6.187-0.605c0,0,0.593-2.064,2.656-2.061c2.059,0.008,10.605,0.019,10.605,0.019L133.075,91.831z"/>
	<path fill="#FFFFFF" d="M14.71,70.218c-1.76-1.455-2.731-2.75-4.847-3.599c-0.433-0.252-3.016,2.295-1.17,4.317
		c0.541,1.281,2.01,6.761,8.021,11.146c3.131,1.937,2.966-3.069,0.784-5.805c-1.277-2.359,0.716-3.896-0.397-4.52
		C16.188,71.39,15.624,70.587,14.71,70.218z"/>
	<path fill="#FFFFFF" d="M168.963,70.473c1.755-1.457,2.733-2.736,4.853-3.578c0.434-0.25,3.015,2.299,1.161,4.318
		c-0.55,1.274-2.037,6.752-8.059,11.125c-3.14,1.917-2.963-3.083-0.767-5.812c1.286-2.354-0.7-3.9,0.42-4.521
		C167.479,71.635,168.042,70.84,168.963,70.473z"/>
	<path fill="#FFFFFF" d="M26.601,89.381c-0.001-0.363,6.417,2.326,9.94,4.489c1.27,0,7.098,6.398,5.402,6.392
		c-0.702,0.004-3.983,0.902-9.05-3.9c-1.554-0.377-3.344-1.454-4.895-3.454C27.535,91.737,27.067,90.562,26.601,89.381z"/>
	<path fill="#FFFFFF" d="M157.008,89.6c0.002-0.369-6.425,2.302-9.95,4.45c-1.273,0.002-7.128,6.376-5.434,6.381
		c0.704,0,3.991,0.913,9.07-3.874c1.555-0.38,3.347-1.44,4.9-3.439C156.069,91.946,156.537,90.77,157.008,89.6z"/>
	<path fill="#FFFFFF" d="M20.646,84.333c0,0-4.236-0.146-0.714,2.539c3.522,2.686,5.496,1.841,4.794,0.431
		C24.026,85.891,20.499,84.191,20.646,84.333z"/>
	<path fill="#FFFFFF" d="M162.981,84.575c0,0,4.23-0.139,0.697,2.533c-3.526,2.674-5.493,1.83-4.786,0.417
		C159.6,86.117,163.125,84.43,162.981,84.575z"/>
	<path fill="#FFFFFF" d="M4.127,64.831c-1.296-1.806-2.389-3.599-2.084-5.394c2.066-1.897,3.564-1.297,4.485,1.806
		c0.907,1.594,0.902,3.188-0.016,4.785C5.833,66.536,5.036,66.134,4.127,64.831z"/>
	<path fill="#FFFFFF" d="M179.561,65.121c1.299-1.792,2.401-3.587,2.109-5.385c-2.067-1.904-3.563-1.31-4.493,1.786
		c-0.914,1.599-0.918,3.194-0.009,4.792C177.85,66.821,178.646,66.425,179.561,65.121z"/>
	<path fill="#FFFFFF" d="M0.526,42.708c-1.636,0.506-2.179,3.022-1.799,3.987c0.194,0.998,2.786,4.39,2.786,4.39
		c0.655-1.601,1.489-3.022,1.003-5.776C2.55,44.226,2.087,43.297,0.526,42.708z"/>
	<path fill="#FFFFFF" d="M183.236,43.014c1.635,0.506,2.17,3.028,1.788,3.996c-0.197,0.995-2.8,4.381-2.8,4.381
		c-0.648-1.606-1.479-3.034-0.989-5.785C181.206,44.523,181.678,43.599,183.236,43.014z"/>
	<path fill="#BED630" d="M80.795,114.335c-4.901-0.384-18.408,3.595-23.407,6.793c-4.998,3.192-9.069,11.023-5.013,11.823
		c4.053,0.793,11.839-5.245,16.046-8.385c4.212-3.15,9.477-5.243,9.477-5.243c2.184-0.96,3.64-0.226,6.574-2.882
		C87.406,113.781,83.465,111.147,80.795,114.335z"/>
	<path fill="#BED630" d="M102.733,114.368c4.899-0.37,18.393,3.66,23.382,6.873c4.99,3.216,9.034,11.054,4.977,11.838
		c-4.059,0.788-11.829-5.272-16.026-8.438c-4.2-3.164-9.455-5.275-9.455-5.275c-2.188-0.965-3.641-0.231-6.565-2.902
		C96.12,113.795,100.068,111.176,102.733,114.368z"/>
	<path fill="#FFFFFF" d="M83.858,89.453c-1.603-1.218-1.823-1.329-4.325-0.338c-2.496,0.996-3.492,3.153,0.998,3.165
		c4.486,0.003,4.651,0.505,4.322-1.159C84.519,89.462,83.858,89.453,83.858,89.453z"/>
	<path fill="#FFFFFF" d="M99.749,89.485c1.613-1.221,1.835-1.328,4.325-0.324c2.49,0.998,3.484,3.159-1.004,3.154
		c-4.489-0.007-4.655,0.489-4.32-1.17C99.086,89.482,99.749,89.485,99.749,89.485z"/>
	<path fill="#FFFFFF" d="M49.27,134.106c-1.034-0.517-7.756,0.334-7.595,3.615c0.168,3.268-1.096,4.306,0.685,4.311
		c0.664,0.001,2.007,0.62,2.826,0.24c1.367-0.646,2.22-2.541,2.866-3.509c1.041-1.547-1.226-1.58-1.025-1.899
		C47.229,136.55,48.867,134.746,49.27,134.106z"/>
	<path fill="#FFFFFF" d="M134.191,134.249c1.035-0.513,7.758,0.362,7.576,3.637c-0.177,3.277,1.091,4.313-0.689,4.307
		c-0.674,0-2.011,0.619-2.83,0.235c-1.37-0.646-2.213-2.547-2.857-3.518c-1.035-1.553,1.235-1.577,1.038-1.894
		C136.223,136.7,134.591,134.884,134.191,134.249z"/>
	<path fill="#FFFFFF" d="M45.97,148.241c-0.517-1.377-2.923-3.108-3.099-2.243c-0.173,0.862-1.213,3.27,1.2,4.485
		c2.411,1.211,2.405,4.313,3.271,2.415C48.982,151.004,46.576,148.242,45.97,148.241z"/>
	<path fill="#FFFFFF" d="M137.445,148.399c0.52-1.384,2.931-3.103,3.104-2.239c0.175,0.861,1.21,3.28-1.215,4.481
		c-2.413,1.197-2.423,4.306-3.28,2.407C134.42,151.146,136.84,148.392,137.445,148.399z"/>
</g>
</svg>
