<?xml version="1.0" encoding="utf-8"?>
<!-- Generator: Adobe Illustrator 13.0.0, SVG Export Plug-In . SVG Version: 6.00 Build 14948)  -->
<!DOCTYPE svg PUBLIC "-//W3C//DTD SVG 1.1//EN" "http://www.w3.org/Graphics/SVG/1.1/DTD/svg11.dtd">
<svg version="1.1" id="Layer_1" xmlns="http://www.w3.org/2000/svg" xmlns:xlink="http://www.w3.org/1999/xlink" x="0px" y="0px"
	 width="191.805px" height="340.982px" viewBox="0 0 191.805 340.982" enable-background="new 0 0 191.805 340.982"
	 xml:space="preserve">
<g>
	<g>
		<path fill="#95AF2E" d="M106.625,160.816c0,0,3.102,3.129,6.579-0.296c0,0,3.057-2.898,2.729-7.296
			c-0.909,0.583-2.831,1.063-4.272,1.106C110.208,154.404,105.47,155.299,106.625,160.816z"/>
		<path fill="#95AF2E" d="M106.983,160.731c0,0-4.505,1.73-6.831,1.594"/>
	</g>
	<path fill="#95AF2E" d="M113.572,166.751c0,0,2.611,4.812,7.95,1.941c0,0,4.655-2.393,5.799-7.75
		c-1.289,0.377-3.747,0.279-5.479-0.168C120.081,160.351,114.118,159.766,113.572,166.751z"/>
	<path fill="#95AF2E" d="M114.03,166.771c0,0-8.074,0.334-11.791-0.716"/>
	<path fill="#95AF2E" d="M107.461,189.173c0,0,5.016,2.19,2.61,7.756c0,0-1.984,4.843-7.227,6.437
		c0.265-1.313-0.04-3.756-0.635-5.443C101.639,196.206,100.549,190.311,107.461,189.173z"/>
	<path fill="#95AF2E" d="M107.519,189.628c0,0-0.922-9.223-2.576-13.458"/>
	<path fill="#95AF2E" d="M130.131,253.721c0,0-0.696,3.467,3.139,4.252c0,0,3.303,0.736,6.082-1.452
		c-0.795-0.345-1.974-1.409-2.648-2.347C136.005,253.234,133.285,250.48,130.131,253.721z"/>
	<path fill="#95AF2E" d="M130.349,253.919c0,0-3.169-2.224-4.118-3.838"/>
	<path fill="#95AF2E" d="M129.285,261.002c0,0-2.037,3.892,2.266,6.163c0,0,3.675,2.032,7.756,0.397
		c-0.827-0.692-1.864-2.374-2.341-3.727C136.461,262.475,134.184,258.237,129.285,261.002z"/>
	<path fill="#95AF2E" d="M129.476,261.316c0,0-3.892-5.329-4.88-8.324"/>
	<path fill="#95AF2E" d="M79.798,164.502c0,0,6.579,8.037-2.296,15.353c0,0-7.544,6.461-17.769,4.626
		c1.582-1.993,3.178-6.386,3.634-9.748C63.887,171.343,67.14,160.448,79.798,164.502z"/>
	<path fill="#95AF2E" d="M79.502,165.322c0,0,6.697-14.38,6.87-22.231"/>
	<g>
		<path fill="#95AF2E" d="M77.232,149.942c0,0,2.195,7.393-5.981,9.852c0,0-7.021,2.255-13.496-1.939
			c1.658-0.908,4.014-3.457,5.29-5.628C64.373,150.054,69.733,143.53,77.232,149.942z"/>
		<path fill="#95AF2E" d="M76.796,150.42c0,0,6.443-5.461,8.185-9.148"/>
	</g>
	<path fill="#95AF2E" d="M134.383,197.788c0,0,1.68,4.572,6.75,2.728c0,0,4.403-1.509,6.098-6.079
		c-1.182,0.166-3.336-0.232-4.802-0.851C140.936,192.987,135.756,191.709,134.383,197.788z"/>
	<path fill="#95AF2E" d="M134.78,197.864c0,0-8.386-1.019-12.107-2.551"/>
	<path fill="#95AF2E" d="M129.101,193.65c0,0,1.675,2.874,4.862,1.028c0,0,2.781-1.544,3.376-4.817
		c-0.777,0.253-2.272,0.244-3.332,0.002C132.93,189.64,129.296,189.399,129.101,193.65z"/>
	<path fill="#95AF2E" d="M129.378,193.655c0,0-5.15,0.593-7.492,0.13"/>
	<g>
		<path fill="#95AF2E" d="M130.904,200.381c0,0,3.077-0.421,3.552,2.984c0,0,0.464,2.932-1.601,5.249
			c-0.263-0.717-1.129-1.808-1.914-2.45C130.159,205.501,127.893,202.969,130.904,200.381z"/>
		<path fill="#95AF2E" d="M131.067,200.582c0,0-1.774-2.899-3.136-3.817"/>
	</g>
	<g>
		<path fill="#95AF2E" d="M137.443,228.898c0,0,3.074-0.421,3.551,2.985c0,0,0.466,2.932-1.602,5.248
			c-0.26-0.715-1.128-1.808-1.912-2.45C136.698,234.02,134.433,231.486,137.443,228.898z"/>
		<path fill="#95AF2E" d="M137.605,229.101c0,0-1.774-2.9-3.134-3.818"/>
	</g>
	<path fill="#95AF2E" d="M134.173,219.112c0,0,0.456,2.582,3.318,2.088c0,0,2.479-0.384,3.811-2.639
		c-0.642-0.025-1.745-0.442-2.465-0.91C138.104,217.195,135.48,216.021,134.173,219.112z"/>
	<path fill="#95AF2E" d="M134.378,219.191c0,0-4.235-0.936-5.875-2.179"/>
	<g>
		<path fill="#95AF2E" d="M132.163,243.342c0,0,0.454,2.58,3.317,2.089c0,0,2.479-0.384,3.81-2.644
			c-0.641-0.023-1.745-0.44-2.463-0.906C136.093,241.42,133.472,240.249,132.163,243.342z"/>
		<path fill="#95AF2E" d="M132.369,243.419c0,0-2.79-0.681-3.879-1.539"/>
	</g>
	<path fill="#95AF2E" d="M106.967,235.3c-0.481-0.628-0.359-1.529,0.269-2.011c0.628-0.48,1.53-0.362,2.013,0.266
		c0.481,0.633,0.36,1.532-0.269,2.016C108.35,236.051,107.449,235.931,106.967,235.3z"/>
	<path fill="#95AF2E" d="M109.859,264.421c-0.48-0.628-0.361-1.528,0.267-2.009s1.531-0.362,2.013,0.266
		c0.481,0.631,0.362,1.532-0.268,2.016C111.243,265.174,110.342,265.053,109.859,264.421z"/>
	<circle fill="#95AF2E" cx="113.179" cy="243.006" r="1.436"/>
	<circle fill="#95AF2E" cx="112.442" cy="224.519" r="1.435"/>
	<circle fill="#95AF2E" cx="105.683" cy="218.052" r="0.758"/>
	<circle fill="#95AF2E" cx="107.498" cy="224.33" r="0.759"/>
	<circle fill="#95AF2E" cx="106.711" cy="244.542" r="0.758"/>
	<circle fill="#95AF2E" cx="117.415" cy="253.267" r="0.758"/>
	<circle fill="#95AF2E" cx="115.542" cy="250.489" r="0.76"/>
	<circle fill="#95AF2E" cx="113.345" cy="193.22" r="1.436"/>
	<path fill="#95AF2E" d="M100.396,218.824c-0.481-0.628-0.36-1.528,0.268-2.008c0.631-0.482,1.531-0.365,2.013,0.263
		c0.481,0.632,0.363,1.533-0.268,2.016C101.778,219.576,100.878,219.456,100.396,218.824z"/>
	<path fill="#95AF2E" d="M115.099,223.216c-0.484-0.63-0.363-1.529,0.268-2.013c0.628-0.481,1.528-0.362,2.01,0.268
		c0.484,0.63,0.363,1.531-0.265,2.013C116.48,223.965,115.58,223.846,115.099,223.216z"/>
	<circle fill="#95AF2E" cx="97.113" cy="192.63" r="1.436"/>
	<circle fill="#95AF2E" cx="113.345" cy="193.22" r="1.436"/>
	<circle fill="#95AF2E" cx="90.647" cy="194.167" r="0.758"/>
	<path fill="#95AF2E" d="M100.748,203.354c-0.254-0.333-0.19-0.81,0.143-1.064c0.332-0.254,0.81-0.19,1.062,0.141
		c0.257,0.333,0.192,0.81-0.14,1.063C101.48,203.748,101.003,203.686,100.748,203.354z"/>
	<circle fill="#95AF2E" cx="93.051" cy="216.639" r="0.759"/>
	<circle fill="#95AF2E" cx="108.777" cy="209.038" r="1.436"/>
	<circle fill="#95AF2E" cx="51.586" cy="270.052" r="0.758"/>
	<path fill="#95AF2E" d="M52.799,276.79c-0.255-0.332-0.19-0.806,0.142-1.061s0.808-0.193,1.063,0.139
		c0.255,0.335,0.19,0.812-0.142,1.065S53.054,277.125,52.799,276.79z"/>
	<path fill="#95AF2E" d="M53.537,261.908c-0.479-0.628-0.36-1.527,0.271-2.011c0.628-0.481,1.53-0.362,2.011,0.268
		c0.483,0.631,0.361,1.532-0.267,2.011C54.922,262.658,54.021,262.541,53.537,261.908z"/>
	<path fill="#95AF2E" d="M169.365,207.032c-0.255-0.333-0.19-0.811,0.142-1.064c0.335-0.255,0.81-0.192,1.065,0.142
		c0.254,0.332,0.189,0.809-0.145,1.063C170.098,207.427,169.62,207.364,169.365,207.032z"/>
	<path fill="#95AF2E" d="M171.183,213.311c-0.258-0.334-0.193-0.808,0.139-1.063c0.332-0.257,0.809-0.193,1.063,0.141
		c0.254,0.332,0.192,0.809-0.142,1.063C171.911,213.706,171.435,213.643,171.183,213.311z"/>
	<circle fill="#95AF2E" cx="165.821" cy="206.473" r="1.436"/>
	<circle fill="#95AF2E" cx="173.062" cy="197.556" r="1.437"/>
	<circle fill="#95AF2E" cx="126.786" cy="179.821" r="0.759"/>
	<circle fill="#95AF2E" cx="128.601" cy="186.099" r="0.759"/>
	<path fill="#95AF2E" d="M121.497,180.595c-0.479-0.628-0.359-1.529,0.271-2.009c0.63-0.482,1.531-0.364,2.011,0.264
		c0.483,0.631,0.362,1.532-0.269,2.014C122.882,181.345,121.98,181.226,121.497,180.595z"/>
	<circle fill="#95AF2E" cx="129.879" cy="170.806" r="1.436"/>
	<circle fill="#95AF2E" cx="156.21" cy="223.9" r="1.436"/>
	<path fill="#95AF2E" d="M148.85,217.894c-0.255-0.334-0.188-0.811,0.143-1.065c0.333-0.254,0.81-0.19,1.063,0.142
		c0.257,0.332,0.19,0.809-0.143,1.063C149.583,218.285,149.104,218.225,148.85,217.894z"/>
	<circle fill="#95AF2E" cx="151.267" cy="223.709" r="0.758"/>
	<circle fill="#95AF2E" cx="145.304" cy="217.334" r="1.437"/>
	<path fill="#95AF2E" d="M158.865,222.598c-0.481-0.633-0.361-1.532,0.269-2.016c0.629-0.48,1.529-0.36,2.011,0.271
		c0.483,0.63,0.362,1.529-0.267,2.011C160.249,223.344,159.348,223.226,158.865,222.598z"/>
	<circle fill="#95AF2E" cx="152.545" cy="208.417" r="1.436"/>
	<circle fill="#95AF2E" cx="81.214" cy="242.952" r="1.436"/>
	<circle fill="#95AF2E" cx="85.549" cy="233.043" r="1.436"/>
	<circle fill="#95AF2E" cx="78.791" cy="226.576" r="0.761"/>
	<circle fill="#95AF2E" cx="80.605" cy="232.854" r="0.76"/>
	<circle fill="#95AF2E" cx="89.343" cy="230.868" r="1.435"/>
	<circle fill="#95AF2E" cx="81.884" cy="217.561" r="1.436"/>
	<path fill="#95AF2E" d="M150.654,297.453c-0.479-0.631-0.361-1.532,0.267-2.014c0.634-0.482,1.533-0.362,2.016,0.267
		c0.481,0.63,0.363,1.53-0.268,2.013S151.136,298.082,150.654,297.453z"/>
	<circle fill="#95AF2E" cx="156.13" cy="286.671" r="1.435"/>
	<path fill="#95AF2E" d="M148.769,280.662c-0.254-0.332-0.188-0.81,0.143-1.063c0.333-0.255,0.81-0.192,1.063,0.14
		c0.257,0.335,0.19,0.809-0.142,1.063C149.502,281.058,149.024,280.995,148.769,280.662z"/>
	<circle fill="#95AF2E" cx="151.186" cy="286.48" r="0.758"/>
	<circle fill="#95AF2E" cx="145.225" cy="280.103" r="1.436"/>
	<circle fill="#95AF2E" cx="159.926" cy="284.494" r="1.435"/>
	<path fill="#95AF2E" d="M151.325,272.06c-0.481-0.63-0.36-1.529,0.271-2.013c0.628-0.479,1.53-0.362,2.01,0.266
		c0.484,0.632,0.36,1.533-0.268,2.015C152.707,272.809,151.807,272.689,151.325,272.06z"/>
	<circle fill="#95AF2E" cx="100.293" cy="207.722" r="0.758"/>
	<circle fill="#95AF2E" cx="99.151" cy="163.467" r="1.436"/>
	<path fill="#95AF2E" d="M86.2,189.072c-0.479-0.628-0.361-1.529,0.27-2.011c0.628-0.482,1.53-0.361,2.01,0.265
		c0.484,0.632,0.363,1.533-0.265,2.015C87.584,189.823,86.684,189.704,86.2,189.072z"/>
	<circle fill="#95AF2E" cx="102.041" cy="192.59" r="1.435"/>
	<circle fill="#95AF2E" cx="82.917" cy="162.877" r="1.436"/>
	<circle fill="#95AF2E" cx="99.151" cy="163.467" r="1.436"/>
	<circle fill="#95AF2E" cx="76.452" cy="164.414" r="0.759"/>
	<circle fill="#95AF2E" cx="87.155" cy="173.137" r="0.758"/>
	<circle fill="#95AF2E" cx="78.856" cy="186.886" r="0.759"/>
	<path fill="#95AF2E" d="M93.439,180.156c-0.479-0.629-0.36-1.529,0.271-2.012c0.628-0.481,1.528-0.36,2.01,0.267
		c0.482,0.63,0.363,1.531-0.265,2.013C94.824,180.904,93.924,180.786,93.439,180.156z"/>
	<path fill="#95AF2E" d="M85.491,178.43c-0.252-0.332-0.188-0.807,0.145-1.061c0.332-0.256,0.809-0.193,1.063,0.139
		c0.255,0.333,0.192,0.809-0.141,1.065C86.226,178.826,85.749,178.764,85.491,178.43z"/>
	<path fill="#95AF2E" d="M91.471,305.048c-0.254-0.329-0.191-0.806,0.14-1.058c0.334-0.258,0.812-0.193,1.064,0.139
		c0.255,0.334,0.19,0.81-0.142,1.064C92.201,305.447,91.726,305.383,91.471,305.048z"/>
	<path fill="#95AF2E" d="M98.711,296.135c-0.255-0.332-0.19-0.808,0.142-1.062c0.332-0.255,0.811-0.193,1.065,0.139
		c0.252,0.334,0.189,0.81-0.143,1.064C99.441,296.531,98.966,296.468,98.711,296.135z"/>
	<path fill="#95AF2E" d="M56.562,150.028c-0.482-0.629-0.364-1.529,0.27-2.012c0.626-0.48,1.527-0.362,2.01,0.267
		c0.479,0.629,0.36,1.531-0.267,2.011C57.941,150.778,57.042,150.658,56.562,150.028z"/>
	<path fill="#95AF2E" d="M59.453,179.152c-0.482-0.63-0.364-1.53,0.267-2.013c0.631-0.481,1.53-0.362,2.013,0.27
		c0.479,0.628,0.361,1.528-0.269,2.011C60.834,179.901,59.934,179.779,59.453,179.152z"/>
	<path fill="#95AF2E" d="M56.562,150.028c-0.482-0.629-0.364-1.529,0.27-2.012c0.626-0.48,1.527-0.362,2.01,0.267
		c0.479,0.629,0.36,1.531-0.267,2.011C57.941,150.778,57.042,150.658,56.562,150.028z"/>
	<circle fill="#95AF2E" cx="74.648" cy="151.005" r="1.435"/>
	<circle fill="#95AF2E" cx="63.545" cy="150.354" r="0.759"/>
	<path fill="#95AF2E" d="M97.406,154.627c-0.483-0.629-0.363-1.529,0.268-2.011c0.628-0.481,1.53-0.363,2.01,0.266
		c0.484,0.63,0.365,1.532-0.267,2.013C98.788,155.376,97.887,155.257,97.406,154.627z"/>
	<circle fill="#95AF2E" cx="90.061" cy="152.44" r="0.759"/>
	<circle fill="#95AF2E" cx="125.054" cy="236.276" r="1.436"/>
	<path fill="#95AF2E" d="M94.638,239.934c-0.799-1.043-0.6-2.539,0.444-3.339c1.045-0.801,2.543-0.603,3.343,0.442
		c0.801,1.048,0.598,2.54-0.446,3.341C96.934,241.179,95.439,240.98,94.638,239.934z"/>
	<circle fill="#95AF2E" cx="117.249" cy="207.738" r="2.384"/>
	<circle fill="#95AF2E" cx="135.265" cy="157.045" r="2.385"/>
	<circle fill="#95AF2E" cx="132.751" cy="274.057" r="2.384"/>
	<path fill="#95AF2E" d="M48.492,230.213c-0.798-1.045-0.6-2.542,0.444-3.341c1.046-0.8,2.542-0.604,3.345,0.443
		c0.798,1.045,0.598,2.539-0.448,3.341C50.788,231.457,49.293,231.258,48.492,230.213z"/>
	<path fill="#95AF2E" d="M170.434,4.443c-1.128-0.344-49.534,14.019-64.462,31.977c-7.889,9.119-25.917,28.989-26.401,57.389
		c0.679,22.824-0.665,39.296,17.81,63.667c18.476,24.37,29.816,41.331,31.674,53.963c1.857,12.634,6.806,38.432-27.597,80.787
		c-11.577,13.543-24.07,25.57-24.07,25.57s25.135-24.892,35.962-43.539c10.825-18.647,19.8-40.815,13.641-58.531
		c-1.31-5.898-6.483-17.907-12.473-26.172c-5.989-8.264-15.166-20.055-22.068-31.749c-6.898-11.695-20.219-43.6-14.802-64.047
		c1.147-6.09,3.599-32.743,22.923-52.65C111.555,29.313,125.45,13.645,167.03,0C168.544,1.973,170.434,4.443,170.434,4.443z"/>
	<path fill="#95AF2E" d="M99.635,167.794c-0.189,0.933-1.289,18.932-9.557,32.298c-8.795,14.223-21.991,25.867-30.645,32.819
		c-8.65,6.95-38.04,29.762-40.774,38.433c1.348-3.823,10.224-16.928,34.074-34.947c9.476-8.238,17.063-13.39,28.071-26.252
		c7.788-10.519,19.226-29.577,14.205-50.025C98.7,163.085,99.635,167.794,99.635,167.794z"/>
	<g>
		<g>
			<path fill="none" d="M49.927,286.21c0,0,4.267-22.99,15.228-36.802c10.963-13.813,21.498-27.969,23.787-31.851
				c2.288-3.884,18.558-30.307,9.049-55.408"/>
			<path fill="#95AF2E" d="M50.595,286.395c1.604-8.498,4.407-16.899,8.005-24.744c3.312-7.22,8.196-13.165,13.041-19.394
				c4.73-6.081,9.389-12.221,13.896-18.469c12.6-17.471,20.661-40.697,13.122-61.823c-0.298-0.836-1.638-0.476-1.336,0.368
				c8.082,22.649-1.998,45.782-15.354,64.017c-8.886,12.131-19.593,23.244-25.699,37.127c-3.148,7.157-5.558,14.855-7.01,22.548
				C49.094,286.899,50.43,287.271,50.595,286.395L50.595,286.395z"/>
		</g>
	</g>
	<g>
		<g>
			<path fill="none" d="M91.859,191.532c0,0-8.381,8.639-14.178,10.85c-6.772,2.577-12.965-1.486-10.994-9.041
				c1.382-4.648,7.914-11.255,14.056-5.692c1.831,1.911,2.934,4.246,0.329,6.213c-2.386,1.799-5.055,1.363-6.087-0.39"/>
			<path fill="#95AF2E" d="M91.369,191.042c-3.632,3.715-7.628,7.239-12.134,9.847c-4.965,2.875-11.816,1.784-12.226-4.885
				c-0.174-2.836,1.553-5.303,3.367-7.259c1.144-1.161,2.501-1.953,4.074-2.375c6.135-0.336,6.477,1.868,1.025,6.611
				c-0.601-0.665-1.578,0.318-0.98,0.98c3.853,4.266,11.716-0.961,7.579-5.816c-5.621-6.598-13.559-1.822-16.055,5.011
				c-2.214,6.063,3.233,11.817,9.349,10.556c6.668-1.376,12.361-6.964,16.981-11.689C92.975,191.383,91.995,190.402,91.369,191.042
				L91.369,191.042z"/>
		</g>
	</g>
	<g>
		<g>
			<path fill="none" d="M121.95,260.24c0,0-0.744,4.893,0.88,10.589c1.619,5.693,3.364,13.901-0.099,17.474
				c-2.377,2.592-8.457,2.36-7.309-4.872c0.6-3.629,2.661-6.663,5.984-4.179c2.185,1.727,1.047,3.283-0.438,4.106"/>
			<path fill="#95AF2E" d="M121.257,260.24c-0.675,5.092,0.763,9.815,1.911,14.709c0.939,4.009,1.871,9.352-0.927,12.863
				c-0.922,1.157-2.602,1.429-3.962,1.182c-1.755-0.95-2.521-2.354-2.3-4.209c-0.34-3.157,1.207-3.832,4.641-2.025
				c-0.727,0.509-0.035,1.711,0.699,1.197c3.795-2.655,0.784-6.874-3.292-6.1c-3.968,0.753-4.695,9.76-1.563,11.758
				c4.231,2.698,7.868-1.133,8.752-5.159c1.773-8.076-3.658-16.037-2.573-24.216C122.761,259.356,121.373,259.367,121.257,260.24
				L121.257,260.24z"/>
		</g>
	</g>
	<g>
		<path fill="#83205D" d="M139.923,270.85c0.56-0.739,1.291-1.344,2.118-1.873c0.006,0.004,0.006,0.004,0.006,0.004
			c0.011-0.004,0.017-0.01,0.025-0.015c0,0-0.003,0-0.004-0.003c-0.008,0.005-0.017,0.008-0.027,0.014
			c-0.349-0.289-0.677-0.597-0.973-0.92c-0.342-0.37-0.641-0.757-0.87-1.158c-1.172-2.043-0.474-4.669,1.49-5.835
			c0.242-0.123,0.494-0.241,0.747-0.346c0.18-0.077,0.354-0.15,0.545-0.215c0.271-0.096,0.55-0.178,0.837-0.245
			c0.064-0.021,0.129-0.029,0.19-0.046c0.134-0.031,0.269-0.062,0.406-0.088c-0.486-0.872-0.813-1.763-0.934-2.645
			c-0.314-2.32,1.313-4.459,3.632-4.778c0.91-0.163,1.863-0.091,2.827,0.143c-0.02-0.223-0.043-0.443-0.049-0.66
			c-0.012-0.28-0.008-0.548,0.009-0.824c0.008-0.164,0.028-0.32,0.048-0.48c0.037-0.288,0.081-0.583,0.146-0.867
			c0.628-2.244,2.937-3.578,5.213-2.996c0.837,0.211,1.7,0.654,2.5,1.189c0.283-0.914,0.659-1.753,1.202-2.466
			c1.416-1.866,4.106-2.188,5.972-0.773c0.295,0.228,0.566,0.483,0.822,0.757c0.166,0.171,0.319,0.358,0.471,0.548
			c0.094,0.121,0.187,0.242,0.275,0.369c0.098,0.132,0.21,0.253,0.303,0.396c0.421-0.494,0.872-0.929,1.356-1.309
			c0.244-0.194,0.491-0.374,0.757-0.529c2.043-1.18,4.621-0.511,5.832,1.485c0.132,0.255,0.251,0.515,0.359,0.778
			c0.068,0.161,0.135,0.326,0.191,0.493c0.085,0.238,0.154,0.481,0.214,0.731c0.057,0.224,0.101,0.452,0.139,0.687
			c0.869-0.483,1.758-0.808,2.683-0.896c2.321-0.315,4.46,1.308,4.775,3.632c0.122,0.874,0.048,1.823-0.185,2.79
			c0.979-0.093,1.931-0.078,2.832,0.15c2.247,0.632,3.626,2.973,3.037,5.257c-0.233,0.881-0.67,1.709-1.226,2.502
			c0.971,0.314,1.794,0.726,2.518,1.275c1.863,1.418,2.221,4.058,0.806,5.927c-0.518,0.679-1.205,1.305-2.034,1.824
			c0.513,0.438,0.969,0.911,1.354,1.42c0.176,0.223,0.341,0.453,0.483,0.698c1.177,2.039,0.51,4.615-1.533,5.792
			c-0.791,0.476-1.684,0.803-2.646,0.932c0.45,0.916,0.766,1.731,0.901,2.693c0.313,2.32-1.313,4.456-3.635,4.775
			c-0.927,0.083-1.829,0.045-2.8-0.188c0.098,1.004,0.021,1.953-0.222,2.843c-0.554,2.232-2.891,3.618-5.172,3.028
			c-0.396-0.104-0.773-0.255-1.148-0.431c-0.048-0.025-0.099-0.046-0.15-0.069c-0.409-0.203-0.813-0.453-1.204-0.723
			c-0.312,0.968-0.729,1.786-1.277,2.515c-1.415,1.865-4.063,2.229-5.925,0.804c-0.724-0.544-1.338-1.231-1.903-2.079
			c-0.616,0.747-1.299,1.39-2.084,1.849c-2.041,1.174-4.663,0.473-5.84-1.567c-0.156-0.275-0.292-0.573-0.419-0.885
			c-0.036-0.088-0.073-0.169-0.105-0.258c-0.116-0.321-0.217-0.659-0.299-1.006c-0.003-0.021-0.011-0.044-0.013-0.067
			c-0.034-0.142-0.069-0.282-0.096-0.43c-0.872,0.486-1.767,0.813-2.646,0.933c-2.323,0.318-4.458-1.309-4.772-3.633
			c-0.17-0.917-0.095-1.859,0.142-2.834c-0.965,0.134-1.912,0.06-2.8-0.187c-2.283-0.588-3.616-2.893-3.031-5.177
			c0.079-0.288,0.185-0.574,0.304-0.86c0.237-0.573,0.538-1.127,0.901-1.666c-0.207-0.061-0.388-0.156-0.584-0.229
			c-0.056-0.022-0.108-0.042-0.164-0.066c-0.28-0.113-0.559-0.235-0.818-0.377c-0.324-0.172-0.639-0.359-0.927-0.577
			C138.91,275.394,138.505,272.717,139.923,270.85z"/>
		<path fill-rule="evenodd" clip-rule="evenodd" fill="#BED630" d="M160.367,250.965c-0.409,0.534-0.7,1.219-0.924,1.961
			c-0.634-0.432-1.328-0.785-1.991-0.951c-1.798-0.462-3.619,0.587-4.114,2.361c-0.159,0.729-0.219,1.476-0.113,2.231
			c-0.766-0.187-1.514-0.242-2.235-0.113c-1.831,0.252-3.113,1.936-2.862,3.771c0.096,0.692,0.352,1.394,0.735,2.082
			c-0.785,0.14-1.489,0.399-2.149,0.744c-1.551,0.919-2.101,2.988-1.175,4.598c0.341,0.598,0.868,1.166,1.479,1.631
			c-0.682,0.445-1.259,0.912-1.697,1.482c-1.118,1.473-0.8,3.586,0.673,4.7c0.574,0.438,1.232,0.762,1.968,0.985
			c-0.425,0.636-0.754,1.292-0.95,1.995c-0.462,1.802,0.591,3.616,2.391,4.081c0.699,0.188,1.448,0.251,2.205,0.146
			c-0.185,0.767-0.244,1.513-0.115,2.239c0.251,1.824,1.938,3.107,3.768,2.86c0.694-0.098,1.399-0.354,2.088-0.732
			c0.139,0.78,0.396,1.485,0.734,2.082c0.928,1.61,2.992,2.162,4.604,1.236c0.623-0.371,1.169-0.868,1.629-1.476
			c0.447,0.68,0.939,1.223,1.514,1.658c1.473,1.119,3.556,0.832,4.674-0.638c0.438-0.572,0.764-1.229,1.012-2.005
			c0.611,0.466,1.267,0.798,1.968,0.99c1.799,0.46,3.644-0.626,4.078-2.389c0.195-0.705,0.255-1.453,0.178-2.244
			c0.765,0.187,1.478,0.216,2.206,0.148c1.83-0.247,3.114-1.933,2.862-3.763c-0.104-0.762-0.351-1.401-0.71-2.123
			c0.759-0.105,1.464-0.36,2.088-0.735c1.612-0.929,2.138-2.96,1.211-4.572c-0.378-0.623-0.865-1.168-1.452-1.668
			c0.654-0.405,1.196-0.899,1.606-1.438c1.118-1.47,0.831-3.552-0.635-4.67c-0.577-0.437-1.229-0.767-2.006-1.016
			c0.463-0.604,0.79-1.267,0.988-1.964c0.462-1.801-0.625-3.645-2.398-4.139c-0.692-0.137-1.441-0.195-2.235-0.118
			c0.187-0.769,0.245-1.512,0.15-2.206c-0.247-1.833-1.938-3.113-3.769-2.859c-0.729,0.066-1.434,0.319-2.121,0.702
			c-0.103-0.757-0.36-1.458-0.707-2.122c-0.952-1.571-2.986-2.097-4.596-1.172c-0.626,0.374-1.17,0.869-1.668,1.45
			c-0.405-0.647-0.902-1.195-1.475-1.632C163.606,249.234,161.484,249.494,160.367,250.965z"/>
		<path fill-rule="evenodd" clip-rule="evenodd" fill="#FFFFFF" d="M161.671,255.97c-0.305,0.402-0.521,0.905-0.687,1.456
			c-0.474-0.315-0.988-0.58-1.48-0.704c-1.335-0.341-2.688,0.435-3.058,1.753c-0.115,0.543-0.159,1.097-0.084,1.662
			c-0.566-0.139-1.125-0.187-1.66-0.084c-1.356,0.185-2.312,1.434-2.125,2.795c0.071,0.518,0.259,1.04,0.545,1.551
			c-0.582,0.104-1.104,0.295-1.598,0.552c-1.15,0.68-1.561,2.219-0.871,3.417c0.255,0.441,0.644,0.868,1.1,1.211
			c-0.506,0.332-0.935,0.677-1.262,1.103c-0.831,1.094-0.595,2.664,0.499,3.491c0.428,0.328,0.917,0.569,1.462,0.734
			c-0.316,0.471-0.563,0.958-0.705,1.482c-0.348,1.336,0.438,2.685,1.774,3.029c0.521,0.139,1.077,0.188,1.642,0.108
			c-0.14,0.568-0.182,1.127-0.088,1.661c0.188,1.36,1.44,2.313,2.799,2.128c0.517-0.073,1.039-0.264,1.551-0.547
			c0.105,0.583,0.295,1.104,0.546,1.549c0.688,1.198,2.227,1.608,3.423,0.923c0.464-0.281,0.868-0.65,1.21-1.1
			c0.332,0.503,0.697,0.907,1.122,1.23c1.097,0.831,2.643,0.62,3.475-0.473c0.323-0.425,0.566-0.915,0.752-1.487
			c0.453,0.344,0.939,0.588,1.462,0.732c1.334,0.344,2.708-0.466,3.029-1.773c0.145-0.523,0.187-1.08,0.131-1.668
			c0.566,0.137,1.097,0.159,1.639,0.112c1.361-0.187,2.316-1.44,2.127-2.8c-0.077-0.561-0.263-1.038-0.524-1.576
			c0.561-0.076,1.086-0.269,1.549-0.544c1.197-0.692,1.588-2.198,0.898-3.397c-0.277-0.464-0.642-0.868-1.076-1.242
			c0.485-0.3,0.886-0.665,1.192-1.069c0.831-1.089,0.617-2.639-0.474-3.469c-0.426-0.325-0.911-0.567-1.488-0.752
			c0.346-0.451,0.59-0.942,0.734-1.46c0.345-1.34-0.467-2.712-1.781-3.078c-0.519-0.098-1.072-0.141-1.66-0.082
			c0.139-0.573,0.18-1.125,0.107-1.642c-0.185-1.362-1.436-2.31-2.797-2.124c-0.541,0.046-1.064,0.233-1.578,0.522
			c-0.075-0.564-0.267-1.084-0.522-1.578c-0.709-1.168-2.22-1.56-3.416-0.87c-0.463,0.279-0.868,0.647-1.237,1.076
			c-0.304-0.482-0.674-0.887-1.096-1.212C164.076,254.686,162.501,254.876,161.671,255.97z"/>
		<g>
			<g>
				<path fill="#FF5E79" d="M166.529,271.377c0,0,1.104,0.932,2.558,1.837c0.813,0.503,1.723,1.03,2.63,1.322
					c1.466,0.473,2.912,0.627,3.563-0.438c0,0,0.239-0.479,0.025-1.001c-0.093-0.228-0.252-0.645-0.869-1.027
					c-0.86-0.538-2.14-1.025-4.881-0.991C168.686,271.089,167.682,271.197,166.529,271.377z"/>
				<path fill="#FF5E79" d="M164.449,271.944c0,0-0.848,1.172-2.041,2.4c-0.664,0.685-1.421,1.416-2.23,1.919
					c-1.306,0.812-2.673,1.313-3.563,0.437c0,0-0.348-0.407-0.265-0.968c0.033-0.241,0.089-0.684,0.592-1.202
					c0.705-0.731,1.83-1.517,4.499-2.146C162.287,272.186,163.286,272.052,164.449,271.944z"/>
				<path fill="#FF5E79" d="M165.118,272.278c0,0-0.903,1.128-1.773,2.602c-0.483,0.824-0.986,1.748-1.259,2.659
					c-0.436,1.479-0.557,2.929,0.525,3.555c0,0,0.486,0.227,1.004,0c0.223-0.099,0.635-0.268,1.004-0.891
					c0.518-0.877,0.973-2.168,0.872-4.906C165.458,274.427,165.325,273.426,165.118,272.278z"/>
				<path fill="#FF5E79" d="M166.014,272.143c0,0,0.079,1.44,0.417,3.121c0.188,0.937,0.429,1.959,0.837,2.821
					c0.66,1.39,1.536,2.55,2.761,2.294c0,0,0.513-0.155,0.747-0.668c0.102-0.224,0.295-0.625,0.153-1.336
					c-0.198-0.996-0.72-2.262-2.623-4.233C167.7,273.515,166.936,272.859,166.014,272.143z"/>
				<path fill="#FF5E79" d="M166.55,270.563c0,0,0.774-1.219,1.892-2.52c0.623-0.722,1.333-1.495,2.111-2.049
					c1.256-0.891,2.588-1.471,3.53-0.648c0,0,0.371,0.386,0.324,0.948c-0.02,0.243-0.049,0.688-0.52,1.239
					c-0.662,0.772-1.735,1.618-4.36,2.407C168.692,270.191,167.702,270.389,166.55,270.563z"/>
				<path fill="#FF5E79" d="M164.413,271.049c0,0-1.134-0.896-2.615-1.757c-0.826-0.479-1.751-0.976-2.666-1.243
					c-1.48-0.427-2.93-0.539-3.55,0.547c0,0-0.223,0.485,0.006,1.003c0.1,0.226,0.272,0.633,0.897,0.999
					c0.878,0.512,2.172,0.96,4.91,0.844C162.267,271.403,163.266,271.264,164.413,271.049z"/>
				<path fill="#FF5E79" d="M164.94,270.278c0,0-1.209-0.788-2.494-1.92c-0.718-0.634-1.482-1.354-2.023-2.137
					c-0.874-1.267-1.44-2.607-0.606-3.539c0,0,0.391-0.365,0.952-0.312c0.243,0.023,0.688,0.055,1.231,0.534
					c0.764,0.671,1.6,1.754,2.356,4.387C164.596,268.132,164.78,269.122,164.94,270.278z"/>
				<path fill="#FF5E79" d="M165.887,270.101c0,0-0.392-1.393-0.615-3.091c-0.123-0.947-0.228-1.99-0.118-2.938
					c0.174-1.53,0.629-2.912,1.87-3.064c0,0,0.535-0.021,0.924,0.392c0.167,0.178,0.479,0.491,0.575,1.212
					c0.135,1.007,0.05,2.373-1.113,4.855C167.04,268.255,166.526,269.122,165.887,270.101z"/>
			</g>
		</g>
	</g>
	<g>
		<path fill="#E48800" d="M75.905,288.285c0.243-0.322,0.56-0.585,0.92-0.813c0.003,0.001,0.003,0.001,0.003,0.001
			c0.005-0.001,0.005-0.004,0.01-0.008h-0.002c-0.003,0.001-0.007,0.004-0.011,0.007c-0.151-0.128-0.295-0.261-0.422-0.399
			c-0.149-0.162-0.278-0.329-0.378-0.504c-0.51-0.889-0.206-2.027,0.646-2.534c0.105-0.055,0.214-0.104,0.324-0.15
			c0.079-0.034,0.156-0.064,0.237-0.093c0.118-0.041,0.239-0.077,0.362-0.107c0.028-0.009,0.057-0.013,0.084-0.019
			c0.058-0.014,0.117-0.026,0.176-0.039c-0.211-0.378-0.353-0.765-0.405-1.147c-0.136-1.007,0.57-1.938,1.577-2.076
			c0.396-0.071,0.81-0.04,1.228,0.063c-0.008-0.099-0.019-0.193-0.021-0.287c-0.005-0.121-0.003-0.238,0.004-0.359
			c0.004-0.069,0.013-0.139,0.021-0.207c0.016-0.128,0.033-0.254,0.062-0.377c0.273-0.976,1.275-1.555,2.264-1.303
			c0.364,0.093,0.74,0.286,1.088,0.518c0.122-0.396,0.286-0.761,0.52-1.071c0.615-0.808,1.784-0.949,2.595-0.336
			c0.128,0.1,0.246,0.212,0.356,0.328c0.073,0.076,0.138,0.157,0.205,0.24c0.041,0.051,0.081,0.103,0.119,0.159
			c0.043,0.058,0.092,0.11,0.133,0.173c0.182-0.217,0.377-0.404,0.589-0.569c0.106-0.083,0.212-0.162,0.327-0.229
			c0.888-0.514,2.008-0.223,2.533,0.646c0.057,0.109,0.109,0.222,0.156,0.337c0.028,0.068,0.057,0.142,0.083,0.214
			c0.036,0.104,0.066,0.209,0.093,0.316c0.025,0.098,0.043,0.197,0.059,0.3c0.379-0.211,0.765-0.351,1.166-0.39
			c1.009-0.137,1.937,0.569,2.074,1.578c0.054,0.378,0.021,0.792-0.081,1.211c0.427-0.04,0.838-0.035,1.23,0.065
			c0.976,0.272,1.574,1.292,1.319,2.283c-0.102,0.382-0.291,0.741-0.533,1.086c0.423,0.137,0.78,0.316,1.095,0.554
			c0.808,0.616,0.965,1.763,0.349,2.572c-0.225,0.297-0.522,0.568-0.883,0.794c0.223,0.19,0.421,0.396,0.588,0.615
			c0.077,0.098,0.149,0.198,0.21,0.304c0.511,0.887,0.221,2.005-0.666,2.518c-0.342,0.205-0.73,0.347-1.148,0.403
			c0.195,0.396,0.333,0.752,0.39,1.169c0.137,1.008-0.569,1.936-1.578,2.074c-0.401,0.036-0.792,0.021-1.215-0.082
			c0.041,0.435,0.01,0.85-0.097,1.235c-0.24,0.971-1.254,1.57-2.245,1.313c-0.173-0.045-0.337-0.109-0.499-0.187
			c-0.021-0.01-0.043-0.018-0.064-0.029c-0.18-0.089-0.353-0.197-0.522-0.313c-0.137,0.42-0.317,0.775-0.557,1.092
			c-0.615,0.81-1.764,0.967-2.573,0.351c-0.314-0.237-0.581-0.535-0.825-0.906c-0.269,0.325-0.564,0.604-0.904,0.805
			c-0.887,0.511-2.026,0.204-2.537-0.681c-0.068-0.119-0.127-0.25-0.182-0.384c-0.017-0.039-0.032-0.075-0.046-0.113
			c-0.05-0.139-0.096-0.284-0.129-0.437c-0.002-0.009-0.005-0.02-0.006-0.029c-0.015-0.061-0.03-0.122-0.043-0.188
			c-0.378,0.214-0.767,0.355-1.147,0.407c-1.009,0.138-1.936-0.569-2.072-1.578c-0.074-0.398-0.042-0.808,0.061-1.23
			c-0.418,0.059-0.83,0.026-1.216-0.081c-0.991-0.255-1.57-1.257-1.315-2.248c0.033-0.126,0.079-0.249,0.131-0.373
			c0.104-0.248,0.234-0.489,0.392-0.724c-0.09-0.026-0.168-0.069-0.254-0.099c-0.024-0.012-0.048-0.02-0.07-0.029
			c-0.121-0.051-0.242-0.104-0.355-0.165c-0.142-0.073-0.278-0.154-0.404-0.25C75.465,290.258,75.289,289.096,75.905,288.285z"/>
		<path fill-rule="evenodd" clip-rule="evenodd" fill="#BED630" d="M84.781,279.649c-0.175,0.231-0.303,0.529-0.399,0.851
			c-0.275-0.187-0.577-0.341-0.864-0.413c-0.781-0.2-1.573,0.255-1.788,1.024c-0.067,0.318-0.094,0.644-0.049,0.972
			c-0.333-0.081-0.657-0.106-0.972-0.05c-0.795,0.109-1.35,0.84-1.241,1.637c0.041,0.301,0.153,0.606,0.319,0.903
			c-0.342,0.062-0.647,0.174-0.934,0.324c-0.674,0.399-0.912,1.297-0.511,1.997c0.148,0.258,0.377,0.505,0.643,0.708
			c-0.297,0.193-0.546,0.396-0.736,0.644c-0.486,0.64-0.348,1.557,0.291,2.041c0.249,0.19,0.535,0.332,0.855,0.429
			c-0.186,0.276-0.328,0.563-0.413,0.866c-0.201,0.782,0.256,1.569,1.037,1.771c0.304,0.082,0.631,0.11,0.959,0.064
			c-0.081,0.333-0.107,0.659-0.051,0.973c0.108,0.792,0.842,1.349,1.636,1.241c0.302-0.042,0.607-0.153,0.907-0.317
			c0.06,0.339,0.172,0.644,0.319,0.903c0.401,0.699,1.299,0.939,1.997,0.536c0.272-0.16,0.51-0.376,0.71-0.642
			c0.192,0.296,0.407,0.533,0.656,0.721c0.64,0.488,1.545,0.363,2.029-0.275c0.19-0.249,0.332-0.535,0.439-0.869
			c0.266,0.2,0.552,0.345,0.855,0.427c0.78,0.202,1.582-0.271,1.771-1.036c0.085-0.308,0.11-0.632,0.077-0.974
			c0.332,0.081,0.641,0.093,0.957,0.063c0.796-0.107,1.353-0.839,1.243-1.634c-0.043-0.331-0.151-0.608-0.308-0.922
			c0.328-0.046,0.636-0.156,0.906-0.318c0.701-0.404,0.928-1.285,0.526-1.986c-0.165-0.271-0.376-0.507-0.631-0.725
			c0.283-0.175,0.521-0.391,0.698-0.625c0.484-0.638,0.361-1.542-0.275-2.027c-0.251-0.188-0.534-0.332-0.87-0.441
			c0.199-0.263,0.342-0.549,0.427-0.852c0.201-0.782-0.27-1.583-1.042-1.799c-0.299-0.057-0.626-0.085-0.971-0.051
			c0.083-0.333,0.108-0.657,0.065-0.959c-0.106-0.795-0.84-1.351-1.635-1.24c-0.317,0.028-0.623,0.139-0.922,0.304
			c-0.044-0.327-0.157-0.633-0.307-0.919c-0.414-0.685-1.297-0.912-1.996-0.512c-0.271,0.164-0.508,0.379-0.725,0.63
			c-0.176-0.28-0.391-0.517-0.641-0.707C86.189,278.897,85.268,279.011,84.781,279.649z"/>
		<path fill-rule="evenodd" clip-rule="evenodd" fill="#FFFFFF" d="M85.349,281.823c-0.133,0.174-0.226,0.391-0.297,0.632
			c-0.206-0.138-0.43-0.252-0.644-0.307c-0.579-0.149-1.167,0.188-1.328,0.761c-0.049,0.237-0.068,0.478-0.036,0.722
			c-0.247-0.059-0.489-0.079-0.721-0.036c-0.59,0.08-1.005,0.623-0.923,1.215c0.029,0.225,0.112,0.451,0.235,0.672
			c-0.252,0.047-0.479,0.129-0.692,0.239c-0.5,0.297-0.678,0.966-0.38,1.485c0.111,0.193,0.279,0.376,0.478,0.525
			c-0.219,0.146-0.405,0.296-0.548,0.479c-0.36,0.477-0.258,1.158,0.219,1.516c0.186,0.145,0.396,0.247,0.633,0.321
			c-0.136,0.204-0.243,0.415-0.306,0.642c-0.149,0.582,0.19,1.166,0.771,1.315c0.225,0.062,0.466,0.082,0.714,0.048
			c-0.063,0.247-0.08,0.488-0.039,0.722c0.081,0.59,0.625,1.004,1.215,0.924c0.224-0.03,0.451-0.113,0.673-0.238
			c0.047,0.254,0.128,0.48,0.238,0.674c0.299,0.52,0.967,0.698,1.485,0.401c0.202-0.124,0.377-0.283,0.524-0.479
			c0.146,0.219,0.304,0.395,0.489,0.535c0.477,0.36,1.148,0.27,1.509-0.206c0.14-0.183,0.245-0.396,0.326-0.646
			c0.196,0.149,0.407,0.255,0.634,0.318c0.581,0.15,1.176-0.202,1.316-0.771c0.063-0.226,0.081-0.467,0.058-0.723
			c0.245,0.059,0.477,0.068,0.711,0.049c0.592-0.082,1.006-0.625,0.924-1.215c-0.034-0.246-0.113-0.45-0.229-0.686
			c0.245-0.032,0.474-0.116,0.675-0.237c0.52-0.3,0.689-0.953,0.391-1.474c-0.121-0.203-0.28-0.378-0.468-0.54
			c0.211-0.13,0.385-0.288,0.517-0.464c0.36-0.474,0.27-1.146-0.205-1.508c-0.186-0.141-0.396-0.245-0.646-0.324
			c0.149-0.197,0.256-0.409,0.319-0.636c0.149-0.582-0.203-1.177-0.775-1.336c-0.224-0.044-0.466-0.062-0.72-0.036
			c0.06-0.248,0.078-0.489,0.049-0.713c-0.083-0.592-0.626-1.004-1.218-0.922c-0.234,0.02-0.461,0.101-0.685,0.227
			c-0.032-0.244-0.116-0.471-0.227-0.685c-0.309-0.507-0.965-0.677-1.482-0.38c-0.201,0.123-0.379,0.282-0.538,0.468
			c-0.133-0.209-0.292-0.384-0.477-0.525C86.394,281.266,85.71,281.349,85.349,281.823z"/>
		<g>
			<g>
				<path fill="#FF5E79" d="M87.458,288.514c0,0,0.481,0.404,1.112,0.795c0.353,0.219,0.749,0.448,1.141,0.577
					c0.638,0.203,1.266,0.272,1.549-0.19c0,0,0.103-0.209,0.01-0.436c-0.041-0.1-0.107-0.28-0.377-0.446
					c-0.374-0.232-0.931-0.446-2.119-0.431C88.395,288.388,87.96,288.437,87.458,288.514z"/>
				<path fill="#FF5E79" d="M86.555,288.76c0,0-0.368,0.508-0.886,1.043c-0.288,0.297-0.617,0.613-0.968,0.832
					c-0.568,0.354-1.16,0.57-1.547,0.19c0,0-0.151-0.178-0.117-0.42c0.016-0.106,0.04-0.298,0.258-0.523
					c0.308-0.318,0.795-0.657,1.955-0.931C85.618,288.863,86.05,288.808,86.555,288.76z"/>
				<path fill="#FF5E79" d="M86.847,288.903c0,0-0.393,0.49-0.771,1.132c-0.21,0.357-0.431,0.759-0.546,1.155
					c-0.19,0.641-0.242,1.271,0.227,1.542c0,0,0.212,0.099,0.437,0c0.096-0.041,0.276-0.116,0.436-0.387
					c0.225-0.381,0.423-0.94,0.379-2.131C86.995,289.839,86.936,289.404,86.847,288.903z"/>
				<path fill="#FF5E79" d="M87.234,288.843c0,0,0.036,0.63,0.183,1.359c0.081,0.405,0.186,0.85,0.362,1.226
					c0.286,0.602,0.667,1.106,1.2,0.993c0,0,0.223-0.067,0.324-0.288c0.043-0.098,0.127-0.271,0.065-0.582
					c-0.086-0.43-0.313-0.98-1.139-1.838C87.968,289.441,87.636,289.157,87.234,288.843z"/>
				<path fill="#FF5E79" d="M87.468,288.16c0,0,0.336-0.529,0.821-1.094c0.271-0.314,0.579-0.65,0.917-0.89
					c0.545-0.386,1.124-0.639,1.532-0.282c0,0,0.163,0.169,0.142,0.411c-0.008,0.105-0.021,0.298-0.226,0.538
					c-0.288,0.334-0.754,0.705-1.894,1.046C88.397,287.999,87.969,288.084,87.468,288.16z"/>
				<path fill="#FF5E79" d="M86.539,288.372c0,0-0.491-0.392-1.135-0.765c-0.358-0.208-0.76-0.425-1.158-0.54
					c-0.642-0.186-1.271-0.234-1.541,0.236c0,0-0.097,0.211,0.002,0.438c0.043,0.099,0.118,0.274,0.391,0.433
					c0.381,0.223,0.942,0.417,2.132,0.367C85.607,288.524,86.041,288.464,86.539,288.372z"/>
				<path fill="#FF5E79" d="M86.769,288.035c0,0-0.525-0.343-1.081-0.834c-0.314-0.274-0.646-0.587-0.881-0.927
					c-0.381-0.551-0.625-1.133-0.263-1.536c0,0,0.17-0.16,0.412-0.136c0.107,0.009,0.3,0.023,0.535,0.23
					c0.332,0.294,0.695,0.762,1.024,1.907C86.619,287.104,86.698,287.533,86.769,288.035z"/>
				<path fill="#FF5E79" d="M87.18,287.958c0,0-0.17-0.605-0.268-1.341c-0.053-0.412-0.098-0.866-0.052-1.277
					c0.078-0.664,0.273-1.265,0.813-1.33c0,0,0.232-0.008,0.399,0.17c0.074,0.077,0.21,0.216,0.251,0.524
					c0.058,0.44,0.021,1.032-0.482,2.111C87.681,287.157,87.458,287.533,87.18,287.958z"/>
			</g>
		</g>
	</g>
	<g>
		<path fill="#E48800" d="M134.814,169.885c0.383-0.506,0.883-0.919,1.448-1.28c0.004,0.001,0.004,0.003,0.004,0.003
			c0.008-0.003,0.012-0.008,0.017-0.012c0,0-0.001,0-0.002-0.002c-0.005,0.004-0.011,0.006-0.019,0.011
			c-0.239-0.199-0.463-0.409-0.665-0.63c-0.235-0.253-0.438-0.518-0.596-0.792c-0.801-1.398-0.323-3.193,1.02-3.991
			c0.167-0.086,0.337-0.166,0.512-0.238c0.121-0.053,0.242-0.103,0.372-0.146c0.184-0.065,0.377-0.122,0.572-0.169
			c0.044-0.014,0.088-0.02,0.132-0.03c0.091-0.021,0.183-0.042,0.277-0.061c-0.333-0.597-0.556-1.207-0.64-1.81
			c-0.215-1.586,0.897-3.05,2.485-3.269c0.623-0.112,1.274-0.062,1.934,0.098c-0.014-0.151-0.028-0.303-0.034-0.452
			c-0.008-0.19-0.005-0.375,0.007-0.563c0.006-0.112,0.02-0.22,0.032-0.329c0.025-0.197,0.055-0.397,0.101-0.593
			c0.43-1.535,2.007-2.448,3.565-2.049c0.573,0.144,1.164,0.447,1.711,0.812c0.192-0.623,0.45-1.198,0.82-1.686
			c0.971-1.275,2.811-1.497,4.085-0.529c0.203,0.155,0.389,0.332,0.563,0.519c0.113,0.117,0.219,0.246,0.322,0.374
			c0.064,0.083,0.129,0.166,0.188,0.252c0.067,0.092,0.144,0.174,0.208,0.272c0.288-0.338,0.596-0.636,0.929-0.896
			c0.165-0.133,0.335-0.256,0.517-0.362c1.398-0.807,3.161-0.348,3.99,1.018c0.09,0.174,0.17,0.351,0.244,0.531
			c0.047,0.11,0.093,0.223,0.132,0.337c0.057,0.164,0.105,0.33,0.146,0.5c0.039,0.153,0.069,0.312,0.094,0.471
			c0.595-0.331,1.203-0.554,1.837-0.612c1.588-0.217,3.05,0.895,3.266,2.484c0.083,0.599,0.034,1.247-0.126,1.909
			c0.669-0.064,1.32-0.055,1.937,0.103c1.538,0.432,2.48,2.033,2.077,3.595c-0.158,0.604-0.456,1.17-0.837,1.713
			c0.664,0.215,1.228,0.497,1.722,0.872c1.273,0.97,1.521,2.776,0.551,4.053c-0.354,0.466-0.824,0.894-1.39,1.25
			c0.35,0.299,0.661,0.622,0.926,0.972c0.12,0.151,0.232,0.31,0.33,0.478c0.806,1.394,0.349,3.156-1.048,3.961
			c-0.54,0.325-1.153,0.549-1.812,0.639c0.309,0.626,0.524,1.184,0.616,1.841c0.215,1.588-0.897,3.05-2.485,3.268
			c-0.633,0.058-1.251,0.031-1.915-0.129c0.065,0.687,0.015,1.337-0.151,1.944c-0.379,1.528-1.977,2.476-3.539,2.072
			c-0.271-0.07-0.53-0.174-0.785-0.295c-0.033-0.017-0.067-0.03-0.104-0.047c-0.28-0.14-0.556-0.31-0.823-0.494
			c-0.214,0.662-0.499,1.222-0.874,1.719c-0.969,1.277-2.779,1.525-4.054,0.552c-0.495-0.373-0.915-0.843-1.301-1.424
			c-0.422,0.512-0.888,0.952-1.426,1.267c-1.396,0.803-3.189,0.322-3.995-1.072c-0.107-0.188-0.2-0.394-0.287-0.606
			c-0.024-0.06-0.05-0.115-0.071-0.176c-0.08-0.22-0.148-0.451-0.205-0.688c-0.003-0.015-0.008-0.031-0.008-0.046
			c-0.024-0.097-0.049-0.192-0.066-0.294c-0.598,0.333-1.209,0.556-1.81,0.639c-1.59,0.217-3.05-0.896-3.265-2.486
			c-0.116-0.626-0.066-1.271,0.096-1.938c-0.658,0.09-1.308,0.04-1.915-0.128c-1.562-0.403-2.473-1.979-2.072-3.541
			c0.053-0.198,0.126-0.394,0.207-0.589c0.162-0.394,0.368-0.771,0.617-1.141c-0.143-0.042-0.265-0.105-0.401-0.156
			c-0.037-0.016-0.073-0.03-0.11-0.046c-0.192-0.078-0.383-0.161-0.561-0.258c-0.222-0.117-0.436-0.246-0.634-0.395
			C134.122,172.994,133.844,171.163,134.814,169.885z"/>
		<path fill-rule="evenodd" clip-rule="evenodd" fill="#BED630" d="M148.799,156.283c-0.279,0.365-0.478,0.834-0.631,1.341
			c-0.434-0.296-0.909-0.538-1.362-0.65c-1.23-0.316-2.477,0.399-2.816,1.614c-0.107,0.498-0.148,1.011-0.077,1.527
			c-0.522-0.128-1.034-0.166-1.528-0.078c-1.252,0.174-2.129,1.324-1.956,2.579c0.064,0.473,0.239,0.954,0.502,1.425
			c-0.538,0.096-1.02,0.272-1.472,0.509c-1.06,0.63-1.438,2.044-0.804,3.146c0.234,0.409,0.595,0.798,1.012,1.116
			c-0.466,0.303-0.861,0.624-1.161,1.014c-0.765,1.008-0.546,2.452,0.461,3.215c0.394,0.3,0.843,0.521,1.346,0.675
			c-0.291,0.435-0.516,0.885-0.648,1.364c-0.317,1.232,0.402,2.474,1.635,2.792c0.479,0.128,0.99,0.171,1.508,0.1
			c-0.126,0.523-0.167,1.035-0.078,1.53c0.171,1.249,1.325,2.128,2.577,1.958c0.474-0.066,0.956-0.242,1.428-0.502
			c0.094,0.535,0.271,1.017,0.503,1.425c0.633,1.102,2.046,1.479,3.147,0.846c0.428-0.253,0.801-0.594,1.116-1.009
			c0.305,0.465,0.642,0.837,1.034,1.135c1.008,0.765,2.434,0.569,3.198-0.436c0.299-0.393,0.522-0.842,0.692-1.372
			c0.417,0.317,0.865,0.545,1.347,0.676c1.229,0.315,2.491-0.427,2.79-1.633c0.134-0.482,0.172-0.994,0.12-1.536
			c0.522,0.128,1.01,0.147,1.509,0.103c1.252-0.17,2.131-1.323,1.959-2.575c-0.07-0.521-0.24-0.958-0.485-1.452
			c0.519-0.072,1-0.247,1.427-0.501c1.104-0.637,1.462-2.026,0.829-3.128c-0.258-0.427-0.592-0.8-0.993-1.142
			c0.447-0.277,0.818-0.616,1.099-0.985c0.765-1.005,0.568-2.429-0.435-3.194c-0.395-0.299-0.841-0.523-1.371-0.695
			c0.315-0.413,0.541-0.865,0.676-1.343c0.316-1.231-0.429-2.493-1.643-2.831c-0.472-0.093-0.985-0.134-1.528-0.08
			c0.129-0.526,0.168-1.035,0.103-1.509c-0.17-1.255-1.324-2.13-2.576-1.958c-0.499,0.046-0.98,0.219-1.451,0.481
			c-0.07-0.517-0.247-0.998-0.484-1.451c-0.651-1.076-2.044-1.436-3.144-0.804c-0.429,0.257-0.8,0.596-1.142,0.993
			c-0.278-0.443-0.616-0.817-1.009-1.116C151.017,155.099,149.563,155.276,148.799,156.283z"/>
		<path fill-rule="evenodd" clip-rule="evenodd" fill="#FFFFFF" d="M149.69,159.707c-0.208,0.273-0.354,0.618-0.468,0.994
			c-0.324-0.216-0.677-0.397-1.015-0.481c-0.913-0.233-1.839,0.298-2.091,1.2c-0.079,0.37-0.109,0.75-0.058,1.136
			c-0.388-0.095-0.771-0.126-1.136-0.057c-0.928,0.126-1.581,0.98-1.454,1.912c0.049,0.354,0.178,0.71,0.373,1.061
			c-0.398,0.071-0.754,0.201-1.093,0.378c-0.786,0.466-1.066,1.518-0.596,2.338c0.174,0.301,0.44,0.593,0.752,0.828
			c-0.347,0.227-0.64,0.463-0.862,0.755c-0.568,0.747-0.406,1.821,0.341,2.388c0.292,0.224,0.627,0.388,1,0.502
			c-0.216,0.321-0.384,0.655-0.482,1.014c-0.237,0.913,0.3,1.836,1.215,2.073c0.355,0.095,0.736,0.129,1.122,0.073
			c-0.094,0.39-0.125,0.771-0.06,1.137c0.128,0.93,0.985,1.582,1.914,1.455c0.353-0.049,0.712-0.18,1.061-0.373
			c0.072,0.398,0.203,0.756,0.373,1.059c0.471,0.82,1.523,1.101,2.342,0.632c0.317-0.192,0.594-0.445,0.829-0.753
			c0.227,0.345,0.477,0.621,0.768,0.843c0.75,0.567,1.807,0.425,2.375-0.324c0.222-0.29,0.389-0.626,0.515-1.017
			c0.312,0.234,0.644,0.402,1.002,0.5c0.912,0.236,1.851-0.318,2.071-1.213c0.098-0.358,0.128-0.737,0.09-1.141
			c0.388,0.094,0.749,0.109,1.12,0.076c0.932-0.128,1.586-0.984,1.457-1.914c-0.055-0.385-0.181-0.711-0.36-1.079
			c0.383-0.051,0.743-0.184,1.061-0.372c0.818-0.473,1.086-1.505,0.615-2.323c-0.19-0.318-0.44-0.595-0.738-0.85
			c0.334-0.206,0.606-0.456,0.816-0.731c0.568-0.746,0.424-1.805-0.325-2.373c-0.29-0.223-0.622-0.39-1.018-0.515
			c0.237-0.31,0.403-0.646,0.502-0.999c0.237-0.917-0.318-1.854-1.217-2.105c-0.355-0.067-0.733-0.097-1.138-0.058
			c0.097-0.391,0.123-0.768,0.076-1.122c-0.128-0.933-0.983-1.58-1.914-1.453c-0.371,0.032-0.729,0.16-1.08,0.357
			c-0.051-0.386-0.183-0.74-0.357-1.08c-0.485-0.798-1.519-1.065-2.336-0.595c-0.316,0.191-0.595,0.443-0.848,0.736
			c-0.207-0.33-0.46-0.606-0.749-0.829C151.337,158.828,150.26,158.958,149.69,159.707z"/>
		<g>
			<g>
				<path fill="#FF5E79" d="M153.014,170.246c0,0,0.757,0.637,1.751,1.255c0.555,0.345,1.178,0.705,1.798,0.906
					c1.003,0.323,1.992,0.43,2.438-0.3c0,0,0.165-0.328,0.019-0.686c-0.064-0.155-0.173-0.44-0.595-0.702
					c-0.59-0.368-1.463-0.702-3.338-0.679C154.489,170.05,153.804,170.124,153.014,170.246z"/>
				<path fill="#FF5E79" d="M151.593,170.634c0,0-0.582,0.801-1.396,1.642c-0.454,0.469-0.972,0.969-1.526,1.313
					c-0.895,0.557-1.828,0.897-2.438,0.299c0,0-0.237-0.28-0.181-0.661c0.022-0.166,0.061-0.468,0.403-0.824
					c0.484-0.501,1.253-1.035,3.079-1.466C150.113,170.799,150.796,170.707,151.593,170.634z"/>
				<path fill="#FF5E79" d="M152.051,170.862c0,0-0.619,0.771-1.213,1.781c-0.332,0.563-0.676,1.194-0.861,1.819
					c-0.299,1.009-0.382,2.002,0.357,2.43c0,0,0.334,0.155,0.688,0c0.151-0.066,0.434-0.183,0.688-0.61
					c0.353-0.597,0.665-1.48,0.597-3.354C152.282,172.333,152.191,171.649,152.051,170.862z"/>
				<path fill="#FF5E79" d="M152.662,170.769c0,0,0.055,0.987,0.284,2.136c0.129,0.641,0.294,1.34,0.574,1.931
					c0.45,0.951,1.05,1.743,1.888,1.568c0,0,0.352-0.104,0.512-0.456c0.069-0.152,0.201-0.427,0.105-0.914
					c-0.137-0.68-0.493-1.547-1.794-2.896C153.816,171.707,153.292,171.26,152.662,170.769z"/>
				<path fill="#FF5E79" d="M153.029,169.688c0,0,0.53-0.833,1.294-1.723c0.425-0.494,0.911-1.024,1.444-1.401
					c0.859-0.609,1.771-1.007,2.414-0.443c0,0,0.255,0.263,0.223,0.648c-0.014,0.167-0.033,0.47-0.356,0.848
					c-0.451,0.526-1.187,1.108-2.982,1.647C154.493,169.437,153.818,169.569,153.029,169.688z"/>
				<path fill="#FF5E79" d="M151.567,170.022c0,0-0.775-0.613-1.789-1.202c-0.565-0.328-1.197-0.669-1.825-0.851
					c-1.011-0.293-2.002-0.369-2.427,0.373c0,0-0.152,0.334,0.004,0.686c0.068,0.154,0.187,0.436,0.613,0.685
					c0.602,0.35,1.485,0.656,3.359,0.576C150.099,170.264,150.782,170.169,151.567,170.022z"/>
				<path fill="#FF5E79" d="M151.928,169.495c0,0-0.826-0.541-1.705-1.315c-0.49-0.431-1.016-0.925-1.385-1.461
					c-0.599-0.867-0.984-1.784-0.416-2.421c0,0,0.268-0.25,0.651-0.213c0.167,0.016,0.471,0.038,0.844,0.365
					c0.521,0.46,1.094,1.199,1.611,3.003C151.693,168.026,151.818,168.703,151.928,169.495z"/>
				<path fill="#FF5E79" d="M152.576,169.372c0,0-0.268-0.952-0.422-2.114c-0.085-0.646-0.155-1.363-0.08-2.01
					c0.118-1.047,0.43-1.992,1.279-2.097c0,0,0.365-0.014,0.631,0.268c0.115,0.121,0.329,0.339,0.394,0.83
					c0.093,0.688,0.034,1.623-0.761,3.32C153.363,168.109,153.014,168.703,152.576,169.372z"/>
			</g>
		</g>
	</g>
	<g>
		<g>
			<path fill="#3EBDD4" d="M84.396,233.892c0.382-0.504,0.882-0.919,1.449-1.28c0.004,0.001,0.004,0.004,0.004,0.004
				c0.008-0.004,0.01-0.008,0.015-0.011l-0.001-0.002c-0.005,0.002-0.012,0.005-0.018,0.009c-0.241-0.199-0.465-0.408-0.666-0.629
				c-0.233-0.254-0.438-0.518-0.597-0.792c-0.801-1.398-0.321-3.195,1.021-3.993c0.166-0.085,0.339-0.163,0.511-0.235
				c0.124-0.055,0.245-0.104,0.372-0.146c0.187-0.067,0.377-0.124,0.572-0.17c0.044-0.013,0.088-0.021,0.132-0.031
				c0.093-0.021,0.184-0.041,0.277-0.059c-0.332-0.599-0.556-1.209-0.638-1.813c-0.217-1.585,0.896-3.05,2.483-3.266
				c0.623-0.113,1.274-0.063,1.935,0.098c-0.015-0.152-0.029-0.304-0.035-0.453c-0.008-0.19-0.005-0.376,0.008-0.563
				c0.005-0.112,0.021-0.221,0.032-0.328c0.024-0.2,0.055-0.399,0.1-0.594c0.43-1.534,2.01-2.448,3.567-2.049
				c0.571,0.145,1.162,0.448,1.711,0.811c0.193-0.623,0.448-1.197,0.821-1.685c0.968-1.276,2.808-1.498,4.085-0.528
				c0.2,0.155,0.387,0.33,0.563,0.518c0.114,0.117,0.217,0.245,0.32,0.373c0.065,0.083,0.129,0.166,0.19,0.253
				c0.066,0.091,0.142,0.174,0.207,0.271c0.287-0.338,0.596-0.636,0.928-0.896c0.166-0.132,0.336-0.255,0.517-0.36
				c1.398-0.808,3.161-0.35,3.99,1.016c0.09,0.175,0.173,0.352,0.246,0.532c0.048,0.11,0.091,0.222,0.132,0.338
				c0.055,0.162,0.104,0.328,0.146,0.5c0.038,0.151,0.068,0.31,0.095,0.469c0.594-0.329,1.204-0.552,1.835-0.612
				c1.588-0.217,3.05,0.895,3.268,2.483c0.083,0.6,0.032,1.248-0.128,1.91c0.67-0.064,1.32-0.055,1.938,0.103
				c1.536,0.433,2.479,2.035,2.077,3.596c-0.16,0.603-0.458,1.17-0.838,1.713c0.663,0.215,1.228,0.497,1.721,0.871
				c1.276,0.971,1.521,2.777,0.552,4.054c-0.354,0.465-0.825,0.894-1.391,1.25c0.351,0.297,0.661,0.622,0.926,0.972
				c0.12,0.151,0.234,0.309,0.331,0.477c0.805,1.395,0.349,3.156-1.049,3.961c-0.54,0.325-1.153,0.549-1.81,0.64
				c0.307,0.626,0.522,1.184,0.615,1.841c0.214,1.589-0.898,3.048-2.486,3.267c-0.633,0.058-1.251,0.031-1.915-0.129
				c0.065,0.688,0.016,1.336-0.151,1.944c-0.379,1.529-1.977,2.478-3.539,2.073c-0.27-0.071-0.529-0.175-0.785-0.296
				c-0.032-0.018-0.067-0.029-0.103-0.046c-0.281-0.141-0.557-0.311-0.824-0.494c-0.214,0.661-0.497,1.223-0.872,1.718
				c-0.971,1.278-2.78,1.525-4.054,0.553c-0.494-0.374-0.917-0.842-1.303-1.424c-0.422,0.512-0.888,0.951-1.426,1.267
				c-1.396,0.802-3.189,0.321-3.995-1.073c-0.107-0.188-0.199-0.392-0.285-0.605c-0.026-0.059-0.052-0.115-0.072-0.178
				c-0.08-0.217-0.149-0.45-0.205-0.687c-0.003-0.015-0.006-0.031-0.009-0.047c-0.023-0.095-0.049-0.191-0.066-0.294
				c-0.595,0.333-1.207,0.557-1.809,0.639c-1.591,0.217-3.051-0.896-3.265-2.486c-0.116-0.625-0.065-1.271,0.098-1.938
				c-0.661,0.09-1.31,0.041-1.915-0.129c-1.564-0.401-2.476-1.978-2.074-3.539c0.052-0.198,0.126-0.395,0.207-0.589
				c0.163-0.393,0.368-0.772,0.616-1.141c-0.142-0.044-0.265-0.105-0.398-0.157c-0.039-0.016-0.075-0.03-0.113-0.044
				c-0.19-0.079-0.383-0.163-0.559-0.26c-0.223-0.115-0.438-0.244-0.636-0.394C83.703,237.001,83.425,235.171,84.396,233.892z"/>
			<path fill-rule="evenodd" clip-rule="evenodd" fill="#BED630" d="M98.382,220.29c-0.281,0.364-0.479,0.834-0.633,1.343
				c-0.434-0.296-0.907-0.538-1.362-0.652c-1.229-0.315-2.475,0.399-2.813,1.614c-0.109,0.5-0.15,1.012-0.078,1.526
				c-0.524-0.127-1.033-0.164-1.529-0.077c-1.252,0.174-2.13,1.323-1.957,2.579c0.064,0.474,0.239,0.954,0.502,1.426
				c-0.538,0.096-1.02,0.271-1.47,0.508c-1.062,0.63-1.438,2.043-0.803,3.147c0.231,0.406,0.593,0.798,1.01,1.114
				c-0.466,0.304-0.861,0.626-1.161,1.015c-0.766,1.007-0.547,2.451,0.46,3.214c0.394,0.3,0.844,0.522,1.348,0.676
				c-0.291,0.436-0.517,0.885-0.65,1.364c-0.316,1.231,0.403,2.473,1.635,2.791c0.479,0.128,0.992,0.17,1.511,0.101
				c-0.129,0.522-0.169,1.035-0.08,1.531c0.171,1.249,1.324,2.126,2.576,1.957c0.477-0.067,0.958-0.242,1.429-0.502
				c0.093,0.535,0.271,1.017,0.502,1.426c0.636,1.102,2.046,1.478,3.149,0.844c0.426-0.252,0.799-0.595,1.115-1.009
				c0.306,0.466,0.643,0.838,1.035,1.135c1.006,0.766,2.432,0.569,3.197-0.436c0.298-0.393,0.521-0.841,0.691-1.372
				c0.42,0.317,0.866,0.544,1.347,0.677c1.231,0.315,2.492-0.429,2.79-1.633c0.134-0.483,0.175-0.995,0.12-1.537
				c0.522,0.129,1.01,0.148,1.51,0.104c1.251-0.17,2.13-1.323,1.958-2.577c-0.07-0.52-0.24-0.957-0.484-1.45
				c0.518-0.072,0.999-0.247,1.428-0.502c1.103-0.637,1.462-2.026,0.827-3.128c-0.258-0.425-0.592-0.8-0.991-1.141
				c0.445-0.278,0.816-0.617,1.097-0.985c0.765-1.006,0.571-2.43-0.433-3.194c-0.396-0.3-0.842-0.523-1.372-0.695
				c0.315-0.414,0.54-0.867,0.675-1.344c0.316-1.232-0.428-2.493-1.641-2.831c-0.473-0.093-0.984-0.134-1.527-0.079
				c0.127-0.528,0.167-1.035,0.102-1.509c-0.169-1.255-1.324-2.131-2.578-1.959c-0.497,0.046-0.98,0.219-1.451,0.481
				c-0.07-0.516-0.247-0.998-0.483-1.451c-0.652-1.075-2.043-1.434-3.144-0.803c-0.428,0.257-0.801,0.597-1.141,0.993
				c-0.277-0.444-0.617-0.818-1.01-1.117C100.598,219.106,99.145,219.282,98.382,220.29z"/>
			<path fill-rule="evenodd" clip-rule="evenodd" fill="#FFFFFF" d="M99.271,223.715c-0.205,0.272-0.354,0.617-0.468,0.993
				c-0.323-0.216-0.675-0.396-1.013-0.481c-0.913-0.232-1.84,0.299-2.092,1.201c-0.08,0.369-0.108,0.749-0.059,1.135
				c-0.388-0.094-0.769-0.126-1.136-0.055c-0.927,0.126-1.58,0.979-1.451,1.909c0.046,0.355,0.176,0.713,0.37,1.063
				c-0.398,0.069-0.754,0.199-1.091,0.376c-0.788,0.466-1.068,1.519-0.598,2.338c0.176,0.301,0.44,0.593,0.752,0.827
				c-0.347,0.229-0.639,0.465-0.862,0.756c-0.568,0.749-0.406,1.823,0.341,2.387c0.292,0.225,0.628,0.389,1,0.502
				c-0.215,0.324-0.384,0.658-0.481,1.015c-0.236,0.913,0.299,1.836,1.215,2.074c0.355,0.094,0.736,0.129,1.122,0.072
				c-0.095,0.39-0.124,0.771-0.059,1.138c0.127,0.929,0.983,1.583,1.912,1.454c0.354-0.049,0.712-0.178,1.062-0.373
				c0.072,0.398,0.202,0.757,0.375,1.059c0.471,0.82,1.522,1.101,2.339,0.632c0.319-0.19,0.595-0.443,0.829-0.753
				c0.228,0.346,0.477,0.622,0.768,0.844c0.751,0.565,1.807,0.425,2.378-0.324c0.219-0.289,0.388-0.626,0.514-1.018
				c0.31,0.234,0.642,0.403,1,0.5c0.913,0.236,1.852-0.319,2.071-1.213c0.098-0.357,0.129-0.738,0.091-1.14
				c0.389,0.093,0.748,0.107,1.122,0.074c0.93-0.126,1.583-0.983,1.454-1.912c-0.053-0.385-0.179-0.71-0.36-1.08
				c0.386-0.05,0.743-0.184,1.061-0.371c0.818-0.473,1.086-1.506,0.615-2.324c-0.19-0.318-0.44-0.595-0.736-0.85
				c0.332-0.206,0.606-0.456,0.815-0.731c0.569-0.746,0.423-1.804-0.324-2.373c-0.291-0.221-0.623-0.389-1.02-0.515
				c0.237-0.309,0.403-0.646,0.502-0.998c0.237-0.918-0.316-1.854-1.217-2.105c-0.355-0.067-0.733-0.099-1.135-0.057
				c0.095-0.393,0.122-0.77,0.073-1.124c-0.128-0.931-0.982-1.579-1.914-1.453c-0.37,0.032-0.729,0.16-1.078,0.358
				c-0.053-0.385-0.183-0.741-0.358-1.08c-0.486-0.798-1.52-1.066-2.337-0.596c-0.316,0.19-0.595,0.444-0.847,0.736
				c-0.208-0.33-0.461-0.606-0.749-0.829C100.919,222.835,99.841,222.966,99.271,223.715z"/>
		</g>
		<g>
			<g>
				<path fill="#FF5E79" d="M102.595,234.253c0,0,0.757,0.638,1.752,1.255c0.556,0.346,1.179,0.705,1.797,0.906
					c1.004,0.323,1.992,0.43,2.439-0.3c0,0,0.163-0.328,0.017-0.686c-0.063-0.155-0.173-0.44-0.592-0.703
					c-0.591-0.368-1.465-0.701-3.341-0.677C104.071,234.057,103.386,234.131,102.595,234.253z"/>
				<path fill="#FF5E79" d="M101.174,234.641c0,0-0.58,0.803-1.395,1.643c-0.456,0.468-0.974,0.968-1.526,1.313
					c-0.896,0.556-1.83,0.898-2.438,0.299c0,0-0.239-0.281-0.183-0.662c0.022-0.164,0.062-0.466,0.405-0.823
					c0.482-0.5,1.251-1.035,3.077-1.466C99.694,234.806,100.377,234.714,101.174,234.641z"/>
				<path fill="#FF5E79" d="M101.632,234.87c0,0-0.617,0.771-1.213,1.781c-0.332,0.563-0.676,1.193-0.861,1.819
					c-0.299,1.009-0.381,2.001,0.357,2.43c0,0,0.335,0.154,0.688,0c0.152-0.067,0.435-0.183,0.688-0.61
					c0.354-0.599,0.666-1.481,0.597-3.354C101.863,236.34,101.772,235.656,101.632,234.87z"/>
				<path fill="#FF5E79" d="M102.243,234.774c0,0,0.055,0.988,0.284,2.138c0.131,0.641,0.297,1.34,0.574,1.929
					c0.45,0.953,1.052,1.745,1.89,1.569c0,0,0.35-0.104,0.51-0.457c0.069-0.151,0.203-0.425,0.105-0.914
					c-0.136-0.679-0.493-1.547-1.794-2.896C103.397,235.714,102.873,235.269,102.243,234.774z"/>
				<path fill="#FF5E79" d="M102.61,233.696c0,0,0.53-0.834,1.295-1.722c0.424-0.494,0.912-1.026,1.443-1.403
					c0.859-0.607,1.772-1.006,2.416-0.443c0,0,0.253,0.264,0.223,0.649c-0.016,0.166-0.034,0.469-0.358,0.847
					c-0.45,0.526-1.185,1.108-2.982,1.647C104.074,233.444,103.4,233.576,102.61,233.696z"/>
				<path fill="#FF5E79" d="M101.148,234.03c0,0-0.775-0.614-1.789-1.203c-0.565-0.328-1.197-0.669-1.822-0.851
					c-1.014-0.291-2.005-0.369-2.429,0.373c0,0-0.152,0.334,0.004,0.686c0.067,0.155,0.186,0.435,0.613,0.685
					c0.602,0.35,1.486,0.656,3.358,0.577C99.681,234.271,100.363,234.176,101.148,234.03z"/>
				<path fill="#FF5E79" d="M101.51,233.503c0,0-0.827-0.542-1.706-1.315c-0.49-0.432-1.016-0.925-1.385-1.462
					c-0.599-0.867-0.984-1.783-0.416-2.422c0,0,0.268-0.248,0.652-0.212c0.166,0.017,0.471,0.037,0.843,0.366
					c0.521,0.459,1.094,1.198,1.611,3.001C101.274,232.033,101.4,232.71,101.51,233.503z"/>
				<path fill="#FF5E79" d="M102.157,233.38c0,0-0.268-0.952-0.421-2.113c-0.085-0.648-0.155-1.364-0.081-2.011
					c0.118-1.047,0.43-1.993,1.279-2.098c0,0,0.366-0.013,0.631,0.268c0.115,0.121,0.329,0.339,0.395,0.829
					c0.092,0.69,0.035,1.624-0.762,3.321C102.944,232.116,102.595,232.71,102.157,233.38z"/>
			</g>
		</g>
	</g>
	<g>
		<g>
			<path fill="#95AF2E" d="M152.738,200.567c0,0-1.969-4.935,5.572-9.884c7.543-4.952,15.374,2.816,18.262,3.5
				c2.885,0.683,4.195,0.251,4.195,0.251s-4.353-0.603-8.021,2.383c-3.67,2.982-7.852,8.016-12.432,8.182
				c-4.576,0.162-6.31-4.015-6.31-4.015s3.571,1.563,7.298-1.346c3.728-2.912,8.239-3.612,8.239-3.612s-8.166-0.213-12.128,1.946
				C153.45,200.128,152.738,200.567,152.738,200.567z"/>
			<path fill="#95AF2E" d="M154.521,208.946c0,0,1.893-4.527,10.072-2.907c8.18,1.613,8.318,11.801,9.78,14.124
				c1.462,2.316,2.604,2.877,2.604,2.877s-2.482-3.209-6.831-3.616c-4.35-0.409-10.366,0.204-13.492-2.646
				c-3.124-2.857-1.564-6.732-1.564-6.732s1.344,3.345,5.685,3.834c4.341,0.49,7.771,2.946,7.771,2.946s-5.251-5.418-9.257-6.563
				C155.28,209.12,154.521,208.946,154.521,208.946z"/>
			<path fill="#95AF2E" d="M150.232,209.627c0,0-4.658-1.54-8.804,5.696c-4.144,7.238,3.459,14.021,4.255,16.647
				c0.792,2.622,0.467,3.852,0.467,3.852s-0.802-3.977,1.746-7.526c2.545-3.554,6.952-7.692,6.85-11.926
				c-0.108-4.232-4.057-5.596-4.057-5.596s1.64,3.208-0.837,6.807c-2.473,3.601-2.864,7.802-2.864,7.802s-0.653-7.517,1.112-11.294
				C149.864,210.313,150.232,209.627,150.232,209.627z"/>
			<path fill="#95AF2E" d="M153.804,204.831c0.082,1.849-1.349,3.415-3.196,3.498c-1.854,0.08-3.418-1.354-3.501-3.2
				c-0.082-1.852,1.353-3.417,3.202-3.498C152.159,201.55,153.722,202.981,153.804,204.831z"/>
		</g>
	</g>
	<g>
		<g>
			<path fill="#95AF2E" d="M34.216,258.572c0,0,5.135-1.367,9.146,6.714c4.017,8.078-4.631,14.925-5.655,17.712
				c-1.024,2.782-0.753,4.134-0.753,4.134s1.119-4.247-1.406-8.247c-2.522-3.998-7.021-8.753-6.636-13.32
				c0.383-4.563,4.739-5.784,4.739-5.784s-1.979,3.358,0.466,7.406c2.444,4.049,2.599,8.611,2.599,8.611s1.189-8.081-0.481-12.273
				C34.568,259.329,34.216,258.572,34.216,258.572z"/>
			<path fill="#95AF2E" d="M25.683,259.342c0,0,4.269,2.417,1.686,10.345c-2.58,7.931-12.711,6.85-15.191,8.024
				c-2.478,1.174-3.17,2.239-3.17,2.239s3.484-2.079,4.407-6.35c0.928-4.267,1.035-10.314,4.239-13.076
				c3.209-2.763,6.872-0.75,6.872-0.75s-3.481,0.935-4.488,5.185c-1.005,4.251-3.854,7.365-3.854,7.365s6.009-4.566,7.622-8.408
				C25.422,260.073,25.683,259.342,25.683,259.342z"/>
			<path fill="#95AF2E" d="M25.52,255.002c0,0,2.086-4.442-4.602-9.423c-6.691-4.978-14.335,1.759-17.038,2.234
				C1.182,248.287,0,247.817,0,247.817s4.045-0.32,7.265,2.632c3.224,2.952,6.808,7.822,11.022,8.228
				c4.214,0.397,6.04-3.36,6.04-3.36s-3.382,1.246-6.659-1.644c-3.278-2.887-7.401-3.775-7.401-3.775s7.54,0.248,11.078,2.454
				C24.882,254.555,25.52,255.002,25.52,255.002z"/>
			<path fill="#95AF2E" d="M29.856,259.12c-1.845-0.142-3.229-1.749-3.092-3.593c0.142-1.85,1.751-3.231,3.596-3.091
				c1.849,0.138,3.231,1.75,3.091,3.596C33.311,257.879,31.702,259.26,29.856,259.12z"/>
		</g>
	</g>
	<g>
		<g>
			<path fill="#95AF2E" d="M49.134,143.861c0,0,7.018,3.516,3.543,16.381c-3.469,12.872-19.736,11.979-23.6,14.057
				c-3.857,2.077-4.88,3.838-4.88,3.838s5.396-3.604,6.52-10.502c1.124-6.893,0.803-16.556,5.7-21.232
				c4.893-4.673,10.907-1.758,10.907-1.758s-5.478,1.777-6.737,8.649c-1.261,6.872-5.556,12.07-5.556,12.07
				s9.228-7.774,11.484-14.048C48.781,145.045,49.134,143.861,49.134,143.861z"/>
			<path fill="#95AF2E" d="M38.939,136.357c0,0,2.354,6.854-8.266,13.095c-10.619,6.246-20.769-4.868-24.662-5.998
				c-3.89-1.127-5.701-0.623-5.701-0.623s5.892,1.109,11.094-2.71c5.206-3.815,11.245-10.4,17.494-10.316
				c6.255,0.086,8.336,5.897,8.336,5.897s-4.766-2.375-10.042,1.343c-5.273,3.717-11.475,4.372-11.475,4.372
				s11.117,0.833,16.664-1.837C37.935,136.911,38.939,136.357,38.939,136.357z"/>
			<path fill="#95AF2E" d="M43.009,131.396c0,0,6.655-2.872,4.133-14.928c-2.527-12.061-17.579-12.094-21.035-14.213
				c-3.448-2.119-4.296-3.795-4.296-3.795s4.788,3.606,5.459,10.025c0.677,6.423-0.128,15.32,4.14,19.893
				c4.272,4.566,9.971,2.198,9.971,2.198s-4.961-1.934-5.758-8.339c-0.799-6.402-4.49-11.424-4.49-11.424s8.097,7.658,9.852,13.563
				C42.742,130.276,43.009,131.396,43.009,131.396z"/>
			<path fill="#95AF2E" d="M43.772,140.198c-1.903-1.961-1.86-5.096,0.098-7.001c1.967-1.907,5.102-1.859,7.005,0.101
				c1.911,1.964,1.859,5.1-0.102,7.006C48.811,142.207,45.68,142.16,43.772,140.198z"/>
		</g>
	</g>
	<path fill="#95AF2E" d="M124.44,274.767c0.27-0.054,10.741,8.239,17.652,17.771c6.913,9.531,6.901,22.86,3.163,30.692
		c-3.741,7.832-11.263,15.206-20.867,11.882c-12.266-4.248-10.289-17.608-9.152-20.349c1.512-3.646,5.805-11.138,13.96-7.943
		c0.063,0.022,0.161,0.07,0.254,0.107c0,0,5.102,2.813,6.285,7.5c1.186,4.689-1.153,8.741-3.503,9.248s-4.077-1.28-3.977-2.719
		c0.103-1.438,1.058-3.347,3.336-2.485c2.276,0.861,0.708,3.253,0.708,3.253s0.758-1.824-1.087-2.339
		c-1.843-0.52-3.418,1.297-1.464,2.932c1.958,1.634,4.824-0.716,5.026-4.584c0.205-3.864-4.051-7.923-8.123-8.695
		c-2.795-0.53-9.681,0.266-11.217,7.943c-1.535,7.675,3.47,13.432,9.958,15.051c6.489,1.62,14.156-0.797,17.983-9.828
		c3.825-9.029,1.899-16.496,0.319-21.019c-1.583-4.524-6.398-12.364-10.074-16.604C129.948,280.342,124.44,274.767,124.44,274.767z"
		/>
	<path fill="#95AF2E" d="M85.289,308.832c-0.078-0.263-12.279-5.696-23.93-7.397c-11.652-1.704-23.454,4.486-28.659,11.432
		c-5.204,6.948-8.249,17.032-0.85,23.998c9.453,8.896,20.373,0.95,22.273-1.328c2.527-3.03,7.175-10.31,0.563-16.054
		c-0.051-0.044-0.139-0.108-0.216-0.176c0,0-4.855-3.214-9.558-2.09c-4.704,1.128-7.208,5.076-6.566,7.395
		c0.64,2.317,3.023,3.02,4.251,2.263c1.228-0.759,2.475-2.491,0.656-4.107c-1.819-1.619-3.212,0.88-3.212,0.88
		s1.265-1.516,2.578-0.122c1.313,1.392,0.435,3.63-1.92,2.657c-2.355-0.978-1.603-4.607,1.729-6.578
		c3.328-1.976,8.898-0.085,11.47,3.163c1.769,2.229,4.256,8.699-1.833,13.622c-6.09,4.92-13.509,3.152-17.953-1.843
		c-4.445-4.997-5.859-12.912,0.367-20.489c6.226-7.58,13.733-9.336,18.475-10.03c4.74-0.697,13.919-0.067,19.379,1.221
		C77.796,306.538,85.289,308.832,85.289,308.832z"/>
</g>
</svg>
