<svg xmlns="http://www.w3.org/2000/svg" version="1.1" x="0" y="0" width="191.8" height="341" viewBox="0 0 191.8 341" enable-background="new 0 0 191.805 340.982" xml:space="preserve"><path fill="#95AF2E" d="M106.6 160.8c0 0 3.1 3.1 6.6-0.3 0 0 3.1-2.9 2.7-7.3 -0.9 0.6-2.8 1.1-4.3 1.1C110.2 154.4 105.5 155.3 106.6 160.8z"/><path fill="#95AF2E" d="M107 160.7c0 0-4.5 1.7-6.8 1.6"/><path fill="#95AF2E" d="M113.6 166.8c0 0 2.6 4.8 8 1.9 0 0 4.7-2.4 5.8-7.7 -1.3 0.4-3.7 0.3-5.5-0.2C120.1 160.4 114.1 159.8 113.6 166.8z"/><path fill="#95AF2E" d="M114 166.8c0 0-8.1 0.3-11.8-0.7"/><path fill="#95AF2E" d="M107.5 189.2c0 0 5 2.2 2.6 7.8 0 0-2 4.8-7.2 6.4 0.3-1.3 0-3.8-0.6-5.4C101.6 196.2 100.5 190.3 107.5 189.2z"/><path fill="#95AF2E" d="M107.5 189.6c0 0-0.9-9.2-2.6-13.5"/><path fill="#95AF2E" d="M130.1 253.7c0 0-0.7 3.5 3.1 4.3 0 0 3.3 0.7 6.1-1.5 -0.8-0.3-2-1.4-2.6-2.3C136 253.2 133.3 250.5 130.1 253.7z"/><path fill="#95AF2E" d="M130.3 253.9c0 0-3.2-2.2-4.1-3.8"/><path fill="#95AF2E" d="M129.3 261c0 0-2 3.9 2.3 6.2 0 0 3.7 2 7.8 0.4 -0.8-0.7-1.9-2.4-2.3-3.7C136.5 262.5 134.2 258.2 129.3 261z"/><path fill="#95AF2E" d="M129.5 261.3c0 0-3.9-5.3-4.9-8.3"/><path fill="#95AF2E" d="M79.8 164.5c0 0 6.6 8-2.3 15.4 0 0-7.5 6.5-17.8 4.6 1.6-2 3.2-6.4 3.6-9.7C63.9 171.3 67.1 160.4 79.8 164.5z"/><path fill="#95AF2E" d="M79.5 165.3c0 0 6.7-14.4 6.9-22.2"/><path fill="#95AF2E" d="M77.2 149.9c0 0 2.2 7.4-6 9.9 0 0-7 2.3-13.5-1.9 1.7-0.9 4-3.5 5.3-5.6C64.4 150.1 69.7 143.5 77.2 149.9z"/><path fill="#95AF2E" d="M76.8 150.4c0 0 6.4-5.5 8.2-9.1"/><path fill="#95AF2E" d="M134.4 197.8c0 0 1.7 4.6 6.8 2.7 0 0 4.4-1.5 6.1-6.1 -1.2 0.2-3.3-0.2-4.8-0.9C140.9 193 135.8 191.7 134.4 197.8z"/><path fill="#95AF2E" d="M134.8 197.9c0 0-8.4-1-12.1-2.6"/><path fill="#95AF2E" d="M129.1 193.7c0 0 1.7 2.9 4.9 1 0 0 2.8-1.5 3.4-4.8 -0.8 0.3-2.3 0.2-3.3 0C132.9 189.6 129.3 189.4 129.1 193.7z"/><path fill="#95AF2E" d="M129.4 193.7c0 0-5.1 0.6-7.5 0.1"/><path fill="#95AF2E" d="M130.9 200.4c0 0 3.1-0.4 3.6 3 0 0 0.5 2.9-1.6 5.2 -0.3-0.7-1.1-1.8-1.9-2.4C130.2 205.5 127.9 203 130.9 200.4z"/><path fill="#95AF2E" d="M131.1 200.6c0 0-1.8-2.9-3.1-3.8"/><path fill="#95AF2E" d="M137.4 228.9c0 0 3.1-0.4 3.6 3 0 0 0.5 2.9-1.6 5.2 -0.3-0.7-1.1-1.8-1.9-2.4C136.7 234 134.4 231.5 137.4 228.9z"/><path fill="#95AF2E" d="M137.6 229.1c0 0-1.8-2.9-3.1-3.8"/><path fill="#95AF2E" d="M134.2 219.1c0 0 0.5 2.6 3.3 2.1 0 0 2.5-0.4 3.8-2.6 -0.6 0-1.7-0.4-2.5-0.9C138.1 217.2 135.5 216 134.2 219.1z"/><path fill="#95AF2E" d="M134.4 219.2c0 0-4.2-0.9-5.9-2.2"/><path fill="#95AF2E" d="M132.2 243.3c0 0 0.5 2.6 3.3 2.1 0 0 2.5-0.4 3.8-2.6 -0.6 0-1.7-0.4-2.5-0.9C136.1 241.4 133.5 240.2 132.2 243.3z"/><path fill="#95AF2E" d="M132.4 243.4c0 0-2.8-0.7-3.9-1.5"/><path fill="#95AF2E" d="M107 235.3c-0.5-0.6-0.4-1.5 0.3-2 0.6-0.5 1.5-0.4 2 0.3 0.5 0.6 0.4 1.5-0.3 2C108.4 236.1 107.4 235.9 107 235.3z"/><path fill="#95AF2E" d="M109.9 264.4c-0.5-0.6-0.4-1.5 0.3-2s1.5-0.4 2 0.3c0.5 0.6 0.4 1.5-0.3 2C111.2 265.2 110.3 265.1 109.9 264.4z"/><circle fill="#95AF2E" cx="113.2" cy="243" r="1.4"/><circle fill="#95AF2E" cx="112.4" cy="224.5" r="1.4"/><circle fill="#95AF2E" cx="105.7" cy="218.1" r="0.8"/><circle fill="#95AF2E" cx="107.5" cy="224.3" r="0.8"/><circle fill="#95AF2E" cx="106.7" cy="244.5" r="0.8"/><circle fill="#95AF2E" cx="117.4" cy="253.3" r="0.8"/><circle fill="#95AF2E" cx="115.5" cy="250.5" r="0.8"/><circle fill="#95AF2E" cx="113.3" cy="193.2" r="1.4"/><path fill="#95AF2E" d="M100.4 218.8c-0.5-0.6-0.4-1.5 0.3-2 0.6-0.5 1.5-0.4 2 0.3 0.5 0.6 0.4 1.5-0.3 2C101.8 219.6 100.9 219.5 100.4 218.8z"/><path fill="#95AF2E" d="M115.1 223.2c-0.5-0.6-0.4-1.5 0.3-2 0.6-0.5 1.5-0.4 2 0.3 0.5 0.6 0.4 1.5-0.3 2C116.5 224 115.6 223.8 115.1 223.2z"/><circle fill="#95AF2E" cx="97.1" cy="192.6" r="1.4"/><circle fill="#95AF2E" cx="113.3" cy="193.2" r="1.4"/><circle fill="#95AF2E" cx="90.6" cy="194.2" r="0.8"/><path fill="#95AF2E" d="M100.7 203.4c-0.3-0.3-0.2-0.8 0.1-1.1 0.3-0.3 0.8-0.2 1.1 0.1 0.3 0.3 0.2 0.8-0.1 1.1C101.5 203.7 101 203.7 100.7 203.4z"/><circle fill="#95AF2E" cx="93.1" cy="216.6" r="0.8"/><circle fill="#95AF2E" cx="108.8" cy="209" r="1.4"/><circle fill="#95AF2E" cx="51.6" cy="270.1" r="0.8"/><path fill="#95AF2E" d="M52.8 276.8c-0.3-0.3-0.2-0.8 0.1-1.1s0.8-0.2 1.1 0.1c0.3 0.3 0.2 0.8-0.1 1.1S53.1 277.1 52.8 276.8z"/><path fill="#95AF2E" d="M53.5 261.9c-0.5-0.6-0.4-1.5 0.3-2 0.6-0.5 1.5-0.4 2 0.3 0.5 0.6 0.4 1.5-0.3 2C54.9 262.7 54 262.5 53.5 261.9z"/><path fill="#95AF2E" d="M169.4 207c-0.3-0.3-0.2-0.8 0.1-1.1 0.3-0.3 0.8-0.2 1.1 0.1 0.3 0.3 0.2 0.8-0.1 1.1C170.1 207.4 169.6 207.4 169.4 207z"/><path fill="#95AF2E" d="M171.2 213.3c-0.3-0.3-0.2-0.8 0.1-1.1 0.3-0.3 0.8-0.2 1.1 0.1 0.3 0.3 0.2 0.8-0.1 1.1C171.9 213.7 171.4 213.6 171.2 213.3z"/><circle fill="#95AF2E" cx="165.8" cy="206.5" r="1.4"/><circle fill="#95AF2E" cx="173.1" cy="197.6" r="1.4"/><circle fill="#95AF2E" cx="126.8" cy="179.8" r="0.8"/><circle fill="#95AF2E" cx="128.6" cy="186.1" r="0.8"/><path fill="#95AF2E" d="M121.5 180.6c-0.5-0.6-0.4-1.5 0.3-2 0.6-0.5 1.5-0.4 2 0.3 0.5 0.6 0.4 1.5-0.3 2C122.9 181.3 122 181.2 121.5 180.6z"/><circle fill="#95AF2E" cx="129.9" cy="170.8" r="1.4"/><circle fill="#95AF2E" cx="156.2" cy="223.9" r="1.4"/><path fill="#95AF2E" d="M148.9 217.9c-0.3-0.3-0.2-0.8 0.1-1.1 0.3-0.3 0.8-0.2 1.1 0.1 0.3 0.3 0.2 0.8-0.1 1.1C149.6 218.3 149.1 218.2 148.9 217.9z"/><circle fill="#95AF2E" cx="151.3" cy="223.7" r="0.8"/><circle fill="#95AF2E" cx="145.3" cy="217.3" r="1.4"/><path fill="#95AF2E" d="M158.9 222.6c-0.5-0.6-0.4-1.5 0.3-2 0.6-0.5 1.5-0.4 2 0.3 0.5 0.6 0.4 1.5-0.3 2C160.2 223.3 159.3 223.2 158.9 222.6z"/><circle fill="#95AF2E" cx="152.5" cy="208.4" r="1.4"/><circle fill="#95AF2E" cx="81.2" cy="243" r="1.4"/><circle fill="#95AF2E" cx="85.5" cy="233" r="1.4"/><circle fill="#95AF2E" cx="78.8" cy="226.6" r="0.8"/><circle fill="#95AF2E" cx="80.6" cy="232.9" r="0.8"/><circle fill="#95AF2E" cx="89.3" cy="230.9" r="1.4"/><circle fill="#95AF2E" cx="81.9" cy="217.6" r="1.4"/><path fill="#95AF2E" d="M150.7 297.5c-0.5-0.6-0.4-1.5 0.3-2 0.6-0.5 1.5-0.4 2 0.3 0.5 0.6 0.4 1.5-0.3 2S151.1 298.1 150.7 297.5z"/><circle fill="#95AF2E" cx="156.1" cy="286.7" r="1.4"/><path fill="#95AF2E" d="M148.8 280.7c-0.3-0.3-0.2-0.8 0.1-1.1 0.3-0.3 0.8-0.2 1.1 0.1 0.3 0.3 0.2 0.8-0.1 1.1C149.5 281.1 149 281 148.8 280.7z"/><circle fill="#95AF2E" cx="151.2" cy="286.5" r="0.8"/><circle fill="#95AF2E" cx="145.2" cy="280.1" r="1.4"/><circle fill="#95AF2E" cx="159.9" cy="284.5" r="1.4"/><path fill="#95AF2E" d="M151.3 272.1c-0.5-0.6-0.4-1.5 0.3-2 0.6-0.5 1.5-0.4 2 0.3 0.5 0.6 0.4 1.5-0.3 2C152.7 272.8 151.8 272.7 151.3 272.1z"/><circle fill="#95AF2E" cx="100.3" cy="207.7" r="0.8"/><circle fill="#95AF2E" cx="99.2" cy="163.5" r="1.4"/><path fill="#95AF2E" d="M86.2 189.1c-0.5-0.6-0.4-1.5 0.3-2 0.6-0.5 1.5-0.4 2 0.3 0.5 0.6 0.4 1.5-0.3 2C87.6 189.8 86.7 189.7 86.2 189.1z"/><circle fill="#95AF2E" cx="102" cy="192.6" r="1.4"/><circle fill="#95AF2E" cx="82.9" cy="162.9" r="1.4"/><circle fill="#95AF2E" cx="99.2" cy="163.5" r="1.4"/><circle fill="#95AF2E" cx="76.5" cy="164.4" r="0.8"/><circle fill="#95AF2E" cx="87.2" cy="173.1" r="0.8"/><circle fill="#95AF2E" cx="78.9" cy="186.9" r="0.8"/><path fill="#95AF2E" d="M93.4 180.2c-0.5-0.6-0.4-1.5 0.3-2 0.6-0.5 1.5-0.4 2 0.3 0.5 0.6 0.4 1.5-0.3 2C94.8 180.9 93.9 180.8 93.4 180.2z"/><path fill="#95AF2E" d="M85.5 178.4c-0.3-0.3-0.2-0.8 0.1-1.1 0.3-0.3 0.8-0.2 1.1 0.1 0.3 0.3 0.2 0.8-0.1 1.1C86.2 178.8 85.7 178.8 85.5 178.4z"/><path fill="#95AF2E" d="M91.5 305c-0.3-0.3-0.2-0.8 0.1-1.1 0.3-0.3 0.8-0.2 1.1 0.1 0.3 0.3 0.2 0.8-0.1 1.1C92.2 305.4 91.7 305.4 91.5 305z"/><path fill="#95AF2E" d="M98.7 296.1c-0.3-0.3-0.2-0.8 0.1-1.1 0.3-0.3 0.8-0.2 1.1 0.1 0.3 0.3 0.2 0.8-0.1 1.1C99.4 296.5 99 296.5 98.7 296.1z"/><path fill="#95AF2E" d="M56.6 150c-0.5-0.6-0.4-1.5 0.3-2 0.6-0.5 1.5-0.4 2 0.3 0.5 0.6 0.4 1.5-0.3 2C57.9 150.8 57 150.7 56.6 150z"/><path fill="#95AF2E" d="M59.5 179.2c-0.5-0.6-0.4-1.5 0.3-2 0.6-0.5 1.5-0.4 2 0.3 0.5 0.6 0.4 1.5-0.3 2C60.8 179.9 59.9 179.8 59.5 179.2z"/><path fill="#95AF2E" d="M56.6 150c-0.5-0.6-0.4-1.5 0.3-2 0.6-0.5 1.5-0.4 2 0.3 0.5 0.6 0.4 1.5-0.3 2C57.9 150.8 57 150.7 56.6 150z"/><circle fill="#95AF2E" cx="74.6" cy="151" r="1.4"/><circle fill="#95AF2E" cx="63.5" cy="150.4" r="0.8"/><path fill="#95AF2E" d="M97.4 154.6c-0.5-0.6-0.4-1.5 0.3-2 0.6-0.5 1.5-0.4 2 0.3 0.5 0.6 0.4 1.5-0.3 2C98.8 155.4 97.9 155.3 97.4 154.6z"/><circle fill="#95AF2E" cx="90.1" cy="152.4" r="0.8"/><circle fill="#95AF2E" cx="125.1" cy="236.3" r="1.4"/><path fill="#95AF2E" d="M94.6 239.9c-0.8-1-0.6-2.5 0.4-3.3 1-0.8 2.5-0.6 3.3 0.4 0.8 1 0.6 2.5-0.4 3.3C96.9 241.2 95.4 241 94.6 239.9z"/><circle fill="#95AF2E" cx="117.2" cy="207.7" r="2.4"/><circle fill="#95AF2E" cx="135.3" cy="157" r="2.4"/><circle fill="#95AF2E" cx="132.8" cy="274.1" r="2.4"/><path fill="#95AF2E" d="M48.5 230.2c-0.8-1-0.6-2.5 0.4-3.3 1-0.8 2.5-0.6 3.3 0.4 0.8 1 0.6 2.5-0.4 3.3C50.8 231.5 49.3 231.3 48.5 230.2z"/><path fill="#95AF2E" d="M170.4 4.4c-1.1-0.3-49.5 14-64.5 32 -7.9 9.1-25.9 29-26.4 57.4 0.7 22.8-0.7 39.3 17.8 63.7 18.5 24.4 29.8 41.3 31.7 54 1.9 12.6 6.8 38.4-27.6 80.8 -11.6 13.5-24.1 25.6-24.1 25.6s25.1-24.9 36-43.5c10.8-18.6 19.8-40.8 13.6-58.5 -1.3-5.9-6.5-17.9-12.5-26.2 -6-8.3-15.2-20.1-22.1-31.7 -6.9-11.7-20.2-43.6-14.8-64 1.1-6.1 3.6-32.7 22.9-52.6C111.6 29.3 125.5 13.6 167 0 168.5 2 170.4 4.4 170.4 4.4z"/><path fill="#95AF2E" d="M99.6 167.8c-0.2 0.9-1.3 18.9-9.6 32.3 -8.8 14.2-22 25.9-30.6 32.8 -8.6 7-38 29.8-40.8 38.4 1.3-3.8 10.2-16.9 34.1-34.9 9.5-8.2 17.1-13.4 28.1-26.3 7.8-10.5 19.2-29.6 14.2-50C98.7 163.1 99.6 167.8 99.6 167.8z"/><path fill="none" d="M49.9 286.2c0 0 4.3-23 15.2-36.8 11-13.8 21.5-28 23.8-31.9 2.3-3.9 18.6-30.3 9-55.4"/><path fill="#95AF2E" d="M50.6 286.4c1.6-8.5 4.4-16.9 8-24.7 3.3-7.2 8.2-13.2 13-19.4 4.7-6.1 9.4-12.2 13.9-18.5 12.6-17.5 20.7-40.7 13.1-61.8 -0.3-0.8-1.6-0.5-1.3 0.4 8.1 22.6-2 45.8-15.4 64 -8.9 12.1-19.6 23.2-25.7 37.1 -3.1 7.2-5.6 14.9-7 22.5C49.1 286.9 50.4 287.3 50.6 286.4L50.6 286.4z"/><path fill="none" d="M91.9 191.5c0 0-8.4 8.6-14.2 10.9 -6.8 2.6-13-1.5-11-9 1.4-4.6 7.9-11.3 14.1-5.7 1.8 1.9 2.9 4.2 0.3 6.2 -2.4 1.8-5.1 1.4-6.1-0.4"/><path fill="#95AF2E" d="M91.4 191c-3.6 3.7-7.6 7.2-12.1 9.8 -5 2.9-11.8 1.8-12.2-4.9 -0.2-2.8 1.6-5.3 3.4-7.3 1.1-1.2 2.5-2 4.1-2.4 6.1-0.3 6.5 1.9 1 6.6 -0.6-0.7-1.6 0.3-1 1 3.9 4.3 11.7-1 7.6-5.8 -5.6-6.6-13.6-1.8-16.1 5 -2.2 6.1 3.2 11.8 9.3 10.6 6.7-1.4 12.4-7 17-11.7C93 191.4 92 190.4 91.4 191L91.4 191z"/><path fill="none" d="M122 260.2c0 0-0.7 4.9 0.9 10.6 1.6 5.7 3.4 13.9-0.1 17.5 -2.4 2.6-8.5 2.4-7.3-4.9 0.6-3.6 2.7-6.7 6-4.2 2.2 1.7 1 3.3-0.4 4.1"/><path fill="#95AF2E" d="M121.3 260.2c-0.7 5.1 0.8 9.8 1.9 14.7 0.9 4 1.9 9.4-0.9 12.9 -0.9 1.2-2.6 1.4-4 1.2 -1.8-0.9-2.5-2.4-2.3-4.2 -0.3-3.2 1.2-3.8 4.6-2 -0.7 0.5 0 1.7 0.7 1.2 3.8-2.7 0.8-6.9-3.3-6.1 -4 0.8-4.7 9.8-1.6 11.8 4.2 2.7 7.9-1.1 8.8-5.2 1.8-8.1-3.7-16-2.6-24.2C122.8 259.4 121.4 259.4 121.3 260.2L121.3 260.2z"/><path fill="#83205D" d="M139.9 270.9c0.6-0.7 1.3-1.3 2.1-1.9 0 0 0 0 0 0 0 0 0 0 0 0 0 0 0 0 0 0 0 0 0 0 0 0 -0.3-0.3-0.7-0.6-1-0.9 -0.3-0.4-0.6-0.8-0.9-1.2 -1.2-2-0.5-4.7 1.5-5.8 0.2-0.1 0.5-0.2 0.7-0.3 0.2-0.1 0.4-0.1 0.5-0.2 0.3-0.1 0.6-0.2 0.8-0.2 0.1 0 0.1 0 0.2 0 0.1 0 0.3-0.1 0.4-0.1 -0.5-0.9-0.8-1.8-0.9-2.6 -0.3-2.3 1.3-4.5 3.6-4.8 0.9-0.2 1.9-0.1 2.8 0.1 0-0.2 0-0.4 0-0.7 0-0.3 0-0.5 0-0.8 0-0.2 0-0.3 0-0.5 0-0.3 0.1-0.6 0.1-0.9 0.6-2.2 2.9-3.6 5.2-3 0.8 0.2 1.7 0.7 2.5 1.2 0.3-0.9 0.7-1.8 1.2-2.5 1.4-1.9 4.1-2.2 6-0.8 0.3 0.2 0.6 0.5 0.8 0.8 0.2 0.2 0.3 0.4 0.5 0.5 0.1 0.1 0.2 0.2 0.3 0.4 0.1 0.1 0.2 0.3 0.3 0.4 0.4-0.5 0.9-0.9 1.4-1.3 0.2-0.2 0.5-0.4 0.8-0.5 2-1.2 4.6-0.5 5.8 1.5 0.1 0.3 0.3 0.5 0.4 0.8 0.1 0.2 0.1 0.3 0.2 0.5 0.1 0.2 0.2 0.5 0.2 0.7 0.1 0.2 0.1 0.5 0.1 0.7 0.9-0.5 1.8-0.8 2.7-0.9 2.3-0.3 4.5 1.3 4.8 3.6 0.1 0.9 0 1.8-0.2 2.8 1-0.1 1.9-0.1 2.8 0.2 2.2 0.6 3.6 3 3 5.3 -0.2 0.9-0.7 1.7-1.2 2.5 1 0.3 1.8 0.7 2.5 1.3 1.9 1.4 2.2 4.1 0.8 5.9 -0.5 0.7-1.2 1.3-2 1.8 0.5 0.4 1 0.9 1.4 1.4 0.2 0.2 0.3 0.5 0.5 0.7 1.2 2 0.5 4.6-1.5 5.8 -0.8 0.5-1.7 0.8-2.6 0.9 0.5 0.9 0.8 1.7 0.9 2.7 0.3 2.3-1.3 4.5-3.6 4.8 -0.9 0.1-1.8 0-2.8-0.2 0.1 1 0 2-0.2 2.8 -0.6 2.2-2.9 3.6-5.2 3 -0.4-0.1-0.8-0.3-1.1-0.4 0 0-0.1 0-0.1-0.1 -0.4-0.2-0.8-0.5-1.2-0.7 -0.3 1-0.7 1.8-1.3 2.5 -1.4 1.9-4.1 2.2-5.9 0.8 -0.7-0.5-1.3-1.2-1.9-2.1 -0.6 0.7-1.3 1.4-2.1 1.8 -2 1.2-4.7 0.5-5.8-1.6 -0.2-0.3-0.3-0.6-0.4-0.9 0-0.1-0.1-0.2-0.1-0.3 -0.1-0.3-0.2-0.7-0.3-1 0 0 0 0 0-0.1 0-0.1-0.1-0.3-0.1-0.4 -0.9 0.5-1.8 0.8-2.6 0.9 -2.3 0.3-4.5-1.3-4.8-3.6 -0.2-0.9-0.1-1.9 0.1-2.8 -1 0.1-1.9 0.1-2.8-0.2 -2.3-0.6-3.6-2.9-3-5.2 0.1-0.3 0.2-0.6 0.3-0.9 0.2-0.6 0.5-1.1 0.9-1.7 -0.2-0.1-0.4-0.2-0.6-0.2 -0.1 0-0.1 0-0.2-0.1 -0.3-0.1-0.6-0.2-0.8-0.4 -0.3-0.2-0.6-0.4-0.9-0.6C138.9 275.4 138.5 272.7 139.9 270.9z"/><path fill-rule="evenodd" clip-rule="evenodd" fill="#BED630" d="M160.4 251c-0.4 0.5-0.7 1.2-0.9 2 -0.6-0.4-1.3-0.8-2-1 -1.8-0.5-3.6 0.6-4.1 2.4 -0.2 0.7-0.2 1.5-0.1 2.2 -0.8-0.2-1.5-0.2-2.2-0.1 -1.8 0.3-3.1 1.9-2.9 3.8 0.1 0.7 0.4 1.4 0.7 2.1 -0.8 0.1-1.5 0.4-2.1 0.7 -1.6 0.9-2.1 3-1.2 4.6 0.3 0.6 0.9 1.2 1.5 1.6 -0.7 0.4-1.3 0.9-1.7 1.5 -1.1 1.5-0.8 3.6 0.7 4.7 0.6 0.4 1.2 0.8 2 1 -0.4 0.6-0.8 1.3-0.9 2 -0.5 1.8 0.6 3.6 2.4 4.1 0.7 0.2 1.4 0.3 2.2 0.1 -0.2 0.8-0.2 1.5-0.1 2.2 0.3 1.8 1.9 3.1 3.8 2.9 0.7-0.1 1.4-0.4 2.1-0.7 0.1 0.8 0.4 1.5 0.7 2.1 0.9 1.6 3 2.2 4.6 1.2 0.6-0.4 1.2-0.9 1.6-1.5 0.4 0.7 0.9 1.2 1.5 1.7 1.5 1.1 3.6 0.8 4.7-0.6 0.4-0.6 0.8-1.2 1-2 0.6 0.5 1.3 0.8 2 1 1.8 0.5 3.6-0.6 4.1-2.4 0.2-0.7 0.3-1.5 0.2-2.2 0.8 0.2 1.5 0.2 2.2 0.1 1.8-0.2 3.1-1.9 2.9-3.8 -0.1-0.8-0.4-1.4-0.7-2.1 0.8-0.1 1.5-0.4 2.1-0.7 1.6-0.9 2.1-3 1.2-4.6 -0.4-0.6-0.9-1.2-1.5-1.7 0.7-0.4 1.2-0.9 1.6-1.4 1.1-1.5 0.8-3.6-0.6-4.7 -0.6-0.4-1.2-0.8-2-1 0.5-0.6 0.8-1.3 1-2 0.5-1.8-0.6-3.6-2.4-4.1 -0.7-0.1-1.4-0.2-2.2-0.1 0.2-0.8 0.2-1.5 0.2-2.2 -0.2-1.8-1.9-3.1-3.8-2.9 -0.7 0.1-1.4 0.3-2.1 0.7 -0.1-0.8-0.4-1.5-0.7-2.1 -1-1.6-3-2.1-4.6-1.2 -0.6 0.4-1.2 0.9-1.7 1.5 -0.4-0.6-0.9-1.2-1.5-1.6C163.6 249.2 161.5 249.5 160.4 251z"/><path fill-rule="evenodd" clip-rule="evenodd" fill="#FFFFFF" d="M161.7 256c-0.3 0.4-0.5 0.9-0.7 1.5 -0.5-0.3-1-0.6-1.5-0.7 -1.3-0.3-2.7 0.4-3.1 1.8 -0.1 0.5-0.2 1.1-0.1 1.7 -0.6-0.1-1.1-0.2-1.7-0.1 -1.4 0.2-2.3 1.4-2.1 2.8 0.1 0.5 0.3 1 0.5 1.6 -0.6 0.1-1.1 0.3-1.6 0.6 -1.1 0.7-1.6 2.2-0.9 3.4 0.3 0.4 0.6 0.9 1.1 1.2 -0.5 0.3-0.9 0.7-1.3 1.1 -0.8 1.1-0.6 2.7 0.5 3.5 0.4 0.3 0.9 0.6 1.5 0.7 -0.3 0.5-0.6 1-0.7 1.5 -0.3 1.3 0.4 2.7 1.8 3 0.5 0.1 1.1 0.2 1.6 0.1 -0.1 0.6-0.2 1.1-0.1 1.7 0.2 1.4 1.4 2.3 2.8 2.1 0.5-0.1 1-0.3 1.6-0.5 0.1 0.6 0.3 1.1 0.5 1.5 0.7 1.2 2.2 1.6 3.4 0.9 0.5-0.3 0.9-0.6 1.2-1.1 0.3 0.5 0.7 0.9 1.1 1.2 1.1 0.8 2.6 0.6 3.5-0.5 0.3-0.4 0.6-0.9 0.8-1.5 0.5 0.3 0.9 0.6 1.5 0.7 1.3 0.3 2.7-0.5 3-1.8 0.1-0.5 0.2-1.1 0.1-1.7 0.6 0.1 1.1 0.2 1.6 0.1 1.4-0.2 2.3-1.4 2.1-2.8 -0.1-0.6-0.3-1-0.5-1.6 0.6-0.1 1.1-0.3 1.5-0.5 1.2-0.7 1.6-2.2 0.9-3.4 -0.3-0.5-0.6-0.9-1.1-1.2 0.5-0.3 0.9-0.7 1.2-1.1 0.8-1.1 0.6-2.6-0.5-3.5 -0.4-0.3-0.9-0.6-1.5-0.8 0.3-0.5 0.6-0.9 0.7-1.5 0.3-1.3-0.5-2.7-1.8-3.1 -0.5-0.1-1.1-0.1-1.7-0.1 0.1-0.6 0.2-1.1 0.1-1.6 -0.2-1.4-1.4-2.3-2.8-2.1 -0.5 0-1.1 0.2-1.6 0.5 -0.1-0.6-0.3-1.1-0.5-1.6 -0.7-1.2-2.2-1.6-3.4-0.9 -0.5 0.3-0.9 0.6-1.2 1.1 -0.3-0.5-0.7-0.9-1.1-1.2C164.1 254.7 162.5 254.9 161.7 256z"/><path fill="#FF5E79" d="M166.5 271.4c0 0 1.1 0.9 2.6 1.8 0.8 0.5 1.7 1 2.6 1.3 1.5 0.5 2.9 0.6 3.6-0.4 0 0 0.2-0.5 0-1 -0.1-0.2-0.3-0.6-0.9-1 -0.9-0.5-2.1-1-4.9-1C168.7 271.1 167.7 271.2 166.5 271.4z"/><path fill="#FF5E79" d="M164.4 271.9c0 0-0.8 1.2-2 2.4 -0.7 0.7-1.4 1.4-2.2 1.9 -1.3 0.8-2.7 1.3-3.6 0.4 0 0-0.3-0.4-0.3-1 0-0.2 0.1-0.7 0.6-1.2 0.7-0.7 1.8-1.5 4.5-2.1C162.3 272.2 163.3 272.1 164.4 271.9z"/><path fill="#FF5E79" d="M165.1 272.3c0 0-0.9 1.1-1.8 2.6 -0.5 0.8-1 1.7-1.3 2.7 -0.4 1.5-0.6 2.9 0.5 3.6 0 0 0.5 0.2 1 0 0.2-0.1 0.6-0.3 1-0.9 0.5-0.9 1-2.2 0.9-4.9C165.5 274.4 165.3 273.4 165.1 272.3z"/><path fill="#FF5E79" d="M166 272.1c0 0 0.1 1.4 0.4 3.1 0.2 0.9 0.4 2 0.8 2.8 0.7 1.4 1.5 2.6 2.8 2.3 0 0 0.5-0.2 0.7-0.7 0.1-0.2 0.3-0.6 0.2-1.3 -0.2-1-0.7-2.3-2.6-4.2C167.7 273.5 166.9 272.9 166 272.1z"/><path fill="#FF5E79" d="M166.6 270.6c0 0 0.8-1.2 1.9-2.5 0.6-0.7 1.3-1.5 2.1-2 1.3-0.9 2.6-1.5 3.5-0.6 0 0 0.4 0.4 0.3 0.9 0 0.2 0 0.7-0.5 1.2 -0.7 0.8-1.7 1.6-4.4 2.4C168.7 270.2 167.7 270.4 166.6 270.6z"/><path fill="#FF5E79" d="M164.4 271c0 0-1.1-0.9-2.6-1.8 -0.8-0.5-1.8-1-2.7-1.2 -1.5-0.4-2.9-0.5-3.5 0.5 0 0-0.2 0.5 0 1 0.1 0.2 0.3 0.6 0.9 1 0.9 0.5 2.2 1 4.9 0.8C162.3 271.4 163.3 271.3 164.4 271z"/><path fill="#FF5E79" d="M164.9 270.3c0 0-1.2-0.8-2.5-1.9 -0.7-0.6-1.5-1.4-2-2.1 -0.9-1.3-1.4-2.6-0.6-3.5 0 0 0.4-0.4 1-0.3 0.2 0 0.7 0.1 1.2 0.5 0.8 0.7 1.6 1.8 2.4 4.4C164.6 268.1 164.8 269.1 164.9 270.3z"/><path fill="#FF5E79" d="M165.9 270.1c0 0-0.4-1.4-0.6-3.1 -0.1-0.9-0.2-2-0.1-2.9 0.2-1.5 0.6-2.9 1.9-3.1 0 0 0.5 0 0.9 0.4 0.2 0.2 0.5 0.5 0.6 1.2 0.1 1 0.1 2.4-1.1 4.9C167 268.3 166.5 269.1 165.9 270.1z"/><path fill="#E48800" d="M75.9 288.3c0.2-0.3 0.6-0.6 0.9-0.8 0 0 0 0 0 0 0 0 0 0 0 0h0c0 0 0 0 0 0 -0.2-0.1-0.3-0.3-0.4-0.4 -0.1-0.2-0.3-0.3-0.4-0.5 -0.5-0.9-0.2-2 0.6-2.5 0.1-0.1 0.2-0.1 0.3-0.1 0.1 0 0.2-0.1 0.2-0.1 0.1 0 0.2-0.1 0.4-0.1 0 0 0.1 0 0.1 0 0.1 0 0.1 0 0.2 0 -0.2-0.4-0.4-0.8-0.4-1.1 -0.1-1 0.6-1.9 1.6-2.1 0.4-0.1 0.8 0 1.2 0.1 0-0.1 0-0.2 0-0.3 0-0.1 0-0.2 0-0.4 0-0.1 0-0.1 0-0.2 0-0.1 0-0.3 0.1-0.4 0.3-1 1.3-1.6 2.3-1.3 0.4 0.1 0.7 0.3 1.1 0.5 0.1-0.4 0.3-0.8 0.5-1.1 0.6-0.8 1.8-0.9 2.6-0.3 0.1 0.1 0.2 0.2 0.4 0.3 0.1 0.1 0.1 0.2 0.2 0.2 0 0.1 0.1 0.1 0.1 0.2 0 0.1 0.1 0.1 0.1 0.2 0.2-0.2 0.4-0.4 0.6-0.6 0.1-0.1 0.2-0.2 0.3-0.2 0.9-0.5 2-0.2 2.5 0.6 0.1 0.1 0.1 0.2 0.2 0.3 0 0.1 0.1 0.1 0.1 0.2 0 0.1 0.1 0.2 0.1 0.3 0 0.1 0 0.2 0.1 0.3 0.4-0.2 0.8-0.4 1.2-0.4 1-0.1 1.9 0.6 2.1 1.6 0.1 0.4 0 0.8-0.1 1.2 0.4 0 0.8 0 1.2 0.1 1 0.3 1.6 1.3 1.3 2.3 -0.1 0.4-0.3 0.7-0.5 1.1 0.4 0.1 0.8 0.3 1.1 0.6 0.8 0.6 1 1.8 0.3 2.6 -0.2 0.3-0.5 0.6-0.9 0.8 0.2 0.2 0.4 0.4 0.6 0.6 0.1 0.1 0.1 0.2 0.2 0.3 0.5 0.9 0.2 2-0.7 2.5 -0.3 0.2-0.7 0.3-1.1 0.4 0.2 0.4 0.3 0.8 0.4 1.2 0.1 1-0.6 1.9-1.6 2.1 -0.4 0-0.8 0-1.2-0.1 0 0.4 0 0.9-0.1 1.2 -0.2 1-1.3 1.6-2.2 1.3 -0.2 0-0.3-0.1-0.5-0.2 0 0 0 0-0.1 0 -0.2-0.1-0.4-0.2-0.5-0.3 -0.1 0.4-0.3 0.8-0.6 1.1 -0.6 0.8-1.8 1-2.6 0.4 -0.3-0.2-0.6-0.5-0.8-0.9 -0.3 0.3-0.6 0.6-0.9 0.8 -0.9 0.5-2 0.2-2.5-0.7 -0.1-0.1-0.1-0.2-0.2-0.4 0 0 0-0.1 0-0.1 0-0.1-0.1-0.3-0.1-0.4 0 0 0 0 0 0 0-0.1 0-0.1 0-0.2 -0.4 0.2-0.8 0.4-1.1 0.4 -1 0.1-1.9-0.6-2.1-1.6 -0.1-0.4 0-0.8 0.1-1.2 -0.4 0.1-0.8 0-1.2-0.1 -1-0.3-1.6-1.3-1.3-2.2 0-0.1 0.1-0.2 0.1-0.4 0.1-0.2 0.2-0.5 0.4-0.7 -0.1 0-0.2-0.1-0.3-0.1 0 0 0 0-0.1 0 -0.1-0.1-0.2-0.1-0.4-0.2 -0.1-0.1-0.3-0.2-0.4-0.2C75.5 290.3 75.3 289.1 75.9 288.3z"/><path fill-rule="evenodd" clip-rule="evenodd" fill="#BED630" d="M84.8 279.6c-0.2 0.2-0.3 0.5-0.4 0.9 -0.3-0.2-0.6-0.3-0.9-0.4 -0.8-0.2-1.6 0.3-1.8 1 -0.1 0.3-0.1 0.6 0 1 -0.3-0.1-0.7-0.1-1 0 -0.8 0.1-1.3 0.8-1.2 1.6 0 0.3 0.2 0.6 0.3 0.9 -0.3 0.1-0.6 0.2-0.9 0.3 -0.7 0.4-0.9 1.3-0.5 2 0.1 0.3 0.4 0.5 0.6 0.7 -0.3 0.2-0.5 0.4-0.7 0.6 -0.5 0.6-0.3 1.6 0.3 2 0.2 0.2 0.5 0.3 0.9 0.4 -0.2 0.3-0.3 0.6-0.4 0.9 -0.2 0.8 0.3 1.6 1 1.8 0.3 0.1 0.6 0.1 1 0.1 -0.1 0.3-0.1 0.7-0.1 1 0.1 0.8 0.8 1.3 1.6 1.2 0.3 0 0.6-0.2 0.9-0.3 0.1 0.3 0.2 0.6 0.3 0.9 0.4 0.7 1.3 0.9 2 0.5 0.3-0.2 0.5-0.4 0.7-0.6 0.2 0.3 0.4 0.5 0.7 0.7 0.6 0.5 1.5 0.4 2-0.3 0.2-0.2 0.3-0.5 0.4-0.9 0.3 0.2 0.6 0.3 0.9 0.4 0.8 0.2 1.6-0.3 1.8-1 0.1-0.3 0.1-0.6 0.1-1 0.3 0.1 0.6 0.1 1 0.1 0.8-0.1 1.4-0.8 1.2-1.6 0-0.3-0.2-0.6-0.3-0.9 0.3 0 0.6-0.2 0.9-0.3 0.7-0.4 0.9-1.3 0.5-2 -0.2-0.3-0.4-0.5-0.6-0.7 0.3-0.2 0.5-0.4 0.7-0.6 0.5-0.6 0.4-1.5-0.3-2 -0.3-0.2-0.5-0.3-0.9-0.4 0.2-0.3 0.3-0.5 0.4-0.9 0.2-0.8-0.3-1.6-1-1.8 -0.3-0.1-0.6-0.1-1-0.1 0.1-0.3 0.1-0.7 0.1-1 -0.1-0.8-0.8-1.4-1.6-1.2 -0.3 0-0.6 0.1-0.9 0.3 0-0.3-0.2-0.6-0.3-0.9 -0.4-0.7-1.3-0.9-2-0.5 -0.3 0.2-0.5 0.4-0.7 0.6 -0.2-0.3-0.4-0.5-0.6-0.7C86.2 278.9 85.3 279 84.8 279.6z"/><path fill-rule="evenodd" clip-rule="evenodd" fill="#FFFFFF" d="M85.3 281.8c-0.1 0.2-0.2 0.4-0.3 0.6 -0.2-0.1-0.4-0.3-0.6-0.3 -0.6-0.1-1.2 0.2-1.3 0.8 0 0.2-0.1 0.5 0 0.7 -0.2-0.1-0.5-0.1-0.7 0 -0.6 0.1-1 0.6-0.9 1.2 0 0.2 0.1 0.5 0.2 0.7 -0.3 0-0.5 0.1-0.7 0.2 -0.5 0.3-0.7 1-0.4 1.5 0.1 0.2 0.3 0.4 0.5 0.5 -0.2 0.1-0.4 0.3-0.5 0.5 -0.4 0.5-0.3 1.2 0.2 1.5 0.2 0.1 0.4 0.2 0.6 0.3 -0.1 0.2-0.2 0.4-0.3 0.6 -0.1 0.6 0.2 1.2 0.8 1.3 0.2 0.1 0.5 0.1 0.7 0 -0.1 0.2-0.1 0.5 0 0.7 0.1 0.6 0.6 1 1.2 0.9 0.2 0 0.5-0.1 0.7-0.2 0 0.3 0.1 0.5 0.2 0.7 0.3 0.5 1 0.7 1.5 0.4 0.2-0.1 0.4-0.3 0.5-0.5 0.1 0.2 0.3 0.4 0.5 0.5 0.5 0.4 1.1 0.3 1.5-0.2 0.1-0.2 0.2-0.4 0.3-0.6 0.2 0.1 0.4 0.3 0.6 0.3 0.6 0.2 1.2-0.2 1.3-0.8 0.1-0.2 0.1-0.5 0.1-0.7 0.2 0.1 0.5 0.1 0.7 0 0.6-0.1 1-0.6 0.9-1.2 0-0.2-0.1-0.4-0.2-0.7 0.2 0 0.5-0.1 0.7-0.2 0.5-0.3 0.7-1 0.4-1.5 -0.1-0.2-0.3-0.4-0.5-0.5 0.2-0.1 0.4-0.3 0.5-0.5 0.4-0.5 0.3-1.1-0.2-1.5 -0.2-0.1-0.4-0.2-0.6-0.3 0.1-0.2 0.3-0.4 0.3-0.6 0.1-0.6-0.2-1.2-0.8-1.3 -0.2 0-0.5-0.1-0.7 0 0.1-0.2 0.1-0.5 0-0.7 -0.1-0.6-0.6-1-1.2-0.9 -0.2 0-0.5 0.1-0.7 0.2 0-0.2-0.1-0.5-0.2-0.7 -0.3-0.5-1-0.7-1.5-0.4 -0.2 0.1-0.4 0.3-0.5 0.5 -0.1-0.2-0.3-0.4-0.5-0.5C86.4 281.3 85.7 281.3 85.3 281.8z"/><path fill="#FF5E79" d="M87.5 288.5c0 0 0.5 0.4 1.1 0.8 0.4 0.2 0.7 0.4 1.1 0.6 0.6 0.2 1.3 0.3 1.5-0.2 0 0 0.1-0.2 0-0.4 0-0.1-0.1-0.3-0.4-0.4 -0.4-0.2-0.9-0.4-2.1-0.4C88.4 288.4 88 288.4 87.5 288.5z"/><path fill="#FF5E79" d="M86.6 288.8c0 0-0.4 0.5-0.9 1 -0.3 0.3-0.6 0.6-1 0.8 -0.6 0.4-1.2 0.6-1.5 0.2 0 0-0.2-0.2-0.1-0.4 0-0.1 0-0.3 0.3-0.5 0.3-0.3 0.8-0.7 2-0.9C85.6 288.9 86.1 288.8 86.6 288.8z"/><path fill="#FF5E79" d="M86.8 288.9c0 0-0.4 0.5-0.8 1.1 -0.2 0.4-0.4 0.8-0.5 1.2 -0.2 0.6-0.2 1.3 0.2 1.5 0 0 0.2 0.1 0.4 0 0.1 0 0.3-0.1 0.4-0.4 0.2-0.4 0.4-0.9 0.4-2.1C87 289.8 86.9 289.4 86.8 288.9z"/><path fill="#FF5E79" d="M87.2 288.8c0 0 0 0.6 0.2 1.4 0.1 0.4 0.2 0.9 0.4 1.2 0.3 0.6 0.7 1.1 1.2 1 0 0 0.2-0.1 0.3-0.3 0-0.1 0.1-0.3 0.1-0.6 -0.1-0.4-0.3-1-1.1-1.8C88 289.4 87.6 289.2 87.2 288.8z"/><path fill="#FF5E79" d="M87.5 288.2c0 0 0.3-0.5 0.8-1.1 0.3-0.3 0.6-0.6 0.9-0.9 0.5-0.4 1.1-0.6 1.5-0.3 0 0 0.2 0.2 0.1 0.4 0 0.1 0 0.3-0.2 0.5 -0.3 0.3-0.8 0.7-1.9 1C88.4 288 88 288.1 87.5 288.2z"/><path fill="#FF5E79" d="M86.5 288.4c0 0-0.5-0.4-1.1-0.8 -0.4-0.2-0.8-0.4-1.2-0.5 -0.6-0.2-1.3-0.2-1.5 0.2 0 0-0.1 0.2 0 0.4 0 0.1 0.1 0.3 0.4 0.4 0.4 0.2 0.9 0.4 2.1 0.4C85.6 288.5 86 288.5 86.5 288.4z"/><path fill="#FF5E79" d="M86.8 288c0 0-0.5-0.3-1.1-0.8 -0.3-0.3-0.6-0.6-0.9-0.9 -0.4-0.6-0.6-1.1-0.3-1.5 0 0 0.2-0.2 0.4-0.1 0.1 0 0.3 0 0.5 0.2 0.3 0.3 0.7 0.8 1 1.9C86.6 287.1 86.7 287.5 86.8 288z"/><path fill="#FF5E79" d="M87.2 288c0 0-0.2-0.6-0.3-1.3 -0.1-0.4-0.1-0.9-0.1-1.3 0.1-0.7 0.3-1.3 0.8-1.3 0 0 0.2 0 0.4 0.2 0.1 0.1 0.2 0.2 0.3 0.5 0.1 0.4 0 1-0.5 2.1C87.7 287.2 87.5 287.5 87.2 288z"/><path fill="#E48800" d="M134.8 169.9c0.4-0.5 0.9-0.9 1.4-1.3 0 0 0 0 0 0 0 0 0 0 0 0 0 0 0 0 0 0 0 0 0 0 0 0 -0.2-0.2-0.5-0.4-0.7-0.6 -0.2-0.3-0.4-0.5-0.6-0.8 -0.8-1.4-0.3-3.2 1-4 0.2-0.1 0.3-0.2 0.5-0.2 0.1-0.1 0.2-0.1 0.4-0.1 0.2-0.1 0.4-0.1 0.6-0.2 0 0 0.1 0 0.1 0 0.1 0 0.2 0 0.3-0.1 -0.3-0.6-0.6-1.2-0.6-1.8 -0.2-1.6 0.9-3 2.5-3.3 0.6-0.1 1.3-0.1 1.9 0.1 0-0.2 0-0.3 0-0.5 0-0.2 0-0.4 0-0.6 0-0.1 0-0.2 0-0.3 0-0.2 0.1-0.4 0.1-0.6 0.4-1.5 2-2.4 3.6-2 0.6 0.1 1.2 0.4 1.7 0.8 0.2-0.6 0.5-1.2 0.8-1.7 1-1.3 2.8-1.5 4.1-0.5 0.2 0.2 0.4 0.3 0.6 0.5 0.1 0.1 0.2 0.2 0.3 0.4 0.1 0.1 0.1 0.2 0.2 0.3 0.1 0.1 0.1 0.2 0.2 0.3 0.3-0.3 0.6-0.6 0.9-0.9 0.2-0.1 0.3-0.3 0.5-0.4 1.4-0.8 3.2-0.3 4 1 0.1 0.2 0.2 0.4 0.2 0.5 0 0.1 0.1 0.2 0.1 0.3 0.1 0.2 0.1 0.3 0.1 0.5 0 0.2 0.1 0.3 0.1 0.5 0.6-0.3 1.2-0.6 1.8-0.6 1.6-0.2 3.1 0.9 3.3 2.5 0.1 0.6 0 1.2-0.1 1.9 0.7-0.1 1.3-0.1 1.9 0.1 1.5 0.4 2.5 2 2.1 3.6 -0.2 0.6-0.5 1.2-0.8 1.7 0.7 0.2 1.2 0.5 1.7 0.9 1.3 1 1.5 2.8 0.6 4.1 -0.4 0.5-0.8 0.9-1.4 1.3 0.4 0.3 0.7 0.6 0.9 1 0.1 0.2 0.2 0.3 0.3 0.5 0.8 1.4 0.3 3.2-1 4 -0.5 0.3-1.2 0.5-1.8 0.6 0.3 0.6 0.5 1.2 0.6 1.8 0.2 1.6-0.9 3.1-2.5 3.3 -0.6 0.1-1.3 0-1.9-0.1 0.1 0.7 0 1.3-0.2 1.9 -0.4 1.5-2 2.5-3.5 2.1 -0.3-0.1-0.5-0.2-0.8-0.3 0 0-0.1 0-0.1 0 -0.3-0.1-0.6-0.3-0.8-0.5 -0.2 0.7-0.5 1.2-0.9 1.7 -1 1.3-2.8 1.5-4.1 0.6 -0.5-0.4-0.9-0.8-1.3-1.4 -0.4 0.5-0.9 1-1.4 1.3 -1.4 0.8-3.2 0.3-4-1.1 -0.1-0.2-0.2-0.4-0.3-0.6 0-0.1 0-0.1-0.1-0.2 -0.1-0.2-0.1-0.5-0.2-0.7 0 0 0 0 0 0 0-0.1 0-0.2-0.1-0.3 -0.6 0.3-1.2 0.6-1.8 0.6 -1.6 0.2-3-0.9-3.3-2.5 -0.1-0.6-0.1-1.3 0.1-1.9 -0.7 0.1-1.3 0-1.9-0.1 -1.6-0.4-2.5-2-2.1-3.5 0.1-0.2 0.1-0.4 0.2-0.6 0.2-0.4 0.4-0.8 0.6-1.1 -0.1 0-0.3-0.1-0.4-0.2 0 0-0.1 0-0.1 0 -0.2-0.1-0.4-0.2-0.6-0.3 -0.2-0.1-0.4-0.2-0.6-0.4C134.1 173 133.8 171.2 134.8 169.9z"/><path fill-rule="evenodd" clip-rule="evenodd" fill="#BED630" d="M148.8 156.3c-0.3 0.4-0.5 0.8-0.6 1.3 -0.4-0.3-0.9-0.5-1.4-0.6 -1.2-0.3-2.5 0.4-2.8 1.6 -0.1 0.5-0.1 1-0.1 1.5 -0.5-0.1-1-0.2-1.5-0.1 -1.3 0.2-2.1 1.3-2 2.6 0.1 0.5 0.2 1 0.5 1.4 -0.5 0.1-1 0.3-1.5 0.5 -1.1 0.6-1.4 2-0.8 3.1 0.2 0.4 0.6 0.8 1 1.1 -0.5 0.3-0.9 0.6-1.2 1 -0.8 1-0.5 2.5 0.5 3.2 0.4 0.3 0.8 0.5 1.3 0.7 -0.3 0.4-0.5 0.9-0.6 1.4 -0.3 1.2 0.4 2.5 1.6 2.8 0.5 0.1 1 0.2 1.5 0.1 -0.1 0.5-0.2 1-0.1 1.5 0.2 1.2 1.3 2.1 2.6 2 0.5-0.1 1-0.2 1.4-0.5 0.1 0.5 0.3 1 0.5 1.4 0.6 1.1 2 1.5 3.1 0.8 0.4-0.3 0.8-0.6 1.1-1 0.3 0.5 0.6 0.8 1 1.1 1 0.8 2.4 0.6 3.2-0.4 0.3-0.4 0.5-0.8 0.7-1.4 0.4 0.3 0.9 0.5 1.3 0.7 1.2 0.3 2.5-0.4 2.8-1.6 0.1-0.5 0.2-1 0.1-1.5 0.5 0.1 1 0.1 1.5 0.1 1.3-0.2 2.1-1.3 2-2.6 -0.1-0.5-0.2-1-0.5-1.5 0.5-0.1 1-0.2 1.4-0.5 1.1-0.6 1.5-2 0.8-3.1 -0.3-0.4-0.6-0.8-1-1.1 0.4-0.3 0.8-0.6 1.1-1 0.8-1 0.6-2.4-0.4-3.2 -0.4-0.3-0.8-0.5-1.4-0.7 0.3-0.4 0.5-0.9 0.7-1.3 0.3-1.2-0.4-2.5-1.6-2.8 -0.5-0.1-1-0.1-1.5-0.1 0.1-0.5 0.2-1 0.1-1.5 -0.2-1.3-1.3-2.1-2.6-2 -0.5 0-1 0.2-1.5 0.5 -0.1-0.5-0.2-1-0.5-1.5 -0.7-1.1-2-1.4-3.1-0.8 -0.4 0.3-0.8 0.6-1.1 1 -0.3-0.4-0.6-0.8-1-1.1C151 155.1 149.6 155.3 148.8 156.3z"/><path fill-rule="evenodd" clip-rule="evenodd" fill="#FFFFFF" d="M149.7 159.7c-0.2 0.3-0.4 0.6-0.5 1 -0.3-0.2-0.7-0.4-1-0.5 -0.9-0.2-1.8 0.3-2.1 1.2 -0.1 0.4-0.1 0.8-0.1 1.1 -0.4-0.1-0.8-0.1-1.1-0.1 -0.9 0.1-1.6 1-1.5 1.9 0 0.4 0.2 0.7 0.4 1.1 -0.4 0.1-0.8 0.2-1.1 0.4 -0.8 0.5-1.1 1.5-0.6 2.3 0.2 0.3 0.4 0.6 0.8 0.8 -0.3 0.2-0.6 0.5-0.9 0.8 -0.6 0.7-0.4 1.8 0.3 2.4 0.3 0.2 0.6 0.4 1 0.5 -0.2 0.3-0.4 0.7-0.5 1 -0.2 0.9 0.3 1.8 1.2 2.1 0.4 0.1 0.7 0.1 1.1 0.1 -0.1 0.4-0.1 0.8-0.1 1.1 0.1 0.9 1 1.6 1.9 1.5 0.4 0 0.7-0.2 1.1-0.4 0.1 0.4 0.2 0.8 0.4 1.1 0.5 0.8 1.5 1.1 2.3 0.6 0.3-0.2 0.6-0.4 0.8-0.8 0.2 0.3 0.5 0.6 0.8 0.8 0.8 0.6 1.8 0.4 2.4-0.3 0.2-0.3 0.4-0.6 0.5-1 0.3 0.2 0.6 0.4 1 0.5 0.9 0.2 1.9-0.3 2.1-1.2 0.1-0.4 0.1-0.7 0.1-1.1 0.4 0.1 0.7 0.1 1.1 0.1 0.9-0.1 1.6-1 1.5-1.9 -0.1-0.4-0.2-0.7-0.4-1.1 0.4-0.1 0.7-0.2 1.1-0.4 0.8-0.5 1.1-1.5 0.6-2.3 -0.2-0.3-0.4-0.6-0.7-0.8 0.3-0.2 0.6-0.5 0.8-0.7 0.6-0.7 0.4-1.8-0.3-2.4 -0.3-0.2-0.6-0.4-1-0.5 0.2-0.3 0.4-0.6 0.5-1 0.2-0.9-0.3-1.9-1.2-2.1 -0.4-0.1-0.7-0.1-1.1-0.1 0.1-0.4 0.1-0.8 0.1-1.1 -0.1-0.9-1-1.6-1.9-1.5 -0.4 0-0.7 0.2-1.1 0.4 -0.1-0.4-0.2-0.7-0.4-1.1 -0.5-0.8-1.5-1.1-2.3-0.6 -0.3 0.2-0.6 0.4-0.8 0.7 -0.2-0.3-0.5-0.6-0.7-0.8C151.3 158.8 150.3 159 149.7 159.7z"/><path fill="#FF5E79" d="M153 170.2c0 0 0.8 0.6 1.8 1.3 0.6 0.3 1.2 0.7 1.8 0.9 1 0.3 2 0.4 2.4-0.3 0 0 0.2-0.3 0-0.7 -0.1-0.2-0.2-0.4-0.6-0.7 -0.6-0.4-1.5-0.7-3.3-0.7C154.5 170.1 153.8 170.1 153 170.2z"/><path fill="#FF5E79" d="M151.6 170.6c0 0-0.6 0.8-1.4 1.6 -0.5 0.5-1 1-1.5 1.3 -0.9 0.6-1.8 0.9-2.4 0.3 0 0-0.2-0.3-0.2-0.7 0-0.2 0.1-0.5 0.4-0.8 0.5-0.5 1.3-1 3.1-1.5C150.1 170.8 150.8 170.7 151.6 170.6z"/><path fill="#FF5E79" d="M152.1 170.9c0 0-0.6 0.8-1.2 1.8 -0.3 0.6-0.7 1.2-0.9 1.8 -0.3 1-0.4 2 0.4 2.4 0 0 0.3 0.2 0.7 0 0.2-0.1 0.4-0.2 0.7-0.6 0.4-0.6 0.7-1.5 0.6-3.4C152.3 172.3 152.2 171.6 152.1 170.9z"/><path fill="#FF5E79" d="M152.7 170.8c0 0 0.1 1 0.3 2.1 0.1 0.6 0.3 1.3 0.6 1.9 0.5 1 1.1 1.7 1.9 1.6 0 0 0.4-0.1 0.5-0.5 0.1-0.2 0.2-0.4 0.1-0.9 -0.1-0.7-0.5-1.5-1.8-2.9C153.8 171.7 153.3 171.3 152.7 170.8z"/><path fill="#FF5E79" d="M153 169.7c0 0 0.5-0.8 1.3-1.7 0.4-0.5 0.9-1 1.4-1.4 0.9-0.6 1.8-1 2.4-0.4 0 0 0.3 0.3 0.2 0.6 0 0.2 0 0.5-0.4 0.8 -0.5 0.5-1.2 1.1-3 1.6C154.5 169.4 153.8 169.6 153 169.7z"/><path fill="#FF5E79" d="M151.6 170c0 0-0.8-0.6-1.8-1.2 -0.6-0.3-1.2-0.7-1.8-0.9 -1-0.3-2-0.4-2.4 0.4 0 0-0.2 0.3 0 0.7 0.1 0.2 0.2 0.4 0.6 0.7 0.6 0.4 1.5 0.7 3.4 0.6C150.1 170.3 150.8 170.2 151.6 170z"/><path fill="#FF5E79" d="M151.9 169.5c0 0-0.8-0.5-1.7-1.3 -0.5-0.4-1-0.9-1.4-1.5 -0.6-0.9-1-1.8-0.4-2.4 0 0 0.3-0.2 0.7-0.2 0.2 0 0.5 0 0.8 0.4 0.5 0.5 1.1 1.2 1.6 3C151.7 168 151.8 168.7 151.9 169.5z"/><path fill="#FF5E79" d="M152.6 169.4c0 0-0.3-1-0.4-2.1 -0.1-0.6-0.2-1.4-0.1-2 0.1-1 0.4-2 1.3-2.1 0 0 0.4 0 0.6 0.3 0.1 0.1 0.3 0.3 0.4 0.8 0.1 0.7 0 1.6-0.8 3.3C153.4 168.1 153 168.7 152.6 169.4z"/><path fill="#3EBDD4" d="M84.4 233.9c0.4-0.5 0.9-0.9 1.4-1.3 0 0 0 0 0 0 0 0 0 0 0 0l0 0c0 0 0 0 0 0 -0.2-0.2-0.5-0.4-0.7-0.6 -0.2-0.3-0.4-0.5-0.6-0.8 -0.8-1.4-0.3-3.2 1-4 0.2-0.1 0.3-0.2 0.5-0.2 0.1-0.1 0.2-0.1 0.4-0.1 0.2-0.1 0.4-0.1 0.6-0.2 0 0 0.1 0 0.1 0 0.1 0 0.2 0 0.3-0.1 -0.3-0.6-0.6-1.2-0.6-1.8 -0.2-1.6 0.9-3 2.5-3.3 0.6-0.1 1.3-0.1 1.9 0.1 0-0.2 0-0.3 0-0.5 0-0.2 0-0.4 0-0.6 0-0.1 0-0.2 0-0.3 0-0.2 0.1-0.4 0.1-0.6 0.4-1.5 2-2.4 3.6-2 0.6 0.1 1.2 0.4 1.7 0.8 0.2-0.6 0.4-1.2 0.8-1.7 1-1.3 2.8-1.5 4.1-0.5 0.2 0.2 0.4 0.3 0.6 0.5 0.1 0.1 0.2 0.2 0.3 0.4 0.1 0.1 0.1 0.2 0.2 0.3 0.1 0.1 0.1 0.2 0.2 0.3 0.3-0.3 0.6-0.6 0.9-0.9 0.2-0.1 0.3-0.3 0.5-0.4 1.4-0.8 3.2-0.3 4 1 0.1 0.2 0.2 0.4 0.2 0.5 0 0.1 0.1 0.2 0.1 0.3 0.1 0.2 0.1 0.3 0.1 0.5 0 0.2 0.1 0.3 0.1 0.5 0.6-0.3 1.2-0.6 1.8-0.6 1.6-0.2 3.1 0.9 3.3 2.5 0.1 0.6 0 1.2-0.1 1.9 0.7-0.1 1.3-0.1 1.9 0.1 1.5 0.4 2.5 2 2.1 3.6 -0.2 0.6-0.5 1.2-0.8 1.7 0.7 0.2 1.2 0.5 1.7 0.9 1.3 1 1.5 2.8 0.6 4.1 -0.4 0.5-0.8 0.9-1.4 1.3 0.4 0.3 0.7 0.6 0.9 1 0.1 0.2 0.2 0.3 0.3 0.5 0.8 1.4 0.3 3.2-1 4 -0.5 0.3-1.2 0.5-1.8 0.6 0.3 0.6 0.5 1.2 0.6 1.8 0.2 1.6-0.9 3-2.5 3.3 -0.6 0.1-1.3 0-1.9-0.1 0.1 0.7 0 1.3-0.2 1.9 -0.4 1.5-2 2.5-3.5 2.1 -0.3-0.1-0.5-0.2-0.8-0.3 0 0-0.1 0-0.1 0 -0.3-0.1-0.6-0.3-0.8-0.5 -0.2 0.7-0.5 1.2-0.9 1.7 -1 1.3-2.8 1.5-4.1 0.6 -0.5-0.4-0.9-0.8-1.3-1.4 -0.4 0.5-0.9 1-1.4 1.3 -1.4 0.8-3.2 0.3-4-1.1 -0.1-0.2-0.2-0.4-0.3-0.6 0-0.1-0.1-0.1-0.1-0.2 -0.1-0.2-0.1-0.4-0.2-0.7 0 0 0 0 0 0 0-0.1 0-0.2-0.1-0.3 -0.6 0.3-1.2 0.6-1.8 0.6 -1.6 0.2-3.1-0.9-3.3-2.5 -0.1-0.6-0.1-1.3 0.1-1.9 -0.7 0.1-1.3 0-1.9-0.1 -1.6-0.4-2.5-2-2.1-3.5 0.1-0.2 0.1-0.4 0.2-0.6 0.2-0.4 0.4-0.8 0.6-1.1 -0.1 0-0.3-0.1-0.4-0.2 0 0-0.1 0-0.1 0 -0.2-0.1-0.4-0.2-0.6-0.3 -0.2-0.1-0.4-0.2-0.6-0.4C83.7 237 83.4 235.2 84.4 233.9z"/><path fill-rule="evenodd" clip-rule="evenodd" fill="#BED630" d="M98.4 220.3c-0.3 0.4-0.5 0.8-0.6 1.3 -0.4-0.3-0.9-0.5-1.4-0.7 -1.2-0.3-2.5 0.4-2.8 1.6 -0.1 0.5-0.1 1-0.1 1.5 -0.5-0.1-1-0.2-1.5-0.1 -1.3 0.2-2.1 1.3-2 2.6 0.1 0.5 0.2 1 0.5 1.4 -0.5 0.1-1 0.3-1.5 0.5 -1.1 0.6-1.4 2-0.8 3.1 0.2 0.4 0.6 0.8 1 1.1 -0.5 0.3-0.9 0.6-1.2 1 -0.8 1-0.5 2.5 0.5 3.2 0.4 0.3 0.8 0.5 1.3 0.7 -0.3 0.4-0.5 0.9-0.6 1.4 -0.3 1.2 0.4 2.5 1.6 2.8 0.5 0.1 1 0.2 1.5 0.1 -0.1 0.5-0.2 1-0.1 1.5 0.2 1.2 1.3 2.1 2.6 2 0.5-0.1 1-0.2 1.4-0.5 0.1 0.5 0.3 1 0.5 1.4 0.6 1.1 2 1.5 3.1 0.8 0.4-0.3 0.8-0.6 1.1-1 0.3 0.5 0.6 0.8 1 1.1 1 0.8 2.4 0.6 3.2-0.4 0.3-0.4 0.5-0.8 0.7-1.4 0.4 0.3 0.9 0.5 1.3 0.7 1.2 0.3 2.5-0.4 2.8-1.6 0.1-0.5 0.2-1 0.1-1.5 0.5 0.1 1 0.1 1.5 0.1 1.3-0.2 2.1-1.3 2-2.6 -0.1-0.5-0.2-1-0.5-1.4 0.5-0.1 1-0.2 1.4-0.5 1.1-0.6 1.5-2 0.8-3.1 -0.3-0.4-0.6-0.8-1-1.1 0.4-0.3 0.8-0.6 1.1-1 0.8-1 0.6-2.4-0.4-3.2 -0.4-0.3-0.8-0.5-1.4-0.7 0.3-0.4 0.5-0.9 0.7-1.3 0.3-1.2-0.4-2.5-1.6-2.8 -0.5-0.1-1-0.1-1.5-0.1 0.1-0.5 0.2-1 0.1-1.5 -0.2-1.3-1.3-2.1-2.6-2 -0.5 0-1 0.2-1.5 0.5 -0.1-0.5-0.2-1-0.5-1.5 -0.7-1.1-2-1.4-3.1-0.8 -0.4 0.3-0.8 0.6-1.1 1 -0.3-0.4-0.6-0.8-1-1.1C100.6 219.1 99.1 219.3 98.4 220.3z"/><path fill-rule="evenodd" clip-rule="evenodd" fill="#FFFFFF" d="M99.3 223.7c-0.2 0.3-0.4 0.6-0.5 1 -0.3-0.2-0.7-0.4-1-0.5 -0.9-0.2-1.8 0.3-2.1 1.2 -0.1 0.4-0.1 0.7-0.1 1.1 -0.4-0.1-0.8-0.1-1.1-0.1 -0.9 0.1-1.6 1-1.5 1.9 0 0.4 0.2 0.7 0.4 1.1 -0.4 0.1-0.8 0.2-1.1 0.4 -0.8 0.5-1.1 1.5-0.6 2.3 0.2 0.3 0.4 0.6 0.8 0.8 -0.3 0.2-0.6 0.5-0.9 0.8 -0.6 0.7-0.4 1.8 0.3 2.4 0.3 0.2 0.6 0.4 1 0.5 -0.2 0.3-0.4 0.7-0.5 1 -0.2 0.9 0.3 1.8 1.2 2.1 0.4 0.1 0.7 0.1 1.1 0.1 -0.1 0.4-0.1 0.8-0.1 1.1 0.1 0.9 1 1.6 1.9 1.5 0.4 0 0.7-0.2 1.1-0.4 0.1 0.4 0.2 0.8 0.4 1.1 0.5 0.8 1.5 1.1 2.3 0.6 0.3-0.2 0.6-0.4 0.8-0.8 0.2 0.3 0.5 0.6 0.8 0.8 0.8 0.6 1.8 0.4 2.4-0.3 0.2-0.3 0.4-0.6 0.5-1 0.3 0.2 0.6 0.4 1 0.5 0.9 0.2 1.9-0.3 2.1-1.2 0.1-0.4 0.1-0.7 0.1-1.1 0.4 0.1 0.7 0.1 1.1 0.1 0.9-0.1 1.6-1 1.5-1.9 -0.1-0.4-0.2-0.7-0.4-1.1 0.4 0 0.7-0.2 1.1-0.4 0.8-0.5 1.1-1.5 0.6-2.3 -0.2-0.3-0.4-0.6-0.7-0.8 0.3-0.2 0.6-0.5 0.8-0.7 0.6-0.7 0.4-1.8-0.3-2.4 -0.3-0.2-0.6-0.4-1-0.5 0.2-0.3 0.4-0.6 0.5-1 0.2-0.9-0.3-1.9-1.2-2.1 -0.4-0.1-0.7-0.1-1.1-0.1 0.1-0.4 0.1-0.8 0.1-1.1 -0.1-0.9-1-1.6-1.9-1.5 -0.4 0-0.7 0.2-1.1 0.4 -0.1-0.4-0.2-0.7-0.4-1.1 -0.5-0.8-1.5-1.1-2.3-0.6 -0.3 0.2-0.6 0.4-0.8 0.7 -0.2-0.3-0.5-0.6-0.7-0.8C100.9 222.8 99.8 223 99.3 223.7z"/><path fill="#FF5E79" d="M102.6 234.3c0 0 0.8 0.6 1.8 1.3 0.6 0.3 1.2 0.7 1.8 0.9 1 0.3 2 0.4 2.4-0.3 0 0 0.2-0.3 0-0.7 -0.1-0.2-0.2-0.4-0.6-0.7 -0.6-0.4-1.5-0.7-3.3-0.7C104.1 234.1 103.4 234.1 102.6 234.3z"/><path fill="#FF5E79" d="M101.2 234.6c0 0-0.6 0.8-1.4 1.6 -0.5 0.5-1 1-1.5 1.3 -0.9 0.6-1.8 0.9-2.4 0.3 0 0-0.2-0.3-0.2-0.7 0-0.2 0.1-0.5 0.4-0.8 0.5-0.5 1.3-1 3.1-1.5C99.7 234.8 100.4 234.7 101.2 234.6z"/><path fill="#FF5E79" d="M101.6 234.9c0 0-0.6 0.8-1.2 1.8 -0.3 0.6-0.7 1.2-0.9 1.8 -0.3 1-0.4 2 0.4 2.4 0 0 0.3 0.2 0.7 0 0.2-0.1 0.4-0.2 0.7-0.6 0.4-0.6 0.7-1.5 0.6-3.4C101.9 236.3 101.8 235.7 101.6 234.9z"/><path fill="#FF5E79" d="M102.2 234.8c0 0 0.1 1 0.3 2.1 0.1 0.6 0.3 1.3 0.6 1.9 0.5 1 1.1 1.7 1.9 1.6 0 0 0.4-0.1 0.5-0.5 0.1-0.2 0.2-0.4 0.1-0.9 -0.1-0.7-0.5-1.5-1.8-2.9C103.4 235.7 102.9 235.3 102.2 234.8z"/><path fill="#FF5E79" d="M102.6 233.7c0 0 0.5-0.8 1.3-1.7 0.4-0.5 0.9-1 1.4-1.4 0.9-0.6 1.8-1 2.4-0.4 0 0 0.3 0.3 0.2 0.6 0 0.2 0 0.5-0.4 0.8 -0.4 0.5-1.2 1.1-3 1.6C104.1 233.4 103.4 233.6 102.6 233.7z"/><path fill="#FF5E79" d="M101.1 234c0 0-0.8-0.6-1.8-1.2 -0.6-0.3-1.2-0.7-1.8-0.9 -1-0.3-2-0.4-2.4 0.4 0 0-0.2 0.3 0 0.7 0.1 0.2 0.2 0.4 0.6 0.7 0.6 0.4 1.5 0.7 3.4 0.6C99.7 234.3 100.4 234.2 101.1 234z"/><path fill="#FF5E79" d="M101.5 233.5c0 0-0.8-0.5-1.7-1.3 -0.5-0.4-1-0.9-1.4-1.5 -0.6-0.9-1-1.8-0.4-2.4 0 0 0.3-0.2 0.7-0.2 0.2 0 0.5 0 0.8 0.4 0.5 0.5 1.1 1.2 1.6 3C101.3 232 101.4 232.7 101.5 233.5z"/><path fill="#FF5E79" d="M102.2 233.4c0 0-0.3-1-0.4-2.1 -0.1-0.6-0.2-1.4-0.1-2 0.1-1 0.4-2 1.3-2.1 0 0 0.4 0 0.6 0.3 0.1 0.1 0.3 0.3 0.4 0.8 0.1 0.7 0 1.6-0.8 3.3C102.9 232.1 102.6 232.7 102.2 233.4z"/><path fill="#95AF2E" d="M152.7 200.6c0 0-2-4.9 5.6-9.9 7.5-5 15.4 2.8 18.3 3.5 2.9 0.7 4.2 0.3 4.2 0.3s-4.4-0.6-8 2.4c-3.7 3-7.9 8-12.4 8.2 -4.6 0.2-6.3-4-6.3-4s3.6 1.6 7.3-1.3c3.7-2.9 8.2-3.6 8.2-3.6s-8.2-0.2-12.1 1.9C153.5 200.1 152.7 200.6 152.7 200.6z"/><path fill="#95AF2E" d="M154.5 208.9c0 0 1.9-4.5 10.1-2.9 8.2 1.6 8.3 11.8 9.8 14.1 1.5 2.3 2.6 2.9 2.6 2.9s-2.5-3.2-6.8-3.6c-4.3-0.4-10.4 0.2-13.5-2.6 -3.1-2.9-1.6-6.7-1.6-6.7s1.3 3.3 5.7 3.8c4.3 0.5 7.8 2.9 7.8 2.9s-5.3-5.4-9.3-6.6C155.3 209.1 154.5 208.9 154.5 208.9z"/><path fill="#95AF2E" d="M150.2 209.6c0 0-4.7-1.5-8.8 5.7 -4.1 7.2 3.5 14 4.3 16.6 0.8 2.6 0.5 3.9 0.5 3.9s-0.8-4 1.7-7.5c2.5-3.6 7-7.7 6.9-11.9 -0.1-4.2-4.1-5.6-4.1-5.6s1.6 3.2-0.8 6.8c-2.5 3.6-2.9 7.8-2.9 7.8s-0.7-7.5 1.1-11.3C149.9 210.3 150.2 209.6 150.2 209.6z"/><path fill="#95AF2E" d="M153.8 204.8c0.1 1.8-1.3 3.4-3.2 3.5 -1.9 0.1-3.4-1.4-3.5-3.2 -0.1-1.9 1.4-3.4 3.2-3.5C152.2 201.6 153.7 203 153.8 204.8z"/><path fill="#95AF2E" d="M34.2 258.6c0 0 5.1-1.4 9.1 6.7 4 8.1-4.6 14.9-5.7 17.7 -1 2.8-0.8 4.1-0.8 4.1s1.1-4.2-1.4-8.2c-2.5-4-7-8.8-6.6-13.3 0.4-4.6 4.7-5.8 4.7-5.8s-2 3.4 0.5 7.4c2.4 4 2.6 8.6 2.6 8.6s1.2-8.1-0.5-12.3C34.6 259.3 34.2 258.6 34.2 258.6z"/><path fill="#95AF2E" d="M25.7 259.3c0 0 4.3 2.4 1.7 10.3 -2.6 7.9-12.7 6.9-15.2 8 -2.5 1.2-3.2 2.2-3.2 2.2s3.5-2.1 4.4-6.3c0.9-4.3 1-10.3 4.2-13.1 3.2-2.8 6.9-0.7 6.9-0.7s-3.5 0.9-4.5 5.2c-1 4.3-3.9 7.4-3.9 7.4s6-4.6 7.6-8.4C25.4 260.1 25.7 259.3 25.7 259.3z"/><path fill="#95AF2E" d="M25.5 255c0 0 2.1-4.4-4.6-9.4 -6.7-5-14.3 1.8-17 2.2C1.2 248.3 0 247.8 0 247.8s4-0.3 7.3 2.6c3.2 3 6.8 7.8 11 8.2 4.2 0.4 6-3.4 6-3.4s-3.4 1.2-6.7-1.6c-3.3-2.9-7.4-3.8-7.4-3.8s7.5 0.2 11.1 2.5C24.9 254.6 25.5 255 25.5 255z"/><path fill="#95AF2E" d="M29.9 259.1c-1.8-0.1-3.2-1.7-3.1-3.6 0.1-1.8 1.8-3.2 3.6-3.1 1.8 0.1 3.2 1.8 3.1 3.6C33.3 257.9 31.7 259.3 29.9 259.1z"/><path fill="#95AF2E" d="M49.1 143.9c0 0 7 3.5 3.5 16.4 -3.5 12.9-19.7 12-23.6 14.1 -3.9 2.1-4.9 3.8-4.9 3.8s5.4-3.6 6.5-10.5c1.1-6.9 0.8-16.6 5.7-21.2 4.9-4.7 10.9-1.8 10.9-1.8s-5.5 1.8-6.7 8.6c-1.3 6.9-5.6 12.1-5.6 12.1s9.2-7.8 11.5-14C48.8 145 49.1 143.9 49.1 143.9z"/><path fill="#95AF2E" d="M38.9 136.4c0 0 2.4 6.9-8.3 13.1 -10.6 6.2-20.8-4.9-24.7-6 -3.9-1.1-5.7-0.6-5.7-0.6s5.9 1.1 11.1-2.7c5.2-3.8 11.2-10.4 17.5-10.3 6.3 0.1 8.3 5.9 8.3 5.9s-4.8-2.4-10 1.3c-5.3 3.7-11.5 4.4-11.5 4.4s11.1 0.8 16.7-1.8C37.9 136.9 38.9 136.4 38.9 136.4z"/><path fill="#95AF2E" d="M43 131.4c0 0 6.7-2.9 4.1-14.9 -2.5-12.1-17.6-12.1-21-14.2 -3.4-2.1-4.3-3.8-4.3-3.8s4.8 3.6 5.5 10c0.7 6.4-0.1 15.3 4.1 19.9 4.3 4.6 10 2.2 10 2.2s-5-1.9-5.8-8.3c-0.8-6.4-4.5-11.4-4.5-11.4s8.1 7.7 9.9 13.6C42.7 130.3 43 131.4 43 131.4z"/><path fill="#95AF2E" d="M43.8 140.2c-1.9-2-1.9-5.1 0.1-7 2-1.9 5.1-1.9 7 0.1 1.9 2 1.9 5.1-0.1 7C48.8 142.2 45.7 142.2 43.8 140.2z"/><path fill="#95AF2E" d="M124.4 274.8c0.3-0.1 10.7 8.2 17.7 17.8 6.9 9.5 6.9 22.9 3.2 30.7 -3.7 7.8-11.3 15.2-20.9 11.9 -12.3-4.2-10.3-17.6-9.2-20.3 1.5-3.6 5.8-11.1 14-7.9 0.1 0 0.2 0.1 0.3 0.1 0 0 5.1 2.8 6.3 7.5 1.2 4.7-1.2 8.7-3.5 9.2s-4.1-1.3-4-2.7c0.1-1.4 1.1-3.3 3.3-2.5 2.3 0.9 0.7 3.3 0.7 3.3s0.8-1.8-1.1-2.3c-1.8-0.5-3.4 1.3-1.5 2.9 2 1.6 4.8-0.7 5-4.6 0.2-3.9-4.1-7.9-8.1-8.7 -2.8-0.5-9.7 0.3-11.2 7.9 -1.5 7.7 3.5 13.4 10 15.1 6.5 1.6 14.2-0.8 18-9.8 3.8-9 1.9-16.5 0.3-21 -1.6-4.5-6.4-12.4-10.1-16.6C129.9 280.3 124.4 274.8 124.4 274.8z"/><path fill="#95AF2E" d="M85.3 308.8c-0.1-0.3-12.3-5.7-23.9-7.4 -11.7-1.7-23.5 4.5-28.7 11.4 -5.2 6.9-8.2 17-0.8 24 9.5 8.9 20.4 1 22.3-1.3 2.5-3 7.2-10.3 0.6-16.1 -0.1 0-0.1-0.1-0.2-0.2 0 0-4.9-3.2-9.6-2.1 -4.7 1.1-7.2 5.1-6.6 7.4 0.6 2.3 3 3 4.3 2.3 1.2-0.8 2.5-2.5 0.7-4.1 -1.8-1.6-3.2 0.9-3.2 0.9s1.3-1.5 2.6-0.1c1.3 1.4 0.4 3.6-1.9 2.7 -2.4-1-1.6-4.6 1.7-6.6 3.3-2 8.9-0.1 11.5 3.2 1.8 2.2 4.3 8.7-1.8 13.6 -6.1 4.9-13.5 3.2-18-1.8 -4.4-5-5.9-12.9 0.4-20.5 6.2-7.6 13.7-9.3 18.5-10 4.7-0.7 13.9-0.1 19.4 1.2C77.8 306.5 85.3 308.8 85.3 308.8z"/></svg>