<svg xmlns="http://www.w3.org/2000/svg" version="1.1" x="0" y="0" width="512" height="512" viewBox="0 0 512 512" enable-background="new 0 0 512 512" xml:space="preserve"><path fill="#e48800" d="M220.2 191.6c20.2-20.2 53.2-19.9 73.7 0.6l0 0c20.5 20.5 20.8 53.5 0.6 73.7l-190 190c-20.2 20.2-53.2 19.9-73.7-0.6l0 0c-20.5-20.5-20.8-53.5-0.6-73.7L220.2 191.6z"/><path fill="#e48800" d="M293.8 191.6c-20.2-20.2-53.2-19.9-73.7 0.6l0 0c-20.5 20.5-20.8 53.5-0.6 73.7l190 190c20.2 20.2 53.2 19.9 73.7-0.6l0 0c20.5-20.5 20.8-53.5 0.6-73.7L293.8 191.6z"/></svg>