<svg xmlns="http://www.w3.org/2000/svg" version="1.1" x="0" y="0" width="36.6" height="36.6" viewBox="0 0 36.6 36.6" enable-background="new 0 0 36.638 36.621" xml:space="preserve"><path fill="#3EBDD4" d="M0.6 18.6c0.4-0.5 0.9-0.9 1.5-1.3 0 0 0 0 0 0 0 0 0 0 0 0l0 0c0 0 0 0 0 0 -0.2-0.2-0.5-0.4-0.7-0.6 -0.2-0.3-0.4-0.5-0.6-0.8 -0.8-1.4-0.3-3.2 1-4.1 0.2-0.1 0.3-0.2 0.5-0.2 0.1-0.1 0.2-0.1 0.4-0.1 0.2-0.1 0.4-0.1 0.6-0.2 0 0 0.1 0 0.1 0 0.1 0 0.2 0 0.3-0.1 -0.3-0.6-0.6-1.2-0.6-1.8C2.8 7.7 4 6.2 5.6 6 6.2 5.9 6.9 5.9 7.6 6.1 7.5 5.9 7.5 5.8 7.5 5.6 7.5 5.4 7.5 5.2 7.5 5.1c0-0.1 0-0.2 0-0.3 0-0.2 0.1-0.4 0.1-0.6 0.4-1.6 2-2.5 3.6-2.1 0.6 0.1 1.2 0.5 1.7 0.8 0.2-0.6 0.5-1.2 0.8-1.7C14.8-0.1 16.7-0.4 18 0.6c0.2 0.2 0.4 0.3 0.6 0.5 0.1 0.1 0.2 0.2 0.3 0.4 0.1 0.1 0.1 0.2 0.2 0.3 0.1 0.1 0.1 0.2 0.2 0.3 0.3-0.3 0.6-0.6 0.9-0.9 0.2-0.1 0.3-0.3 0.5-0.4 1.4-0.8 3.2-0.4 4.1 1 0.1 0.2 0.2 0.4 0.3 0.5 0 0.1 0.1 0.2 0.1 0.3 0.1 0.2 0.1 0.3 0.1 0.5 0 0.2 0.1 0.3 0.1 0.5 0.6-0.3 1.2-0.6 1.9-0.6 1.6-0.2 3.1 0.9 3.3 2.5 0.1 0.6 0 1.3-0.1 1.9 0.7-0.1 1.3-0.1 2 0.1 1.6 0.4 2.5 2.1 2.1 3.7 -0.2 0.6-0.5 1.2-0.9 1.7 0.7 0.2 1.2 0.5 1.7 0.9 1.3 1 1.5 2.8 0.6 4.1 -0.4 0.5-0.8 0.9-1.4 1.3 0.4 0.3 0.7 0.6 0.9 1 0.1 0.2 0.2 0.3 0.3 0.5 0.8 1.4 0.4 3.2-1.1 4 -0.5 0.3-1.2 0.6-1.8 0.6 0.3 0.6 0.5 1.2 0.6 1.9 0.2 1.6-0.9 3.1-2.5 3.3 -0.6 0.1-1.3 0-1.9-0.1 0.1 0.7 0 1.4-0.2 2 -0.4 1.6-2 2.5-3.6 2.1 -0.3-0.1-0.5-0.2-0.8-0.3 0 0-0.1 0-0.1 0 -0.3-0.1-0.6-0.3-0.8-0.5 -0.2 0.7-0.5 1.2-0.9 1.7 -1 1.3-2.8 1.6-4.1 0.6 -0.5-0.4-0.9-0.9-1.3-1.4 -0.4 0.5-0.9 1-1.4 1.3 -1.4 0.8-3.2 0.3-4.1-1.1 -0.1-0.2-0.2-0.4-0.3-0.6 0-0.1-0.1-0.1-0.1-0.2 -0.1-0.2-0.2-0.5-0.2-0.7 0 0 0 0 0 0 0-0.1 0-0.2-0.1-0.3 -0.6 0.3-1.2 0.6-1.8 0.6 -1.6 0.2-3.1-0.9-3.3-2.5 -0.1-0.6-0.1-1.3 0.1-2 -0.7 0.1-1.3 0-1.9-0.1 -1.6-0.4-2.5-2-2.1-3.6 0.1-0.2 0.1-0.4 0.2-0.6 0.2-0.4 0.4-0.8 0.6-1.2 -0.1 0-0.3-0.1-0.4-0.2 0 0-0.1 0-0.1 0 -0.2-0.1-0.4-0.2-0.6-0.3 -0.2-0.1-0.4-0.2-0.6-0.4C-0.1 21.8-0.4 19.9 0.6 18.6z"/><path fill-rule="evenodd" clip-rule="evenodd" fill="#BED630" d="M14.8 4.8c-0.3 0.4-0.5 0.8-0.6 1.4 -0.4-0.3-0.9-0.5-1.4-0.7 -1.2-0.3-2.5 0.4-2.9 1.6C9.8 7.6 9.8 8.1 9.8 8.7 9.3 8.5 8.8 8.5 8.3 8.6c-1.3 0.2-2.2 1.3-2 2.6 0.1 0.5 0.2 1 0.5 1.4 -0.5 0.1-1 0.3-1.5 0.5 -1.1 0.6-1.5 2.1-0.8 3.2 0.2 0.4 0.6 0.8 1 1.1 -0.5 0.3-0.9 0.6-1.2 1 -0.8 1-0.6 2.5 0.5 3.3 0.4 0.3 0.9 0.5 1.4 0.7 -0.3 0.4-0.5 0.9-0.7 1.4 -0.3 1.3 0.4 2.5 1.7 2.8 0.5 0.1 1 0.2 1.5 0.1 -0.1 0.5-0.2 1.1-0.1 1.6 0.2 1.3 1.3 2.2 2.6 2 0.5-0.1 1-0.2 1.4-0.5 0.1 0.5 0.3 1 0.5 1.4 0.6 1.1 2.1 1.5 3.2 0.9 0.4-0.3 0.8-0.6 1.1-1 0.3 0.5 0.7 0.9 1.1 1.2 1 0.8 2.5 0.6 3.2-0.4 0.3-0.4 0.5-0.9 0.7-1.4 0.4 0.3 0.9 0.6 1.4 0.7 1.2 0.3 2.5-0.4 2.8-1.7 0.1-0.5 0.2-1 0.1-1.6 0.5 0.1 1 0.2 1.5 0.1 1.3-0.2 2.2-1.3 2-2.6 -0.1-0.5-0.2-1-0.5-1.5 0.5-0.1 1-0.3 1.5-0.5 1.1-0.6 1.5-2.1 0.8-3.2 -0.3-0.4-0.6-0.8-1-1.2 0.5-0.3 0.8-0.6 1.1-1 0.8-1 0.6-2.5-0.4-3.2 -0.4-0.3-0.9-0.5-1.4-0.7 0.3-0.4 0.5-0.9 0.7-1.4 0.3-1.3-0.4-2.5-1.7-2.9 -0.5-0.1-1-0.1-1.6-0.1 0.1-0.5 0.2-1 0.1-1.5 -0.2-1.3-1.3-2.2-2.6-2 -0.5 0-1 0.2-1.5 0.5 -0.1-0.5-0.3-1-0.5-1.5 -0.7-1.1-2.1-1.5-3.2-0.8 -0.4 0.3-0.8 0.6-1.2 1 -0.3-0.5-0.6-0.8-1-1.1C17 3.6 15.6 3.8 14.8 4.8z"/><path fill-rule="evenodd" clip-rule="evenodd" fill="#FFFFFF" d="M15.7 8.3c-0.2 0.3-0.4 0.6-0.5 1 -0.3-0.2-0.7-0.4-1-0.5 -0.9-0.2-1.9 0.3-2.1 1.2 -0.1 0.4-0.1 0.8-0.1 1.2 -0.4-0.1-0.8-0.1-1.2-0.1 -0.9 0.1-1.6 1-1.5 1.9 0 0.4 0.2 0.7 0.4 1.1 -0.4 0.1-0.8 0.2-1.1 0.4 -0.8 0.5-1.1 1.5-0.6 2.4 0.2 0.3 0.4 0.6 0.8 0.8 -0.4 0.2-0.6 0.5-0.9 0.8 -0.6 0.8-0.4 1.9 0.3 2.4 0.3 0.2 0.6 0.4 1 0.5 -0.2 0.3-0.4 0.7-0.5 1 -0.2 0.9 0.3 1.9 1.2 2.1 0.4 0.1 0.7 0.1 1.1 0.1 -0.1 0.4-0.1 0.8-0.1 1.2 0.1 0.9 1 1.6 1.9 1.5 0.4 0 0.7-0.2 1.1-0.4 0.1 0.4 0.2 0.8 0.4 1.1 0.5 0.8 1.5 1.1 2.4 0.6 0.3-0.2 0.6-0.4 0.8-0.8 0.2 0.4 0.5 0.6 0.8 0.9 0.8 0.6 1.8 0.4 2.4-0.3 0.2-0.3 0.4-0.6 0.5-1 0.3 0.2 0.7 0.4 1 0.5 0.9 0.2 1.9-0.3 2.1-1.2 0.1-0.4 0.1-0.7 0.1-1.2 0.4 0.1 0.8 0.1 1.1 0.1 0.9-0.1 1.6-1 1.5-1.9 -0.1-0.4-0.2-0.7-0.4-1.1 0.4-0.1 0.8-0.2 1.1-0.4 0.8-0.5 1.1-1.5 0.6-2.4 -0.2-0.3-0.4-0.6-0.7-0.9 0.3-0.2 0.6-0.5 0.8-0.7 0.6-0.8 0.4-1.8-0.3-2.4 -0.3-0.2-0.6-0.4-1-0.5 0.2-0.3 0.4-0.7 0.5-1 0.2-0.9-0.3-1.9-1.2-2.1 -0.4-0.1-0.7-0.1-1.2-0.1 0.1-0.4 0.1-0.8 0.1-1.1 -0.1-0.9-1-1.6-1.9-1.5 -0.4 0-0.7 0.2-1.1 0.4 -0.1-0.4-0.2-0.8-0.4-1.1 -0.5-0.8-1.5-1.1-2.4-0.6 -0.3 0.2-0.6 0.5-0.9 0.7 -0.2-0.3-0.5-0.6-0.8-0.8C17.4 7.4 16.3 7.5 15.7 8.3z"/><path fill="#FF5E79" d="M19.1 19c0 0 0.8 0.6 1.8 1.3 0.6 0.4 1.2 0.7 1.8 0.9 1 0.3 2 0.4 2.5-0.3 0 0 0.2-0.3 0-0.7 -0.1-0.2-0.2-0.4-0.6-0.7 -0.6-0.4-1.5-0.7-3.4-0.7C20.6 18.8 19.9 18.8 19.1 19z"/><path fill="#FF5E79" d="M17.6 19.4c0 0-0.6 0.8-1.4 1.7 -0.5 0.5-1 1-1.5 1.3 -0.9 0.6-1.9 0.9-2.5 0.3 0 0-0.2-0.3-0.2-0.7 0-0.2 0.1-0.5 0.4-0.8 0.5-0.5 1.3-1.1 3.1-1.5C16.1 19.5 16.8 19.4 17.6 19.4z"/><path fill="#FF5E79" d="M18.1 19.6c0 0-0.6 0.8-1.2 1.8 -0.3 0.6-0.7 1.2-0.9 1.8 -0.3 1-0.4 2 0.4 2.5 0 0 0.3 0.2 0.7 0 0.2-0.1 0.4-0.2 0.7-0.6 0.4-0.6 0.7-1.5 0.6-3.4C18.3 21.1 18.2 20.4 18.1 19.6z"/><path fill="#FF5E79" d="M18.7 19.5c0 0 0.1 1 0.3 2.2 0.1 0.7 0.3 1.4 0.6 2 0.5 1 1.1 1.8 1.9 1.6 0 0 0.4-0.1 0.5-0.5 0.1-0.2 0.2-0.4 0.1-0.9 -0.1-0.7-0.5-1.6-1.8-2.9C19.9 20.4 19.4 20 18.7 19.5z"/><path fill="#FF5E79" d="M19.1 18.4c0 0 0.5-0.8 1.3-1.7 0.4-0.5 0.9-1 1.5-1.4 0.9-0.6 1.8-1 2.5-0.5 0 0 0.3 0.3 0.2 0.7 0 0.2 0 0.5-0.4 0.9 -0.5 0.5-1.2 1.1-3 1.7C20.6 18.1 19.9 18.3 19.1 18.4z"/><path fill="#FF5E79" d="M17.6 18.7c0 0-0.8-0.6-1.8-1.2 -0.6-0.3-1.2-0.7-1.9-0.9 -1-0.3-2-0.4-2.5 0.4 0 0-0.2 0.3 0 0.7 0.1 0.2 0.2 0.4 0.6 0.7 0.6 0.4 1.5 0.7 3.4 0.6C16.1 19 16.8 18.9 17.6 18.7z"/><path fill="#FF5E79" d="M18 18.2c0 0-0.8-0.5-1.7-1.3 -0.5-0.4-1-0.9-1.4-1.5 -0.6-0.9-1-1.8-0.4-2.5 0 0 0.3-0.3 0.7-0.2 0.2 0 0.5 0 0.9 0.4 0.5 0.5 1.1 1.2 1.6 3C17.7 16.7 17.9 17.4 18 18.2z"/><path fill="#FF5E79" d="M18.6 18.1c0 0-0.3-1-0.4-2.1 -0.1-0.7-0.2-1.4-0.1-2 0.1-1.1 0.4-2 1.3-2.1 0 0 0.4 0 0.6 0.3 0.1 0.1 0.3 0.3 0.4 0.8 0.1 0.7 0 1.6-0.8 3.4C19.4 16.8 19.1 17.4 18.6 18.1z"/></svg>