<?xml version="1.0" encoding="utf-8"?>
<!-- Generator: Adobe Illustrator 13.0.0, SVG Export Plug-In . SVG Version: 6.00 Build 14948)  -->
<!DOCTYPE svg PUBLIC "-//W3C//DTD SVG 1.1//EN" "http://www.w3.org/Graphics/SVG/1.1/DTD/svg11.dtd">
<svg version="1.1" id="Layer_1" xmlns="http://www.w3.org/2000/svg" xmlns:xlink="http://www.w3.org/1999/xlink" x="0px" y="0px"
	 width="36.639px" height="36.621px" viewBox="0 0 36.639 36.621" enable-background="new 0 0 36.639 36.621" xml:space="preserve">
<g>
	<path fill="#3EBDD4" d="M0.591,18.594c0.39-0.514,0.896-0.933,1.473-1.303c0.004,0.003,0.004,0.004,0.004,0.004
		c0.008-0.004,0.012-0.006,0.017-0.01l-0.002-0.003c-0.006,0.004-0.011,0.007-0.019,0.009c-0.243-0.2-0.472-0.414-0.677-0.639
		c-0.236-0.257-0.445-0.524-0.604-0.804c-0.813-1.421-0.327-3.244,1.037-4.055c0.167-0.086,0.342-0.166,0.518-0.239
		c0.126-0.056,0.248-0.105,0.378-0.149c0.189-0.067,0.385-0.125,0.582-0.173c0.045-0.013,0.091-0.02,0.135-0.03
		c0.093-0.021,0.187-0.043,0.28-0.061c-0.337-0.606-0.563-1.227-0.648-1.839c-0.219-1.61,0.91-3.096,2.521-3.317
		C6.22,5.87,6.878,5.92,7.55,6.084C7.534,5.93,7.521,5.777,7.516,5.624C7.508,5.432,7.509,5.243,7.521,5.052
		c0.007-0.113,0.021-0.224,0.034-0.333c0.024-0.202,0.055-0.406,0.1-0.604c0.438-1.558,2.041-2.486,3.624-2.08
		c0.581,0.146,1.179,0.454,1.737,0.824c0.195-0.634,0.456-1.217,0.834-1.711C14.835-0.148,16.703-0.375,18,0.61
		c0.204,0.158,0.395,0.336,0.571,0.526c0.116,0.119,0.222,0.249,0.327,0.38c0.064,0.084,0.13,0.168,0.19,0.256
		c0.068,0.093,0.146,0.176,0.211,0.275c0.292-0.343,0.605-0.645,0.942-0.909c0.168-0.134,0.341-0.258,0.523-0.366
		c1.421-0.82,3.212-0.354,4.054,1.032c0.093,0.178,0.175,0.356,0.25,0.54c0.048,0.112,0.093,0.226,0.134,0.343
		c0.057,0.166,0.105,0.334,0.149,0.508c0.037,0.154,0.068,0.315,0.095,0.477C26.05,3.337,26.67,3.11,27.311,3.05
		c1.612-0.22,3.099,0.907,3.316,2.524c0.085,0.607,0.033,1.266-0.128,1.938c0.68-0.066,1.34-0.055,1.968,0.104
		c1.563,0.438,2.519,2.065,2.109,3.651c-0.161,0.612-0.466,1.188-0.851,1.74c0.672,0.219,1.246,0.504,1.748,0.885
		c1.294,0.984,1.544,2.819,0.561,4.115c-0.36,0.474-0.839,0.908-1.414,1.271c0.357,0.304,0.673,0.632,0.943,0.986
		c0.121,0.154,0.234,0.313,0.335,0.483c0.817,1.417,0.354,3.206-1.066,4.024c-0.549,0.33-1.171,0.558-1.837,0.647
		c0.313,0.636,0.53,1.204,0.625,1.87c0.218,1.613-0.911,3.097-2.523,3.316c-0.645,0.061-1.271,0.033-1.946-0.129
		c0.066,0.697,0.016,1.355-0.154,1.975c-0.384,1.553-2.008,2.516-3.595,2.105c-0.272-0.072-0.536-0.178-0.797-0.3
		c-0.033-0.021-0.067-0.032-0.105-0.048c-0.282-0.143-0.563-0.314-0.835-0.503c-0.218,0.673-0.506,1.242-0.887,1.745
		c-0.985,1.299-2.823,1.55-4.118,0.563c-0.502-0.381-0.929-0.856-1.321-1.447c-0.429,0.521-0.901,0.967-1.447,1.287
		c-1.419,0.813-3.24,0.326-4.059-1.09c-0.108-0.19-0.203-0.397-0.292-0.615c-0.024-0.061-0.052-0.117-0.071-0.18
		c-0.081-0.222-0.151-0.458-0.208-0.699c-0.004-0.014-0.008-0.029-0.009-0.047c-0.023-0.097-0.05-0.193-0.068-0.299
		c-0.605,0.34-1.227,0.566-1.835,0.648c-1.617,0.22-3.101-0.908-3.318-2.523c-0.117-0.638-0.065-1.294,0.101-1.969
		c-0.672,0.091-1.33,0.042-1.944-0.131c-1.589-0.409-2.515-2.01-2.107-3.596c0.053-0.201,0.129-0.401,0.211-0.601
		c0.165-0.397,0.375-0.782,0.625-1.155c-0.142-0.045-0.267-0.107-0.403-0.158c-0.039-0.019-0.075-0.032-0.113-0.047
		c-0.195-0.082-0.39-0.166-0.569-0.264c-0.225-0.118-0.441-0.248-0.646-0.4C-0.112,21.751-0.396,19.891,0.591,18.594z"/>
	<path fill="#BED630" d="M14.796,4.779c-0.284,0.37-0.486,0.848-0.643,1.362c-0.44-0.302-0.923-0.546-1.384-0.662
		c-1.248-0.32-2.516,0.407-2.859,1.642C9.801,7.625,9.759,8.147,9.833,8.67C9.301,8.541,8.781,8.502,8.28,8.592
		c-1.273,0.175-2.164,1.344-1.988,2.619c0.063,0.479,0.241,0.968,0.509,1.446c-0.545,0.098-1.033,0.276-1.491,0.518
		c-1.079,0.64-1.46,2.074-0.816,3.195c0.237,0.414,0.604,0.811,1.027,1.133c-0.475,0.309-0.875,0.634-1.18,1.03
		c-0.776,1.023-0.557,2.488,0.468,3.265c0.399,0.304,0.854,0.53,1.367,0.687c-0.296,0.441-0.524,0.898-0.66,1.387
		c-0.322,1.25,0.408,2.511,1.659,2.834c0.487,0.13,1.01,0.174,1.533,0.104c-0.13,0.531-0.17,1.051-0.079,1.555
		c0.175,1.268,1.346,2.16,2.617,1.986c0.481-0.067,0.971-0.246,1.449-0.51c0.095,0.545,0.275,1.032,0.51,1.448
		c0.646,1.118,2.079,1.501,3.199,0.858c0.433-0.258,0.813-0.604,1.132-1.026c0.313,0.474,0.654,0.851,1.052,1.153
		c1.023,0.776,2.472,0.578,3.248-0.442c0.304-0.397,0.53-0.854,0.701-1.394c0.427,0.321,0.881,0.553,1.37,0.687
		c1.249,0.321,2.529-0.435,2.833-1.658c0.136-0.489,0.176-1.011,0.123-1.561c0.53,0.131,1.025,0.151,1.532,0.104
		c1.271-0.172,2.163-1.344,1.986-2.616c-0.068-0.526-0.241-0.973-0.491-1.474c0.525-0.073,1.017-0.251,1.45-0.51
		c1.12-0.647,1.484-2.06,0.842-3.177c-0.262-0.434-0.602-0.813-1.008-1.158c0.452-0.282,0.83-0.627,1.114-1.002
		c0.777-1.021,0.579-2.467-0.439-3.244c-0.401-0.305-0.854-0.531-1.395-0.706c0.32-0.42,0.548-0.879,0.687-1.363
		c0.319-1.252-0.436-2.534-1.666-2.877c-0.48-0.093-1-0.136-1.555-0.08c0.133-0.535,0.171-1.05,0.105-1.533
		c-0.172-1.273-1.346-2.163-2.617-1.989c-0.507,0.046-0.999,0.223-1.475,0.49c-0.072-0.525-0.251-1.014-0.492-1.475
		c-0.661-1.093-2.074-1.457-3.192-0.816c-0.434,0.262-0.813,0.606-1.16,1.01c-0.28-0.451-0.625-0.83-1.023-1.136
		C17.046,3.576,15.57,3.756,14.796,4.779z"/>
	<path fill="#FFFFFF" d="M15.701,8.256c-0.211,0.277-0.362,0.627-0.478,1.011c-0.328-0.221-0.687-0.404-1.028-0.489
		c-0.928-0.237-1.868,0.303-2.126,1.219c-0.079,0.376-0.107,0.761-0.058,1.153c-0.395-0.096-0.781-0.129-1.153-0.057
		c-0.941,0.127-1.604,0.994-1.477,1.94c0.05,0.359,0.181,0.722,0.378,1.078c-0.404,0.071-0.767,0.203-1.108,0.384
		c-0.799,0.473-1.086,1.542-0.607,2.373c0.179,0.307,0.448,0.604,0.766,0.842c-0.353,0.231-0.648,0.471-0.875,0.767
		c-0.578,0.761-0.413,1.851,0.347,2.425c0.297,0.228,0.637,0.395,1.015,0.51c-0.219,0.328-0.391,0.668-0.488,1.029
		c-0.24,0.929,0.305,1.865,1.232,2.107c0.361,0.096,0.749,0.131,1.142,0.073c-0.098,0.396-0.127,0.782-0.061,1.153
		c0.129,0.944,0.999,1.607,1.943,1.479c0.356-0.049,0.721-0.182,1.077-0.38c0.072,0.405,0.204,0.769,0.38,1.076
		c0.479,0.832,1.547,1.118,2.378,0.642c0.321-0.193,0.603-0.449,0.842-0.765c0.23,0.351,0.483,0.631,0.777,0.856
		c0.764,0.575,1.835,0.431,2.415-0.33c0.223-0.293,0.394-0.635,0.521-1.033c0.315,0.238,0.652,0.41,1.017,0.509
		c0.928,0.239,1.882-0.324,2.104-1.231c0.098-0.363,0.129-0.748,0.09-1.158c0.396,0.096,0.763,0.109,1.14,0.078
		c0.945-0.129,1.609-1,1.479-1.943c-0.055-0.393-0.184-0.723-0.366-1.098c0.393-0.052,0.755-0.187,1.076-0.379
		c0.833-0.479,1.104-1.527,0.625-2.358c-0.194-0.323-0.447-0.604-0.749-0.862c0.338-0.209,0.617-0.464,0.829-0.743
		c0.578-0.759,0.43-1.832-0.329-2.41c-0.296-0.226-0.634-0.396-1.035-0.522c0.241-0.315,0.409-0.656,0.511-1.016
		c0.241-0.932-0.321-1.883-1.236-2.138c-0.359-0.067-0.745-0.099-1.153-0.059c0.098-0.397,0.125-0.781,0.076-1.141
		c-0.129-0.945-0.999-1.604-1.943-1.476c-0.376,0.033-0.74,0.163-1.097,0.364c-0.054-0.392-0.186-0.753-0.363-1.097
		c-0.494-0.811-1.544-1.084-2.374-0.604c-0.319,0.193-0.604,0.45-0.858,0.747c-0.211-0.336-0.468-0.616-0.762-0.842
		C17.372,7.364,16.278,7.496,15.701,8.256z"/>
</g>
</svg>
