<?xml version="1.0" encoding="utf-8"?>
<!-- Generator: Adobe Illustrator 13.0.0, SVG Export Plug-In . SVG Version: 6.00 Build 14948)  -->
<!DOCTYPE svg PUBLIC "-//W3C//DTD SVG 1.1//EN" "http://www.w3.org/Graphics/SVG/1.1/DTD/svg11.dtd">
<svg version="1.1" id="Layer_1" xmlns="http://www.w3.org/2000/svg" xmlns:xlink="http://www.w3.org/1999/xlink" x="0px" y="0px"
	 width="36.638px" height="36.621px" viewBox="0 0 36.638 36.621" enable-background="new 0 0 36.638 36.621" xml:space="preserve">
<g>
	<g>
		<path fill="#3EBDD4" d="M0.591,18.594c0.389-0.514,0.896-0.933,1.472-1.303c0.004,0.003,0.004,0.004,0.004,0.004
			c0.008-0.004,0.012-0.006,0.017-0.01l-0.002-0.003c-0.006,0.004-0.011,0.007-0.019,0.009c-0.243-0.2-0.471-0.414-0.677-0.639
			c-0.236-0.257-0.445-0.524-0.604-0.804c-0.813-1.421-0.327-3.244,1.037-4.055c0.167-0.086,0.342-0.166,0.518-0.239
			c0.126-0.056,0.248-0.105,0.378-0.149c0.189-0.067,0.384-0.125,0.582-0.173c0.045-0.013,0.09-0.02,0.134-0.03
			c0.093-0.021,0.187-0.043,0.281-0.061c-0.337-0.606-0.564-1.227-0.649-1.839C2.844,7.692,3.973,6.206,5.585,5.985
			C6.22,5.87,6.878,5.92,7.55,6.084C7.534,5.93,7.521,5.777,7.516,5.624C7.508,5.432,7.509,5.243,7.521,5.052
			c0.007-0.113,0.021-0.224,0.034-0.333c0.025-0.202,0.055-0.406,0.1-0.604c0.438-1.558,2.041-2.486,3.624-2.08
			c0.581,0.146,1.179,0.454,1.737,0.824c0.196-0.634,0.456-1.217,0.834-1.711C14.835-0.148,16.703-0.375,18,0.61
			c0.204,0.158,0.394,0.336,0.571,0.526c0.116,0.119,0.222,0.249,0.327,0.38c0.065,0.084,0.13,0.168,0.191,0.256
			c0.068,0.093,0.146,0.176,0.211,0.275c0.292-0.343,0.605-0.645,0.942-0.909c0.168-0.134,0.341-0.258,0.523-0.366
			c1.421-0.82,3.212-0.354,4.054,1.032c0.093,0.178,0.175,0.356,0.25,0.54c0.048,0.112,0.093,0.226,0.134,0.343
			c0.057,0.166,0.105,0.334,0.149,0.508c0.037,0.154,0.069,0.315,0.095,0.477c0.603-0.335,1.223-0.562,1.864-0.622
			c1.613-0.22,3.099,0.907,3.317,2.524c0.085,0.607,0.033,1.266-0.128,1.938c0.679-0.066,1.34-0.055,1.968,0.104
			c1.562,0.438,2.518,2.065,2.109,3.651c-0.161,0.612-0.466,1.188-0.851,1.74c0.672,0.219,1.246,0.504,1.748,0.885
			c1.294,0.984,1.544,2.819,0.561,4.115c-0.36,0.474-0.839,0.908-1.414,1.271c0.357,0.303,0.673,0.631,0.943,0.986
			c0.121,0.154,0.235,0.313,0.335,0.483c0.818,1.417,0.354,3.206-1.066,4.024c-0.549,0.33-1.171,0.558-1.837,0.648
			c0.312,0.636,0.53,1.204,0.625,1.87c0.218,1.614-0.911,3.097-2.524,3.317c-0.644,0.06-1.271,0.032-1.946-0.13
			c0.067,0.698,0.016,1.356-0.154,1.975c-0.384,1.553-2.008,2.516-3.595,2.105c-0.272-0.072-0.536-0.177-0.797-0.299
			c-0.033-0.02-0.067-0.032-0.105-0.048c-0.282-0.143-0.563-0.315-0.835-0.503c-0.218,0.673-0.506,1.242-0.887,1.745
			c-0.985,1.299-2.823,1.55-4.118,0.562c-0.502-0.38-0.929-0.856-1.321-1.447c-0.429,0.521-0.902,0.967-1.448,1.287
			c-1.419,0.814-3.24,0.327-4.058-1.09c-0.109-0.19-0.203-0.397-0.292-0.614c-0.025-0.061-0.052-0.118-0.072-0.18
			c-0.081-0.222-0.151-0.458-0.208-0.699c-0.003-0.014-0.007-0.03-0.008-0.047c-0.024-0.097-0.05-0.194-0.069-0.299
			c-0.605,0.34-1.226,0.566-1.835,0.648c-1.617,0.22-3.1-0.908-3.318-2.523c-0.117-0.638-0.065-1.294,0.101-1.969
			c-0.672,0.091-1.33,0.042-1.945-0.131c-1.589-0.409-2.514-2.01-2.107-3.596c0.053-0.2,0.129-0.401,0.211-0.6
			c0.165-0.397,0.375-0.782,0.625-1.155c-0.142-0.045-0.267-0.108-0.404-0.159c-0.039-0.018-0.075-0.032-0.113-0.047
			c-0.195-0.081-0.389-0.165-0.569-0.263c-0.225-0.118-0.442-0.248-0.646-0.401C-0.112,21.751-0.396,19.891,0.591,18.594z"/>
		<path fill-rule="evenodd" clip-rule="evenodd" fill="#BED630" d="M14.796,4.779c-0.285,0.37-0.487,0.848-0.643,1.362
			c-0.44-0.302-0.923-0.546-1.384-0.662c-1.248-0.32-2.515,0.407-2.859,1.642C9.801,7.625,9.759,8.147,9.833,8.67
			C9.301,8.541,8.781,8.502,8.28,8.592c-1.273,0.175-2.164,1.344-1.988,2.619c0.063,0.479,0.241,0.968,0.509,1.446
			c-0.545,0.098-1.034,0.276-1.492,0.518c-1.079,0.64-1.46,2.074-0.816,3.195c0.237,0.414,0.603,0.811,1.027,1.133
			c-0.474,0.309-0.875,0.634-1.179,1.03c-0.777,1.023-0.557,2.489,0.467,3.265c0.4,0.304,0.855,0.53,1.368,0.687
			c-0.296,0.441-0.525,0.898-0.661,1.386c-0.322,1.25,0.409,2.511,1.66,2.834c0.487,0.13,1.009,0.174,1.533,0.103
			c-0.13,0.532-0.17,1.051-0.079,1.555c0.174,1.268,1.345,2.16,2.617,1.987c0.481-0.068,0.971-0.246,1.449-0.51
			c0.095,0.545,0.275,1.032,0.51,1.448c0.646,1.118,2.079,1.501,3.199,0.858c0.433-0.258,0.813-0.604,1.132-1.026
			c0.312,0.474,0.654,0.851,1.052,1.153c1.023,0.777,2.471,0.578,3.248-0.442c0.303-0.397,0.53-0.854,0.701-1.394
			c0.427,0.322,0.881,0.553,1.37,0.687c1.249,0.322,2.529-0.434,2.833-1.658c0.136-0.489,0.176-1.011,0.123-1.561
			c0.53,0.131,1.025,0.151,1.532,0.104c1.271-0.172,2.163-1.344,1.987-2.616c-0.069-0.527-0.242-0.973-0.492-1.474
			c0.526-0.073,1.017-0.251,1.451-0.51c1.12-0.647,1.484-2.059,0.841-3.177c-0.261-0.433-0.601-0.813-1.007-1.158
			c0.452-0.282,0.83-0.627,1.114-1.002c0.777-1.021,0.579-2.467-0.44-3.244c-0.401-0.305-0.854-0.531-1.394-0.706
			c0.32-0.42,0.548-0.879,0.686-1.363c0.32-1.252-0.435-2.534-1.666-2.877c-0.48-0.093-1-0.136-1.554-0.08
			c0.132-0.535,0.171-1.05,0.105-1.533c-0.172-1.273-1.346-2.163-2.617-1.989c-0.507,0.046-0.999,0.223-1.475,0.49
			c-0.072-0.525-0.251-1.014-0.492-1.475c-0.661-1.093-2.074-1.457-3.192-0.816c-0.434,0.262-0.813,0.606-1.16,1.01
			c-0.281-0.451-0.625-0.83-1.024-1.136C17.046,3.576,15.57,3.756,14.796,4.779z"/>
		<path fill-rule="evenodd" clip-rule="evenodd" fill="#FFFFFF" d="M15.701,8.256c-0.211,0.277-0.362,0.627-0.478,1.011
			c-0.328-0.221-0.686-0.404-1.028-0.489c-0.928-0.237-1.868,0.303-2.126,1.219c-0.079,0.376-0.107,0.761-0.058,1.153
			c-0.394-0.096-0.781-0.129-1.153-0.057c-0.941,0.127-1.604,0.994-1.476,1.94c0.049,0.359,0.18,0.722,0.378,1.078
			c-0.405,0.071-0.767,0.203-1.109,0.384c-0.799,0.473-1.086,1.542-0.607,2.373c0.178,0.307,0.448,0.604,0.765,0.842
			c-0.352,0.231-0.648,0.471-0.875,0.767c-0.578,0.761-0.413,1.851,0.347,2.425c0.297,0.228,0.637,0.395,1.015,0.51
			c-0.219,0.328-0.391,0.668-0.489,1.03c-0.24,0.928,0.305,1.865,1.233,2.107c0.361,0.095,0.749,0.13,1.141,0.073
			c-0.097,0.395-0.127,0.782-0.06,1.154c0.129,0.944,0.999,1.607,1.943,1.478c0.357-0.049,0.721-0.182,1.077-0.38
			c0.073,0.405,0.204,0.769,0.38,1.076c0.479,0.832,1.547,1.118,2.378,0.642c0.321-0.194,0.603-0.45,0.842-0.765
			c0.23,0.351,0.483,0.631,0.777,0.856c0.764,0.576,1.835,0.431,2.415-0.33c0.223-0.293,0.394-0.634,0.522-1.032
			c0.315,0.238,0.652,0.41,1.016,0.508c0.928,0.24,1.882-0.324,2.105-1.231c0.098-0.363,0.129-0.749,0.09-1.158
			c0.396,0.095,0.762,0.109,1.139,0.077c0.946-0.129,1.61-1,1.479-1.943c-0.055-0.392-0.184-0.723-0.366-1.097
			c0.392-0.052,0.755-0.187,1.076-0.379c0.833-0.479,1.104-1.528,0.625-2.359c-0.194-0.323-0.447-0.604-0.749-0.862
			c0.338-0.209,0.617-0.464,0.829-0.743c0.578-0.759,0.43-1.832-0.329-2.41c-0.296-0.226-0.634-0.396-1.035-0.522
			c0.241-0.315,0.409-0.656,0.51-1.016c0.242-0.932-0.321-1.883-1.236-2.138c-0.359-0.067-0.745-0.099-1.153-0.059
			c0.097-0.397,0.125-0.781,0.076-1.141c-0.129-0.945-0.999-1.604-1.943-1.476c-0.376,0.033-0.741,0.163-1.097,0.364
			c-0.054-0.392-0.186-0.753-0.363-1.097c-0.494-0.811-1.544-1.084-2.374-0.604c-0.32,0.193-0.604,0.45-0.859,0.747
			c-0.211-0.336-0.468-0.616-0.761-0.842C17.372,7.364,16.278,7.496,15.701,8.256z"/>
	</g>
	<g>
		<g>
			<path fill="#FF5E79" d="M19.076,18.961c0,0,0.767,0.647,1.778,1.273c0.563,0.351,1.196,0.717,1.826,0.921
				c1.018,0.328,2.022,0.436,2.476-0.306c0,0,0.166-0.333,0.017-0.696c-0.064-0.157-0.175-0.447-0.602-0.713
				c-0.6-0.374-1.488-0.713-3.392-0.689C20.573,18.76,19.879,18.836,19.076,18.961z"/>
			<path fill="#FF5E79" d="M17.632,19.355c0,0-0.59,0.813-1.418,1.666c-0.462,0.477-0.988,0.985-1.55,1.335
				c-0.908,0.565-1.858,0.911-2.476,0.303c0,0-0.242-0.285-0.186-0.671c0.023-0.168,0.062-0.475,0.412-0.838
				c0.49-0.508,1.271-1.051,3.124-1.488C16.129,19.522,16.822,19.428,17.632,19.355z"/>
			<path fill="#FF5E79" d="M18.097,19.585c0,0-0.628,0.785-1.231,1.81c-0.338,0.572-0.688,1.213-0.876,1.848
				c-0.304,1.025-0.387,2.033,0.364,2.469c0,0,0.339,0.156,0.698,0c0.155-0.068,0.441-0.186,0.698-0.621
				c0.358-0.605,0.676-1.503,0.605-3.405C18.333,21.08,18.239,20.385,18.097,19.585z"/>
			<path fill="#FF5E79" d="M18.718,19.49c0,0,0.055,1.004,0.29,2.171c0.131,0.651,0.3,1.36,0.583,1.96
				c0.458,0.966,1.066,1.771,1.917,1.594c0,0,0.355-0.106,0.521-0.465c0.069-0.153,0.204-0.433,0.105-0.928
				c-0.138-0.691-0.501-1.57-1.822-2.941C19.891,20.444,19.357,19.991,18.718,19.49z"/>
			<path fill="#FF5E79" d="M19.09,18.394c0,0,0.539-0.848,1.314-1.748c0.432-0.503,0.929-1.042,1.468-1.425
				c0.873-0.617,1.799-1.023,2.453-0.451c0,0,0.257,0.268,0.226,0.66c-0.014,0.168-0.034,0.476-0.363,0.859
				c-0.458,0.535-1.203,1.126-3.029,1.674C20.579,18.137,19.892,18.273,19.09,18.394z"/>
			<path fill="#FF5E79" d="M17.606,18.733c0,0-0.788-0.622-1.817-1.221c-0.574-0.333-1.216-0.68-1.852-0.863
				c-1.028-0.297-2.036-0.376-2.466,0.378c0,0-0.156,0.339,0.004,0.696c0.066,0.158,0.188,0.441,0.622,0.695
				c0.61,0.354,1.509,0.668,3.412,0.586C16.114,18.979,16.809,18.881,17.606,18.733z"/>
			<path fill="#FF5E79" d="M17.973,18.198c0,0-0.84-0.549-1.733-1.336c-0.497-0.438-1.029-0.939-1.405-1.483
				c-0.607-0.882-1.001-1.813-0.422-2.459c0,0,0.271-0.254,0.661-0.218c0.169,0.017,0.479,0.038,0.857,0.373
				c0.528,0.465,1.109,1.216,1.637,3.049C17.733,16.707,17.861,17.394,17.973,18.198z"/>
			<path fill="#FF5E79" d="M18.631,18.073c0,0-0.271-0.968-0.428-2.146c-0.086-0.657-0.158-1.386-0.082-2.042
				c0.121-1.063,0.438-2.023,1.3-2.13c0,0,0.372-0.013,0.641,0.271c0.116,0.125,0.335,0.345,0.399,0.843
				c0.095,0.7,0.035,1.648-0.772,3.373C19.431,16.791,19.074,17.394,18.631,18.073z"/>
		</g>
	</g>
</g>
</svg>
