<?xml version="1.0" encoding="utf-8"?>
<!-- Generator: Adobe Illustrator 13.0.0, SVG Export Plug-In . SVG Version: 6.00 Build 14948)  -->
<!DOCTYPE svg PUBLIC "-//W3C//DTD SVG 1.1//EN" "http://www.w3.org/Graphics/SVG/1.1/DTD/svg11.dtd">
<svg version="1.1" id="Layer_1" xmlns="http://www.w3.org/2000/svg" xmlns:xlink="http://www.w3.org/1999/xlink" x="0px" y="0px"
	 width="74.555px" height="74.521px" viewBox="0 0 74.555 74.521" enable-background="new 0 0 74.555 74.521" xml:space="preserve">
<path fill="#95AF2E" d="M1.202,37.836c0.791-1.043,1.824-1.898,2.996-2.646c0.007,0.006,0.007,0.006,0.007,0.006
	c0.015-0.006,0.022-0.016,0.035-0.023c0,0-0.003,0-0.006-0.002c-0.01,0.008-0.021,0.01-0.037,0.02
	c-0.495-0.41-0.958-0.844-1.376-1.301c-0.485-0.523-0.904-1.069-1.23-1.637c-1.657-2.891-0.669-6.602,2.107-8.25
	c0.343-0.176,0.698-0.342,1.056-0.49c0.253-0.109,0.503-0.211,0.77-0.303c0.382-0.137,0.778-0.25,1.182-0.348
	c0.091-0.027,0.184-0.041,0.271-0.064c0.19-0.043,0.38-0.086,0.575-0.124c-0.687-1.233-1.149-2.493-1.32-3.739
	c-0.444-3.278,1.855-6.305,5.135-6.754c1.288-0.232,2.633-0.131,3.998,0.201c-0.029-0.314-0.061-0.628-0.07-0.934
	c-0.015-0.396-0.011-0.776,0.013-1.167c0.011-0.232,0.041-0.454,0.067-0.679c0.053-0.408,0.114-0.824,0.206-1.225
	c0.887-3.175,4.151-5.061,7.371-4.236c1.182,0.299,2.404,0.924,3.537,1.679c0.399-1.291,0.931-2.478,1.698-3.485
	c2.002-2.637,5.806-3.094,8.441-1.093c0.417,0.321,0.802,0.684,1.164,1.069c0.234,0.242,0.451,0.508,0.666,0.775
	c0.132,0.172,0.263,0.342,0.389,0.521c0.139,0.186,0.297,0.356,0.43,0.561c0.594-0.699,1.23-1.314,1.918-1.85
	c0.343-0.275,0.693-0.528,1.068-0.748c2.889-1.669,6.534-0.723,8.246,2.101c0.187,0.359,0.354,0.728,0.508,1.101
	c0.097,0.227,0.189,0.459,0.271,0.695c0.118,0.338,0.219,0.682,0.303,1.035c0.078,0.315,0.142,0.64,0.193,0.971
	c1.23-0.684,2.488-1.143,3.795-1.265c3.281-0.447,6.304,1.847,6.751,5.134c0.172,1.236,0.068,2.577-0.261,3.945
	c1.382-0.133,2.729-0.111,4.002,0.212c3.18,0.894,5.129,4.202,4.295,7.432c-0.328,1.245-0.945,2.416-1.731,3.539
	c1.371,0.444,2.536,1.026,3.558,1.802c2.635,2.006,3.143,5.736,1.14,8.379c-0.731,0.961-1.703,1.844-2.874,2.582
	c0.725,0.617,1.367,1.286,1.914,2.006c0.249,0.313,0.482,0.641,0.684,0.988c1.664,2.881,0.721,6.525-2.168,8.188
	c-1.116,0.671-2.381,1.132-3.741,1.316c0.636,1.296,1.081,2.448,1.272,3.808c0.443,3.281-1.854,6.301-5.138,6.753
	c-1.309,0.116-2.585,0.063-3.957-0.265c0.136,1.418,0.029,2.76-0.314,4.019c-0.782,3.157-4.086,5.116-7.313,4.281
	c-0.558-0.147-1.095-0.359-1.623-0.61c-0.069-0.035-0.14-0.063-0.212-0.096c-0.58-0.289-1.15-0.641-1.703-1.023
	c-0.442,1.37-1.029,2.526-1.807,3.555c-2.002,2.639-5.744,3.151-8.378,1.139c-1.021-0.771-1.892-1.741-2.689-2.94
	c-0.874,1.058-1.836,1.965-2.946,2.616c-2.887,1.658-6.594,0.666-8.257-2.219c-0.222-0.387-0.415-0.811-0.593-1.25
	c-0.052-0.125-0.105-0.24-0.149-0.364c-0.164-0.455-0.306-0.932-0.421-1.425c-0.006-0.027-0.015-0.061-0.019-0.094
	c-0.048-0.199-0.099-0.398-0.136-0.607c-1.234,0.689-2.498,1.15-3.74,1.32c-3.286,0.447-6.306-1.852-6.749-5.139
	c-0.239-1.297-0.134-2.628,0.202-4.006c-1.364,0.189-2.705,0.084-3.958-0.264c-3.229-0.832-5.115-4.09-4.287-7.318
	c0.11-0.408,0.261-0.814,0.429-1.218c0.335-0.811,0.761-1.593,1.274-2.355c-0.293-0.087-0.547-0.22-0.826-0.323
	c-0.079-0.034-0.153-0.061-0.231-0.096c-0.396-0.16-0.79-0.334-1.157-0.532c-0.458-0.243-0.903-0.509-1.311-0.814
	C-0.23,44.263-0.804,40.479,1.202,37.836z"/>
<path fill-rule="evenodd" clip-rule="evenodd" fill="#83205D" d="M30.106,9.724c-0.578,0.755-0.989,1.724-1.304,2.772
	c-0.897-0.611-1.878-1.111-2.816-1.346c-2.542-0.653-5.117,0.829-5.818,3.338c-0.224,1.031-0.31,2.088-0.161,3.157
	c-1.082-0.267-2.137-0.342-3.159-0.161c-2.589,0.357-4.4,2.735-4.045,5.331c0.134,0.978,0.496,1.97,1.039,2.944
	c-1.11,0.194-2.106,0.563-3.041,1.053c-2.191,1.299-2.969,4.223-1.66,6.499c0.482,0.845,1.228,1.648,2.089,2.308
	c-0.962,0.627-1.779,1.288-2.399,2.094c-1.582,2.084-1.13,5.069,0.951,6.646c0.814,0.617,1.743,1.076,2.784,1.394
	c-0.601,0.897-1.067,1.827-1.343,2.819c-0.655,2.547,0.833,5.113,3.377,5.77c0.99,0.266,2.05,0.355,3.121,0.207
	c-0.263,1.082-0.347,2.139-0.164,3.164c0.354,2.58,2.741,4.396,5.327,4.045c0.981-0.137,1.978-0.5,2.951-1.035
	c0.195,1.104,0.559,2.1,1.039,2.944c1.312,2.276,4.23,3.058,6.508,1.748c0.882-0.526,1.652-1.228,2.305-2.087
	c0.631,0.961,1.329,1.73,2.138,2.346c2.082,1.582,5.029,1.176,6.609-0.902c0.618-0.809,1.079-1.737,1.43-2.835
	c0.865,0.658,1.79,1.128,2.783,1.399c2.543,0.652,5.152-0.883,5.768-3.377c0.275-0.998,0.357-2.054,0.249-3.175
	c1.081,0.267,2.088,0.307,3.12,0.212c2.586-0.35,4.4-2.732,4.045-5.32c-0.144-1.077-0.494-1.98-1.002-3.002
	c1.07-0.149,2.068-0.51,2.951-1.038c2.279-1.314,3.021-4.185,1.712-6.464c-0.533-0.881-1.224-1.654-2.052-2.358
	c0.924-0.574,1.69-1.272,2.27-2.036c1.582-2.077,1.178-5.023-0.896-6.602c-0.817-0.618-1.738-1.082-2.835-1.438
	c0.652-0.855,1.116-1.789,1.396-2.776c0.654-2.544-0.885-5.153-3.392-5.852c-0.978-0.19-2.037-0.275-3.159-0.166
	c0.264-1.087,0.347-2.136,0.212-3.118c-0.351-2.594-2.738-4.402-5.327-4.045c-1.029,0.094-2.027,0.451-2.999,0.995
	c-0.146-1.069-0.509-2.062-1-3.001c-1.347-2.223-4.224-2.965-6.499-1.658c-0.885,0.531-1.652,1.229-2.357,2.051
	c-0.574-0.916-1.275-1.689-2.085-2.307C34.687,7.276,31.686,7.645,30.106,9.724z"/>
<path fill-rule="evenodd" clip-rule="evenodd" fill="#FFFFFF" d="M31.95,16.801c-0.43,0.566-0.735,1.278-0.97,2.057
	c-0.669-0.446-1.397-0.821-2.094-0.995c-1.888-0.483-3.802,0.615-4.324,2.478c-0.162,0.769-0.224,1.552-0.118,2.35
	c-0.802-0.195-1.591-0.262-2.349-0.119c-1.917,0.264-3.267,2.029-3.003,3.953c0.099,0.732,0.366,1.471,0.769,2.191
	c-0.823,0.149-1.559,0.417-2.256,0.781c-1.627,0.963-2.207,3.137-1.233,4.832c0.36,0.625,0.911,1.227,1.554,1.711
	c-0.715,0.471-1.321,0.957-1.783,1.561c-1.175,1.546-0.84,3.766,0.707,4.934c0.604,0.465,1.296,0.806,2.066,1.039
	c-0.446,0.667-0.795,1.356-0.998,2.096c-0.488,1.889,0.62,3.795,2.511,4.285c0.735,0.197,1.522,0.266,2.32,0.15
	c-0.196,0.807-0.257,1.595-0.123,2.35c0.265,1.922,2.035,3.271,3.956,3.01c0.729-0.103,1.47-0.373,2.192-0.774
	c0.149,0.825,0.417,1.563,0.772,2.19c0.974,1.694,3.148,2.273,4.841,1.305c0.654-0.396,1.224-0.92,1.71-1.555
	c0.469,0.712,0.985,1.283,1.586,1.74c1.551,1.174,3.735,0.878,4.912-0.668c0.457-0.601,0.803-1.295,1.063-2.104
	c0.643,0.484,1.328,0.832,2.067,1.037c1.888,0.484,3.827-0.662,4.284-2.51c0.202-0.74,0.264-1.526,0.185-2.357
	c0.802,0.194,1.55,0.224,2.316,0.158c1.926-0.263,3.276-2.037,3.009-3.959c-0.109-0.793-0.371-1.467-0.744-2.228
	c0.795-0.107,1.537-0.38,2.191-0.771c1.692-0.977,2.244-3.107,1.271-4.803c-0.394-0.655-0.908-1.228-1.522-1.756
	c0.688-0.424,1.254-0.941,1.686-1.511c1.176-1.541,0.873-3.73-0.67-4.905c-0.602-0.459-1.287-0.803-2.104-1.063
	c0.488-0.638,0.834-1.332,1.038-2.063c0.486-1.895-0.659-3.834-2.519-4.353c-0.732-0.138-1.516-0.198-2.348-0.116
	c0.197-0.81,0.255-1.591,0.154-2.32c-0.263-1.927-2.031-3.267-3.956-3.004c-0.765,0.066-1.505,0.332-2.23,0.738
	c-0.106-0.797-0.377-1.532-0.739-2.23c-1.003-1.651-3.139-2.205-4.828-1.23c-0.655,0.396-1.229,0.916-1.752,1.521
	c-0.43-0.682-0.951-1.254-1.548-1.713C35.351,14.983,33.124,15.254,31.95,16.801z"/>
<g>
	<path fill="#BED630" d="M38.818,38.584c0,0,1.563,1.316,3.618,2.596c1.147,0.711,2.435,1.457,3.717,1.87
		c2.071,0.669,4.116,0.886,5.038-0.62c0,0,0.338-0.677,0.035-1.416c-0.13-0.321-0.355-0.912-1.227-1.453
		c-1.217-0.76-3.025-1.449-6.9-1.4C41.867,38.176,40.45,38.328,38.818,38.584z"/>
	<path fill="#BED630" d="M35.878,39.385c0,0-1.198,1.656-2.884,3.395c-0.939,0.967-2.01,2.001-3.154,2.713
		c-1.848,1.148-3.779,1.857-5.037,0.617c0,0-0.492-0.577-0.377-1.367c0.048-0.342,0.126-0.967,0.838-1.703
		c0.998-1.029,2.586-2.141,6.359-3.031C32.822,39.727,34.234,39.535,35.878,39.385z"/>
	<path fill="#BED630" d="M36.825,39.857c0,0-1.277,1.595-2.506,3.68c-0.686,1.164-1.397,2.471-1.78,3.76
		c-0.618,2.09-0.789,4.139,0.741,5.023c0,0,0.688,0.319,1.419,0c0.315-0.137,0.897-0.379,1.42-1.26
		c0.73-1.238,1.376-3.063,1.234-6.934C37.306,42.895,37.117,41.48,36.825,39.857z"/>
	<path fill="#BED630" d="M38.091,39.666c0,0,0.111,2.036,0.59,4.412c0.265,1.324,0.606,2.769,1.184,3.989
		c0.933,1.964,2.173,3.605,3.901,3.243c0,0,0.727-0.22,1.059-0.945c0.143-0.315,0.416-0.883,0.216-1.887
		c-0.28-1.41-1.018-3.199-3.708-5.987C40.476,41.605,39.393,40.68,38.091,39.666z"/>
	<path fill="#BED630" d="M38.848,37.434c0,0,1.096-1.723,2.676-3.563c0.879-1.021,1.885-2.116,2.985-2.896
		c1.775-1.259,3.659-2.08,4.991-0.917c0,0,0.524,0.546,0.458,1.341c-0.026,0.344-0.069,0.974-0.735,1.752
		c-0.936,1.09-2.452,2.287-6.166,3.402C41.877,36.907,40.479,37.186,38.848,37.434z"/>
	<path fill="#BED630" d="M35.827,38.119c0,0-1.603-1.268-3.697-2.482c-1.168-0.68-2.476-1.381-3.77-1.759
		c-2.091-0.604-4.142-0.763-5.017,0.773c0,0-0.315,0.687,0.008,1.417c0.14,0.318,0.384,0.895,1.27,1.414
		c1.24,0.722,3.068,1.356,6.94,1.19C32.792,38.619,34.204,38.424,35.827,38.119z"/>
	<path fill="#BED630" d="M36.574,37.029c0,0-1.71-1.115-3.526-2.715c-1.014-0.896-2.097-1.914-2.863-3.021
		c-1.236-1.789-2.035-3.686-0.857-5.002c0,0,0.553-0.518,1.347-0.441c0.344,0.033,0.973,0.077,1.742,0.756
		c1.079,0.947,2.261,2.48,3.331,6.203C36.086,33.996,36.346,35.396,36.574,37.029z"/>
	<path fill="#BED630" d="M37.91,36.777c0,0-0.553-1.968-0.869-4.369c-0.174-1.34-0.322-2.814-0.168-4.154
		c0.246-2.164,0.89-4.116,2.644-4.334c0,0,0.758-0.027,1.305,0.555c0.237,0.25,0.68,0.697,0.815,1.715
		c0.188,1.421,0.071,3.355-1.573,6.864C39.541,34.169,38.815,35.396,37.91,36.777z"/>
</g>
</svg>
