<?xml version="1.0" encoding="utf-8"?>
<!-- Generator: Adobe Illustrator 13.0.0, SVG Export Plug-In . SVG Version: 6.00 Build 14948)  -->
<!DOCTYPE svg PUBLIC "-//W3C//DTD SVG 1.1//EN" "http://www.w3.org/Graphics/SVG/1.1/DTD/svg11.dtd">
<svg version="1.1" id="Layer_1" xmlns="http://www.w3.org/2000/svg" xmlns:xlink="http://www.w3.org/1999/xlink" x="0px" y="0px"
	 width="76.05px" height="113.616px" viewBox="0 0 76.05 113.616" enable-background="new 0 0 76.05 113.616" xml:space="preserve">
<g>
	<g>
		<path fill="#95AF2E" d="M69.62,64.739c0,0,10.008,5.015,5.054,23.36c-4.946,18.354-28.144,17.08-33.653,20.044
			c-5.5,2.963-6.958,5.473-6.958,5.473s7.694-5.139,9.296-14.976c1.603-9.828,1.145-23.608,8.13-30.277
			c6.975-6.663,15.551-2.507,15.551-2.507s-7.811,2.535-9.606,12.334c-1.796,9.8-7.923,17.213-7.923,17.213
			S62.669,84.315,65.887,75.37C69.118,66.428,69.62,64.739,69.62,64.739z"/>
		<path fill="#95AF2E" d="M55.084,54.04c0,0,3.355,9.772-11.787,18.672c-15.143,8.908-29.616-6.941-35.168-8.553
			C2.583,62.552,0,63.271,0,63.271s8.401,1.583,15.819-3.864c7.423-5.441,16.036-14.831,24.947-14.712
			c8.92,0.123,11.887,8.41,11.887,8.41s-6.795-3.387-14.319,1.916c-7.521,5.3-16.363,6.233-16.363,6.233s15.853,1.188,23.762-2.619
			C53.651,54.829,55.084,54.04,55.084,54.04z"/>
		<path fill="#95AF2E" d="M60.887,46.964c0,0,9.49-4.094,5.894-21.287C63.177,8.479,41.713,8.433,36.784,5.411
			C31.867,2.39,30.659,0,30.659,0s6.828,5.142,7.784,14.296c0.965,9.158-0.182,21.846,5.903,28.367
			c6.092,6.511,14.219,3.135,14.219,3.135s-7.074-2.758-8.211-11.892c-1.14-9.13-6.402-16.291-6.402-16.291S55.497,28.536,58,36.955
			C60.506,45.368,60.887,46.964,60.887,46.964z"/>
		<path fill="#95AF2E" d="M61.977,59.516c-2.715-2.796-2.654-7.266,0.139-9.982c2.803-2.72,7.273-2.652,9.988,0.144
			c2.725,2.8,2.652,7.271-0.145,9.99C69.161,62.38,64.696,62.313,61.977,59.516z"/>
	</g>
</g>
</svg>
