<svg xmlns="http://www.w3.org/2000/svg" version="1.1" x="0" y="0" width="205.3" height="191.5" viewBox="0 0 205.3 191.5" enable-background="new 0 0 205.257 191.475" xml:space="preserve"><path fill="#83205D" d="M76.7 136.6c-1 4-4.7 10.5-8.4 12.5l-1.7 3.7c-0.1 0-0.1 0-0.2 0 -1-0.4 0-2-0.1-3 -0.8 0.5-1.3 2.3-2.3 1.9 0 0-0.1-0.1-0.1-0.2l1.7-3.7c-1-4.1 1.4-11.2 3.8-14.6 3.3-4.6 5.2-11.5 5.2-11.5s-10.5 8.6-19 14.6c-8.5 6-19.9 6.7-28.8-1.4 -0.4-5-9.9-10.1-15.7-3 -1.3 1.6-6 5.5-7.4 6.1 -3.9 1.7-3-0.7-3.6-1.8 -1-1.9 18.7-13.1 18.5-15.1 -0.2-2.7 0.1-5.7 0.8-9.2 1.5-8.2 4.7-13.6 8.7-17.3 6.6-6.2 15.3-7.9 20.9-10.6 0 0-21.4-15.7-22.1-23.3 -3.3-0.3-11-50.5-1.5-60.1 2.2-2.3 8.1 0.7 15.7 3.9 19.6 8.2 41.2 27.8 44.3 51.1 1.8 6.5 5.1 13.8 8.2 18.2 7.6 11 5.6-19.2 5.3-21.8 -0.7-5.8-3.2-11-6.4-15.5 -2.4-3.5 1.1-5.3 2.7-1.3 1.9 4.9 3.4 9.1 4.2 14.6 0.6 4.3 0.8 9.2 1 13.9 0.3 6 1 4.5 0.6 9.3 3.4-3.5 2.4-1.8 7-5.4 3.8-3 7.8-6.2 11.5-8.7 4.6-3.1 8.8-4.8 13.7-6.5 4.1-1.5 5.1 2.4 0.9 2.9 -5.4 0.6-10.9 2.2-15.8 5.5 -2.1 1.5-26.2 20-12.8 18.4 5.4-0.6 13-3 19.1-6 19.5-13.1 48.5-9.9 67.6-0.6 7.4 3.6 13.6 6.1 13.3 9.2 -0.9 13.5-43.6 40.9-46 38.6 -6.2 4.5-32.1-1.2-32.1-1.2 1.7 6 6.2 13.6 5.9 22.7 -0.2 5.5-2 11.5-7.2 18 -2.2 2.8-4.2 5-6.4 6.7 -1.6 1.2 3.1 23.3 0.9 23.8 -1.3 0.3-2.4 2.6-3.8-1.5 -0.4-1.4-0.6-7.5-0.3-9.5 1.5-9-8.6-12.8-12.6-9.8 -12.1-1.3-19-10.3-20.1-20.7 -1.1-10.3-1.6-23.9-1.6-23.9S78 131.1 76.7 136.6z"/><path fill="#FF5E79" d="M78.9 122.1c-0.5 0.1-0.9-0.3-1-1.3 -0.6-5.3 4.1-15.9 7.7-25.3 1.4-3.7 3.7-6.1 4.8-8.3 1.3-2.6 6-9.1 7.9-7.9 2.1 0.6 0.4 8.5-0.7 11.2 -0.9 2.2-1.2 5.6-3.1 9.1 -4.7 9-9.6 19.5-13.9 22.5C79.7 122.6 79.2 122.5 78.9 122.1z"/><path fill="#FF5E79" d="M78.2 123.6c0.8-0.1 1.3 0.7 0.5 3.2 0 0-0.1 2.1-2.6 4.6 1 0.5-2 7.3-3.5 8 0.3 1.5-1.1 5.8-4.6 8 0 0-0.1-0.3-0.1-0.8 -0.4 0.3-0.6 0.4-0.7 0.4 -0.7-4.1 1.5-8 2.9-8.7 -0.4-1.6 2.6-8.4 3.7-7.9 0.2-3.5 1.7-4.9 1.7-4.9C76.8 123.1 77.7 123 78.2 123.6z"/><path fill="#BED630" d="M73 117.9c0 0-18.1 15.4-25.2 15.6 0 0-15.8-1.7-15.4-3.5 0.4-1.7 2.3-0.3 10.4-2.1l29.7-13.6C75 113.7 75.5 114.5 73 117.9z"/><path fill="#BED630" d="M85.9 123.7c0 0 0.5 23.8 5 29.3 0 0 11.8 10.7 12.8 9.2 1-1.5-1.2-1.9-5.3-9.2l-9.4-31.3C87.7 119.4 86.8 119.6 85.9 123.7z"/><path fill="#BED630" d="M76.1 109.4c0 0-24.7 11-32 11.3 -3.9 1.6-7.7 3.2-11.5 4.9 0 0-2.6-6.9 2.9-9.5 6-1.3 12.1-2.5 18.1-3.8 4.1-0.7 8.2-1.4 12.3-2.1C69.3 110 72.7 109.7 76.1 109.4z"/><path fill="#BED630" d="M90.2 115.7c0 0 8.1 25.8 12.7 31.5 1.3 4 2.7 7.9 4 11.9 0 0 6.9-2.6 5.2-8.4 -3-5.4-6.1-10.7-9.2-16.1 -2.2-3.5-4.4-7-6.6-10.6C94.3 121.2 92.2 118.5 90.2 115.7z"/><path fill="#FFFFFF" d="M40.6 100.6c-1.3 2-4.4 4.3-11.1 2.7 0 0 5.8-7.1 11-9 3.6 0 6.5 0.6 9 3C47.2 99.3 43 98.6 40.6 100.6z"/><path fill="#FFFFFF" d="M120.3 136.5c-0.7 2.3-0.3 6.2 5.3 10.1 0 0 1.5-9-0.5-14.2 -2.4-2.7-4.7-4.5-8.2-4.8C116.9 130.8 120.2 133.4 120.3 136.5z"/><path fill="#FFFFFF" d="M56.3 95.9c0.3-0.7 6.5-1.8 13.5-2.9 6.2-1 12.3-1.3 13.7 0.9 2.9 4.6-5 5.9-5 5.9l-7.7-0.3L56.3 95.9z"/><path fill="#FFFFFF" d="M113.4 121.6c0.3-0.7-2.9-6-6.7-12 -3.3-5.3-7.2-10.1-9.7-9.7 -5.4 0.9-1.1 7.7-1.1 7.7l5.4 5.6L113.4 121.6z"/><path fill="#FFFFFF" d="M47.6 91.4c2.2 0.5 3.6 1.1 5.8 1.6 3.7-1.2 6.9-1.1 10.6-2.3 0.1-3-1.5-4.7-4.9-5.1C53 86.5 50.7 88 47.6 91.4z"/><path fill="#FFFFFF" d="M122.6 125.2c-1.8-1.3-3.2-2-5.1-3.3 -1.5-3.6-3.8-5.9-5.3-9.5 2.1-2 4.5-1.9 7.1 0.3C122.7 117.9 123 120.7 122.6 125.2z"/><path fill="#FFFFFF" d="M64.3 83.7c1.3 2.6 2.9 4.9 7.2 4.7 4.1 0.9 4.8-0.6 8.9 0.3 -1.1-1.9 3.6-0.8 2.5-2.8C75.7 83.4 69 83.4 64.3 83.7z"/><path fill="#FFFFFF" d="M117.3 107.7c-2.8 0.8-5.6 1-8.3-2.3 -3.4-2.5-2.7-4-6.1-6.5 2.1-0.5-1.7-3.2 0.4-3.7C110 98.9 114.4 103.9 117.3 107.7z"/><path fill="#FF5E79" d="M87.6 74.9c0 0-9.8-18.1-16.7-34.5C65.7 28.2 52.9 16.5 43 13c-7.5-2.7-10.5-0.1-11.8 5.4 -0.6 2.6-0.8 6.3 2.4 12.7 3.3 6.5 2.2 4.3 8.3 4.8 4.4 0.4 11.1 2.9 18.4 12.5 0 0 17.3 24.4 22 26.5 4.7 2.1 7.4 4.3 7.4 4.3L87.6 74.9z"/><path fill="#FF5E79" d="M108.4 84.3c0 0 20-4.6 36.9-10.3 12.6-4.3 29.8-2.4 39.1 2.7 7 3.8 7.1 7.8 3.7 12.4 -1.6 2.2-4.2 4.8-11.1 6.6 -7.1 1.8-4.7 1.2-9.1-3 -3.2-3-9.5-6.4-21.6-5.5 0 0-29.7 3.2-34.4 1.1 -4.7-2.1-8.1-2.7-8.1-2.7L108.4 84.3z"/><path fill="#95AF2E" d="M59.6 56c0 0-11.1-17.3-20.3-15.5 0 0-9.3 4.6 1.4 18.6 5.6 7.2 7.4 5.9 16 8.2 5.9 1.6 13.2 4.2 18.3 8.3 0 0 10.8 8.5-0.2-4.1L59.6 56z"/><path fill="#95AF2E" d="M141.2 92.8c0 0 20.3-3.1 25 5 0 0 2.7 10-14.9 11.2 -9.1 0.6-9.3-1.6-16.8-6.6 -5.1-3.4-11.8-7.1-18.3-8.2 0 0-13.5-2.4 3.2-2.6L141.2 92.8z"/><path fill="#95AF2E" d="M56.8 70.7c0 0-9.2-3.9-8.6-1 0 0-1.2 10.5 6.8 10.8 0 0 14.2-1.4 17.5-0.2l5.9 2c0 0 0.3-2.1-1.6-3 -1.9-0.9-9.7-4.4-9.7-4.4L56.8 70.7z"/><path fill="#95AF2E" d="M132 104.6c0 0 9 4.4 6.4 5.8 0 0-7.1 7.8-12.6 2.1 0 0-8.4-11.5-11.5-13.2l-5.4-3.1c0 0 1.4-1.6 3.3-0.8 1.9 0.9 9.7 4.4 9.7 4.4L132 104.6z"/><path fill="#FFFFFF" d="M32.9 36.4c-1-2-1.4-3.6-2.9-5.3 -0.3-0.4-3.7 0.9-2.8 3.5 0 1.4-0.9 7 2.8 13.5 2.1 3 4-1.6 3.1-5 -0.2-2.7 2.3-3.3 1.5-4.3C33.7 38.1 33.6 37.2 32.9 36.4z"/><path fill="#FFFFFF" d="M173.5 99.9c2.2-0.6 3.6-1.4 5.9-1.3 0.5-0.1 1.8 3.3-0.7 4.4 -1 0.9-4.6 5.3-11.9 6.8 -3.6 0.5-1.4-4 1.7-5.6 2.1-1.6 1-3.8 2.2-4C171.7 100.3 172.5 99.8 173.5 99.9z"/><path fill="#FFFFFF" d="M35.9 58.8c0.1-0.3 4.9 4.8 7.2 8.2 1.2 0.5 3.9 8.7 2.3 8 -0.6-0.3-4-0.8-6.7-7.3 -1.3-1-2.5-2.7-3.1-5.2C35.8 61.3 35.8 60.1 35.9 58.8z"/><path fill="#FFFFFF" d="M154.8 112.4c0.2-0.3-6.8-0.5-10.9 0 -1.2-0.5-9.1 2.9-7.6 3.6 0.6 0.3 3.3 2.5 9.9 0.2 1.6 0.3 3.6 0.1 5.9-1.1C152.9 114.2 153.8 113.3 154.8 112.4z"/><path fill="#FFFFFF" d="M32.5 51.7c0 0-3.8-1.9-1.7 2 2.1 3.9 4.3 3.9 4.2 2.4C35 54.6 32.4 51.6 32.5 51.7z"/><path fill="#FFFFFF" d="M162.3 110.3c0 0 3.9 1.6-0.4 2.6 -4.3 1-5.8-0.6-4.5-1.6C158.5 110.3 162.4 110.2 162.3 110.3z"/><path fill="#FFFFFF" d="M25.4 27.2c-0.4-2.2-0.7-4.3 0.3-5.8 2.7-0.9 3.8 0.3 3.4 3.5 0.2 1.8-0.5 3.3-2 4.4C26.3 29.4 25.7 28.8 25.4 27.2z"/><path fill="#FFFFFF" d="M185.4 99.3c1.9-1.1 3.7-2.3 4.1-4 -1.1-2.6-2.7-2.7-4.8-0.2 -1.5 1.1-2.1 2.5-2 4.4C183.1 100.2 184 100.1 185.4 99.3z"/><path fill="#FFFFFF" d="M31.2 5.5c-1.7-0.2-3.2 1.9-3.3 2.9 -0.2 1 0.7 5.1 0.7 5.1 1.3-1.2 2.6-2.1 3.3-4.9C32.4 7.7 32.4 6.7 31.2 5.5z"/><path fill="#FFFFFF" d="M197.8 80.7c1.3 1.1 0.7 3.7 0 4.4 -0.6 0.8-4.3 2.9-4.3 2.9 0.1-1.7-0.1-3.4 1.5-5.7C195.3 81.2 196.1 80.6 197.8 80.7z"/><path fill="#BED630" d="M75.1 103.8c-4.3-2.4-18.3-4.3-24.1-3.4 -5.9 0.9-12.8 6.3-9.4 8.7 3.4 2.4 12.9 0.1 18.1-1.1 5.1-1.1 10.8-0.9 10.8-0.9 2.4 0 3.4 1.3 7.2 0.1C81.3 106 78.8 101.9 75.1 103.8z"/><path fill="#BED630" d="M95.1 112.8c4.6 1.7 15.3 10.9 18.5 15.8 3.2 5 3.7 13.8-0.3 12.8 -4-0.9-8.6-9.7-11.2-14.3 -2.5-4.6-6.5-8.7-6.5-8.7 -1.6-1.8-3.2-1.7-4.8-5.3C89.3 109.5 94 108.8 95.1 112.8z"/><path fill="#FFFFFF" d="M88.1 82.3c-1-1.8-1.1-2-3.8-2.1 -2.7-0.1-4.5 1.4-0.4 3.3 4.1 1.8 4 2.4 4.4 0.7C88.7 82.6 88.1 82.3 88.1 82.3z"/><path fill="#FFFFFF" d="M102.6 88.9c2-0.5 2.2-0.5 4.1 1.5 1.9 1.9 1.9 4.3-2.2 2.5 -4.1-1.8-4.4-1.5-3.5-2.8C102 88.6 102.6 88.9 102.6 88.9z"/><path fill="#FFFFFF" d="M38.2 108.9c-0.7-0.9-7.2-2.9-8.4 0.2 -1.2 3.1-2.8 3.5-1.1 4.2 0.6 0.3 1.6 1.4 2.5 1.4 1.5 0 3.1-1.4 4.1-2 1.6-1-0.5-1.9-0.2-2.2C35.4 110.3 37.6 109.3 38.2 108.9z"/><path fill="#FFFFFF" d="M115.6 143.8c1.2 0 6.9 3.5 5.4 6.4 -1.5 2.9-0.8 4.4-2.4 3.6 -0.6-0.3-2.1-0.3-2.7-0.9 -1-1.1-1-3.2-1.2-4.4 -0.3-1.8 1.8-0.9 1.7-1.3C116.5 146.9 115.7 144.5 115.6 143.8z"/><path fill="#FFFFFF" d="M29.4 120.4c0.1-1.5-1.4-4-1.9-3.3 -0.5 0.7-2.4 2.5-0.7 4.6 1.7 2.1 0.4 4.9 2 3.5C31 124.2 30 120.7 29.4 120.4z"/><path fill="#FFFFFF" d="M112.8 158c1-1 3.9-1.6 3.8-0.8 -0.2 0.9-0.2 3.5-2.9 3.6 -2.7 0.1-4 2.9-4 0.9C108.9 159.3 112.3 157.8 112.8 158z"/></svg>