<?xml version="1.0" encoding="utf-8"?>
<!-- Generator: Adobe Illustrator 13.0.0, SVG Export Plug-In . SVG Version: 6.00 Build 14948)  -->
<!DOCTYPE svg PUBLIC "-//W3C//DTD SVG 1.1//EN" "http://www.w3.org/Graphics/SVG/1.1/DTD/svg11.dtd">
<svg version="1.1" id="Layer_1" xmlns="http://www.w3.org/2000/svg" xmlns:xlink="http://www.w3.org/1999/xlink" x="0px" y="0px"
	 width="205.257px" height="191.475px" viewBox="0 0 205.257 191.475" enable-background="new 0 0 205.257 191.475"
	 xml:space="preserve">
<g>
	<path fill="#83205D" d="M76.736,136.635c-0.961,3.985-4.688,10.46-8.426,12.482l-1.651,3.664c-0.063,0.012-0.125,0.013-0.184,0.009
		c-0.986-0.438,0.01-2.033-0.126-2.963c-0.797,0.511-1.338,2.313-2.312,1.868c-0.048-0.046-0.086-0.093-0.123-0.153l1.655-3.658
		c-0.951-4.145,1.438-11.224,3.786-14.584c3.257-4.608,5.191-11.5,5.191-11.5s-10.514,8.638-18.991,14.639
		c-8.478,6.013-19.852,6.733-28.823-1.425c-0.405-4.962-9.948-10.056-15.701-2.979c-1.3,1.6-6.042,5.513-7.354,6.082
		c-3.948,1.701-3.045-0.663-3.642-1.832c-0.991-1.933,18.667-13.053,18.488-15.061c-0.249-2.747,0.142-5.693,0.774-9.2
		c1.468-8.209,4.74-13.583,8.729-17.323c6.646-6.226,15.277-7.916,20.875-10.593c0,0-21.405-15.668-22.112-23.254
		c-3.264-0.312-11.006-50.451-1.527-60.058c2.167-2.27,8.149,0.711,15.731,3.889c19.591,8.215,41.203,27.81,44.3,51.093
		c1.838,6.488,5.069,13.771,8.156,18.228c7.635,11.036,5.635-19.227,5.303-21.805c-0.75-5.831-3.213-10.976-6.367-15.458
		c-2.442-3.465,1.126-5.266,2.718-1.264c1.935,4.858,3.428,9.069,4.156,14.582c0.571,4.312,0.804,9.225,1.023,13.933
		c0.278,5.972,1.005,4.47,0.6,9.266c3.355-3.509,2.448-1.754,6.968-5.383c3.788-3.041,7.769-6.246,11.495-8.75
		c4.615-3.104,8.759-4.771,13.68-6.543c4.053-1.452,5.073,2.409,0.855,2.878c-5.449,0.604-10.938,2.16-15.807,5.455
		c-2.148,1.459-26.16,19.988-12.837,18.411c5.388-0.638,12.984-3.031,19.066-5.955c19.5-13.091,48.495-9.853,67.62-0.604
		c7.404,3.58,13.589,6.091,13.324,9.212c-0.926,13.466-43.641,40.852-46.029,38.609c-6.151,4.487-32.07-1.185-32.07-1.185
		c1.699,5.964,6.153,13.556,5.883,22.659c-0.162,5.456-2.031,11.47-7.213,18.005c-2.201,2.794-4.167,5.033-6.382,6.673
		c-1.624,1.195,3.05,23.289,0.942,23.823c-1.271,0.323-2.448,2.57-3.782-1.514c-0.442-1.362-0.644-7.508-0.306-9.538
		c1.494-8.993-8.642-12.777-12.625-9.794c-12.053-1.334-19.048-10.345-20.149-20.67c-1.107-10.327-1.596-23.922-1.596-23.922
		S78.04,131.133,76.736,136.635z"/>
	<path fill="#FF5E79" d="M78.864,122.069c-0.55,0.063-0.925-0.314-1.036-1.313c-0.555-5.271,4.091-15.852,7.705-25.323
		c1.409-3.697,3.718-6.14,4.775-8.326c1.283-2.647,6.048-9.069,7.9-7.93c2.083,0.637,0.426,8.456-0.711,11.171
		c-0.939,2.241-1.245,5.595-3.082,9.09c-4.709,8.983-9.561,19.465-13.883,22.538C79.714,122.555,79.184,122.521,78.864,122.069z"/>
	<path fill="#FF5E79" d="M78.165,123.624c0.782-0.067,1.322,0.681,0.469,3.176c0,0-0.127,2.11-2.57,4.56
		c1.026,0.466-2.046,7.276-3.51,8.011c0.331,1.541-1.092,5.847-4.622,7.968c-0.036-0.042-0.098-0.32-0.113-0.776
		c-0.353,0.288-0.604,0.425-0.657,0.43c-0.747-4.054,1.537-7.97,2.915-8.735c-0.422-1.589,2.649-8.395,3.679-7.936
		c0.22-3.457,1.715-4.945,1.715-4.945C76.777,123.079,77.696,122.993,78.165,123.624z"/>
	<path fill="#BED630" d="M72.965,117.867c0,0-18.128,15.368-25.207,15.647c0,0-15.815-1.731-15.413-3.48
		c0.404-1.743,2.285-0.338,10.402-2.085l29.696-13.623C75.015,113.713,75.468,114.457,72.965,117.867z"/>
	<path fill="#BED630" d="M85.917,123.71c0,0,0.479,23.763,4.951,29.254c0,0,11.764,10.709,12.805,9.249
		c1.048-1.459-1.248-1.938-5.313-9.181l-9.438-31.275C87.675,119.425,86.817,119.578,85.917,123.71z"/>
	<path fill="#BED630" d="M76.139,109.4c0,0-24.68,11.034-32.008,11.324c-3.854,1.623-7.696,3.244-11.548,4.86
		c0,0-2.623-6.938,2.852-9.505c6.037-1.252,12.072-2.518,18.107-3.772c4.103-0.688,8.199-1.382,12.295-2.07
		C69.273,109.957,72.702,109.684,76.139,109.4z"/>
	<path fill="#BED630" d="M90.162,115.731c0,0,8.068,25.795,12.697,31.48c1.332,3.961,2.663,7.916,4.001,11.877
		c0,0,6.938-2.624,5.231-8.432c-3.049-5.354-6.102-10.711-9.153-16.074c-2.194-3.521-4.384-7.049-6.585-10.583
		C94.292,121.244,92.225,118.487,90.162,115.731z"/>
	<path fill="#FFFFFF" d="M40.625,100.616c-1.272,1.999-4.44,4.312-11.106,2.712c0,0,5.793-7.078,10.997-9.05
		c3.607-0.021,6.505,0.563,9.017,2.972C47.164,99.301,42.996,98.563,40.625,100.616z"/>
	<path fill="#FFFFFF" d="M120.251,136.533c-0.66,2.281-0.293,6.186,5.319,10.126c0,0,1.476-9.031-0.493-14.232
		c-2.373-2.721-4.727-4.511-8.195-4.801C116.912,130.759,120.223,133.403,120.251,136.533z"/>
	<path fill="#FFFFFF" d="M56.328,95.903c0.334-0.719,6.46-1.771,13.45-2.939c6.171-1.032,12.286-1.297,13.669,0.878
		c2.949,4.628-4.995,5.938-4.995,5.938l-7.723-0.35L56.328,95.903z"/>
	<path fill="#FFFFFF" d="M113.395,121.644c0.321-0.729-2.946-6.013-6.698-12.026c-3.313-5.315-7.162-10.066-9.705-9.666
		c-5.423,0.853-1.15,7.675-1.15,7.675l5.381,5.558L113.395,121.644z"/>
	<path fill="#FFFFFF" d="M47.579,91.391c2.17,0.503,3.63,1.121,5.807,1.622c3.668-1.229,6.947-1.096,10.612-2.313
		c0.106-2.956-1.527-4.653-4.898-5.086C53.027,86.461,50.67,88.033,47.579,91.391z"/>
	<path fill="#FFFFFF" d="M122.569,125.219c-1.813-1.296-3.245-1.988-5.06-3.282c-1.514-3.558-3.777-5.931-5.289-9.483
		c2.144-2.039,4.498-1.933,7.055,0.306C122.662,117.863,123.042,120.677,122.569,125.219z"/>
	<path fill="#FFFFFF" d="M64.258,83.745c1.284,2.598,2.941,4.854,7.233,4.701c4.144,0.912,4.795-0.626,8.941,0.281
		c-1.053-1.916,3.552-0.838,2.497-2.755C75.654,83.358,68.996,83.401,64.258,83.745z"/>
	<path fill="#FFFFFF" d="M117.257,107.653c-2.791,0.758-5.586,1.005-8.307-2.313c-3.43-2.501-2.703-4.013-6.133-6.518
		c2.137-0.474-1.722-3.216,0.41-3.693C110.009,98.854,114.378,103.872,117.257,107.653z"/>
	<path fill="#FF5E79" d="M87.611,74.93c0,0-9.808-18.061-16.703-34.469C65.73,28.154,52.93,16.543,43.01,12.961
		c-7.456-2.693-10.521-0.125-11.761,5.392c-0.596,2.631-0.826,6.311,2.398,12.65c3.313,6.537,2.239,4.303,8.278,4.813
		c4.36,0.377,11.075,2.856,18.444,12.527c0,0,17.255,24.412,21.95,26.529c4.696,2.115,7.364,4.316,7.364,4.316L87.611,74.93z"/>
	<path fill="#FF5E79" d="M108.414,84.314c0,0,20.025-4.599,36.895-10.294c12.648-4.266,29.822-2.354,39.079,2.713
		c6.952,3.803,7.059,7.804,3.741,12.38c-1.578,2.186-4.189,4.796-11.069,6.582c-7.099,1.84-4.702,1.159-9.095-3.027
		c-3.162-3.011-9.471-6.403-21.594-5.527c0,0-29.713,3.219-34.416,1.102c-4.695-2.117-8.104-2.661-8.104-2.661L108.414,84.314z"/>
	<path fill="#95AF2E" d="M59.566,55.967c0,0-11.117-17.323-20.271-15.464c0,0-9.321,4.597,1.402,18.587
		c5.55,7.243,7.361,5.912,16.033,8.188c5.946,1.563,13.174,4.157,18.291,8.296c0,0,10.784,8.52-0.162-4.069L59.566,55.967z"/>
	<path fill="#95AF2E" d="M141.19,92.785c0,0,20.338-3.132,25.004,4.961c0,0,2.726,10.029-14.854,11.248
		c-9.104,0.632-9.309-1.599-16.754-6.6c-5.108-3.425-11.832-7.124-18.322-8.217c0,0-13.527-2.446,3.156-2.571L141.19,92.785z"/>
	<path fill="#95AF2E" d="M56.752,70.707c0,0-9.249-3.856-8.608-0.976c0,0-1.16,10.459,6.761,10.804c0,0,14.186-1.355,17.529-0.17
		l5.881,2.008c0,0,0.313-2.122-1.564-2.969c-1.886-0.852-9.67-4.363-9.67-4.363L56.752,70.707z"/>
	<path fill="#95AF2E" d="M132.001,104.646c0,0,9.015,4.388,6.429,5.809c0,0-7.074,7.795-12.572,2.084c0,0-8.375-11.53-11.476-13.247
		l-5.396-3.086c0,0,1.386-1.64,3.267-0.792c1.875,0.851,9.668,4.361,9.668,4.361L132.001,104.646z"/>
	<path fill="#FFFFFF" d="M32.88,36.441c-1.01-2.049-1.366-3.628-2.947-5.269c-0.292-0.408-3.692,0.857-2.836,3.459
		c-0.032,1.39-0.936,6.991,2.751,13.454c2.063,3.049,3.963-1.586,3.094-4.976c-0.199-2.675,2.25-3.261,1.488-4.285
		C33.748,38.116,33.562,37.152,32.88,36.441z"/>
	<path fill="#FFFFFF" d="M173.49,99.866c2.199-0.609,3.615-1.377,5.893-1.276c0.498-0.051,1.809,3.333-0.709,4.415
		c-1.024,0.938-4.625,5.325-11.909,6.848c-3.649,0.462-1.44-4.025,1.682-5.615c2.138-1.621,0.959-3.846,2.235-3.953
		C171.66,100.317,172.5,99.822,173.49,99.866z"/>
	<path fill="#FFFFFF" d="M35.876,58.794c0.148-0.332,4.901,4.75,7.229,8.167c1.158,0.521,3.853,8.744,2.309,8.044
		c-0.641-0.285-4.003-0.81-6.657-7.267c-1.263-0.98-2.455-2.695-3.051-5.155C35.763,61.325,35.818,60.061,35.876,58.794z"/>
	<path fill="#FFFFFF" d="M154.75,112.417c0.152-0.336-6.805-0.532-10.9-0.017c-1.163-0.521-9.114,2.896-7.571,3.596
		c0.644,0.287,3.267,2.467,9.862,0.181c1.572,0.29,3.643,0.058,5.879-1.129C152.931,114.171,153.839,113.291,154.75,112.417z"/>
	<path fill="#FFFFFF" d="M32.511,51.749c0,0-3.804-1.868-1.691,2.023c2.113,3.893,4.259,3.931,4.197,2.356
		C34.957,54.555,32.436,51.559,32.511,51.749z"/>
	<path fill="#FFFFFF" d="M162.255,110.279c0,0,3.916,1.606-0.4,2.596c-4.313,0.995-5.762-0.58-4.538-1.58
		C158.541,110.301,162.447,110.206,162.255,110.279z"/>
	<path fill="#FFFFFF" d="M25.432,27.191c-0.442-2.179-0.705-4.262,0.309-5.773c2.662-0.885,3.783,0.276,3.352,3.484
		c0.174,1.825-0.484,3.277-1.975,4.358C26.29,29.446,25.727,28.753,25.432,27.191z"/>
	<path fill="#FFFFFF" d="M185.351,99.325c1.919-1.103,3.66-2.289,4.129-4.049c-1.105-2.584-2.713-2.654-4.829-0.212
		c-1.489,1.084-2.146,2.538-1.971,4.368C183.093,100.175,183.982,100.139,185.351,99.325z"/>
	<path fill="#FFFFFF" d="M31.21,5.535c-1.7-0.209-3.226,1.864-3.275,2.899c-0.232,0.99,0.743,5.146,0.743,5.146
		c1.254-1.191,2.597-2.146,3.282-4.858C32.434,7.749,32.393,6.712,31.21,5.535z"/>
	<path fill="#FFFFFF" d="M197.759,80.664c1.285,1.132,0.738,3.65-0.006,4.377c-0.588,0.827-4.349,2.85-4.349,2.85
		c0.066-1.73-0.106-3.373,1.466-5.683C195.289,81.208,196.1,80.559,197.759,80.664z"/>
	<path fill="#BED630" d="M75.092,103.759c-4.314-2.357-18.266-4.262-24.137-3.393c-5.867,0.866-12.788,6.34-9.416,8.732
		c3.372,2.383,12.949,0.064,18.073-1.075c5.133-1.148,10.793-0.9,10.793-0.9c2.386,0.019,3.413,1.285,7.177,0.063
		C81.349,105.962,78.833,101.945,75.092,103.759z"/>
	<path fill="#BED630" d="M95.091,112.776c4.62,1.669,15.28,10.873,18.513,15.849c3.235,4.979,3.714,13.784-0.31,12.837
		c-4.025-0.943-8.629-9.655-11.163-14.262c-2.536-4.607-6.465-8.687-6.465-8.687c-1.6-1.775-3.226-1.701-4.8-5.336
		C89.292,109.544,93.968,108.772,95.091,112.776z"/>
	<path fill="#FFFFFF" d="M88.079,82.315c-0.963-1.768-1.118-1.959-3.807-2.08c-2.685-0.114-4.477,1.446-0.386,3.296
		c4.091,1.842,4.036,2.366,4.417,0.714C88.678,82.594,88.079,82.315,88.079,82.315z"/>
	<path fill="#FFFFFF" d="M102.562,88.854c1.971-0.453,2.218-0.46,4.078,1.477c1.863,1.931,1.884,4.31-2.209,2.466
		c-4.091-1.846-4.447-1.461-3.461-2.837C101.959,88.58,102.562,88.854,102.562,88.854z"/>
	<path fill="#FFFFFF" d="M38.234,108.88c-0.732-0.895-7.212-2.873-8.41,0.188c-1.185,3.05-2.763,3.479-1.141,4.213
		c0.606,0.272,1.577,1.387,2.48,1.375c1.511-0.027,3.066-1.407,4.051-2.026c1.584-0.984-0.471-1.943-0.158-2.151
		C35.371,110.273,37.605,109.298,38.234,108.88z"/>
	<path fill="#FFFFFF" d="M115.642,143.799c1.156-0.043,6.93,3.509,5.423,6.421c-1.504,2.918-0.772,4.383-2.394,3.646
		c-0.615-0.275-2.088-0.259-2.678-0.944c-0.984-1.15-0.976-3.23-1.166-4.38c-0.309-1.84,1.772-0.933,1.723-1.301
		C116.494,146.868,115.748,144.543,115.642,143.799z"/>
	<path fill="#FFFFFF" d="M29.433,120.423c0.093-1.468-1.393-4.033-1.908-3.315c-0.511,0.715-2.446,2.485-0.743,4.582
		c1.704,2.093,0.426,4.921,1.994,3.545C31.049,124.177,29.985,120.672,29.433,120.423z"/>
	<path fill="#FFFFFF" d="M112.814,158.04c1.042-1.048,3.945-1.628,3.75-0.771c-0.193,0.857-0.24,3.487-2.943,3.591
		c-2.693,0.104-3.975,2.936-3.979,0.853C108.931,159.307,112.266,157.788,112.814,158.04z"/>
</g>
</svg>
