<svg xmlns="http://www.w3.org/2000/svg" version="1.1" x="0" y="0" viewBox="0 0 312.4 36.1" xml:space="preserve"><path fill="#3ebdd4" d="M6.9 29.6c-0.4 0.1-0.9 0.2-1.3 0.2C2.8 30 0 28.2 0 26.9c0-0.5 0.2-0.6 0.7-0.6 1.8 0 2.2 1.6 3.7 2.6 0.7 0 1.5 0 2.3-0.2C17.4 25.1 25 15.3 32 6.6c3.1-4.2 3.2-4.7 3.3-4.7 1.2 0 1 1.9 0.8 2.6l-3.4 5.8c-5.3 8.6-6.9 12.6-7.3 14 0.2 0 1-1.2 1.4-1.8C33 14.8 38 6.2 46.4 0.3c1-0.5 2-0.6 2.2 1.1 0.6-0.9 0.8-1.1 1-1.1 1 0 0.9 2 0.6 2.6l-5 7.4c-7.2 11.7-7.3 13.9-7.3 14.4 0 0.6 0.3 0.8 0.6 0.8 0.2 0 6.4-3.8 6.5-4.2 0.2-0.1 0.3-0.1 0.4-0.1 0.2 0 0.2 0 0.2 0.2 0 0.6-4.3 4.2-5.9 4.9 -0.5 0.2-1 0.3-1.3 0.3 -1.4 0-1.7-1.6-1.7-1.6 -0.1-0.2-0.1-0.6-0.1-0.8 0-5.7 8.2-17.4 11.3-21.7 0-0.7 0.1-1.8-1-1.2C39 6.6 33.7 15.5 27.7 23c-1.5 1.9-2.4 2.9-3 2.9 -0.6 0-0.6-0.4-0.6-0.8 0-3.2 2.2-8.2 5-13.1C22.9 19.3 16.3 26.5 6.9 29.6zM66.6 27.8c0 1.6-3.8 3.4-8.1 3.4 -3 0-6.2-1.1-9.1-1.8 -3.1 3.8-6.4 6.2-10.2 6.1 -1.8 0-4.6-1-4.6-3.4 0-3.9 5-4.6 7.8-4.6 2 0 3.9 0.2 5.9 0.6 1.7-2.2 2.7-4.2 3.1-5 -4.3 2.7-5.5 3-6 3 -1.7 0-1.8-1.8-1.8-1.8 0-0.2 0-0.3 0-0.5 0-1.8 4-12.6 8.1-12.6 0.4 0 0.6 0.2 0.6 0.5s-0.2 0.7-0.3 0.8c-6.4 8.8-7 11.4-7 11.4 -0.1 0.2-0.1 0.4-0.1 0.6 0 0.6 0.4 0.6 0.6 0.6 0.6 0 5.6-3 6.6-3.5 2.2-4.5 4.7-10.3 7.8-10.3 0.3 0 0.4 0.2 0.4 0.5 0 0.3-0.2 0.7-0.2 0.8 -3.6 4.9-6.3 11.4-10.1 16.1 3 0.8 6.1 1.7 9 1.7 1.1 0 2.3-0.2 3.4-0.5 1.3-0.4 1.7-2.6 3.5-2.6 0.2 0 0.4 0.1 0.6 0.2C66.6 27.5 66.6 27.7 66.6 27.8zM47.6 29c-1.7-0.3-3.4-0.6-5-0.6 -2.9 0-7 0.7-7 3.6 0 1.7 2.2 2.5 3.6 2.5 1.4 0 2.7-0.5 4-1.3C44.9 32 46.3 30.5 47.6 29zM80.2 23.8c1.1-1.1 1.9-2.6 1.9-4.4 0-4.8-5.3-8.4-5.3-13.3 0-3.8 3.1-6.2 6.8-6.2 3.1 0.1 5.8 2.6 5.8 5.5 0 0.7-0.2 1.2-0.6 1.2 -0.6 0-1.7-1.2-1.7-2.6 0-0.2 0.1-0.6 0.1-0.8 0-1.4-2.2-2.2-3.5-2.2 -2.6 0-5 0.6-5 4.8 0 3.4 5.8 7.8 5.8 13.3 0 2.6-1.3 4.7-2.6 5.9 5.1 3.2 10.7 5.6 16.6 5.6 2.7 0 4.6-0.2 7.9-1.4 2.6-1.2 1.8-3.2 3.8-3.2 0.5 0 0.7 0.2 0.7 0.6 0 1.6-4.8 5-12.4 5 -6.2 0-12.1-2.6-17.4-5.9 -1.8 1.3-5.2 2.1-8 2.1 -3.3 0-7.2-2.2-7.6-6.6 -0.3-3.6 0.7-5.2 2.7-5.1C71.1 16.2 76.9 21.8 80.2 23.8zM73.2 26.7c2.2 0 4.6-0.8 6.3-2.2 -3.9-2.6-9.1-7.8-11.4-7.8 -1.1 0-1.6 0.7-1.5 3.8C66.6 24 69.5 26.7 73.2 26.7zM94.4 24.3c0 0.6 0.4 0.7 0.6 0.7 1.4 0 5.6-3.7 6.2-3.7 0.1 0 0.2 0.1 0.2 0.2 0 0.3-0.6 1-0.6 1 -4.6 4-6 3.5-6 3.6 -1.7 0-1.8-1.8-1.8-1.8 0-0.9 0.1-1.6 0.5-2.8v0.1c-1.8 1.7-5.2 3.8-5.2 3.8 -0.8 0.5-1.4 0.6-1.8 0.6 -1.5 0-1.6-1.4-1.6-2.2 0-2.8 2.9-6.4 2.9-6.4 4.5-5.5 6.9-5.9 6.9-5.9 1.6-0.7 3.2 0.5 2.8 2.7 0.8-1.2 1.8-3 3.7-3 0.5 0 0.6 0.2 0.6 0.5 0 0.3-0.2 0.7-0.2 0.8C94.6 21.8 94.4 23.7 94.4 24.3zM96.6 15c0-0.7-0.1-1.8-0.9-1.8 -1.4 0-5 4.2-5.9 5.2 0 0-3.4 3.5-3.4 5.8 0 0.2 0 0.5 0.2 0.6 0.2 0.1 1-0.2 2.5-1.1C89.5 23.4 96.6 18.8 96.6 15zM108.7 22.9c-1.5 2-1.3 3-1.9 3 -0.2 0-0.4-0.4-0.4-1 0-0.5 0.1-1.2 0.4-2 1.9-5.4 3.5-7.5 5.5-10.4 -4.2 1.5-8.5 6.2-11 10.4 -1.4 1.8-1.2 3-2 3 -0.2 0-0.4-0.4-0.4-1 0-0.6 0.1-1.2 0.4-2 3.8-9 5.9-11.6 8.2-11.7 0.3 0 0.4 0.2 0.4 0.5 0 1.1-2.4 3.7-3.4 5.1 1.8-1.8 5.7-5.6 8.5-5.6 0.9 0 1.7 0.6 1.7 1.4 0 0.9-1.9 3-2.7 4.2 2.2-2.3 4.6-4.3 7.8-5.5 0.8-0.3 3.2-0.3 3.2 1.5 0 0.4-0.1 0.7-0.2 0.8 -5.5 7.7-6.2 9.6-6.2 10.2 0 1 0.5 1.1 0.7 1.1 0.7 0 5.8-3.5 5.8-3.6 0.2-0.1 0.3-0.1 0.4-0.1 0.1 0 0.2 0.1 0.2 0.2 0 0.3-0.6 1-0.6 1 -5 3.8-6.1 3.6-5.9 3.6 -1.2 0-1.8-1.1-1.8-2.3 0-2.6 1.9-5.8 4.7-10.1 0.5-0.6 0.9-1.3 0.7-1.4 -0.2 0-0.5 0.1-0.7 0.2C115.4 14.2 111.4 18.6 108.7 22.9zM129.3 12.6c0.1 0.8 0 0.6-0.9 2.2 1.1-1.6 4.7-3.3 6.1-3.5 2-0.3 3.4 0.4 2.6 2.4 -5.7 7.8-6.3 9.6-6.3 10.2 0 1 0.2 1 0.7 1.1 0.9 0.2 5.8-3.5 5.8-3.6 0.2-0.1 0.2-0.1 0.3-0.1 0.2 0 0.2 0.1 0.2 0.2 0 0.3-0.6 1-0.6 1 -4.5 3.6-5.8 3.6-6 3.6 -1.2 0-1.8-1.1-1.8-2.3 0-2.6 2-5.8 4.8-10.1 0.4-0.6 0.8-1.4 0.6-1.4 -2.9 0-8.1 4.8-9 6.5 -2.6 4.6-6.1 11-6.4 14.2 0 1 0.2 1.1 0.6 1.1 0.5 0 0.5-0.2 0.7-0.2 0.4 0 0.5 0.5 0.5 0.7 0 0.4-1.1 0.5-1.3 0.5 -1.8 0-1.9-1.5-1.9-2.3 0-0.2 0-0.5 0-0.5 0-6.8 9.5-21.6 10.6-21C129.1 11.6 129.2 12.1 129.3 12.6zM137.4 24.4c0 0.6 0.3 0.6 0.6 0.6 1.4 0 5.8-3.4 5.8-3.6 0.1-0.1 0.6-0.2 0.6 0.1 0.1 0.5-0.6 1-0.6 1 -4.4 3.8-5.8 3.6-5.9 3.6 -1.9 0.1-1.8-1.8-1.8-1.8 0-6.2 13.9-22.8 14.4-22.8 0.3-0.3 0.6-0.4 0.7-0.4 0.6 0 0.7 0.8 0.7 1.1 0 0.7-0.4 1.4-0.4 1.4l-5.7 7C137.6 21.7 137.4 23.8 137.4 24.4zM155.8 18.7c0.2 0.2-0.4 1.4-1 2.1 -1.5 1.8-2.5 2.5-4.4 3.6 -1.8 1-6.4 3.4-7.4 0 -1-3.6 4.2-11.3 7.7-12.9 1.2-0.6 2.8-0.6 3.4 0.9 1.9 5.4-5 8.1-8.5 9.8 -0.3 0.1-0.6 0.2-0.9 0.2 -0.3 0.9-0.4 1.7-0.2 2.3 0.5 1 3.9-0.3 5.4-1.3 2.2-1.4 2.6-1.8 4.1-3.3C154.6 19.4 155.5 18.6 155.8 18.7zM145.4 21.1c3.7-1.5 8.8-4.2 7.8-8 -0.2-0.5-1.1 0-1.9 0.6C149 15.4 146.7 18.3 145.4 21.1zM188.3 0.4c3 0 6.4 1.2 6.4 5.3 0 7.8-8.3 16.5-16.9 17.4 2.4 3.3 5.2 7.2 9.5 7.2 1.5 0 2-2.1 3.7-2.1 0.5 0 0.8 0.2 0.8 0.5 0 1.8-3.7 2.4-4.9 2.4 -4.9 0-7.8-4.3-10.2-7.8 -0.6 0.1-1.1 0.1-1.6 0.1 -1.8 0-3-0.2-4.9-0.9 -2.1 4.6-1.7 5.1-1.8 5.1 -1 0-1.1-0.3-1.1-0.8 0-1.7 0.4-3.4 1.2-5.6 -0.3-0.5-0.6-1-0.7-1.7 -0.2-1.4 0.8-2.8 2.6-2.6 2.8-5.4 6.4-10.2 6.4-10.2 0.3-0.5 0.6-0.6 0.7-0.6 0.6 0 0.9 1 0.9 1.4 0 0.6-0.3 1.2-0.3 1.2l-2 3.4c-1.4 2.2-2.5 3.9-3.3 5.5 2 1.1 3.4 3.1 4.6 4.6 6.6-1.5 14.8-8.5 14.8-16.2 0-2.1-0.9-3.8-3.8-4.5 -13.3 0-24.4 9-36.9 13.4 -1 0.3-1.8 0.6-2.8 0.2 0 0-4.1-1.2-4.1-3.8 0-0.3 0.2-0.6 0.6-0.6 2.4 0 1.7 3.5 4.2 3.5 0.5 0 1.4-0.2 1.9-0.4C163.2 9.5 175 0.4 188.3 0.4zM169.8 18c-1 0.2-1.4 1-1 2.1C169.2 19.4 169.5 18.7 169.8 18zM174.9 22.4c0.4 0 0.8 0 1.2-0.1 -1.1-1.6-2.3-3-3.8-3.8 -0.6 1.2-1.1 2.2-1.6 3.1C171.9 22.1 173.3 22.4 174.9 22.4zM202.2 18.7c0.2 0.2-0.4 1.4-1 2.1 -1.5 1.8-2.5 2.5-4.4 3.6 -1.8 1-6.4 3.4-7.4 0 -1-3.6 4.2-11.3 7.7-12.9 1.2-0.6 2.8-0.6 3.4 0.9 1.9 5.4-5 8.1-8.5 9.8 -0.3 0.1-0.6 0.2-0.9 0.2 -0.3 0.9-0.4 1.7-0.2 2.3 0.5 1 3.9-0.3 5.4-1.3 2.2-1.4 2.6-1.8 4.1-3.3C201 19.4 201.9 18.6 202.2 18.7zM191.8 21.1c3.7-1.5 8.8-4.2 7.8-8 -0.2-0.5-1.1 0-1.9 0.6C195.4 15.4 193.1 18.3 191.8 21.1zM209.4 11.3c1.5 0 2.2 1.4 1.8 3.7 -0.6 3-2.3 2.9-2.3 2.9l0.1-0.1 -0.1 0.1c-0.3-0.1-0.2-0.8-0.2-1 0-0.6 1.5-2 1.5-3.4 -0.5 0-1 0.2-1.8 0.6 -1.8 1.2-7.3 7.1-7.3 9.8 0 0.8 0.7 1 1.4 1 4.6 0 10-6 11-7.8 0.1-0.1 0.2 0.1 0.2 0.2 0 2.5-7.4 8.6-11.1 8.7 -2.3 0.1-2.9-1.3-2.9-2.9 0-3.5 5.8-10.6 8.8-11.7C208.8 11.4 209.1 11.3 209.4 11.3zM221 19.6c-0.5 0-0.6 0.4-1 0.9 -0.2 0.2-4 5.7-8.2 5.7 -0.6 0-1.8-0.2-1.8-2 -0.2-5.9 6.7-13.4 10.9-13.4 2.1 0 2.2 2 2.2 2.7 0 1-0.2 2.7-1.7 5 2.4-0.2 4.3-1.6 5.2-3.4 0.1-0.2 0.3-0.4 0.5-0.4 0.6 0 0.6 0.8 0.6 0.9C226.6 17.8 224 19.6 221 19.6zM219.5 19.4c-2-0.5-3.5-2-3.5-4.1 0-0.2 0-0.6 0.1-0.8 -1.9 2.1-4.1 5.8-4.1 9.1 0 1.3 0.6 1.2 0.6 1.2C215.2 24.7 218.5 20.7 219.5 19.4zM221.4 14.3c0-1.6-1-1.9-1.5-1.9 -2.2 0-2.8 2.2-2.8 2.9 0 1.4 1.1 2.6 3 3.1C221.1 16.3 221.4 15 221.4 14.3zM233.9 12.6c-4.1 2.2-7.5 6.3-9.9 10.4 -1.2 2-1.4 3-1.9 3 -0.2 0-0.4-0.4-0.4-1 0-0.5 0-1.2 0.4-2 2.8-6 5.6-12.2 8.2-11.7 0.2 0.1 0.4 0.2 0.4 0.4 0 1-1.9 3-2.8 4.4 1.5-1.6 4.8-4.8 6.9-4.8 1 0 1.7 0.7 1.7 2.3 0 3.7-2.1 4.6-2.5 4.6 -0.7 0-0.6-1-0.4-1.4 0.2-0.6 1.4-2.2 1.6-3.9C235.2 12.1 234.3 12.3 233.9 12.6zM257.7 2.2c0 0.7-0.5 1.4-0.5 1.4l-5.7 7c-8.3 11-8.6 13.2-8.6 13.8 0 0.6 0.4 0.7 0.6 0.7 1.3 0.2 5.4-3.7 6.2-3.7 0.2 0 0.2 0.1 0.2 0.2 0 0.3-0.6 1-0.6 1 -2.6 2.2-5 3.7-6 3.6 -1.7-0.2-1.8-1.8-1.8-1.8 0-0.6 0.1-1.4 0.4-2.5 -1.4 1.2-4.6 4.1-6.7 4.1 -1.6 0-1.7-1.4-1.7-2.2 0-3.8 6-11.4 9.8-12.3 1.8-0.6 2.7 0.7 2.9 2.5 4.2-6.2 9.8-12.4 9.8-12.4 0.3-0.3 0.6-0.4 0.8-0.4 0.2 0 0.3 0.1 0.3 0.1C257.5 1.4 257.7 1.8 257.7 2.2zM243.3 14c-2.5 1.4-8.2 7-8.2 10.2 0 0.2-0.1 0.6 0.2 0.6 0.3 0 1-0.2 2.6-1.2 1.8-1 6.2-6.4 7.4-8.3C245.4 13.8 245.2 12.9 243.3 14zM256.6 11.2c0.4 0 0.6 0.2 0.6 0.5s-0.2 0.7-0.3 0.8c-6.4 8.8-7 11.4-7 11.4 -0.1 0.2-0.1 0.4-0.1 0.6 0 0.6 0.4 0.6 0.6 0.6 1.2 0.2 5.8-3.4 5.8-3.6 0.2-0.1 0.3-0.1 0.4-0.1s0.2 0.1 0.2 0.2c0 0.3-0.6 1-0.6 1 -4.2 3.7-5.8 3.6-5.9 3.6 -1.8-0.1-1.8-1.8-1.8-1.8 0-2.9 2.2-7.1 5.5-11.8C254.6 11.9 255.8 11.2 256.6 11.2zM256.7 8.6c0-1.1 1.3-2.9 2.2-2.9 0.3 0 0.6 0.2 0.6 0.7 0 1.3-1.3 2.9-2.1 2.9 -0.2 0-0.2 0-0.3-0.1C256.8 9.1 256.7 8.9 256.7 8.6zM271.6 21.4c0.1 0 0.2 0.1 0.2 0.2 0 0.3-0.6 1-0.6 1 -5.2 4.1-6.1 3.6-5.9 3.6 -0.9 0-1.8-0.7-1.8-2.3 0-2.6 1.9-5.8 4.7-10.1 0.5-0.6 0.9-1.2 0.7-1.4 -0.2 0-0.5 0.1-0.7 0.2 -4.6 1.8-8.6 6.2-11.3 10.5 -1.1 1.8-1.4 3-2 3 -0.2 0-0.4-0.4-0.4-1 0-0.6 0.1-1.2 0.4-2 2.4-6 5.4-11.7 8.2-11.7 0.3 0 0.4 0.2 0.4 0.5 0 1-2.4 3.8-3.5 5.4 2.2-2.4 4.8-4.4 7.9-5.7 2.7-0.6 3.2 0.5 3.2 1.5 0 0.4-0.1 0.7-0.2 0.8 -6 8.2-6.2 9.9-6.2 10.2 0 1.1 0.3 1.2 0.6 1.2 0.7 0 5.8-3.5 5.8-3.6C271.4 21.4 271.5 21.4 271.6 21.4zM278.7 21.4l-0.1 0.2c-1.8 1.7-5.2 3.8-5.2 3.8 -0.7 0.4-1.2 0.6-1.6 0.6 -1.8 0-1.9-1.2-1.9-2.2 0-2.8 2.9-6.4 2.9-6.4 4.5-5.5 6.9-5.9 6.9-5.9 0.3-0.1 0.6-0.2 0.8-0.2 2 0 2.2 2 2.2 2.7 0 0.2 0 0.1 0 0.3 0.6-1.3 1.7-3.1 3.8-3.1 0.3 0 0.4 0.2 0.4 0.5 0 0.3-0.2 0.7-0.2 0.8 -4 5.4-7.6 13-10 16.5 6 1.1 10.6 2.2 15.2 2.2s9.8-0.6 16.3-3.4c1.5-0.6 1.9-2.8 3.8-2.8 0.3 0 0.6 0.2 0.6 0.6 0 1.4-2.7 2.6-3.7 3 -6.8 2.9-12.3 3.5-17.4 3.5 -4.7 0-9.3-0.9-15.3-2.2 -3 3.8-6.2 6.2-10.4 6.2 -1.6 0-4.6-1.2-4.6-3.5 0-4 5.5-4.6 8.7-4.6 1.6 0 3.3 0.2 4.9 0.6C276.1 26.5 277.4 24.2 278.7 21.4zM273.9 29.4c-1.4-0.2-2.9-0.5-4.4-0.5 -2.6 0-7.4 0.7-7.4 3.6 0 1.8 1.9 2.6 3.3 2.6C268.9 35 271.8 32.3 273.9 29.4zM281.6 15.4c0-0.5 0.1-2.2-0.8-2.3 -1.4 0-5 4.2-5.9 5.2 0 0-3.4 3.5-3.4 5.8 0 0.2 0 0.6 0.2 0.6 0.3 0 1-0.2 2.4-1.1C274.1 23.6 279.7 20.5 281.6 15.4z"/></svg>