<svg xmlns="http://www.w3.org/2000/svg" version="1.1" x="0" y="0" width="65.5" height="65.4" viewBox="0 0 65.5 65.4" enable-background="new 0 0 65.463 65.433" xml:space="preserve"><path fill="#E48800" d="M1.1 33.2c0.7-0.9 1.6-1.7 2.6-2.3 0 0 0 0 0 0 0 0 0 0 0 0 0 0 0 0 0 0 0 0 0 0 0 0 -0.4-0.4-0.8-0.7-1.2-1.1 -0.4-0.5-0.8-0.9-1.1-1.4 -1.5-2.5-0.6-5.8 1.9-7.2 0.3-0.2 0.6-0.3 0.9-0.4 0.2-0.1 0.4-0.2 0.7-0.3 0.3-0.1 0.7-0.2 1-0.3 0.1 0 0.2 0 0.2-0.1 0.2 0 0.3-0.1 0.5-0.1 -0.6-1.1-1-2.2-1.2-3.3 -0.4-2.9 1.6-5.5 4.5-5.9 1.1-0.2 2.3-0.1 3.5 0.2 0-0.3-0.1-0.5-0.1-0.8 0-0.3 0-0.7 0-1 0-0.2 0-0.4 0.1-0.6 0-0.4 0.1-0.7 0.2-1.1 0.8-2.8 3.6-4.4 6.5-3.7 1 0.3 2.1 0.8 3.1 1.5 0.4-1.1 0.8-2.2 1.5-3.1 1.8-2.3 5.1-2.7 7.4-1 0.4 0.3 0.7 0.6 1 0.9 0.2 0.2 0.4 0.4 0.6 0.7 0.1 0.2 0.2 0.3 0.3 0.5 0.1 0.2 0.3 0.3 0.4 0.5 0.5-0.6 1.1-1.2 1.7-1.6 0.3-0.2 0.6-0.5 0.9-0.7 2.5-1.5 5.7-0.6 7.2 1.8 0.2 0.3 0.3 0.6 0.4 1 0.1 0.2 0.2 0.4 0.2 0.6 0.1 0.3 0.2 0.6 0.3 0.9 0.1 0.3 0.1 0.6 0.2 0.9 1.1-0.6 2.2-1 3.3-1.1 2.9-0.4 5.5 1.6 5.9 4.5 0.2 1.1 0.1 2.3-0.2 3.5 1.2-0.1 2.4-0.1 3.5 0.2 2.8 0.8 4.5 3.7 3.8 6.5 -0.3 1.1-0.8 2.1-1.5 3.1 1.2 0.4 2.2 0.9 3.1 1.6 2.3 1.8 2.8 5 1 7.4 -0.6 0.8-1.5 1.6-2.5 2.3 0.6 0.5 1.2 1.1 1.7 1.8 0.2 0.3 0.4 0.6 0.6 0.9 1.5 2.5 0.6 5.7-1.9 7.2 -1 0.6-2.1 1-3.3 1.2 0.6 1.1 1 2.1 1.1 3.3 0.4 2.9-1.6 5.5-4.5 5.9 -1.1 0.1-2.3 0.1-3.5-0.2 0.1 1.2 0 2.4-0.3 3.5 -0.7 2.8-3.6 4.5-6.4 3.8 -0.5-0.1-1-0.3-1.4-0.5 -0.1 0-0.1-0.1-0.2-0.1 -0.5-0.3-1-0.6-1.5-0.9 -0.4 1.2-0.9 2.2-1.6 3.1 -1.8 2.3-5 2.8-7.4 1 -0.9-0.7-1.7-1.5-2.4-2.6 -0.8 0.9-1.6 1.7-2.6 2.3 -2.5 1.5-5.8 0.6-7.2-1.9 -0.2-0.3-0.4-0.7-0.5-1.1 0-0.1-0.1-0.2-0.1-0.3 -0.1-0.4-0.3-0.8-0.4-1.2 0 0 0-0.1 0-0.1 0-0.2-0.1-0.3-0.1-0.5 -1.1 0.6-2.2 1-3.3 1.2 -2.9 0.4-5.5-1.6-5.9-4.5 -0.2-1.1-0.1-2.3 0.2-3.5 -1.2 0.2-2.4 0.1-3.5-0.2 -2.8-0.7-4.5-3.6-3.8-6.4 0.1-0.4 0.2-0.7 0.4-1.1 0.3-0.7 0.7-1.4 1.1-2.1 -0.3-0.1-0.5-0.2-0.7-0.3 -0.1 0-0.1-0.1-0.2-0.1 -0.3-0.1-0.7-0.3-1-0.5 -0.4-0.2-0.8-0.4-1.1-0.7C-0.2 38.9-0.7 35.5 1.1 33.2z"/><path fill-rule="evenodd" clip-rule="evenodd" fill="#BED630" d="M26.4 8.5c-0.5 0.7-0.9 1.5-1.1 2.4 -0.8-0.5-1.6-1-2.5-1.2 -2.2-0.6-4.5 0.7-5.1 2.9 -0.2 0.9-0.3 1.8-0.1 2.8 -0.9-0.2-1.9-0.3-2.8-0.1 -2.3 0.3-3.9 2.4-3.6 4.7 0.1 0.9 0.4 1.7 0.9 2.6 -1 0.2-1.8 0.5-2.7 0.9 -1.9 1.1-2.6 3.7-1.5 5.7 0.4 0.7 1.1 1.4 1.8 2 -0.8 0.6-1.6 1.1-2.1 1.8 -1.4 1.8-1 4.4 0.8 5.8 0.7 0.5 1.5 0.9 2.4 1.2 -0.5 0.8-0.9 1.6-1.2 2.5 -0.6 2.2 0.7 4.5 3 5.1 0.9 0.2 1.8 0.3 2.7 0.2 -0.2 1-0.3 1.9-0.1 2.8 0.3 2.3 2.4 3.9 4.7 3.6 0.9-0.1 1.7-0.4 2.6-0.9 0.2 1 0.5 1.8 0.9 2.6 1.2 2 3.7 2.7 5.7 1.5 0.8-0.5 1.5-1.1 2-1.8 0.6 0.8 1.2 1.5 1.9 2.1 1.8 1.4 4.4 1 5.8-0.8 0.5-0.7 0.9-1.5 1.3-2.5 0.8 0.6 1.6 1 2.4 1.2 2.2 0.6 4.5-0.8 5.1-3 0.2-0.9 0.3-1.8 0.2-2.8 1 0.2 1.8 0.3 2.7 0.2 2.3-0.3 3.9-2.4 3.6-4.7 -0.1-0.9-0.4-1.7-0.9-2.6 0.9-0.1 1.8-0.5 2.6-0.9 2-1.2 2.7-3.7 1.5-5.7 -0.5-0.8-1.1-1.5-1.8-2.1 0.8-0.5 1.5-1.1 2-1.8 1.4-1.8 1-4.4-0.8-5.8 -0.7-0.5-1.5-1-2.5-1.3 0.6-0.8 1-1.6 1.2-2.4 0.6-2.2-0.8-4.5-3-5.1 -0.9-0.2-1.8-0.2-2.8-0.1 0.2-1 0.3-1.9 0.2-2.7 -0.3-2.3-2.4-3.9-4.7-3.6 -0.9 0.1-1.8 0.4-2.6 0.9 -0.1-0.9-0.4-1.8-0.9-2.6 -1.2-2-3.7-2.6-5.7-1.5 -0.8 0.5-1.5 1.1-2.1 1.8 -0.5-0.8-1.1-1.5-1.8-2C30.5 6.4 27.8 6.7 26.4 8.5z"/><path fill-rule="evenodd" clip-rule="evenodd" fill="#FFFFFF" d="M28.1 14.8c-0.4 0.5-0.6 1.1-0.9 1.8 -0.6-0.4-1.2-0.7-1.8-0.9 -1.7-0.4-3.3 0.5-3.8 2.2 -0.1 0.7-0.2 1.4-0.1 2.1 -0.7-0.2-1.4-0.2-2.1-0.1 -1.7 0.2-2.9 1.8-2.6 3.5 0.1 0.6 0.3 1.3 0.7 1.9 -0.7 0.1-1.4 0.4-2 0.7 -1.4 0.8-1.9 2.8-1.1 4.2 0.3 0.5 0.8 1.1 1.4 1.5 -0.6 0.4-1.2 0.8-1.6 1.4 -1 1.4-0.7 3.3 0.6 4.3 0.5 0.4 1.1 0.7 1.8 0.9 -0.4 0.6-0.7 1.2-0.9 1.8 -0.4 1.7 0.5 3.3 2.2 3.8 0.6 0.2 1.3 0.2 2 0.1 -0.2 0.7-0.2 1.4-0.1 2.1 0.2 1.7 1.8 2.9 3.5 2.6 0.6-0.1 1.3-0.3 1.9-0.7 0.1 0.7 0.4 1.4 0.7 1.9 0.9 1.5 2.8 2 4.3 1.1 0.6-0.3 1.1-0.8 1.5-1.4 0.4 0.6 0.9 1.1 1.4 1.5 1.4 1 3.3 0.8 4.3-0.6 0.4-0.5 0.7-1.1 0.9-1.8 0.6 0.4 1.2 0.7 1.8 0.9 1.7 0.4 3.4-0.6 3.8-2.2 0.2-0.6 0.2-1.3 0.2-2.1 0.7 0.2 1.4 0.2 2 0.1 1.7-0.2 2.9-1.8 2.6-3.5 -0.1-0.7-0.3-1.3-0.7-2 0.7-0.1 1.4-0.3 1.9-0.7 1.5-0.9 2-2.7 1.1-4.2 -0.3-0.6-0.8-1.1-1.3-1.5 0.6-0.4 1.1-0.8 1.5-1.3 1-1.4 0.8-3.3-0.6-4.3 -0.5-0.4-1.1-0.7-1.8-0.9 0.4-0.6 0.7-1.2 0.9-1.8 0.4-1.7-0.6-3.4-2.2-3.8 -0.6-0.1-1.3-0.2-2.1-0.1 0.2-0.7 0.2-1.4 0.1-2 -0.2-1.7-1.8-2.9-3.5-2.6 -0.7 0.1-1.3 0.3-2 0.6 -0.1-0.7-0.3-1.3-0.6-2 -0.9-1.4-2.8-1.9-4.2-1.1 -0.6 0.3-1.1 0.8-1.5 1.3 -0.4-0.6-0.8-1.1-1.4-1.5C31 13.2 29.1 13.4 28.1 14.8z"/><path fill="#FF5E79" d="M34.1 33.9c0 0 1.4 1.2 3.2 2.3 1 0.6 2.1 1.3 3.3 1.6 1.8 0.6 3.6 0.8 4.4-0.5 0 0 0.3-0.6 0-1.2 -0.1-0.3-0.3-0.8-1.1-1.3 -1.1-0.7-2.7-1.3-6.1-1.2C36.8 33.5 35.5 33.7 34.1 33.9z"/><path fill="#FF5E79" d="M31.5 34.6c0 0-1.1 1.5-2.5 3 -0.8 0.9-1.8 1.8-2.8 2.4 -1.6 1-3.3 1.6-4.4 0.5 0 0-0.4-0.5-0.3-1.2 0-0.3 0.1-0.8 0.7-1.5 0.9-0.9 2.3-1.9 5.6-2.7C28.8 34.9 30.1 34.7 31.5 34.6z"/><path fill="#FF5E79" d="M32.3 35c0 0-1.1 1.4-2.2 3.2 -0.6 1-1.2 2.2-1.6 3.3 -0.5 1.8-0.7 3.6 0.7 4.4 0 0 0.6 0.3 1.2 0 0.3-0.1 0.8-0.3 1.2-1.1 0.6-1.1 1.2-2.7 1.1-6.1C32.8 37.7 32.6 36.4 32.3 35z"/><path fill="#FF5E79" d="M33.4 34.8c0 0 0.1 1.8 0.5 3.9 0.2 1.2 0.5 2.4 1 3.5 0.8 1.7 1.9 3.2 3.4 2.8 0 0 0.6-0.2 0.9-0.8 0.1-0.3 0.4-0.8 0.2-1.7 -0.2-1.2-0.9-2.8-3.3-5.3C35.5 36.5 34.6 35.7 33.4 34.8z"/><path fill="#FF5E79" d="M34.1 32.9c0 0 1-1.5 2.3-3.1 0.8-0.9 1.7-1.9 2.6-2.5 1.6-1.1 3.2-1.8 4.4-0.8 0 0 0.5 0.5 0.4 1.2 0 0.3-0.1 0.9-0.6 1.5 -0.8 1-2.2 2-5.4 3C36.8 32.4 35.5 32.7 34.1 32.9z"/><path fill="#FF5E79" d="M31.5 33.5c0 0-1.4-1.1-3.2-2.2 -1-0.6-2.2-1.2-3.3-1.5 -1.8-0.5-3.6-0.7-4.4 0.7 0 0-0.3 0.6 0 1.2 0.1 0.3 0.3 0.8 1.1 1.2 1.1 0.6 2.7 1.2 6.1 1C28.8 33.9 30 33.7 31.5 33.5z"/><path fill="#FF5E79" d="M32.1 32.5c0 0-1.5-1-3.1-2.4 -0.9-0.8-1.8-1.7-2.5-2.7 -1.1-1.6-1.8-3.2-0.8-4.4 0 0 0.5-0.5 1.2-0.4 0.3 0 0.9 0.1 1.5 0.7 0.9 0.8 2 2.2 2.9 5.4C31.7 29.8 31.9 31.1 32.1 32.5z"/><path fill="#FF5E79" d="M33.3 32.3c0 0-0.5-1.7-0.8-3.8 -0.2-1.2-0.3-2.5-0.1-3.6 0.2-1.9 0.8-3.6 2.3-3.8 0 0 0.7 0 1.1 0.5 0.2 0.2 0.6 0.6 0.7 1.5 0.2 1.2 0.1 2.9-1.4 6C34.7 30 34.1 31.1 33.3 32.3z"/></svg>