<?xml version="1.0" encoding="utf-8"?>
<!-- Generator: Adobe Illustrator 13.0.0, SVG Export Plug-In . SVG Version: 6.00 Build 14948)  -->
<!DOCTYPE svg PUBLIC "-//W3C//DTD SVG 1.1//EN" "http://www.w3.org/Graphics/SVG/1.1/DTD/svg11.dtd">
<svg version="1.1" id="Layer_1" xmlns="http://www.w3.org/2000/svg" xmlns:xlink="http://www.w3.org/1999/xlink" x="0px" y="0px"
	 width="65.463px" height="65.433px" viewBox="0 0 65.463 65.433" enable-background="new 0 0 65.463 65.433" xml:space="preserve">
<g>
	<path fill="#E48800" d="M1.055,33.224c0.695-0.919,1.603-1.668,2.631-2.324c0.006,0.002,0.006,0.005,0.006,0.005
		c0.015-0.005,0.02-0.014,0.032-0.021c0,0-0.004-0.001-0.005-0.003c-0.011,0.006-0.021,0.01-0.033,0.019
		c-0.434-0.363-0.842-0.743-1.209-1.145c-0.426-0.458-0.794-0.938-1.081-1.436c-1.454-2.539-0.585-5.797,1.851-7.244
		c0.302-0.154,0.613-0.299,0.928-0.43c0.222-0.099,0.441-0.188,0.676-0.266c0.336-0.121,0.684-0.222,1.039-0.307
		c0.079-0.025,0.159-0.035,0.236-0.057c0.168-0.037,0.335-0.074,0.505-0.109c-0.603-1.082-1.009-2.188-1.158-3.284
		c-0.392-2.879,1.629-5.534,4.508-5.93c1.131-0.205,2.313-0.113,3.51,0.176c-0.024-0.275-0.052-0.549-0.061-0.819
		c-0.013-0.346-0.009-0.681,0.012-1.023c0.01-0.203,0.035-0.398,0.059-0.597c0.047-0.357,0.101-0.722,0.181-1.076
		c0.779-2.784,3.645-4.442,6.472-3.719c1.038,0.263,2.111,0.812,3.105,1.475c0.35-1.133,0.817-2.175,1.49-3.061
		c1.759-2.313,5.099-2.717,7.412-0.96c0.367,0.282,0.706,0.603,1.022,0.94c0.206,0.213,0.396,0.445,0.584,0.68
		c0.117,0.15,0.231,0.302,0.343,0.457c0.12,0.165,0.261,0.314,0.377,0.493c0.521-0.612,1.081-1.153,1.685-1.626
		c0.301-0.239,0.608-0.463,0.937-0.656c2.538-1.464,5.738-0.632,7.241,1.846c0.164,0.316,0.312,0.639,0.445,0.965
		c0.087,0.201,0.168,0.403,0.239,0.613c0.104,0.296,0.192,0.597,0.266,0.907c0.068,0.276,0.125,0.563,0.171,0.853
		c1.078-0.601,2.184-1.003,3.331-1.108c2.882-0.395,5.536,1.62,5.929,4.506c0.15,1.087,0.059,2.263-0.229,3.465
		c1.214-0.117,2.396-0.098,3.515,0.186c2.79,0.785,4.502,3.692,3.771,6.524c-0.288,1.094-0.831,2.123-1.521,3.109
		c1.204,0.39,2.228,0.9,3.124,1.583c2.314,1.761,2.76,5.037,1,7.354c-0.642,0.847-1.495,1.621-2.523,2.27
		c0.637,0.541,1.199,1.128,1.682,1.761c0.218,0.275,0.423,0.563,0.599,0.867c1.462,2.53,0.633,5.729-1.902,7.189
		c-0.98,0.59-2.092,0.995-3.285,1.158c0.559,1.138,0.95,2.148,1.117,3.341c0.39,2.882-1.628,5.534-4.511,5.931
		c-1.15,0.104-2.271,0.056-3.475-0.234c0.118,1.247,0.025,2.427-0.275,3.53c-0.688,2.772-3.588,4.491-6.422,3.761
		c-0.49-0.13-0.963-0.316-1.426-0.537c-0.06-0.03-0.122-0.055-0.186-0.085c-0.51-0.253-1.009-0.563-1.495-0.896
		c-0.389,1.202-0.905,2.217-1.586,3.119c-1.759,2.318-5.044,2.767-7.357,1.001c-0.896-0.677-1.661-1.528-2.361-2.584
		c-0.767,0.93-1.611,1.728-2.587,2.299c-2.535,1.457-5.788,0.584-7.25-1.947c-0.194-0.341-0.363-0.712-0.52-1.099
		c-0.047-0.108-0.093-0.21-0.132-0.319c-0.144-0.397-0.269-0.82-0.37-1.25c-0.006-0.025-0.014-0.057-0.016-0.083
		c-0.044-0.176-0.088-0.35-0.121-0.534c-1.081,0.604-2.193,1.01-3.283,1.159c-2.884,0.393-5.535-1.625-5.926-4.511
		c-0.209-1.138-0.117-2.309,0.178-3.519c-1.197,0.165-2.375,0.075-3.476-0.231c-2.836-0.73-4.491-3.591-3.764-6.424
		c0.097-0.36,0.229-0.717,0.377-1.071c0.295-0.712,0.668-1.397,1.118-2.068c-0.257-0.077-0.479-0.192-0.726-0.284
		c-0.068-0.028-0.134-0.054-0.202-0.082c-0.348-0.143-0.693-0.294-1.017-0.469c-0.401-0.214-0.793-0.445-1.15-0.716
		C-0.202,38.865-0.707,35.542,1.055,33.224z"/>
	<path fill-rule="evenodd" clip-rule="evenodd" fill="#BED630" d="M26.434,8.538c-0.508,0.664-0.868,1.513-1.144,2.435
		c-0.788-0.537-1.649-0.977-2.474-1.182c-2.232-0.574-4.492,0.728-5.109,2.929c-0.195,0.906-0.271,1.836-0.14,2.773
		c-0.95-0.232-1.878-0.301-2.774-0.143c-2.274,0.315-3.863,2.404-3.553,4.682c0.117,0.857,0.437,1.731,0.913,2.586
		c-0.976,0.171-1.85,0.495-2.671,0.924c-1.924,1.142-2.607,3.707-1.458,5.707c0.424,0.741,1.079,1.448,1.835,2.026
		c-0.844,0.551-1.562,1.132-2.105,1.84c-1.39,1.829-0.993,4.449,0.834,5.835c0.715,0.542,1.53,0.944,2.444,1.223
		c-0.526,0.79-0.937,1.606-1.179,2.476c-0.575,2.237,0.732,4.49,2.966,5.067c0.87,0.232,1.8,0.31,2.739,0.181
		c-0.229,0.95-0.304,1.879-0.145,2.777c0.312,2.268,2.406,3.861,4.68,3.554c0.86-0.123,1.734-0.439,2.589-0.911
		c0.173,0.972,0.491,1.844,0.914,2.586c1.15,1.999,3.714,2.684,5.714,1.534c0.774-0.459,1.451-1.077,2.022-1.831
		c0.555,0.845,1.168,1.519,1.878,2.06c1.829,1.39,4.415,1.033,5.806-0.791c0.54-0.711,0.945-1.526,1.253-2.49
		c0.76,0.577,1.573,0.99,2.444,1.227c2.233,0.574,4.523-0.774,5.063-2.962c0.242-0.877,0.314-1.805,0.219-2.788
		c0.95,0.233,1.833,0.268,2.739,0.186c2.272-0.309,3.865-2.401,3.552-4.673c-0.126-0.945-0.433-1.738-0.879-2.634
		c0.94-0.132,1.815-0.451,2.59-0.911c2.003-1.156,2.654-3.679,1.505-5.677c-0.469-0.773-1.074-1.452-1.802-2.071
		c0.811-0.504,1.483-1.118,1.993-1.788c1.389-1.824,1.032-4.409-0.787-5.797c-0.719-0.543-1.526-0.951-2.49-1.261
		c0.572-0.752,0.981-1.571,1.225-2.438c0.575-2.236-0.775-4.524-2.977-5.138c-0.859-0.17-1.788-0.243-2.774-0.146
		c0.231-0.955,0.304-1.876,0.186-2.738c-0.307-2.275-2.404-3.865-4.677-3.552c-0.903,0.082-1.781,0.396-2.633,0.875
		c-0.129-0.939-0.448-1.813-0.878-2.636c-1.184-1.952-3.709-2.604-5.706-1.457c-0.777,0.466-1.452,1.081-2.071,1.802
		c-0.504-0.806-1.12-1.485-1.831-2.027C30.457,6.389,27.822,6.713,26.434,8.538z"/>
	<path fill-rule="evenodd" clip-rule="evenodd" fill="#FFFFFF" d="M28.055,14.751c-0.379,0.497-0.646,1.122-0.853,1.806
		c-0.588-0.392-1.228-0.721-1.84-0.873c-1.656-0.425-3.337,0.541-3.797,2.177c-0.142,0.673-0.195,1.361-0.103,2.062
		c-0.703-0.173-1.396-0.229-2.062-0.103c-1.684,0.229-2.87,1.78-2.636,3.471c0.086,0.642,0.32,1.288,0.674,1.924
		c-0.723,0.13-1.369,0.365-1.981,0.685c-1.429,0.847-1.938,2.755-1.084,4.244c0.316,0.546,0.801,1.076,1.364,1.503
		c-0.625,0.41-1.158,0.839-1.564,1.369c-1.032,1.358-0.736,3.307,0.62,4.333c0.53,0.407,1.139,0.704,1.814,0.91
		c-0.392,0.586-0.697,1.191-0.875,1.84c-0.43,1.659,0.543,3.334,2.203,3.764c0.646,0.172,1.337,0.232,2.038,0.134
		c-0.172,0.706-0.227,1.397-0.107,2.063c0.231,1.688,1.786,2.871,3.473,2.64c0.64-0.088,1.291-0.325,1.925-0.677
		c0.131,0.723,0.367,1.372,0.678,1.923c0.855,1.486,2.766,1.996,4.251,1.144c0.574-0.346,1.075-0.806,1.5-1.364
		c0.415,0.624,0.865,1.126,1.396,1.528c1.36,1.03,3.279,0.771,4.311-0.587c0.402-0.526,0.706-1.136,0.935-1.846
		c0.563,0.425,1.166,0.729,1.814,0.908c1.658,0.428,3.361-0.58,3.762-2.201c0.177-0.65,0.23-1.34,0.162-2.071
		c0.704,0.17,1.362,0.198,2.035,0.139c1.689-0.231,2.875-1.787,2.641-3.475c-0.096-0.697-0.324-1.289-0.652-1.956
		c0.697-0.094,1.35-0.334,1.924-0.677c1.485-0.858,1.97-2.73,1.115-4.217c-0.346-0.577-0.798-1.077-1.337-1.541
		c0.603-0.374,1.102-0.828,1.481-1.328c1.031-1.354,0.766-3.274-0.591-4.306c-0.526-0.404-1.13-0.706-1.846-0.935
		c0.428-0.561,0.731-1.171,0.911-1.812c0.428-1.665-0.579-3.367-2.211-3.822c-0.643-0.121-1.332-0.175-2.062-0.104
		c0.173-0.71,0.225-1.395,0.137-2.037c-0.231-1.692-1.784-2.868-3.475-2.637c-0.672,0.06-1.321,0.291-1.959,0.648
		c-0.093-0.7-0.33-1.345-0.648-1.961c-0.88-1.446-2.757-1.933-4.24-1.078c-0.575,0.348-1.08,0.804-1.538,1.336
		c-0.376-0.6-0.835-1.101-1.359-1.505C31.041,13.156,29.084,13.395,28.055,14.751z"/>

</g>
</svg>
