<svg xmlns="http://www.w3.org/2000/svg" version="1.1" x="0" y="0" width="74.6" height="74.5" viewBox="0 0 74.6 74.5" enable-background="new 0 0 74.555 74.521" xml:space="preserve"><path fill="#83205D" d="M1.2 37.8c0.8-1 1.8-1.9 3-2.6 0 0 0 0 0 0 0 0 0 0 0 0 0 0 0 0 0 0 0 0 0 0 0 0 -0.5-0.4-1-0.8-1.4-1.3 -0.5-0.5-0.9-1.1-1.2-1.6 -1.7-2.9-0.7-6.6 2.1-8.2 0.3-0.2 0.7-0.3 1.1-0.5 0.3-0.1 0.5-0.2 0.8-0.3 0.4-0.1 0.8-0.2 1.2-0.3 0.1 0 0.2 0 0.3-0.1 0.2 0 0.4-0.1 0.6-0.1 -0.7-1.2-1.1-2.5-1.3-3.7 -0.4-3.3 1.9-6.3 5.1-6.8 1.3-0.2 2.6-0.1 4 0.2 0-0.3-0.1-0.6-0.1-0.9 0-0.4 0-0.8 0-1.2 0-0.2 0-0.5 0.1-0.7 0.1-0.4 0.1-0.8 0.2-1.2 0.9-3.2 4.2-5.1 7.4-4.2 1.2 0.3 2.4 0.9 3.5 1.7 0.4-1.3 0.9-2.5 1.7-3.5 2-2.6 5.8-3.1 8.4-1.1 0.4 0.3 0.8 0.7 1.2 1.1 0.2 0.2 0.5 0.5 0.7 0.8 0.1 0.2 0.3 0.3 0.4 0.5 0.1 0.2 0.3 0.4 0.4 0.6 0.6-0.7 1.2-1.3 1.9-1.8 0.3-0.3 0.7-0.5 1.1-0.7 2.9-1.7 6.5-0.7 8.2 2.1 0.2 0.4 0.4 0.7 0.5 1.1 0.1 0.2 0.2 0.5 0.3 0.7 0.1 0.3 0.2 0.7 0.3 1 0.1 0.3 0.1 0.6 0.2 1 1.2-0.7 2.5-1.1 3.8-1.3 3.3-0.4 6.3 1.8 6.8 5.1 0.2 1.2 0.1 2.6-0.3 3.9 1.4-0.1 2.7-0.1 4 0.2 3.2 0.9 5.1 4.2 4.3 7.4 -0.3 1.2-0.9 2.4-1.7 3.5 1.4 0.4 2.5 1 3.6 1.8 2.6 2 3.1 5.7 1.1 8.4 -0.7 1-1.7 1.8-2.9 2.6 0.7 0.6 1.4 1.3 1.9 2 0.2 0.3 0.5 0.6 0.7 1 1.7 2.9 0.7 6.5-2.2 8.2 -1.1 0.7-2.4 1.1-3.7 1.3 0.6 1.3 1.1 2.4 1.3 3.8 0.4 3.3-1.9 6.3-5.1 6.8 -1.3 0.1-2.6 0.1-4-0.3 0.1 1.4 0 2.8-0.3 4 -0.8 3.2-4.1 5.1-7.3 4.3 -0.6-0.1-1.1-0.4-1.6-0.6 -0.1 0-0.1-0.1-0.2-0.1 -0.6-0.3-1.1-0.6-1.7-1 -0.4 1.4-1 2.5-1.8 3.6 -2 2.6-5.7 3.2-8.4 1.1 -1-0.8-1.9-1.7-2.7-2.9 -0.9 1.1-1.8 2-2.9 2.6 -2.9 1.7-6.6 0.7-8.3-2.2 -0.2-0.4-0.4-0.8-0.6-1.2 -0.1-0.1-0.1-0.2-0.1-0.4 -0.2-0.5-0.3-0.9-0.4-1.4 0 0 0-0.1 0-0.1 0-0.2-0.1-0.4-0.1-0.6 -1.2 0.7-2.5 1.2-3.7 1.3 -3.3 0.4-6.3-1.9-6.7-5.1 -0.2-1.3-0.1-2.6 0.2-4 -1.4 0.2-2.7 0.1-4-0.3 -3.2-0.8-5.1-4.1-4.3-7.3 0.1-0.4 0.3-0.8 0.4-1.2 0.3-0.8 0.8-1.6 1.3-2.4 -0.3-0.1-0.5-0.2-0.8-0.3 -0.1 0-0.2-0.1-0.2-0.1 -0.4-0.2-0.8-0.3-1.2-0.5 -0.5-0.2-0.9-0.5-1.3-0.8C-0.2 44.3-0.8 40.5 1.2 37.8z"/><path fill-rule="evenodd" clip-rule="evenodd" fill="#BED630" d="M30.1 9.7c-0.6 0.8-1 1.7-1.3 2.8 -0.9-0.6-1.9-1.1-2.8-1.3 -2.5-0.7-5.1 0.8-5.8 3.3 -0.2 1-0.3 2.1-0.2 3.2 -1.1-0.3-2.1-0.3-3.2-0.2 -2.6 0.4-4.4 2.7-4 5.3 0.1 1 0.5 2 1 2.9 -1.1 0.2-2.1 0.6-3 1.1 -2.2 1.3-3 4.2-1.7 6.5 0.5 0.8 1.2 1.6 2.1 2.3 -1 0.6-1.8 1.3-2.4 2.1 -1.6 2.1-1.1 5.1 1 6.6 0.8 0.6 1.7 1.1 2.8 1.4 -0.6 0.9-1.1 1.8-1.3 2.8 -0.7 2.5 0.8 5.1 3.4 5.8 1 0.3 2.1 0.4 3.1 0.2 -0.3 1.1-0.3 2.1-0.2 3.2 0.4 2.6 2.7 4.4 5.3 4 1-0.1 2-0.5 3-1 0.2 1.1 0.6 2.1 1 2.9 1.3 2.3 4.2 3.1 6.5 1.7 0.9-0.5 1.7-1.2 2.3-2.1 0.6 1 1.3 1.7 2.1 2.3 2.1 1.6 5 1.2 6.6-0.9 0.6-0.8 1.1-1.7 1.4-2.8 0.9 0.7 1.8 1.1 2.8 1.4 2.5 0.7 5.2-0.9 5.8-3.4 0.3-1 0.4-2.1 0.3-3.2 1.1 0.3 2.1 0.3 3.1 0.2 2.6-0.3 4.4-2.7 4-5.3 -0.1-1.1-0.5-2-1-3 1.1-0.1 2.1-0.5 3-1 2.3-1.3 3-4.2 1.7-6.5 -0.5-0.9-1.2-1.7-2.1-2.4 0.9-0.6 1.7-1.3 2.3-2 1.6-2.1 1.2-5-0.9-6.6 -0.8-0.6-1.7-1.1-2.8-1.4 0.7-0.9 1.1-1.8 1.4-2.8 0.7-2.5-0.9-5.2-3.4-5.9 -1-0.2-2-0.3-3.2-0.2 0.3-1.1 0.3-2.1 0.2-3.1 -0.4-2.6-2.7-4.4-5.3-4 -1 0.1-2 0.5-3 1 -0.1-1.1-0.5-2.1-1-3 -1.3-2.2-4.2-3-6.5-1.7 -0.9 0.5-1.7 1.2-2.4 2.1 -0.6-0.9-1.3-1.7-2.1-2.3C34.7 7.3 31.7 7.6 30.1 9.7z"/><path fill-rule="evenodd" clip-rule="evenodd" fill="#FFFFFF" d="M32 16.8c-0.4 0.6-0.7 1.3-1 2.1 -0.7-0.4-1.4-0.8-2.1-1 -1.9-0.5-3.8 0.6-4.3 2.5 -0.2 0.8-0.2 1.6-0.1 2.4 -0.8-0.2-1.6-0.3-2.3-0.1 -1.9 0.3-3.3 2-3 4 0.1 0.7 0.4 1.5 0.8 2.2 -0.8 0.1-1.6 0.4-2.3 0.8 -1.6 1-2.2 3.1-1.2 4.8 0.4 0.6 0.9 1.2 1.6 1.7 -0.7 0.5-1.3 1-1.8 1.6 -1.2 1.5-0.8 3.8 0.7 4.9 0.6 0.5 1.3 0.8 2.1 1 -0.4 0.7-0.8 1.4-1 2.1 -0.5 1.9 0.6 3.8 2.5 4.3 0.7 0.2 1.5 0.3 2.3 0.2 -0.2 0.8-0.3 1.6-0.1 2.4 0.3 1.9 2 3.3 4 3 0.7-0.1 1.5-0.4 2.2-0.8 0.1 0.8 0.4 1.6 0.8 2.2 1 1.7 3.1 2.3 4.8 1.3 0.7-0.4 1.2-0.9 1.7-1.6 0.5 0.7 1 1.3 1.6 1.7 1.6 1.2 3.7 0.9 4.9-0.7 0.5-0.6 0.8-1.3 1.1-2.1 0.6 0.5 1.3 0.8 2.1 1 1.9 0.5 3.8-0.7 4.3-2.5 0.2-0.7 0.3-1.5 0.2-2.4 0.8 0.2 1.5 0.2 2.3 0.2 1.9-0.3 3.3-2 3-4 -0.1-0.8-0.4-1.5-0.7-2.2 0.8-0.1 1.5-0.4 2.2-0.8 1.7-1 2.2-3.1 1.3-4.8 -0.4-0.7-0.9-1.2-1.5-1.8 0.7-0.4 1.3-0.9 1.7-1.5 1.2-1.5 0.9-3.7-0.7-4.9 -0.6-0.5-1.3-0.8-2.1-1.1 0.5-0.6 0.8-1.3 1-2.1 0.5-1.9-0.7-3.8-2.5-4.4 -0.7-0.1-1.5-0.2-2.3-0.1 0.2-0.8 0.3-1.6 0.2-2.3 -0.3-1.9-2-3.3-4-3 -0.8 0.1-1.5 0.3-2.2 0.7 -0.1-0.8-0.4-1.5-0.7-2.2 -1-1.7-3.1-2.2-4.8-1.2 -0.7 0.4-1.2 0.9-1.8 1.5 -0.4-0.7-1-1.3-1.5-1.7C35.4 15 33.1 15.3 32 16.8z"/><path fill="#FF5E79" d="M38.8 38.6c0 0 1.6 1.3 3.6 2.6 1.1 0.7 2.4 1.5 3.7 1.9 2.1 0.7 4.1 0.9 5-0.6 0 0 0.3-0.7 0-1.4 -0.1-0.3-0.4-0.9-1.2-1.5 -1.2-0.8-3-1.4-6.9-1.4C41.9 38.2 40.5 38.3 38.8 38.6z"/><path fill="#FF5E79" d="M35.9 39.4c0 0-1.2 1.7-2.9 3.4 -0.9 1-2 2-3.2 2.7 -1.8 1.1-3.8 1.9-5 0.6 0 0-0.5-0.6-0.4-1.4 0-0.3 0.1-1 0.8-1.7 1-1 2.6-2.1 6.4-3C32.8 39.7 34.2 39.5 35.9 39.4z"/><path fill="#FF5E79" d="M36.8 39.9c0 0-1.3 1.6-2.5 3.7 -0.7 1.2-1.4 2.5-1.8 3.8 -0.6 2.1-0.8 4.1 0.7 5 0 0 0.7 0.3 1.4 0 0.3-0.1 0.9-0.4 1.4-1.3 0.7-1.2 1.4-3.1 1.2-6.9C37.3 42.9 37.1 41.5 36.8 39.9z"/><path fill="#FF5E79" d="M38.1 39.7c0 0 0.1 2 0.6 4.4 0.3 1.3 0.6 2.8 1.2 4 0.9 2 2.2 3.6 3.9 3.2 0 0 0.7-0.2 1.1-0.9 0.1-0.3 0.4-0.9 0.2-1.9 -0.3-1.4-1-3.2-3.7-6C40.5 41.6 39.4 40.7 38.1 39.7z"/><path fill="#FF5E79" d="M38.8 37.4c0 0 1.1-1.7 2.7-3.6 0.9-1 1.9-2.1 3-2.9 1.8-1.3 3.7-2.1 5-0.9 0 0 0.5 0.5 0.5 1.3 0 0.3-0.1 1-0.7 1.8 -0.9 1.1-2.5 2.3-6.2 3.4C41.9 36.9 40.5 37.2 38.8 37.4z"/><path fill="#FF5E79" d="M35.8 38.1c0 0-1.6-1.3-3.7-2.5 -1.2-0.7-2.5-1.4-3.8-1.8 -2.1-0.6-4.1-0.8-5 0.8 0 0-0.3 0.7 0 1.4 0.1 0.3 0.4 0.9 1.3 1.4 1.2 0.7 3.1 1.4 6.9 1.2C32.8 38.6 34.2 38.4 35.8 38.1z"/><path fill="#FF5E79" d="M36.6 37c0 0-1.7-1.1-3.5-2.7 -1-0.9-2.1-1.9-2.9-3 -1.2-1.8-2-3.7-0.9-5 0 0 0.6-0.5 1.3-0.4 0.3 0 1 0.1 1.7 0.8 1.1 0.9 2.3 2.5 3.3 6.2C36.1 34 36.3 35.4 36.6 37z"/><path fill="#FF5E79" d="M37.9 36.8c0 0-0.6-2-0.9-4.4 -0.2-1.3-0.3-2.8-0.2-4.2 0.2-2.2 0.9-4.1 2.6-4.3 0 0 0.8 0 1.3 0.6 0.2 0.3 0.7 0.7 0.8 1.7 0.2 1.4 0.1 3.4-1.6 6.9C39.5 34.2 38.8 35.4 37.9 36.8z"/></svg>