<svg xmlns="http://www.w3.org/2000/svg" version="1.1" x="0" y="0" width="283.7" height="55.9" viewBox="0 0 283.7 55.9" enable-background="new 0 0 283.667 55.904" xml:space="preserve"><path fill="#83205D" d="M65.5 1.6c4.6 0 9.6 1.8 9.6 7.9 0 11.6-12.5 24.7-25.3 26.2 3.6 4.9 7.8 10.8 14.3 10.8 2.3 0 3-3.1 5.5-3.1 0.7 0 1.2 0.2 1.2 0.7 0 2.6-5.5 3.6-7.3 3.6 -7.3 0-11.6-6.5-15.4-11.8 -0.8 0.1-1.7 0.1-2.4 0.1 -2.6 0-4.6-0.4-7.3-1.3 -3.1 6.8-2.5 7.7-2.8 7.7 -1.4 0-1.7-0.5-1.7-1.2 0-2.5 0.6-5.2 1.8-8.4 -0.5-0.7-1-1.6-1.1-2.5 -0.2-2.2 1.2-4.2 4-4 4.2-8 9.6-15.4 9.6-15.4 0.5-0.7 0.8-1 1.1-1 0.8 0 1.3 1.4 1.3 2 0 1-0.5 1.8-0.5 1.8l-3 5c-2 3.4-3.7 5.9-4.9 8.3 3 1.7 5 4.7 6.8 7 10-2.3 22.2-12.7 22.2-24.4 0-3.1-1.3-5.8-5.6-6.7 -19.9 0-36.6 13.4-55.3 20 -1.4 0.5-2.6 0.8-4.2 0.4 0 0-6.1-1.8-6.1-5.6 0-0.5 0.4-0.8 0.8-0.8 3.6 0 2.5 5.3 6.2 5.3 0.7 0 2.2-0.2 2.9-0.6C27.8 15.2 45.5 1.6 65.5 1.6zM37.8 28c-1.4 0.4-2.2 1.4-1.4 3.1C36.8 30 37.3 29 37.8 28zM45.4 34.6c0.6 0 1.2 0 1.8-0.1 -1.7-2.4-3.5-4.6-5.8-5.8 -1 1.8-1.7 3.4-2.4 4.7C40.9 34.1 43 34.6 45.4 34.6zM86.4 29c0.4 0.2-0.6 2-1.4 3.1 -2.3 2.6-3.7 3.7-6.6 5.4 -2.6 1.4-9.6 5-11 0 -1.4-5.4 6.4-16.9 11.5-19.3 1.8-1 4.2-1 5 1.3 2.9 8-7.4 12.1-12.7 14.6 -0.5 0.1-0.8 0.2-1.3 0.4 -0.5 1.3-0.6 2.5-0.4 3.5 0.7 1.6 5.9-0.5 8.2-1.9 3.2-2 4-2.8 6.1-4.9C84.5 30.1 85.9 28.8 86.4 29zM70.7 32.6c5.5-2.3 13.2-6.2 11.8-12 -0.4-0.7-1.7 0-2.9 1C76.1 24 72.7 28.4 70.7 32.6zM95.3 33.1l-0.1 0.2c-2.6 2.5-7.8 5.6-7.8 5.6 -1.1 0.6-1.8 0.8-2.4 0.8 -2.6 0-2.9-1.8-2.9-3.2 0-4.2 4.3-9.6 4.3-9.6 6.7-8.3 10.3-8.9 10.3-8.9 0.5-0.1 0.8-0.2 1.2-0.2 3 0 3.2 3 3.2 4.1 0 0.4 0 0.1 0 0.5 1-1.9 2.5-4.7 5.6-4.7 0.5 0 0.6 0.4 0.6 0.7 0 0.5-0.2 1.1-0.4 1.2 -6 8-11.4 19.6-15 24.7 9 1.7 15.8 3.2 22.8 3.2 7 0 14.8-0.8 24.5-5 2.3-1 2.9-4.2 5.6-4.2 0.5 0 0.8 0.4 0.8 0.8 0 2.2-4.1 3.8-5.5 4.4 -10.2 4.3-18.5 5.3-26.2 5.3 -7.1 0-13.9-1.3-22.9-3.2 -4.4 5.6-9.2 9.4-15.6 9.4 -2.4 0-6.8-1.8-6.8-5.3 0-6 8.3-6.8 13.1-6.8 2.4 0 4.9 0.4 7.3 0.8C91.3 40.7 93.2 37.2 95.3 33.1zM88.1 45c-2.2-0.2-4.3-0.7-6.6-0.7 -4 0-11 1.1-11 5.4 0 2.8 2.9 3.8 4.9 3.8C80.6 53.5 85 49.4 88.1 45zM99.6 24.1c0-0.7 0.1-3.4-1.2-3.5 -2 0-7.4 6.4-8.9 7.8 0 0-5 5.3-5 8.8 0 0.2 0 0.8 0.4 0.8 0.5 0 1.4-0.4 3.6-1.7C88.4 36.4 96.7 31.7 99.6 24.1zM119.2 19.8c-6.1 3.4-11.3 9.5-14.9 15.6 -1.8 3-2 4.4-2.9 4.4 -0.4 0-0.6-0.6-0.6-1.6 0-0.7 0-1.8 0.6-3 4.2-9 8.4-18.2 12.4-17.5 0.4 0.1 0.6 0.2 0.6 0.6 0 1.4-2.9 4.6-4.2 6.6 2.3-2.4 7.2-7.2 10.3-7.2 1.4 0 2.5 1.1 2.5 3.5 0 5.5-3.1 6.8-3.7 6.8 -1.1 0-0.8-1.6-0.6-2.2 0.4-0.8 2-3.4 2.4-5.9C121.1 19.1 119.8 19.4 119.2 19.8zM138.8 29c0.4 0.2-0.6 2-1.4 3.1 -2.3 2.6-3.7 3.7-6.6 5.4 -2.6 1.4-9.6 5-11 0 -1.4-5.4 6.4-16.9 11.5-19.3 1.8-1 4.2-1 5 1.3 2.9 8-7.4 12.1-12.7 14.6 -0.5 0.1-0.8 0.2-1.3 0.4 -0.5 1.3-0.6 2.5-0.4 3.5 0.7 1.6 5.9-0.5 8.2-1.9 3.2-2 4-2.8 6.1-4.9C136.9 30.1 138.4 28.8 138.8 29zM123.1 32.6c5.5-2.3 13.2-6.2 11.8-12 -0.4-0.7-1.7 0-2.9 1C128.5 24 125.2 28.4 123.1 32.6zM158.5 4.3c0 1.1-0.6 2-0.6 2l-7.4 9.1h0.8c0.6 0 1.7 0 1.7 0.7 0 0.8-1.1 0.8-1.7 0.8h-2c-12.2 16.4-12.6 19.4-12.6 20.5 0 0.8 0.6 1 1 1 2.3 0.2 8.6-5.2 8.6-5.4 0.2-0.1 0.5-0.1 0.6-0.1s0.2 0.1 0.2 0.2c0 0.7-0.8 1.4-0.8 1.4 -7.1 6.2-8.6 5.4-8.9 5.4 -2.9 0-2.6-2.6-2.6-2.6 0-4.8 4.6-12.7 10.3-20.4h-5.2c-0.7 0-1.6 0-1.6-0.8 0-0.7 0.8-0.7 1.6-0.7h6.4c8.8-11.5 10.4-13 10.9-13C158 2.5 158.5 3.4 158.5 4.3zM146.9 37.6c0 0.8 0.5 1 1 1 2.2 0 8.6-5.2 8.6-5.4 0.1-0.1 0.8-0.2 0.8 0.1 0.1 0.7-0.8 1.4-0.8 1.4 -6.6 5.8-8.6 5.4-8.9 5.4 -2.9 0.1-2.6-2.6-2.6-2.6 0-9.2 20.9-34.2 21.6-34.2 0.5-0.5 0.8-0.6 1.1-0.6 0.8 0 1.1 1.2 1.1 1.7 0 1.1-0.6 2-0.6 2l-8.5 10.4C147.1 33.5 146.9 36.6 146.9 37.6zM174.5 29c0.4 0.2-0.6 2-1.4 3.1 -2.3 2.6-3.7 3.7-6.6 5.4 -2.6 1.4-9.6 5-11 0 -1.4-5.4 6.4-16.9 11.5-19.3 1.8-1 4.2-1 5 1.3 2.9 8-7.4 12.1-12.7 14.6 -0.5 0.1-0.8 0.2-1.3 0.4 -0.5 1.3-0.6 2.5-0.4 3.5 0.7 1.6 5.9-0.5 8.2-1.9 3.2-2 4-2.8 6.1-4.9C172.6 30.1 174 28.8 174.5 29zM158.8 32.6c5.5-2.3 13.2-6.2 11.8-12 -0.4-0.7-1.7 0-2.9 1C164.2 24 160.8 28.4 158.8 32.6zM167.4 33.6c0-2.2 1.8-4.3 4.3-4.3 0.5 0 1.2 0.1 1.8 0.4 1.6-2 3.4-3.7 7.7-10.8 0.1-0.1-0.7-1.8 1.8-1.3 2.9 0.6 4.1 13.1 0.8 18 1.8 0.1 4.7-1.3 5-1.3 0.1 0 0.1 0 0.1 0.1 0 0.5-2.4 2.6-5.3 2.6 -0.2 0-0.6 0-0.8-0.1 -3 3.2-5 3-7.4 3.1 -2.9 0.1-5.8-1.2-7.3-3.8C167.6 35.3 167.4 34.6 167.4 33.6zM171.8 30.7c-1.3 0-2.9 1.7-2.9 3.4 0 0.2 0 0.4 0.1 0.6 0.8-1.1 2.2-2.5 3.4-3.8C172.2 30.8 172.1 30.7 171.8 30.7zM169.3 35.4c1 1.7 3.8 3 6.2 3 2.3 0 3.8-1.1 4.8-2.5 -2.3-1.2-4.7-3-6.6-4.3C172.2 33.1 170.5 34.6 169.3 35.4zM174.8 30.4c2.2 1.4 4.4 3.2 6.5 4.2 2.2-3.7 1.6-13.3 0.6-13.4 -2 3-4.2 6.2-6.5 8.6C175.2 30 175.1 30.2 174.8 30.4zM185.4 33.6c0-2.2 1.8-4.3 4.3-4.3 0.5 0 1.2 0.1 1.8 0.4 1.6-2 3.4-3.7 7.7-10.8 0.1-0.1-0.7-1.8 1.8-1.3 2.9 0.6 4.1 13.1 0.8 18 1.8 0.1 4.7-1.3 5-1.3 0.1 0 0.1 0 0.1 0.1 0 0.5-2.4 2.6-5.3 2.6 -0.2 0-0.6 0-0.8-0.1 -3 3.2-5 3-7.4 3.1 -2.9 0.1-5.8-1.2-7.3-3.8C185.6 35.3 185.4 34.6 185.4 33.6zM189.8 30.7c-1.3 0-2.9 1.7-2.9 3.4 0 0.2 0 0.4 0.1 0.6 0.8-1.1 2.2-2.5 3.4-3.8C190.2 30.8 190.1 30.7 189.8 30.7zM187.3 35.4c1 1.7 3.8 3 6.2 3 2.3 0 3.8-1.1 4.8-2.5 -2.3-1.2-4.7-3-6.6-4.3C190.2 33.1 188.5 34.6 187.3 35.4zM192.8 30.4c2.2 1.4 4.4 3.2 6.5 4.2 2.2-3.7 1.6-13.3 0.6-13.4 -2 3-4.2 6.2-6.5 8.6C193.2 30 193.1 30.2 192.8 30.4zM210.2 40.2c0 0.5-2 4.6-2.4 1.7 -0.1-0.8 0.2-2.9 1.1-2.9C209.6 39 210.2 39.5 210.2 40.2zM228.7 17.9c2.3 0 3.2 2.2 2.6 5.5 -0.8 4.4-3.5 4.3-3.5 4.3l0.1-0.1 -0.1 0.1c-0.5-0.1-0.4-1.2-0.4-1.4 0-1 2.3-3 2.3-5.2 -0.7 0-1.6 0.2-2.6 1 -2.8 1.8-10.9 10.7-10.9 14.8 0 1.2 1.1 1.6 2 1.6 6.8 0 15-9 16.6-11.6 0.1-0.1 0.2 0.1 0.2 0.2 0 3.7-11.2 12.8-16.7 13.1 -3.5 0.1-4.3-1.9-4.3-4.3 0-5.3 8.6-16 13.2-17.5C227.9 18 228.3 17.9 228.7 17.9zM246.2 30.4c-0.7 0-1 0.6-1.4 1.3 -0.2 0.4-6 8.5-12.2 8.5 -1 0-2.6-0.2-2.8-3 -0.4-8.9 10.1-20.2 16.3-20.2 3.1 0 3.2 3 3.2 4.1 0 1.4-0.4 4.1-2.5 7.6 3.6-0.2 6.5-2.4 7.8-5.2 0.1-0.4 0.5-0.6 0.7-0.6 1 0 0.8 1.2 0.8 1.3C254.5 27.7 250.7 30.4 246.2 30.4zM243.9 30c-3-0.7-5.3-3-5.3-6.1 0-0.4 0-0.8 0.1-1.2 -2.9 3.1-6.1 8.6-6.1 13.7 0 1.9 0.8 1.8 1 1.8C237.5 38 242.4 32 243.9 30zM246.7 22.4c0-2.4-1.4-2.9-2.3-2.9 -3.2 0-4.2 3.4-4.2 4.3 0 2 1.7 3.8 4.6 4.7C246.3 25.4 246.7 23.5 246.7 22.4zM261.3 35.3c-2.3 3-1.9 4.6-2.9 4.6 -0.4 0-0.6-0.6-0.6-1.6 0-0.7 0.1-1.8 0.6-3 2.9-8 5.3-11.3 8.3-15.6 -6.2 2.3-12.7 9.2-16.6 15.6 -2 2.6-1.8 4.6-3 4.6 -0.4 0-0.6-0.6-0.6-1.6 0-0.8 0.1-1.8 0.6-3 5.6-13.4 8.9-17.4 12.4-17.5 0.5 0 0.6 0.4 0.6 0.7 0 1.7-3.6 5.5-5 7.7 2.8-2.8 8.5-8.4 12.7-8.4 1.3 0 2.5 1 2.5 2.2 0 1.3-2.9 4.4-4.1 6.4 3.2-3.5 7-6.5 11.6-8.3 1.2-0.5 4.8-0.5 4.8 2.3 0 0.6-0.1 1.1-0.2 1.2 -8.3 11.5-9.4 14.4-9.4 15.4 0 1.6 0.7 1.7 1.1 1.7 1.1 0 8.6-5.3 8.6-5.4 0.2-0.1 0.5-0.1 0.6-0.1 0.1 0 0.2 0.1 0.2 0.2 0 0.5-0.8 1.4-0.8 1.4 -7.4 5.8-9.1 5.4-8.9 5.4 -1.8 0-2.8-1.7-2.8-3.5 0-4 2.9-8.8 7.1-15.1 0.7-1 1.3-1.9 1.1-2.2 -0.4 0-0.7 0.1-1.1 0.2C271.3 22.2 265.4 28.8 261.3 35.3z"/></svg>