<?xml version="1.0" encoding="utf-8"?>
<!-- Generator: Adobe Illustrator 13.0.0, SVG Export Plug-In . SVG Version: 6.00 Build 14948)  -->
<!DOCTYPE svg PUBLIC "-//W3C//DTD SVG 1.1//EN" "http://www.w3.org/Graphics/SVG/1.1/DTD/svg11.dtd">
<svg version="1.1" id="Layer_1" xmlns="http://www.w3.org/2000/svg" xmlns:xlink="http://www.w3.org/1999/xlink" x="0px" y="0px"
	 width="283.667px" height="55.904px" viewBox="0 0 283.667 55.904" enable-background="new 0 0 283.667 55.904"
	 xml:space="preserve">
<path fill="#83205D" d="M65.517,1.569c4.56,0,9.6,1.8,9.6,7.92c0,11.64-12.479,24.719-25.319,26.158
	c3.6,4.92,7.799,10.8,14.279,10.8c2.28,0,3-3.12,5.52-3.12c0.72,0,1.2,0.24,1.2,0.721c0,2.642-5.52,3.602-7.32,3.602
	c-7.32,0-11.64-6.479-15.359-11.76c-0.84,0.118-1.68,0.118-2.4,0.118c-2.64,0-4.56-0.358-7.32-1.318c-3.12,6.84-2.52,7.68-2.76,7.68
	c-1.44,0-1.68-0.479-1.68-1.199c0-2.521,0.6-5.16,1.8-8.398c-0.48-0.722-0.96-1.562-1.08-2.521c-0.24-2.16,1.2-4.2,3.96-3.96
	c4.2-8.04,9.6-15.357,9.6-15.357c0.48-0.722,0.84-0.961,1.08-0.961c0.84,0,1.32,1.439,1.32,2.039c0,0.961-0.48,1.802-0.48,1.802
	l-3,5.04c-2.04,3.357-3.72,5.88-4.92,8.277c3,1.683,5.04,4.682,6.84,6.96c9.959-2.278,22.199-12.72,22.199-24.357
	c0-3.119-1.32-5.761-5.64-6.722c-19.919,0-36.598,13.439-55.317,20.04c-1.44,0.479-2.64,0.842-4.2,0.359c0,0-6.12-1.8-6.12-5.64
	c0-0.479,0.36-0.84,0.84-0.84c3.6,0,2.52,5.277,6.239,5.277c0.72,0,2.16-0.239,2.88-0.6C27.838,15.249,45.478,1.569,65.517,1.569z
	 M37.798,27.967c-1.439,0.36-2.16,1.44-1.439,3.12C36.838,30.007,37.318,29.047,37.798,27.967z M45.358,34.568c0.6,0,1.2,0,1.8-0.12
	c-1.68-2.4-3.48-4.561-5.76-5.76c-0.96,1.8-1.68,3.357-2.4,4.68C40.918,34.087,42.958,34.568,45.358,34.568z M86.398,29.047
	c0.36,0.24-0.6,2.04-1.44,3.12c-2.28,2.642-3.72,3.722-6.6,5.399c-2.64,1.438-9.6,5.04-11.04,0
	c-1.44-5.399,6.36-16.919,11.52-19.319c1.8-0.959,4.2-0.959,5.04,1.32c2.88,8.04-7.44,12.119-12.72,14.64
	c-0.48,0.12-0.84,0.24-1.32,0.36c-0.48,1.317-0.6,2.52-0.36,3.479c0.72,1.562,5.879-0.479,8.16-1.92c3.24-2.04,3.96-2.76,6.12-4.92
	C84.479,30.127,85.918,28.808,86.398,29.047z M70.679,32.648c5.52-2.28,13.2-6.24,11.76-12c-0.36-0.722-1.68,0-2.88,0.96
	C76.079,24.007,72.719,28.448,70.679,32.648z M95.277,33.127l-0.12,0.24c-2.64,2.521-7.8,5.64-7.8,5.64
	c-1.08,0.602-1.8,0.842-2.4,0.842c-2.64,0-2.88-1.802-2.88-3.24c0-4.199,4.32-9.602,4.32-9.602
	c6.72-8.277,10.319-8.879,10.319-8.879c0.48-0.12,0.84-0.238,1.2-0.238c3,0,3.24,3,3.24,4.078c0,0.359,0,0.119,0,0.479
	c0.96-1.92,2.52-4.68,5.64-4.68c0.479,0,0.6,0.358,0.6,0.72c0,0.479-0.24,1.08-0.36,1.2c-6,8.04-11.399,19.56-15,24.719
	c9,1.681,15.839,3.24,22.799,3.24c6.959,0,14.759-0.84,24.479-5.04c2.28-0.96,2.88-4.199,5.641-4.199c0.479,0,0.84,0.359,0.84,0.84
	c0,2.159-4.081,3.84-5.521,4.439c-10.2,4.318-18.479,5.277-26.159,5.277c-7.08,0-13.919-1.317-22.919-3.237
	c-4.44,5.64-9.24,9.357-15.6,9.357c-2.399,0-6.839-1.8-6.839-5.277c0-6,8.28-6.842,13.08-6.842c2.399,0,4.919,0.359,7.319,0.842
	C91.317,40.687,93.237,37.208,95.277,33.127z M88.077,45.007c-2.16-0.238-4.319-0.721-6.6-0.721c-3.96,0-11.04,1.08-11.04,5.4
	c0,2.76,2.88,3.84,4.92,3.84C80.638,53.527,84.958,49.447,88.077,45.007z M99.597,24.127c0-0.72,0.12-3.357-1.2-3.479
	c-2.04,0-7.44,6.357-8.879,7.8c0,0-5.04,5.279-5.04,8.76c0,0.239,0,0.84,0.36,0.84c0.48,0,1.44-0.358,3.6-1.68
	C88.438,36.368,96.717,31.687,99.597,24.127z M119.156,19.808c-6.12,3.357-11.279,9.479-14.879,15.6c-1.8,3-2.04,4.439-2.88,4.439
	c-0.36,0-0.6-0.602-0.6-1.562c0-0.721,0-1.8,0.6-3c4.2-9,8.4-18.239,12.359-17.52c0.36,0.119,0.6,0.238,0.6,0.6
	c0,1.44-2.88,4.561-4.2,6.601c2.28-2.398,7.2-7.198,10.319-7.198c1.44,0,2.52,1.08,2.52,3.479c0,5.521-3.12,6.84-3.72,6.84
	c-1.08,0-0.84-1.56-0.6-2.16c0.36-0.84,2.04-3.357,2.4-5.879C121.076,19.088,119.756,19.448,119.156,19.808z M138.834,29.047
	c0.36,0.24-0.6,2.04-1.439,3.12c-2.28,2.642-3.72,3.722-6.6,5.399c-2.64,1.438-9.6,5.04-11.04,0
	c-1.44-5.399,6.36-16.919,11.52-19.319c1.8-0.959,4.2-0.959,5.04,1.32c2.88,8.04-7.44,12.119-12.72,14.64
	c-0.48,0.12-0.84,0.24-1.32,0.36c-0.48,1.317-0.6,2.52-0.36,3.479c0.72,1.562,5.88-0.479,8.16-1.92c3.24-2.04,3.959-2.76,6.12-4.92
	C136.914,30.127,138.354,28.808,138.834,29.047z M123.115,32.648c5.52-2.28,13.2-6.24,11.76-12c-0.36-0.722-1.68,0-2.88,0.96
	C128.515,24.007,125.155,28.448,123.115,32.648z M158.513,4.329c0,1.08-0.6,2.04-0.6,2.04l-7.439,9.119h0.84
	c0.6,0,1.68,0,1.68,0.721c0,0.84-1.08,0.84-1.68,0.84h-2.04c-12.239,16.439-12.599,19.439-12.599,20.521c0,0.841,0.6,0.96,0.96,0.96
	c2.28,0.24,8.64-5.159,8.64-5.399c0.24-0.12,0.479-0.12,0.6-0.12s0.24,0.12,0.24,0.24c0,0.72-0.84,1.439-0.84,1.439
	c-7.08,6.238-8.64,5.398-8.88,5.398c-2.88,0-2.64-2.641-2.64-2.641c0-4.799,4.56-12.719,10.319-20.398h-5.16
	c-0.72,0-1.56,0-1.56-0.84c0-0.721,0.84-0.721,1.56-0.721h6.36c8.759-11.521,10.438-12.959,10.919-12.959
	C158.033,2.529,158.513,3.369,158.513,4.329z M146.873,37.567c0,0.841,0.479,0.96,0.959,0.96c2.16,0,8.642-5.159,8.642-5.399
	c0.118-0.12,0.84-0.238,0.84,0.12c0.12,0.72-0.84,1.439-0.84,1.439c-6.601,5.76-8.642,5.398-8.882,5.398
	c-2.879,0.12-2.639-2.641-2.639-2.641c0-9.239,20.879-34.198,21.601-34.198c0.479-0.479,0.84-0.6,1.077-0.6
	c0.843,0,1.08,1.2,1.08,1.68c0,1.08-0.6,2.04-0.6,2.04l-8.52,10.439C147.112,33.488,146.873,36.607,146.873,37.567z M174.47,29.047
	c0.359,0.24-0.6,2.04-1.439,3.12c-2.279,2.642-3.721,3.722-6.6,5.399c-2.641,1.438-9.6,5.04-11.04,0
	c-1.44-5.399,6.36-16.919,11.521-19.319c1.799-0.959,4.199-0.959,5.039,1.32c2.881,8.04-7.438,12.119-12.72,14.64
	c-0.479,0.12-0.84,0.24-1.319,0.36c-0.479,1.317-0.601,2.52-0.361,3.479c0.722,1.562,5.882-0.479,8.16-1.92
	c3.24-2.04,3.959-2.76,6.119-4.92C172.55,30.127,173.99,28.808,174.47,29.047z M158.75,32.648c5.521-2.28,13.201-6.24,11.76-12
	c-0.358-0.722-1.68,0-2.881,0.96C164.15,24.007,160.791,28.448,158.75,32.648z M167.39,33.607c0-2.159,1.801-4.319,4.32-4.319
	c0.479,0,1.199,0.12,1.799,0.36c1.561-2.04,3.361-3.723,7.681-10.8c0.12-0.12-0.72-1.802,1.8-1.32
	c2.881,0.601,4.08,13.08,0.84,17.999c1.801,0.12,4.68-1.319,5.041-1.319c0.119,0,0.119,0,0.119,0.12c0,0.479-2.4,2.64-5.279,2.64
	c-0.238,0-0.601,0-0.84-0.118c-3,3.238-5.041,3-7.438,3.118c-2.882,0.12-5.761-1.198-7.319-3.84
	C167.63,35.288,167.39,34.568,167.39,33.607z M171.83,30.728c-1.32,0-2.879,1.68-2.879,3.357c0,0.24,0,0.36,0.118,0.602
	c0.841-1.08,2.16-2.521,3.36-3.84C172.189,30.847,172.069,30.728,171.83,30.728z M169.31,35.408c0.96,1.68,3.84,3,6.24,3
	c2.279,0,3.84-1.08,4.8-2.521c-2.28-1.2-4.681-3-6.601-4.319C172.189,33.127,170.509,34.568,169.31,35.408z M174.83,30.368
	c2.16,1.439,4.439,3.239,6.479,4.2c2.159-3.721,1.56-13.32,0.601-13.439c-2.041,2.999-4.199,6.239-6.479,8.641
	C175.189,30.007,175.069,30.248,174.83,30.368z M185.39,33.607c0-2.159,1.8-4.319,4.318-4.319c0.479,0,1.201,0.12,1.801,0.36
	c1.561-2.04,3.359-3.723,7.68-10.8c0.12-0.12-0.721-1.802,1.801-1.32c2.879,0.601,4.079,13.08,0.84,17.999
	c1.801,0.12,4.68-1.319,5.039-1.319c0.12,0,0.12,0,0.12,0.12c0,0.479-2.399,2.64-5.278,2.64c-0.24,0-0.602,0-0.842-0.118
	c-2.998,3.238-5.039,3-7.438,3.118c-2.881,0.12-5.762-1.198-7.319-3.84C185.63,35.288,185.39,34.568,185.39,33.607z M189.83,30.728
	c-1.32,0-2.881,1.68-2.881,3.357c0,0.24,0,0.36,0.12,0.602c0.841-1.08,2.16-2.521,3.358-3.84
	C190.189,30.847,190.069,30.728,189.83,30.728z M187.31,35.408c0.96,1.68,3.84,3,6.238,3c2.281,0,3.841-1.08,4.801-2.521
	c-2.279-1.2-4.68-3-6.6-4.319C190.189,33.127,188.509,34.568,187.31,35.408z M192.83,30.368c2.16,1.439,4.438,3.239,6.479,4.2
	c2.159-3.721,1.562-13.32,0.603-13.439c-2.041,2.999-4.201,6.239-6.48,8.641C193.188,30.007,193.069,30.248,192.83,30.368z
	 M210.229,40.208c0,0.479-2.04,4.562-2.399,1.682c-0.119-0.842,0.24-2.882,1.08-2.882C209.628,39.007,210.229,39.487,210.229,40.208
	z M228.708,17.888c2.277,0,3.24,2.158,2.64,5.52c-0.841,4.439-3.479,4.32-3.479,4.32l0.119-0.12l-0.119,0.12
	c-0.479-0.12-0.359-1.2-0.359-1.44c0-0.96,2.279-3,2.279-5.159c-0.721,0-1.561,0.239-2.641,0.959
	c-2.76,1.803-10.919,10.682-10.919,14.762c0,1.198,1.08,1.561,2.04,1.561c6.84,0,14.999-9,16.559-11.64
	c0.121-0.12,0.24,0.12,0.24,0.237c0,3.723-11.158,12.842-16.68,13.08c-3.479,0.12-4.319-1.92-4.319-4.318
	c0-5.279,8.64-15.959,13.2-17.521C227.869,18.008,228.348,17.888,228.708,17.888z M246.228,30.368c-0.721,0-0.96,0.6-1.439,1.319
	c-0.24,0.358-6,8.521-12.24,8.521c-0.959,0-2.639-0.24-2.76-3c-0.358-8.88,10.08-20.159,16.319-20.159c3.12,0,3.239,3,3.239,4.08
	c0,1.439-0.359,4.079-2.52,7.562c3.6-0.24,6.479-2.4,7.799-5.16c0.121-0.36,0.479-0.6,0.721-0.6c0.96,0,0.84,1.197,0.84,1.317
	C254.507,27.728,250.667,30.368,246.228,30.368z M243.947,30.007c-3-0.72-5.279-3-5.279-6.117c0-0.36,0-0.842,0.121-1.2
	c-2.881,3.12-6.121,8.64-6.121,13.68c0,1.92,0.84,1.8,0.961,1.8C237.468,38.047,242.388,32.047,243.947,30.007z M246.707,22.448
	c0-2.399-1.438-2.88-2.279-2.88c-3.238,0-4.198,3.358-4.198,4.32c0,2.037,1.681,3.84,4.562,4.68
	C246.347,25.448,246.707,23.528,246.707,22.448z M261.347,35.288c-2.279,3-1.92,4.562-2.879,4.562c-0.36,0-0.602-0.602-0.602-1.562
	c0-0.721,0.119-1.8,0.602-3c2.879-8.04,5.279-11.28,8.279-15.6c-6.24,2.278-12.722,9.237-16.562,15.6
	c-2.04,2.64-1.802,4.562-3,4.562c-0.358,0-0.601-0.602-0.601-1.562c0-0.841,0.119-1.8,0.601-3
	c5.642-13.438,8.88-17.397,12.358-17.52c0.479,0,0.602,0.358,0.602,0.72c0,1.68-3.602,5.52-5.04,7.68
	c2.761-2.76,8.521-8.397,12.722-8.397c1.318,0,2.52,0.96,2.52,2.16c0,1.317-2.881,4.438-4.08,6.357
	c3.24-3.479,6.96-6.479,11.641-8.279c1.199-0.479,4.799-0.479,4.799,2.279c0,0.603-0.119,1.08-0.24,1.2
	c-8.277,11.52-9.357,14.398-9.357,15.359c0,1.561,0.723,1.68,1.08,1.68c1.08,0,8.641-5.279,8.641-5.399
	c0.239-0.12,0.479-0.12,0.602-0.12c0.119,0,0.238,0.12,0.238,0.24c0,0.479-0.84,1.439-0.84,1.439
	c-7.438,5.76-9.119,5.398-8.879,5.398c-1.802,0-2.762-1.68-2.762-3.479c0-3.959,2.88-8.76,7.08-15.119
	c0.721-0.96,1.318-1.92,1.08-2.16c-0.359,0-0.723,0.12-1.08,0.24C271.307,22.208,265.427,28.808,261.347,35.288z"/>
</svg>
