<?xml version="1.0" encoding="utf-8"?>
<!-- Generator: Adobe Illustrator 13.0.0, SVG Export Plug-In . SVG Version: 6.00 Build 14948)  -->
<!DOCTYPE svg PUBLIC "-//W3C//DTD SVG 1.1//EN" "http://www.w3.org/Graphics/SVG/1.1/DTD/svg11.dtd">
<svg version="1.1" id="Layer_1" xmlns="http://www.w3.org/2000/svg" xmlns:xlink="http://www.w3.org/1999/xlink" x="0px" y="0px"
	 width="249.708px" height="36.184px" viewBox="0 0 249.708 36.184" enable-background="new 0 0 249.708 36.184"
	 xml:space="preserve">
<path fill="#FF4848" d="M29.789,7.745c4.59-2.431,10.079-6.391,15.029-6.391c3.33,0,7.02,1.71,7.02,6.119
	c0,2.521-1.62,6.66-3.33,6.66c-0.45,0-0.72-0.36-0.72-0.9c0-2.52,2.97-2.608,2.97-5.13c0-3.959-2.52-5.669-5.85-5.669
	c-3.87,0-8.279,2.88-12.149,4.949c0.18,0.271,0.18,0.63,0.18,0.9c0,0.72-0.27,1.26-0.27,1.26l-3.24,4.68
	c-7.649,12.42-8.729,16.38-8.729,16.38c0,1.17,0.27,1.351,0.63,1.351c0.09,0,8.1-5.58,8.189-6.301c0.18-0.09,0.271-0.09,0.36-0.09
	c0.18,0,0.18,0,0.18,0.181c0,0.359-0.45,1.08-0.45,1.08c-0.449,0.54-7.02,5.938-7.02,5.938c-0.54,0.271-1.08,0.36-1.439,0.36
	c-1.62,0-1.891-1.8-1.891-1.8c-0.09-0.271-0.09-0.631-0.09-0.99c0-6.029,8.01-17.369,10.979-21.509
	c-6.93,3.51-14.039,7.919-22.318,7.919c-1.71,0-7.83-0.989-7.83-6.3c0-0.811,0.27-1.261,0.72-1.261c0.9,0,1.8,1.53,1.8,3.33
	c0,2.34,2.521,3.15,4.771,3.15C15.39,15.665,22.499,11.524,29.789,7.745z M31.319,24.664c-2.79,4.59-2.79,5.76-2.79,5.76
	c-0.18,0.45-0.45,0.54-0.72,0.54c-0.63,0-0.63-0.359-0.63-0.63c0-8.46,17.189-27.449,17.369-27.449c0.54,0,0.9,0.63,0.9,1.351
	c0,0.45-0.181,0.989-0.45,1.351c-4.14,5.31-7.2,9.54-9.54,12.869c1.98-1.71,5.4-3.959,7.83-4.229c1.8-0.18,3.239,1.62,1.979,2.88
	c-6.209,8.551-7.02,10.71-7.02,11.431c0,1.26,0.45,1.35,0.72,1.35c1.17,0,6.57-3.96,6.57-4.05c0.18-0.09,0.27-0.09,0.359-0.09
	c0.181,0,0.271,0.09,0.271,0.18c0,0.36-0.63,1.08-0.63,1.08c-2.88,2.431-5.58,4.05-6.75,4.05c-1.89,0-1.979-1.979-1.979-1.979
	c-0.271-3.15,1.89-6.75,5.31-11.971c0.359-0.54,1.08-1.8-0.09-1.438C37.889,17.284,34.199,20.793,31.319,24.664z M58.678,22.774
	c0.271,0.181-0.449,1.53-1.079,2.341c-1.71,1.979-2.79,2.789-4.95,4.05c-1.979,1.08-7.2,3.779-8.279,0
	c-1.08-4.05,4.77-12.689,8.64-14.489c1.35-0.72,3.149-0.72,3.779,0.99c2.16,6.028-5.58,9.089-9.539,10.979
	c-0.36,0.09-0.631,0.181-0.99,0.271c-0.36,0.989-0.45,1.89-0.271,2.609c0.54,1.17,4.41-0.359,6.12-1.439
	c2.43-1.53,2.97-2.069,4.59-3.689C57.238,23.583,58.318,22.594,58.678,22.774z M46.889,25.474c4.14-1.71,9.899-4.681,8.819-9
	c-0.27-0.54-1.26,0-2.159,0.72C50.938,18.994,48.419,22.324,46.889,25.474z M65.878,27.454c-1.71,2.25-1.44,3.42-2.16,3.42
	c-0.271,0-0.45-0.45-0.45-1.17c0-0.54,0.09-1.351,0.45-2.25c2.16-6.029,3.96-8.46,6.21-11.699c-4.68,1.71-9.54,6.93-12.42,11.699
	c-1.53,1.979-1.35,3.42-2.25,3.42c-0.27,0-0.45-0.45-0.45-1.17c0-0.63,0.091-1.351,0.45-2.25c4.23-10.079,6.66-13.051,9.27-13.141
	c0.36,0,0.45,0.271,0.45,0.54c0,1.261-2.7,4.141-3.779,5.761c2.069-2.069,6.39-6.301,9.539-6.301c0.99,0,1.89,0.721,1.89,1.62
	c0,0.99-2.159,3.33-3.06,4.771c2.43-2.609,5.22-4.859,8.729-6.209c0.9-0.36,3.6-0.36,3.6,1.71c0,0.448-0.09,0.81-0.18,0.898
	c-6.21,8.641-7.02,10.8-7.02,11.521c0,1.17,0.54,1.26,0.81,1.26c0.811,0,6.48-3.96,6.48-4.05c0.18-0.09,0.359-0.09,0.449-0.09
	c0.091,0,0.181,0.09,0.181,0.18c0,0.36-0.63,1.08-0.63,1.08c-5.58,4.32-6.84,4.05-6.66,4.05c-1.35,0-2.07-1.26-2.07-2.609
	c0-2.97,2.16-6.569,5.311-11.34c0.54-0.72,0.989-1.438,0.81-1.62c-0.27,0-0.54,0.091-0.81,0.182
	C73.348,17.644,68.938,22.594,65.878,27.454z M95.215,22.774c0.271,0.181-0.449,1.53-1.079,2.341c-1.71,1.979-2.79,2.789-4.95,4.05
	c-1.979,1.08-7.2,3.779-8.279,0c-1.08-4.05,4.77-12.689,8.64-14.489c1.35-0.72,3.149-0.72,3.779,0.99
	c2.16,6.028-5.58,9.089-9.539,10.979c-0.36,0.09-0.631,0.181-0.99,0.271c-0.36,0.989-0.45,1.89-0.271,2.609
	c0.54,1.17,4.41-0.359,6.12-1.439c2.43-1.53,2.97-2.069,4.59-3.689C93.775,23.583,94.855,22.594,95.215,22.774z M83.426,25.474
	c4.14-1.71,9.899-4.681,8.819-9c-0.27-0.54-1.26,0-2.159,0.72C87.476,18.994,84.956,22.324,83.426,25.474z M89.906,26.194
	c0-1.619,1.35-3.239,3.239-3.239c0.36,0,0.9,0.09,1.351,0.271c1.17-1.53,2.52-2.79,5.76-8.1c0.09-0.091-0.54-1.352,1.35-0.99
	c2.16,0.45,3.06,9.81,0.63,13.499c1.35,0.091,3.51-0.989,3.78-0.989c0.09,0,0.09,0,0.09,0.09c0,0.359-1.8,1.979-3.96,1.979
	c-0.18,0-0.45,0-0.63-0.09c-2.25,2.43-3.78,2.25-5.58,2.34c-2.16,0.09-4.319-0.899-5.489-2.88
	C90.086,27.454,89.906,26.914,89.906,26.194z M93.235,24.034c-0.989,0-2.159,1.26-2.159,2.52c0,0.181,0,0.271,0.09,0.45
	c0.63-0.811,1.62-1.89,2.52-2.88C93.506,24.124,93.416,24.034,93.235,24.034z M91.346,27.543c0.72,1.26,2.88,2.25,4.68,2.25
	c1.71,0,2.88-0.811,3.6-1.891c-1.71-0.899-3.51-2.25-4.949-3.239C93.506,25.833,92.246,26.914,91.346,27.543z M95.485,23.764
	c1.62,1.08,3.33,2.43,4.86,3.149c1.62-2.79,1.17-9.989,0.449-10.079c-1.529,2.25-3.149,4.68-4.859,6.479
	C95.756,23.494,95.666,23.674,95.485,23.764z M123.385,29.074c0,0.72,0.45,0.81,0.72,0.81c1.53,0,6.3-4.14,7.021-4.14
	c0.09,0,0.181,0.09,0.181,0.18c0,0.36-0.63,1.08-0.63,1.08c-5.221,4.5-6.75,3.96-6.75,4.05c-1.89,0-1.979-1.979-1.979-1.979
	c0-0.99,0.09-1.801,0.54-3.15v0.091c-1.98,1.891-5.851,4.229-5.851,4.229c-0.899,0.54-1.529,0.63-2.069,0.63
	c-1.71,0-1.8-1.62-1.8-2.431c0-3.149,3.239-7.199,3.239-7.199c5.04-6.21,7.74-6.659,7.74-6.659c1.799-0.812,3.6,0.54,3.149,3.06
	c0.9-1.35,2.07-3.33,4.141-3.33c0.539,0,0.629,0.271,0.629,0.54c0,0.36-0.18,0.812-0.27,0.9
	C123.655,26.194,123.385,28.354,123.385,29.074z M125.904,18.544c0-0.812-0.09-2.07-0.989-2.07c-1.53,0-5.58,4.68-6.66,5.851
	c0,0-3.779,3.96-3.779,6.569c0,0.181,0,0.54,0.27,0.63c0.271,0.091,1.08-0.181,2.79-1.261
	C117.896,27.994,125.904,22.865,125.904,18.544z M147.773,25.744c0.09,0,0.181,0.09,0.181,0.18c0,0.36-0.631,1.08-0.631,1.08
	c-5.85,4.59-6.84,4.05-6.658,4.05c-0.99,0-2.07-0.81-2.07-2.609c0-2.97,2.16-6.569,5.31-11.34c0.54-0.72,0.99-1.35,0.812-1.62
	c-0.271,0-0.541,0.091-0.812,0.182c-5.22,1.979-9.72,6.93-12.688,11.789c-1.26,2.069-1.529,3.42-2.25,3.42
	c-0.271,0-0.449-0.45-0.449-1.17c0-0.63,0.09-1.351,0.449-2.25c2.699-6.75,6.119-13.141,9.27-13.141c0.36,0,0.45,0.271,0.45,0.54
	c0,1.17-2.699,4.23-3.96,6.03c2.521-2.7,5.4-4.95,8.91-6.39c3.06-0.722,3.6,0.539,3.6,1.71c0,0.448-0.09,0.81-0.18,0.898
	c-6.75,9.271-6.93,11.159-6.93,11.431c0,1.26,0.358,1.35,0.72,1.35c0.81,0,6.479-3.96,6.479-4.05
	C147.504,25.744,147.684,25.744,147.773,25.744z M172.793,4.145c0,0.811-0.541,1.619-0.541,1.619l-6.39,7.83
	c-9.358,12.42-9.63,14.85-9.63,15.479c0,0.72,0.45,0.81,0.721,0.81c1.439,0.181,6.119-4.14,6.93-4.14c0.181,0,0.271,0.09,0.271,0.18
	c0,0.36-0.63,1.08-0.63,1.08c-2.88,2.431-5.67,4.14-6.75,4.05c-1.891-0.18-1.979-1.979-1.979-1.979c0-0.721,0.09-1.62,0.449-2.79
	c-1.529,1.35-5.22,4.59-7.56,4.59c-1.802,0-1.892-1.53-1.892-2.431c0-4.319,6.75-12.778,10.979-13.858
	c1.979-0.63,3.062,0.81,3.24,2.79c4.68-7.021,10.979-13.95,10.979-13.95c0.359-0.359,0.629-0.449,0.899-0.449
	c0.18,0,0.358,0.09,0.358,0.09C172.613,3.334,172.793,3.785,172.793,4.145z M156.594,17.464c-2.79,1.62-9.18,7.919-9.18,11.52
	c0,0.271-0.09,0.631,0.271,0.631c0.358,0,1.17-0.181,2.88-1.352c1.979-1.17,6.93-7.199,8.369-9.359
	C158.934,17.194,158.754,16.205,156.594,17.464z M167.034,35.013c-0.449,0.09-0.99,0.181-1.439,0.181
	c-3.15,0.271-6.301-1.801-6.301-3.239c0-0.54,0.271-0.721,0.811-0.721c1.98,0,2.432,1.801,4.141,2.971c0.811,0,1.709,0,2.609-0.271
	c12.061-3.96,20.52-15.029,28.438-24.749c3.51-4.68,3.602-5.31,3.69-5.31c1.351,0,1.17,2.16,0.899,2.97l-3.779,6.48
	c-5.939,9.629-7.74,14.129-8.189,15.749c0.18,0,1.08-1.351,1.619-2.07c6.84-8.641,12.51-18.359,21.959-24.929
	c1.08-0.54,2.25-0.631,2.432,1.26c0.72-0.99,0.898-1.26,1.17-1.26c1.08,0,0.988,2.25,0.63,2.88l-5.671,8.37
	c-8.1,13.139-8.188,15.658-8.188,16.198c0,0.721,0.358,0.899,0.629,0.899s7.199-4.229,7.291-4.771c0.18-0.09,0.358-0.09,0.448-0.09
	c0.181,0,0.181,0,0.181,0.181c0,0.72-4.859,4.68-6.66,5.489c-0.539,0.271-1.08,0.359-1.438,0.359c-1.62,0-1.892-1.8-1.892-1.8
	c-0.09-0.271-0.09-0.63-0.09-0.899c0-6.391,9.271-19.62,12.689-24.39c0-0.811,0.09-2.069-1.08-1.351
	c-8.818,6.029-14.759,16.021-21.509,24.479c-1.71,2.16-2.7,3.24-3.42,3.24c-0.63,0-0.72-0.45-0.72-0.9c0-3.6,2.43-9.27,5.578-14.759
	C185.034,23.404,177.653,31.503,167.034,35.013z M220.402,23.764c-0.54,0-0.72,0.449-1.08,0.989c-0.18,0.271-4.5,6.39-9.18,6.39
	c-0.72,0-1.979-0.18-2.069-2.249c-0.271-6.66,7.561-15.12,12.239-15.12c2.34,0,2.431,2.25,2.431,3.062
	c0,1.08-0.271,3.06-1.891,5.669c2.699-0.18,4.859-1.8,5.85-3.869c0.09-0.271,0.36-0.45,0.541-0.45c0.719,0,0.629,0.9,0.629,0.99
	C226.612,21.784,223.732,23.764,220.402,23.764z M218.692,23.494c-2.25-0.54-3.96-2.25-3.96-4.591c0-0.27,0-0.63,0.09-0.898
	c-2.159,2.34-4.59,6.479-4.59,10.259c0,1.44,0.63,1.352,0.722,1.352C213.833,29.524,217.522,25.024,218.692,23.494z M220.763,17.824
	c0-1.801-1.08-2.159-1.71-2.159c-2.432,0-3.15,2.52-3.15,3.238c0,1.53,1.26,2.881,3.42,3.511
	C220.493,20.074,220.763,18.634,220.763,17.824z M234.892,15.844c-4.591,2.521-8.46,7.109-11.159,11.699
	c-1.352,2.25-1.529,3.33-2.16,3.33c-0.271,0-0.449-0.45-0.449-1.17c0-0.54,0-1.351,0.449-2.25c3.149-6.75,6.301-13.681,9.27-13.141
	c0.271,0.09,0.451,0.182,0.451,0.45c0,1.08-2.16,3.42-3.15,4.95c1.71-1.8,5.4-5.4,7.74-5.4c1.08,0,1.89,0.812,1.89,2.61
	c0,4.14-2.34,5.13-2.79,5.13c-0.811,0-0.63-1.17-0.449-1.62c0.271-0.63,1.529-2.52,1.801-4.41
	C236.333,15.304,235.342,15.574,234.892,15.844z M249.65,22.774c0.271,0.181-0.448,1.53-1.079,2.341
	c-1.71,1.979-2.789,2.789-4.949,4.05c-1.979,1.08-7.201,3.779-8.279,0c-1.08-4.05,4.77-12.689,8.64-14.489
	c1.351-0.72,3.149-0.72,3.778,0.99c2.16,6.028-5.579,9.089-9.538,10.979c-0.36,0.09-0.632,0.181-0.99,0.271
	c-0.36,0.989-0.45,1.89-0.271,2.609c0.539,1.17,4.41-0.359,6.119-1.439c2.43-1.53,2.971-2.069,4.59-3.689
	C248.211,23.583,249.292,22.594,249.65,22.774z M237.861,25.474c4.14-1.71,9.899-4.681,8.819-9c-0.27-0.54-1.26,0-2.159,0.72
	C241.911,18.994,239.392,22.324,237.861,25.474z"/>
</svg>
