<?xml version="1.0" encoding="utf-8"?>
<!-- Generator: Adobe Illustrator 13.0.0, SVG Export Plug-In . SVG Version: 6.00 Build 14948)  -->
<!DOCTYPE svg PUBLIC "-//W3C//DTD SVG 1.1//EN" "http://www.w3.org/Graphics/SVG/1.1/DTD/svg11.dtd">
<svg version="1.1" id="Layer_1" xmlns="http://www.w3.org/2000/svg" xmlns:xlink="http://www.w3.org/1999/xlink" x="0px" y="0px"
	 width="221.963px" height="33.108px" viewBox="0 0 221.963 33.108" enable-background="new 0 0 221.963 33.108"
	 xml:space="preserve">
<g>
	<path fill="#FF5E79" d="M26.48,7.807c4.08-2.16,8.96-5.68,13.36-5.68c2.96,0,6.24,1.52,6.24,5.439c0,2.24-1.44,5.921-2.96,5.921
		c-0.4,0-0.64-0.32-0.64-0.801c0-2.239,2.64-2.319,2.64-4.56c0-3.521-2.24-5.04-5.2-5.04c-3.44,0-7.36,2.56-10.8,4.399
		c0.16,0.24,0.16,0.561,0.16,0.801c0,0.64-0.24,1.12-0.24,1.12l-2.88,4.159c-6.8,11.041-7.76,14.561-7.76,14.561
		c0,1.04,0.24,1.2,0.56,1.2c0.08,0,7.2-4.96,7.28-5.6c0.16-0.08,0.24-0.08,0.32-0.08c0.16,0,0.16,0,0.16,0.159
		c0,0.32-0.4,0.961-0.4,0.961c-0.4,0.479-6.24,5.279-6.24,5.279c-0.48,0.24-0.96,0.32-1.28,0.32c-1.44,0-1.68-1.6-1.68-1.6
		c-0.08-0.24-0.08-0.561-0.08-0.881c0-5.359,7.12-15.439,9.76-19.12c-6.16,3.12-12.48,7.04-19.841,7.04c-1.52,0-6.96-0.88-6.96-5.6
		c0-0.721,0.24-1.12,0.64-1.12c0.8,0,1.6,1.36,1.6,2.96c0,2.08,2.24,2.8,4.24,2.8C13.68,14.847,20,11.167,26.48,7.807z"/>
	<path fill="#FF5E79" d="M27.839,22.847c-2.48,4.08-2.48,5.12-2.48,5.12c-0.16,0.4-0.4,0.48-0.64,0.48c-0.56,0-0.56-0.32-0.56-0.561
		c0-7.52,15.28-24.4,15.44-24.4c0.48,0,0.8,0.561,0.8,1.2c0,0.4-0.16,0.88-0.4,1.2c-3.68,4.72-6.4,8.48-8.48,11.44
		c1.76-1.521,4.8-3.521,6.96-3.761c1.6-0.159,2.88,1.44,1.76,2.561c-5.521,7.601-6.24,9.521-6.24,10.16c0,1.12,0.4,1.2,0.64,1.2
		c1.04,0,5.84-3.521,5.84-3.601c0.16-0.08,0.24-0.08,0.32-0.08c0.16,0,0.24,0.08,0.24,0.16c0,0.32-0.56,0.96-0.56,0.96
		c-2.56,2.16-4.96,3.601-6,3.601c-1.68,0-1.76-1.76-1.76-1.76c-0.24-2.801,1.68-6.001,4.72-10.641c0.32-0.48,0.96-1.6-0.08-1.28
		C33.679,16.287,30.399,19.407,27.839,22.847z"/>
	<path fill="#FF5E79" d="M52.159,21.167c0.24,0.16-0.4,1.36-0.96,2.08c-1.52,1.76-2.48,2.48-4.4,3.6c-1.76,0.961-6.4,3.36-7.36,0
		c-0.96-3.6,4.24-11.28,7.68-12.88c1.2-0.64,2.8-0.64,3.36,0.88c1.92,5.36-4.96,8.08-8.48,9.761c-0.32,0.08-0.56,0.16-0.88,0.239
		c-0.32,0.881-0.4,1.681-0.24,2.32c0.48,1.04,3.92-0.32,5.44-1.28c2.16-1.359,2.64-1.84,4.08-3.279
		C50.878,21.887,51.838,21.007,52.159,21.167z M41.678,23.567c3.68-1.521,8.8-4.16,7.84-8.001c-0.24-0.479-1.12,0-1.92,0.641
		C45.278,17.807,43.038,20.767,41.678,23.567z"/>
	<path fill="#FF5E79" d="M58.558,25.327c-1.52,2-1.28,3.04-1.92,3.04c-0.24,0-0.4-0.4-0.4-1.04c0-0.48,0.08-1.2,0.4-2
		c1.92-5.36,3.52-7.521,5.52-10.4c-4.16,1.521-8.48,6.16-11.04,10.4c-1.36,1.76-1.2,3.04-2,3.04c-0.24,0-0.4-0.4-0.4-1.04
		c0-0.56,0.08-1.2,0.4-2c3.76-8.96,5.92-11.601,8.24-11.681c0.32,0,0.4,0.24,0.4,0.48c0,1.12-2.4,3.68-3.36,5.12
		c1.84-1.84,5.68-5.601,8.48-5.601c0.88,0,1.68,0.641,1.68,1.44c0,0.88-1.92,2.96-2.72,4.24c2.16-2.32,4.64-4.32,7.76-5.521
		c0.8-0.319,3.2-0.319,3.2,1.521c0,0.399-0.08,0.72-0.16,0.8c-5.52,7.68-6.24,9.601-6.24,10.24c0,1.04,0.48,1.12,0.72,1.12
		c0.72,0,5.76-3.521,5.76-3.601c0.16-0.08,0.32-0.08,0.4-0.08c0.08,0,0.16,0.08,0.16,0.16c0,0.32-0.56,0.96-0.56,0.96
		c-4.96,3.841-6.08,3.601-5.92,3.601c-1.2,0-1.84-1.12-1.84-2.32c0-2.64,1.92-5.84,4.72-10.08c0.48-0.64,0.88-1.28,0.72-1.44
		c-0.24,0-0.48,0.08-0.72,0.16C65.198,16.606,61.278,21.007,58.558,25.327z"/>
	<path fill="#FF5E79" d="M84.637,21.167c0.24,0.16-0.4,1.36-0.96,2.08c-1.52,1.76-2.48,2.48-4.4,3.6c-1.76,0.961-6.4,3.36-7.36,0
		c-0.96-3.6,4.24-11.28,7.68-12.88c1.2-0.64,2.8-0.64,3.36,0.88c1.92,5.36-4.96,8.08-8.48,9.761c-0.32,0.08-0.56,0.16-0.88,0.239
		c-0.32,0.881-0.4,1.681-0.24,2.32c0.48,1.04,3.92-0.32,5.44-1.28c2.16-1.359,2.64-1.84,4.08-3.279
		C83.357,21.887,84.317,21.007,84.637,21.167z M74.157,23.567c3.68-1.521,8.8-4.16,7.84-8.001c-0.24-0.479-1.12,0-1.92,0.641
		C77.757,17.807,75.517,20.767,74.157,23.567z"/>
	<path fill="#FF5E79" d="M79.916,24.207c0-1.44,1.2-2.88,2.88-2.88c0.32,0,0.8,0.08,1.2,0.24c1.04-1.36,2.24-2.48,5.12-7.2
		c0.08-0.08-0.48-1.2,1.2-0.88c1.92,0.399,2.72,8.72,0.56,12c1.2,0.08,3.12-0.88,3.36-0.88c0.08,0,0.08,0,0.08,0.08
		c0,0.319-1.6,1.76-3.52,1.76c-0.16,0-0.4,0-0.56-0.08c-2,2.16-3.36,2-4.96,2.08c-1.92,0.08-3.84-0.8-4.88-2.561
		C80.076,25.327,79.916,24.847,79.916,24.207z M82.876,22.287c-0.88,0-1.92,1.12-1.92,2.24c0,0.16,0,0.24,0.08,0.399
		c0.56-0.72,1.44-1.68,2.24-2.56C83.116,22.367,83.036,22.287,82.876,22.287z M81.196,25.407c0.64,1.12,2.56,2,4.16,2
		c1.52,0,2.56-0.72,3.2-1.68c-1.52-0.801-3.12-2-4.4-2.881C83.116,23.887,81.996,24.847,81.196,25.407z M84.876,22.047
		c1.44,0.96,2.96,2.16,4.32,2.8c1.44-2.479,1.04-8.88,0.4-8.96c-1.36,2-2.8,4.16-4.32,5.761
		C85.116,21.807,85.036,21.967,84.876,22.047z"/>
	<path fill="#FF5E79" d="M109.676,26.768c0,0.64,0.4,0.72,0.64,0.72c1.36,0,5.6-3.681,6.24-3.681c0.08,0,0.16,0.08,0.16,0.16
		c0,0.32-0.56,0.96-0.56,0.96c-4.64,4-6,3.521-6,3.601c-1.68,0-1.76-1.76-1.76-1.76c0-0.881,0.08-1.601,0.48-2.801v0.08
		c-1.76,1.681-5.2,3.761-5.2,3.761c-0.8,0.479-1.36,0.56-1.84,0.56c-1.52,0-1.6-1.44-1.6-2.16c0-2.8,2.88-6.4,2.88-6.4
		c4.48-5.52,6.88-5.92,6.88-5.92c1.6-0.72,3.2,0.48,2.8,2.72c0.8-1.199,1.84-2.96,3.68-2.96c0.48,0,0.56,0.24,0.56,0.48
		c0,0.32-0.16,0.72-0.24,0.8C109.916,24.207,109.676,26.127,109.676,26.768z M111.916,17.407c0-0.721-0.08-1.841-0.88-1.841
		c-1.36,0-4.96,4.16-5.92,5.2c0,0-3.36,3.521-3.36,5.841c0,0.16,0,0.479,0.24,0.56c0.24,0.08,0.96-0.16,2.48-1.12
		C104.795,25.807,111.916,21.247,111.916,17.407z"/>
	<path fill="#FF5E79" d="M131.354,23.807c0.08,0,0.16,0.08,0.16,0.16c0,0.32-0.56,0.96-0.56,0.96c-5.2,4.08-6.08,3.601-5.92,3.601
		c-0.88,0-1.84-0.72-1.84-2.32c0-2.64,1.92-5.84,4.72-10.08c0.48-0.64,0.88-1.2,0.72-1.44c-0.239,0-0.479,0.08-0.72,0.16
		c-4.64,1.76-8.64,6.16-11.28,10.48c-1.12,1.84-1.36,3.04-2,3.04c-0.24,0-0.4-0.4-0.4-1.04c0-0.56,0.08-1.2,0.4-2
		c2.4-6,5.44-11.681,8.24-11.681c0.32,0,0.4,0.24,0.4,0.48c0,1.04-2.4,3.76-3.52,5.36c2.24-2.4,4.8-4.4,7.92-5.681
		c2.721-0.64,3.2,0.48,3.2,1.521c0,0.399-0.08,0.72-0.16,0.8c-6,8.24-6.16,9.92-6.16,10.16c0,1.12,0.32,1.2,0.64,1.2
		c0.72,0,5.76-3.521,5.76-3.601C131.114,23.807,131.274,23.807,131.354,23.807z"/>
	<path fill="#FF5E79" d="M153.595,4.606c0,0.72-0.48,1.44-0.48,1.44l-5.68,6.96c-8.32,11.04-8.561,13.2-8.561,13.761
		c0,0.64,0.4,0.72,0.641,0.72c1.279,0.16,5.439-3.681,6.16-3.681c0.16,0,0.24,0.08,0.24,0.16c0,0.32-0.561,0.96-0.561,0.96
		c-2.561,2.16-5.04,3.681-6,3.601c-1.68-0.16-1.76-1.76-1.76-1.76c0-0.641,0.08-1.44,0.399-2.48c-1.36,1.2-4.64,4.08-6.72,4.08
		c-1.601,0-1.68-1.36-1.68-2.16c0-3.84,6-11.36,9.76-12.32c1.76-0.56,2.72,0.72,2.88,2.48c4.16-6.24,9.761-12.4,9.761-12.4
		c0.319-0.32,0.56-0.4,0.799-0.4c0.16,0,0.32,0.08,0.32,0.08C153.435,3.887,153.595,4.287,153.595,4.606z M139.194,16.447
		c-2.48,1.439-8.16,7.04-8.16,10.24c0,0.239-0.08,0.56,0.24,0.56s1.039-0.16,2.56-1.2c1.761-1.04,6.16-6.399,7.44-8.32
		C141.274,16.207,141.114,15.327,139.194,16.447z"/>
	<path fill="#FF5E79" d="M148.474,32.047c-0.4,0.08-0.881,0.16-1.28,0.16c-2.8,0.24-5.601-1.6-5.601-2.88
		c0-0.479,0.24-0.64,0.721-0.64c1.76,0,2.16,1.6,3.68,2.64c0.721,0,1.521,0,2.32-0.24c10.721-3.52,18.24-13.36,25.281-22
		c3.119-4.16,3.199-4.721,3.279-4.721c1.2,0,1.04,1.921,0.801,2.641l-3.361,5.76c-5.279,8.561-6.879,12.561-7.279,14.001
		c0.16,0,0.96-1.2,1.439-1.841c6.08-7.68,11.121-16.32,19.521-22.16c0.96-0.48,2.001-0.56,2.16,1.12c0.64-0.88,0.8-1.12,1.04-1.12
		c0.96,0,0.881,2,0.561,2.56l-5.041,7.44c-7.199,11.681-7.279,13.921-7.279,14.4c0,0.641,0.32,0.8,0.56,0.8
		c0.24,0,6.4-3.76,6.479-4.239c0.16-0.08,0.32-0.08,0.4-0.08c0.16,0,0.16,0,0.16,0.159c0,0.641-4.32,4.16-5.92,4.881
		c-0.48,0.239-0.96,0.319-1.28,0.319c-1.44,0-1.68-1.6-1.68-1.6c-0.08-0.24-0.08-0.561-0.08-0.8c0-5.681,8.24-17.44,11.28-21.681
		c0-0.72,0.08-1.84-0.96-1.2c-7.841,5.36-13.12,14.24-19.12,21.761c-1.521,1.92-2.4,2.88-3.041,2.88c-0.56,0-0.64-0.4-0.64-0.8
		c0-3.2,2.16-8.24,4.96-13.12C164.474,21.727,157.913,28.927,148.474,32.047z"/>
	<path fill="#FF5E79" d="M195.913,22.047c-0.479,0-0.64,0.4-0.959,0.88c-0.16,0.24-4,5.681-8.16,5.681c-0.641,0-1.761-0.16-1.841-2
		c-0.239-5.92,6.72-13.44,10.88-13.44c2.08,0,2.16,2,2.16,2.72c0,0.96-0.24,2.721-1.68,5.04c2.4-0.16,4.32-1.6,5.2-3.439
		c0.08-0.24,0.319-0.4,0.479-0.4c0.641,0,0.561,0.8,0.561,0.88C201.434,20.287,198.874,22.047,195.913,22.047z M194.394,21.807
		c-2-0.479-3.52-2-3.52-4.08c0-0.239,0-0.56,0.08-0.8c-1.921,2.08-4.08,5.761-4.08,9.12c0,1.28,0.56,1.2,0.639,1.2
		C190.073,27.167,193.354,23.167,194.394,21.807z M196.233,16.767c0-1.6-0.96-1.92-1.52-1.92c-2.16,0-2.801,2.24-2.801,2.88
		c0,1.36,1.121,2.561,3.041,3.12C195.993,18.767,196.233,17.487,196.233,16.767z"/>
	<path fill="#FF5E79" d="M208.794,15.007c-4.08,2.24-7.521,6.32-9.921,10.4c-1.2,2-1.36,2.96-1.92,2.96
		c-0.24,0-0.399-0.4-0.399-1.04c0-0.48,0-1.2,0.399-2c2.8-6,5.601-12.16,8.24-11.681c0.239,0.08,0.399,0.16,0.399,0.4
		c0,0.96-1.92,3.04-2.799,4.4c1.52-1.601,4.799-4.801,6.879-4.801c0.961,0,1.681,0.721,1.681,2.32c0,3.681-2.08,4.561-2.479,4.561
		c-0.721,0-0.561-1.04-0.4-1.44c0.24-0.56,1.359-2.24,1.6-3.92C210.073,14.527,209.193,14.767,208.794,15.007z"/>
	<path fill="#FF5E79" d="M221.913,21.167c0.239,0.16-0.4,1.36-0.961,2.08c-1.52,1.76-2.48,2.48-4.4,3.6
		c-1.76,0.961-6.399,3.36-7.359,0c-0.961-3.6,4.24-11.28,7.68-12.88c1.2-0.64,2.801-0.64,3.36,0.88c1.92,5.36-4.96,8.08-8.48,9.761
		c-0.319,0.08-0.56,0.16-0.88,0.239c-0.32,0.881-0.4,1.681-0.24,2.32c0.48,1.04,3.92-0.32,5.44-1.28
		c2.16-1.359,2.64-1.84,4.08-3.279C220.632,21.887,221.593,21.007,221.913,21.167z M211.433,23.567c3.68-1.521,8.8-4.16,7.84-8.001
		c-0.24-0.479-1.12,0-1.92,0.641C215.032,17.807,212.792,20.767,211.433,23.567z"/>
</g>
</svg>
