<svg xmlns="http://www.w3.org/2000/svg" version="1.1" x="0" y="0" width="222" height="33.1" viewBox="0 0 222 33.1" enable-background="new 0 0 221.963 33.108" xml:space="preserve"><path fill="#FF5E79" d="M26.5 7.8c4.1-2.2 9-5.7 13.4-5.7 3 0 6.2 1.5 6.2 5.4 0 2.2-1.4 5.9-3 5.9 -0.4 0-0.6-0.3-0.6-0.8 0-2.2 2.6-2.3 2.6-4.6 0-3.5-2.2-5-5.2-5 -3.4 0-7.4 2.6-10.8 4.4 0.2 0.2 0.2 0.6 0.2 0.8 0 0.6-0.2 1.1-0.2 1.1l-2.9 4.2c-6.8 11-7.8 14.6-7.8 14.6 0 1 0.2 1.2 0.6 1.2 0.1 0 7.2-5 7.3-5.6 0.2-0.1 0.2-0.1 0.3-0.1 0.2 0 0.2 0 0.2 0.2 0 0.3-0.4 1-0.4 1 -0.4 0.5-6.2 5.3-6.2 5.3 -0.5 0.2-1 0.3-1.3 0.3 -1.4 0-1.7-1.6-1.7-1.6 -0.1-0.2-0.1-0.6-0.1-0.9 0-5.4 7.1-15.4 9.8-19.1 -6.2 3.1-12.5 7-19.8 7 -1.5 0-7-0.9-7-5.6 0-0.7 0.2-1.1 0.6-1.1 0.8 0 1.6 1.4 1.6 3 0 2.1 2.2 2.8 4.2 2.8C13.7 14.8 20 11.2 26.5 7.8zM27.8 22.8c-2.5 4.1-2.5 5.1-2.5 5.1 -0.2 0.4-0.4 0.5-0.6 0.5 -0.6 0-0.6-0.3-0.6-0.6 0-7.5 15.3-24.4 15.4-24.4 0.5 0 0.8 0.6 0.8 1.2 0 0.4-0.2 0.9-0.4 1.2 -3.7 4.7-6.4 8.5-8.5 11.4 1.8-1.5 4.8-3.5 7-3.8 1.6-0.2 2.9 1.4 1.8 2.6 -5.5 7.6-6.2 9.5-6.2 10.2 0 1.1 0.4 1.2 0.6 1.2 1 0 5.8-3.5 5.8-3.6 0.2-0.1 0.2-0.1 0.3-0.1 0.2 0 0.2 0.1 0.2 0.2 0 0.3-0.6 1-0.6 1 -2.6 2.2-5 3.6-6 3.6 -1.7 0-1.8-1.8-1.8-1.8 -0.2-2.8 1.7-6 4.7-10.6 0.3-0.5 1-1.6-0.1-1.3C33.7 16.3 30.4 19.4 27.8 22.8zM52.2 21.2c0.2 0.2-0.4 1.4-1 2.1 -1.5 1.8-2.5 2.5-4.4 3.6 -1.8 1-6.4 3.4-7.4 0 -1-3.6 4.2-11.3 7.7-12.9 1.2-0.6 2.8-0.6 3.4 0.9 1.9 5.4-5 8.1-8.5 9.8 -0.3 0.1-0.6 0.2-0.9 0.2 -0.3 0.9-0.4 1.7-0.2 2.3 0.5 1 3.9-0.3 5.4-1.3 2.2-1.4 2.6-1.8 4.1-3.3C50.9 21.9 51.8 21 52.2 21.2zM41.7 23.6c3.7-1.5 8.8-4.2 7.8-8 -0.2-0.5-1.1 0-1.9 0.6C45.3 17.8 43 20.8 41.7 23.6zM58.6 25.3c-1.5 2-1.3 3-1.9 3 -0.2 0-0.4-0.4-0.4-1 0-0.5 0.1-1.2 0.4-2 1.9-5.4 3.5-7.5 5.5-10.4 -4.2 1.5-8.5 6.2-11 10.4 -1.4 1.8-1.2 3-2 3 -0.2 0-0.4-0.4-0.4-1 0-0.6 0.1-1.2 0.4-2 3.8-9 5.9-11.6 8.2-11.7 0.3 0 0.4 0.2 0.4 0.5 0 1.1-2.4 3.7-3.4 5.1 1.8-1.8 5.7-5.6 8.5-5.6 0.9 0 1.7 0.6 1.7 1.4 0 0.9-1.9 3-2.7 4.2 2.2-2.3 4.6-4.3 7.8-5.5 0.8-0.3 3.2-0.3 3.2 1.5 0 0.4-0.1 0.7-0.2 0.8 -5.5 7.7-6.2 9.6-6.2 10.2 0 1 0.5 1.1 0.7 1.1 0.7 0 5.8-3.5 5.8-3.6 0.2-0.1 0.3-0.1 0.4-0.1 0.1 0 0.2 0.1 0.2 0.2 0 0.3-0.6 1-0.6 1 -5 3.8-6.1 3.6-5.9 3.6 -1.2 0-1.8-1.1-1.8-2.3 0-2.6 1.9-5.8 4.7-10.1 0.5-0.6 0.9-1.3 0.7-1.4 -0.2 0-0.5 0.1-0.7 0.2C65.2 16.6 61.3 21 58.6 25.3zM84.6 21.2c0.2 0.2-0.4 1.4-1 2.1 -1.5 1.8-2.5 2.5-4.4 3.6 -1.8 1-6.4 3.4-7.4 0 -1-3.6 4.2-11.3 7.7-12.9 1.2-0.6 2.8-0.6 3.4 0.9 1.9 5.4-5 8.1-8.5 9.8 -0.3 0.1-0.6 0.2-0.9 0.2 -0.3 0.9-0.4 1.7-0.2 2.3 0.5 1 3.9-0.3 5.4-1.3 2.2-1.4 2.6-1.8 4.1-3.3C83.4 21.9 84.3 21 84.6 21.2zM74.2 23.6c3.7-1.5 8.8-4.2 7.8-8 -0.2-0.5-1.1 0-1.9 0.6C77.8 17.8 75.5 20.8 74.2 23.6zM79.9 24.2c0-1.4 1.2-2.9 2.9-2.9 0.3 0 0.8 0.1 1.2 0.2 1-1.4 2.2-2.5 5.1-7.2 0.1-0.1-0.5-1.2 1.2-0.9 1.9 0.4 2.7 8.7 0.6 12 1.2 0.1 3.1-0.9 3.4-0.9 0.1 0 0.1 0 0.1 0.1 0 0.3-1.6 1.8-3.5 1.8 -0.2 0-0.4 0-0.6-0.1 -2 2.2-3.4 2-5 2.1 -1.9 0.1-3.8-0.8-4.9-2.6C80.1 25.3 79.9 24.8 79.9 24.2zM82.9 22.3c-0.9 0-1.9 1.1-1.9 2.2 0 0.2 0 0.2 0.1 0.4 0.6-0.7 1.4-1.7 2.2-2.6C83.1 22.4 83 22.3 82.9 22.3zM81.2 25.4c0.6 1.1 2.6 2 4.2 2 1.5 0 2.6-0.7 3.2-1.7 -1.5-0.8-3.1-2-4.4-2.9C83.1 23.9 82 24.8 81.2 25.4zM84.9 22c1.4 1 3 2.2 4.3 2.8 1.4-2.5 1-8.9 0.4-9 -1.4 2-2.8 4.2-4.3 5.8C85.1 21.8 85 22 84.9 22zM109.7 26.8c0 0.6 0.4 0.7 0.6 0.7 1.4 0 5.6-3.7 6.2-3.7 0.1 0 0.2 0.1 0.2 0.2 0 0.3-0.6 1-0.6 1 -4.6 4-6 3.5-6 3.6 -1.7 0-1.8-1.8-1.8-1.8 0-0.9 0.1-1.6 0.5-2.8v0.1c-1.8 1.7-5.2 3.8-5.2 3.8 -0.8 0.5-1.4 0.6-1.8 0.6 -1.5 0-1.6-1.4-1.6-2.2 0-2.8 2.9-6.4 2.9-6.4 4.5-5.5 6.9-5.9 6.9-5.9 1.6-0.7 3.2 0.5 2.8 2.7 0.8-1.2 1.8-3 3.7-3 0.5 0 0.6 0.2 0.6 0.5 0 0.3-0.2 0.7-0.2 0.8C109.9 24.2 109.7 26.1 109.7 26.8zM111.9 17.4c0-0.7-0.1-1.8-0.9-1.8 -1.4 0-5 4.2-5.9 5.2 0 0-3.4 3.5-3.4 5.8 0 0.2 0 0.5 0.2 0.6 0.2 0.1 1-0.2 2.5-1.1C104.8 25.8 111.9 21.2 111.9 17.4zM131.4 23.8c0.1 0 0.2 0.1 0.2 0.2 0 0.3-0.6 1-0.6 1 -5.2 4.1-6.1 3.6-5.9 3.6 -0.9 0-1.8-0.7-1.8-2.3 0-2.6 1.9-5.8 4.7-10.1 0.5-0.6 0.9-1.2 0.7-1.4 -0.2 0-0.5 0.1-0.7 0.2 -4.6 1.8-8.6 6.2-11.3 10.5 -1.1 1.8-1.4 3-2 3 -0.2 0-0.4-0.4-0.4-1 0-0.6 0.1-1.2 0.4-2 2.4-6 5.4-11.7 8.2-11.7 0.3 0 0.4 0.2 0.4 0.5 0 1-2.4 3.8-3.5 5.4 2.2-2.4 4.8-4.4 7.9-5.7 2.7-0.6 3.2 0.5 3.2 1.5 0 0.4-0.1 0.7-0.2 0.8 -6 8.2-6.2 9.9-6.2 10.2 0 1.1 0.3 1.2 0.6 1.2 0.7 0 5.8-3.5 5.8-3.6C131.1 23.8 131.3 23.8 131.4 23.8zM153.6 4.6c0 0.7-0.5 1.4-0.5 1.4l-5.7 7c-8.3 11-8.6 13.2-8.6 13.8 0 0.6 0.4 0.7 0.6 0.7 1.3 0.2 5.4-3.7 6.2-3.7 0.2 0 0.2 0.1 0.2 0.2 0 0.3-0.6 1-0.6 1 -2.6 2.2-5 3.7-6 3.6 -1.7-0.2-1.8-1.8-1.8-1.8 0-0.6 0.1-1.4 0.4-2.5 -1.4 1.2-4.6 4.1-6.7 4.1 -1.6 0-1.7-1.4-1.7-2.2 0-3.8 6-11.4 9.8-12.3 1.8-0.6 2.7 0.7 2.9 2.5 4.2-6.2 9.8-12.4 9.8-12.4 0.3-0.3 0.6-0.4 0.8-0.4 0.2 0 0.3 0.1 0.3 0.1C153.4 3.9 153.6 4.3 153.6 4.6zM139.2 16.4c-2.5 1.4-8.2 7-8.2 10.2 0 0.2-0.1 0.6 0.2 0.6s1-0.2 2.6-1.2c1.8-1 6.2-6.4 7.4-8.3C141.3 16.2 141.1 15.3 139.2 16.4zM148.5 32c-0.4 0.1-0.9 0.2-1.3 0.2 -2.8 0.2-5.6-1.6-5.6-2.9 0-0.5 0.2-0.6 0.7-0.6 1.8 0 2.2 1.6 3.7 2.6 0.7 0 1.5 0 2.3-0.2 10.7-3.5 18.2-13.4 25.3-22 3.1-4.2 3.2-4.7 3.3-4.7 1.2 0 1 1.9 0.8 2.6l-3.4 5.8c-5.3 8.6-6.9 12.6-7.3 14 0.2 0 1-1.2 1.4-1.8 6.1-7.7 11.1-16.3 19.5-22.2 1-0.5 2-0.6 2.2 1.1 0.6-0.9 0.8-1.1 1-1.1 1 0 0.9 2 0.6 2.6l-5 7.4c-7.2 11.7-7.3 13.9-7.3 14.4 0 0.6 0.3 0.8 0.6 0.8 0.2 0 6.4-3.8 6.5-4.2 0.2-0.1 0.3-0.1 0.4-0.1 0.2 0 0.2 0 0.2 0.2 0 0.6-4.3 4.2-5.9 4.9 -0.5 0.2-1 0.3-1.3 0.3 -1.4 0-1.7-1.6-1.7-1.6 -0.1-0.2-0.1-0.6-0.1-0.8 0-5.7 8.2-17.4 11.3-21.7 0-0.7 0.1-1.8-1-1.2 -7.8 5.4-13.1 14.2-19.1 21.8 -1.5 1.9-2.4 2.9-3 2.9 -0.6 0-0.6-0.4-0.6-0.8 0-3.2 2.2-8.2 5-13.1C164.5 21.7 157.9 28.9 148.5 32zM195.9 22c-0.5 0-0.6 0.4-1 0.9 -0.2 0.2-4 5.7-8.2 5.7 -0.6 0-1.8-0.2-1.8-2 -0.2-5.9 6.7-13.4 10.9-13.4 2.1 0 2.2 2 2.2 2.7 0 1-0.2 2.7-1.7 5 2.4-0.2 4.3-1.6 5.2-3.4 0.1-0.2 0.3-0.4 0.5-0.4 0.6 0 0.6 0.8 0.6 0.9C201.4 20.3 198.9 22 195.9 22zM194.4 21.8c-2-0.5-3.5-2-3.5-4.1 0-0.2 0-0.6 0.1-0.8 -1.9 2.1-4.1 5.8-4.1 9.1 0 1.3 0.6 1.2 0.6 1.2C190.1 27.2 193.4 23.2 194.4 21.8zM196.2 16.8c0-1.6-1-1.9-1.5-1.9 -2.2 0-2.8 2.2-2.8 2.9 0 1.4 1.1 2.6 3 3.1C196 18.8 196.2 17.5 196.2 16.8zM208.8 15c-4.1 2.2-7.5 6.3-9.9 10.4 -1.2 2-1.4 3-1.9 3 -0.2 0-0.4-0.4-0.4-1 0-0.5 0-1.2 0.4-2 2.8-6 5.6-12.2 8.2-11.7 0.2 0.1 0.4 0.2 0.4 0.4 0 1-1.9 3-2.8 4.4 1.5-1.6 4.8-4.8 6.9-4.8 1 0 1.7 0.7 1.7 2.3 0 3.7-2.1 4.6-2.5 4.6 -0.7 0-0.6-1-0.4-1.4 0.2-0.6 1.4-2.2 1.6-3.9C210.1 14.5 209.2 14.8 208.8 15zM221.9 21.2c0.2 0.2-0.4 1.4-1 2.1 -1.5 1.8-2.5 2.5-4.4 3.6 -1.8 1-6.4 3.4-7.4 0 -1-3.6 4.2-11.3 7.7-12.9 1.2-0.6 2.8-0.6 3.4 0.9 1.9 5.4-5 8.1-8.5 9.8 -0.3 0.1-0.6 0.2-0.9 0.2 -0.3 0.9-0.4 1.7-0.2 2.3 0.5 1 3.9-0.3 5.4-1.3 2.2-1.4 2.6-1.8 4.1-3.3C220.6 21.9 221.6 21 221.9 21.2zM211.4 23.6c3.7-1.5 8.8-4.2 7.8-8 -0.2-0.5-1.1 0-1.9 0.6C215 17.8 212.8 20.8 211.4 23.6z"/></svg>